# Blender v2.79 (sub 0) OBJ File: ''
# www.blender.org
mtllib glyp_10.mtl
o glyp_10
v -2.413739 0.098098 -0.050637
v -2.754637 0.096881 -0.050202
v -2.413778 0.111724 -0.042770
v -2.754676 0.110506 -0.042335
v -2.413758 0.111724 -0.027037
v -2.754656 0.110507 -0.026601
v -2.413699 0.098098 -0.019170
v -2.754597 0.096881 -0.018735
v -2.413660 0.084473 -0.027037
v -2.754558 0.083255 -0.026602
v -2.413680 0.084472 -0.042770
v -2.754578 0.083255 -0.042335
v -2.413739 0.098098 -0.050637
v -2.413778 0.111724 -0.042770
v -2.413758 0.111724 -0.027037
v -2.413699 0.098098 -0.019170
v -2.413660 0.084473 -0.027037
v -2.413680 0.084472 -0.042770
v -2.754578 0.083255 -0.042335
v -2.754558 0.083255 -0.026602
v -2.754597 0.096881 -0.018735
v -2.754656 0.110507 -0.026601
v -2.754676 0.110506 -0.042335
v -2.754637 0.096881 -0.050202
v -2.230158 0.098754 -0.035138
v -2.413652 0.098098 0.017543
v -2.413523 0.052679 -0.008681
v -2.413590 0.052679 -0.061127
v -2.413786 0.098098 -0.087350
v -2.413914 0.143518 -0.061127
v -2.413848 0.143518 -0.008680
v 2.193853 0.228446 -0.212324
v 2.491825 0.353952 -0.320370
v 2.196377 0.234695 -0.198106
v 2.494349 0.360202 -0.306153
v 2.191390 0.249275 -0.194924
v 2.489362 0.374781 -0.302970
v 2.183880 0.257605 -0.205958
v 2.481852 0.383111 -0.314005
v 2.181357 0.251355 -0.220176
v 2.479329 0.376862 -0.328222
v 2.186343 0.236776 -0.223358
v 2.484315 0.362283 -0.331405
v 2.193853 0.228446 -0.212324
v 2.196377 0.234695 -0.198106
v 2.191390 0.249275 -0.194924
v 2.183880 0.257605 -0.205958
v 2.181357 0.251355 -0.220176
v 2.186343 0.236776 -0.223358
v 2.484315 0.362283 -0.331405
v 2.479329 0.376862 -0.328222
v 2.481852 0.383111 -0.314005
v 2.489362 0.374781 -0.302970
v 2.494349 0.360202 -0.306153
v 2.491825 0.353952 -0.320370
v 2.028420 0.175445 -0.150962
v 2.172244 0.291623 -0.198532
v 2.163834 0.270792 -0.245923
v 2.180456 0.222195 -0.256533
v 2.205489 0.194428 -0.219750
v 2.213900 0.215258 -0.172359
v 2.197277 0.263856 -0.161750
v -3.478850 0.673955 -0.227749
v -3.819745 0.672069 -0.227156
v -3.478911 0.687580 -0.219882
v -3.819806 0.685695 -0.219289
v -3.478884 0.687580 -0.204149
v -3.819779 0.685695 -0.203556
v -3.478795 0.673955 -0.196282
v -3.819690 0.672069 -0.195689
v -3.478733 0.660329 -0.204149
v -3.819628 0.658443 -0.203556
v -3.478761 0.660329 -0.219883
v -3.819655 0.658443 -0.219289
v -3.478850 0.673955 -0.227749
v -3.478911 0.687580 -0.219882
v -3.478884 0.687580 -0.204149
v -3.478795 0.673955 -0.196282
v -3.478733 0.660329 -0.204149
v -3.478761 0.660329 -0.219883
v -3.819655 0.658443 -0.219289
v -3.819628 0.658443 -0.203556
v -3.819690 0.672069 -0.195689
v -3.819779 0.685695 -0.203556
v -3.819806 0.685695 -0.219289
v -3.819745 0.672069 -0.227156
v -3.295264 0.674970 -0.212335
v -3.478731 0.673955 -0.159569
v -3.478525 0.628536 -0.185793
v -3.478617 0.628535 -0.238239
v -3.478914 0.673954 -0.264462
v -3.479119 0.719374 -0.238238
v -3.479028 0.719374 -0.185792
v 0.499000 1.021039 -0.198468
v 0.158171 1.027970 -0.199574
v 0.499251 1.034663 -0.190600
v 0.158423 1.041593 -0.191706
v 0.499200 1.034663 -0.174867
v 0.158372 1.041594 -0.175972
v 0.498898 1.021040 -0.167000
v 0.158069 1.027971 -0.168106
v 0.498646 1.007417 -0.174868
v 0.157818 1.014348 -0.175973
v 0.498697 1.007416 -0.190601
v 0.157869 1.014347 -0.191707
v 0.499000 1.021039 -0.198468
v 0.499251 1.034663 -0.190600
v 0.499200 1.034663 -0.174867
v 0.498898 1.021040 -0.167000
v 0.498646 1.007417 -0.174868
v 0.498697 1.007416 -0.190601
v 0.157869 1.014347 -0.191707
v 0.157818 1.014348 -0.175973
v 0.158069 1.027971 -0.168106
v 0.158372 1.041594 -0.175972
v 0.158423 1.041593 -0.191706
v 0.158171 1.027970 -0.199574
v 0.682472 1.017308 -0.182139
v 0.498779 1.021042 -0.130288
v 0.497940 0.975630 -0.156513
v 0.498110 0.975629 -0.208958
v 0.499119 1.021038 -0.235180
v 0.499957 1.066449 -0.208955
v 0.499787 1.066451 -0.156510
v -3.619759 0.043429 -0.171807
v -3.960660 0.043316 -0.171396
v -3.619754 0.057055 -0.163940
v -3.960655 0.056942 -0.163529
v -3.619735 0.057055 -0.148206
v -3.960636 0.056942 -0.147795
v -3.619721 0.043429 -0.140339
v -3.960622 0.043316 -0.139928
v -3.619726 0.029803 -0.148206
v -3.960627 0.029691 -0.147795
v -3.619745 0.029803 -0.163940
v -3.960646 0.029691 -0.163529
v -3.619759 0.043429 -0.171807
v -3.619754 0.057055 -0.163940
v -3.619735 0.057055 -0.148206
v -3.619721 0.043429 -0.140339
v -3.619726 0.029803 -0.148206
v -3.619745 0.029803 -0.163940
v -3.960646 0.029691 -0.163529
v -3.960627 0.029691 -0.147795
v -3.960622 0.043316 -0.139928
v -3.960636 0.056942 -0.147795
v -3.960655 0.056942 -0.163529
v -3.960660 0.043316 -0.171396
v -3.436179 0.043490 -0.156295
v -3.619677 0.043429 -0.103627
v -3.619694 -0.001991 -0.129850
v -3.619757 -0.001991 -0.182296
v -3.619804 0.043429 -0.208519
v -3.619787 0.088849 -0.182296
v -3.619724 0.088849 -0.129850
v 0.953236 0.087785 -0.319240
v 1.275520 0.056790 -0.212535
v 0.954460 0.103448 -0.318386
v 1.276743 0.072453 -0.211681
v 0.959385 0.111648 -0.330879
v 1.281668 0.080652 -0.224174
v 0.963086 0.104184 -0.344226
v 1.285369 0.073188 -0.237521
v 0.961863 0.088521 -0.345080
v 1.284146 0.057525 -0.238375
v 0.956938 0.080322 -0.332587
v 1.279221 0.049326 -0.225883
v 0.953236 0.087785 -0.319240
v 0.954460 0.103448 -0.318386
v 0.959385 0.111648 -0.330879
v 0.963086 0.104184 -0.344226
v 0.961863 0.088521 -0.345080
v 0.956938 0.080322 -0.332587
v 1.279221 0.049326 -0.225883
v 1.284146 0.057525 -0.238375
v 1.285369 0.073188 -0.237521
v 1.281668 0.080652 -0.224174
v 1.276743 0.072453 -0.211681
v 1.275520 0.056790 -0.212535
v 0.784624 0.112674 -0.389190
v 0.974577 0.123315 -0.373376
v 0.970499 0.071106 -0.376224
v 0.954083 0.043775 -0.334581
v 0.941745 0.068654 -0.290090
v 0.945823 0.120864 -0.287242
v 0.962240 0.148194 -0.328885
vt 0.738252 0.223993
vt 0.738252 0.610415
vt 0.721678 0.608453
vt 0.721678 0.222031
vt 1.000000 0.221586
vt 1.000000 0.611694
vt 0.981754 0.612336
vt 0.981755 0.222228
vt 0.397499 0.923279
vt 0.397499 0.564013
vt 0.413407 0.568067
vt 0.413407 0.927333
vt 0.429608 0.564229
vt 0.429608 0.923495
vt 0.944674 0.584854
vt 0.944674 0.977696
vt 0.926135 0.977661
vt 0.926135 0.584819
vt 0.753735 0.221586
vt 0.753735 0.608008
vt 0.173700 0.672997
vt 0.161260 0.657102
vt 0.169233 0.657102
vt 0.157755 0.672997
vt 0.162222 0.688892
vt 0.170195 0.688892
vt 0.659122 0.616608
vt 0.667095 0.616608
vt 0.671563 0.632503
vt 0.668057 0.648398
vt 0.660084 0.648398
vt 0.655616 0.632503
vt 0.116007 0.054537
vt 0.109503 0.029014
vt 0.157723 0.001746
vt 0.212448 0.000000
vt 0.218953 0.025523
vt 0.170733 0.052792
vt 0.218953 0.212970
vt 0.565742 0.000000
vt 0.596422 0.219948
vt 0.534626 0.219948
vt 0.322869 0.212958
vt 0.322869 0.434437
vt 0.270855 0.429583
vt 0.218953 0.409726
vt 0.655616 0.648398
vt 0.596361 0.457417
vt 0.655616 0.443682
vt 0.143266 0.437620
vt 0.143266 0.825305
vt 0.126003 0.823797
vt 0.126003 0.436112
vt 0.689622 0.610938
vt 0.689622 0.907479
vt 0.672694 0.912472
vt 0.672693 0.615931
vt 0.848355 0.224817
vt 0.848355 0.611577
vt 0.836072 0.608346
vt 0.836072 0.221586
vt 0.817903 0.609206
vt 0.817903 0.222444
vt 0.689622 0.946402
vt 0.689622 0.610440
vt 0.707536 0.612975
vt 0.707536 0.948937
vt 0.157755 0.435041
vt 0.157755 0.822726
vt 0.655616 0.656810
vt 0.623505 0.656667
vt 0.639561 0.648398
vt 0.623505 0.673348
vt 0.639561 0.681759
vt 0.655616 0.673490
vt 0.477244 0.644129
vt 0.492130 0.654320
vt 0.492130 0.672311
vt 0.477244 0.680109
vt 0.462357 0.669918
vt 0.462358 0.651927
vt 0.220214 0.719985
vt 0.220214 0.660238
vt 0.270018 0.626140
vt 0.319822 0.651790
vt 0.319822 0.711538
vt 0.270018 0.745635
vt 0.768889 0.000000
vt 0.779118 0.195328
vt 0.718486 0.195328
vt 0.777010 0.610415
vt 0.777010 0.773919
vt 0.721678 0.750129
vt 0.534563 0.444136
vt 0.431974 0.247605
vt 0.477275 0.228929
vt 0.534563 0.221586
vt 0.319822 0.434437
vt 0.319822 0.624636
vt 0.260964 0.626140
vt 0.218953 0.590100
vt 0.770305 0.223997
vt 0.770305 0.610364
vt 0.753735 0.608395
vt 0.753735 0.222028
vt 0.880456 0.585793
vt 0.880456 0.976058
vt 0.862211 0.976694
vt 0.862211 0.586430
vt 0.944674 0.225637
vt 0.944674 0.584819
vt 0.928757 0.580767
vt 0.928757 0.221586
vt 0.912565 0.584616
vt 0.912564 0.225434
vt 0.963215 0.614551
vt 0.963214 0.221586
vt 0.981754 0.221620
vt 0.981754 0.614585
vt 0.785794 0.221586
vt 0.785794 0.607952
vt 0.608122 0.662784
vt 0.615814 0.681386
vt 0.608123 0.679277
vt 0.623505 0.667001
vt 0.623505 0.650507
vt 0.615813 0.648398
vt 0.663307 0.681386
vt 0.655616 0.679277
vt 0.655616 0.662783
vt 0.663308 0.648398
vt 0.671000 0.650507
vt 0.671000 0.667001
vt 0.006573 0.054608
vt 0.000000 0.029076
vt 0.048178 0.001772
vt 0.102930 0.000000
vt 0.109503 0.025533
vt 0.061324 0.052837
vt 0.109503 0.212951
vt 0.218953 0.657102
vt 0.157755 0.443538
vt 0.218953 0.435041
vt 0.431974 0.443637
vt 0.328329 0.247399
vt 0.376701 0.227799
vt 0.431974 0.221586
vt 0.492686 0.444136
vt 0.492686 0.644129
vt 0.431974 0.640002
vt 0.674197 0.223955
vt 0.674196 0.610938
vt 0.657576 0.609045
vt 0.657576 0.222063
vt 0.777010 0.999223
vt 0.777010 0.611135
vt 0.795256 0.610415
vt 0.795256 0.998504
vt 0.880456 0.225672
vt 0.880456 0.585793
vt 0.864656 0.581707
vt 0.864656 0.221586
vt 0.848355 0.585428
vt 0.848355 0.225306
vt 0.917534 0.584973
vt 0.917534 0.976189
vt 0.898995 0.976152
vt 0.898995 0.584935
vt 0.689622 0.221586
vt 0.689622 0.608568
vt 0.064111 0.653643
vt 0.048083 0.662663
vt 0.032056 0.653432
vt 0.032056 0.635181
vt 0.048083 0.626161
vt 0.064111 0.635392
vt 0.000000 0.653432
vt 0.032055 0.653643
vt 0.016028 0.662663
vt 0.032056 0.635392
vt 0.016028 0.626161
vt 0.000000 0.635181
vt 0.005697 0.266694
vt 0.000000 0.241238
vt 0.048717 0.214366
vt 0.103130 0.212951
vt 0.108826 0.238407
vt 0.060110 0.265279
vt 0.108826 0.426094
vt 0.565606 0.221586
vt 0.596361 0.441909
vt 0.534563 0.441909
vt 0.432219 0.000000
vt 0.432219 0.221586
vt 0.380428 0.216624
vt 0.328329 0.196923
vt 0.389066 0.564013
vt 0.389066 0.761365
vt 0.328329 0.757431
vt 0.705098 0.608032
vt 0.705098 0.221586
vt 0.721678 0.223542
vt 0.721678 0.609989
vt 0.817903 0.609492
vt 0.817903 0.999347
vt 0.799658 1.000000
vt 0.799658 0.610144
vt 0.880456 0.580872
vt 0.880456 0.221586
vt 0.896350 0.225649
vt 0.896350 0.584935
vt 0.912564 0.221822
vt 0.912564 0.581109
vt 0.880456 0.977571
vt 0.880456 0.584935
vt 0.898995 0.584971
vt 0.898995 0.977607
vt 0.689622 0.610440
vt 0.689622 0.223994
vt 0.204634 0.675750
vt 0.196961 0.657102
vt 0.204635 0.659240
vt 0.189287 0.671474
vt 0.189287 0.687984
vt 0.196961 0.690122
vt 0.189287 0.687955
vt 0.181493 0.689619
vt 0.173700 0.675024
vt 0.173701 0.658766
vt 0.181494 0.657102
vt 0.189287 0.671697
vt 0.225359 0.054467
vt 0.218953 0.028924
vt 0.267235 0.001690
vt 0.321923 0.000000
vt 0.328328 0.025544
vt 0.280047 0.052778
vt 0.328329 0.212958
vt 0.657576 0.221586
vt 0.657576 0.443682
vt 0.596361 0.435305
vt 0.218953 0.435041
vt 0.115316 0.238784
vt 0.163654 0.219217
vt 0.218953 0.212970
vt 0.704837 0.000000
vt 0.718486 0.199022
vt 0.657629 0.199022
vt 0.944674 0.616553
vt 0.944674 0.221586
vt 0.963214 0.221586
vt 0.963214 0.616553
vt 0.534563 0.444136
vt 0.534563 0.819509
vt 0.519907 0.823239
vt 0.519907 0.447865
vt 0.502745 0.820935
vt 0.502745 0.445561
vt 0.107468 0.831496
vt 0.107468 0.435041
vt 0.126003 0.435078
vt 0.126003 0.831533
vt 0.785794 0.607282
vt 0.785794 0.221698
vt 0.801981 0.223907
vt 0.801981 0.609492
vt 0.817903 0.221586
vt 0.817903 0.607170
vt 0.094508 0.636132
vt 0.064111 0.634239
vt 0.079309 0.626161
vt 0.064111 0.652288
vt 0.079309 0.662259
vt 0.094508 0.654181
vt 0.447166 0.644129
vt 0.462357 0.652218
vt 0.462357 0.670275
vt 0.447166 0.680242
vt 0.431974 0.672152
vt 0.431974 0.654095
vt 0.378968 0.564013
vt 0.328329 0.537047
vt 0.328329 0.476859
vt 0.378968 0.443637
vt 0.429608 0.470603
vt 0.429608 0.530791
vt 0.596361 0.441909
vt 0.596361 0.661910
vt 0.535145 0.653624
vt 0.054667 0.426094
vt 0.107033 0.626161
vt 0.053103 0.618607
vt 0.000000 0.626161
vt 0.657629 0.000000
vt 0.657629 0.221216
vt 0.596422 0.212747
vt 0.534626 0.219946
vt 0.432219 0.027748
vt 0.477115 0.004973
vt 0.534626 0.000000
vn -0.0029 0.5000 -0.8660
vn -0.0036 1.0000 0.0000
vn -0.0007 0.5000 0.8660
vn 0.0029 -0.5000 0.8660
vn 0.0036 -1.0000 -0.0000
vn 0.0007 -0.5000 -0.8660
vn -1.0000 -0.0035 0.0013
vn -1.0000 -0.0036 0.0013
vn 0.2430 -0.4845 0.8404
vn 0.2437 -0.9699 -0.0003
vn 0.2409 -0.4845 -0.8410
vn 0.2374 0.4862 -0.8410
vn 0.2367 0.9716 -0.0003
vn 0.2395 0.4862 0.8404
vn 0.4586 -0.8407 0.2881
vn 0.3682 -0.0764 0.9266
vn -0.0904 0.7643 0.6385
vn -0.4586 0.8407 -0.2881
vn -0.3682 0.0764 -0.9266
vn 0.0904 -0.7643 -0.6385
vn 0.8741 0.3682 -0.3169
vn -0.6551 0.7276 -0.2036
vn -0.5673 -0.0143 -0.8234
vn -0.1222 -0.8304 -0.5437
vn 0.2352 -0.9045 0.3558
vn 0.1474 -0.1626 0.9756
vn -0.2977 0.6535 0.6959
vn -0.0043 0.5000 -0.8660
vn -0.0055 1.0000 0.0000
vn -0.0013 0.5000 0.8660
vn 0.0043 -0.5000 0.8660
vn 0.0055 -1.0000 -0.0000
vn 0.0013 -0.5000 -0.8660
vn -1.0000 -0.0055 0.0017
vn -1.0000 -0.0056 0.0017
vn 0.2443 -0.4840 0.8403
vn 0.2456 -0.9694 -0.0004
vn 0.2414 -0.4840 -0.8411
vn 0.2360 0.4867 -0.8411
vn 0.2348 0.9720 -0.0004
vn 0.2390 0.4867 0.8403
vn 0.0130 0.4999 -0.8660
vn 0.0203 0.9998 0.0000
vn 0.0074 0.4999 0.8660
vn -0.0130 -0.4999 0.8660
vn -0.0203 -0.9998 -0.0000
vn -0.0074 -0.4999 -0.8660
vn 0.9998 -0.0203 0.0032
vn -0.9998 0.0203 -0.0032
vn 0.2275 -0.4901 0.8414
vn 0.2204 -0.9754 0.0007
vn 0.2330 -0.4902 -0.8399
vn 0.2527 0.4804 -0.8399
vn 0.2599 0.9656 0.0008
vn 0.2473 0.4804 0.8415
vn -0.0012 0.5000 -0.8660
vn -0.0003 1.0000 0.0000
vn 0.0009 0.5000 0.8660
vn 0.0012 -0.5000 0.8660
vn 0.0003 -1.0000 -0.0000
vn -0.0009 -0.5000 -0.8660
vn -1.0000 -0.0003 0.0012
vn -1.0000 -0.0004 0.0012
vn 0.2414 -0.4853 0.8404
vn 0.2405 -0.9706 -0.0003
vn 0.2393 -0.4853 -0.8410
vn 0.2390 0.4854 -0.8410
vn 0.2399 0.9708 -0.0003
vn 0.2410 0.4854 0.8404
vn -0.3165 -0.0270 0.9482
vn -0.0909 0.8486 0.5211
vn 0.2256 0.8756 -0.4271
vn 0.3165 0.0270 -0.9482
vn 0.0909 -0.8486 -0.5211
vn -0.2256 -0.8756 0.4271
vn 0.9454 -0.0909 0.3130
vn 0.0802 0.0480 -0.9956
vn -0.1388 -0.8019 -0.5810
vn -0.4461 -0.8281 0.3394
vn -0.5343 -0.0044 0.8453
vn -0.3153 0.8456 0.4307
vn -0.0081 0.8718 -0.4898
usemtl Material
s off
f 1/1/1 2/2/1 4/3/1 3/4/1
f 3/5/2 4/6/2 6/7/2 5/8/2
f 5/9/3 6/10/3 8/11/3 7/12/3
f 7/12/4 8/11/4 10/13/4 9/14/4
f 9/15/5 10/16/5 12/17/5 11/18/5
f 2/2/6 1/1/6 11/19/6 12/20/6
f 13/21/7 15/22/7 14/23/7
f 13/21/8 16/24/8 15/22/8
f 13/21/7 17/25/7 16/24/7
f 13/21/8 18/26/8 17/25/8
f 19/27/7 20/28/7 21/29/7
f 19/27/8 21/29/8 22/30/8
f 19/27/8 22/30/8 23/31/8
f 19/27/8 23/31/8 24/32/8
f 31/33/8 30/34/8 29/35/8
f 31/33/8 29/35/8 28/36/8
f 31/33/8 28/36/8 27/37/8
f 31/33/8 27/37/8 26/38/8
f 25/39/9 26/38/9 27/37/9
f 25/40/10 27/41/10 28/42/10
f 25/43/11 28/44/11 29/45/11
f 25/43/12 29/45/12 30/46/12
f 25/47/13 30/48/13 31/49/13
f 25/39/14 31/33/14 26/38/14
f 32/50/15 33/51/15 35/52/15 34/53/15
f 34/54/16 35/55/16 37/56/16 36/57/16
f 36/58/17 37/59/17 39/60/17 38/61/17
f 38/61/18 39/60/18 41/62/18 40/63/18
f 40/64/19 41/65/19 43/66/19 42/67/19
f 42/68/20 43/69/20 33/51/20 32/50/20
f 44/70/21 46/71/21 45/72/21
f 44/70/21 47/73/21 46/71/21
f 44/70/21 48/74/21 47/73/21
f 44/70/21 49/75/21 48/74/21
f 50/76/21 51/77/21 52/78/21
f 50/76/21 52/78/21 53/79/21
f 50/76/21 53/79/21 54/80/21
f 50/76/21 54/80/21 55/81/21
f 62/82/21 61/83/21 60/84/21
f 62/82/21 60/84/21 59/85/21
f 62/82/21 59/85/21 58/86/21
f 62/82/21 58/86/21 57/87/21
f 56/88/22 57/89/22 58/90/22
f 56/91/23 58/92/23 59/93/23
f 56/94/24 59/95/24 60/96/24
f 56/94/25 60/96/25 61/97/25
f 56/98/26 61/99/26 62/100/26
f 56/98/27 62/100/27 57/101/27
f 63/102/28 64/103/28 66/104/28 65/105/28
f 65/106/29 66/107/29 68/108/29 67/109/29
f 67/110/30 68/111/30 70/112/30 69/113/30
f 69/113/31 70/112/31 72/114/31 71/115/31
f 71/116/32 72/117/32 74/118/32 73/119/32
f 73/120/33 74/121/33 64/103/33 63/102/33
f 75/122/34 77/123/34 76/124/34
f 75/122/34 78/125/34 77/123/34
f 75/122/34 79/126/34 78/125/34
f 75/122/34 80/127/34 79/126/34
f 81/128/35 82/129/35 83/130/35
f 81/128/34 83/130/34 84/131/34
f 81/128/34 84/131/34 85/132/34
f 81/128/34 85/132/34 86/133/34
f 93/134/34 92/135/34 91/136/34
f 93/134/34 91/136/34 90/137/34
f 93/134/34 90/137/34 89/138/34
f 93/134/34 89/138/34 88/139/34
f 87/140/36 88/139/36 89/138/36
f 87/141/37 89/142/37 90/143/37
f 87/144/38 90/145/38 91/146/38
f 87/144/39 91/146/39 92/147/39
f 87/148/40 92/149/40 93/150/40
f 87/140/41 93/134/41 88/139/41
f 94/151/42 95/152/42 97/153/42 96/154/42
f 96/155/43 97/156/43 99/157/43 98/158/43
f 98/159/44 99/160/44 101/161/44 100/162/44
f 100/162/45 101/161/45 103/163/45 102/164/45
f 102/165/46 103/166/46 105/167/46 104/168/46
f 104/169/47 105/170/47 95/152/47 94/151/47
f 106/171/48 107/172/48 108/173/48
f 106/171/48 108/173/48 109/174/48
f 106/171/48 109/174/48 110/175/48
f 106/171/48 110/175/48 111/176/48
f 112/177/48 114/178/48 113/179/48
f 112/177/48 115/180/48 114/178/48
f 112/177/48 116/181/48 115/180/48
f 112/177/48 117/182/48 116/181/48
f 124/183/49 123/184/49 122/185/49
f 124/183/49 122/185/49 121/186/49
f 124/183/49 121/186/49 120/187/49
f 124/183/49 120/187/49 119/188/49
f 118/189/50 119/188/50 120/187/50
f 118/190/51 120/191/51 121/192/51
f 118/193/52 121/194/52 122/195/52
f 118/193/53 122/195/53 123/196/53
f 118/197/54 123/198/54 124/199/54
f 118/189/55 124/183/55 119/188/55
f 125/200/56 126/201/56 128/202/56 127/203/56
f 127/204/57 128/205/57 130/206/57 129/207/57
f 129/208/58 130/209/58 132/210/58 131/211/58
f 131/211/59 132/210/59 134/212/59 133/213/59
f 133/214/60 134/215/60 136/216/60 135/217/60
f 135/218/61 136/219/61 126/201/61 125/200/61
f 137/220/62 139/221/62 138/222/62
f 137/220/62 140/223/62 139/221/62
f 137/220/62 141/224/62 140/223/62
f 137/220/62 142/225/62 141/224/62
f 143/226/63 144/227/63 145/228/63
f 143/226/62 145/228/62 146/229/62
f 143/226/62 146/229/62 147/230/62
f 143/226/62 147/230/62 148/231/62
f 155/232/62 154/233/62 153/234/62
f 155/232/62 153/234/62 152/235/62
f 155/232/62 152/235/62 151/236/62
f 155/232/62 151/236/62 150/237/62
f 149/238/64 150/237/64 151/236/64
f 149/239/65 151/240/65 152/241/65
f 149/242/66 152/243/66 153/244/66
f 149/242/67 153/244/67 154/245/67
f 149/246/68 154/247/68 155/248/68
f 149/238/69 155/232/69 150/237/69
f 156/249/70 157/250/70 159/251/70 158/252/70
f 158/253/71 159/254/71 161/255/71 160/256/71
f 160/256/72 161/255/72 163/257/72 162/258/72
f 162/259/73 163/260/73 165/261/73 164/262/73
f 164/263/74 165/264/74 167/265/74 166/266/74
f 166/266/75 167/265/75 157/267/75 156/268/75
f 168/269/76 170/270/76 169/271/76
f 168/269/76 171/272/76 170/270/76
f 168/269/76 172/273/76 171/272/76
f 168/269/76 173/274/76 172/273/76
f 174/275/76 175/276/76 176/277/76
f 174/275/76 176/277/76 177/278/76
f 174/275/76 177/278/76 178/279/76
f 174/275/76 178/279/76 179/280/76
f 186/281/76 185/282/76 184/283/76
f 186/281/76 184/283/76 183/284/76
f 186/281/76 183/284/76 182/285/76
f 186/281/76 182/285/76 181/286/76
f 180/287/77 181/288/77 182/289/77
f 180/290/78 182/291/78 183/292/78
f 180/290/79 183/292/79 184/293/79
f 180/294/80 184/295/80 185/296/80
f 180/297/81 185/298/81 186/299/81
f 180/297/82 186/299/82 181/300/82
