# Blender v2.79 (sub 0) OBJ File: ''
# www.blender.org
mtllib glyp_5.mtl
o glyp_5
v -2.745832 0.096678 -0.050135
v -3.086732 0.095924 -0.049862
v -2.745856 0.110304 -0.042268
v -3.086756 0.109550 -0.041995
v -2.745844 0.110304 -0.026534
v -3.086743 0.109550 -0.026261
v -2.745807 0.096678 -0.018667
v -3.086707 0.095924 -0.018395
v -2.745783 0.083053 -0.026534
v -3.086683 0.082298 -0.026261
v -2.745796 0.083053 -0.042268
v -3.086696 0.082298 -0.041995
v -2.745832 0.096678 -0.050135
v -2.745856 0.110304 -0.042268
v -2.745844 0.110304 -0.026534
v -2.745807 0.096678 -0.018667
v -2.745783 0.083053 -0.026534
v -2.745796 0.083053 -0.042268
v -3.086696 0.082298 -0.041995
v -3.086683 0.082298 -0.026261
v -3.086707 0.095924 -0.018395
v -3.086743 0.109550 -0.026261
v -3.086756 0.109550 -0.041995
v -3.086732 0.095924 -0.049862
v -2.562258 0.097085 -0.034548
v -2.745778 0.096679 0.018045
v -2.745698 0.051259 -0.008178
v -2.745740 0.051259 -0.060624
v -2.745862 0.096678 -0.086847
v -2.745941 0.142098 -0.060624
v -2.745899 0.142098 -0.008178
v 2.250923 0.211064 -0.197435
v 2.521393 0.368360 -0.332777
v 2.254087 0.217624 -0.183488
v 2.524557 0.374920 -0.318830
v 2.247841 0.231575 -0.179758
v 2.518310 0.388871 -0.315100
v 2.238430 0.238965 -0.189974
v 2.508900 0.396261 -0.325317
v 2.235266 0.232405 -0.203921
v 2.505736 0.389701 -0.339263
v 2.241513 0.218455 -0.207651
v 2.511982 0.375751 -0.342994
v 2.250923 0.211064 -0.197435
v 2.254087 0.217624 -0.183488
v 2.247841 0.231575 -0.179758
v 2.238430 0.238965 -0.189974
v 2.235266 0.232405 -0.203921
v 2.241513 0.218455 -0.207651
v 2.511982 0.375751 -0.342994
v 2.505736 0.389701 -0.339263
v 2.508900 0.396261 -0.325317
v 2.518310 0.388871 -0.315100
v 2.524557 0.374920 -0.318830
v 2.521393 0.368360 -0.332777
v 2.099040 0.140317 -0.120828
v 2.223855 0.271517 -0.181270
v 2.213309 0.249650 -0.227759
v 2.234131 0.203148 -0.240194
v 2.265499 0.178513 -0.206139
v 2.276045 0.200379 -0.159650
v 2.255223 0.246881 -0.147215
v -3.824877 0.671771 -0.227068
v -4.165775 0.670570 -0.226667
v -3.824916 0.685397 -0.219201
v -4.165814 0.684196 -0.218800
v -3.824897 0.685397 -0.203468
v -4.165795 0.684196 -0.203066
v -3.824840 0.671771 -0.195601
v -4.165738 0.670570 -0.195199
v -3.824801 0.658146 -0.203468
v -4.165699 0.656944 -0.203066
v -3.824820 0.658145 -0.219201
v -4.165718 0.656944 -0.218800
v -3.824877 0.671771 -0.227068
v -3.824916 0.685397 -0.219201
v -3.824897 0.685397 -0.203468
v -3.824840 0.671771 -0.195601
v -3.824801 0.658146 -0.203468
v -3.824820 0.658145 -0.219201
v -4.165718 0.656944 -0.218800
v -4.165699 0.656944 -0.203066
v -4.165738 0.670570 -0.195199
v -4.165795 0.684196 -0.203066
v -4.165814 0.684196 -0.218800
v -4.165775 0.670570 -0.226667
v -3.641298 0.672418 -0.211551
v -3.824797 0.671771 -0.158888
v -3.824667 0.626352 -0.185111
v -3.824729 0.626352 -0.237558
v -3.824920 0.671771 -0.263781
v -3.825049 0.717191 -0.237558
v -3.824988 0.717191 -0.185111
v 0.415089 1.038455 -0.201520
v 0.074347 1.028251 -0.199589
v 0.414726 1.052076 -0.193652
v 0.073984 1.041871 -0.191721
v 0.414815 1.052077 -0.177919
v 0.074073 1.041873 -0.175987
v 0.415268 1.038458 -0.170053
v 0.074525 1.028253 -0.168121
v 0.415631 1.024837 -0.177921
v 0.074889 1.014633 -0.175989
v 0.415542 1.024836 -0.193654
v 0.074799 1.014632 -0.191723
v 0.415089 1.038455 -0.201520
v 0.414726 1.052076 -0.193652
v 0.414815 1.052077 -0.177919
v 0.415268 1.038458 -0.170053
v 0.415631 1.024837 -0.177921
v 0.415542 1.024836 -0.193654
v 0.074799 1.014632 -0.191723
v 0.074889 1.014633 -0.175989
v 0.074525 1.028253 -0.168121
v 0.074073 1.041873 -0.175987
v 0.073984 1.041871 -0.191721
v 0.074347 1.028251 -0.199589
v 0.598655 1.043951 -0.186826
v 0.415476 1.038461 -0.133341
v 0.416687 0.993059 -0.159568
v 0.416389 0.993055 -0.212013
v 0.414881 1.038452 -0.238232
v 0.413670 1.083853 -0.212005
v 0.413967 1.083858 -0.159560
v -3.966117 0.043305 -0.171355
v -4.307017 0.043233 -0.171095
v -3.966114 0.056931 -0.163488
v -4.307014 0.056859 -0.163228
v -3.966102 0.056931 -0.147754
v -4.307002 0.056859 -0.147494
v -3.966093 0.043305 -0.139887
v -4.306993 0.043233 -0.139627
v -3.966096 0.029679 -0.147754
v -4.306996 0.029607 -0.147494
v -3.966108 0.029679 -0.163488
v -4.307009 0.029607 -0.163228
v -3.966117 0.043305 -0.171355
v -3.966114 0.056931 -0.163488
v -3.966102 0.056931 -0.147754
v -3.966093 0.043305 -0.139887
v -3.966096 0.029679 -0.147754
v -3.966108 0.029679 -0.163488
v -4.307009 0.029607 -0.163228
v -4.306996 0.029607 -0.147494
v -4.306993 0.043233 -0.139627
v -4.307002 0.056859 -0.147494
v -4.307014 0.056859 -0.163228
v -4.307017 0.043233 -0.171095
v -3.782543 0.043344 -0.155761
v -3.966065 0.043305 -0.103175
v -3.966075 -0.002115 -0.129398
v -3.966115 -0.002115 -0.181844
v -3.966145 0.043305 -0.208067
v -3.966135 0.088725 -0.181844
v -3.966094 0.088725 -0.129398
v 1.012858 0.071732 -0.264382
v 1.345951 0.051719 -0.194652
v 1.013668 0.087432 -0.263741
v 1.346760 0.067419 -0.194011
v 1.016886 0.095681 -0.276747
v 1.349978 0.075667 -0.207017
v 1.019295 0.088229 -0.290394
v 1.352387 0.068216 -0.220664
v 1.018486 0.072529 -0.291034
v 1.351578 0.052516 -0.221305
v 1.015267 0.064281 -0.278028
v 1.348360 0.044267 -0.208299
v 1.012858 0.071732 -0.264382
v 1.013668 0.087432 -0.263741
v 1.016886 0.095681 -0.276747
v 1.019295 0.088229 -0.290394
v 1.018486 0.072529 -0.291034
v 1.015267 0.064281 -0.278028
v 1.348360 0.044267 -0.208299
v 1.351578 0.052516 -0.221305
v 1.352387 0.068216 -0.220664
v 1.349978 0.075667 -0.207017
v 1.346760 0.067419 -0.194011
v 1.345951 0.051719 -0.194652
v 0.836719 0.090757 -0.314935
v 1.026804 0.107476 -0.320741
v 1.024107 0.055143 -0.322876
v 1.013379 0.027647 -0.279523
v 1.005349 0.052485 -0.234034
v 1.008046 0.104818 -0.231899
v 1.018774 0.132314 -0.275253
vt 0.878647 0.422592
vt 0.878647 0.796106
vt 0.862732 0.799800
vt 0.862732 0.426285
vt 0.963233 0.017493
vt 0.963233 0.420711
vt 0.944858 0.420594
vt 0.944858 0.017377
vt 0.799108 0.813519
vt 0.799108 0.425776
vt 0.814214 0.422592
vt 0.814214 0.810335
vt 0.830865 0.424965
vt 0.830865 0.812708
vt 0.926459 0.017388
vt 0.926459 0.422592
vt 0.908061 0.422580
vt 0.908060 0.017377
vt 0.894601 0.426258
vt 0.894601 0.799772
vt 0.177402 0.678573
vt 0.145533 0.678573
vt 0.161467 0.669201
vt 0.145533 0.697317
vt 0.161467 0.706689
vt 0.177402 0.697317
vt 0.029460 0.675523
vt 0.045395 0.666151
vt 0.061329 0.675523
vt 0.061329 0.694267
vt 0.045395 0.703640
vt 0.029461 0.694267
vt 0.401890 0.668485
vt 0.348775 0.699726
vt 0.295661 0.668486
vt 0.295661 0.606004
vt 0.348776 0.574763
vt 0.401890 0.606004
vt 0.411710 0.225315
vt 0.355897 0.005171
vt 0.411710 0.000000
vt 0.031014 0.444306
vt 0.061329 0.666151
vt 0.000000 0.666150
vt 0.455230 0.422592
vt 0.508120 0.611448
vt 0.454949 0.599181
vt 0.401890 0.611448
vt 0.206142 0.669201
vt 0.145533 0.452248
vt 0.206142 0.443241
vt 0.309240 0.027184
vt 0.706783 0.551373
vt 0.706783 0.922076
vt 0.690184 0.918772
vt 0.690184 0.548069
vt 0.999957 0.422592
vt 0.999957 0.822274
vt 0.981571 0.822398
vt 0.981571 0.422715
vt 0.894602 0.755957
vt 0.894601 0.422592
vt 0.910286 0.428189
vt 0.910287 0.761554
vt 0.926459 0.423083
vt 0.926459 0.756448
vt 0.944821 0.422654
vt 0.944821 0.828246
vt 0.926459 0.828184
vt 0.926459 0.422592
vt 0.721957 0.547043
vt 0.721957 0.917746
vt 0.177402 0.675030
vt 0.189558 0.704995
vt 0.177402 0.692927
vt 0.201714 0.699167
vt 0.201714 0.681269
vt 0.189558 0.669201
vt 0.606052 0.417551
vt 0.606052 0.400258
vt 0.618634 0.387768
vt 0.631215 0.392569
vt 0.631215 0.409861
vt 0.618634 0.422352
vt 0.061329 0.767615
vt 0.061329 0.709975
vt 0.103268 0.668338
vt 0.145207 0.684342
vt 0.145207 0.741982
vt 0.103268 0.783618
vt 0.628896 0.648584
vt 0.628896 0.819945
vt 0.568828 0.819560
vt 0.696534 0.217279
vt 0.635803 0.007740
vt 0.696534 0.000000
vt 0.102183 0.444306
vt 0.000000 0.252729
vt 0.045860 0.226634
vt 0.102183 0.224147
vt 0.401890 0.449799
vt 0.309240 0.243297
vt 0.367999 0.225535
vt 0.401890 0.225315
vt 0.846926 0.018578
vt 0.846926 0.392152
vt 0.831007 0.395839
vt 0.831007 0.022265
vt 0.981571 0.422708
vt 0.981571 0.825862
vt 0.963196 0.825744
vt 0.963196 0.422592
vt 0.767353 0.813575
vt 0.767353 0.425773
vt 0.782454 0.422592
vt 0.782454 0.810395
vt 0.799108 0.424959
vt 0.799108 0.812761
vt 0.285248 0.446554
vt 0.285248 0.851794
vt 0.266849 0.851782
vt 0.266850 0.446542
vt 0.862876 0.022244
vt 0.862875 0.395819
vt 0.637921 0.359651
vt 0.606052 0.359650
vt 0.621987 0.350278
vt 0.606052 0.378395
vt 0.621986 0.387768
vt 0.637921 0.378396
vt 0.653856 0.350278
vt 0.669790 0.359651
vt 0.669790 0.378395
vt 0.653856 0.387768
vt 0.637921 0.378395
vt 0.637921 0.359651
vt 0.295661 0.481040
vt 0.348776 0.449799
vt 0.401890 0.481040
vt 0.401890 0.543522
vt 0.348775 0.574763
vt 0.295661 0.543522
vt 0.206142 0.000000
vt 0.154808 0.221275
vt 0.103050 0.199359
vt 0.122046 0.668338
vt 0.061329 0.453119
vt 0.122046 0.444306
vt 0.513808 0.196543
vt 0.411710 0.029888
vt 0.466122 0.026712
vt 0.513808 0.000000
vt 0.629437 0.648584
vt 0.568828 0.431593
vt 0.629437 0.422592
vt 0.206142 0.223965
vt 0.846887 0.422592
vt 0.846887 0.796894
vt 0.830865 0.800470
vt 0.830865 0.426168
vt 0.981608 0.017518
vt 0.981608 0.419222
vt 0.963233 0.419080
vt 0.963233 0.017377
vt 0.767516 0.410339
vt 0.767516 0.021725
vt 0.782533 0.018578
vt 0.782533 0.407192
vt 0.799248 0.020854
vt 0.799249 0.409468
vt 0.717257 0.422585
vt 0.717257 0.016775
vt 0.735656 0.016782
vt 0.735656 0.422592
vt 0.862732 0.426289
vt 0.862732 0.800591
vt 0.359283 0.727800
vt 0.359283 0.709058
vt 0.375069 0.699726
vt 0.390854 0.709136
vt 0.390854 0.727878
vt 0.375069 0.737210
vt 0.359283 0.708894
vt 0.327526 0.709191
vt 0.343405 0.699726
vt 0.327526 0.727823
vt 0.343404 0.736990
vt 0.359283 0.727525
vt 0.401890 0.642691
vt 0.455003 0.611448
vt 0.508116 0.642668
vt 0.508116 0.705132
vt 0.455003 0.736376
vt 0.401891 0.705155
vt 0.103050 0.000000
vt 0.052017 0.221380
vt 0.000000 0.199665
vt 0.266849 0.669473
vt 0.206142 0.455417
vt 0.266849 0.446542
vt 0.503886 0.225315
vt 0.503886 0.422592
vt 0.456453 0.395905
vt 0.401890 0.392359
vt 0.568828 0.422592
vt 0.568828 0.648881
vt 0.508120 0.640575
vt 0.103050 0.224147
vt 0.878838 0.395787
vt 0.878838 0.022278
vt 0.894744 0.018578
vt 0.894744 0.392087
vt 0.944821 0.825906
vt 0.944821 0.422592
vt 0.963196 0.422706
vt 0.963196 0.826020
vt 0.831007 0.018578
vt 0.831007 0.406297
vt 0.815895 0.409480
vt 0.815895 0.021761
vt 0.799249 0.407102
vt 0.799249 0.019384
vt 0.944858 0.017388
vt 0.944858 0.422535
vt 0.926460 0.422525
vt 0.926459 0.017377
vt 0.862876 0.392126
vt 0.862876 0.018617
vt 0.234981 0.678845
vt 0.250915 0.706962
vt 0.234981 0.697590
vt 0.266849 0.697590
vt 0.266849 0.678845
vt 0.250915 0.669473
vt 0.203112 0.678845
vt 0.219046 0.669473
vt 0.234981 0.678845
vt 0.234981 0.697589
vt 0.219046 0.706962
vt 0.203112 0.697590
vt 0.659167 0.350278
vt 0.606052 0.319037
vt 0.606052 0.256556
vt 0.659167 0.225315
vt 0.712281 0.256557
vt 0.712281 0.319039
vt 0.309240 0.000000
vt 0.257869 0.221263
vt 0.206142 0.199326
vt 0.635803 0.000000
vt 0.635803 0.224061
vt 0.575059 0.215448
vt 0.606052 0.225315
vt 0.606052 0.421679
vt 0.558193 0.395035
vt 0.503886 0.392032
vt 0.545846 0.000000
vt 0.575059 0.223538
vt 0.513808 0.223538
vt 0.309240 0.223948
vt 1.000000 0.017377
vt 1.000000 0.371224
vt 0.981608 0.371492
vt 0.981608 0.017644
vt 0.767353 0.423097
vt 0.767353 0.828802
vt 0.752459 0.828296
vt 0.752459 0.422592
vt 0.735656 0.828647
vt 0.735656 0.422942
vt 0.018349 0.666151
vt 0.018349 0.999208
vt 0.000000 1.000000
vt 0.000000 0.666942
vt 0.735656 0.421337
vt 0.735656 0.018578
vt 0.751366 0.019833
vt 0.751366 0.422592
vt 0.767516 0.018678
vt 0.767516 0.421436
vt 0.701542 0.378335
vt 0.685666 0.350279
vt 0.701542 0.359600
vt 0.669790 0.359691
vt 0.669790 0.378426
vt 0.685666 0.387748
vt 0.327526 0.709039
vt 0.327526 0.727706
vt 0.311593 0.737062
vt 0.295661 0.727749
vt 0.295661 0.709082
vt 0.311593 0.699726
vt 0.629437 0.516002
vt 0.629438 0.453776
vt 0.682547 0.422592
vt 0.735656 0.453633
vt 0.735656 0.515858
vt 0.682547 0.547043
vt 0.690184 0.547043
vt 0.690184 0.758880
vt 0.629437 0.751143
vt 0.206137 0.443241
vt 0.103050 0.249966
vt 0.154843 0.241044
vt 0.206137 0.223965
vt 0.568828 0.816551
vt 0.508877 0.661971
vt 0.568828 0.648881
vt 0.309150 0.446542
vt 0.206142 0.247903
vt 0.254866 0.238052
vt 0.309150 0.223948
vn -0.0018 0.5000 -0.8660
vn -0.0022 1.0000 0.0000
vn -0.0004 0.5000 0.8660
vn 0.0018 -0.5000 0.8660
vn 0.0022 -1.0000 -0.0000
vn 0.0004 -0.5000 -0.8660
vn -1.0000 -0.0023 0.0008
vn -1.0000 -0.0022 0.0008
vn 0.2419 -0.4848 0.8405
vn 0.2423 -0.9702 -0.0002
vn 0.2406 -0.4848 -0.8409
vn 0.2384 0.4859 -0.8409
vn 0.2380 0.9713 -0.0002
vn 0.2398 0.4859 0.8405
vn 0.5745 -0.7831 0.2380
vn 0.4614 -0.0305 0.8867
vn -0.1131 0.7526 0.6487
vn -0.5745 0.7831 -0.2380
vn -0.4614 0.0305 -0.8867
vn 0.1131 -0.7526 -0.6487
vn 0.7934 0.4614 -0.3970
vn -0.7483 0.6494 -0.1357
vn -0.6385 -0.0812 -0.7653
vn -0.0808 -0.8414 -0.5343
vn 0.3671 -0.8710 0.3264
vn 0.2573 -0.1404 0.9561
vn -0.3004 0.6198 0.7250
vn -0.0028 0.5000 -0.8660
vn -0.0035 1.0000 0.0000
vn -0.0007 0.5000 0.8660
vn 0.0028 -0.5000 0.8660
vn 0.0035 -1.0000 -0.0000
vn 0.0007 -0.5000 -0.8660
vn -1.0000 -0.0034 0.0012
vn -1.0000 -0.0036 0.0012
vn -1.0000 -0.0035 0.0012
vn 0.2429 -0.4845 0.8404
vn 0.2436 -0.9699 -0.0003
vn 0.2409 -0.4845 -0.8410
vn 0.2375 0.4862 -0.8410
vn 0.2368 0.9716 -0.0003
vn 0.2395 0.4862 0.8404
vn -0.0199 0.4997 -0.8660
vn -0.0299 0.9996 0.0001
vn -0.0101 0.4998 0.8661
vn 0.0199 -0.4997 0.8660
vn 0.0299 -0.9996 -0.0001
vn 0.0101 -0.4998 -0.8661
vn 0.9995 0.0299 -0.0057
vn -0.9995 -0.0299 0.0057
vn 0.2594 -0.4779 0.8393
vn 0.2691 -0.9631 -0.0014
vn 0.2498 -0.4780 -0.8421
vn 0.2208 0.4923 -0.8420
vn 0.2110 0.9775 -0.0013
vn 0.2303 0.4924 0.8393
vn -0.0008 0.5000 -0.8660
vn -0.0002 1.0000 0.0000
vn 0.0006 0.5000 0.8660
vn 0.0008 -0.5000 0.8660
vn 0.0002 -1.0000 0.0000
vn -0.0006 -0.5000 -0.8660
vn -1.0000 -0.0002 0.0008
vn -1.0000 -0.0002 0.0007
vn 0.2409 -0.4853 0.8405
vn 0.2404 -0.9707 -0.0002
vn 0.2397 -0.4853 -0.8409
vn 0.2394 0.4854 -0.8409
vn 0.2400 0.9708 -0.0002
vn 0.2407 0.4854 0.8405
vn -0.2065 -0.0293 0.9780
vn -0.0587 0.8495 0.5243
vn 0.1478 0.8788 -0.4537
vn 0.2065 0.0293 -0.9780
vn 0.0587 -0.8495 -0.5243
vn -0.1478 -0.8788 0.4537
vn 0.9771 -0.0587 0.2045
vn -0.0342 0.0425 -0.9985
vn -0.1777 -0.8106 -0.5580
vn -0.3782 -0.8390 0.3913
vn -0.4351 -0.0143 0.9002
vn -0.2917 0.8388 0.4598
vn -0.0912 0.8672 -0.4896
usemtl Material
s off
f 1/1/1 2/2/1 4/3/1 3/4/1
f 3/5/2 4/6/2 6/7/2 5/8/2
f 5/9/3 6/10/3 8/11/3 7/12/3
f 7/12/4 8/11/4 10/13/4 9/14/4
f 9/15/5 10/16/5 12/17/5 11/18/5
f 2/2/6 1/1/6 11/19/6 12/20/6
f 13/21/7 15/22/7 14/23/7
f 13/21/8 16/24/8 15/22/8
f 13/21/8 17/25/8 16/24/8
f 13/21/7 18/26/7 17/25/7
f 19/27/8 20/28/8 21/29/8
f 19/27/8 21/29/8 22/30/8
f 19/27/8 22/30/8 23/31/8
f 19/27/8 23/31/8 24/32/8
f 31/33/8 30/34/8 29/35/8
f 31/33/8 29/35/8 28/36/8
f 31/33/8 28/36/8 27/37/8
f 31/33/8 27/37/8 26/38/8
f 25/39/9 26/40/9 27/41/9
f 25/42/10 27/43/10 28/44/10
f 25/45/11 28/46/11 29/47/11
f 25/45/12 29/47/12 30/48/12
f 25/49/13 30/50/13 31/51/13
f 25/39/14 31/52/14 26/40/14
f 32/53/15 33/54/15 35/55/15 34/56/15
f 34/57/16 35/58/16 37/59/16 36/60/16
f 36/61/17 37/62/17 39/63/17 38/64/17
f 38/64/18 39/63/18 41/65/18 40/66/18
f 40/67/19 41/68/19 43/69/19 42/70/19
f 42/71/20 43/72/20 33/54/20 32/53/20
f 44/73/21 46/74/21 45/75/21
f 44/73/21 47/76/21 46/74/21
f 44/73/21 48/77/21 47/76/21
f 44/73/21 49/78/21 48/77/21
f 50/79/21 51/80/21 52/81/21
f 50/79/21 52/81/21 53/82/21
f 50/79/21 53/82/21 54/83/21
f 50/79/21 54/83/21 55/84/21
f 62/85/21 61/86/21 60/87/21
f 62/85/21 60/87/21 59/88/21
f 62/85/21 59/88/21 58/89/21
f 62/85/21 58/89/21 57/90/21
f 56/91/22 57/92/22 58/93/22
f 56/94/23 58/95/23 59/96/23
f 56/97/24 59/98/24 60/99/24
f 56/97/25 60/99/25 61/100/25
f 56/101/26 61/102/26 62/103/26
f 56/101/27 62/103/27 57/104/27
f 63/105/28 64/106/28 66/107/28 65/108/28
f 65/109/29 66/110/29 68/111/29 67/112/29
f 67/113/30 68/114/30 70/115/30 69/116/30
f 69/116/31 70/115/31 72/117/31 71/118/31
f 71/119/32 72/120/32 74/121/32 73/122/32
f 73/123/33 74/124/33 64/106/33 63/105/33
f 75/125/34 77/126/34 76/127/34
f 75/125/35 78/128/35 77/126/35
f 75/125/36 79/129/36 78/128/36
f 75/125/36 80/130/36 79/129/36
f 81/131/35 82/132/35 83/133/35
f 81/131/36 83/133/36 84/134/36
f 81/131/36 84/134/36 85/135/36
f 81/131/36 85/135/36 86/136/36
f 93/137/36 92/138/36 91/139/36
f 93/137/36 91/139/36 90/140/36
f 93/137/36 90/140/36 89/141/36
f 93/137/36 89/141/36 88/142/36
f 87/143/37 88/144/37 89/145/37
f 87/146/38 89/147/38 90/148/38
f 87/149/39 90/150/39 91/151/39
f 87/149/40 91/151/40 92/152/40
f 87/153/41 92/154/41 93/155/41
f 87/143/42 93/156/42 88/144/42
f 94/157/43 95/158/43 97/159/43 96/160/43
f 96/161/44 97/162/44 99/163/44 98/164/44
f 98/165/45 99/166/45 101/167/45 100/168/45
f 100/168/46 101/167/46 103/169/46 102/170/46
f 102/171/47 103/172/47 105/173/47 104/174/47
f 104/175/48 105/176/48 95/158/48 94/157/48
f 106/177/49 107/178/49 108/179/49
f 106/177/49 108/179/49 109/180/49
f 106/177/49 109/180/49 110/181/49
f 106/177/49 110/181/49 111/182/49
f 112/183/49 114/184/49 113/185/49
f 112/183/49 115/186/49 114/184/49
f 112/183/49 116/187/49 115/186/49
f 112/183/49 117/188/49 116/187/49
f 124/189/50 123/190/50 122/191/50
f 124/189/50 122/191/50 121/192/50
f 124/189/50 121/192/50 120/193/50
f 124/189/50 120/193/50 119/194/50
f 118/195/51 119/196/51 120/197/51
f 118/198/52 120/199/52 121/200/52
f 118/201/53 121/202/53 122/203/53
f 118/201/54 122/203/54 123/204/54
f 118/205/55 123/206/55 124/207/55
f 118/195/56 124/208/56 119/196/56
f 125/209/57 126/210/57 128/211/57 127/212/57
f 127/213/58 128/214/58 130/215/58 129/216/58
f 129/217/59 130/218/59 132/219/59 131/220/59
f 131/220/60 132/219/60 134/221/60 133/222/60
f 133/223/61 134/224/61 136/225/61 135/226/61
f 135/227/62 136/228/62 126/210/62 125/209/62
f 137/229/63 139/230/63 138/231/63
f 137/229/63 140/232/63 139/230/63
f 137/229/63 141/233/63 140/232/63
f 137/229/63 142/234/63 141/233/63
f 143/235/63 144/236/63 145/237/63
f 143/235/63 145/237/63 146/238/63
f 143/235/63 146/238/63 147/239/63
f 143/235/64 147/239/64 148/240/64
f 155/241/63 154/242/63 153/243/63
f 155/241/63 153/243/63 152/244/63
f 155/241/63 152/244/63 151/245/63
f 155/241/63 151/245/63 150/246/63
f 149/247/65 150/248/65 151/249/65
f 149/250/66 151/251/66 152/252/66
f 149/253/67 152/254/67 153/255/67
f 149/253/68 153/255/68 154/256/68
f 149/257/69 154/258/69 155/259/69
f 149/247/70 155/260/70 150/248/70
f 156/261/71 157/262/71 159/263/71 158/264/71
f 158/265/72 159/266/72 161/267/72 160/268/72
f 160/268/73 161/267/73 163/269/73 162/270/73
f 162/271/74 163/272/74 165/273/74 164/274/74
f 164/275/75 165/276/75 167/277/75 166/278/75
f 166/278/76 167/277/76 157/279/76 156/280/76
f 168/281/77 170/282/77 169/283/77
f 168/281/77 171/284/77 170/282/77
f 168/281/77 172/285/77 171/284/77
f 168/281/77 173/286/77 172/285/77
f 174/287/77 175/288/77 176/289/77
f 174/287/77 176/289/77 177/290/77
f 174/287/77 177/290/77 178/291/77
f 174/287/77 178/291/77 179/292/77
f 186/293/77 185/294/77 184/295/77
f 186/293/77 184/295/77 183/296/77
f 186/293/77 183/296/77 182/297/77
f 186/293/77 182/297/77 181/298/77
f 180/299/78 181/300/78 182/301/78
f 180/302/79 182/303/79 183/304/79
f 180/302/80 183/304/80 184/305/80
f 180/306/81 184/307/81 185/308/81
f 180/309/82 185/310/82 186/311/82
f 180/309/83 186/311/83 181/312/83
