# Blender v2.79 (sub 0) OBJ File: ''
# www.blender.org
mtllib glyp_0.mtl
o glyp_0
v -3.084152 0.095816 -0.049823
v -3.425052 0.095326 -0.049647
v -3.084168 0.109442 -0.041956
v -3.425068 0.108951 -0.041780
v -3.084160 0.109442 -0.026222
v -3.425060 0.108951 -0.026047
v -3.084136 0.095816 -0.018355
v -3.425036 0.095326 -0.018180
v -3.084121 0.082191 -0.026222
v -3.425021 0.081700 -0.026047
v -3.084129 0.082191 -0.041956
v -3.425029 0.081700 -0.041780
v -3.084152 0.095816 -0.049823
v -3.084168 0.109442 -0.041956
v -3.084160 0.109442 -0.026222
v -3.084136 0.095816 -0.018355
v -3.084121 0.082191 -0.026222
v -3.084129 0.082191 -0.041956
v -3.425029 0.081700 -0.041780
v -3.425021 0.081700 -0.026047
v -3.425036 0.095326 -0.018180
v -3.425060 0.108951 -0.026047
v -3.425068 0.108951 -0.041780
v -3.425052 0.095326 -0.049647
v -2.900583 0.096081 -0.034183
v -3.084117 0.095816 0.018357
v -3.084065 0.050397 -0.007866
v -3.084092 0.050397 -0.060312
v -3.084171 0.095816 -0.086535
v -3.084223 0.141236 -0.060312
v -3.084196 0.141236 -0.007866
v 2.322441 0.188089 -0.177684
v 2.544697 0.384037 -0.346266
v 2.326383 0.195205 -0.164216
v 2.548639 0.391153 -0.332798
v 2.318602 0.208055 -0.159538
v 2.540858 0.404003 -0.328119
v 2.306880 0.213789 -0.168327
v 2.529136 0.409737 -0.336909
v 2.302938 0.206673 -0.181795
v 2.525194 0.402622 -0.350377
v 2.310719 0.193823 -0.186474
v 2.532975 0.389771 -0.355055
v 2.322441 0.188089 -0.177684
v 2.326383 0.195205 -0.164216
v 2.318602 0.208055 -0.159538
v 2.306880 0.213789 -0.168327
v 2.302938 0.206673 -0.181795
v 2.310719 0.193823 -0.186474
v 2.532975 0.389771 -0.355055
v 2.525194 0.402622 -0.350377
v 2.529136 0.409737 -0.336909
v 2.540858 0.404003 -0.328119
v 2.548639 0.391153 -0.332798
v 2.544697 0.384037 -0.346266
v 2.194984 0.095429 -0.082231
v 2.288725 0.243773 -0.157411
v 2.275585 0.220054 -0.202304
v 2.301521 0.177220 -0.217898
v 2.340596 0.158105 -0.188600
v 2.353735 0.181824 -0.143707
v 2.327800 0.224659 -0.128113
v -4.172320 0.670385 -0.226608
v -4.513220 0.669722 -0.226404
v -4.172342 0.684011 -0.218741
v -4.513242 0.683348 -0.218537
v -4.172333 0.684011 -0.203007
v -4.513233 0.683348 -0.202803
v -4.172301 0.670385 -0.195140
v -4.513201 0.669722 -0.194936
v -4.172280 0.656760 -0.203007
v -4.513180 0.656096 -0.202803
v -4.172289 0.656760 -0.218741
v -4.513189 0.656096 -0.218537
v -4.172320 0.670385 -0.226608
v -4.172342 0.684011 -0.218741
v -4.172333 0.684011 -0.203007
v -4.172301 0.670385 -0.195140
v -4.172280 0.656760 -0.203007
v -4.172289 0.656760 -0.218741
v -4.513189 0.656096 -0.218537
v -4.513180 0.656096 -0.202803
v -4.513201 0.669722 -0.194936
v -4.513233 0.683348 -0.202803
v -4.513242 0.683348 -0.218537
v -4.513220 0.669722 -0.226404
v -3.988750 0.670743 -0.210984
v -4.172279 0.670385 -0.158428
v -4.172207 0.624966 -0.184651
v -4.172238 0.624966 -0.237097
v -4.172342 0.670385 -0.263320
v -4.172415 0.715805 -0.237097
v -4.172384 0.715805 -0.184651
v 0.323512 1.054363 -0.204198
v -0.015957 1.023639 -0.198742
v 0.322410 1.067939 -0.196322
v -0.017060 1.037215 -0.190866
v 0.322662 1.067950 -0.180590
v -0.016808 1.037226 -0.175134
v 0.324016 1.054386 -0.172734
v -0.015454 1.023661 -0.167278
v 0.325118 1.040810 -0.180610
v -0.014352 1.010085 -0.175154
v 0.324866 1.040798 -0.196341
v -0.014604 1.010074 -0.190886
v 0.323512 1.054363 -0.204198
v 0.322410 1.067939 -0.196322
v 0.322662 1.067950 -0.180590
v 0.324016 1.054386 -0.172734
v 0.325118 1.040810 -0.180610
v 0.324866 1.040798 -0.196341
v -0.014604 1.010074 -0.190886
v -0.014352 1.010085 -0.175154
v -0.015454 1.023661 -0.167278
v -0.016808 1.037226 -0.175134
v -0.017060 1.037215 -0.190866
v -0.015957 1.023639 -0.198742
v 0.506555 1.070918 -0.191404
v 0.324603 1.054412 -0.136026
v 0.328277 1.009158 -0.162279
v 0.327438 1.009120 -0.214718
v 0.322924 1.054336 -0.240905
v 0.319251 1.099590 -0.214653
v 0.320090 1.099628 -0.162213
v 1.086441 0.060291 -0.224555
v 1.424371 0.047888 -0.181394
v 1.086941 0.076005 -0.223956
v 1.424871 0.063603 -0.180795
v 1.088933 0.084322 -0.237163
v 1.426863 0.071919 -0.194002
v 1.090425 0.076924 -0.250968
v 1.428355 0.064521 -0.207808
v 1.089925 0.061209 -0.251567
v 1.427855 0.048806 -0.208407
v 1.087933 0.052893 -0.238360
v 1.425862 0.040490 -0.195200
v 1.086441 0.060291 -0.224555
v 1.086941 0.076005 -0.223956
v 1.088933 0.084322 -0.237163
v 1.090425 0.076924 -0.250968
v 1.089925 0.061209 -0.251567
v 1.087933 0.052893 -0.238360
v 1.425862 0.040490 -0.195200
v 1.427855 0.048806 -0.208407
v 1.428355 0.064521 -0.207808
v 1.426863 0.071919 -0.194002
v 1.424871 0.063603 -0.180795
v 1.424371 0.047888 -0.181394
v 0.906471 0.075286 -0.261002
v 1.095073 0.096329 -0.281785
v 1.093405 0.043947 -0.283781
v 1.086765 0.016226 -0.239758
v 1.081793 0.040886 -0.193738
v 1.083460 0.093267 -0.191742
v 1.090101 0.120989 -0.235765
vt 0.798117 0.453670
vt 0.798117 0.000000
vt 0.815895 0.000299
vt 0.815895 0.453970
vt 0.833830 0.000008
vt 0.833830 0.453679
vt 0.959296 0.907581
vt 0.959296 0.453748
vt 0.979702 0.453722
vt 0.979702 0.907555
vt 0.833830 0.906942
vt 0.833830 0.453722
vt 0.850624 0.454361
vt 0.850624 0.907582
vt 0.869382 0.453903
vt 0.869382 0.907124
vt 0.951465 0.452545
vt 0.951465 0.000000
vt 0.971778 0.000272
vt 0.971778 0.452818
vt 0.646911 0.149952
vt 0.611197 0.149954
vt 0.629054 0.139481
vt 0.611197 0.170900
vt 0.629054 0.181371
vt 0.646911 0.170898
vt 0.629053 0.223265
vt 0.611197 0.212790
vt 0.611197 0.191844
vt 0.629053 0.181373
vt 0.646910 0.191848
vt 0.646910 0.212793
vt 0.290635 0.500411
vt 0.350156 0.535326
vt 0.350156 0.605146
vt 0.290635 0.640050
vt 0.231113 0.605136
vt 0.231113 0.535316
vt 0.401455 0.000000
vt 0.465185 0.242193
vt 0.409198 0.240346
vt 0.346678 0.242193
vt 0.503030 0.479277
vt 0.529893 0.727585
vt 0.462176 0.727585
vt 0.346678 0.250625
vt 0.231113 0.029022
vt 0.288872 0.015530
vt 0.346678 0.000000
vt 0.783455 0.738194
vt 0.716496 0.502637
vt 0.783455 0.490490
vt 0.318540 0.645338
vt 0.318540 1.000000
vt 0.299683 0.994712
vt 0.299683 0.640050
vt 0.904942 0.907837
vt 0.904941 0.454317
vt 0.918714 0.453722
vt 0.918714 0.907240
vt 0.938890 0.453887
vt 0.938890 0.907405
vt 0.350156 0.640050
vt 0.350156 0.980412
vt 0.330761 0.985116
vt 0.330762 0.644755
vt 0.100055 0.508367
vt 0.100055 0.961382
vt 0.087383 0.960381
vt 0.087383 0.507365
vt 0.066960 0.960556
vt 0.066960 0.507540
vt 0.743033 0.391522
vt 0.730090 0.359669
vt 0.743033 0.370589
vt 0.717149 0.369682
vt 0.717149 0.390615
vt 0.730092 0.401535
vt 0.717150 0.355954
vt 0.717149 0.338862
vt 0.733001 0.325487
vt 0.748851 0.329203
vt 0.748851 0.346294
vt 0.733000 0.359669
vt 0.407124 0.847838
vt 0.394514 0.792327
vt 0.436128 0.736814
vt 0.490355 0.736814
vt 0.502965 0.792326
vt 0.461350 0.847838
vt 0.575484 0.000000
vt 0.575484 0.219638
vt 0.509021 0.218891
vt 0.465185 0.177033
vt 0.738562 0.000000
vt 0.762404 0.240222
vt 0.694325 0.240222
vt 0.255430 0.640050
vt 0.299683 0.844289
vt 0.231113 0.844289
vt 0.109374 0.253255
vt 0.109374 0.507365
vt 0.064631 0.496740
vt 0.000000 0.477841
vt 0.798117 0.000295
vt 0.798117 0.453970
vt 0.780340 0.453677
vt 0.780340 0.000000
vt 0.762404 0.453963
vt 0.762404 0.000286
vt 0.959296 0.453722
vt 0.959296 0.907556
vt 0.938891 0.907580
vt 0.938890 0.453746
vt 0.798279 0.907180
vt 0.798279 0.453970
vt 0.815072 0.454617
vt 0.815072 0.907825
vt 0.833830 0.454154
vt 0.833830 0.907364
vt 0.931151 0.452554
vt 0.931151 0.000000
vt 0.951465 0.000270
vt 0.951464 0.452826
vt 0.575484 0.149953
vt 0.593341 0.181373
vt 0.575484 0.170899
vt 0.611197 0.170902
vt 0.611197 0.149955
vt 0.593340 0.139481
vt 0.575484 0.212794
vt 0.575484 0.191847
vt 0.593340 0.181373
vt 0.611195 0.191846
vt 0.611195 0.212793
vt 0.593340 0.223267
vt 0.111194 0.532233
vt 0.170717 0.497321
vt 0.230240 0.532227
vt 0.230240 0.602045
vt 0.170717 0.636957
vt 0.111194 0.602051
vt 0.462176 0.490671
vt 0.346678 0.269149
vt 0.401655 0.258231
vt 0.462176 0.242193
vt 0.690297 0.242193
vt 0.717149 0.490489
vt 0.649433 0.490490
vt 0.231113 0.000000
vt 0.231113 0.250798
vt 0.173853 0.235270
vt 0.115619 0.221487
vt 0.066960 0.755083
vt 0.000000 0.519508
vt 0.066960 0.507365
vt 0.869543 0.000000
vt 0.869543 0.453120
vt 0.851762 0.453722
vt 0.851762 0.000601
vt 0.833830 0.453135
vt 0.833830 0.000015
vt 0.910743 0.453585
vt 0.910743 0.000000
vt 0.931151 0.000102
vt 0.931151 0.453687
vt 0.869382 0.903139
vt 0.869382 0.453722
vt 0.886202 0.455411
vt 0.886202 0.904828
vt 0.904941 0.454193
vt 0.904941 0.903610
vt 1.000000 0.453834
vt 1.000000 0.907472
vt 0.979702 0.907359
vt 0.979702 0.453722
vt 0.752839 0.315003
vt 0.734994 0.325487
vt 0.717149 0.315147
vt 0.717149 0.294324
vt 0.734994 0.283840
vt 0.752839 0.294179
vt 0.752839 0.252532
vt 0.717149 0.252677
vt 0.734994 0.242193
vt 0.717149 0.273500
vt 0.734994 0.283840
vt 0.752839 0.273356
vt 0.170645 0.636957
vt 0.230095 0.671985
vt 0.230095 0.741686
vt 0.170645 0.776360
vt 0.111194 0.741333
vt 0.111194 0.671632
vt 0.515202 0.242193
vt 0.580716 0.479277
vt 0.524584 0.474389
vt 0.462176 0.479277
vt 0.437486 0.490671
vt 0.462176 0.736814
vt 0.394514 0.736814
vt 0.115619 0.253255
vt 0.000000 0.028802
vt 0.057104 0.012538
vt 0.115619 0.000000
vt 0.716496 0.740365
vt 0.649433 0.502097
vt 0.716496 0.490490
vt 0.565008 0.480201
vt 0.565008 0.933005
vt 0.549331 0.932081
vt 0.549331 0.479277
vt 0.529893 0.932555
vt 0.529893 0.479752
vt 0.890128 0.450432
vt 0.890128 0.000055
vt 0.910743 0.000000
vt 0.910743 0.450377
vt 0.394514 0.490699
vt 0.394514 0.944549
vt 0.379119 0.944520
vt 0.379119 0.490671
vt 0.359542 0.944534
vt 0.359542 0.490684
vt 0.890128 0.000000
vt 0.890128 0.453574
vt 0.869544 0.453617
vt 0.869544 0.000043
vt 0.664763 0.223150
vt 0.682619 0.191836
vt 0.682619 0.212724
vt 0.664764 0.181375
vt 0.646908 0.191801
vt 0.646908 0.212689
vt 0.664737 0.139527
vt 0.682563 0.149936
vt 0.682563 0.170859
vt 0.664737 0.181371
vt 0.646911 0.170962
vt 0.646911 0.150040
vt 0.634904 0.000000
vt 0.694325 0.034697
vt 0.694325 0.104438
vt 0.634904 0.139481
vt 0.575484 0.104784
vt 0.575484 0.035043
vt 0.345129 0.500411
vt 0.231113 0.275291
vt 0.281319 0.264504
vt 0.345129 0.250625
vt 0.649433 0.492171
vt 0.649433 0.736244
vt 0.581368 0.727444
vt 0.230240 0.497321
vt 0.115619 0.274942
vt 0.167302 0.266517
vt 0.230240 0.250798
vt 0.614455 0.242193
vt 0.649433 0.492171
vt 0.580716 0.492171
vn -0.0012 0.5000 -0.8660
vn -0.0014 1.0000 0.0000
vn -0.0003 0.5000 0.8660
vn 0.0012 -0.5000 0.8660
vn 0.0014 -1.0000 -0.0000
vn 0.0003 -0.5000 -0.8660
vn -1.0000 -0.0014 0.0005
vn -1.0000 -0.0015 0.0005
vn 0.2413 -0.4850 0.8405
vn 0.2416 -0.9704 -0.0001
vn 0.2405 -0.4850 -0.8408
vn 0.2391 0.4857 -0.8408
vn 0.2388 0.9711 -0.0001
vn 0.2399 0.4857 0.8405
vn 0.7157 -0.6820 0.1509
vn 0.5748 0.0507 0.8167
vn -0.1409 0.7327 0.6659
vn -0.7157 0.6820 -0.1509
vn -0.5748 -0.0507 -0.8167
vn 0.1409 -0.7326 -0.6659
vn 0.6520 0.5748 -0.4945
vn -0.8513 0.5239 -0.0277
vn -0.7146 -0.1873 -0.6740
vn -0.0199 -0.8493 -0.5276
vn 0.5381 -0.8001 0.2652
vn 0.4014 -0.0889 0.9116
vn -0.2933 0.5731 0.7652
vn -0.0015 0.5000 -0.8660
vn -0.0019 1.0000 0.0000
vn -0.0005 0.5000 0.8660
vn 0.0015 -0.5000 0.8660
vn 0.0019 -1.0000 0.0000
vn 0.0005 -0.5000 -0.8660
vn -1.0000 -0.0019 0.0006
vn -1.0000 -0.0020 0.0006
vn -1.0000 -0.0021 0.0006
vn -1.0000 -0.0018 0.0006
vn 0.2416 -0.4849 0.8405
vn 0.2421 -0.9703 -0.0001
vn 0.2406 -0.4849 -0.8408
vn 0.2387 0.4858 -0.8408
vn 0.2383 0.9712 -0.0001
vn 0.2397 0.4858 0.8405
vn -0.0589 0.4973 -0.8656
vn -0.0901 0.9959 0.0007
vn -0.0312 0.4986 0.8663
vn 0.0589 -0.4973 0.8656
vn 0.0901 -0.9959 -0.0007
vn 0.0312 -0.4986 -0.8663
vn 0.9958 0.0901 -0.0160
vn -0.9958 -0.0901 0.0160
vn 0.2964 -0.4611 0.8364
vn 0.3267 -0.9451 -0.0045
vn 0.2695 -0.4623 -0.8448
vn 0.1820 0.5044 -0.8441
vn 0.1517 0.9884 -0.0031
vn 0.2089 0.5056 0.8371
vn -0.1278 -0.0337 0.9912
vn -0.0364 0.8481 0.5286
vn 0.0915 0.8818 -0.4627
vn 0.1278 0.0337 -0.9912
vn 0.0364 -0.8481 -0.5286
vn -0.0915 -0.8818 0.4627
vn 0.9913 -0.0364 0.1266
vn -0.1140 0.0415 -0.9926
vn -0.2028 -0.8145 -0.5435
vn -0.3269 -0.8473 0.4187
vn -0.3622 -0.0240 0.9318
vn -0.2734 0.8320 0.4827
vn -0.1493 0.8647 -0.4795
usemtl Material
s off
f 1/1/1 2/2/1 4/3/1 3/4/1
f 3/4/2 4/3/2 6/5/2 5/6/2
f 5/7/3 6/8/3 8/9/3 7/10/3
f 7/11/4 8/12/4 10/13/4 9/14/4
f 9/14/5 10/13/5 12/15/5 11/16/5
f 2/17/6 1/18/6 11/19/6 12/20/6
f 13/21/7 15/22/7 14/23/7
f 13/21/7 16/24/7 15/22/7
f 13/21/7 17/25/7 16/24/7
f 13/21/8 18/26/8 17/25/8
f 19/27/8 20/28/8 21/29/8
f 19/27/7 21/29/7 22/30/7
f 19/27/7 22/30/7 23/31/7
f 19/27/7 23/31/7 24/32/7
f 31/33/7 30/34/7 29/35/7
f 31/33/7 29/35/7 28/36/7
f 31/33/7 28/36/7 27/37/7
f 31/33/7 27/37/7 26/38/7
f 25/39/9 26/40/9 27/41/9
f 25/39/10 27/41/10 28/42/10
f 25/43/11 28/44/11 29/45/11
f 25/46/12 29/47/12 30/48/12
f 25/46/13 30/48/13 31/49/13
f 25/50/14 31/51/14 26/52/14
f 32/53/15 33/54/15 35/55/15 34/56/15
f 34/57/16 35/58/16 37/59/16 36/60/16
f 36/60/17 37/59/17 39/61/17 38/62/17
f 38/63/18 39/64/18 41/65/18 40/66/18
f 40/67/19 41/68/19 43/69/19 42/70/19
f 42/70/20 43/69/20 33/71/20 32/72/20
f 44/73/21 46/74/21 45/75/21
f 44/73/21 47/76/21 46/74/21
f 44/73/21 48/77/21 47/76/21
f 44/73/21 49/78/21 48/77/21
f 50/79/21 51/80/21 52/81/21
f 50/79/21 52/81/21 53/82/21
f 50/79/21 53/82/21 54/83/21
f 50/79/21 54/83/21 55/84/21
f 62/85/21 61/86/21 60/87/21
f 62/85/21 60/87/21 59/88/21
f 62/85/21 59/88/21 58/89/21
f 62/85/21 58/89/21 57/90/21
f 56/91/22 57/92/22 58/93/22
f 56/91/23 58/93/23 59/94/23
f 56/95/24 59/96/24 60/97/24
f 56/98/25 60/99/25 61/100/25
f 56/101/26 61/102/26 62/103/26
f 56/101/27 62/103/27 57/104/27
f 63/105/28 64/106/28 66/107/28 65/108/28
f 65/108/29 66/107/29 68/109/29 67/110/29
f 67/111/30 68/112/30 70/113/30 69/114/30
f 69/115/31 70/116/31 72/117/31 71/118/31
f 71/118/32 72/117/32 74/119/32 73/120/32
f 73/121/33 74/122/33 64/123/33 63/124/33
f 75/125/34 77/126/34 76/127/34
f 75/125/35 78/128/35 77/126/35
f 75/125/34 79/129/34 78/128/34
f 75/125/36 80/130/36 79/129/36
f 81/131/37 82/132/37 83/133/37
f 81/131/35 83/133/35 84/134/35
f 81/131/34 84/134/34 85/135/34
f 81/131/34 85/135/34 86/136/34
f 93/137/34 92/138/34 91/139/34
f 93/137/35 91/139/35 90/140/35
f 93/137/34 90/140/34 89/141/34
f 93/137/35 89/141/35 88/142/35
f 87/143/38 88/144/38 89/145/38
f 87/143/39 89/145/39 90/146/39
f 87/147/40 90/148/40 91/149/40
f 87/150/41 91/151/41 92/152/41
f 87/150/42 92/152/42 93/153/42
f 87/154/43 93/155/43 88/156/43
f 94/157/44 95/158/44 97/159/44 96/160/44
f 96/160/45 97/159/45 99/161/45 98/162/45
f 98/163/46 99/164/46 101/165/46 100/166/46
f 100/167/47 101/168/47 103/169/47 102/170/47
f 102/170/48 103/169/48 105/171/48 104/172/48
f 104/173/49 105/174/49 95/175/49 94/176/49
f 106/177/50 107/178/50 108/179/50
f 106/177/50 108/179/50 109/180/50
f 106/177/50 109/180/50 110/181/50
f 106/177/50 110/181/50 111/182/50
f 112/183/50 114/184/50 113/185/50
f 112/183/50 115/186/50 114/184/50
f 112/183/50 116/187/50 115/186/50
f 112/183/50 117/188/50 116/187/50
f 124/189/51 123/190/51 122/191/51
f 124/189/51 122/191/51 121/192/51
f 124/189/51 121/192/51 120/193/51
f 124/189/51 120/193/51 119/194/51
f 118/195/52 119/196/52 120/197/52
f 118/195/53 120/197/53 121/198/53
f 118/199/54 121/200/54 122/201/54
f 118/202/55 122/203/55 123/204/55
f 118/202/56 123/204/56 124/205/56
f 118/206/57 124/207/57 119/208/57
f 125/209/58 126/210/58 128/211/58 127/212/58
f 127/212/59 128/211/59 130/213/59 129/214/59
f 129/215/60 130/216/60 132/217/60 131/218/60
f 131/219/61 132/220/61 134/221/61 133/222/61
f 133/222/62 134/221/62 136/223/62 135/224/62
f 135/225/63 136/226/63 126/227/63 125/228/63
f 137/229/64 139/230/64 138/231/64
f 137/229/64 140/232/64 139/230/64
f 137/229/64 141/233/64 140/232/64
f 137/229/64 142/234/64 141/233/64
f 143/235/64 144/236/64 145/237/64
f 143/235/64 145/237/64 146/238/64
f 143/235/64 146/238/64 147/239/64
f 143/235/64 147/239/64 148/240/64
f 155/241/64 154/242/64 153/243/64
f 155/241/64 153/243/64 152/244/64
f 155/241/64 152/244/64 151/245/64
f 155/241/64 151/245/64 150/246/64
f 149/247/65 150/248/65 151/249/65
f 149/247/66 151/249/66 152/250/66
f 149/251/67 152/252/67 153/253/67
f 149/254/68 153/255/68 154/256/68
f 149/254/69 154/256/69 155/257/69
f 149/258/70 155/259/70 150/260/70
