# Blender v2.79 (sub 0) OBJ File: ''
# www.blender.org
mtllib my_crack_surf__86.mtl
o my_crack_surf__86
v 129.164001 20.025673 159.272995
v 145.919998 12.745775 152.121002
v 143.964005 35.838573 175.425995
v 130.279999 -5.766531 127.181999
v 139.608994 -15.135818 113.031998
v 147.397003 -11.503419 119.400002
v 64.073402 114.514961 241.834015
v 51.010799 119.080963 246.796021
v 88.615501 112.864960 235.315018
v 24.298401 127.254951 259.742035
v 27.750799 178.986954 265.971039
v 3.743970 147.173950 266.253021
v -5.394300 154.849960 267.455017
v 0.648841 157.214951 266.508026
v -44.782101 143.931961 270.072021
v -105.218002 100.621956 270.249023
v -132.360001 120.548958 270.433044
v -116.665001 133.359955 271.719025
v -94.529404 -140.298050 261.346954
v -107.857002 -132.002045 261.555969
v -72.731903 -127.211044 260.371979
v 167.162003 35.288475 173.832993
v 165.813004 27.306273 167.335999
v 152.714996 -7.251921 126.022003
v 159.671997 2.717407 140.169998
v 137.464996 8.379606 147.981995
v 129.326996 5.139177 143.406006
v 116.240997 55.292168 196.329010
v 164.404999 55.984169 187.754013
v 144.737000 70.842667 199.433014
v 156.158005 50.916370 184.951019
v 118.475998 43.883369 184.707001
v 111.427002 69.829872 206.104019
v 163.511993 14.897676 155.074997
v 137.322998 16.358175 155.216995
v 147.970993 93.309860 211.535019
v 154.261002 83.785271 205.949020
v 146.348007 97.375862 213.877014
v 75.792099 102.298965 232.836014
v 158.488998 75.684669 201.119019
v 135.300003 113.475960 224.124008
v 130.279999 -17.618618 107.573997
v 114.042999 134.710953 240.105011
v 121.403999 128.195953 234.928009
v 68.132500 142.869949 253.412033
v 96.735001 145.015961 248.690033
v 39.995399 138.131958 257.298035
v 79.874802 163.225952 256.638031
v 92.229103 156.205948 252.865036
v 65.600998 170.132950 260.185028
v -5.201750 136.720947 265.605042
v 7.233110 130.521957 263.965027
v 44.733799 176.339951 264.099030
v 34.910599 178.124954 265.156036
v -41.659901 123.700951 268.037018
v -59.111401 115.975952 268.802032
v -19.679100 179.911957 271.097015
v -39.741600 178.312958 272.320038
v -62.196800 172.268951 272.956024
v -98.319901 85.739555 268.890991
v -74.203201 167.767960 272.802032
v -113.875000 138.947952 271.688019
v -152.539001 102.026955 269.005035
v -170.501999 66.480957 268.010986
v -113.192001 65.724251 268.144989
v -139.738998 45.040756 265.843994
v -123.264000 37.958858 265.425995
v -132.143005 40.606560 264.875000
v -130.759003 13.777757 262.980988
v -177.712997 40.561756 266.477997
v -177.363007 -15.784243 262.993988
v -178.007004 13.374957 264.515991
v -129.237000 -8.070403 261.083008
v -179.748001 -3.108213 263.674011
v -127.953003 -30.311043 260.248993
v -175.479004 -32.952244 262.464996
v -171.858994 -46.177643 262.328003
v -162.199005 -73.559845 261.549011
v -154.358994 -83.951347 262.244995
v -113.303001 -63.549240 263.009003
v -135.414993 -108.786049 261.603973
v -108.277000 -74.626549 262.669006
v -114.015999 -125.541046 261.712982
v -81.965797 -102.826042 261.321960
v -72.046204 -108.247047 260.522980
v -86.837799 -141.450043 261.385956
v -51.646198 -119.346046 260.720978
v -10.814400 -129.782043 260.644958
v -21.074499 -127.996048 260.004974
v -18.727900 -153.413040 261.124969
v -61.545300 -155.162048 261.316956
v -76.469704 -149.481049 261.607971
v -43.289299 -156.334045 261.544983
v 166.507004 47.795769 183.239014
v 101.889000 147.299957 248.842026
v -107.114998 146.700958 272.939026
v -94.299797 156.037949 272.603027
v -122.011002 -120.106049 261.690979
v 0.362700 -131.054047 259.737976
v -3.270700 -140.686050 259.761963
v -36.687199 -125.495049 260.572968
v 32.155602 125.549965 256.061035
v -66.443001 170.798950 272.975037
v -173.404999 59.230759 267.678986
v -122.787003 129.475952 270.792023
vn -0.0085 -0.7107 0.7035
vn -0.0412 -0.8454 0.5326
vn 0.0015 -0.8034 0.5955
vn 0.2158 -0.3663 0.9051
vn 0.1831 -0.1296 0.9745
vn 0.1471 0.0202 0.9889
vn 0.0322 -0.0155 0.9994
vn 0.1106 -0.1133 0.9874
vn -0.0351 -0.0571 0.9978
vn 0.0304 0.0237 0.9993
vn 0.0316 -0.7087 0.7049
vn -0.1503 -0.6087 0.7790
vn -0.0655 -0.8002 0.5961
vn 0.0162 -0.8294 0.5585
vn 0.1857 -0.8411 0.5079
vn 0.1613 -0.4690 0.8683
vn 0.1427 -0.6467 0.7493
vn 0.1253 -0.6958 0.7072
vn 0.1050 -0.5904 0.8002
vn 0.1842 -0.5057 0.8428
vn 0.0222 -0.7245 0.6889
vn -0.0120 -0.7728 0.6346
vn -0.0156 -0.6718 0.7406
vn 0.0124 -0.7292 0.6842
vn -0.1462 -0.6660 0.7315
vn -0.3181 -0.9271 0.1983
vn 0.0521 -0.4794 0.8761
vn 0.0602 -0.4801 0.8752
vn 0.2099 -0.4575 0.8641
vn 0.1850 -0.4956 0.8486
vn 0.0643 -0.4861 0.8715
vn 0.1073 -0.4804 0.8705
vn 0.0879 -0.5410 0.8364
vn -0.0747 -0.8534 0.5159
vn 0.2108 -0.4510 0.8673
vn 0.1859 -0.4613 0.8676
vn 0.3417 -0.3033 0.8895
vn 0.1781 -0.4618 0.8689
vn 0.1898 -0.3875 0.9021
vn 0.1144 -0.3065 0.9450
vn 0.1431 -0.2019 0.9689
vn 0.1738 -0.2512 0.9522
vn 0.1368 -0.1774 0.9746
vn 0.2865 0.3375 0.8967
vn 0.0867 -0.1354 0.9870
vn 0.1012 -0.0597 0.9931
vn 0.2411 -0.1319 0.9615
vn 0.0793 -0.1842 0.9797
vn 0.1245 0.1003 0.9871
vn -0.1189 0.6158 0.7788
vn 0.0945 -0.0852 0.9919
vn 0.0822 -0.0580 0.9949
vn 0.0821 -0.0872 0.9928
vn 0.1049 -0.1014 0.9893
vn 0.0666 -0.0748 0.9950
vn 0.0476 -0.0721 0.9963
vn 0.0533 -0.0662 0.9964
vn 0.0205 -0.0888 0.9958
vn 0.0593 -0.0241 0.9979
vn -0.0292 -0.1043 0.9941
vn -0.0027 -0.0266 0.9996
vn -0.0037 -0.1058 0.9944
vn -0.0144 -0.0923 0.9956
vn -0.2118 -0.5406 0.8142
vn -0.0839 -0.0745 0.9937
vn 0.0885 -0.0656 0.9939
vn 0.0351 -0.0687 0.9970
vn 0.0329 -0.0514 0.9981
vn 0.0528 -0.0828 0.9952
vn 0.0087 -0.0519 0.9986
vn 0.0452 -0.0348 0.9984
vn 0.0480 -0.0255 0.9985
vn 0.0464 0.0024 0.9989
vn 0.0510 -0.0104 0.9986
vn -0.0042 -0.0290 0.9996
vn -0.0490 0.0612 0.9969
vn -0.0004 -0.0309 0.9995
vn -0.0182 -0.0167 0.9997
vn 0.0327 0.0069 0.9994
vn 0.0314 -0.0270 0.9991
vn 0.0745 -0.0106 0.9972
vn 0.0277 -0.0219 0.9994
vn 0.0049 0.0662 0.9978
vn -0.0138 -0.0075 0.9999
vn -0.0555 0.0388 0.9977
vn -0.0189 -0.1006 0.9948
vn -0.0008 -0.4830 0.8756
vn 0.1089 -0.3087 0.9449
vn 0.3319 -0.4253 0.8420
vn 0.0127 0.0227 0.9997
vn 0.0778 -0.0269 0.9966
vn 0.0407 -0.5992 0.7996
vn -0.0172 -0.5240 0.8515
vn 0.0257 -0.0317 0.9992
vn -0.0344 -0.6992 0.7141
vn 0.0330 -0.0723 0.9968
vn -0.0937 -0.8019 0.5901
vn 0.0558 -0.0739 0.9957
vn -0.0276 -0.0469 0.9985
vn -0.0238 0.0489 0.9985
vn 0.1015 -0.4992 0.8605
vn 0.1788 -0.4614 0.8690
vn 0.2072 -0.3977 0.8938
vn -0.0074 -0.0317 0.9995
vn 0.0082 -0.0888 0.9960
vn 0.0210 0.0270 0.9994
vn -0.0229 0.0171 0.9996
vn 0.3491 -0.3046 0.8862
vn 0.1796 -0.5081 0.8423
vn 0.2012 -0.4485 0.8709
vn 0.0330 -0.0734 0.9968
vn 0.0296 -0.0872 0.9958
vn 0.3368 -0.2977 0.8933
vn 0.0440 0.0480 0.9979
vn 0.1081 -0.0887 0.9902
vn 0.0129 0.0533 0.9985
vn 0.0191 0.0522 0.9985
vn 0.0137 0.0286 0.9995
vn 0.1760 -0.2523 0.9515
vn 0.1264 -0.1890 0.9738
vn -0.3453 0.3350 0.8766
vn -0.2197 0.1151 0.9688
vn 0.0982 -0.0127 0.9951
usemtl None
s off
f 1//1 2//1 3//1
f 4//2 5//2 6//2
f 4//3 6//3 2//3
f 7//4 9//4 8//4
f 10//5 11//5 12//5
f 13//6 12//6 14//6
f 11//7 14//7 12//7
f 11//8 15//8 14//8
f 16//9 18//9 17//9
f 19//10 21//10 20//10
f 22//11 3//11 2//11
f 22//12 2//12 23//12
f 24//13 25//13 2//13
f 26//14 27//14 4//14
f 2//15 26//15 4//15
f 28//16 29//16 30//16
f 29//17 28//17 31//17
f 28//18 32//18 31//18
f 3//19 31//19 32//19
f 28//20 30//20 33//20
f 32//21 1//21 3//21
f 34//22 2//22 25//22
f 35//23 26//23 2//23
f 35//24 1//24 27//24
f 27//25 26//25 35//25
f 35//26 2//26 1//26
f 36//27 30//27 37//27
f 38//28 30//28 36//28
f 39//29 30//29 9//29
f 33//30 30//30 39//30
f 40//31 37//31 30//31
f 38//32 41//32 30//32
f 29//33 40//33 30//33
f 42//34 5//34 4//34
f 30//35 44//35 43//35
f 41//36 44//36 30//36
f 30//37 45//37 9//37
f 46//38 45//38 30//38
f 8//39 45//39 47//39
f 46//40 49//40 48//40
f 48//41 50//41 47//41
f 47//42 45//42 48//42
f 10//43 12//43 51//43
f 51//44 52//44 10//44
f 51//45 12//45 15//45
f 15//46 52//46 51//46
f 10//47 47//47 11//47
f 11//48 47//48 53//48
f 54//49 11//49 53//49
f 15//50 13//50 14//50
f 15//51 55//51 52//51
f 13//52 15//52 12//52
f 15//53 56//53 55//53
f 15//54 11//54 57//54
f 58//55 15//55 57//55
f 58//56 59//56 15//56
f 16//57 60//57 56//57
f 59//58 61//58 15//58
f 16//59 62//59 18//59
f 60//60 16//60 63//60
f 64//61 65//61 63//61
f 64//62 66//62 65//62
f 66//63 67//63 65//63
f 67//64 66//64 68//64
f 69//65 67//65 68//65
f 66//66 69//66 68//66
f 69//67 64//67 70//67
f 71//68 69//68 72//68
f 69//69 71//69 73//69
f 71//70 72//70 74//70
f 75//71 73//71 71//71
f 75//72 71//72 76//72
f 75//73 76//73 77//73
f 77//74 78//74 75//74
f 79//75 81//75 80//75
f 75//76 79//76 80//76
f 82//77 80//77 81//77
f 83//78 82//78 81//78
f 83//79 20//79 21//79
f 83//80 21//80 84//80
f 85//81 84//81 21//81
f 84//82 82//82 83//82
f 86//83 21//83 19//83
f 87//84 85//84 21//84
f 88//85 89//85 90//85
f 91//86 93//86 92//86
f 94//87 29//87 31//87
f 95//88 49//88 46//88
f 62//89 97//89 96//89
f 83//90 81//90 98//90
f 99//91 88//91 100//91
f 94//92 3//92 22//92
f 94//93 31//93 3//93
f 62//94 16//94 15//94
f 34//95 23//95 2//95
f 69//96 70//96 72//96
f 24//97 2//97 6//97
f 16//98 56//98 15//98
f 16//99 17//99 63//99
f 78//100 79//100 75//100
f 30//101 43//101 95//101
f 30//102 95//102 46//102
f 45//103 8//103 9//103
f 63//104 65//104 60//104
f 66//105 64//105 69//105
f 93//106 101//106 87//106
f 87//107 21//107 93//107
f 102//108 47//108 10//108
f 59//109 103//109 61//109
f 39//110 9//110 7//110
f 97//111 15//111 61//111
f 62//112 15//112 97//112
f 8//113 47//113 102//113
f 101//114 90//114 89//114
f 104//115 70//115 64//115
f 21//116 92//116 93//116
f 21//117 86//117 92//117
f 90//118 101//118 93//118
f 46//119 48//119 45//119
f 47//120 50//120 53//120
f 105//121 17//121 18//121
f 18//122 62//122 105//122
f 100//123 88//123 90//123
