# Blender v2.79 (sub 0) OBJ File: ''
# www.blender.org
mtllib my_crack_surf__96.mtl
o my_crack_surf__96
v 137.466003 8.562496 147.893005
v 155.705994 11.431376 149.869995
v 148.197006 26.386873 165.802002
v 126.371002 65.269371 199.743011
v 118.466003 43.918171 184.705002
v 116.240997 55.292168 196.329010
v 130.276993 -5.704560 127.119003
v 139.214005 -15.617619 112.084000
v 147.610992 -11.499619 119.334999
v 157.240997 61.038368 191.905014
v 111.426003 69.830467 206.031021
v 95.040001 106.534966 230.331009
v 64.045197 114.531960 241.722015
v 66.182404 128.666962 247.798019
v 19.194401 179.640961 266.874023
v 34.983299 178.221954 265.336029
v 44.681099 176.483948 263.989044
v -8.801500 179.972961 270.087036
v -19.742100 179.987961 271.067017
v -3.707320 179.687958 269.393036
v 167.266006 35.374573 173.867996
v 144.018997 36.134674 175.082993
v 165.906998 27.385374 167.298004
v 154.957993 -4.495461 130.130997
v 158.138000 -0.355069 135.806000
v 129.320999 5.198977 143.335007
v -96.511398 -149.576050 261.852966
v -137.893997 -111.643044 261.710968
v -82.355103 -119.524048 260.461975
v 12.404100 -129.086044 257.683960
v 0.000000 -131.500046 258.824982
v 0.553071 -169.292053 259.983978
v 27.797899 -164.225052 258.475983
v 166.509995 51.317371 185.437012
v 48.976501 -122.040039 256.294983
v 61.917000 -141.938049 257.458984
v 129.156998 20.100073 159.184998
v 129.205002 12.996375 150.848999
v 164.436005 15.944174 156.037994
v 160.574005 71.296471 197.981018
v 148.169006 93.385559 211.564011
v 154.617004 84.016769 206.029022
v 146.548996 97.443161 213.858017
v 135.410004 113.562965 224.172012
v 75.680298 102.401962 232.771011
v 130.203003 -18.161417 106.587997
v 96.546700 144.891953 248.541031
v 114.112000 134.843948 240.156021
v 121.504997 128.352951 235.012009
v 68.027702 143.001953 252.807037
v 102.032997 147.383957 248.664032
v 92.465599 156.247955 253.062027
v 50.920700 119.134964 246.440018
v 52.846199 133.396957 251.678009
v 32.285801 125.510963 255.904022
v 50.090099 149.439957 257.015045
v 79.810699 163.373947 256.822021
v 24.186199 127.253952 259.576019
v 65.649399 170.309952 260.525024
v 7.233110 130.521957 263.965027
v -41.694801 123.700951 267.985016
v 3.743970 147.173950 266.253021
v -62.437500 172.541962 272.892029
v -39.756001 178.392960 272.298035
v -105.240997 100.686951 270.187042
v -98.301697 85.758858 268.841003
v -59.084301 116.004951 268.727020
v -74.247902 167.928955 272.717041
v -117.764000 134.965958 270.817017
v -103.431999 150.279953 272.362030
v -113.192001 65.724251 268.144989
v -157.843002 92.334152 268.798004
v -127.901001 24.622757 264.005005
v -179.610992 -15.267343 263.037994
v -130.759003 13.781457 263.016998
v -168.085999 74.854851 268.299988
v -176.360001 55.185059 267.660004
v -179.106995 41.192257 266.520996
v -179.455994 22.401957 265.395996
v -129.237000 -8.068473 261.117004
v -127.954002 -30.306143 260.334991
v -128.363998 -99.126450 262.138977
v -168.251007 -68.475647 262.102997
v -174.731995 -47.970444 262.359009
v -177.699997 -33.580841 262.546997
v -160.347000 -85.222649 261.570007
v -148.237000 -100.476044 261.402985
v -123.098999 -41.411842 260.722992
v -113.356003 -63.406040 262.940002
v -111.806000 -93.732643 261.868958
v -108.445999 -74.365448 262.701996
v -82.027603 -102.779045 261.330963
v -42.139999 -124.564049 260.467957
v -84.033302 -157.621048 261.560974
v -10.546300 -129.762039 259.937958
v -31.481800 -126.324043 260.296967
v -23.554501 -143.278046 260.741974
v -15.453500 -160.733047 259.896973
v 12.327200 -169.358047 259.683960
v 37.000401 -124.328041 257.244965
v 24.628201 -126.713036 257.191956
v 68.946297 -128.440048 257.605957
v 69.370903 -121.567047 257.666962
v 162.740005 9.561946 148.757996
v -17.063000 -171.842041 259.471954
v -7.772220 -171.098053 260.105957
v 67.169601 -110.012047 258.355957
v 43.563599 -157.741043 257.695984
v -82.111099 163.913956 272.584045
v 71.248802 167.642960 259.383026
v -140.934998 112.305954 269.054016
v 152.809006 -7.284921 125.957001
v -62.605499 -167.081039 260.401978
v -66.583199 170.932953 272.892029
v -181.507996 -2.746063 263.776001
v -179.699005 9.012007 264.251007
v -113.175003 140.541962 271.512024
v -153.057999 102.532951 268.657043
vn -0.0380 0.7196 -0.6934
vn -0.3831 0.6225 -0.6824
vn 0.0441 0.8459 -0.5315
vn -0.1695 0.4903 -0.8549
vn -0.2184 0.4131 -0.8841
vn -0.0504 0.4206 -0.9058
vn -0.0829 0.3563 -0.9307
vn -0.1036 -0.9176 -0.3837
vn -0.0135 0.7111 -0.7030
vn 0.4224 0.5318 -0.7340
vn 0.4111 0.6113 -0.6763
vn 0.0214 0.8216 -0.5696
vn -0.0294 0.8287 -0.5589
vn -0.0272 -0.0334 -0.9991
vn -0.1184 0.6007 -0.7906
vn -0.0854 -0.0318 -0.9958
vn -0.0472 -0.0432 -0.9980
vn -0.0881 0.6470 -0.7574
vn -0.0237 -0.0737 -0.9970
vn -0.0834 0.7019 -0.7074
vn -0.8284 0.1569 -0.5378
vn -0.0402 0.7220 -0.6907
vn 0.0632 0.7022 -0.7091
vn 0.1513 0.6834 -0.7142
vn -0.0487 0.5207 -0.8524
vn 0.1148 0.6902 -0.7145
vn 0.1003 0.6745 -0.7314
vn 0.0353 0.5263 -0.8496
vn 0.2797 0.5547 -0.7836
vn -0.2104 0.4467 -0.8696
vn -0.2089 0.4733 -0.8558
vn -0.0800 0.4974 -0.8638
vn 0.0750 0.8524 -0.5175
vn -0.0560 0.5801 -0.8126
vn -0.1957 0.4268 -0.8829
vn -0.2100 0.4418 -0.8722
vn -0.1614 0.4284 -0.8891
vn -0.1275 0.3270 -0.9364
vn -0.1772 0.4112 -0.8942
vn -0.3196 0.3644 -0.8747
vn -0.1481 0.3432 -0.9275
vn -0.1415 0.3581 -0.9229
vn -0.1164 0.2955 -0.9482
vn -0.0856 0.3418 -0.9359
vn -0.3012 0.2088 -0.9304
vn -0.1258 0.2550 -0.9587
vn -0.1297 0.2634 -0.9559
vn -0.0919 0.2314 -0.9685
vn 0.9014 0.2680 -0.3400
vn -0.0973 0.1154 -0.9885
vn -0.1657 0.1563 -0.9737
vn -0.0559 0.0763 -0.9955
vn -0.1052 0.0703 -0.9920
vn -0.0756 0.1938 -0.9781
vn -0.0531 0.0651 -0.9965
vn -0.0209 0.0912 -0.9956
vn 0.0632 0.0414 -0.9971
vn -0.0457 0.0686 -0.9966
vn 0.0177 0.0543 -0.9984
vn 0.0373 0.0869 -0.9955
vn -0.0643 0.1074 -0.9921
vn -0.0433 0.0507 -0.9978
vn -0.0214 0.0853 -0.9961
vn -0.0296 0.0626 -0.9976
vn -0.0295 0.0603 -0.9977
vn -0.0498 0.0831 -0.9953
vn -0.0427 0.0326 -0.9986
vn -0.0191 -0.0261 -0.9995
vn -0.0483 0.0135 -0.9987
vn 0.1336 0.0405 -0.9902
vn -0.0428 -0.0011 -0.9991
vn 0.0344 0.0382 -0.9987
vn 0.3277 0.0501 -0.9434
vn -0.0086 -0.0237 -0.9997
vn 0.0342 0.0370 -0.9987
vn -0.0248 0.0262 -0.9993
vn -0.0088 0.0445 -0.9990
vn -0.0159 0.0463 -0.9988
vn 0.0366 0.0063 -0.9993
vn 0.0066 0.0517 -0.9986
vn 0.0038 0.0518 -0.9987
vn -0.0408 -0.0270 -0.9988
vn -0.0232 -0.0371 -0.9990
vn 0.0415 0.0675 -0.9969
vn -0.0469 -0.0143 -0.9988
vn -0.0260 -0.1540 -0.9877
vn 0.1894 -0.9815 -0.0299
vn -0.1905 0.9810 -0.0382
vn 0.0591 -0.0199 -0.9981
vn 0.0670 0.0047 -0.9977
vn 0.1057 0.7711 -0.6279
vn -0.0497 0.7612 -0.6466
vn 0.0906 0.7383 -0.6684
vn 0.0658 0.0286 -0.9974
vn 0.0653 0.0718 -0.9953
vn -0.0340 -0.0374 -0.9987
vn -0.3190 0.3624 -0.8757
vn -0.0231 0.5864 -0.8097
vn -0.0511 0.0456 -0.9977
vn -0.0380 0.0757 -0.9964
vn -0.1255 0.7547 -0.6439
vn -0.0826 0.0866 -0.9928
vn -0.2039 0.4958 -0.8442
vn -0.1101 -0.0321 -0.9934
vn -0.0088 -0.0267 -0.9996
vn -0.2345 0.0839 -0.9685
vn -0.1759 0.4310 -0.8850
vn 0.3850 0.8985 -0.2107
vn 0.0014 -0.0992 -0.9951
vn -0.0273 0.0865 -0.9959
vn 0.0428 0.0340 -0.9985
vn -0.0065 -0.0075 -1.0000
vn 0.0948 0.8044 -0.5864
vn 0.9055 0.4223 -0.0421
vn 0.0436 0.0319 -0.9985
vn -0.0192 0.0121 -0.9997
vn -0.0146 0.0086 -0.9999
vn -0.0654 -0.0259 -0.9975
vn -0.0653 0.5089 -0.8584
vn -0.0434 0.5196 -0.8533
vn -0.2751 0.3485 -0.8960
vn -0.2050 0.4462 -0.8711
vn -0.0410 0.0525 -0.9978
vn -0.3576 0.9211 -0.1541
vn 0.0184 0.8212 -0.5703
vn -0.0605 0.0496 -0.9969
vn -0.1976 0.2798 -0.9395
vn 0.0309 -0.0283 -0.9991
vn 0.0320 0.0009 -0.9995
vn -0.1092 0.0261 -0.9937
vn 0.0397 0.0505 -0.9979
vn 0.0003 0.0014 -1.0000
vn 0.0197 -0.0263 -0.9995
vn 0.8524 0.0292 -0.5221
vn -0.1601 0.2792 -0.9468
usemtl None
s off
f 1//1 3//1 2//1
f 4//2 5//2 6//2
f 7//3 9//3 8//3
f 10//4 11//4 12//4
f 13//5 14//5 12//5
f 15//6 16//6 17//6
f 18//7 17//7 19//7
f 18//8 20//8 17//8
f 21//9 2//9 22//9
f 21//10 23//10 2//10
f 24//11 9//11 25//11
f 1//12 25//12 9//12
f 1//13 7//13 26//13
f 27//14 28//14 29//14
f 5//15 4//15 10//15
f 30//16 32//16 31//16
f 30//17 33//17 32//17
f 22//18 5//18 34//18
f 30//19 35//19 36//19
f 4//20 11//20 10//20
f 3//21 22//21 2//21
f 5//22 22//22 37//22
f 38//23 22//23 3//23
f 23//24 39//24 2//24
f 40//25 34//25 10//25
f 38//26 1//26 26//26
f 38//27 3//27 1//27
f 10//28 41//28 42//28
f 41//29 10//29 43//29
f 44//30 10//30 12//30
f 11//31 45//31 12//31
f 43//32 10//32 44//32
f 7//33 8//33 46//33
f 47//34 48//34 49//34
f 49//35 12//35 47//35
f 44//36 12//36 49//36
f 47//37 12//37 50//37
f 47//38 52//38 51//38
f 53//39 14//39 13//39
f 54//40 53//40 55//40
f 54//41 50//41 14//41
f 54//42 14//42 53//42
f 54//43 56//43 50//43
f 47//44 57//44 52//44
f 58//45 17//45 54//45
f 57//46 56//46 59//46
f 56//47 57//47 50//47
f 56//48 17//48 59//48
f 56//49 54//49 17//49
f 60//50 61//50 62//50
f 58//51 62//51 17//51
f 19//52 61//52 63//52
f 62//53 19//53 17//53
f 63//54 64//54 19//54
f 65//55 67//55 66//55
f 63//56 61//56 68//56
f 65//57 69//57 70//57
f 71//58 65//58 66//58
f 65//59 71//59 72//59
f 73//60 72//60 71//60
f 74//61 73//61 75//61
f 76//62 73//62 77//62
f 73//63 78//63 77//63
f 74//64 79//64 73//64
f 73//65 79//65 78//65
f 75//66 80//66 74//66
f 81//67 74//67 80//67
f 82//68 83//68 81//68
f 74//69 81//69 84//69
f 74//70 84//70 85//70
f 83//71 84//71 81//71
f 86//72 82//72 87//72
f 88//73 89//73 90//73
f 88//74 90//74 82//74
f 89//75 91//75 90//75
f 82//76 90//76 29//76
f 90//77 91//77 29//77
f 82//78 29//78 28//78
f 87//79 82//79 28//79
f 92//80 93//80 29//80
f 91//81 92//81 29//81
f 29//82 94//82 27//82
f 95//83 97//83 96//83
f 32//84 98//84 97//84
f 32//85 97//85 95//85
f 99//86 32//86 33//86
f 30//87 101//87 100//87
f 100//88 35//88 30//88
f 102//89 36//89 35//89
f 103//90 102//90 35//90
f 2//91 104//91 25//91
f 25//92 1//92 2//92
f 104//93 2//93 39//93
f 98//94 106//94 105//94
f 35//95 107//95 103//95
f 108//96 33//96 30//96
f 55//97 58//97 54//97
f 34//98 21//98 22//98
f 70//99 61//99 65//99
f 70//100 109//100 61//100
f 38//101 37//101 22//101
f 62//102 61//102 19//102
f 11//103 4//103 6//103
f 95//104 31//104 32//104
f 106//105 98//105 32//105
f 58//106 60//106 62//106
f 47//107 51//107 48//107
f 110//108 57//108 59//108
f 65//109 61//109 67//109
f 61//110 109//110 68//110
f 65//111 111//111 69//111
f 108//112 30//112 36//112
f 112//113 9//113 24//113
f 98//114 96//114 97//114
f 96//115 98//115 105//115
f 105//116 113//116 96//116
f 96//117 113//117 93//117
f 29//118 113//118 94//118
f 10//119 34//119 5//119
f 40//120 10//120 42//120
f 50//121 12//121 14//121
f 45//122 13//122 12//122
f 76//123 72//123 73//123
f 63//124 68//124 114//124
f 9//125 7//125 1//125
f 115//126 116//126 74//126
f 69//127 117//127 70//127
f 118//128 65//128 72//128
f 65//129 118//129 111//129
f 17//130 20//130 15//130
f 86//131 83//131 82//131
f 29//132 93//132 113//132
f 88//133 82//133 81//133
f 74//134 116//134 79//134
f 47//135 50//135 57//135
