# Blender v2.79 (sub 0) OBJ File: ''
# www.blender.org
mtllib my_crack_surf__144.mtl
o my_crack_surf__144
v 154.335007 95.199661 212.550018
v 111.426003 69.831871 205.866013
v 94.964897 106.593964 230.198013
v 64.036903 114.536964 241.689011
v 66.074303 128.731949 247.370010
v 105.014999 151.607956 248.227036
v 7.233110 130.521957 263.965027
v 5.473340 138.862961 265.011017
v 23.413300 127.247955 258.434021
v 24.700500 146.605957 261.214020
v 6.658820 159.655960 266.318024
v 3.743970 147.173950 266.253021
v 0.655805 157.198959 266.348022
v 21.566099 183.832947 267.267029
v 33.218102 183.065948 265.913025
v 7.346230 183.388962 268.512024
v -22.468599 184.900955 271.908020
v -7.330280 184.516953 270.277039
v 168.223999 12.790175 151.425003
v 155.427002 7.089287 143.798996
v 166.016006 4.230187 140.903000
v -2.615710 183.307953 269.588043
v 164.162994 0.677722 136.138000
v -113.192001 65.724251 268.144989
v -121.207001 106.580956 270.086029
v -106.027000 155.619949 273.735016
v 124.742996 60.527168 197.240021
v 118.469002 43.906971 184.705994
v 116.240997 55.292168 196.329010
v 130.365997 41.877571 182.080994
v -188.078995 -19.452845 263.528015
v -181.281006 60.496059 267.987000
v -127.957001 -30.289942 260.619995
v -114.552002 -144.720047 262.219971
v -129.901001 -129.003052 262.188965
v -82.462502 -119.451042 260.590973
v -21.092501 -128.025040 260.038971
v -71.170799 -165.872040 261.262970
v -58.190899 -177.917053 262.087982
v 144.003998 36.004372 175.233994
v 153.326004 40.732170 177.404999
v 168.205002 35.421974 173.393997
v 153.223999 24.380474 162.955994
v 171.171005 35.540375 174.320999
v 80.711998 -149.586044 257.922974
v 89.825798 -164.841049 259.019958
v 78.983803 -120.964035 256.910980
v 107.786003 -145.079041 257.669983
v 147.660004 -10.903819 119.181000
v 158.716003 -7.128140 124.301003
v 143.630997 -102.899040 250.894989
v 120.319000 -108.359039 252.773987
v 136.792999 -77.725540 246.697983
v 106.799004 -100.525040 253.551987
v 93.642899 -92.315636 253.768982
v 137.968994 4.920447 141.054993
v 146.375000 6.424356 142.669998
v 153.701004 -88.033241 248.324982
v 158.819000 -76.433540 246.275986
v 169.636993 60.717068 191.869019
v 156.005005 50.905670 184.673019
v 129.147003 20.199373 159.067001
v 169.580002 23.213974 162.906998
v 130.276993 -5.245161 126.754997
v 130.274002 -9.348350 120.051003
v 172.261002 51.476971 185.539017
v 129.294998 5.463787 143.020996
v 163.322006 76.425369 202.088013
v 75.597099 102.477959 232.722015
v 150.291000 -15.076718 110.022003
v 146.018005 -16.981817 106.279999
v 130.266998 -16.729816 105.963997
v 88.613197 112.866959 235.306015
v 165.778000 71.512268 199.052017
v 110.428001 146.814957 245.345032
v 126.487999 129.257965 234.124008
v 129.070007 -22.297615 95.061096
v 94.164200 159.694962 252.700027
v 70.549004 173.885956 259.516022
v 52.402401 133.662949 249.922012
v 50.584202 119.336960 245.109009
v 37.899399 123.675964 251.565018
v 29.764999 133.022949 257.566040
v -41.825802 123.699951 267.791016
v 42.979099 174.560959 263.497040
v 53.594799 179.087952 262.847015
v -13.754300 162.256958 268.555023
v -57.543499 173.286957 272.674042
v -58.990101 116.104958 268.466034
v -39.990898 183.624954 273.048035
v -77.281502 172.968948 273.646027
v -28.326099 184.499954 272.406036
v -35.040401 184.425949 272.865021
v -98.237999 85.826752 268.664001
v -127.900002 24.637457 264.148987
v -130.757004 13.800257 263.201996
v -129.240005 -8.056693 261.325012
v -123.099998 -41.410042 260.752991
v -165.143997 -93.490448 262.365997
v -113.346001 -63.433941 262.846008
v -185.649994 10.318157 264.821014
v -183.981003 -56.200443 262.795013
v -179.281006 -69.874046 262.595001
v -137.412003 -122.772049 262.122955
v -92.459000 -113.979042 261.053955
v -108.404999 -74.428749 262.652008
v -186.414001 32.306660 266.317993
v -82.023598 -102.782043 261.324982
v -42.049301 -124.596046 260.465973
v -98.923897 -158.236038 262.212982
v 0.000000 -131.500046 258.824982
v 14.889000 -145.515045 258.409973
v -33.729599 -183.588043 261.647980
v 24.629700 -126.713036 257.268982
v 0.666770 -183.251053 260.943970
v 17.380600 -159.310043 258.742981
v 39.310299 -139.487045 257.216980
v 36.847198 -124.358040 257.472961
v 49.048000 -122.009041 256.806976
v 21.898199 -183.467041 260.436981
v 44.756199 -163.822052 258.725983
v 30.690701 -183.010040 260.510956
v 75.711502 -168.759048 259.711975
v 71.296402 -107.297035 256.947968
v 122.987999 -128.332047 255.273987
v 82.484398 -99.791039 255.781982
v 122.714996 -47.155640 243.253983
v 133.477005 -115.983040 252.999985
v 161.610001 -10.810938 233.130997
v 164.544006 -49.999039 241.601990
v 128.792007 -3.851918 233.518997
v 165.550995 -28.716738 237.335999
v 153.091003 7.220823 228.205994
v 156.255997 1.510713 229.699997
v 141.802002 16.240664 224.766998
v 131.085007 9.199762 228.802002
v -85.791298 -166.062042 261.796967
v -21.013599 -184.257050 261.276978
v 52.400799 -180.137039 260.285980
v 165.634995 -33.100937 238.207001
v -150.153000 113.067955 271.046021
v -156.584000 105.761955 270.476044
v -139.311996 123.118958 271.779022
v -62.564201 178.344955 273.293030
v -144.766006 118.391953 271.581024
v -185.235001 45.921158 267.200012
v -186.169998 42.074657 266.950989
v -187.703995 -36.112640 263.201996
v -186.130005 -48.217140 262.938995
v -133.632004 -125.943047 262.232971
v 164.554001 -23.153538 236.037003
v 127.902000 19.762264 224.354004
v -189.287994 -29.080244 263.457001
v -125.416000 135.459961 272.625031
v 129.438995 0.870616 231.873001
v -164.634003 93.891151 269.816040
v -173.658005 77.670952 268.983002
v 136.300995 18.861063 223.962006
v -98.766098 161.742950 273.989044
v 75.959602 170.869949 258.196045
v -154.800003 -106.673042 262.308960
v 157.645004 89.426872 209.079010
vn 0.1591 -0.4944 0.8546
vn 0.2088 -0.3891 0.8972
vn 0.3134 -0.0528 0.9481
vn 0.2319 -0.0592 0.9709
vn 0.0079 -0.0070 0.9999
vn 0.0924 -0.2819 0.9550
vn 0.1041 -0.0990 0.9896
vn -0.0347 -0.7717 0.6351
vn 0.1077 -0.0946 0.9897
vn -0.0473 -0.7919 0.6088
vn -0.0530 -0.0578 0.9969
vn 0.3226 -0.6445 0.6932
vn 0.0678 -0.6169 0.7841
vn 0.0376 -0.0588 0.9976
vn 0.0278 0.0291 0.9992
vn -0.0150 0.0522 0.9985
vn 0.1285 -0.6117 0.7806
vn -0.0342 -0.6617 0.7490
vn -0.2466 -0.4678 0.8487
vn -0.0679 0.0312 0.9972
vn 0.0175 0.0523 0.9985
vn 0.0387 -0.8423 0.5377
vn -0.0581 -0.7972 0.6010
vn 0.0384 0.1745 0.9839
vn 0.0641 0.0764 0.9950
vn 0.0080 -0.8085 0.5884
vn -0.0654 -0.5374 0.8408
vn 0.0089 0.1701 0.9854
vn 0.0064 0.1661 0.9861
vn 0.0912 -0.6682 0.7384
vn 0.1319 -0.6010 0.7883
vn 0.1310 -0.5989 0.7900
vn 0.1064 -0.4763 0.8728
vn 0.1775 -0.5203 0.8353
vn 0.0268 -0.7284 0.6847
vn 0.1596 -0.6542 0.7393
vn 0.0300 -0.7284 0.6845
vn -0.0460 -0.6755 0.7359
vn -0.0644 -0.7445 0.6646
vn -0.0104 -0.8124 0.5831
vn -0.0501 -0.8518 0.5214
vn -0.0232 -0.5771 0.8163
vn -0.0237 -0.5696 0.8216
vn 0.1067 -0.7318 0.6731
vn 0.0257 -0.7561 0.6539
vn -0.6259 -0.5862 0.5144
vn 0.2118 -0.4717 0.8559
vn -0.0619 -0.9148 0.3990
vn -0.0175 -0.8828 0.4694
vn -0.0235 -0.8855 0.4640
vn 0.2127 -0.4784 0.8520
vn -0.2535 -0.5971 0.7611
vn -0.1363 -0.6190 0.7735
vn 0.2894 -0.4109 0.8645
vn -0.0234 -0.8893 0.4567
vn -0.1691 -0.6410 0.7487
vn 0.1376 -0.2700 0.9530
vn 0.3325 -0.3380 0.8805
vn 0.0974 -0.3818 0.9191
vn 0.0591 -0.3246 0.9440
vn 0.0831 -0.2665 0.9602
vn 0.3124 -0.3056 0.8995
vn 0.3205 -0.1324 0.9380
vn 0.2507 -0.1539 0.9557
vn 0.3601 -0.2615 0.8955
vn 0.2302 -0.0968 0.9683
vn 0.0987 -0.1270 0.9870
vn 0.0918 -0.1048 0.9902
vn 0.2868 -0.0964 0.9531
vn 0.4959 0.3802 0.7807
vn 0.0590 -0.3022 0.9514
vn 0.1035 -0.2747 0.9559
vn 0.1746 -0.2737 0.9458
vn 0.0829 -0.1906 0.9782
vn 0.0722 -0.0750 0.9946
vn 0.1151 0.0261 0.9930
vn -0.0481 -0.5115 0.8579
vn 0.0965 -0.1680 0.9811
vn 0.0723 -0.0750 0.9946
vn 0.0589 -0.1357 0.9890
vn 0.0490 -0.0745 0.9960
vn 0.0503 -0.0782 0.9957
vn 0.0944 -0.1102 0.9894
vn 0.0848 -0.9734 0.2127
vn 0.0731 -0.1185 0.9903
vn 0.1203 -0.1411 0.9827
vn 0.0690 -0.2033 0.9767
vn 0.0545 -0.0663 0.9963
vn 0.0053 -0.0987 0.9951
vn 0.0112 -0.0900 0.9959
vn 0.0163 -0.0844 0.9963
vn 0.0929 -0.0262 0.9953
vn -0.0510 0.0721 0.9961
vn 0.0153 0.0186 0.9997
vn -0.9611 0.0668 0.2679
vn -0.0229 -0.0225 0.9995
vn 0.0482 -0.0008 0.9988
vn -0.0208 -0.0221 0.9995
vn -0.0029 -0.0110 0.9999
vn 0.0284 -0.0237 0.9993
vn -0.4320 -0.2096 0.8772
vn 0.0408 -0.0665 0.9970
vn 0.0297 -0.0303 0.9991
vn 0.0254 0.0412 0.9988
vn 0.0219 -0.0446 0.9988
vn -0.0025 -0.0439 0.9990
vn 0.0121 -0.0355 0.9993
vn 0.0268 0.0304 0.9992
vn 0.0409 0.0244 0.9989
vn 0.0114 0.0172 0.9998
vn 0.0637 0.0381 0.9972
vn 0.0534 0.0168 0.9984
vn 0.0570 0.0310 0.9979
vn 0.0769 0.0379 0.9963
vn -0.0130 -0.0190 0.9997
vn 0.0560 -0.0078 0.9984
vn -0.9755 -0.1729 0.1357
vn 0.0246 0.0745 0.9969
vn 0.0388 0.0405 0.9984
vn 0.0317 0.0689 0.9971
vn -0.0111 0.0513 0.9986
vn 0.0319 0.0693 0.9971
vn 0.1774 0.0455 0.9831
vn -0.0033 -0.0046 1.0000
vn 0.0524 0.0921 0.9944
vn 0.0767 0.0404 0.9962
vn 0.1605 0.0261 0.9867
vn 0.1382 0.1412 0.9803
vn 0.3988 0.6213 0.6744
vn 0.1254 0.1477 0.9810
vn 0.0845 0.1499 0.9851
vn 0.0594 0.1318 0.9895
vn 0.0121 0.1175 0.9930
vn 0.0745 0.1928 0.9784
vn -0.1311 0.2001 0.9710
vn 0.0564 0.2114 0.9758
vn -0.1250 0.2007 0.9717
vn 0.1317 0.3186 0.9387
vn 0.0625 0.4229 0.9040
vn 0.1029 -0.8937 0.4367
vn 0.0364 0.0080 0.9993
vn 0.0315 0.0447 0.9985
vn -0.0179 0.0869 0.9961
vn 0.0262 0.1953 0.9804
vn -0.0505 -0.7365 0.6746
vn 0.0255 -0.1000 0.9947
vn 0.0319 -0.0902 0.9954
vn 0.3441 -0.4320 0.8336
vn 0.3522 -0.1454 0.9245
vn 0.0200 -0.0191 0.9996
vn 0.6006 0.7269 0.3330
vn 0.0248 0.0865 0.9959
vn -0.0320 0.2218 0.9746
vn 0.0759 0.4063 0.9106
vn 0.0821 -0.0177 0.9965
vn 0.0296 -0.0833 0.9961
vn 0.0133 -0.7211 0.6927
vn -0.0121 -0.0213 0.9997
vn 0.2090 -0.4870 0.8480
vn 0.3033 0.2763 0.9120
vn 0.0803 0.3263 0.9419
vn -0.0347 -0.0320 0.9989
vn 0.0520 0.1192 0.9915
vn 0.0952 -0.3510 0.9315
vn 0.2405 -0.4201 0.8750
vn 0.0560 -0.0661 0.9962
vn 0.0235 0.0236 0.9994
vn 0.0907 0.4615 0.8825
vn 0.0349 0.1057 0.9938
vn 0.0152 -0.0854 0.9962
vn 0.0355 -0.0655 0.9972
vn 0.0022 -0.0589 0.9983
vn -0.0519 -0.4292 0.9017
vn -0.1416 -0.8180 0.5576
vn -0.0257 -0.5742 0.8183
vn 0.0973 -0.1561 0.9829
vn 0.1752 -0.3995 0.8998
vn 0.1858 -0.4129 0.8916
vn -0.2233 -0.6983 0.6801
vn 0.0502 -0.0721 0.9961
vn -0.0021 0.0942 0.9956
vn 0.0244 0.0149 0.9996
vn -0.0044 0.0259 0.9997
vn -0.0192 0.0576 0.9982
vn -0.0222 0.0600 0.9980
vn 0.1217 -0.0890 0.9886
vn 0.0516 0.2857 0.9569
vn 0.0124 0.0623 0.9980
vn -0.0287 -0.7437 0.6679
vn 0.0071 -0.7500 0.6614
vn 0.2703 -0.1544 0.9503
vn 0.4034 -0.2904 0.8677
vn 0.0528 0.0943 0.9941
vn 0.0729 -0.8310 0.5515
vn 0.0609 -0.0354 0.9975
vn -0.0565 -0.0187 0.9982
vn 0.0015 -0.0625 0.9980
usemtl None
s off
f 1//1 3//1 2//1
f 4//2 6//2 5//2
f 7//3 9//3 8//3
f 10//4 11//4 12//4
f 13//5 12//5 11//5
f 14//6 16//6 15//6
f 17//7 11//7 18//7
f 19//8 20//8 21//8
f 11//9 16//9 22//9
f 23//10 21//10 20//10
f 24//11 26//11 25//11
f 27//12 29//12 28//12
f 28//13 30//13 27//13
f 31//14 33//14 32//14
f 34//15 36//15 35//15
f 37//16 38//16 39//16
f 40//17 41//17 30//17
f 42//18 41//18 43//18
f 42//19 43//19 44//19
f 45//20 46//20 47//20
f 46//21 48//21 47//21
f 23//22 49//22 50//22
f 23//23 20//23 49//23
f 51//24 53//24 52//24
f 47//25 54//25 55//25
f 56//26 49//26 20//26
f 56//27 20//27 57//27
f 58//28 59//28 53//28
f 58//29 53//29 51//29
f 27//30 61//30 60//30
f 27//31 30//31 61//31
f 41//32 61//32 30//32
f 1//33 27//33 60//33
f 27//34 1//34 2//34
f 62//35 30//35 28//35
f 40//36 43//36 41//36
f 62//37 40//37 30//37
f 63//38 44//38 43//38
f 43//39 20//39 19//39
f 64//40 49//40 56//40
f 64//41 65//41 49//41
f 66//42 61//42 41//42
f 60//43 61//43 66//43
f 62//44 67//44 56//44
f 43//45 62//45 56//45
f 1//46 60//46 68//46
f 2//47 3//47 69//47
f 70//48 49//48 65//48
f 70//49 65//49 71//49
f 71//50 65//50 72//50
f 69//51 3//51 73//51
f 68//52 60//52 74//52
f 6//53 76//53 75//53
f 6//54 73//54 3//54
f 77//55 71//55 72//55
f 6//56 78//56 79//56
f 6//57 79//57 5//57
f 80//58 82//58 81//58
f 81//59 4//59 5//59
f 81//60 5//60 80//60
f 80//61 5//61 79//61
f 80//62 83//62 82//62
f 10//63 83//63 80//63
f 10//64 8//64 9//64
f 9//65 82//65 83//65
f 8//66 10//66 12//66
f 84//67 8//67 12//67
f 8//68 84//68 7//68
f 11//69 80//69 16//69
f 11//70 10//70 80//70
f 16//71 80//71 85//71
f 79//72 86//72 80//72
f 86//73 85//73 80//73
f 87//74 13//74 11//74
f 88//75 84//75 12//75
f 88//76 12//76 13//76
f 88//77 13//77 87//77
f 16//78 85//78 15//78
f 88//79 89//79 84//79
f 88//80 87//80 90//80
f 88//81 26//81 89//81
f 26//82 88//82 91//82
f 87//83 11//83 17//83
f 17//84 92//84 90//84
f 17//85 90//85 87//85
f 86//86 15//86 85//86
f 93//87 90//87 92//87
f 94//88 26//88 24//88
f 24//89 32//89 95//89
f 96//90 95//90 32//90
f 96//91 32//91 97//91
f 32//92 33//92 97//92
f 98//93 99//93 100//93
f 33//94 99//94 98//94
f 101//95 31//95 32//95
f 102//96 103//96 31//96
f 99//97 33//97 31//97
f 99//98 31//98 103//98
f 99//99 104//99 100//99
f 105//100 100//100 104//100
f 105//101 106//101 100//101
f 101//102 32//102 107//102
f 36//103 105//103 104//103
f 36//104 104//104 35//104
f 105//105 36//105 108//105
f 109//106 108//106 36//106
f 106//107 105//107 108//107
f 36//108 34//108 110//108
f 36//109 110//109 38//109
f 36//110 38//110 37//110
f 37//111 112//111 111//111
f 37//112 113//112 112//112
f 114//113 111//113 112//113
f 112//114 115//114 116//114
f 117//115 118//115 114//115
f 118//116 117//116 119//116
f 120//117 112//117 116//117
f 120//118 116//118 115//118
f 117//119 114//119 112//119
f 112//120 121//120 117//120
f 112//121 120//121 122//121
f 122//122 121//122 112//122
f 47//123 123//123 45//123
f 119//124 47//124 124//124
f 125//125 54//125 47//125
f 126//126 124//126 47//126
f 126//127 47//127 55//127
f 125//128 52//128 54//128
f 52//129 55//129 54//129
f 52//130 127//130 55//130
f 127//131 52//131 53//131
f 125//132 128//132 52//132
f 59//133 127//133 53//133
f 59//134 129//134 127//134
f 130//135 129//135 59//135
f 131//136 127//136 129//136
f 129//137 130//137 132//137
f 133//138 129//138 134//138
f 135//139 136//139 133//139
f 70//140 50//140 49//140
f 137//141 38//141 110//141
f 138//142 112//142 113//142
f 139//143 123//143 121//143
f 140//144 132//144 130//144
f 43//145 19//145 63//145
f 141//146 142//146 143//146
f 90//147 144//147 88//147
f 143//148 145//148 141//148
f 146//149 147//149 32//149
f 148//150 149//150 31//150
f 35//151 104//151 150//151
f 46//152 45//152 123//152
f 151//153 129//153 132//153
f 152//154 136//154 135//154
f 148//155 31//155 153//155
f 154//156 25//156 26//156
f 43//157 40//157 62//157
f 102//158 31//158 149//158
f 2//159 29//159 27//159
f 155//160 131//160 136//160
f 129//161 136//161 131//161
f 156//162 157//162 142//162
f 128//163 51//163 52//163
f 69//164 73//164 6//164
f 69//165 6//165 4//165
f 26//166 94//166 89//166
f 113//167 37//167 39//167
f 158//168 152//168 135//168
f 38//169 137//169 39//169
f 143//170 25//170 154//170
f 107//171 32//171 147//171
f 24//172 157//172 32//172
f 36//173 37//173 109//173
f 42//174 44//174 41//174
f 66//175 41//175 44//175
f 26//176 91//176 159//176
f 3//177 76//177 6//177
f 1//178 76//178 3//178
f 160//179 79//179 78//179
f 144//180 91//180 88//180
f 139//181 121//181 122//181
f 161//182 104//182 99//182
f 117//183 47//183 119//183
f 117//184 121//184 47//184
f 47//185 121//185 123//185
f 11//186 22//186 18//186
f 133//187 136//187 129//187
f 112//188 138//188 115//188
f 43//189 57//189 20//189
f 57//190 43//190 56//190
f 10//191 9//191 83//191
f 1//192 68//192 162//192
f 125//193 47//193 48//193
f 64//194 56//194 67//194
f 24//195 25//195 143//195
f 142//196 157//196 143//196
f 143//197 157//197 24//197
