# Blender v2.79 (sub 0) OBJ File: ''
# www.blender.org
mtllib my_crack_surf__16.mtl
o my_crack_surf__16
v 153.688004 -1.030583 139.811996
v 129.313995 11.877975 152.173996
v 141.287003 -16.838518 119.242996
v 129.207001 19.585974 159.794006
v 157.871002 27.875271 171.143997
v 113.892998 101.982964 225.080017
v 138.751007 81.064568 210.236008
v 111.433998 69.819359 210.920013
v 121.165001 37.766670 178.513000
v 129.822006 -19.198118 114.421997
v 129.820999 -2.723402 136.425995
v 76.636200 102.299965 232.726013
v 93.769501 105.679962 229.683014
v 129.408005 4.193357 144.149002
v 147.987000 66.216072 200.086014
v 151.742996 57.612671 194.558014
vn -0.0820 -0.7657 0.6379
vn -0.0117 -0.7031 0.7110
vn -0.0587 -0.7298 0.6811
vn 0.1902 -0.4077 0.8931
vn -0.0594 -0.7287 0.6822
vn -0.0869 -0.7975 0.5971
vn 0.1983 -0.1304 0.9714
vn 0.1802 -0.4078 0.8951
vn 0.7283 -0.4907 0.4784
vn 0.1209 -0.7260 0.6770
vn 0.2106 -0.4590 0.8631
vn -0.0693 -0.5605 0.8253
vn -0.0095 -0.6198 0.7847
vn 0.1455 -0.6812 0.7175
usemtl None
s off
f 1//1 2//1 3//1
f 2//2 1//2 4//2
f 4//3 1//3 5//3
f 6//4 8//4 7//4
f 4//5 5//5 9//5
f 3//6 11//6 10//6
f 6//7 13//7 12//7
f 12//8 8//8 6//8
f 11//9 2//9 14//9
f 11//10 3//10 2//10
f 15//11 7//11 8//11
f 16//12 15//12 9//12
f 16//13 9//13 5//13
f 8//14 9//14 15//14
