# Blender v2.79 (sub 0) OBJ File: ''
# www.blender.org
mtllib my_crack_surf__13.mtl
o my_crack_surf__13
v 146.029999 60.513470 197.877014
v 111.456001 69.782463 211.985016
v 140.811996 69.422768 203.890015
v 152.417007 -0.643921 140.046997
v 130.272003 -16.479818 117.528999
v 140.119003 -13.889320 122.363998
v 118.505997 43.771568 184.712997
v 129.207993 19.577673 159.804001
v 155.222000 9.025875 151.266998
v 109.414001 82.751259 218.918015
v 107.714996 73.186165 216.372009
v 121.505997 84.900459 217.401016
v 112.223999 88.329964 221.696014
v 95.993698 83.872765 223.310013
v 156.348999 27.621471 170.259995
v 156.977005 20.435974 163.520996
vn 0.2327 -0.4467 0.8639
vn -0.1197 -0.7529 0.6472
vn 0.0958 -0.7078 0.6999
vn -0.1124 -0.7574 0.6432
vn -0.0845 -0.7443 0.6625
vn 0.5957 -0.3037 0.7436
vn 0.1883 -0.4398 0.8781
vn 0.1962 -0.5145 0.8348
vn 0.0831 -0.6968 0.7125
vn 0.2752 -0.2926 0.9158
vn 0.2253 -0.5229 0.8221
vn 0.2307 -0.4605 0.8572
vn -0.0933 -0.6572 0.7479
vn -0.0588 -0.7116 0.7002
vn -0.3726 -0.6519 0.6604
usemtl None
s off
f 1//1 3//1 2//1
f 4//2 5//2 6//2
f 2//3 7//3 1//3
f 8//4 5//4 4//4
f 9//5 8//5 4//5
f 10//6 11//6 2//6
f 12//7 10//7 2//7
f 13//8 10//8 12//8
f 8//9 1//9 7//9
f 14//10 11//10 10//10
f 13//11 14//11 10//11
f 3//12 12//12 2//12
f 15//13 1//13 8//13
f 15//14 8//14 9//14
f 9//15 16//15 15//15
