# Blender v2.79 (sub 0) OBJ File: ''
# www.blender.org
mtllib my_crack_surf__139.mtl
o my_crack_surf__139
v 130.276993 -5.291171 126.792999
v 137.175995 -20.308617 100.218002
v 154.317993 -11.953019 117.183998
v 135.789993 -2.124251 131.664001
v 148.136002 102.417961 216.542023
v 112.474998 66.664368 203.799011
v 126.599998 128.443970 233.846008
v 149.837006 -15.521218 110.146004
v 64.028397 114.541962 241.656021
v 66.077904 128.729950 247.384018
v 88.613197 112.866959 235.306015
v 29.642500 132.809952 257.765045
v 32.451599 182.587952 265.971039
v 21.422501 183.413956 267.185028
v 7.233110 130.521957 263.965027
v 23.555099 127.248955 258.644043
v 3.743970 147.173950 266.253021
v -2.703400 183.015961 269.571045
v -7.479530 184.078949 270.238037
v -23.153999 184.143951 271.853027
v -35.623199 183.651947 272.717041
v -48.811699 181.504959 272.963043
v 142.544006 14.265575 152.292999
v 165.785004 4.221737 141.287003
v 161.985992 -1.998742 132.016006
v 163.768005 0.554798 136.324997
v 156.016006 50.917969 184.676010
v 116.240997 55.292168 196.329010
v 118.476997 43.879269 184.707001
v -185.154999 -48.071041 262.876007
v -178.884003 -69.824646 262.623993
v -167.048004 -89.445145 262.367004
v -21.092501 -128.025040 260.038971
v -71.151398 -165.914047 261.203979
v -66.130997 -173.930038 262.206970
v 2.856550 -182.214050 260.570984
v 0.000000 -131.500046 258.825958
v -9.600860 -183.415039 261.146973
v 39.316601 -139.507050 257.190979
v 48.632198 -180.673050 259.823975
v 61.865200 -173.755051 260.082977
v 89.308197 -164.025040 258.984955
v 107.177002 -144.060043 257.544983
v 78.962997 -120.982040 256.938965
v 89.969101 -113.667038 256.047974
v 71.280098 -107.307037 256.948975
v 129.147003 20.197773 159.069000
v 170.177002 30.761873 169.625000
v 166.597000 21.441374 160.520996
v 171.645996 51.447769 185.221008
v 158.628998 61.120770 191.808014
v 129.294998 5.463787 143.020996
v 160.289993 82.181267 204.662018
v 144.791000 70.771667 199.542023
v 153.639999 95.174965 212.393021
v 101.971001 78.446663 213.021011
v 75.572601 102.499962 232.708008
v 164.244995 73.059868 199.710022
v 130.266998 -16.763817 105.970001
v 129.080002 -22.252214 95.154701
v 96.816704 157.513962 251.816025
v 85.625603 164.552948 255.463028
v 52.409599 133.658951 249.951019
v 50.620899 119.314964 245.254013
v 37.927200 123.659966 251.675018
v 61.078400 139.073959 250.720016
v 70.590202 173.241959 259.599030
v 5.476070 138.859955 265.029022
v -41.815201 123.699951 267.807037
v -54.248699 147.237961 270.756042
v -58.997299 116.096954 268.486023
v -108.015999 152.908951 273.377045
v -98.302399 161.164948 273.817017
v -83.968697 169.423950 273.515045
v -111.325996 68.233856 268.218994
v -143.860992 118.107956 271.483032
v -98.244102 85.820251 268.681000
v -170.460007 82.785652 269.306000
v -134.682999 126.341957 271.761017
v -144.479996 -14.351643 261.556000
v -130.757004 13.798357 263.182007
v -129.240005 -8.058063 261.300995
v -127.900002 24.635956 264.134003
v -183.503006 53.482357 267.747009
v -178.069000 66.990051 268.292999
v -185.246994 45.956860 267.345001
v -157.104004 -10.368543 262.365997
v -185.268005 9.411207 264.733002
v -186.069000 27.311556 266.015015
v -185.884995 35.506458 266.563995
v -127.957001 -30.291042 260.601990
v -130.065002 -47.175842 261.184998
v -123.099998 -41.410042 260.753998
v -113.346001 -63.433144 262.868011
v -188.276001 -29.372541 263.356995
v -183.261002 -55.596142 262.768005
v -82.462502 -119.451042 260.583984
v -108.404999 -74.428749 262.653015
v -153.164993 -108.775047 262.336975
v -142.313004 -117.504044 262.154968
v -129.712006 -128.731049 262.157959
v -137.322998 -122.495049 262.095978
v -110.242996 -148.285049 262.236969
v -42.049301 -124.596046 260.465973
v -82.023598 -102.782043 261.324982
v -98.785400 -158.151047 262.241974
v 24.629601 -126.713036 257.266968
v 36.846901 -124.358040 257.456970
v 49.033199 -122.015038 256.817963
v 116.695999 -134.303040 256.064972
v 125.079002 -98.529442 251.030991
v 82.478996 -99.794235 255.903992
v 93.663399 -92.295639 253.857986
v 106.869003 -100.540039 253.619980
v 122.717003 -47.151737 243.288986
v 151.740997 -85.664238 247.803986
v 161.216003 -27.518839 236.992004
v 129.682007 2.396422 232.266006
v 161.016006 -50.442940 241.512985
v 162.378006 -38.004738 239.139999
v 130.080002 12.813063 228.451004
v 141.134995 7.916833 229.117996
v -85.444504 -165.890045 261.769958
v 168.337006 62.254471 192.612015
v 167.962006 12.964675 151.804001
v 168.453003 15.925075 155.210007
v 167.113007 9.208496 147.669998
v 169.742004 26.865473 166.373993
v -33.732899 -184.080048 261.703979
v -76.172699 172.842957 273.244019
v -68.448502 175.805954 273.257019
v -56.231998 -172.079041 261.448975
v 113.539001 143.041962 243.333023
v 75.400703 -167.971039 259.691956
v 106.081001 150.366959 247.776031
v -163.050003 95.621651 269.895020
v -155.880005 105.476952 270.486023
v -119.255997 49.010460 266.505005
v 150.184998 -0.138029 231.190994
v 155.524994 -8.493208 233.186005
v -124.584999 135.827957 272.540039
v 139.641998 -107.017036 251.489990
v 145.658997 -97.178940 249.925980
v 155.584000 -75.599037 246.112991
v 51.167702 179.374954 263.392029
vn -0.0500 -0.8750 0.4815
vn -0.0099 -0.8332 0.5529
vn 0.1480 -0.4597 0.8756
vn -0.0342 -0.8824 0.4692
vn 0.2050 -0.3917 0.8970
vn 0.0955 -0.1672 0.9813
vn 0.2781 -0.1545 0.9480
vn 0.2372 -0.1404 0.9613
vn 0.0994 -0.0740 0.9923
vn 0.1019 -0.0761 0.9919
vn 0.1228 -0.0696 0.9900
vn 0.0788 -0.3786 0.9222
vn -0.0779 -0.8128 0.5773
vn -0.9137 -0.0441 0.4040
vn 0.1308 -0.6947 0.7073
vn -0.0046 -0.7822 0.6230
vn 0.0048 -0.0102 0.9999
vn -0.0482 0.0942 0.9944
vn 0.0426 0.0368 0.9984
vn -0.0473 0.0531 0.9975
vn 0.0216 0.0527 0.9984
vn 0.0592 0.0325 0.9977
vn 0.0225 -0.7297 0.6834
vn -0.0976 -0.6386 0.7634
vn -0.0414 -0.6900 0.7226
vn -0.0093 -0.5713 0.8207
vn 0.3105 -0.6988 0.6444
vn -0.0273 -0.7783 0.6273
vn 0.1788 -0.5947 0.7838
vn -0.0750 -0.5379 0.8396
vn 0.1280 -0.4438 0.8869
vn 0.2261 -0.4674 0.8547
vn 0.2064 -0.4741 0.8560
vn 0.2243 -0.4668 0.8554
vn 0.0466 -0.4609 0.8862
vn -0.0476 -0.8749 0.4820
vn -0.0735 -0.8861 0.4577
vn 0.0778 -0.3583 0.9303
vn 0.2473 -0.3396 0.9075
vn 0.3334 -0.3307 0.8829
vn 0.1086 -0.3856 0.9163
vn 0.0631 -0.3177 0.9461
vn 0.0905 -0.2658 0.9598
vn 0.0831 -0.2693 0.9595
vn 0.3191 -0.3077 0.8964
vn 0.2861 -0.5677 0.7719
vn 0.0926 -0.2745 0.9571
vn 0.1028 -0.2769 0.9554
vn 0.2478 -0.1712 0.9536
vn 0.2671 -0.0857 0.9599
vn 0.2723 -0.0651 0.9600
vn 0.0980 -0.1249 0.9873
vn 0.0924 -0.1069 0.9900
vn 0.0771 -0.0838 0.9935
vn 0.0770 -0.0943 0.9926
vn 0.0765 -0.0841 0.9935
vn 0.0505 -0.0722 0.9961
vn 0.1543 -0.2328 0.9602
vn 0.0280 -0.0471 0.9985
vn 0.0027 -0.0635 0.9980
vn -0.1101 0.0893 0.9899
vn 0.0506 -0.0822 0.9953
vn 0.1322 -0.1213 0.9838
vn 0.0759 -0.0707 0.9946
vn 0.0347 -0.0698 0.9970
vn 0.0288 -0.0744 0.9968
vn 0.0289 -0.0724 0.9970
vn -0.1963 -0.0612 0.9786
vn 0.0290 -0.0297 0.9991
vn 0.0702 0.0195 0.9973
vn 0.0810 0.0243 0.9964
vn -0.0128 0.0899 0.9959
vn 0.0371 0.0299 0.9989
vn 0.0559 -0.0397 0.9976
vn 0.0308 -0.0094 0.9995
vn 0.0430 -0.0185 0.9989
vn -0.0754 -0.0333 0.9966
vn -0.3999 -0.2707 0.8757
vn -0.2066 -0.1118 0.9720
vn 0.0167 -0.0001 0.9999
vn -0.0383 -0.0290 0.9988
vn 0.0016 0.0119 0.9999
vn 0.0080 0.0120 0.9999
vn 0.0404 0.0183 0.9990
vn -0.0027 -0.0443 0.9990
vn 0.0025 -0.0445 0.9990
vn 0.0218 0.0100 0.9997
vn 0.0267 0.0315 0.9991
vn 0.0443 0.0241 0.9987
vn 0.0111 0.0160 0.9998
vn 0.0628 0.0330 0.9975
vn 0.0424 0.0428 0.9982
vn -0.0118 -0.0195 0.9997
vn 0.0540 -0.0087 0.9985
vn -0.0049 0.0240 0.9997
vn -0.0142 0.0441 0.9989
vn -0.0039 -0.0029 1.0000
vn 0.0666 0.1237 0.9901
vn 0.0567 0.0954 0.9938
vn 0.2413 -0.2488 0.9380
vn 0.0632 0.0445 0.9970
vn 0.1277 0.0792 0.9886
vn 0.0735 0.0891 0.9933
vn 0.0467 0.1509 0.9874
vn 0.0737 0.1707 0.9826
vn 0.0527 0.2098 0.9763
vn -0.0774 0.1950 0.9777
vn 0.0938 0.3392 0.9360
vn -0.0035 -0.8295 0.5585
vn 0.0396 0.0073 0.9992
vn -0.0023 -0.5650 0.8251
vn 0.4535 -0.7041 0.5465
vn -0.0891 -0.7062 0.7024
vn 0.0224 0.0246 0.9994
vn 0.1286 -0.6827 0.7193
vn -0.2087 0.5405 0.8150
vn -0.0075 -0.6017 0.7987
vn 0.0333 -0.0777 0.9964
vn 0.0394 0.1483 0.9882
vn 0.0826 -0.0340 0.9960
vn 0.1993 -0.4023 0.8935
vn -0.0056 0.0805 0.9967
vn 0.0189 0.1113 0.9936
vn -0.1175 -0.5997 0.7915
vn 0.1484 -0.3669 0.9184
vn -0.0933 0.0082 0.9956
vn -0.0032 -0.0875 0.9962
vn -0.3817 -0.5667 0.7302
vn 0.0344 -0.0381 0.9987
vn 0.1405 0.0022 0.9901
vn -0.0375 0.2094 0.9771
vn 0.1027 0.3233 0.9407
vn 0.1926 -0.4596 0.8670
vn 0.0305 0.0085 0.9995
vn -0.0525 -0.4326 0.9000
vn -0.0676 0.1930 0.9789
vn 0.3153 -0.4061 0.8577
vn -0.0356 -0.6993 0.7139
vn 0.0347 -0.0568 0.9978
vn 0.0436 -0.0656 0.9969
vn -0.0443 -0.7828 0.6208
vn -0.0275 -0.7440 0.6676
vn 0.0533 0.1210 0.9912
vn 0.0337 -0.0788 0.9963
vn -0.0088 -0.8338 0.5520
vn -0.0049 -0.5503 0.8349
vn 0.0600 -0.5704 0.8192
vn 0.0094 -0.0685 0.9976
vn -0.0868 0.0040 0.9962
vn 0.0140 0.0670 0.9977
vn 0.1752 -0.4993 0.8485
vn 0.1573 -0.4703 0.8684
vn 0.0380 -0.0820 0.9959
vn 0.0040 0.0288 0.9996
vn 0.3676 -0.2613 0.8925
vn 0.1225 0.1534 0.9805
vn 0.1149 0.1557 0.9811
vn 0.0440 0.1291 0.9907
vn 0.0006 -0.0970 0.9953
vn 0.0827 -0.1286 0.9882
vn 0.0559 0.0375 0.9977
vn 0.0352 -0.0698 0.9969
vn 0.1656 -0.5932 0.7879
vn 0.0425 0.1593 0.9863
vn 0.0446 0.1302 0.9905
vn 0.0544 0.2115 0.9759
vn -0.0875 0.1974 0.9764
vn 0.0642 -0.3698 0.9269
usemtl None
s off
f 1//1 2//1 3//1
f 1//2 3//2 4//2
f 5//3 7//3 6//3
f 3//4 2//4 8//4
f 9//5 11//5 10//5
f 12//6 13//6 14//6
f 15//7 16//7 12//7
f 17//8 12//8 14//8
f 18//9 17//9 14//9
f 19//10 20//10 17//10
f 19//11 17//11 18//11
f 21//12 22//12 20//12
f 23//13 25//13 24//13
f 26//14 24//14 25//14
f 27//15 28//15 29//15
f 23//16 4//16 25//16
f 30//17 31//17 32//17
f 33//18 34//18 35//18
f 36//19 37//19 38//19
f 39//20 40//20 41//20
f 42//21 43//21 44//21
f 45//22 46//22 44//22
f 23//23 29//23 47//23
f 23//24 48//24 27//24
f 23//25 49//25 48//25
f 50//26 51//26 27//26
f 47//27 52//27 4//27
f 47//28 4//28 23//28
f 6//29 54//29 53//29
f 55//30 5//30 53//30
f 6//31 53//31 5//31
f 56//32 6//32 7//32
f 56//33 11//33 57//33
f 56//34 7//34 11//34
f 58//35 53//35 54//35
f 1//36 59//36 2//36
f 60//37 2//37 59//37
f 61//38 62//38 11//38
f 11//39 62//39 10//39
f 63//40 65//40 64//40
f 64//41 9//41 10//41
f 64//42 10//42 63//42
f 66//43 10//43 62//43
f 66//44 63//44 10//44
f 63//45 12//45 65//45
f 63//46 66//46 12//46
f 67//47 13//47 66//47
f 62//48 67//48 66//48
f 12//49 66//49 13//49
f 12//50 17//50 68//50
f 68//51 15//51 12//51
f 69//52 68//52 17//52
f 68//53 69//53 15//53
f 70//54 69//54 17//54
f 17//55 20//55 70//55
f 70//56 71//56 69//56
f 20//57 22//57 70//57
f 72//58 74//58 73//58
f 75//59 77//59 76//59
f 76//60 78//60 75//60
f 74//61 79//61 76//61
f 80//62 82//62 81//62
f 81//63 83//63 80//63
f 84//64 86//64 85//64
f 87//65 89//65 88//65
f 87//66 83//66 89//66
f 83//67 86//67 89//67
f 90//68 89//68 86//68
f 91//69 82//69 80//69
f 92//70 80//70 87//70
f 91//71 80//71 92//71
f 93//72 92//72 94//72
f 93//73 91//73 92//73
f 88//74 95//74 87//74
f 87//75 30//75 92//75
f 87//76 95//76 30//76
f 96//77 31//77 30//77
f 97//78 98//78 92//78
f 94//79 92//79 98//79
f 99//80 100//80 30//80
f 30//81 32//81 99//81
f 101//82 92//82 102//82
f 101//83 103//83 92//83
f 97//84 92//84 103//84
f 104//85 105//85 97//85
f 98//86 97//86 105//86
f 100//87 102//87 92//87
f 97//88 103//88 106//88
f 97//89 106//89 34//89
f 97//90 34//90 33//90
f 33//91 38//91 37//91
f 39//92 107//92 36//92
f 39//93 108//93 107//93
f 108//94 39//94 109//94
f 44//95 109//95 39//95
f 39//96 42//96 44//96
f 44//97 46//97 109//97
f 110//98 111//98 44//98
f 110//99 44//99 43//99
f 111//100 45//100 44//100
f 112//101 46//101 45//101
f 112//102 45//102 113//102
f 114//103 113//103 45//103
f 115//104 111//104 116//104
f 116//105 117//105 115//105
f 115//106 117//106 118//106
f 119//107 120//107 116//107
f 118//108 122//108 121//108
f 25//109 4//109 3//109
f 123//110 34//110 106//110
f 124//111 51//111 50//111
f 125//112 126//112 127//112
f 128//113 49//113 126//113
f 38//114 33//114 129//114
f 23//115 27//115 29//115
f 130//116 74//116 131//116
f 50//117 27//117 48//117
f 76//118 71//118 70//118
f 34//119 123//119 35//119
f 33//120 35//120 132//120
f 11//121 7//121 133//121
f 39//122 41//122 134//122
f 134//123 42//123 39//123
f 61//124 133//124 135//124
f 11//125 133//125 61//125
f 136//126 78//126 137//126
f 78//127 138//127 75//127
f 128//128 48//128 49//128
f 77//129 71//129 76//129
f 114//130 45//130 111//130
f 139//131 122//131 140//131
f 118//132 140//132 122//132
f 57//133 11//133 9//133
f 100//134 92//134 30//134
f 97//135 33//135 104//135
f 117//136 116//136 120//136
f 74//137 141//137 79//137
f 23//138 126//138 49//138
f 83//139 85//139 86//139
f 70//140 131//140 74//140
f 127//141 23//141 24//141
f 127//142 126//142 23//142
f 132//143 35//143 129//143
f 76//144 70//144 74//144
f 1//145 4//145 52//145
f 51//146 124//146 58//146
f 51//147 58//147 54//147
f 138//148 78//148 85//148
f 76//149 137//149 78//149
f 40//150 39//150 36//150
f 6//151 28//151 54//151
f 51//152 54//152 28//152
f 87//153 80//153 83//153
f 132//154 129//154 33//154
f 16//155 65//155 12//155
f 115//156 114//156 111//156
f 114//157 115//157 113//157
f 110//158 142//158 111//158
f 138//159 85//159 83//159
f 141//160 74//160 72//160
f 107//161 37//161 36//161
f 22//162 131//162 70//162
f 51//163 28//163 27//163
f 143//164 116//164 111//164
f 143//165 111//165 142//165
f 140//166 118//166 117//166
f 144//167 119//167 116//167
f 13//168 67//168 145//168
