# Blender v2.79 (sub 0) OBJ File: ''
# www.blender.org
mtllib my_crack_surf__10.mtl
o my_crack_surf__10
v 154.022003 10.916775 153.367004
v 154.225006 20.795473 162.848999
v 130.278000 -9.912421 130.240005
v 140.268005 -4.765262 135.231995
v 147.097000 51.570171 190.518021
v 147.358994 18.586973 159.714005
v 118.234001 44.546669 185.065002
v 111.337997 69.377762 217.560013
v 134.063004 65.425972 203.062012
v 129.212006 19.546574 159.802002
vn -0.0967 -0.6882 0.7191
vn 0.1058 -0.7905 0.6033
vn 0.0280 -0.6822 0.7307
vn 0.2675 -0.7374 0.6202
vn -0.1111 -0.6815 0.7233
vn -0.0340 -0.7085 0.7048
vn -0.0346 -0.7178 0.6953
vn 0.0191 -0.6611 0.7501
vn -0.1131 -0.6787 0.7257
usemtl None
s off
f 1//1 2//1 3//1
f 1//2 3//2 4//2
f 5//3 7//3 6//3
f 8//4 7//4 9//4
f 6//5 3//5 2//5
f 6//6 10//6 3//6
f 10//7 6//7 7//7
f 9//8 7//8 5//8
f 2//9 5//9 6//9
