# Blender v2.79 (sub 0) OBJ File: ''
# www.blender.org
mtllib my_crack_surf__26.mtl
o my_crack_surf__26
v 118.671997 43.166470 184.742996
v 122.919998 47.013771 188.633011
v 116.334000 55.014568 196.573013
v 157.768997 3.726556 144.778000
v 130.278000 -7.824911 128.891998
v 146.031006 -12.518420 120.042999
v 129.210007 19.552673 159.834000
v 152.503998 70.752266 200.338013
v 127.584999 71.126373 206.579010
v 129.789001 -2.200272 136.740005
v 161.942001 28.566971 171.011993
v 78.059196 100.221962 234.129013
v 111.448997 69.798866 207.724014
v 132.412003 106.057961 220.060013
v 130.264008 -17.148718 108.907997
v 64.822899 114.055962 245.060013
v 109.140999 127.161964 235.607010
v 35.680698 155.011948 261.782043
v 24.724701 127.474953 261.904022
v 20.713600 141.347961 266.107025
v 8.206690 141.401947 265.895020
v 15.918500 133.334961 268.958038
v 8.646110 130.631958 267.633026
v -3.263230 128.860947 266.733032
v 153.302002 40.783070 178.522003
v 156.343994 61.150768 193.886017
v 9.115880 146.198959 265.862030
v 24.153099 153.424957 264.359039
v 68.646103 151.206955 253.539032
vn -0.0069 -0.7072 0.7070
vn 0.0474 -0.8451 0.5325
vn -0.0668 -0.7484 0.6599
vn 0.1840 -0.6095 0.7711
vn 0.9713 -0.1606 0.1756
vn -0.0340 -0.7270 0.6858
vn 0.1051 -0.5835 0.8053
vn 0.2196 -0.3775 0.8996
vn -0.0325 -0.9057 0.4226
vn 0.3021 -0.3961 0.8671
vn 0.4034 -0.1565 0.9015
vn 0.3456 -0.1334 0.9289
vn -0.0144 0.3428 0.9393
vn -0.2296 0.1459 0.9623
vn -0.0973 0.1547 0.9832
vn -0.1305 -0.5846 0.8008
vn 0.0195 -0.7214 0.6922
vn 0.0916 -0.5299 0.8431
vn 0.2698 -0.3789 0.8852
vn -0.0169 0.0101 0.9998
vn 0.5945 -0.0708 0.8010
vn 0.1226 -0.6828 0.7202
vn 0.2066 0.0823 0.9750
vn -0.0367 -0.7227 0.6902
vn 0.1058 -0.6068 0.7878
vn 0.3837 -0.4719 0.7938
vn 0.1855 -0.3673 0.9114
vn 0.2606 -0.2002 0.9445
vn 0.2158 -0.3961 0.8925
vn 0.1350 -0.6095 0.7812
vn 0.0824 -0.0088 0.9966
vn 0.0349 0.1334 0.9904
vn 0.2698 -0.3603 0.8930
usemtl None
s off
f 1//1 2//1 3//1
f 4//2 5//2 6//2
f 4//3 7//3 5//3
f 8//4 9//4 2//4
f 7//5 10//5 5//5
f 7//6 11//6 2//6
f 12//7 13//7 9//7
f 8//8 14//8 9//8
f 15//9 6//9 5//9
f 12//10 17//10 16//10
f 18//11 20//11 19//11
f 16//12 18//12 19//12
f 21//13 22//13 20//13
f 22//14 21//14 23//14
f 23//15 21//15 24//15
f 11//16 26//16 25//16
f 7//17 2//17 1//17
f 8//18 2//18 26//18
f 9//19 14//19 12//19
f 21//20 20//20 27//20
f 22//21 19//21 20//21
f 23//22 19//22 22//22
f 28//23 20//23 18//23
f 11//24 7//24 4//24
f 2//25 9//25 13//25
f 13//26 3//26 2//26
f 17//27 29//27 18//27
f 16//28 17//28 18//28
f 11//29 25//29 2//29
f 25//30 26//30 2//30
f 27//31 24//31 21//31
f 28//32 27//32 20//32
f 17//33 12//33 14//33
