# Blender v2.79 (sub 0) OBJ File: ''
# www.blender.org
mtllib my_crack_surf__51.mtl
o my_crack_surf__51
v 158.955002 4.881317 143.923996
v 144.033997 35.594570 175.709000
v 164.173996 21.075373 162.136993
v 129.787003 -1.358672 136.098007
v 130.229004 -17.415518 108.328003
v 146.535004 -11.826819 119.639999
v 139.078995 -15.384718 113.209000
v 112.584999 66.335266 204.088013
v 109.059998 136.435959 241.362015
v 102.988998 77.513161 213.610016
v 77.272301 100.943962 233.699020
v 118.579002 43.506069 184.725998
v 122.538002 47.283268 188.382019
v 116.240997 55.292168 196.329010
v 33.789398 173.483948 264.232025
v 26.342899 174.471954 265.262024
v 16.923901 174.939957 266.278046
v 7.233110 130.521957 263.965027
v -127.807999 106.978951 269.932037
v -119.718002 119.178955 270.855042
v -98.832603 85.217155 269.932007
v 153.285995 40.771969 178.326004
v 163.820007 48.817268 183.880020
v 158.584000 71.267067 198.413010
v 164.712006 40.225571 177.662994
v 129.201004 19.646173 159.723007
v 146.345001 92.798859 211.310013
v 152.875000 82.076973 205.227020
v 132.912994 113.459961 223.820023
v 83.277000 151.358948 253.294037
v 53.439999 133.050949 253.674011
v 30.967199 125.908958 257.492035
v 51.766800 118.627960 249.787018
v 75.763802 154.979950 254.403030
v 67.886803 143.321960 253.129028
v 58.357700 167.715958 260.960022
v 2.730200 174.917953 268.003021
v -22.486500 173.986954 270.631042
v -55.947399 166.909958 272.193024
v -41.374599 123.702957 268.458038
v -59.267899 115.806953 269.245026
v -106.288002 133.228958 271.271027
v 0.086857 175.245956 268.367035
v -10.530100 174.597961 269.481018
v -138.681000 79.639153 267.584991
v -113.502998 65.172653 268.421997
v -141.578003 53.407558 265.427002
v -133.636002 29.046059 261.803986
v -128.037994 24.999357 261.747009
v -138.781006 39.005257 263.795990
v 74.902000 159.596954 256.752045
v 87.806000 153.017960 253.157028
v -14.680800 174.479950 269.976044
v -64.203400 163.721954 272.101044
v -70.938004 160.337952 271.587036
v -80.844704 153.790955 271.940033
v 153.382996 -4.875931 131.240005
v 67.591301 163.459961 258.143036
v -124.538002 113.100952 270.591034
v 66.021698 112.688965 242.493011
vn -0.0749 -0.7345 0.6745
vn -0.0499 -0.8650 0.4993
vn -0.1620 -0.7719 0.6148
vn 0.3326 -0.4297 0.8395
vn 0.2762 -0.4327 0.8582
vn 0.0095 -0.7006 0.7135
vn 0.0839 -0.3432 0.9355
vn 0.1136 -0.0764 0.9906
vn -0.0379 -0.0504 0.9980
vn 0.2408 -0.7449 0.6222
vn 0.1116 -0.5216 0.8459
vn 0.1071 -0.6337 0.7661
vn 0.0272 -0.4892 0.8717
vn 0.0206 -0.7173 0.6965
vn 0.0678 -0.6295 0.7741
vn -0.0292 -0.7256 0.6875
vn 0.0847 -0.7436 0.6632
vn -0.4747 -0.6349 0.6096
vn 0.1563 -0.4406 0.8840
vn 0.1531 -0.4371 0.8863
vn 0.2038 -0.4516 0.8686
vn 0.2013 -0.3756 0.9047
vn 0.2463 -0.2787 0.9282
vn 0.0706 -0.1554 0.9853
vn 0.0790 -0.2158 0.9732
vn 0.1984 -0.2285 0.9531
vn 0.1062 -0.0794 0.9912
vn 0.0992 -0.0524 0.9937
vn 0.0686 -0.1053 0.9921
vn 0.0712 -0.0621 0.9955
vn 0.0212 -0.0589 0.9980
vn 0.1132 -0.1733 0.9783
vn -0.0538 -0.0358 0.9979
vn -0.0753 -0.0735 0.9944
vn -0.2007 -0.2908 0.9355
vn 0.1279 -0.2705 0.9542
vn 0.1044 -0.6086 0.7866
vn 0.0326 0.8752 0.4826
vn 0.1763 -0.4812 0.8587
vn 0.0200 -0.0573 0.9982
vn 0.0347 -0.0225 0.9991
vn -0.0015 -0.0281 0.9996
vn -0.1389 0.2462 0.9592
vn 0.2424 -0.3764 0.8942
vn -0.0944 -0.4654 0.8801
vn -0.0495 -0.0659 0.9966
vn 0.0068 -0.7940 0.6078
vn -0.0769 -0.4635 0.8828
vn 0.1928 -0.2344 0.9528
vn 0.1829 -0.2350 0.9546
vn -0.1772 0.3184 0.9312
vn 0.1606 -0.5765 0.8011
vn 0.0374 -0.7150 0.6982
vn 0.4959 -0.3833 0.7792
vn 0.1771 -0.4096 0.8949
vn 0.2329 -0.1499 0.9609
vn -0.0195 -0.8525 0.5224
vn 0.1204 -0.0778 0.9897
vn 0.2344 -0.2270 0.9453
vn 0.2116 -0.1494 0.9659
vn 0.4999 -0.1586 0.8514
vn 0.3416 -0.2813 0.8967
vn 0.0573 -0.1013 0.9932
vn -0.0431 -0.1485 0.9880
vn 0.0191 -0.5848 0.8109
usemtl None
s off
f 1//1 3//1 2//1
f 4//2 5//2 6//2
f 5//3 7//3 6//3
f 8//4 9//4 10//4
f 11//5 10//5 9//5
f 12//6 13//6 14//6
f 15//7 16//7 17//7
f 15//8 17//8 18//8
f 19//9 21//9 20//9
f 2//10 22//10 23//10
f 13//11 23//11 24//11
f 2//12 23//12 13//12
f 2//13 25//13 22//13
f 2//14 13//14 26//14
f 2//15 3//15 25//15
f 4//16 1//16 2//16
f 4//17 2//17 26//17
f 24//18 28//18 27//18
f 27//19 8//19 24//19
f 29//20 8//20 27//20
f 29//21 9//21 8//21
f 9//22 30//22 11//22
f 31//23 32//23 33//23
f 30//24 34//24 35//24
f 15//25 31//25 36//25
f 36//26 31//26 35//26
f 37//27 38//27 18//27
f 18//28 39//28 40//28
f 38//29 39//29 18//29
f 39//30 41//30 40//30
f 39//31 42//31 41//31
f 43//32 44//32 37//32
f 45//33 46//33 21//33
f 45//34 47//34 46//34
f 48//35 49//35 50//35
f 30//36 52//36 51//36
f 38//37 37//37 53//37
f 44//38 53//38 37//38
f 54//39 55//39 39//39
f 39//40 56//40 42//40
f 21//41 41//41 42//41
f 21//42 42//42 20//42
f 30//43 35//43 31//43
f 30//44 31//44 11//44
f 51//45 34//45 30//45
f 45//46 21//46 19//46
f 57//47 1//47 4//47
f 51//48 58//48 34//48
f 58//49 35//49 34//49
f 36//50 35//50 58//50
f 39//51 55//51 56//51
f 8//52 13//52 24//52
f 12//53 26//53 13//53
f 8//54 14//54 13//54
f 52//55 30//55 9//55
f 32//56 15//56 18//56
f 57//57 4//57 6//57
f 17//58 37//58 18//58
f 20//59 59//59 19//59
f 32//60 31//60 15//60
f 60//61 11//61 31//61
f 60//62 31//62 33//62
f 47//63 50//63 49//63
f 49//64 46//64 47//64
f 25//65 23//65 22//65
