# Blender v2.79 (sub 0) OBJ File: ''
# www.blender.org
mtllib my_crack_surf__114.mtl
o my_crack_surf__114
v 130.276993 -5.581060 127.031998
v 145.229004 -15.620718 111.280998
v 151.322006 -12.112819 118.275002
v 155.884995 -7.208820 125.745003
v 137.490005 111.784966 223.143021
v 124.742996 60.526470 197.326019
v 88.613998 112.865959 235.309021
v 118.454002 43.961170 184.703003
v 116.240997 55.292168 196.329010
v 125.708000 125.635963 232.721008
v 64.012901 114.550964 241.595016
v 66.117798 128.705948 247.542023
v 42.698200 178.180954 264.424042
v 27.864300 180.667953 266.094025
v 1.695920 180.988953 268.875031
v 23.944901 127.251953 259.220032
v 7.233110 130.521957 263.965027
v -9.328400 178.414948 269.824036
v -181.649994 -32.853741 262.661987
v -183.074997 -2.068743 263.925995
v -129.238007 -8.064503 261.187988
v 168.311005 35.069775 173.445999
v 144.005005 35.996574 175.242996
v 156.882004 23.459972 162.348007
v 167.500000 31.282772 170.468002
v 39.307400 -139.489044 257.064972
v 49.046501 -122.010040 256.731964
v 46.234501 -172.620041 259.499969
v 164.464005 9.310536 148.354004
v 159.645004 -1.161962 134.414001
v 66.276100 -165.761047 259.041962
v 129.309998 5.312947 143.199997
v 146.841003 19.470074 158.559006
v 159.567001 76.222572 201.069016
v 168.231995 51.343170 185.085022
v 137.309006 16.501175 155.048004
v 129.149002 20.183372 159.085999
v 166.559998 20.618973 160.906006
v 155.891006 84.701569 206.256012
v 149.343002 93.676361 211.828018
v 111.426003 69.831268 205.939011
v 147.962006 97.593964 214.060013
v 75.568001 102.504959 232.705017
v 130.270004 -13.529518 113.412003
v 130.266998 -16.966217 106.158997
v 111.221001 139.713959 243.308014
v 52.548199 133.575958 250.499008
v 102.906998 148.374954 248.674026
v 82.362503 163.343948 256.597015
v 50.725399 119.251961 245.667023
v 32.874401 125.332962 255.195023
v 70.390999 169.348953 259.461029
v 51.487999 175.900955 263.474030
v 60.201199 173.096954 261.644043
v -43.432701 133.723953 268.920044
v -39.783600 158.050949 270.629028
v -41.751400 123.699951 267.901031
v -20.315901 170.792953 269.930023
v -59.042198 116.049957 268.610016
v -14.928300 174.877960 269.745026
v -39.821301 179.430954 272.418030
v -55.829601 175.462952 272.780029
v -110.179001 95.738152 269.742035
v -98.273201 85.789253 268.761993
v -27.189301 181.336960 271.898041
v -161.852005 88.888756 269.557007
v -113.192001 65.724251 268.144989
v -90.063599 161.182953 272.691040
v -152.623993 102.245956 269.252045
v -159.589005 93.162758 269.015991
v -127.900002 24.628555 264.062012
v -175.373993 62.572960 268.355988
v -169.671997 75.689651 268.954010
v -181.264008 37.855259 266.576996
v -130.757996 13.788057 263.082001
v -127.955002 -30.298641 260.467987
v -178.572998 -46.860340 262.212006
v -160.401001 -89.016647 262.153015
v -123.099998 -41.410240 260.751007
v -118.255997 -52.467243 261.997986
v -147.514008 -104.240044 261.601959
v -138.639999 -112.741043 261.714966
v -105.353996 -100.302048 261.710968
v -113.347000 -63.432842 262.876007
v -108.405998 -74.427948 262.675995
v -82.462502 -119.451042 260.512970
v -114.444000 -137.276047 261.828979
v -42.049301 -124.596046 260.465973
v -82.023598 -102.782043 261.324982
v -104.785004 -143.374039 262.044983
v -96.183800 -154.377045 262.154968
v -50.164600 -173.494049 260.577972
v -23.603399 -143.134048 260.679962
v 0.000000 -131.500046 258.830963
v 24.628901 -126.713036 257.228973
v 1.992850 -176.832047 259.812958
v -18.871700 -177.424042 260.749969
v -31.864901 -177.511047 260.640961
v 91.755997 -150.678040 257.270966
v 102.240997 -138.465042 256.862976
v 72.640099 -161.092041 258.751984
v 101.093002 -106.227036 255.333984
v 82.509300 -99.765442 256.499969
v 111.072998 -131.899048 256.046967
v 93.669098 -92.288841 254.521988
v 120.577003 -117.722038 254.166992
v 108.203003 -69.389641 248.023987
v 130.188004 -101.493034 250.697983
v 139.044998 -79.043037 246.747986
v 141.904999 -60.888237 244.209991
v 142.867996 -66.663734 244.772980
v 122.748001 -47.070339 244.015991
v 137.442993 -18.533318 104.914001
v -85.096603 -161.927048 262.109955
v -63.932499 -169.923050 261.030975
v 125.577003 -107.766037 252.286987
v 76.141998 166.538956 258.161041
v 47.925400 176.915955 264.001038
v -8.243760 181.718948 270.035034
v -106.803001 149.266953 272.794037
v -110.216003 145.954956 272.312042
v -103.401001 152.303955 272.936035
v -123.412003 131.845947 271.249023
v -98.444901 156.767960 272.803040
v -182.352997 26.101757 265.768005
v -182.792007 -10.345343 263.385010
v -183.417999 -17.156042 262.907990
v -175.289993 -59.806541 262.404999
v 163.154007 5.918067 143.817001
v 124.781998 -32.443840 240.016998
v 135.639999 -43.519039 241.983002
v -136.621002 119.036957 270.215027
v 93.282600 156.969955 253.304031
v -182.945999 -22.174442 262.682007
v 129.539993 -20.128216 98.921600
v -178.447006 53.186058 267.709991
v -67.392197 171.868958 273.029022
v -132.738007 122.919952 270.681030
v -127.681999 127.810951 271.054016
v 137.824997 -47.529339 242.670990
v 35.811501 -176.827042 259.693970
v -82.239304 165.472961 272.830017
vn -0.0648 -0.8682 0.4919
vn -0.0246 -0.8287 0.5591
vn 0.2019 -0.4801 0.8536
vn 0.3178 -0.6481 0.6921
vn 0.2092 -0.4295 0.8785
vn 0.2003 -0.4047 0.8923
vn 0.1051 -0.0403 0.9936
vn 0.0977 -0.1367 0.9858
vn 0.1051 -0.0849 0.9908
vn 0.0464 -0.0388 0.9982
vn 0.0256 -0.7038 0.7099
vn -0.1743 -0.5854 0.7918
vn -0.0708 0.0584 0.9958
vn -0.4026 -0.6596 0.6347
vn 0.0042 0.0544 0.9985
vn 0.0123 -0.8289 0.5593
vn -0.0212 -0.8034 0.5950
vn -0.0186 -0.7245 0.6891
vn 0.2100 -0.6418 0.7376
vn 0.0879 -0.6323 0.7697
vn -0.0037 -0.7188 0.6952
vn 0.0275 -0.7269 0.6862
vn -0.0830 -0.6612 0.7456
vn 0.0092 -0.7007 0.7134
vn -0.1133 -0.7287 0.6754
vn 0.0379 -0.5812 0.8129
vn -0.0346 -0.7149 0.6984
vn 0.0088 -0.7300 0.6834
vn -0.3167 -0.0990 0.9434
vn 0.1224 -0.4788 0.8694
vn 0.1094 -0.4654 0.8783
vn 0.2311 -0.4619 0.8563
vn 0.1063 -0.4637 0.8796
vn 0.1208 -0.4703 0.8742
vn 0.2062 -0.4747 0.8557
vn -0.0489 -0.8626 0.5035
vn -0.0652 -0.9018 0.4273
vn 0.2119 -0.4387 0.8733
vn 0.1283 -0.3207 0.9385
vn 0.1130 -0.2664 0.9572
vn 0.1933 -0.4128 0.8901
vn 0.3505 -0.3391 0.8730
vn 0.1358 -0.4008 0.9060
vn 0.0871 -0.3284 0.9405
vn 0.3280 -0.2148 0.9200
vn -0.1285 -0.7605 0.6365
vn 0.0819 -0.2805 0.9564
vn 0.1769 -0.0897 0.9801
vn 0.0918 -0.0835 0.9923
vn 0.0916 -0.0855 0.9921
vn 0.0757 -0.0953 0.9926
vn 0.0795 -0.0876 0.9930
vn -0.2323 0.3476 0.9084
vn 0.0899 -0.0829 0.9925
vn 0.0431 -0.0832 0.9956
vn 0.0414 -0.0487 0.9980
vn 0.0623 -0.1437 0.9877
vn 0.0106 -0.0386 0.9992
vn 0.0081 -0.0884 0.9961
vn 0.0025 -0.0458 0.9989
vn -0.2109 0.1677 0.9630
vn -0.5033 0.3656 0.7829
vn -0.0155 -0.0933 0.9955
vn -0.0006 -0.0453 0.9990
vn 0.0298 -0.0695 0.9971
vn 0.0470 -0.1022 0.9936
vn 0.0413 -0.0834 0.9957
vn 0.0442 -0.0298 0.9986
vn -0.0678 0.0824 0.9943
vn 0.0033 0.0269 0.9996
vn 0.0306 0.0118 0.9995
vn 0.0392 -0.0235 0.9990
vn -0.2365 -0.2343 0.9430
vn 0.0052 -0.0137 0.9999
vn 0.0072 -0.0041 1.0000
vn -0.4322 -0.1219 0.8935
vn -0.0575 -0.0440 0.9974
vn 0.0162 -0.0431 0.9989
vn 0.0249 0.0292 0.9993
vn -0.0050 -0.0485 0.9988
vn 0.0127 -0.0358 0.9993
vn 0.0113 -0.0490 0.9987
vn 0.0113 0.0534 0.9985
vn 0.0315 0.0346 0.9989
vn -0.0031 -0.0006 1.0000
vn 0.0563 0.0444 0.9974
vn 0.0637 0.0227 0.9977
vn 0.0446 0.0082 0.9990
vn -0.0084 0.0009 1.0000
vn 0.0402 0.0333 0.9986
vn 0.0187 0.0086 0.9998
vn 0.0062 0.0281 0.9996
vn 0.0370 0.0738 0.9966
vn 0.0123 0.0478 0.9988
vn 0.0435 -0.0550 0.9975
vn 0.0555 0.0493 0.9972
vn 0.1007 0.1112 0.9887
vn 0.0983 0.0658 0.9930
vn 0.1873 0.1563 0.9698
vn 0.1282 0.1692 0.9772
vn 0.0847 0.1402 0.9865
vn 0.0802 0.1256 0.9888
vn 0.1285 0.1174 0.9847
vn 0.0803 0.1252 0.9889
vn -0.0980 -0.8542 0.5106
vn 0.0284 0.0358 0.9990
vn 0.0635 0.0336 0.9974
vn 0.1314 0.1515 0.9797
vn -0.1859 -0.6999 0.6896
vn -0.1582 -0.8316 0.5324
vn 0.1082 -0.0987 0.9892
vn 0.3370 -0.4662 0.8180
vn 0.1849 -0.2516 0.9500
vn 0.1265 -0.1917 0.9733
vn -0.0056 0.0360 0.9993
vn -0.0512 -0.0639 0.9966
vn -0.2567 -0.0440 0.9655
vn 0.0914 0.0380 0.9951
vn 0.0498 -0.8067 0.5889
vn 0.0826 0.2521 0.9642
vn 0.3381 -0.2986 0.8925
vn 0.0455 -0.0589 0.9972
vn 0.1301 0.1205 0.9842
vn -0.8936 -0.0596 0.4448
vn 0.0164 -0.7221 0.6916
vn 0.0911 -0.0847 0.9922
vn 0.2607 -0.0651 0.9632
vn 0.0393 0.0247 0.9989
vn 0.0030 0.0145 0.9999
vn 0.2037 -0.4920 0.8464
vn -0.0035 -0.0003 1.0000
vn 0.1608 -0.4037 0.9007
vn -0.0092 -0.0485 0.9988
vn -0.0321 -0.5017 0.8645
vn 0.2391 -0.2731 0.9318
vn 0.0330 -0.0745 0.9967
vn 0.0995 -0.1195 0.9878
vn 0.0053 0.0548 0.9985
vn -0.8405 -0.1030 0.5319
vn -0.1267 -0.9042 0.4078
vn 0.1226 -0.1080 0.9866
vn 0.0783 -0.0878 0.9931
vn 0.0486 0.0599 0.9970
vn 0.1905 -0.4581 0.8683
vn 0.0464 -0.0803 0.9957
vn 0.1518 -0.2199 0.9636
vn 0.5796 -0.6373 0.5078
vn 0.4315 -0.5200 0.7372
vn 0.0302 -0.0676 0.9973
vn 0.0922 0.1417 0.9856
vn 0.0933 0.2175 0.9716
vn 0.0035 0.0699 0.9975
vn 0.0343 -0.1042 0.9940
vn 0.0025 -0.0371 0.9993
vn -0.0102 0.0712 0.9974
vn 0.0362 -0.0754 0.9965
vn 0.0463 -0.0584 0.9972
vn 0.0708 -0.5216 0.8503
vn 0.0868 -0.2826 0.9553
usemtl None
s off
f 1//1 2//1 3//1
f 1//2 3//2 4//2
f 5//3 7//3 6//3
f 6//4 9//4 8//4
f 5//5 10//5 7//5
f 11//6 7//6 12//6
f 13//7 14//7 15//7
f 13//8 15//8 16//8
f 17//9 15//9 18//9
f 19//10 21//10 20//10
f 22//11 23//11 24//11
f 22//12 24//12 25//12
f 26//13 28//13 27//13
f 29//14 4//14 30//14
f 27//15 28//15 31//15
f 29//16 32//16 1//16
f 29//17 1//17 4//17
f 29//18 33//18 32//18
f 8//19 34//19 6//19
f 23//20 35//20 8//20
f 36//21 24//21 23//21
f 8//22 37//22 23//22
f 25//23 24//23 38//23
f 24//24 33//24 29//24
f 24//25 29//25 38//25
f 35//26 23//26 22//26
f 36//27 32//27 33//27
f 36//28 37//28 32//28
f 36//29 33//29 24//29
f 6//30 34//30 39//30
f 40//31 6//31 39//31
f 41//32 6//32 7//32
f 42//33 6//33 40//33
f 6//34 42//34 5//34
f 41//35 7//35 43//35
f 44//36 2//36 1//36
f 44//37 45//37 2//37
f 46//38 7//38 10//38
f 47//39 48//39 49//39
f 48//40 47//40 12//40
f 48//41 12//41 7//41
f 47//42 51//42 50//42
f 50//43 11//43 12//43
f 50//44 12//44 47//44
f 16//45 47//45 13//45
f 52//46 53//46 13//46
f 47//47 52//47 13//47
f 52//48 54//48 53//48
f 55//49 17//49 56//49
f 17//50 55//50 57//50
f 58//51 17//51 18//51
f 55//52 59//52 57//52
f 58//53 18//53 60//53
f 56//54 58//54 61//54
f 61//55 62//55 56//55
f 63//56 64//56 59//56
f 65//57 61//57 58//57
f 64//58 66//58 67//58
f 66//59 64//59 63//59
f 66//60 63//60 68//60
f 66//61 68//61 69//61
f 70//62 66//62 69//62
f 71//63 67//63 66//63
f 72//64 66//64 73//64
f 71//65 66//65 74//65
f 71//66 20//66 75//66
f 21//67 75//67 20//67
f 76//68 21//68 77//68
f 78//69 80//69 79//69
f 79//70 76//70 78//70
f 78//71 76//71 77//71
f 21//72 19//72 77//72
f 78//73 81//73 82//73
f 78//74 82//74 83//74
f 78//75 83//75 80//75
f 84//76 80//76 83//76
f 84//77 83//77 85//77
f 82//78 86//78 83//78
f 82//79 87//79 86//79
f 88//80 89//80 86//80
f 85//81 83//81 89//81
f 86//82 89//82 83//82
f 90//83 86//83 87//83
f 86//84 90//84 91//84
f 92//85 93//85 86//85
f 93//86 95//86 94//86
f 96//87 95//87 93//87
f 96//88 93//88 97//88
f 93//89 98//89 97//89
f 95//90 96//90 26//90
f 27//91 95//91 26//91
f 27//92 99//92 100//92
f 27//93 101//93 99//93
f 27//94 100//94 102//94
f 103//95 27//95 102//95
f 104//96 102//96 100//96
f 103//97 102//97 105//97
f 104//98 106//98 102//98
f 102//99 107//99 105//99
f 102//100 108//100 107//100
f 107//101 108//101 109//101
f 107//102 109//102 110//102
f 111//103 110//103 109//103
f 110//104 112//104 107//104
f 113//105 2//105 45//105
f 114//106 86//106 91//106
f 114//107 115//107 86//107
f 108//108 102//108 116//108
f 117//109 52//109 49//109
f 53//110 118//110 13//110
f 119//111 18//111 15//111
f 120//112 121//112 68//112
f 122//113 120//113 68//113
f 123//114 68//114 121//114
f 68//115 124//115 122//115
f 125//116 20//116 74//116
f 19//117 126//117 127//117
f 78//118 77//118 128//118
f 129//119 29//119 30//119
f 130//120 112//120 131//120
f 51//121 47//121 16//121
f 68//122 63//122 59//122
f 102//123 106//123 116//123
f 126//124 19//124 20//124
f 36//125 23//125 37//125
f 58//126 56//126 17//126
f 16//127 15//127 17//127
f 92//128 86//128 115//128
f 93//129 88//129 86//129
f 41//130 9//130 6//130
f 92//131 98//131 93//131
f 46//132 48//132 7//132
f 132//133 69//133 68//133
f 48//134 133//134 49//134
f 60//135 119//135 58//135
f 60//136 18//136 119//136
f 65//137 58//137 119//137
f 31//138 101//138 27//138
f 134//139 19//139 127//139
f 113//140 45//140 135//140
f 136//141 66//141 72//141
f 136//142 74//142 66//142
f 94//143 88//143 93//143
f 43//144 7//144 11//144
f 137//145 56//145 62//145
f 123//146 138//146 68//146
f 139//147 138//147 123//147
f 132//148 68//148 138//148
f 71//149 74//149 20//149
f 140//150 112//150 110//150
f 140//151 131//151 112//151
f 141//152 26//152 96//152
f 137//153 68//153 56//153
f 68//154 137//154 142//154
f 141//155 28//155 26//155
f 55//156 56//156 68//156
f 55//157 68//157 59//157
f 34//158 8//158 35//158
f 52//159 47//159 49//159
