# Blender v2.79 (sub 0) OBJ File: ''
# www.blender.org
mtllib my_crack_surf__55.mtl
o my_crack_surf__55
v 129.350006 4.903787 143.684998
v 161.768997 12.468676 153.356995
v 146.901993 18.906174 159.240005
v 130.278000 -6.461021 127.747002
v 139.169006 -15.305418 113.240997
v 146.483994 -11.733119 119.629997
v 153.274994 -4.643461 131.123993
v 129.431000 96.858559 217.046021
v 107.446999 138.007950 242.476013
v 111.429001 69.826973 206.467010
v 0.220573 175.747955 268.481018
v 30.232201 163.113953 263.228027
v 25.280500 175.136948 265.495026
v 116.240997 55.292168 196.329010
v 137.363998 51.797768 189.079010
v 118.508003 43.763771 184.712997
v -105.228996 100.688957 270.454041
v -131.845001 106.704956 269.391022
v -121.060997 121.763954 270.802032
v 136.270004 62.050369 196.460022
v 163.727005 48.687271 183.924011
v 129.197006 19.691072 159.669998
v 156.132996 16.709576 156.656998
v 165.089005 30.206671 169.789001
v 152.848007 82.031769 205.247009
v 141.789001 90.883865 211.180008
v 132.934006 113.439964 223.817017
v 77.074402 101.124962 233.584015
v 65.946800 112.736961 242.206009
v 70.538002 162.368958 257.192017
v 24.799000 127.155952 259.591034
v 57.400700 116.727959 246.468018
v 58.633499 168.133957 261.431030
v -41.432999 123.702957 268.372040
v 7.233110 130.521957 263.965027
v -59.257999 115.819954 269.208038
v -51.412998 170.497955 271.771027
v -30.120899 174.142960 271.117035
v -34.743099 169.662949 270.964020
v -105.776001 136.620956 271.648041
v -110.556999 69.275253 268.584991
v -98.540298 85.504753 269.502991
v -148.416000 75.183655 267.497986
v -137.460007 95.385956 267.724030
v -143.658005 88.775055 267.587006
v -151.656006 13.572357 263.757996
v -153.757004 25.600857 264.231995
v -130.936005 12.453857 262.947998
v -128.255997 23.450058 263.223999
v -129.559998 -7.892922 261.457001
v -146.494003 0.567791 262.415985
v -82.624397 155.806961 272.940033
v -59.720798 167.973953 272.283020
v 88.161201 153.044952 253.256027
v 158.563004 71.266571 198.410019
v -119.407997 48.737759 266.042999
v -154.261993 54.787060 265.666992
v -132.546005 39.823757 264.389008
v 159.733994 6.597606 145.975998
v 124.877998 121.604965 230.016022
v 130.233994 -17.422817 108.264999
v -75.920502 160.636948 273.199036
v 98.046700 145.653961 247.940033
vn -0.0383 -0.7208 0.6921
vn -0.0247 -0.8602 0.5093
vn -0.0107 -0.8482 0.5295
vn 0.1654 -0.4530 0.8760
vn 0.1138 -0.1386 0.9838
vn 0.2098 -0.4887 0.8469
vn 0.1298 -0.6910 0.7111
vn -0.0524 -0.0559 0.9971
vn -0.0207 -0.8146 0.5797
vn -0.7333 -0.4470 0.5123
vn 0.0910 -0.5754 0.8128
vn -0.0119 -0.6737 0.7389
vn 0.0295 -0.7070 0.7066
vn 0.1182 -0.5072 0.8537
vn -0.0161 -0.7341 0.6789
vn -0.0102 -0.6735 0.7391
vn 0.1278 -0.4862 0.8645
vn 0.3498 -0.1793 0.9195
vn 0.2227 -0.4085 0.8852
vn 0.2468 -0.4106 0.8778
vn 0.2786 -0.4357 0.8559
vn 0.2466 -0.4143 0.8761
vn 0.2744 -0.2941 0.9155
vn 0.1284 -0.4017 0.9067
vn 0.1448 -0.1212 0.9820
vn 0.0964 -0.0456 0.9943
vn -0.0538 0.2248 0.9729
vn 0.0984 -0.0607 0.9933
vn 0.0947 -0.1821 0.9787
vn 0.1031 -0.1400 0.9848
vn -0.0227 -0.0335 0.9992
vn 0.0051 -0.0603 0.9982
vn -0.0241 0.0019 0.9997
vn -0.0281 0.0040 0.9996
vn 0.0373 -0.0328 0.9988
vn 0.0366 -0.0340 0.9988
vn 0.0207 -0.0717 0.9972
vn 0.0341 -0.0892 0.9954
vn -0.0722 -0.6705 0.7384
vn 0.1136 -0.4513 0.8851
vn 0.0483 -0.0648 0.9967
vn 0.0887 -0.1492 0.9848
vn 0.2159 -0.1305 0.9676
vn 0.0595 -0.0582 0.9965
vn 0.0829 -0.2505 0.9646
vn 0.2253 -0.3600 0.9053
vn 0.0416 -0.0442 0.9982
vn 0.0789 -0.0580 0.9952
vn -0.0279 -0.0336 0.9990
vn 0.1244 -0.4841 0.8661
vn -0.0250 -0.0823 0.9963
vn -0.0447 -0.1037 0.9936
vn 0.5558 -0.8295 0.0556
vn 0.2551 -0.4949 0.8307
vn -0.0011 -0.7971 0.6038
vn -0.0034 -0.7822 0.6231
vn 0.2452 -0.4121 0.8775
vn -0.0194 -0.0494 0.9986
vn 0.0043 -0.6020 0.7985
vn -0.0665 -0.8695 0.4894
vn 0.0844 -0.6014 0.7945
vn 0.0442 -0.0796 0.9958
vn 0.0342 -0.0620 0.9975
vn -0.0655 -0.0879 0.9940
vn 0.2009 -0.3283 0.9230
vn -0.0125 -0.8124 0.5830
vn 0.0358 -0.5516 0.8333
vn 0.1377 -0.5123 0.8477
vn -0.0768 -0.0462 0.9960
vn -0.0653 -0.1136 0.9914
vn 0.1273 -0.6874 0.7151
usemtl None
s off
f 1//1 2//1 3//1
f 4//2 5//2 6//2
f 4//3 6//3 7//3
f 8//4 9//4 10//4
f 11//5 12//5 13//5
f 8//6 14//6 15//6
f 14//7 16//7 15//7
f 17//8 19//8 18//8
f 7//9 1//9 4//9
f 20//10 8//10 15//10
f 20//11 15//11 21//11
f 15//12 22//12 3//12
f 23//13 24//13 3//13
f 23//14 3//14 2//14
f 1//15 3//15 22//15
f 15//16 3//16 24//16
f 8//17 20//17 25//17
f 8//18 25//18 26//18
f 26//19 27//19 8//19
f 27//20 9//20 8//20
f 28//21 10//21 9//21
f 28//22 9//22 29//22
f 30//23 31//23 32//23
f 30//24 33//24 12//24
f 30//25 12//25 31//25
f 12//26 34//26 35//26
f 12//27 36//27 34//27
f 37//28 36//28 12//28
f 12//29 11//29 38//29
f 39//30 12//30 38//30
f 40//31 19//31 17//31
f 41//32 42//32 17//32
f 43//33 44//33 45//33
f 44//34 43//34 41//34
f 46//35 48//35 47//35
f 47//36 48//36 49//36
f 50//37 48//37 51//37
f 51//38 48//38 46//38
f 2//39 24//39 23//39
f 27//40 26//40 25//40
f 52//41 17//41 36//41
f 33//42 13//42 12//42
f 31//43 12//43 35//43
f 36//44 53//44 52//44
f 54//45 30//45 32//45
f 54//46 32//46 9//46
f 17//47 42//47 36//47
f 53//48 36//48 37//48
f 17//49 52//49 40//49
f 55//50 25//50 20//50
f 56//51 43//51 57//51
f 43//52 56//52 41//52
f 56//53 47//53 58//53
f 10//54 14//54 8//54
f 7//55 59//55 1//55
f 59//56 2//56 1//56
f 29//57 9//57 32//57
f 56//58 57//58 47//58
f 27//59 60//59 9//59
f 61//60 5//60 4//60
f 21//61 15//61 24//61
f 37//62 39//62 38//62
f 47//63 49//63 58//63
f 56//64 58//64 49//64
f 62//65 52//65 53//65
f 37//66 12//66 39//66
f 54//67 9//67 63//67
f 55//68 20//68 21//68
f 44//69 41//69 17//69
f 44//70 17//70 18//70
f 15//71 16//71 22//71
