# Blender v2.79 (sub 0) OBJ File: ''
# www.blender.org
mtllib my_crack_surf__138.mtl
o my_crack_surf__138
v 130.274002 -9.394600 120.088997
v 139.819000 -19.417618 102.151001
v 154.294006 -11.971019 117.211998
v 149.787994 -15.587419 110.168999
v 137.968994 4.836907 141.095993
v 165.779007 4.162037 141.302994
v 161.957993 -2.046582 132.059006
v 167.106003 9.153956 147.699005
v 163.753998 0.514851 136.343002
v 124.742996 60.527168 197.234009
v 118.480003 43.868370 184.707993
v 116.240997 55.292168 196.329010
v 64.025200 114.543961 241.643021
v 66.078903 128.728958 247.388016
v 88.613197 112.866959 235.306015
v 7.233110 130.521957 263.965027
v 35.259399 150.530960 259.323029
v 23.546700 127.248955 258.632019
v 13.895800 161.207947 265.412018
v 3.743970 147.173950 266.253021
v -7.535030 183.903961 270.233032
v -22.801100 183.940948 271.812042
v -2.723380 182.942947 269.566040
v -12.347200 184.031952 270.839020
v 7.059900 182.901947 268.515045
v -21.092501 -128.025040 260.038971
v -71.172203 -165.898041 261.195984
v -65.860199 -174.069046 262.226959
v 39.310200 -139.476044 257.200958
v 0.000000 -131.500046 258.825958
v -41.134300 -165.136047 260.451965
v 4.991060 -181.884048 260.404968
v 43.138000 -179.663040 259.986969
v 66.611801 -171.511047 260.130981
v 89.170998 -163.804047 258.945984
v 107.078003 -143.871048 257.491974
v 78.990303 -120.953041 256.939972
v 89.983902 -113.654037 256.062958
v 71.303101 -107.292038 256.947968
v 144.005997 36.006172 175.233002
v 153.328003 40.735771 177.406998
v 168.298996 35.936874 173.274002
v 148.162994 26.636574 165.498001
v 169.729004 26.931173 166.350006
v 112.474998 66.662666 203.801010
v 148.225998 102.120964 216.293015
v 129.147003 20.197372 159.070007
v 156.688004 21.369473 159.843994
v 168.406998 15.852574 155.223999
v 129.294998 5.463787 143.020996
v 101.971001 78.446861 213.021011
v 75.565804 102.506966 232.704010
v 125.386002 129.670959 234.760010
v 164.839996 71.497269 198.573013
v 160.384003 82.022469 204.358017
v 130.031006 -17.822218 103.896004
v 107.046997 149.246948 247.075027
v 70.589104 173.184952 259.677032
v 52.405701 133.660950 249.935013
v 50.637798 119.304962 245.320023
v 37.933498 123.655960 251.700012
v 61.088001 139.078949 250.726013
v 29.646700 132.817947 257.758026
v 5.475160 138.860947 265.023041
v -41.812500 123.699951 267.811035
v 42.978199 174.597961 263.551025
v 42.580101 180.949951 264.644043
v 58.470501 177.155960 262.098022
v -67.215401 176.183960 273.245026
v 21.385201 183.289948 267.152039
v -58.999199 116.094955 268.491028
v -35.806301 183.395950 272.703033
v -27.907900 183.781952 272.234039
v -90.530899 165.136948 273.564026
v -98.264801 161.128952 273.766022
v -105.620003 155.154953 273.525024
v -98.245300 85.818954 268.684998
v -143.371002 33.034557 264.976013
v -113.192001 65.724251 268.144989
v -143.552002 118.135956 271.439026
v -125.193001 135.066956 272.514038
v -162.960007 95.561653 269.886017
v -173.078003 77.419952 269.045013
v -144.477997 -14.352242 261.553009
v -123.263000 37.960659 265.429993
v -127.900002 24.635656 264.131012
v -130.757996 13.797857 263.178009
v -179.369995 64.199951 268.186005
v -157.102005 -10.369643 262.362000
v -186.121002 -2.022043 264.087006
v -127.957001 -30.291342 260.596985
v -129.240005 -8.058403 261.295013
v -123.099998 -41.409943 260.755005
v -178.834000 -69.829643 262.631012
v -113.346001 -63.433144 262.868011
v -188.190994 -29.380442 263.330994
v -183.197998 -55.568142 262.764008
v -82.462502 -119.451042 260.580963
v -108.404999 -74.428749 262.653015
v -129.653000 -128.727051 262.195984
v -153.134003 -108.744049 262.337982
v -110.271004 -148.296051 262.244965
v -42.049301 -124.596046 260.465973
v -82.023598 -102.782043 261.324982
v -98.703400 -157.963043 262.262970
v 24.629601 -126.713036 257.264984
v 49.053699 -122.007042 256.833984
v 116.678001 -134.271042 256.066956
v 125.085999 -98.496735 251.029984
v 82.493698 -99.783440 255.932983
v 93.656502 -92.302238 253.882980
v 106.842003 -100.530037 253.646988
v 122.717003 -47.150539 243.298981
v 150.557999 -85.900139 247.859985
v 160.544998 -51.295437 241.614990
v 154.395996 -75.702538 246.142990
v 153.804001 -8.388548 233.145004
v 129.701004 2.317812 232.184006
v 130.410995 11.845862 229.115997
v 139.382996 6.546872 230.369995
v -85.323898 -165.721039 261.734955
v 170.658997 35.582573 173.404007
v 171.584000 51.461670 185.240021
v 167.945007 12.947175 151.837997
v -184.987000 45.794456 267.328003
v -183.507996 53.472458 267.769012
v -15.491700 -183.382050 261.261963
v -33.314999 -182.569046 261.594971
v 160.766998 -27.810537 237.188004
v -155.822006 105.416954 270.416016
v 129.072998 -22.262714 95.193802
v 75.385902 -167.319046 259.823975
v 115.091003 140.977951 242.335037
v -185.240005 9.434447 264.722992
v -47.744900 -179.622040 261.761963
v 96.733704 157.377960 251.908035
v -84.080597 169.491959 273.470032
v -185.912994 30.409456 266.240997
v 26.197701 -181.163040 260.353973
v -156.634003 -104.137047 262.331970
v -164.949997 -92.769943 262.329010
v 76.303398 169.884949 258.180023
v 85.546700 164.516953 255.582031
v 139.216995 -106.742035 251.485977
v 153.423004 95.151360 212.444016
v 162.072998 -38.004940 239.242996
v -48.810501 181.469955 272.938019
vn -0.0379 -0.8808 0.4720
vn -0.0518 -0.8745 0.4822
vn -0.0242 -0.8252 0.5643
vn -0.0237 -0.7857 0.6181
vn -0.9037 -0.0722 0.4220
vn 0.3222 -0.6433 0.6945
vn 0.2043 -0.3927 0.8967
vn 0.2759 -0.1669 0.9466
vn 0.2242 -0.1041 0.9690
vn 0.1019 -0.1137 0.9883
vn 0.1171 -0.0993 0.9881
vn 0.0739 -0.6793 0.7301
vn 0.1057 -0.1081 0.9885
vn -0.0482 0.0941 0.9944
vn 0.0409 -0.0018 0.9992
vn 0.0219 0.0576 0.9981
vn -0.0292 0.0664 0.9974
vn 0.0230 0.0522 0.9984
vn 0.0582 0.0322 0.9978
vn 0.1140 -0.5916 0.7981
vn 0.0036 -0.6460 0.7633
vn -0.0229 -0.6116 0.7908
vn -0.0243 -0.8253 0.5642
vn 0.1064 -0.6228 0.7751
vn 0.2011 -0.4996 0.8426
vn 0.2250 -0.5080 0.8315
vn 0.1728 -0.6717 0.7203
vn 0.4877 -0.5308 0.6930
vn -0.0599 -0.7319 0.6788
vn -0.2185 -0.8562 0.4681
vn 0.0765 -0.6694 0.7389
vn -0.0827 -0.7372 0.6706
vn -0.0441 -0.7358 0.6758
vn 0.0604 -0.8365 0.5446
vn -0.0206 -0.8242 0.5659
vn 0.0965 -0.7328 0.6736
vn 0.1922 -0.4927 0.8487
vn 0.1862 -0.4821 0.8561
vn 0.2059 -0.4743 0.8560
vn 0.2057 -0.4215 0.8832
vn -0.1457 -0.5232 0.8397
vn -0.0620 -0.8850 0.4615
vn 0.1909 -0.3884 0.9015
vn 0.1461 -0.2773 0.9496
vn 0.2038 -0.3933 0.8965
vn 0.3330 -0.3255 0.8850
vn 0.1137 -0.3870 0.9150
vn 0.0638 -0.3125 0.9478
vn 0.0757 -0.2728 0.9591
vn 0.0812 -0.2702 0.9594
vn 0.3197 -0.3042 0.8974
vn 0.2858 -0.5704 0.7700
vn 0.2461 -0.1624 0.9556
vn 0.2236 -0.0969 0.9699
vn 0.2167 -0.0778 0.9731
vn 0.0985 -0.1256 0.9872
vn 0.0924 -0.1061 0.9900
vn 0.2750 -0.0507 0.9601
vn 0.4756 0.5690 0.6708
vn 0.0588 -0.3124 0.9481
vn 0.0980 -0.1628 0.9818
vn 0.0996 -0.2785 0.9553
vn 0.0697 -0.0693 0.9952
vn 0.0979 -0.1655 0.9813
vn 0.0700 -0.0692 0.9951
vn 0.1444 -0.0452 0.9885
vn 0.0461 -0.1262 0.9909
vn 0.0747 -0.7931 0.6046
vn 0.0721 -0.0980 0.9926
vn 0.0596 -0.0647 0.9961
vn 0.0364 -0.0849 0.9957
vn -0.3533 0.2385 0.9046
vn 0.0066 -0.0757 0.9971
vn 0.0323 -0.0982 0.9946
vn 0.0368 -0.0668 0.9971
vn -0.0049 -0.0719 0.9974
vn 0.3674 -0.2160 0.9046
vn 0.1328 -0.1215 0.9837
vn 0.0260 -0.0726 0.9970
vn 0.0434 -0.0649 0.9969
vn 0.0403 -0.0658 0.9970
vn 0.0292 -0.0297 0.9991
vn 0.0669 0.0096 0.9977
vn 0.0995 0.0576 0.9934
vn -0.0124 0.0901 0.9959
vn 0.0503 -0.0314 0.9982
vn 0.0385 -0.0096 0.9992
vn 0.0397 -0.0141 0.9991
vn 0.0206 -0.0030 0.9998
vn -0.0034 -0.0480 0.9988
vn -0.0016 -0.0203 0.9998
vn -0.0008 -0.0081 1.0000
vn -0.0634 -0.0603 0.9962
vn 0.0340 0.0248 0.9991
vn -0.0028 -0.0445 0.9990
vn 0.0023 -0.0447 0.9990
vn 0.0258 0.0328 0.9991
vn 0.0457 0.0243 0.9987
vn 0.0111 0.0159 0.9998
vn 0.0544 -0.0183 0.9984
vn 0.0152 0.0125 0.9998
vn -0.0301 0.0378 0.9988
vn 0.0054 0.0025 1.0000
vn 0.0667 0.1237 0.9901
vn 0.0555 0.0920 0.9942
vn 0.2447 -0.2562 0.9351
vn 0.0618 0.0427 0.9972
vn 0.1287 0.0788 0.9885
vn 0.0732 0.0888 0.9934
vn 0.0483 0.1509 0.9874
vn -0.1334 0.2132 0.9679
vn 0.0658 0.2032 0.9769
vn 0.0550 0.2115 0.9758
vn 0.0460 0.3031 0.9519
vn 0.0380 -0.0024 0.9993
vn -0.1354 -0.6173 0.7750
vn -0.0263 -0.5599 0.8281
vn 0.5785 -0.6563 0.4843
vn 0.1185 -0.1612 0.9798
vn 0.0954 -0.0754 0.9926
vn 0.0221 0.0753 0.9969
vn 0.0215 -0.7402 0.6720
vn 0.0361 -0.0853 0.9957
vn -0.1567 -0.8782 0.4519
vn 0.0074 -0.5979 0.8015
vn 0.0395 0.1503 0.9878
vn 0.0838 -0.0342 0.9959
vn -0.0524 0.1855 0.9813
vn 0.0232 -0.0758 0.9968
vn 0.0238 -0.0709 0.9972
vn -0.0626 -0.8862 0.4591
vn -0.0183 -0.7074 0.7066
vn 0.1420 -0.0002 0.9899
vn 0.1921 -0.4597 0.8670
vn 0.0721 0.2491 0.9658
vn 0.0295 0.1316 0.9909
vn -0.0527 -0.4341 0.8993
vn 0.0015 -0.0979 0.9952
vn 0.0348 0.0931 0.9950
vn -0.5576 -0.7484 0.3592
vn -0.2469 -0.0348 0.9684
vn 0.0467 0.0688 0.9965
vn 0.0274 0.0776 0.9966
vn -0.1915 -0.6695 0.7177
vn 0.0586 -0.0653 0.9961
vn 0.0339 -0.0376 0.9987
vn 0.0653 -0.0699 0.9954
vn 0.0614 0.1601 0.9852
vn -0.0090 0.3329 0.9429
vn 0.0069 0.0698 0.9975
vn -0.0371 -0.0269 0.9990
vn -0.1013 -0.0743 0.9921
vn -0.0062 0.0859 0.9963
vn -0.0046 -0.0757 0.9971
vn 0.2958 -0.1767 0.9388
vn 0.0423 -0.0731 0.9964
vn -0.4652 -0.8727 0.1483
vn 0.2099 -0.4874 0.8476
vn 0.3656 -0.2602 0.8937
vn 0.0435 0.1293 0.9907
vn 0.1235 0.1533 0.9804
vn 0.1149 0.1560 0.9810
vn -0.1911 -0.6692 0.7181
vn -0.0137 0.0435 0.9990
vn -0.0442 -0.5408 0.8400
vn -0.1025 -0.5384 0.8364
vn -0.0930 0.1853 0.9783
vn 0.0973 -0.0760 0.9923
vn 0.0519 0.1437 0.9883
vn 0.0195 -0.0100 0.9998
vn 0.1347 -0.2750 0.9519
vn 0.0524 0.0553 0.9971
vn 0.0508 -0.0822 0.9953
usemtl None
s off
f 1//1 2//1 3//1
f 3//2 2//2 4//2
f 5//3 7//3 6//3
f 5//4 6//4 8//4
f 9//5 6//5 7//5
f 10//6 12//6 11//6
f 13//7 15//7 14//7
f 16//8 18//8 17//8
f 17//9 19//9 20//9
f 21//10 22//10 19//10
f 21//11 19//11 23//11
f 22//12 21//12 24//12
f 19//13 25//13 23//13
f 26//14 27//14 28//14
f 29//15 30//15 31//15
f 29//16 31//16 32//16
f 29//17 33//17 34//17
f 35//18 36//18 37//18
f 38//19 39//19 37//19
f 40//20 41//20 11//20
f 42//21 41//21 43//21
f 42//22 43//22 44//22
f 5//23 3//23 7//23
f 10//24 11//24 41//24
f 10//25 46//25 45//25
f 41//26 46//26 10//26
f 40//27 43//27 41//27
f 5//28 11//28 47//28
f 5//29 43//29 40//29
f 48//30 49//30 43//30
f 48//31 43//31 8//31
f 48//32 8//32 49//32
f 5//33 8//33 43//33
f 1//34 5//34 50//34
f 5//35 1//35 3//35
f 47//36 50//36 5//36
f 45//37 46//37 51//37
f 51//38 46//38 15//38
f 51//39 15//39 52//39
f 53//40 15//40 46//40
f 54//41 55//41 41//41
f 1//42 56//42 2//42
f 57//43 15//43 53//43
f 57//44 58//44 14//44
f 57//45 14//45 15//45
f 59//46 61//46 60//46
f 60//47 13//47 14//47
f 60//48 14//48 59//48
f 62//49 14//49 58//49
f 62//50 59//50 14//50
f 59//51 63//51 61//51
f 59//52 62//52 63//52
f 17//53 63//53 62//53
f 17//54 20//54 64//54
f 64//55 16//55 17//55
f 65//56 64//56 20//56
f 64//57 65//57 16//57
f 19//58 62//58 25//58
f 19//59 17//59 62//59
f 25//60 62//60 66//60
f 67//61 25//61 66//61
f 58//62 68//62 62//62
f 69//63 65//63 20//63
f 67//64 70//64 25//64
f 65//65 69//65 71//65
f 20//66 19//66 22//66
f 69//67 20//67 72//67
f 22//68 73//68 72//68
f 22//69 72//69 20//69
f 71//70 74//70 75//70
f 76//71 71//71 75//71
f 77//72 78//72 79//72
f 80//73 78//73 77//73
f 71//74 81//74 80//74
f 78//75 82//75 83//75
f 84//76 85//76 78//76
f 85//77 84//77 86//77
f 87//78 86//78 84//78
f 78//79 88//79 84//79
f 89//80 84//80 88//80
f 88//81 90//81 89//81
f 91//82 92//82 84//82
f 91//83 84//83 89//83
f 93//84 91//84 89//84
f 94//85 95//85 93//85
f 90//86 96//86 89//86
f 93//87 89//87 94//87
f 89//88 96//88 97//88
f 94//89 89//89 97//89
f 98//90 99//90 94//90
f 95//91 94//91 99//91
f 100//92 94//92 101//92
f 100//93 102//93 94//93
f 98//94 94//94 102//94
f 103//95 104//95 98//95
f 99//96 98//96 104//96
f 98//97 102//97 105//97
f 98//98 105//98 27//98
f 98//99 27//99 26//99
f 26//100 31//100 30//100
f 106//101 29//101 107//101
f 29//102 39//102 107//102
f 39//103 29//103 37//103
f 108//104 109//104 37//104
f 108//105 37//105 36//105
f 109//106 38//106 37//106
f 110//107 39//107 38//107
f 110//108 38//108 111//108
f 112//109 111//109 38//109
f 113//110 109//110 114//110
f 115//111 114//111 116//111
f 113//112 115//112 117//112
f 118//113 113//113 117//113
f 118//114 120//114 119//114
f 121//115 27//115 105//115
f 44//116 122//116 42//116
f 54//117 41//117 123//117
f 124//118 49//118 8//118
f 67//119 66//119 68//119
f 125//120 88//120 126//120
f 127//121 31//121 128//121
f 5//122 40//122 11//122
f 76//123 81//123 71//123
f 42//124 122//124 41//124
f 123//125 41//125 122//125
f 27//126 121//126 28//126
f 31//127 26//127 28//127
f 117//128 115//128 129//128
f 88//129 78//129 83//129
f 82//130 78//130 130//130
f 2//131 56//131 131//131
f 44//132 43//132 49//132
f 112//133 38//133 109//133
f 52//134 15//134 13//134
f 117//135 120//135 118//135
f 29//136 132//136 35//136
f 98//137 26//137 103//137
f 78//138 85//138 79//138
f 127//139 32//139 31//139
f 57//140 53//140 133//140
f 88//141 134//141 90//141
f 135//142 31//142 28//142
f 135//143 128//143 31//143
f 58//144 57//144 136//144
f 71//145 137//145 74//145
f 80//146 77//146 71//146
f 138//147 134//147 88//147
f 113//148 114//148 115//148
f 33//149 32//149 139//149
f 29//150 32//150 33//150
f 140//151 101//151 141//151
f 141//152 101//152 94//152
f 34//153 132//153 29//153
f 80//154 130//154 78//154
f 17//155 18//155 63//155
f 69//156 137//156 71//156
f 142//157 58//157 143//157
f 45//158 12//158 10//158
f 18//159 61//159 63//159
f 144//160 109//160 108//160
f 113//161 112//161 109//161
f 112//162 113//162 111//162
f 58//163 136//163 143//163
f 29//164 35//164 37//164
f 41//165 55//165 145//165
f 145//166 46//166 41//166
f 129//167 115//167 146//167
f 138//168 88//168 125//168
f 144//169 114//169 109//169
f 69//170 72//170 147//170
f 68//171 66//171 62//171
f 106//172 30//172 29//172
f 84//173 92//173 87//173
