# Blender v2.79 (sub 0) OBJ File: ''
# www.blender.org
mtllib my_crack_surf__32.mtl
o my_crack_surf__32
v 74.107002 104.341965 237.228012
v 98.464302 81.633064 218.244019
v 139.298004 97.259659 214.887009
v 142.479004 38.928169 179.404007
v 153.016006 40.664669 177.153000
v 158.692993 50.359669 185.635010
v 152.692993 71.217667 199.980011
v 111.445999 69.803169 207.393021
v 162.186005 30.486771 170.923004
v 129.210999 19.540974 159.847000
v 118.626999 43.329971 184.735001
v 153.789993 -2.647512 134.841995
v 146.098007 -11.937519 119.813004
v 129.787003 -1.951392 136.587006
v 130.276993 -17.122917 108.876999
v 104.457001 125.491959 236.392014
v 64.816299 114.076965 244.479019
v 53.516499 133.175949 253.840012
v 81.907700 143.243958 248.486023
v 81.986504 150.968948 251.112030
v 103.967003 136.475952 241.507019
v 87.103699 140.841949 246.902023
v 69.194801 157.374954 255.492035
v 39.202499 122.894958 256.720032
v 39.125999 165.153961 261.938019
v 12.415900 167.139954 266.131042
v 29.503000 166.006958 264.068024
v -48.820702 147.278961 270.472015
v -43.369400 127.935951 270.063019
v -38.389900 124.189957 269.562042
v 7.233110 130.521957 263.965027
v -23.893101 161.161957 269.298035
v 118.325996 124.118965 231.271011
v -58.789700 128.684952 270.410034
v -57.126400 123.077957 269.952026
v -58.915298 116.940956 271.267029
v 158.451004 9.032186 149.804993
v 157.610992 5.110086 144.022995
vn 0.2443 -0.4542 0.8567
vn 0.2566 -0.7171 0.6480
vn 0.0695 -0.5516 0.8312
vn 0.1745 -0.4200 0.8906
vn 0.2491 -0.3324 0.9097
vn -0.0009 -0.7099 0.7043
vn 0.0528 -0.6410 0.7657
vn 0.0131 -0.8535 0.5209
vn -0.0439 -0.8766 0.4792
vn 0.0281 -0.7338 0.6788
vn 0.2549 -0.4867 0.8356
vn 0.2692 -0.3509 0.8969
vn 0.5736 -0.0610 0.8169
vn 0.2444 -0.3145 0.9173
vn 0.1207 -0.4146 0.9019
vn -0.0199 -0.5801 0.8143
vn 0.3888 -0.1792 0.9037
vn 0.1600 -0.3192 0.9341
vn 0.1378 -0.3200 0.9373
vn 0.3517 -0.2359 0.9059
vn 0.2762 -0.1173 0.9539
vn -0.0385 -0.9755 0.2166
vn 0.1069 0.0091 0.9942
vn 0.0985 -0.0727 0.9925
vn -0.1386 -0.6049 0.7842
vn 0.2837 -0.3944 0.8741
vn 0.0231 -0.7178 0.6959
vn 0.0188 -0.0759 0.9969
vn 0.0218 -0.0150 0.9997
vn 0.0883 -0.0158 0.9960
vn -0.0904 0.2338 0.9681
vn 0.1636 -0.1723 0.9713
vn 0.1645 -0.5666 0.8074
vn 0.4487 0.0603 0.8917
vn 0.4683 -0.7613 0.4484
vn 0.1921 -0.1199 0.9740
vn 0.1488 -0.0794 0.9857
vn 0.0551 -0.0145 0.9984
vn 0.2590 -0.2318 0.9376
vn 0.2836 -0.3186 0.9045
vn -0.0641 -0.7769 0.6264
vn -0.0069 -0.7009 0.7133
vn 0.3014 -0.3139 0.9004
vn 0.1275 -0.0429 0.9909
usemtl None
s off
f 1//1 2//1 3//1
f 4//2 5//2 6//2
f 4//3 6//3 7//3
f 7//4 3//4 8//4
f 4//5 9//5 5//5
f 9//6 4//6 10//6
f 11//7 4//7 8//7
f 12//8 14//8 13//8
f 13//9 14//9 15//9
f 10//10 14//10 12//10
f 2//11 8//11 3//11
f 16//12 1//12 3//12
f 17//13 1//13 18//13
f 16//14 19//14 1//14
f 20//15 16//15 21//15
f 22//16 19//16 16//16
f 22//17 16//17 20//17
f 19//18 20//18 23//18
f 22//19 20//19 19//19
f 17//20 18//20 24//20
f 18//21 25//21 24//21
f 25//22 27//22 26//22
f 28//23 29//23 30//23
f 26//24 32//24 31//24
f 6//25 5//25 9//25
f 33//26 21//26 16//26
f 10//27 4//27 11//27
f 34//28 35//28 29//28
f 34//29 29//29 28//29
f 29//30 36//30 30//30
f 29//31 35//31 36//31
f 18//32 23//32 25//32
f 4//33 7//33 8//33
f 34//34 36//34 35//34
f 37//35 12//35 38//35
f 24//36 25//36 31//36
f 25//37 26//37 31//37
f 32//38 28//38 30//38
f 19//39 23//39 18//39
f 19//40 18//40 1//40
f 10//41 12//41 37//41
f 37//42 9//42 10//42
f 16//43 3//43 33//43
f 30//44 31//44 32//44
