# Blender v2.79 (sub 0) OBJ File: ''
# www.blender.org
mtllib my_crack_surf__102.mtl
o my_crack_surf__102
v 130.261002 -17.789118 106.889000
v 144.770004 -16.196218 111.233002
v 151.264008 -12.322619 118.289001
v 143.917007 -6.168011 127.095001
v 133.317993 60.771469 195.684021
v 118.461998 43.934071 184.705002
v 116.240997 55.292168 196.329010
v 64.033501 114.538963 241.676010
v 66.161598 128.679947 247.715012
v 88.614601 112.865959 235.311020
v 29.031300 131.747955 258.755035
v 0.650881 157.209961 266.461029
v 3.743970 147.173950 266.253021
v 35.129200 150.693954 260.055023
v 27.871901 180.693954 266.290039
v -11.883500 170.343948 269.127045
v 144.022995 36.085873 175.154007
v 161.311005 1.226897 138.164993
v 155.815994 -7.502581 125.769997
v -104.683998 -143.392044 262.001984
v -113.954002 -136.828049 261.757965
v -82.491898 -119.463043 260.482971
v 137.466003 8.772516 147.791000
v 129.317993 5.225807 143.302994
v 168.817993 51.458469 185.012009
v 93.898300 -108.231041 256.566956
v 89.700699 -125.952042 256.896973
v 73.194298 -106.006035 257.165955
v 129.153000 20.137774 159.139999
v 164.449005 9.193836 148.436005
v 166.576996 20.518173 160.944000
v 168.358994 34.961075 173.488007
v 130.276993 -5.666280 127.101997
v 149.373001 93.608261 211.911011
v 155.917007 84.678368 206.371017
v 111.426003 69.830772 205.994019
v 143.716995 103.100960 217.732010
v 147.992996 97.530159 214.185013
v 75.633904 102.443962 232.744019
v 111.291000 139.643951 243.563019
v 125.752998 125.584961 232.820023
v 102.970001 148.252960 248.801025
v 98.039497 152.641953 251.234024
v 87.406502 160.479950 255.321030
v 71.953697 145.192947 252.314026
v 50.852501 119.175964 246.170013
v 52.746300 133.456955 251.282013
v 32.451900 125.460960 255.704010
v 68.762703 170.152954 259.974030
v 51.516998 175.878952 263.629028
v 24.088699 127.252953 259.432037
v 1.928790 137.699951 265.204041
v 7.233110 130.521957 263.965027
v -41.714001 123.700951 267.957031
v -63.217499 173.573959 272.871033
v -42.536201 179.152954 272.511017
v -26.985800 181.724960 271.904022
v -59.069801 116.019951 268.687042
v -14.950700 174.900955 269.634033
v -19.796301 178.927948 270.817017
v -98.291496 85.769753 268.812988
v -152.466995 102.098953 269.533020
v -113.192001 65.724251 268.144989
v -136.139008 119.331955 270.522034
v -122.954002 131.135956 270.774017
v -127.901001 24.624857 264.026001
v -180.352997 44.707256 267.089996
v -130.759003 13.783657 263.039001
v -178.074005 56.481659 267.806000
v -173.800995 66.469254 268.635010
v -138.992996 -39.461540 260.755005
v -182.197998 9.528067 264.369995
v -182.292007 21.585556 265.506989
v -127.954002 -30.303541 260.381012
v -135.151993 -56.301643 261.341003
v -118.255997 -52.469440 261.958008
v -183.156998 2.830437 264.123993
v -182.677002 -16.770542 263.039001
v -128.057999 -99.005547 262.102966
v -167.240997 -76.338249 262.079987
v -182.209000 -32.707443 262.846008
v -178.552994 -46.910942 262.181000
v -160.281006 -88.779549 261.799011
v -147.300003 -104.107048 261.593964
v -111.661003 -93.723244 261.879974
v -113.351997 -63.420441 262.940002
v -108.416000 -74.411743 262.692993
v -82.010696 -102.792046 261.321960
v -95.551903 -153.567047 262.011963
v -42.146400 -124.562042 260.467957
v -84.139000 -160.555038 261.867981
v -10.546300 -129.762039 259.787964
v 0.000000 -131.500046 258.829956
v 65.393204 -149.547043 258.817963
v -4.289750 -174.071045 259.716980
v 25.479401 -167.400040 258.731964
v 49.990898 -121.588036 256.642975
v 92.977402 -91.721237 256.221008
v 137.304993 -19.561216 105.112999
v -182.968002 -21.803642 263.135010
v -174.970993 -58.799042 262.473999
v 11.507200 -172.762039 259.876984
v 49.412300 -162.520050 259.116974
v 57.786999 -157.432053 259.865967
v 82.495300 -133.519043 257.313965
v 87.806503 -129.707047 257.151978
v 27.430500 -170.670044 259.473969
v 20.638599 -171.896042 258.838959
v 60.255798 173.175949 261.783020
v 131.429993 118.591965 228.045013
v -82.233902 165.752960 272.843018
v -106.963997 149.325958 272.671021
v -98.437599 156.784958 272.798035
v -37.485699 -174.870041 260.435974
v -63.395802 -168.600052 260.786957
v -128.619995 126.940956 270.579041
v 93.511299 157.082947 252.996033
v 129.815994 -20.118816 100.375000
v 74.724998 -142.739044 257.999969
v 137.602997 111.955963 223.370010
v -168.233002 78.026657 269.049988
v -142.761993 115.923958 270.399017
v -161.272995 88.608353 270.378998
v -181.988998 33.580357 266.074005
vn -0.0639 -0.8488 0.5248
vn -0.0692 -0.8439 0.5321
vn 0.2416 -0.6706 0.7014
vn 0.2023 -0.4102 0.8893
vn 0.3289 0.0819 0.9408
vn 0.1496 -0.1664 0.9746
vn 0.1597 -0.1186 0.9800
vn 0.0984 -0.1069 0.9894
vn 0.1074 -0.6078 0.7868
vn -0.0261 -0.8118 0.5833
vn -0.1006 -0.7471 0.6571
vn 0.0112 0.0530 0.9985
vn 0.0259 -0.8067 0.5904
vn 0.3524 -0.7032 0.6175
vn -0.0915 -0.6937 0.7144
vn 0.0728 -0.6189 0.7821
vn 0.0302 0.0115 0.9995
vn 0.0350 -0.7242 0.6887
vn -0.0792 -0.7322 0.6764
vn 0.0212 -0.6571 0.7535
vn -0.0303 -0.8303 0.5564
vn -0.0313 -0.8572 0.5141
vn 0.0296 -0.5730 0.8191
vn 0.0904 -0.4764 0.8746
vn 0.1968 -0.4905 0.8489
vn -0.0315 -0.8314 0.5548
vn 0.0891 -0.4759 0.8749
vn 0.0997 -0.4788 0.8722
vn 0.2097 -0.4721 0.8562
vn 0.1872 -0.4834 0.8552
vn 0.2113 -0.4469 0.8693
vn 0.2053 -0.4270 0.8807
vn -0.2435 -0.6650 0.7061
vn 0.1290 -0.3153 0.9402
vn 0.1480 -0.3864 0.9104
vn 0.2581 -0.3422 0.9035
vn 0.1627 -0.4081 0.8983
vn 0.3309 -0.3566 0.8737
vn 0.1393 -0.3107 0.9402
vn 0.1228 -0.3489 0.9291
vn 0.0924 -0.2813 0.9552
vn 0.2097 -0.2123 0.9544
vn 0.1096 -0.2788 0.9541
vn -0.2175 0.0030 0.9760
vn 0.3495 -0.2483 0.9034
vn 0.1987 -0.1454 0.9692
vn 0.2323 0.0037 0.9726
vn 0.0948 -0.1009 0.9904
vn 0.0724 -0.1861 0.9799
vn 0.1538 -0.0535 0.9867
vn -0.1767 -0.0748 0.9814
vn 0.0827 -0.0623 0.9946
vn 0.0857 -0.0830 0.9929
vn 0.0499 -0.1212 0.9914
vn 0.0642 -0.1554 0.9858
vn 0.0716 -0.0672 0.9952
vn 0.3234 0.1131 0.9395
vn 0.0994 -0.1685 0.9807
vn 0.0849 -0.0535 0.9949
vn 0.0027 -0.0353 0.9994
vn 0.0105 -0.0094 0.9999
vn 0.0218 -0.0457 0.9987
vn -0.0430 -0.0844 0.9955
vn 0.0204 -0.0766 0.9969
vn 0.0213 -0.0962 0.9951
vn -0.0942 -0.0422 0.9947
vn 0.0500 -0.0505 0.9975
vn -0.0233 -0.0940 0.9953
vn 0.0793 -0.0550 0.9953
vn -0.0478 0.0501 0.9976
vn 0.0042 0.0357 0.9994
vn 0.0238 -0.0547 0.9982
vn 0.0140 0.0252 0.9996
vn 0.0467 -0.0107 0.9989
vn 0.0427 -0.0358 0.9984
vn 0.0342 0.0097 0.9994
vn -0.0187 -0.0292 0.9994
vn -0.0348 -0.0075 0.9994
vn 0.0075 0.0191 0.9998
vn -0.3026 -0.0502 0.9518
vn -0.0318 -0.0367 0.9988
vn 0.0148 -0.0036 0.9999
vn -0.0219 -0.0173 0.9996
vn 0.0433 -0.0051 0.9990
vn 0.0056 -0.0430 0.9991
vn 0.0034 -0.0504 0.9987
vn 0.0342 0.0317 0.9989
vn -0.0060 -0.0501 0.9987
vn 0.0324 0.0324 0.9989
vn 0.1719 0.6225 0.7635
vn 0.0128 0.0002 0.9999
vn 0.0675 -0.1556 0.9855
vn 0.0254 0.0914 0.9955
vn -0.0544 0.0476 0.9974
vn 0.0510 0.0287 0.9983
vn 0.0313 0.0227 0.9993
vn -0.0721 -0.8343 0.5466
vn 0.0985 -0.1302 0.9866
vn 0.3367 -0.0015 0.9416
vn 0.3179 0.1190 0.9406
vn -0.0339 0.2925 0.9557
vn -0.3415 0.4398 0.8306
vn 0.3100 -0.2445 0.9188
vn -0.0285 0.0820 0.9962
vn -0.1191 0.1516 0.9812
vn -0.1629 -0.7549 0.6353
vn 0.1977 -0.0299 0.9798
vn 0.6750 0.0451 0.7364
vn 0.0370 -0.0661 0.9971
vn 0.0181 -0.0377 0.9991
vn 0.0420 -0.7272 0.6852
vn -0.0202 -0.0338 0.9992
vn 0.0149 0.0055 0.9999
vn 0.1224 -0.1083 0.9865
vn 0.1919 -0.4985 0.8454
vn 0.2370 -0.1154 0.9646
vn 0.0406 -0.0295 0.9987
vn 0.0144 0.0331 0.9993
vn -0.1064 0.0978 0.9895
vn 0.3469 -0.0183 0.9377
vn -0.1473 -0.9281 0.3420
vn 0.0118 -0.0693 0.9975
vn 0.0863 0.0014 0.9963
vn 0.0066 -0.1094 0.9940
vn 0.2504 -0.3910 0.8857
vn 0.0216 0.0015 0.9998
vn 0.1891 -0.1261 0.9738
vn -0.0277 0.0571 0.9980
vn -0.0545 0.1899 0.9803
vn 0.0213 -0.0774 0.9968
vn 0.1151 -0.0887 0.9894
vn 0.0275 -0.0705 0.9971
vn 0.1940 -0.4556 0.8688
vn -0.0608 -0.4837 0.8731
vn 0.3069 -0.2752 0.9111
vn 0.2880 -0.5408 0.7903
vn 0.1446 -0.4012 0.9045
vn 0.1366 -0.0271 0.9903
vn 0.0254 -0.0857 0.9960
vn -0.2214 0.0232 0.9749
vn -0.3399 -0.0358 0.9398
vn 0.1258 -0.5015 0.8560
vn 0.0361 -0.0418 0.9985
vn -0.2638 -0.0266 0.9642
usemtl None
s off
f 1//1 2//1 3//1
f 1//2 3//2 4//2
f 5//3 7//3 6//3
f 8//4 10//4 9//4
f 11//5 12//5 13//5
f 12//6 14//6 15//6
f 14//7 12//7 11//7
f 12//8 15//8 16//8
f 17//9 5//9 6//9
f 4//10 19//10 18//10
f 4//11 18//11 17//11
f 20//12 22//12 21//12
f 23//13 24//13 4//13
f 17//14 23//14 4//14
f 17//15 24//15 23//15
f 17//16 25//16 5//16
f 26//17 28//17 27//17
f 6//18 29//18 17//18
f 30//19 31//19 17//19
f 32//20 17//20 31//20
f 33//21 4//21 24//21
f 33//22 1//22 4//22
f 25//23 17//23 32//23
f 34//24 5//24 35//24
f 36//25 5//25 37//25
f 19//26 4//26 3//26
f 38//27 5//27 34//27
f 5//28 38//28 37//28
f 36//29 10//29 39//29
f 36//30 37//30 10//30
f 10//31 41//31 40//31
f 41//32 10//32 37//32
f 40//33 42//33 43//33
f 44//34 45//34 43//34
f 45//35 40//35 43//35
f 45//36 9//36 10//36
f 46//37 8//37 9//37
f 47//38 48//38 46//38
f 45//39 47//39 9//39
f 47//40 46//40 9//40
f 49//41 45//41 44//41
f 50//42 11//42 45//42
f 49//43 50//43 45//43
f 50//44 14//44 11//44
f 51//45 48//45 11//45
f 11//46 13//46 52//46
f 52//47 53//47 11//47
f 52//48 54//48 53//48
f 14//49 50//49 15//49
f 52//50 12//50 16//50
f 52//51 13//51 12//51
f 54//52 52//52 55//52
f 52//53 16//53 56//53
f 56//54 55//54 52//54
f 56//55 16//55 57//55
f 54//56 55//56 58//56
f 59//57 60//57 16//57
f 59//58 15//58 60//58
f 59//59 16//59 15//59
f 61//60 62//60 63//60
f 58//61 62//61 61//61
f 64//62 58//62 65//62
f 62//63 66//63 63//63
f 64//64 62//64 58//64
f 67//65 68//65 66//65
f 69//66 67//66 70//66
f 68//67 67//67 71//67
f 72//68 71//68 73//68
f 68//69 71//69 74//69
f 75//70 76//70 74//70
f 74//71 71//71 75//71
f 77//72 78//72 71//72
f 79//73 71//73 80//73
f 71//74 78//74 81//74
f 71//75 81//75 82//75
f 80//76 71//76 82//76
f 83//77 84//77 79//77
f 75//78 85//78 76//78
f 75//79 79//79 85//79
f 86//80 76//80 85//80
f 86//81 85//81 87//81
f 79//82 21//82 85//82
f 79//83 84//83 21//83
f 22//84 85//84 21//84
f 87//85 85//85 88//85
f 22//86 88//86 85//86
f 20//87 89//87 22//87
f 90//88 88//88 22//88
f 22//89 89//89 91//89
f 92//90 94//90 93//90
f 95//91 94//91 92//91
f 95//92 96//92 94//92
f 93//93 94//93 97//93
f 28//94 97//94 94//94
f 94//95 27//95 28//95
f 98//96 28//96 26//96
f 99//97 2//97 1//97
f 57//98 60//98 15//98
f 100//99 81//99 78//99
f 80//100 82//100 101//100
f 102//101 96//101 95//101
f 94//102 103//102 104//102
f 105//103 27//103 94//103
f 105//104 106//104 27//104
f 107//105 96//105 108//105
f 30//106 17//106 18//106
f 49//107 109//107 50//107
f 110//108 41//108 37//108
f 58//109 111//109 112//109
f 113//110 112//110 111//110
f 24//111 17//111 29//111
f 80//112 83//112 79//112
f 92//113 115//113 114//113
f 102//114 108//114 96//114
f 36//115 7//115 5//115
f 51//116 11//116 53//116
f 91//117 115//117 92//117
f 22//118 91//118 92//118
f 116//119 64//119 65//119
f 43//120 117//120 44//120
f 1//121 118//121 99//121
f 71//122 67//122 73//122
f 94//123 119//123 105//123
f 65//124 58//124 112//124
f 120//125 110//125 37//125
f 114//126 95//126 92//126
f 70//127 67//127 121//127
f 96//128 103//128 94//128
f 107//129 103//129 96//129
f 62//130 64//130 122//130
f 57//131 16//131 60//131
f 58//132 55//132 111//132
f 39//133 10//133 8//133
f 22//134 92//134 90//134
f 47//135 11//135 48//135
f 45//136 11//136 47//136
f 40//137 45//137 10//137
f 66//138 62//138 123//138
f 67//139 66//139 123//139
f 123//140 121//140 67//140
f 124//141 73//141 67//141
f 25//142 35//142 5//142
f 77//143 71//143 72//143
f 79//144 75//144 71//144
