# Blender v2.79 (sub 0) OBJ File: ''
# www.blender.org
mtllib my_crack_surf__8.mtl
o my_crack_surf__8
v 138.330994 7.721226 147.737000
v 130.278000 -9.912421 130.240005
v 129.417007 4.181597 144.337006
v 153.546997 16.489973 158.084000
v 152.240997 15.809774 157.679993
v 116.166000 55.753071 197.995010
v 123.817001 69.919373 209.931015
vn 0.0109 -0.7068 0.7073
vn -0.1072 -0.6752 0.7298
vn 0.1100 -0.6551 0.7475
vn 0.4249 -0.8953 0.1340
vn 0.0861 -0.6687 0.7385
vn -0.0332 -0.7247 0.6883
vn 0.1607 -0.8637 0.4777
usemtl None
s off
f 1//1 3//1 2//1
f 1//2 2//2 4//2
f 5//3 4//3 6//3
f 5//4 1//4 4//4
f 7//5 6//5 4//5
f 3//6 5//6 6//6
f 5//7 3//7 1//7
