# Blender v2.79 (sub 0) OBJ File: ''
# www.blender.org
mtllib my_crack_surf__0.mtl
o my_crack_surf__0
v 146.587006 6.127906 146.903000
v 134.804993 -8.062001 131.470993
v 130.278000 -9.912421 130.240005
v 150.186005 25.975874 166.703995
v 143.356995 49.705570 189.710022
v 115.845001 57.350365 200.758011
v 129.222000 19.446672 159.705002
v 137.548996 57.027668 195.703018
v 125.718002 59.830864 199.983017
vn 0.1570 -0.7838 0.6008
vn 0.1047 -0.6765 0.7289
vn 0.0021 -0.7344 0.6787
vn -0.0236 -0.7086 0.7052
vn -0.0174 -0.7046 0.7094
vn 0.1848 -0.5305 0.8273
vn 0.1904 -0.4927 0.8491
usemtl None
s off
f 1//1 3//1 2//1
f 4//2 5//2 6//2
f 4//3 6//3 7//3
f 3//4 1//4 7//4
f 7//5 1//5 4//5
f 8//6 6//6 5//6
f 6//7 8//7 9//7
