# Blender v2.79 (sub 0) OBJ File: ''
# www.blender.org
mtllib my_crack_surf__28.mtl
o my_crack_surf__28
v 147.119995 80.968269 206.930008
v 116.939003 122.538963 231.070023
v 103.878998 76.699265 214.134018
v 64.811798 114.071960 244.755020
v 160.921005 42.788971 179.994003
v 156.389008 61.061169 193.479019
v 118.626999 43.331470 184.735001
v 130.278000 -7.693991 128.774002
v 129.210007 19.550474 159.835999
v 151.867996 -6.607212 130.835007
v 111.433998 69.818466 207.518021
v 146.024994 -12.255819 119.915001
v 130.268005 -17.113018 108.890999
v 85.472397 93.468964 228.464020
v 78.235199 100.061958 234.261017
v 91.185097 88.263359 224.272018
v 72.403099 145.598953 251.875031
v 71.691101 141.341949 249.215027
v 63.560699 140.211960 252.243011
v 80.870201 137.058960 246.384018
v 67.412300 153.530960 254.635025
v 100.473999 134.497955 241.147018
v 25.947599 127.267952 262.179016
v 68.345596 146.767960 253.362030
v 132.462006 105.500961 220.109009
v -19.507000 134.865952 268.452026
v 8.941740 130.534958 266.489044
v -3.149240 149.062958 267.382019
v -9.634060 143.978958 267.946045
v -21.071301 126.435951 267.944031
v 161.899994 19.749674 162.804993
v 8.369520 154.083954 266.674042
v 32.155602 158.135956 262.397034
vn 0.1886 -0.3872 0.9025
vn 0.2931 -0.4037 0.8667
vn 0.0836 -0.5782 0.8116
vn -0.0250 -0.7520 0.6587
vn 0.1692 -0.4965 0.8514
vn 0.1174 -0.6291 0.7684
vn 0.0009 -0.8884 0.4591
vn -0.0209 -0.9035 0.4280
vn 0.1896 -0.5644 0.8035
vn 0.6784 0.1054 0.7271
vn 0.1289 -0.5323 0.8367
vn 0.7213 0.2143 0.6586
vn 0.3589 -0.5370 0.7634
vn 0.0132 -0.5315 0.8470
vn 0.6264 0.1265 0.7692
vn 0.2105 -0.2949 0.9321
vn 0.3352 0.0990 0.9369
vn 0.2684 -0.2534 0.9294
vn 0.3258 -0.2459 0.9129
vn 0.2394 -0.3305 0.9129
vn 0.3055 -0.3025 0.9029
vn 0.3064 -0.1351 0.9423
vn 0.0683 -0.0035 0.9977
vn 0.2690 -0.2397 0.9328
vn 0.0699 -0.7064 0.7044
vn 0.0579 -0.0708 0.9958
vn 0.2241 -0.2238 0.9485
vn -0.0540 -0.7621 0.6452
vn 0.1840 -0.0440 0.9819
vn 0.2906 -0.3502 0.8905
vn 0.2454 -0.0017 0.9694
vn 0.0641 -0.0063 0.9979
vn 0.1815 -0.2244 0.9574
vn 0.0199 -0.1823 0.9830
vn -0.0688 -0.5984 0.7982
vn 0.2748 -0.0620 0.9595
usemtl None
s off
f 1//1 2//1 3//1
f 4//2 3//2 2//2
f 5//3 6//3 7//3
f 8//4 10//4 9//4
f 1//5 11//5 6//5
f 7//6 6//6 11//6
f 12//7 10//7 8//7
f 8//8 13//8 12//8
f 3//9 11//9 1//9
f 14//10 4//10 15//10
f 14//11 16//11 4//11
f 16//12 3//12 4//12
f 17//13 19//13 18//13
f 20//14 17//14 18//14
f 21//15 17//15 20//15
f 21//16 20//16 22//16
f 20//17 18//17 19//17
f 20//18 19//18 4//18
f 23//19 4//19 19//19
f 17//20 24//20 19//20
f 25//21 2//21 1//21
f 21//22 24//22 17//22
f 26//23 27//23 28//23
f 26//24 28//24 29//24
f 7//25 9//25 5//25
f 26//26 30//26 27//26
f 20//27 4//27 22//27
f 31//28 9//28 10//28
f 32//29 23//29 33//29
f 22//30 4//30 2//30
f 27//31 23//31 32//31
f 27//32 32//32 28//32
f 19//33 21//33 33//33
f 21//34 19//34 24//34
f 5//35 9//35 31//35
f 23//36 19//36 33//36
