# Blender v2.79 (sub 0) OBJ File: ''
# www.blender.org
mtllib my_crack_surf__91.mtl
o my_crack_surf__91
v 129.160004 20.066174 159.225006
v 145.893005 12.792775 152.069000
v 144.018005 35.857372 175.408005
v 165.807007 27.363373 167.276993
v 164.313995 16.029076 156.100006
v 130.276993 -5.728731 127.153000
v 139.065002 -15.223318 112.821999
v 147.373993 -11.516419 119.390999
v 146.434998 5.014936 142.315994
v 157.313995 61.074070 191.952011
v 111.427002 69.830170 206.065018
v 96.474899 144.900955 248.597031
v 64.057297 114.524963 241.770020
v 95.053802 106.517960 230.367020
v 24.250200 127.254951 259.671021
v 0.649560 157.212952 266.491028
v 3.743970 147.173950 266.253021
v 20.161301 179.513962 266.775024
v -126.761002 125.620956 269.851044
v -101.278000 122.367950 271.089020
v -105.226997 100.679955 270.217041
v 161.156006 7.156846 145.531998
v 116.240997 55.292168 196.329010
v 118.470001 43.904068 184.705994
v 167.113998 35.287674 173.781998
v 152.595001 -7.348111 125.990997
v 158.037994 -0.354945 135.921005
v 137.466003 8.453396 147.945999
v 137.490005 -0.641101 135.063995
v 129.324997 5.158377 143.382996
v 17.221901 -158.426041 258.566956
v 0.000000 -131.500046 258.815979
v 4.201420 -163.105042 258.856964
v 156.016006 50.900871 184.831009
v 167.184006 41.178169 178.223007
v 160.011993 71.337372 198.015015
v 129.207993 12.964675 150.886993
v 137.317993 16.408476 155.156998
v 147.979004 93.293564 211.556015
v 154.231995 83.793671 205.985016
v 146.322998 97.396263 213.877014
v 135.311005 113.466965 224.131012
v 75.726997 102.358963 232.798019
v 130.238007 -18.056618 106.825996
v 114.042000 134.709961 240.105011
v 121.411003 128.185959 234.940018
v 92.036903 155.949951 253.389038
v 79.726799 163.262955 256.648041
v 50.971600 119.104965 246.641022
v 32.191502 125.539963 256.017029
v 59.791302 171.782959 261.458038
v 65.147797 169.869949 260.619019
v 44.500500 176.108948 264.029022
v -5.246430 136.708954 265.678040
v 7.233110 130.521957 263.965027
v -41.678799 123.700951 268.009033
v 34.892200 177.999954 265.247040
v -19.681200 179.911957 271.043030
v -55.256599 174.388962 272.892029
v -39.737301 178.307953 272.304016
v -98.309998 85.750053 268.864014
v -59.096699 115.990952 268.761017
v -74.181999 167.783951 272.780029
v -64.212502 171.598953 272.971039
v -89.774300 158.724960 272.485016
v -102.280998 150.854950 272.818024
v -113.192001 65.724251 268.144989
v -155.287003 98.042953 269.996033
v -132.141006 40.609558 264.886993
v -127.901001 24.620956 263.987000
v -172.255997 63.453457 267.658997
v -175.488007 54.602459 267.423004
v -177.660004 -15.783743 262.988007
v -130.759003 13.779757 263.000000
v -177.681000 40.530857 266.390991
v -129.237000 -8.069403 261.101013
v -177.998001 13.390957 264.552002
v -179.880005 -3.102763 263.666992
v -178.031998 21.588057 265.295013
v -127.953003 -30.308441 260.295013
v -176.022995 -33.065643 262.480011
v -166.095001 -67.927849 261.984985
v -172.912994 -46.664242 262.311005
v -146.264999 -98.822548 261.439972
v -123.098999 -41.412243 260.714996
v -113.348999 -63.429943 262.957001
v -128.031998 -99.012848 262.045959
v -108.405998 -74.427444 262.688995
v -82.023598 -102.782043 261.324982
v -82.462502 -119.451042 260.451965
v -136.839996 -110.411049 261.689972
v -72.005600 -108.271049 260.619965
v -42.049301 -124.596046 260.465973
v -92.789497 -147.369049 261.449982
v -79.081200 -153.488052 261.555969
v -20.875200 -164.795044 259.876984
v -40.965801 -164.463043 260.633972
v -10.546300 -129.762039 260.101959
v 24.615101 -126.718040 256.517975
v 28.932100 -152.889053 258.816956
v 44.722099 -122.839043 257.894958
v 159.660995 2.753657 140.123001
v 162.556000 9.525537 148.811005
v 101.737000 147.221954 248.731033
v -157.559006 -84.839447 262.079987
v -161.800995 -77.687843 261.971008
v -109.989998 -134.033051 261.606964
v -102.281998 -140.306046 262.323975
v 166.110001 48.724068 183.583008
v -152.714005 -91.848045 261.873993
v 71.053200 167.337952 259.337036
v -141.962006 111.085953 268.865021
v -62.485199 -161.713043 260.833984
v -11.006200 -166.297043 259.813965
v 39.544800 -140.404053 258.637970
v -96.153702 154.806961 272.472015
vn -0.0089 -0.7116 0.7025
vn -0.0333 -0.6995 0.7138
vn -0.0442 -0.8451 0.5328
vn -0.0092 -0.8113 0.5846
vn 0.1805 -0.4574 0.8708
vn 0.2136 -0.4256 0.8794
vn 0.3895 0.0983 0.9158
vn 0.1272 -0.1238 0.9841
vn -0.0524 -0.0306 0.9982
vn -0.0222 -0.7822 0.6226
vn 0.0318 -0.7109 0.7026
vn 0.0320 -0.7096 0.7039
vn -0.1440 -0.6136 0.7764
vn -0.0461 -0.8046 0.5920
vn 0.0074 -0.8169 0.5767
vn 0.0488 -0.8159 0.5761
vn 0.0942 -0.7758 0.6239
vn 0.0208 0.0041 0.9998
vn 0.1568 -0.6111 0.7759
vn 0.1619 -0.5115 0.8439
vn 0.0218 -0.7255 0.6879
vn -0.0066 -0.7649 0.6441
vn -0.0237 -0.8309 0.5560
vn 0.0413 -0.6018 0.7976
vn 0.5328 -0.5299 0.6599
vn -0.1218 -0.6888 0.7146
vn -0.0165 -0.6717 0.7407
vn -0.0181 -0.7612 0.6482
vn -0.1034 -0.6691 0.7360
vn -0.3269 -0.9280 0.1789
vn -0.0506 -0.5298 0.8466
vn -0.2916 -0.5575 0.7773
vn 0.1751 -0.4608 0.8700
vn 0.2095 -0.4733 0.8556
vn 0.3290 -0.4150 0.8482
vn 0.0777 -0.4979 0.8638
vn -0.0777 -0.8524 0.5171
vn 0.0569 -0.5794 0.8130
vn 0.1289 -0.5050 0.8534
vn 0.0086 -0.3950 0.9186
vn 0.1911 -0.4049 0.8942
vn 0.2456 -0.4964 0.8326
vn 0.1473 -0.2019 0.9683
vn 0.1846 -0.2485 0.9509
vn -0.1722 -0.7580 0.6291
vn 0.1127 -0.1822 0.9768
vn 0.1421 -0.1756 0.9742
vn 0.2908 0.3389 0.8947
vn 0.1183 -0.1555 0.9807
vn 0.0939 -0.0852 0.9919
vn 0.0835 -0.1768 0.9807
vn 0.3996 -0.0927 0.9120
vn 0.0894 -0.1771 0.9801
vn 0.0439 -0.0102 0.9990
vn 0.1126 -0.0974 0.9889
vn 0.1049 -0.1044 0.9890
vn 0.0580 -0.0803 0.9951
vn 0.0690 -0.0807 0.9944
vn 0.0532 -0.0656 0.9964
vn 0.0252 -0.0892 0.9957
vn 0.1214 -0.3633 0.9237
vn 0.0632 -0.0582 0.9963
vn 0.0452 -0.0694 0.9966
vn -0.0013 -0.0589 0.9983
vn -0.0350 -0.1025 0.9941
vn 0.0435 -0.0446 0.9981
vn 0.0450 -0.0430 0.9981
vn 0.0680 -0.1082 0.9918
vn 0.0236 -0.0768 0.9968
vn 0.0289 -0.0603 0.9978
vn 0.0520 -0.0829 0.9952
vn -0.0004 -0.0535 0.9986
vn -0.9802 -0.0219 0.1969
vn 0.0443 -0.0336 0.9985
vn 0.0468 -0.0249 0.9986
vn 0.0451 -0.0009 0.9990
vn 0.0378 0.0066 0.9993
vn -0.1472 0.0355 0.9885
vn -0.0329 0.0259 0.9991
vn -0.0014 -0.0250 0.9997
vn 0.0127 -0.0363 0.9993
vn 0.0113 -0.0526 0.9986
vn 0.0156 -0.0432 0.9989
vn -0.0333 -0.0055 0.9994
vn -0.0020 -0.0131 0.9999
vn 0.0410 -0.0533 0.9977
vn 0.0071 0.0331 0.9994
vn 0.0374 -0.0174 0.9991
vn 0.1239 0.0178 0.9921
vn 0.0842 0.0447 0.9954
vn -0.0581 0.0779 0.9953
vn -0.0823 0.0737 0.9939
vn -0.0213 -0.7844 0.6199
vn -0.4311 -0.6377 0.6383
vn -0.5215 -0.5703 0.6347
vn 0.1307 -0.3498 0.9277
vn 0.1666 0.0896 0.9820
vn -0.1080 -0.0490 0.9929
vn 0.0286 0.0251 0.9993
vn 0.5889 0.7563 0.2851
vn 0.0329 -0.5757 0.8170
vn -0.0083 -0.5261 0.8504
vn 0.0527 -0.0497 0.9974
vn 0.0306 -0.0852 0.9959
vn 0.0528 -0.0550 0.9971
vn 0.1345 -0.0597 0.9891
vn 0.1390 0.0671 0.9880
vn -0.2912 -0.8751 0.3865
vn -0.0871 -0.8097 0.5803
vn -0.0032 0.1043 0.9945
vn -0.0432 -0.0226 0.9988
vn 0.0273 0.0276 0.9992
vn 0.0304 -0.0265 0.9992
vn 0.0096 0.0334 0.9994
vn 0.1714 -0.4394 0.8818
vn -0.0564 -0.0625 0.9965
vn 0.0239 -0.0790 0.9966
vn -0.0716 -0.0750 0.9946
vn 0.0298 0.1542 0.9876
vn -0.0502 0.0570 0.9971
vn -0.0300 0.0247 0.9992
vn 0.1666 -0.5796 0.7977
vn -0.0396 -0.3084 0.9504
vn 0.2055 -0.4455 0.8714
vn 0.0455 -0.0020 0.9990
vn 0.3810 -0.8958 0.2287
vn -0.4780 0.7771 0.4094
vn 0.0419 -0.0188 0.9989
vn -0.0094 0.0960 0.9953
vn 0.0101 0.0065 0.9999
vn 0.0576 -0.5190 0.8529
vn -0.0125 -0.5403 0.8414
usemtl None
s off
f 1//1 2//1 3//1
f 2//2 5//2 4//2
f 6//3 7//3 8//3
f 6//4 8//4 9//4
f 10//5 12//5 11//5
f 13//6 14//6 12//6
f 15//7 16//7 17//7
f 18//8 16//8 15//8
f 19//9 21//9 20//9
f 9//10 22//10 2//10
f 3//11 23//11 24//11
f 25//12 3//12 2//12
f 25//13 2//13 4//13
f 26//14 27//14 9//14
f 28//15 30//15 29//15
f 9//16 28//16 29//16
f 9//17 2//17 28//17
f 31//18 32//18 33//18
f 3//19 34//19 23//19
f 23//20 10//20 11//20
f 24//21 1//21 3//21
f 5//22 2//22 22//22
f 6//23 29//23 30//23
f 25//24 35//24 3//24
f 36//25 10//25 34//25
f 37//26 30//26 28//26
f 38//27 28//27 2//27
f 38//28 1//28 37//28
f 37//29 28//29 38//29
f 38//30 2//30 1//30
f 39//31 10//31 40//31
f 41//32 10//32 39//32
f 42//33 12//33 10//33
f 43//34 11//34 14//34
f 11//35 12//35 14//35
f 41//36 42//36 10//36
f 6//37 44//37 7//37
f 12//38 46//38 45//38
f 42//39 46//39 12//39
f 12//40 47//40 48//40
f 49//41 13//41 12//41
f 49//42 12//42 50//42
f 48//43 51//43 50//43
f 50//44 12//44 48//44
f 48//45 52//45 51//45
f 50//46 51//46 53//46
f 15//47 17//47 54//47
f 54//48 55//48 15//48
f 54//49 17//49 56//49
f 56//50 55//50 54//50
f 18//51 50//51 57//51
f 15//52 50//52 18//52
f 57//53 50//53 53//53
f 16//54 56//54 17//54
f 56//55 16//55 58//55
f 16//56 18//56 58//56
f 59//57 56//57 60//57
f 56//58 58//58 60//58
f 21//59 61//59 62//59
f 59//60 63//60 56//60
f 64//61 63//61 59//61
f 20//62 65//62 66//62
f 67//63 61//63 21//63
f 67//64 21//64 68//64
f 67//65 68//65 69//65
f 70//66 69//66 71//66
f 70//67 71//67 72//67
f 73//68 74//68 70//68
f 70//69 72//69 75//69
f 70//70 75//70 73//70
f 74//71 73//71 76//71
f 77//72 78//72 73//72
f 77//73 73//73 79//73
f 80//74 76//74 73//74
f 80//75 73//75 81//75
f 82//76 80//76 83//76
f 80//77 82//77 84//77
f 85//78 87//78 86//78
f 85//79 84//79 87//79
f 86//80 87//80 88//80
f 87//81 89//81 88//81
f 87//82 90//82 89//82
f 87//83 91//83 90//83
f 84//84 91//84 87//84
f 92//85 90//85 93//85
f 92//86 89//86 90//86
f 90//87 94//87 95//87
f 96//88 98//88 97//88
f 98//89 33//89 32//89
f 99//90 32//90 31//90
f 100//91 99//91 31//91
f 100//92 101//92 99//92
f 22//93 9//93 27//93
f 102//94 22//94 27//94
f 103//95 5//95 22//95
f 104//96 47//96 12//96
f 105//97 84//97 82//97
f 105//98 82//98 106//98
f 107//99 94//99 90//99
f 107//100 108//100 94//100
f 109//101 3//101 35//101
f 109//102 34//102 3//102
f 20//103 21//103 56//103
f 65//104 56//104 63//104
f 20//105 56//105 65//105
f 73//106 75//106 79//106
f 105//107 110//107 84//107
f 111//108 52//108 48//108
f 26//109 9//109 8//109
f 21//110 62//110 56//110
f 21//111 19//111 112//111
f 107//112 90//112 91//112
f 113//113 98//113 95//113
f 90//114 95//114 98//114
f 12//115 45//115 104//115
f 66//116 19//116 20//116
f 71//117 69//117 68//117
f 69//118 70//118 67//118
f 114//119 33//119 96//119
f 101//120 100//120 115//120
f 85//121 80//121 84//121
f 10//122 23//122 34//122
f 90//123 98//123 93//123
f 43//124 14//124 13//124
f 80//125 81//125 83//125
f 6//126 9//126 29//126
f 116//127 66//127 65//127
f 98//128 96//128 33//128
f 112//129 68//129 21//129
f 113//130 97//130 98//130
f 36//131 40//131 10//131
f 109//132 36//132 34//132
