# Blender v2.79 (sub 0) OBJ File: ''
# www.blender.org
mtllib my_crack_surf__49.mtl
o my_crack_surf__49
v 129.787003 -1.452642 136.175995
v 139.177002 -15.354818 113.264000
v 146.537003 -11.808919 119.625000
v 146.354004 92.783661 211.322021
v 156.052994 50.923969 185.678009
v 103.017998 77.486763 213.628021
v -0.326432 174.192947 268.247040
v 35.266102 172.122955 264.095032
v 18.250700 173.780960 266.026031
v 7.233110 130.521957 263.965027
v 126.431999 54.315468 192.509018
v 144.044006 35.599869 175.723999
v 156.472000 -0.386140 137.162994
v 157.848999 71.427971 198.550018
v 148.259003 25.887573 166.388000
v 146.518005 29.547771 170.843002
v 164.919006 36.085175 174.606003
v 129.203003 19.627773 159.744995
v 160.740997 9.341155 149.477005
v 164.128006 20.395273 161.813995
v 152.897003 82.073471 205.178009
v 112.592003 66.313072 204.108017
v 132.904999 113.467964 223.809021
v 136.671005 107.804962 220.212021
v 143.865005 97.313560 213.911011
v 64.554497 114.226959 243.737015
v 53.382801 133.096954 253.771011
v 77.306801 100.911964 233.719009
v 102.935997 140.926956 244.484024
v 83.151100 151.240952 253.067032
v 51.815102 118.598961 249.978012
v 30.994400 125.900963 257.460022
v 75.722099 154.782959 254.649033
v 58.195301 166.680954 260.871033
v -41.340801 123.703957 268.508026
v -42.941200 169.064957 271.738037
v -82.804199 150.361954 271.781036
v -59.341999 115.767952 269.250031
v -51.139900 166.738953 272.193024
v -131.804993 91.324051 268.773010
v -135.050003 82.339554 268.218994
v -96.279503 98.851456 270.576019
v -98.887497 85.156754 270.136993
v -119.330002 116.439957 270.677032
v -137.636993 66.216553 266.907013
v -111.441002 68.113556 268.903992
v -135.000000 55.514759 265.937012
v -122.567001 39.905457 265.596985
v -20.577801 172.563950 270.278046
v 163.878006 48.607170 183.903015
v -127.408997 42.523857 265.377991
v -105.056000 132.130951 271.011017
v 86.230598 152.875961 253.063034
v 118.492996 43.820770 184.710007
v -66.522301 159.701950 272.250031
v 116.240997 55.292168 196.329010
v 96.878799 145.325958 248.001038
v 130.231003 -17.413017 108.333000
vn -0.0271 -0.8595 0.5104
vn 0.2128 -0.4741 0.8544
vn 0.1201 0.0798 0.9896
vn 0.1110 -0.0779 0.9908
vn 0.1133 -0.6022 0.7903
vn 0.0136 -0.8414 0.5403
vn -0.0403 -0.5287 0.8478
vn 0.1285 -0.7410 0.6591
vn 0.0565 -0.6127 0.7883
vn -0.9519 -0.2641 -0.1550
vn -0.0206 -0.6975 0.7163
vn -0.0234 -0.7414 0.6707
vn 0.0046 -0.6320 0.7749
vn -0.0263 -0.7454 0.6661
vn -0.0280 -0.6862 0.7269
vn -0.2561 -0.5940 0.7626
vn 0.1424 -0.5684 0.8103
vn 0.8589 0.3144 0.4042
vn 0.1929 -0.4122 0.8905
vn 0.1906 -0.4061 0.8938
vn 0.5109 -0.1478 0.8468
vn 0.2242 -0.3323 0.9161
vn 0.3463 -0.2723 0.8977
vn 0.2404 -0.2699 0.9324
vn 0.1269 -0.1703 0.9772
vn 0.2097 -0.1579 0.9649
vn 0.0850 -0.2177 0.9723
vn 0.1038 -0.0792 0.9914
vn 0.0338 -0.0698 0.9970
vn 0.0564 -0.0347 0.9978
vn 0.1320 -0.2791 0.9512
vn -0.0407 -0.0468 0.9981
vn -0.0512 -0.0223 0.9984
vn -0.0387 -0.0564 0.9977
vn -0.0708 -0.0696 0.9951
vn -0.0679 -0.1066 0.9920
vn -0.0796 -0.0850 0.9932
vn 0.1059 -0.0809 0.9911
vn 0.0337 -0.5335 0.8451
vn -0.0991 -0.1005 0.9900
vn 0.0163 -0.0620 0.9979
vn 0.1990 -0.3726 0.9064
vn 0.1842 -0.2285 0.9560
vn 0.0160 -0.7146 0.6994
vn 0.1259 -0.2673 0.9553
vn -0.1417 -0.9817 -0.1270
vn 0.2318 -0.1592 0.9597
vn 0.2285 -0.3867 0.8934
vn 0.0553 -0.0425 0.9976
vn 0.0373 -0.0032 0.9993
vn -0.0070 -0.0149 0.9999
vn 0.0058 -0.5958 0.8031
vn 0.0571 -0.5749 0.8162
vn -0.0995 -0.5723 0.8140
vn 0.0756 -0.0682 0.9948
vn 0.2914 -0.4181 0.8604
vn -0.0502 -0.0352 0.9981
vn 0.2148 -0.4270 0.8784
vn 0.2003 -0.6775 0.7077
vn 0.0701 -0.6286 0.7745
vn 0.1387 -0.2589 0.9559
vn 0.0086 -0.7861 0.6180
vn 0.1639 -0.5321 0.8307
vn -0.5288 -0.8376 0.1369
vn -0.0737 -0.8657 0.4951
usemtl None
s off
f 1//1 2//1 3//1
f 4//2 6//2 5//2
f 7//3 8//3 9//3
f 10//4 8//4 7//4
f 5//5 11//5 12//5
f 13//6 1//6 3//6
f 4//7 5//7 14//7
f 15//8 17//8 16//8
f 12//9 16//9 17//9
f 16//10 12//10 15//10
f 15//11 12//11 18//11
f 19//12 20//12 18//12
f 15//13 20//13 17//13
f 1//14 19//14 18//14
f 15//15 18//15 20//15
f 4//16 14//16 21//16
f 22//17 5//17 6//17
f 23//18 4//18 24//18
f 23//19 6//19 4//19
f 25//20 24//20 4//20
f 26//21 28//21 27//21
f 29//22 30//22 27//22
f 26//23 27//23 31//23
f 27//24 32//24 31//24
f 30//25 33//25 27//25
f 32//26 27//26 8//26
f 27//27 34//27 8//27
f 35//28 10//28 7//28
f 36//29 37//29 35//29
f 37//30 38//30 35//30
f 37//31 36//31 39//31
f 40//32 41//32 42//32
f 43//33 42//33 41//33
f 40//34 42//34 44//34
f 45//35 46//35 41//35
f 45//36 47//36 46//36
f 48//37 46//37 47//37
f 49//38 35//38 7//38
f 50//39 14//39 5//39
f 48//40 47//40 51//40
f 52//41 38//41 37//41
f 53//42 30//42 29//42
f 34//43 27//43 33//43
f 18//44 12//44 54//44
f 39//45 55//45 37//45
f 11//46 5//46 56//46
f 32//47 8//47 10//47
f 29//48 27//48 28//48
f 42//49 43//49 38//49
f 42//50 38//50 52//50
f 42//51 52//51 44//51
f 50//52 5//52 17//52
f 17//53 5//53 12//53
f 34//54 33//54 30//54
f 36//55 35//55 49//55
f 6//56 29//56 28//56
f 41//57 46//57 43//57
f 29//58 6//58 23//58
f 11//59 56//59 54//59
f 54//60 12//60 11//60
f 30//61 53//61 34//61
f 13//62 19//62 1//62
f 22//63 56//63 5//63
f 53//64 29//64 57//64
f 58//65 2//65 1//65
