# Blender v2.79 (sub 0) OBJ File: ''
# www.blender.org
mtllib my_crack_surf__63.mtl
o my_crack_surf__63
v 130.279999 -6.181711 127.518997
v 139.108994 -15.155018 113.185997
v 146.330994 -11.542119 119.515999
v 153.080994 -4.378041 130.964996
v 0.639355 157.236954 266.724030
v 26.854900 175.991959 265.331024
v 28.714800 131.197952 259.268036
v -5.398740 154.859955 267.556030
v 3.743970 147.173950 266.253021
v -2.547690 145.105957 266.609039
v -28.040300 150.818954 269.212036
v 129.337006 5.035437 143.529007
v 160.987000 9.598166 149.294006
v 136.001007 62.139969 196.317017
v 118.556999 43.585468 184.722000
v 130.365997 41.877571 182.080994
v 162.173996 54.078770 187.150009
v 144.026993 35.751774 175.563995
v 144.145996 97.368164 213.803009
v 120.383003 70.083969 204.625015
v 148.181000 26.049273 166.238998
v 165.020004 31.221872 170.421997
v 129.188995 19.774073 159.570999
v 156.080994 17.049475 156.612000
v 164.207993 20.881674 161.479004
v 157.175995 75.163368 200.806015
v 111.428001 69.827667 206.380020
v 76.718102 101.450958 233.376022
v 133.156998 113.509964 223.811020
v 130.274002 -17.315018 108.154999
v 121.824997 125.108963 232.515015
v 65.594200 113.039963 241.838013
v 104.052002 141.503952 244.606033
v 83.410103 157.348953 254.560028
v 60.141499 151.202957 256.633026
v 58.403900 116.421959 245.278015
v 40.069199 137.808960 257.760040
v 31.457199 125.760963 256.902039
v 78.186798 161.647949 255.975037
v 60.762199 168.163956 259.885040
v 24.331100 127.254951 259.790039
v 7.233110 130.521957 263.965027
v -4.997420 136.776947 265.274017
v -8.887100 128.248947 265.584045
v 42.666801 173.362961 263.078033
v -76.946503 161.936951 273.174042
v -41.516201 123.701958 268.249023
v -59.218899 115.860954 269.100037
v -58.690201 170.088959 273.174042
v -29.772900 175.601959 271.218018
v -91.190498 151.747955 272.090027
v -98.405403 85.648453 269.128998
v -20.056000 176.488953 270.554016
v -106.822998 139.438950 271.821045
v -98.906197 146.249954 272.145020
v -113.188004 65.732353 268.147003
v -151.238007 91.724556 269.263000
v -125.063004 122.000954 270.946045
v -127.903000 24.596756 263.750000
v -132.158997 40.567558 264.717987
v -135.171997 48.137959 265.871002
v -166.425003 32.567959 265.290009
v -166.645004 48.222157 266.489990
v -130.759995 13.771757 262.923004
v -167.869003 3.884707 263.239990
v -144.688995 -26.438341 259.911011
v -158.356003 -32.789341 260.985992
v -127.806999 -30.877043 260.054993
v -152.647003 -44.745140 261.184998
v -143.912994 -55.444344 260.868011
v -115.249001 -59.219940 262.414001
v -127.650002 -66.840645 262.691986
v 164.554993 41.341568 178.531998
v -160.285995 70.931252 268.157990
v -158.033997 78.300453 268.786011
v 116.240997 55.292168 196.329010
v -115.707001 -67.498642 263.721985
v -164.677994 62.028458 267.471985
v 163.565002 48.923470 183.944016
v -146.889008 98.352753 269.815033
v -111.849998 -66.782448 263.813995
vn -0.0269 -0.8547 0.5185
vn -0.0143 -0.8438 0.5365
vn 0.1430 -0.1269 0.9816
vn 0.0803 -0.0731 0.9941
vn 0.2968 0.0469 0.9538
vn 0.1380 -0.0038 0.9904
vn 0.1013 -0.0679 0.9925
vn 0.0134 -0.8185 0.5743
vn -0.0305 -0.7884 0.6144
vn 0.0941 -0.5897 0.8021
vn 0.0988 -0.5903 0.8011
vn 0.1059 -0.6041 0.7898
vn 0.2137 -0.4735 0.8545
vn 0.0301 -0.6859 0.7271
vn 0.0529 -0.7139 0.6982
vn -0.0210 -0.6975 0.7163
vn 0.0139 -0.7138 0.7002
vn 0.1145 -0.6016 0.7905
vn -0.0443 -0.7477 0.6626
vn 0.3083 -0.5555 0.7723
vn 0.0134 -0.6547 0.7558
vn -0.0208 -0.7252 0.6883
vn 0.0058 -0.7363 0.6766
vn 0.0960 -0.4603 0.8826
vn 0.1788 -0.5179 0.8365
vn 0.1616 -0.4382 0.8842
vn 0.1376 -0.5153 0.8459
vn -0.0717 -0.8647 0.4972
vn 0.2111 -0.4463 0.8696
vn 0.2408 -0.4109 0.8793
vn 0.1746 -0.3506 0.9201
vn 0.2977 -0.2778 0.9133
vn 0.2591 -0.3114 0.9143
vn 0.1303 -0.1635 0.9779
vn 0.4389 -0.6016 0.6674
vn 0.1462 -0.1914 0.9706
vn 0.3219 -0.2365 0.9167
vn 0.2156 -0.1113 0.9701
vn 0.1179 -0.1909 0.9745
vn 0.1382 -0.2074 0.9684
vn 0.2035 0.1972 0.9590
vn 0.1013 -0.0101 0.9948
vn 0.7332 -0.3125 0.6040
vn 0.1621 -0.1257 0.9787
vn 0.1055 -0.2001 0.9741
vn 0.1170 -0.1911 0.9746
vn 0.0187 0.2877 0.9575
vn 0.0810 -0.0908 0.9926
vn 0.0854 -0.0715 0.9938
vn 0.0652 -0.0678 0.9956
vn 0.0742 -0.0595 0.9955
vn 0.0532 -0.1192 0.9914
vn 0.0815 -0.0747 0.9939
vn -0.0100 -0.0919 0.9957
vn 0.0384 -0.0489 0.9981
vn 0.0748 -0.0753 0.9944
vn 0.2215 -0.3016 0.9274
vn 0.0197 -0.0469 0.9987
vn -0.0029 -0.0471 0.9989
vn -0.0001 -0.0500 0.9987
vn -0.0737 -0.0799 0.9941
vn 0.5689 0.1022 0.8160
vn 0.0194 -0.0761 0.9969
vn 0.0227 -0.0828 0.9963
vn 0.0310 -0.0843 0.9960
vn 0.0249 -0.0725 0.9971
vn 0.0952 -0.0365 0.9948
vn 0.0313 -0.0854 0.9959
vn -0.0258 -0.0658 0.9975
vn 0.0087 0.0656 0.9978
vn 0.0579 0.0442 0.9973
vn -0.0455 0.0628 0.9970
vn 0.0426 0.0052 0.9991
vn -0.0402 0.1017 0.9940
vn 0.0568 -0.6228 0.7803
vn -0.0713 -0.7224 0.6878
vn 0.1093 -0.0858 0.9903
vn 0.2760 -0.2631 0.9245
vn 0.2488 -0.4431 0.8613
vn -0.4177 0.0503 0.9072
vn 0.5730 -0.5171 0.6358
vn 0.0924 -0.0811 0.9924
vn -0.0761 0.1597 0.9842
vn 0.1859 -0.3133 0.9313
vn 0.0038 -0.0374 0.9993
vn 0.1787 -0.5189 0.8360
vn 0.2291 -0.4046 0.8853
vn 0.2341 -0.4024 0.8850
vn -0.0168 -0.0685 0.9975
vn 0.0190 -0.1516 0.9883
vn 0.0138 -0.1452 0.9893
vn -0.4582 -0.5553 0.6941
vn 0.0313 -0.5561 0.8305
vn -0.0065 -0.0787 0.9969
vn 0.0013 -0.0490 0.9988
vn -0.0530 0.1587 0.9859
vn -0.0066 -0.0742 0.9972
usemtl None
s off
f 1//1 2//1 3//1
f 1//2 3//2 4//2
f 5//3 7//3 6//3
f 8//4 10//4 9//4
f 9//5 7//5 5//5
f 8//6 9//6 5//6
f 6//7 11//7 5//7
f 12//8 1//8 13//8
f 4//9 13//9 1//9
f 14//10 15//10 16//10
f 14//11 16//11 17//11
f 18//12 17//12 16//12
f 19//13 20//13 14//13
f 21//14 22//14 18//14
f 15//15 23//15 16//15
f 18//16 23//16 21//16
f 18//17 16//17 23//17
f 20//18 15//18 14//18
f 24//19 25//19 21//19
f 24//20 21//20 13//20
f 21//21 25//21 22//21
f 12//22 13//22 21//22
f 12//23 21//23 23//23
f 19//24 14//24 26//24
f 27//25 20//25 28//25
f 19//26 29//26 20//26
f 26//27 14//27 17//27
f 30//28 2//28 1//28
f 29//29 31//29 20//29
f 28//30 33//30 32//30
f 33//31 34//31 35//31
f 36//32 37//32 38//32
f 35//33 37//33 36//33
f 34//34 39//34 35//34
f 7//35 37//35 35//35
f 39//36 40//36 35//36
f 41//37 38//37 7//37
f 7//38 42//38 41//38
f 43//39 9//39 10//39
f 7//40 9//40 43//40
f 43//41 42//41 7//41
f 43//42 44//42 42//42
f 43//43 10//43 44//43
f 6//44 7//44 35//44
f 6//45 35//45 45//45
f 40//46 45//46 35//46
f 11//47 8//47 5//47
f 11//48 44//48 10//48
f 11//49 10//49 8//49
f 11//50 46//50 47//50
f 48//51 47//51 46//51
f 46//52 11//52 49//52
f 50//53 49//53 11//53
f 51//54 48//54 46//54
f 51//55 52//55 48//55
f 53//56 50//56 11//56
f 51//57 55//57 54//57
f 54//58 52//58 51//58
f 56//59 52//59 57//59
f 58//60 52//60 54//60
f 59//61 56//61 60//61
f 61//62 59//62 60//62
f 62//63 61//63 63//63
f 61//64 62//64 59//64
f 59//65 65//65 64//65
f 62//66 65//66 59//66
f 65//67 67//67 66//67
f 64//68 65//68 66//68
f 66//69 68//69 64//69
f 66//70 69//70 68//70
f 66//71 67//71 69//71
f 68//72 70//72 71//72
f 70//73 68//73 69//73
f 70//74 72//74 71//74
f 73//75 18//75 22//75
f 25//76 24//76 13//76
f 6//77 53//77 11//77
f 38//78 37//78 7//78
f 20//79 31//79 28//79
f 74//80 63//80 75//80
f 15//81 20//81 76//81
f 11//82 47//82 44//82
f 71//83 72//83 77//83
f 33//84 35//84 36//84
f 56//85 57//85 75//85
f 27//86 76//86 20//86
f 31//87 33//87 28//87
f 32//88 33//88 36//88
f 74//89 78//89 63//89
f 56//90 63//90 61//90
f 56//91 61//91 60//91
f 79//92 17//92 73//92
f 73//93 17//93 18//93
f 80//94 57//94 52//94
f 52//95 58//95 80//95
f 71//96 77//96 81//96
f 63//97 56//97 75//97
