# Blender v2.79 (sub 0) OBJ File: ''
# www.blender.org
mtllib my_crack_surf__61.mtl
o my_crack_surf__61
v 145.865005 12.517275 152.240005
v 129.190994 19.752274 159.597000
v 160.987000 9.532906 149.326996
v 139.113007 -15.187618 113.234001
v 146.393005 -11.575219 119.577003
v 147.451004 -3.919301 130.822006
v 24.320801 127.254951 259.775024
v 26.844801 175.990952 265.354034
v 7.233110 130.521957 263.965027
v -4.680130 176.644958 268.965027
v 118.473999 43.890469 184.707001
v 121.502998 48.012470 187.702011
v 116.240997 55.292168 196.329010
v 144.042007 35.718773 175.582001
v 137.302002 51.823071 189.016022
v 137.468994 8.285087 148.024002
v 129.785995 -0.883257 135.705994
v 129.339005 5.007837 143.561996
v 152.929001 -4.783001 130.612000
v 157.229996 75.228271 200.796021
v 153.272003 40.793568 178.098007
v 163.598007 48.899769 183.909012
v 165.186996 31.332870 170.580994
v 111.428001 69.827469 206.405014
v 162.679993 16.089476 156.990997
v 164.199997 20.713274 161.457993
v 130.246994 -17.366016 108.183998
v 130.276993 -6.230151 127.568001
v 123.134003 123.866959 231.550018
v 104.059998 141.574951 244.520035
v 76.800400 101.375961 233.424011
v 144.166000 97.339661 213.814011
v 140.298004 102.264961 216.969009
v 133.194000 113.489960 223.820023
v 65.679199 112.966965 241.936020
v 66.307899 128.595947 248.288010
v 56.577900 161.888962 259.408020
v 31.392599 125.780960 256.980042
v 58.196800 116.484962 245.525009
v 77.049103 161.436951 256.499023
v 42.642700 173.364960 263.075043
v -12.306800 176.502960 269.740021
v -54.375900 147.330948 271.120026
v -41.498699 123.701958 268.275024
v -60.633099 169.573959 272.748016
v -59.105999 115.915955 269.126038
v -105.234001 100.678955 270.467041
v -29.834499 175.605957 271.204041
v -67.607597 166.343948 272.830017
v -83.338303 149.227951 272.138031
v -74.092903 163.957947 272.937042
v -23.423800 176.038956 270.799042
v -90.789902 151.426956 272.204041
v -98.835098 146.391953 272.304016
v -134.947998 110.394951 270.155029
v -98.431396 85.620750 269.200989
v -149.615005 93.134453 269.686005
v -166.656006 48.319359 266.449005
v -113.192001 65.724251 268.144989
v -158.365005 76.775253 268.588013
v -132.162003 40.560860 264.691010
v -127.903999 24.591757 263.700989
v -154.151993 -0.303124 261.614014
v -130.759995 13.772557 262.929993
v -128.574005 -19.822441 260.161987
v -155.173996 -32.917240 260.165985
v -160.134995 -20.814041 261.036011
v -127.672997 -31.331541 260.006989
v -141.487000 -48.559544 259.778015
v -118.346001 -52.279640 260.886993
v -129.977997 -53.065540 259.912994
v -8.324160 176.763962 269.296021
v 164.630997 41.362869 178.546997
v 63.677200 167.451950 259.220032
v -17.454500 176.593948 270.318024
v -166.449005 32.481956 265.160004
v -165.268005 -5.255003 262.516998
v -167.417007 5.471517 262.993011
v -152.643997 -37.418343 260.085999
v -147.647995 -42.751442 259.808990
v -144.559006 100.064957 269.783020
v -160.690994 69.316856 268.084991
v 90.560402 152.374954 251.766037
v -126.047997 121.363953 270.904022
v -164.996994 62.017658 267.458008
v 156.214996 0.407193 137.789993
vn -0.0102 -0.7244 0.6893
vn -0.0866 -0.8197 0.5662
vn 0.2143 -0.1220 0.9691
vn 0.1118 -0.0785 0.9906
vn 0.2215 -0.6745 0.7043
vn 0.0839 -0.6174 0.7822
vn -0.0066 -0.8002 0.5997
vn -0.0033 -0.8012 0.5984
vn -0.1533 -0.9864 0.0588
vn -0.0020 -0.7037 0.7105
vn 0.0087 -0.7960 0.6052
vn 0.0422 -0.4776 0.8776
vn 0.2475 -0.7527 0.6101
vn 0.1072 -0.5183 0.8485
vn 0.0832 -0.6176 0.7821
vn 0.0803 -0.5561 0.8272
vn 0.0786 -0.6231 0.7782
vn 0.1665 -0.5964 0.7853
vn -0.0194 -0.6914 0.7222
vn -0.0318 -0.7560 0.6538
vn 0.0039 -0.8428 0.5381
vn -0.5551 0.3491 0.7550
vn -0.0706 -0.8649 0.4970
vn 0.0432 -0.6533 0.7558
vn -0.0208 -0.7360 0.6766
vn -0.0188 -0.6986 0.7153
vn 0.1604 -0.4448 0.8812
vn 0.2305 -0.4010 0.8866
vn 0.3490 -0.3137 0.8831
vn 0.2543 -0.4527 0.8546
vn 0.3524 -0.3149 0.8813
vn 0.8309 0.5099 0.2227
vn 0.2895 -0.3704 0.8826
vn 0.2257 -0.3984 0.8890
vn 0.2979 -0.2694 0.9158
vn 0.1048 -0.2874 0.9521
vn 0.3038 -0.2733 0.9127
vn 0.1290 -0.2800 0.9513
vn 0.1398 -0.1198 0.9829
vn 0.1117 -0.1769 0.9779
vn 0.0839 -0.0739 0.9937
vn 0.0696 -0.0533 0.9961
vn -0.0274 0.1696 0.9851
vn 0.1023 -0.0811 0.9914
vn 0.0925 -0.2239 0.9702
vn -0.1930 -0.2203 0.9562
vn 0.0472 -0.0836 0.9954
vn 0.0918 -0.7760 0.6240
vn 0.0403 -0.0617 0.9973
vn 0.0411 -0.0459 0.9981
vn -0.0443 -0.1036 0.9936
vn 0.0049 -0.0313 0.9995
vn -0.0190 -0.0389 0.9991
vn -0.0011 -0.0716 0.9974
vn 0.0329 -0.0845 0.9959
vn 0.0170 -0.1485 0.9888
vn -0.0165 -0.0662 0.9977
vn 0.0302 -0.0912 0.9954
vn -0.0159 -0.0669 0.9976
vn -0.0064 -0.0825 0.9966
vn 0.0223 -0.0450 0.9987
vn 0.0621 -0.0462 0.9970
vn 0.0065 -0.0130 0.9999
vn 0.0069 -0.0188 0.9998
vn -0.0443 0.0222 0.9988
vn -0.0721 -0.1546 0.9854
vn 0.0952 0.2049 0.9741
vn 0.0002 -0.6219 0.7831
vn 0.1362 -0.1407 0.9806
vn 0.1390 -0.1443 0.9797
vn 0.1025 -0.2740 0.9563
vn 0.0735 -0.0799 0.9941
vn 0.0923 -0.0257 0.9954
vn -0.3291 -0.3538 0.8755
vn 0.0595 -0.0699 0.9958
vn -0.0128 -0.0286 0.9995
vn -0.0012 -0.0339 0.9994
vn 0.1070 -0.0592 0.9925
vn -0.1087 0.0654 0.9919
vn -0.1071 -0.8171 0.5664
vn 0.0198 -0.7165 0.6973
vn 0.0992 -0.0824 0.9916
vn 0.3475 -0.1706 0.9220
vn 0.0481 -0.8334 0.5505
vn 0.7708 -0.1703 0.6139
vn 0.1420 -0.2836 0.9484
vn -0.0733 -0.0812 0.9940
vn -0.0259 -0.0472 0.9986
vn 0.2111 -0.3488 0.9131
vn -0.0031 -0.5800 0.8146
vn -0.0060 -0.0504 0.9987
vn -0.0166 -0.0378 0.9991
vn -0.0260 -0.0703 0.9972
vn -0.6618 -0.4302 0.6140
vn 0.0676 -0.0822 0.9943
vn 0.2528 -0.3730 0.8927
vn 0.0493 -0.0615 0.9969
vn 0.0225 -0.0051 0.9997
usemtl None
s off
f 1//1 3//1 2//1
f 4//2 5//2 6//2
f 7//3 8//3 9//3
f 10//4 9//4 8//4
f 11//5 12//5 13//5
f 14//6 15//6 12//6
f 16//7 18//7 17//7
f 16//8 17//8 19//8
f 6//9 19//9 17//9
f 3//10 1//10 16//10
f 3//11 16//11 19//11
f 20//12 12//12 15//12
f 14//13 21//13 22//13
f 20//14 15//14 22//14
f 14//15 22//15 15//15
f 14//16 23//16 21//16
f 11//17 14//17 12//17
f 12//18 20//18 24//18
f 25//19 26//19 2//19
f 25//20 2//20 3//20
f 17//21 4//21 6//21
f 18//22 16//22 1//22
f 27//23 4//23 28//23
f 14//24 26//24 23//24
f 18//25 1//25 2//25
f 14//26 2//26 26//26
f 20//27 29//27 24//27
f 30//28 31//28 29//28
f 32//29 29//29 20//29
f 24//30 29//30 31//30
f 33//31 34//31 29//31
f 33//32 29//32 32//32
f 31//33 36//33 35//33
f 30//34 36//34 31//34
f 37//35 38//35 39//35
f 37//36 39//36 36//36
f 37//37 7//37 38//37
f 37//38 36//38 40//38
f 37//39 8//39 7//39
f 8//40 37//40 41//40
f 42//41 43//41 44//41
f 45//42 43//42 42//42
f 44//43 47//43 46//43
f 9//44 10//44 42//44
f 45//45 42//45 48//45
f 44//46 43//46 49//46
f 50//47 49//47 51//47
f 52//48 48//48 42//48
f 45//49 49//49 43//49
f 47//50 53//50 54//50
f 55//51 56//51 47//51
f 56//52 55//52 57//52
f 58//53 59//53 56//53
f 56//54 57//54 58//54
f 58//55 57//55 60//55
f 59//56 58//56 61//56
f 62//57 61//57 63//57
f 58//58 63//58 61//58
f 64//59 62//59 63//59
f 63//60 65//60 64//60
f 63//61 66//61 65//61
f 67//62 66//62 63//62
f 66//63 68//63 65//63
f 66//64 69//64 68//64
f 70//65 68//65 69//65
f 71//66 70//66 69//66
f 72//67 42//67 10//67
f 21//68 23//68 73//68
f 74//69 37//69 40//69
f 41//70 37//70 74//70
f 75//71 52//71 42//71
f 76//72 63//72 58//72
f 77//73 63//73 78//73
f 79//74 80//74 69//74
f 49//75 47//75 44//75
f 50//76 47//76 49//76
f 53//77 47//77 50//77
f 77//78 67//78 63//78
f 81//79 57//79 55//79
f 19//80 6//80 5//80
f 2//81 14//81 11//81
f 42//82 44//82 9//82
f 60//83 82//83 58//83
f 17//84 28//84 4//84
f 13//85 12//85 24//85
f 83//86 40//86 36//86
f 62//87 59//87 61//87
f 55//88 47//88 84//88
f 83//89 36//89 30//89
f 73//90 22//90 21//90
f 53//91 50//91 51//91
f 84//92 47//92 54//92
f 82//93 85//93 58//93
f 86//94 3//94 19//94
f 78//95 63//95 76//95
f 39//96 35//96 36//96
f 47//97 56//97 46//97
f 79//98 69//98 66//98
