# Blender v2.79 (sub 0) OBJ File: ''
# www.blender.org
mtllib my_crack_surf__146.mtl
o my_crack_surf__146
v 130.274002 -9.331090 120.037003
v 146.182007 -16.918818 105.844002
v 147.667007 -10.870019 119.156998
v 22.105801 142.597961 261.234039
v 0.656158 157.197952 266.340027
v 3.743970 147.173950 266.253021
v 21.624201 184.070953 267.341034
v -19.315300 185.195953 271.640045
v -13.754800 162.256958 268.553040
v -7.242470 184.798950 270.286041
v 129.294998 5.463787 143.020996
v 166.233002 4.148897 140.542007
v 162.662003 -1.967941 131.358994
v 164.496994 0.738744 136.007996
v 153.341995 40.728168 177.404999
v 116.239998 55.292770 196.323013
v 118.466003 43.919170 184.705002
v 171.401001 34.767975 173.757996
v 169.929993 23.685173 163.408005
v -111.091003 -148.944046 262.098969
v -130.110001 -129.232040 262.191956
v -42.049301 -124.596046 260.465973
v 144.804993 70.785667 199.644012
v 168.117996 67.699966 196.550018
v 156.026001 50.915070 184.718018
v 14.889000 -145.517044 258.412964
v 0.000000 -131.500046 258.824982
v 17.388599 -159.326050 258.751984
v 39.310299 -139.487045 257.213959
v 49.858200 -181.529053 260.277985
v 77.243896 -168.716049 259.618958
v 89.987801 -113.661041 255.954987
v 79.019997 -120.958038 256.904968
v 71.323402 -107.279037 256.945984
v 106.820999 -100.530037 253.507980
v 93.645302 -92.313438 253.727982
v 154.479996 -87.565941 248.257980
v 159.285004 -75.038940 246.089981
v 136.817001 -77.729240 246.717987
v 129.147003 20.200073 159.067001
v 169.061996 16.122974 155.158997
v 172.957993 51.629368 185.647018
v 112.473999 66.667168 203.797012
v 154.802994 95.454865 212.723022
v 101.971001 78.446259 213.021011
v 116.455002 108.720963 226.352020
v 75.609200 102.466965 232.729019
v 88.613098 112.866959 235.305008
v 151.044998 -14.845918 109.931999
v 130.266006 -16.732317 105.958000
v 102.398003 135.389954 241.738022
v 108.192001 125.594963 236.171021
v 122.450996 134.470947 237.289017
v 66.072800 128.732956 247.364014
v 94.696999 159.787949 252.447037
v 110.447998 147.346954 245.337036
v 52.398701 133.665955 249.907013
v 50.573700 119.342964 245.067017
v 37.880402 123.687965 251.490021
v 64.043800 114.532959 241.717010
v 23.267000 127.246956 258.218018
v 35.290298 150.492950 259.150024
v 47.520302 160.873947 259.568024
v 5.473310 138.862961 265.011017
v 7.233110 130.521957 263.965027
v -41.830799 123.699951 267.784027
v 42.523602 182.099960 264.681030
v 33.671398 183.426956 265.907043
v 61.337200 177.233948 261.559021
v -33.694302 167.822952 270.859039
v -40.005199 183.931961 273.098022
v -106.555000 156.278961 273.892029
v -58.986698 116.108955 268.456024
v -73.158699 175.024948 273.611023
v -62.686199 178.813950 273.376038
v -98.234901 85.830055 268.656006
v -105.225998 100.689957 269.867035
v -113.192001 65.724251 268.144989
v -126.099998 135.345947 272.699036
v -144.934998 118.661957 271.613037
v -178.806000 67.957954 268.375000
v -184.104996 54.699860 267.730988
v -174.134003 77.912155 268.953003
v -127.900002 24.638157 264.156006
v -186.419998 46.785858 267.316986
v -130.757004 13.801257 263.210999
v -157.113998 -10.364243 262.385010
v -129.240005 -8.056003 261.338013
v -127.958000 -30.289541 260.627991
v -123.099998 -41.409641 260.760986
v -178.580994 -72.050644 262.626007
v -113.346001 -63.434040 262.842010
v -186.468994 0.640117 264.273987
v -187.222000 -8.098793 263.907990
v -188.852005 -34.661243 263.140991
v -133.399994 -86.717049 261.858002
v -137.582993 -122.878044 262.169983
v -92.459000 -113.979042 261.054962
v -108.404999 -74.428848 262.651001
v -82.023598 -102.782043 261.324982
v -93.539902 -161.517044 261.959961
v -70.744698 -174.117050 262.102966
v 36.847401 -124.358040 257.480957
v 24.629700 -126.712036 257.271973
v 49.054401 -122.007042 256.807983
v 23.078699 -175.912048 260.018982
v 130.188995 -88.432541 249.163986
v 122.714996 -47.156837 243.243988
v 133.389999 -56.861938 243.963989
v 128.789001 -3.855088 233.348999
v 161.531998 -10.780638 232.962006
v 165.231003 -49.909039 241.605988
v 165.319000 -24.869038 236.326996
v 153.826004 7.710993 227.960007
v 156.906998 1.729103 229.516006
v 138.311996 19.008663 223.800003
v 131.076996 9.238263 228.699997
v 148.363998 12.350263 226.304993
v 168.440994 12.553175 151.141006
v 167.681000 9.355456 147.436996
v -22.869600 185.079956 271.964020
v -150.667999 113.361954 271.048035
v -157.182007 106.077957 270.574036
v -28.426701 184.728958 272.475037
v -34.788700 184.755951 272.909027
v -133.714005 -126.199043 262.232971
v 127.666000 20.511065 223.942993
v 159.800995 -5.906401 125.754997
v 129.425003 0.691287 231.783005
v -33.949501 -184.384048 261.827972
v 30.758301 -183.399048 260.383972
v -164.858994 94.474655 269.876038
v -57.530701 -178.714050 262.151978
v -186.869995 29.187857 266.157013
v -186.067001 11.857457 264.934998
v -154.867004 -106.761047 262.259979
v -165.382004 -94.150543 262.304962
v -81.848801 -168.815048 261.699982
v -2.587150 183.417953 269.594025
v 126.292000 -125.652039 254.726990
v 71.567802 173.800949 259.274017
v -188.578995 -19.425444 263.627991
v 162.388000 -63.118439 244.101990
v 129.063995 -22.320215 95.050499
v 99.446899 -156.056046 258.619965
v -99.256798 162.245956 274.126038
v 147.376999 -98.215935 249.977982
v -184.074997 -57.781643 262.811005
v -168.684006 -88.885147 262.397003
vn -0.0590 -0.9063 0.4184
vn 0.2810 0.0782 0.9565
vn 0.1362 -0.1428 0.9803
vn 0.1073 -0.1070 0.9884
vn 0.0074 -0.8336 0.5524
vn -0.9151 -0.0636 0.3982
vn 0.0832 -0.7041 0.7052
vn -0.0747 -0.6753 0.7337
vn 0.0185 -0.8184 0.5744
vn 0.0189 0.0135 0.9997
vn 0.0784 -0.3451 0.9353
vn 0.1496 -0.6394 0.7542
vn 0.1614 -0.6032 0.7810
vn 0.0611 0.0355 0.9975
vn -0.0090 0.0704 0.9975
vn 0.0643 0.0332 0.9974
vn 0.0734 0.0910 0.9931
vn 0.0075 0.1677 0.9858
vn 0.0800 -0.7149 0.6947
vn -0.0090 -0.7366 0.6762
vn -0.0471 -0.8408 0.5392
vn -0.0206 -0.5749 0.8180
vn -0.0262 -0.5784 0.8153
vn -0.0214 -0.5657 0.8243
vn -0.0091 -0.7365 0.6763
vn 0.1734 -0.5153 0.8393
vn 0.2132 -0.4774 0.8524
vn 0.2088 -0.4731 0.8559
vn 0.2046 -0.4748 0.8560
vn 0.0518 -0.4841 0.8735
vn 0.0446 -0.9114 0.4091
vn -0.0070 -0.8851 0.4653
vn -0.1111 -0.5399 0.8344
vn 0.1720 -0.4188 0.8916
vn 0.2277 -0.3937 0.8906
vn 0.2098 -0.3851 0.8987
vn 0.1740 -0.3132 0.9336
vn 0.3295 -0.3397 0.8809
vn 0.0934 -0.3794 0.9205
vn 0.0578 -0.3262 0.9435
vn 0.3259 -0.3339 0.8845
vn 0.3089 -0.1971 0.9305
vn 0.0584 -0.3247 0.9440
vn 0.2161 -0.2921 0.9317
vn 0.3115 -0.0767 0.9471
vn 0.3281 -0.0491 0.9434
vn 0.0986 -0.1270 0.9870
vn 0.0917 -0.1048 0.9903
vn 0.1659 -0.1418 0.9759
vn 0.4403 -0.5473 0.7118
vn 0.1040 -0.2097 0.9722
vn 0.1055 -0.1967 0.9748
vn 0.1073 -0.2089 0.9720
vn 0.0763 -0.0833 0.9936
vn 0.1409 0.0348 0.9894
vn -0.0279 -0.4662 0.8842
vn 0.1189 -0.0908 0.9887
vn 0.0647 -0.0581 0.9962
vn 0.0535 -0.0804 0.9953
vn 0.0764 -0.1078 0.9912
vn 0.0829 -0.1131 0.9901
vn 0.0322 -0.0888 0.9955
vn 0.0203 -0.0717 0.9972
vn 0.0460 -0.0596 0.9972
vn 0.0096 -0.0757 0.9971
vn -0.1350 0.0058 0.9908
vn 0.0307 -0.0612 0.9977
vn 0.0636 -0.1033 0.9926
vn 0.0442 -0.0822 0.9956
vn 0.0400 -0.0296 0.9988
vn -0.0149 0.0875 0.9961
vn -0.4646 0.0029 0.8855
vn 0.0509 -0.0355 0.9981
vn 0.0508 -0.0138 0.9986
vn 0.0284 -0.0060 0.9996
vn 0.0191 0.0064 0.9998
vn -0.0681 0.0165 0.9975
vn 0.0293 -0.0232 0.9993
vn -0.4353 -0.2108 0.8752
vn 0.0184 0.0319 0.9993
vn 0.0183 0.0250 0.9995
vn 0.0055 -0.0292 0.9996
vn 0.0122 -0.0354 0.9993
vn 0.0185 0.0147 0.9997
vn 0.0091 0.0278 0.9996
vn 0.0430 0.0242 0.9988
vn -0.0133 -0.0198 0.9997
vn 0.0567 -0.0084 0.9984
vn -0.3045 -0.0318 0.9520
vn 0.0391 0.0403 0.9984
vn 0.0292 0.0799 0.9964
vn 0.0015 0.0532 0.9986
vn -0.0031 -0.0047 1.0000
vn 0.2541 -0.1476 0.9558
vn 0.5395 -0.7653 0.3510
vn 0.0832 0.0893 0.9925
vn 0.0889 0.1706 0.9813
vn 0.1057 0.1589 0.9816
vn 0.1097 0.1477 0.9829
vn 0.1209 0.2050 0.9713
vn 0.6476 0.2033 0.7344
vn 0.0503 0.1831 0.9818
vn -0.0260 0.2063 0.9781
vn 0.1001 0.2985 0.9491
vn 0.0505 0.4176 0.9072
vn 0.0563 0.3936 0.9176
vn -0.3363 -0.6777 0.6539
vn 0.0925 -0.5855 0.8054
vn -0.2146 0.1289 0.9682
vn 0.0660 -0.1930 0.9790
vn 0.5872 0.6918 0.4203
vn 0.0695 0.4056 0.9114
vn 0.0570 -0.0673 0.9961
vn 0.0758 -0.9863 0.1466
vn 0.0307 -0.8251 0.5642
vn 0.0161 -0.0718 0.9973
vn -0.0254 -0.6491 0.7602
vn 0.0264 -0.0725 0.9970
vn 0.2801 0.2773 0.9190
vn 0.0526 0.3260 0.9439
vn -0.0510 0.2190 0.9744
vn 0.0457 0.0289 0.9985
vn 0.0007 0.0494 0.9988
vn 0.0069 -0.0646 0.9979
vn 0.1073 0.1458 0.9835
vn 0.0521 0.1601 0.9857
vn 0.0193 0.0827 0.9964
vn -0.3448 0.0324 0.9381
vn 0.1897 -0.3979 0.8976
vn 0.1300 -0.8924 0.4322
vn 0.1425 -0.4783 0.8666
vn 0.1770 -0.3977 0.9003
vn 0.1928 -0.4213 0.8862
vn 0.0351 -0.0687 0.9970
vn -0.0462 -0.0421 0.9980
vn -0.2061 -0.3625 0.9089
vn 0.1145 -0.1090 0.9874
vn 0.0082 -0.0773 0.9970
vn 0.1699 -0.4319 0.8858
vn 0.2770 -0.3890 0.8786
vn 0.0518 -0.0814 0.9953
vn -0.0128 -0.0192 0.9997
vn 0.0416 -0.0603 0.9973
vn 0.2514 -0.1682 0.9531
vn 0.0144 0.0247 0.9996
vn 0.0596 0.1415 0.9882
vn 0.0275 -0.0671 0.9974
vn -0.0237 -0.0424 0.9988
vn 0.1202 -0.2673 0.9561
vn 0.1568 -0.2702 0.9500
vn 0.1369 -0.2328 0.9628
vn 0.0046 -0.0867 0.9962
vn 0.0709 -0.0331 0.9969
vn 0.1727 -0.5003 0.8484
vn 0.2196 -0.1721 0.9603
vn -0.4268 0.2558 0.8674
vn 0.0723 0.2884 0.9548
vn 0.0948 -0.0988 0.9906
vn 0.1088 -0.1216 0.9866
vn -0.0072 -0.8897 0.4566
vn 0.0067 0.1741 0.9847
vn -0.0190 0.0574 0.9982
vn -0.0041 0.0255 0.9997
vn 0.0212 0.0703 0.9973
vn 0.0128 0.0563 0.9983
vn 0.0538 0.0799 0.9953
vn 0.0218 0.0215 0.9995
vn 0.0119 -0.7992 0.6010
vn 0.0004 -0.7521 0.6591
vn 0.0954 -0.1553 0.9832
vn 0.0600 0.1869 0.9805
vn 0.0020 0.1581 0.9874
vn 0.0352 0.1441 0.9889
vn 0.0569 0.0311 0.9979
vn 0.2125 -0.4100 0.8870
vn 0.0378 -0.0667 0.9971
vn 0.0026 -0.0444 0.9990
vn -0.0073 -0.0158 0.9998
vn 0.0983 0.0443 0.9942
usemtl None
s off
f 1//1 2//1 3//1
f 4//2 5//2 6//2
f 5//3 4//3 7//3
f 8//4 9//4 10//4
f 11//5 13//5 12//5
f 14//6 12//6 13//6
f 15//7 16//7 17//7
f 18//8 15//8 19//8
f 11//9 3//9 13//9
f 20//10 22//10 21//10
f 16//11 24//11 23//11
f 16//12 25//12 24//12
f 15//13 25//13 16//13
f 26//14 27//14 28//14
f 29//15 30//15 31//15
f 32//16 34//16 33//16
f 32//17 35//17 36//17
f 37//18 38//18 39//18
f 17//19 40//19 15//19
f 19//20 11//20 41//20
f 1//21 3//21 11//21
f 18//22 42//22 25//22
f 18//23 25//23 15//23
f 24//24 25//24 42//24
f 40//25 11//25 19//25
f 43//26 23//26 44//26
f 45//27 43//27 46//27
f 45//28 48//28 47//28
f 45//29 46//29 48//29
f 24//30 44//30 23//30
f 49//31 3//31 2//31
f 1//32 50//32 2//32
f 51//33 46//33 52//33
f 44//34 53//34 46//34
f 51//35 48//35 46//35
f 51//36 54//36 48//36
f 54//37 56//37 55//37
f 57//38 59//38 58//38
f 58//39 60//39 54//39
f 58//40 54//40 57//40
f 57//41 61//41 59//41
f 62//42 61//42 57//42
f 54//43 63//43 57//43
f 62//44 57//44 63//44
f 61//45 6//45 64//45
f 64//46 65//46 61//46
f 66//47 64//47 6//47
f 64//48 66//48 65//48
f 4//49 63//49 7//49
f 4//50 62//50 63//50
f 7//51 63//51 67//51
f 68//52 7//52 67//52
f 69//53 67//53 63//53
f 66//54 6//54 70//54
f 70//55 6//55 5//55
f 70//56 5//56 9//56
f 70//57 71//57 66//57
f 66//58 72//58 73//58
f 72//59 66//59 74//59
f 8//60 71//60 70//60
f 8//61 70//61 9//61
f 71//62 75//62 66//62
f 76//63 72//63 77//63
f 77//64 78//64 76//64
f 79//65 80//65 77//65
f 81//66 82//66 83//66
f 84//67 82//67 85//67
f 86//68 84//68 87//68
f 87//69 88//69 86//69
f 89//70 88//70 87//70
f 90//71 91//71 92//71
f 93//72 94//72 95//72
f 93//73 95//73 87//73
f 89//74 87//74 91//74
f 91//75 87//75 95//75
f 96//76 91//76 97//76
f 96//77 97//77 92//77
f 98//78 92//78 97//78
f 98//79 99//79 92//79
f 22//80 98//80 97//80
f 22//81 97//81 21//81
f 98//82 22//82 100//82
f 99//83 98//83 100//83
f 22//84 20//84 101//84
f 22//85 101//85 102//85
f 22//86 28//86 27//86
f 29//87 103//87 104//87
f 103//88 29//88 105//88
f 106//89 26//89 28//89
f 29//90 104//90 26//90
f 26//91 30//91 29//91
f 106//92 30//92 26//92
f 105//93 33//93 34//93
f 107//94 35//94 32//94
f 107//95 32//95 33//95
f 34//96 32//96 36//96
f 108//97 36//97 109//97
f 36//98 107//98 39//98
f 36//99 39//99 109//99
f 109//100 110//100 108//100
f 109//101 39//101 110//101
f 110//102 39//102 111//102
f 39//103 112//103 113//103
f 114//104 111//104 115//104
f 116//105 117//105 118//105
f 114//106 118//106 117//106
f 119//107 41//107 120//107
f 121//108 71//108 8//108
f 122//109 123//109 80//109
f 124//110 125//110 71//110
f 21//111 97//111 126//111
f 127//112 117//112 116//112
f 76//113 73//113 72//113
f 71//114 121//114 124//114
f 128//115 13//115 3//115
f 79//116 77//116 72//116
f 19//117 15//117 40//117
f 84//118 85//118 87//118
f 129//119 110//119 117//119
f 114//120 117//120 110//120
f 39//121 113//121 111//121
f 28//122 22//122 130//122
f 106//123 131//123 30//123
f 132//124 77//124 123//124
f 107//125 36//125 35//125
f 130//126 102//126 133//126
f 106//127 28//127 130//127
f 84//128 78//128 77//128
f 51//129 52//129 56//129
f 3//130 49//130 128//130
f 44//131 46//131 43//131
f 52//132 53//132 56//132
f 53//133 52//133 46//133
f 134//134 135//134 87//134
f 136//135 91//135 137//135
f 101//136 138//136 102//136
f 9//137 139//137 10//137
f 84//138 77//138 132//138
f 54//139 47//139 48//139
f 47//140 54//140 60//140
f 75//141 74//141 66//141
f 136//142 97//142 91//142
f 87//143 135//143 93//143
f 61//144 62//144 4//144
f 22//145 102//145 130//145
f 107//146 33//146 140//146
f 82//147 84//147 132//147
f 132//148 83//148 82//148
f 55//149 141//149 54//149
f 141//150 63//150 54//150
f 141//151 69//151 63//151
f 77//152 80//152 123//152
f 95//153 94//153 142//153
f 43//154 16//154 23//154
f 4//155 6//155 61//155
f 143//156 112//156 38//156
f 111//157 114//157 110//157
f 139//158 9//158 7//158
f 7//159 9//159 5//159
f 2//160 50//160 144//160
f 38//161 112//161 39//161
f 29//162 31//162 33//162
f 33//163 105//163 29//163
f 130//164 131//164 106//164
f 33//165 31//165 145//165
f 33//166 145//166 140//166
f 89//167 91//167 90//167
f 120//168 11//168 12//168
f 120//169 41//169 11//169
f 72//170 74//170 146//170
f 147//171 39//171 107//171
f 147//172 37//172 39//172
f 140//173 147//173 107//173
f 104//174 27//174 26//174
f 54//175 51//175 56//175
f 134//176 87//176 85//176
f 91//177 96//177 92//177
f 148//178 91//178 95//178
f 149//179 137//179 91//179
