# Blender v2.79 (sub 0) OBJ File: ''
# www.blender.org
mtllib my_crack_surf__67.mtl
o my_crack_surf__67
v 161.819000 12.845076 153.128006
v 161.082001 9.658116 149.207001
v 153.388000 -4.141272 131.154999
v 130.266998 -17.343918 108.091003
v 139.042007 -15.120018 113.111000
v 146.317993 -11.472619 119.508003
v 144.421997 97.341461 213.785019
v 124.744003 60.520271 197.777008
v 111.428001 69.828171 206.322021
v 76.506302 101.644958 233.238022
v 24.387100 127.255951 259.873016
v 32.268200 169.074951 263.944031
v 3.743970 147.173950 266.253021
v 118.430000 44.049168 184.699005
v 116.240997 55.292168 196.329010
v -98.383003 85.672356 269.066986
v -147.985001 101.559952 270.538025
v -144.182007 90.358856 270.000000
v 129.330994 5.092516 143.460999
v 129.785995 -0.700223 135.554993
v 146.908005 19.044674 159.041000
v 133.324997 60.779068 195.693008
v 162.117004 54.051868 187.046021
v 164.751007 41.356968 178.457993
v 156.113998 17.081976 156.526993
v 164.186005 21.020473 161.451996
v 165.139999 31.381571 170.490005
v 129.182999 19.828474 159.507004
v 146.378998 92.886261 211.259018
v 157.501007 75.382271 200.835022
v 99.720901 146.170959 248.460037
v 133.473999 113.479965 223.853012
v 128.847000 117.572960 227.025009
v 123.226997 123.982964 231.732010
v 65.561600 113.043961 241.542023
v 92.907097 151.542953 251.523026
v 58.810299 116.299965 244.788010
v 31.448799 125.763962 256.912018
v 50.075401 149.380951 257.010040
v 78.093498 161.859955 256.518036
v 63.688400 168.444962 259.996033
v 7.233110 130.521957 263.965027
v 42.854000 174.094955 263.315033
v -41.555302 123.701958 268.191040
v 27.017500 176.551956 265.482025
v -28.395800 176.731949 271.305023
v -67.137604 141.815948 271.184021
v -62.605801 169.856949 272.540039
v -59.191399 115.890953 269.024017
v -0.885300 177.086960 268.669037
v -4.447740 177.369949 268.956024
v -17.122299 177.285950 270.387024
v -20.045200 177.437958 270.622040
v -40.016602 174.782959 271.692017
v -51.065399 172.431961 272.218018
v -75.232903 138.307953 270.876038
v -97.517998 149.267960 272.863037
v -77.090103 163.832947 273.092041
v -101.390999 122.451958 270.847015
v -53.968899 172.158951 272.330017
v -24.095900 177.155960 270.880035
v -68.050201 167.860947 272.629028
v -106.509003 141.536957 272.185028
v -157.487000 87.172554 269.342010
v -144.246002 80.948753 269.417999
v -143.039993 70.489456 267.976013
v -113.192001 65.724251 268.144989
v -154.216995 55.130459 266.522003
v -123.302002 37.894157 265.282013
v -132.153000 40.580959 264.772003
v -130.759995 13.769457 262.899994
v -171.841003 18.040657 264.759003
v -170.432999 49.040257 267.178009
v -127.931000 -30.406643 259.998993
v -160.091003 -21.003742 261.020996
v -136.572006 -73.020645 261.992004
v -113.984001 -61.433243 262.726013
v -144.904007 -65.486145 261.289001
v -125.695000 -80.620049 262.742004
v -110.427002 -71.231148 263.773987
v -170.072998 -17.673742 262.259003
v -156.990997 -49.493542 261.259003
v -113.223999 -85.085449 262.578003
v -100.679001 -83.040649 262.085999
v -118.445000 -84.171944 262.803009
v -167.171997 63.641258 267.885010
v -33.851398 175.963959 271.433044
v 163.666000 48.781471 183.762009
vn -0.1528 -0.7526 0.6405
vn -0.1600 -0.7682 0.6199
vn 0.2093 -0.4818 0.8509
vn 0.2123 -0.4848 0.8485
vn 0.1776 -0.1285 0.9757
vn 0.2883 -0.6608 0.6930
vn 0.0160 -0.0426 0.9990
vn -0.0075 -0.8068 0.5907
vn -0.0305 -0.7273 0.6857
vn 0.0077 -0.7926 0.6097
vn 0.1970 -0.6548 0.7297
vn 0.0960 -0.6050 0.7904
vn 0.0805 -0.5470 0.8333
vn 0.0028 -0.7832 0.6217
vn 0.1213 -0.5166 0.8476
vn -0.0215 -0.8402 0.5419
vn -0.0551 -0.8543 0.5168
vn -0.3979 -0.5820 0.7092
vn -0.0148 -0.7365 0.6763
vn -0.0338 -0.6406 0.7672
vn 0.0935 -0.4649 0.8804
vn 0.2201 -0.4855 0.8461
vn 0.2255 -0.4184 0.8798
vn 0.0857 -0.4626 0.8824
vn 0.1329 -0.5176 0.8452
vn 0.2967 -0.3524 0.8876
vn 0.2690 -0.3817 0.8843
vn 0.5974 -0.0633 0.7994
vn 0.2474 -0.4040 0.8807
vn 0.2482 -0.4080 0.8786
vn 0.1317 -0.1079 0.9854
vn 0.3259 -0.2608 0.9087
vn 0.1233 -0.2389 0.9632
vn 0.2249 -0.1363 0.9648
vn 0.2151 -0.0886 0.9726
vn 0.0950 -0.2199 0.9709
vn 0.1016 -0.1145 0.9882
vn 0.1533 -0.2020 0.9673
vn 0.1161 -0.1213 0.9858
vn 0.1148 -0.0448 0.9924
vn 0.0835 -0.0790 0.9934
vn 0.0638 -0.0743 0.9952
vn 0.0472 -0.0559 0.9973
vn 0.0737 -0.0603 0.9955
vn 0.0961 -0.1796 0.9790
vn 0.0920 0.1624 0.9824
vn 0.0807 0.0101 0.9967
vn 0.2060 -0.8664 0.4550
vn 0.0191 0.0839 0.9963
vn 0.0213 -0.1362 0.9905
vn 0.0416 -0.0550 0.9976
vn 0.1051 -0.1629 0.9810
vn 0.0361 -0.0454 0.9983
vn 0.0943 -0.5923 0.8002
vn 0.0462 -0.0823 0.9955
vn -0.0132 0.7712 0.6364
vn -0.1320 0.4004 0.9068
vn 0.0123 -0.0539 0.9985
vn -0.0346 -0.0615 0.9975
vn -0.0116 -0.0375 0.9992
vn 0.0100 -0.1008 0.9949
vn 0.5277 -0.0560 0.8476
vn -0.0080 -0.0885 0.9960
vn -0.0736 -0.1445 0.9868
vn -0.1607 -0.3545 0.9212
vn -0.0796 -0.0735 0.9941
vn 0.0706 -0.0808 0.9942
vn 0.0386 -0.0630 0.9973
vn 0.0041 -0.0941 0.9956
vn -0.0628 0.0593 0.9963
vn -0.0355 0.0539 0.9979
vn -0.0479 0.0300 0.9984
vn -0.1081 0.0668 0.9919
vn 0.1102 -0.1254 0.9860
vn -0.0939 -0.6968 0.7111
vn 0.1304 0.0225 0.9912
vn 0.0548 -0.0968 0.9938
vn 0.0269 -0.0914 0.9955
vn -0.0346 -0.0535 0.9980
vn 0.0485 -0.0818 0.9955
vn -0.0089 -0.6524 0.7578
vn 0.0537 -0.7083 0.7039
vn 0.1016 -0.0645 0.9927
vn 0.0317 -0.0733 0.9968
vn -0.1268 0.2073 0.9700
vn 0.1357 -0.2671 0.9541
vn 0.0506 -0.0824 0.9953
vn 0.0353 0.0122 0.9993
vn 0.2351 -0.3970 0.8872
vn 0.1756 -0.5176 0.8374
vn 0.0638 -0.0625 0.9960
vn -0.0090 -0.0878 0.9961
vn -0.0208 -0.0948 0.9953
vn -0.0262 0.3427 0.9391
vn -0.4337 -0.5649 0.7020
vn 0.1156 -0.0386 0.9925
vn 0.0281 0.0231 0.9993
vn 0.0364 -0.0647 0.9972
vn 0.0381 -0.0676 0.9970
vn 0.1173 -0.3755 0.9194
vn -0.0350 -0.0598 0.9976
vn -0.0123 -0.0732 0.9972
usemtl None
s off
f 1//1 3//1 2//1
f 4//2 5//2 6//2
f 7//3 9//3 8//3
f 10//4 9//4 7//4
f 11//5 12//5 13//5
f 8//6 15//6 14//6
f 16//7 17//7 18//7
f 19//8 20//8 3//8
f 1//9 21//9 19//9
f 1//10 19//10 3//10
f 22//11 8//11 14//11
f 22//12 14//12 23//12
f 24//13 23//13 14//13
f 25//14 26//14 21//14
f 25//15 21//15 1//15
f 3//16 20//16 6//16
f 20//17 4//17 6//17
f 24//18 26//18 27//18
f 19//19 21//19 28//19
f 24//20 21//20 26//20
f 22//21 30//21 29//21
f 22//22 7//22 8//22
f 31//23 10//23 7//23
f 29//24 7//24 22//24
f 30//25 22//25 23//25
f 32//26 33//26 7//26
f 31//27 7//27 34//27
f 33//28 34//28 7//28
f 10//29 36//29 35//29
f 36//30 38//30 37//30
f 39//31 38//31 36//31
f 11//32 38//32 39//32
f 40//33 41//33 39//33
f 12//34 11//34 39//34
f 11//35 13//35 42//35
f 39//36 41//36 43//36
f 42//37 13//37 44//37
f 39//38 43//38 12//38
f 45//39 12//39 43//39
f 46//40 13//40 12//40
f 46//41 44//41 13//41
f 46//42 47//42 44//42
f 48//43 47//43 46//43
f 47//44 49//44 44//44
f 50//45 46//45 12//45
f 50//46 51//46 46//46
f 52//47 53//47 46//47
f 54//48 55//48 48//48
f 54//49 48//49 46//49
f 56//50 47//50 57//50
f 47//51 48//51 57//51
f 58//52 57//52 48//52
f 59//53 16//53 49//53
f 52//54 46//54 51//54
f 55//55 60//55 48//55
f 61//56 46//56 53//56
f 58//57 48//57 62//57
f 17//58 16//58 63//58
f 64//59 65//59 18//59
f 66//60 67//60 16//60
f 16//61 18//61 66//61
f 66//62 18//62 65//62
f 68//63 66//63 64//63
f 66//64 65//64 64//64
f 69//65 68//65 70//65
f 71//66 69//66 70//66
f 72//67 68//67 73//67
f 71//68 72//68 74//68
f 72//69 75//69 74//69
f 74//70 76//70 77//70
f 76//71 74//71 78//71
f 76//72 79//72 77//72
f 77//73 79//73 80//73
f 12//74 45//74 50//74
f 1//75 26//75 25//75
f 81//76 82//76 75//76
f 83//77 84//77 80//77
f 80//78 85//78 83//78
f 85//79 80//79 79//79
f 59//80 56//80 57//80
f 28//81 21//81 24//81
f 28//82 24//82 14//82
f 81//83 75//83 72//83
f 59//84 49//84 47//84
f 56//85 59//85 47//85
f 39//86 36//86 40//86
f 86//87 68//87 64//87
f 82//88 74//88 75//88
f 37//89 35//89 36//89
f 9//90 15//90 8//90
f 73//91 68//91 86//91
f 69//92 66//92 68//92
f 66//93 69//93 67//93
f 87//94 54//94 46//94
f 88//95 23//95 24//95
f 63//96 16//96 59//96
f 78//97 74//97 82//97
f 72//98 70//98 68//98
f 70//99 72//99 71//99
f 31//100 36//100 10//100
f 18//101 17//101 64//101
f 59//102 57//102 63//102
