# Blender v2.79 (sub 0) OBJ File: ''
# www.blender.org
mtllib my_crack_surf__68.mtl
o my_crack_surf__68
v 145.886002 12.637675 152.188004
v 129.182007 19.845573 159.487000
v 161.082993 9.704296 149.212006
v 130.276993 -6.031361 127.397003
v 139.031006 -15.081318 113.115997
v 146.307007 -11.407219 119.511002
v 56.673698 162.131958 259.402039
v 26.998600 176.547958 265.520020
v 4.873480 176.880951 267.977020
v 3.743970 147.173950 266.253021
v -57.319401 171.127960 272.278046
v 153.319000 -3.993262 131.035995
v -105.220001 100.720955 270.444031
v -152.481003 94.680656 269.320038
v -129.270996 95.817856 270.307037
v 137.472000 8.289577 148.014008
v 129.330002 5.107337 143.444000
v 152.807999 82.242569 205.022018
v 118.431000 44.044571 184.699005
v 162.106003 53.977371 187.036011
v 144.011002 35.831474 175.445999
v 164.182999 20.981873 161.434998
v 165.011993 31.297571 170.403000
v 144.423004 97.336861 213.789017
v 111.428001 69.828369 206.297012
v 133.485001 113.440964 223.855011
v 157.470993 75.347366 200.781021
v 130.278000 -17.300217 108.044998
v 97.030098 144.541962 248.669037
v 109.121002 137.700958 242.338013
v 76.423798 101.720963 233.201019
v 65.768501 112.819962 241.296021
v 99.600304 145.874954 248.755035
v 58.926498 116.264961 244.648010
v 49.855900 149.340958 257.184021
v 38.367599 123.394958 253.417023
v 40.063599 137.833954 257.724030
v 63.932800 168.277954 259.887024
v 42.953400 174.082947 263.251038
v 7.233110 130.521957 263.965027
v -41.565800 123.701958 268.176025
v -19.928900 177.418961 270.729034
v -28.822800 176.668961 271.332031
v -59.183399 115.898956 269.002045
v -78.954498 154.559952 271.365021
v -74.442802 165.140961 272.409027
v -47.153702 173.177948 271.950043
v -98.378502 85.677055 269.053986
v -4.440510 177.366959 268.972015
v -51.040501 172.449951 272.131042
v -53.972301 172.272949 272.226044
v -24.128700 177.127960 270.956024
v -97.655602 149.643951 272.959045
v -126.662003 122.197952 271.095032
v -113.192001 65.724251 268.144989
v -167.449997 61.299759 268.076996
v -132.151993 40.584057 264.783997
v -163.669006 72.489357 268.834015
v -171.979004 -0.132899 263.713013
v -170.485001 44.059357 266.842987
v -127.902000 24.606855 263.848999
v -130.759995 13.769657 262.902008
v -160.089996 -20.956242 261.130005
v -138.884003 -39.453743 260.138000
v -127.949997 -30.323942 260.022003
v -138.095001 -81.219246 261.091003
v -167.188004 -31.817842 262.136993
v -160.470001 -49.463840 261.023010
v -120.781998 -76.257545 262.696014
v -93.171700 -90.577347 261.222992
v -108.775002 -96.468346 261.864960
v -105.181999 -78.848648 262.764008
v -113.216003 -64.026543 263.170990
v 164.677002 41.382168 178.451004
v -0.892140 177.086960 268.679016
v 28.573000 130.951950 259.497040
v -152.106995 -66.503242 262.208008
v -131.718994 -86.429947 261.739990
v 116.240997 55.292168 196.329010
v -75.817001 148.683960 271.807037
v -171.199997 -17.319542 262.834015
v -164.479004 -39.235043 261.639008
v 24.481701 127.255951 260.013031
v -33.836700 175.971954 271.404022
v -88.458504 -95.673546 261.629974
v 163.621002 48.923168 183.779022
v 78.159302 161.783951 256.652039
vn 0.0005 -0.7110 0.7032
vn -0.0288 -0.8522 0.5224
vn 0.1053 -0.1969 0.9747
vn 0.1456 -0.0628 0.9874
vn 0.0744 -0.0606 0.9954
vn -0.0332 -0.7913 0.6105
vn -0.0526 0.2310 0.9715
vn 0.0010 -0.8215 0.5703
vn 0.1741 -0.8362 0.5201
vn -0.0267 -0.7904 0.6120
vn 0.0723 -0.5184 0.8521
vn 0.0942 -0.6009 0.7938
vn -0.0140 -0.7331 0.6800
vn -0.0122 -0.8376 0.5462
vn -0.5613 0.3806 0.7349
vn 0.0388 -0.6574 0.7526
vn -0.0222 -0.7363 0.6762
vn -0.0171 -0.6984 0.7155
vn 0.1563 -0.4297 0.8893
vn 0.1658 -0.4393 0.8829
vn -0.0511 -0.5481 0.8349
vn -0.0723 -0.8619 0.5019
vn 0.1976 -0.4545 0.8685
vn 0.2063 -0.4534 0.8671
vn 0.2240 -0.4247 0.8772
vn 0.2029 -0.4474 0.8710
vn 0.1370 -0.3180 0.9381
vn 0.2824 -0.3045 0.9097
vn 0.3428 -0.2493 0.9057
vn 0.1455 -0.2438 0.9588
vn 0.5202 -0.4074 0.7506
vn 0.1018 -0.1972 0.9751
vn 0.1097 -0.1884 0.9759
vn 0.0935 -0.0549 0.9941
vn 0.0896 -0.2986 0.9502
vn 0.0739 -0.0615 0.9954
vn 0.0491 -0.1188 0.9917
vn 0.0577 -0.1279 0.9901
vn 0.0535 -0.0677 0.9963
vn 0.0440 -0.0385 0.9983
vn 0.1028 -0.3849 0.9172
vn 0.1630 -0.6963 0.6991
vn 0.0359 -0.0597 0.9976
vn -0.0068 0.6748 0.7380
vn 0.1022 -0.0668 0.9925
vn -0.0183 -0.0485 0.9987
vn 0.0390 -0.0743 0.9965
vn -0.0176 -0.0479 0.9987
vn -0.0378 -0.0917 0.9951
vn 0.0018 -0.0380 0.9993
vn 0.0102 -0.1400 0.9901
vn 0.2622 -0.1531 0.9528
vn -0.0053 -0.0705 0.9975
vn -0.0543 -0.0727 0.9959
vn 0.0513 -0.0940 0.9942
vn 0.0013 -0.0521 0.9986
vn 0.0616 -0.0611 0.9962
vn -0.0083 0.0227 0.9997
vn 0.0810 0.0394 0.9959
vn 0.0301 0.0234 0.9993
vn -0.1040 0.0416 0.9937
vn 0.0652 -0.0641 0.9958
vn -0.1242 0.0383 0.9915
vn -0.0098 -0.0328 0.9994
vn 0.0534 -0.6218 0.7814
vn 0.0986 -0.3777 0.9207
vn 0.0739 -0.1010 0.9921
vn 0.3028 -0.2701 0.9140
vn 0.0221 -0.7165 0.6972
vn 0.2940 0.2092 0.9326
vn -0.0946 0.0082 0.9955
vn 0.3162 -0.6515 0.6896
vn -0.8773 -0.4575 0.1451
vn 0.1372 -0.0444 0.9895
vn -0.2480 -0.1547 0.9563
vn 0.0596 -0.0403 0.9974
vn 0.2194 -0.4208 0.8802
vn -0.0706 0.0373 0.9968
vn 0.0483 -0.0608 0.9970
vn -0.0316 -0.0598 0.9977
vn -0.0124 -0.0484 0.9987
vn -0.0733 -0.0777 0.9943
vn 0.1496 -0.0061 0.9887
vn 0.1803 -0.5150 0.8380
vn 0.3211 -0.3051 0.8965
vn 0.3526 -0.2650 0.8975
vn 0.0483 -0.1260 0.9909
vn -0.0355 0.3520 0.9353
vn 0.2628 -0.4372 0.8601
vn 0.1362 -0.3230 0.9365
vn 0.0081 0.0871 0.9962
vn -0.2957 -0.5785 0.7602
vn 0.0296 -0.5588 0.8287
vn 0.0493 -0.0744 0.9960
vn 0.0425 -0.0678 0.9968
vn 0.1228 -0.1492 0.9811
vn 0.1204 -0.2186 0.9684
vn 0.1156 -0.3122 0.9429
vn 0.0081 -0.0674 0.9977
vn 0.4955 -0.4443 0.7464
vn 0.1916 -0.1599 0.9684
vn 0.1561 -0.1023 0.9824
usemtl None
s off
f 1//1 3//1 2//1
f 4//2 5//2 6//2
f 7//3 8//3 9//3
f 10//4 7//4 9//4
f 9//5 11//5 10//5
f 1//6 12//6 3//6
f 13//7 14//7 15//7
f 16//8 17//8 4//8
f 16//9 4//9 1//9
f 12//10 1//10 4//10
f 18//11 19//11 20//11
f 21//12 20//12 19//12
f 22//13 2//13 3//13
f 12//14 4//14 6//14
f 17//15 16//15 1//15
f 21//16 22//16 23//16
f 17//17 1//17 2//17
f 21//18 2//18 22//18
f 24//19 25//19 18//19
f 24//20 26//20 25//20
f 27//21 18//21 20//21
f 28//22 5//22 4//22
f 29//23 25//23 30//23
f 25//24 26//24 30//24
f 31//25 29//25 32//25
f 29//26 30//26 33//26
f 29//27 35//27 34//27
f 34//28 37//28 36//28
f 35//29 37//29 34//29
f 33//30 7//30 35//30
f 35//31 7//31 37//31
f 38//32 39//32 7//32
f 8//33 7//33 39//33
f 40//34 11//34 41//34
f 11//35 42//35 43//35
f 44//36 41//36 11//36
f 45//37 11//37 46//37
f 11//38 43//38 47//38
f 48//39 44//39 13//39
f 45//40 13//40 44//40
f 42//41 11//41 49//41
f 47//42 50//42 11//42
f 50//43 51//43 11//43
f 52//44 43//44 42//44
f 53//45 13//45 45//45
f 53//46 54//46 13//46
f 48//47 13//47 55//47
f 54//48 14//48 13//48
f 55//49 15//49 14//49
f 55//50 14//50 56//50
f 55//51 56//51 57//51
f 58//52 56//52 14//52
f 59//53 56//53 60//53
f 61//54 57//54 62//54
f 59//55 63//55 62//55
f 64//56 62//56 63//56
f 65//57 62//57 64//57
f 66//58 65//58 64//58
f 67//59 64//59 63//59
f 66//60 64//60 68//60
f 66//61 69//61 65//61
f 70//62 72//62 71//62
f 73//63 65//63 69//63
f 73//64 69//64 72//64
f 74//65 21//65 23//65
f 75//66 11//66 9//66
f 75//67 49//67 11//67
f 7//68 76//68 37//68
f 2//69 21//69 19//69
f 77//70 66//70 68//70
f 66//71 78//71 69//71
f 19//72 18//72 79//72
f 45//73 44//73 80//73
f 81//74 63//74 59//74
f 82//75 68//75 67//75
f 64//76 67//76 68//76
f 32//77 29//77 34//77
f 45//78 80//78 11//78
f 44//79 11//79 80//79
f 78//80 71//80 69//80
f 71//81 72//81 69//81
f 61//82 55//82 57//82
f 81//83 67//83 63//83
f 25//84 79//84 18//84
f 36//85 37//85 76//85
f 83//86 36//86 76//86
f 11//87 40//87 10//87
f 84//88 47//88 43//88
f 31//89 25//89 29//89
f 29//90 33//90 35//90
f 85//91 70//91 71//91
f 86//92 20//92 74//92
f 74//93 20//93 21//93
f 59//94 57//94 56//94
f 57//95 59//95 62//95
f 45//96 46//96 53//96
f 38//97 7//97 87//97
f 87//98 7//98 33//98
f 55//99 13//99 15//99
f 83//100 76//100 7//100
f 7//101 40//101 83//101
f 7//102 10//102 40//102
