# Blender v2.79 (sub 0) OBJ File: ''
# www.blender.org
mtllib my_crack_surf__79.mtl
o my_crack_surf__79
v 129.169006 19.976574 159.330994
v 145.903000 12.641376 152.162994
v 144.033997 35.857075 175.414001
v 130.276001 -5.831730 127.220001
v 139.119995 -15.185418 112.779999
v 146.623001 -11.404619 119.400002
v 154.138000 -4.192071 130.779007
v 64.099403 114.499962 241.937012
v 51.050201 119.056961 246.952011
v 95.137802 106.464958 230.500015
v 137.477997 8.326246 148.005005
v 161.639008 9.566636 149.119995
v 158.867996 5.407957 143.755005
v -19.843599 179.166962 270.907043
v 3.743970 147.173950 266.253021
v -19.732500 142.603958 267.713043
v 27.472401 177.994949 265.629028
v -98.331001 85.727753 268.921997
v -146.130005 107.332954 270.564026
v -113.192001 65.724251 268.144989
v 118.482002 43.861568 184.707993
v 116.240997 55.292168 196.329010
v 166.559998 35.677673 174.009995
v 163.197006 16.609375 157.417007
v -83.439003 -136.350052 260.263977
v -104.892998 -127.218048 261.184967
v -72.417099 -124.849045 259.629974
v 129.330002 5.100727 143.451996
v 137.328995 16.290575 155.296997
v 147.585999 93.327164 211.369019
v 158.716995 75.781471 201.023010
v 111.427002 69.829468 206.156021
v 146.001999 97.368965 213.648010
v 135.046005 113.495964 223.903015
v 75.892998 102.206963 232.895020
v 161.684998 61.367371 192.187012
v 130.268997 -17.497417 107.752998
v 129.996002 118.092964 227.368011
v 122.834000 126.334961 233.334015
v 101.047997 146.869949 248.974030
v 91.561302 155.643951 253.300034
v 68.315201 142.844955 253.878036
v 54.352600 147.972961 255.155029
v 40.028000 137.988953 257.502045
v 71.844299 166.819962 258.414032
v 65.189003 169.838959 260.029022
v -21.794701 134.408951 266.961029
v -25.252300 125.974953 266.842041
v 7.233110 130.521957 263.965027
v 42.965599 176.027954 263.615021
v -39.560200 177.402954 272.134033
v -41.636101 123.700951 268.072021
v -28.342300 178.755951 271.434021
v -50.350101 174.995956 272.527039
v -63.368401 171.613953 272.770020
v -59.130100 115.955956 268.854034
v -133.283005 118.887955 271.190033
v -172.182007 63.860760 267.743988
v -158.175995 91.037155 269.330994
v -127.902000 24.615955 263.937988
v -123.271004 37.947060 265.399994
v -132.145004 40.601658 264.855011
v -176.850006 -15.572742 263.028015
v -130.759995 13.775257 262.957001
v -177.367004 40.159557 266.490997
v -177.389999 21.095757 265.386993
v -129.237000 -8.071583 261.062988
v -179.074997 -3.419923 263.631989
v -138.990005 -39.486843 260.428009
v -127.952003 -30.314442 260.188995
v -146.440994 -92.581947 262.071014
v -113.339996 -63.451542 263.066986
v -162.957001 -67.767143 261.829987
v -171.322006 -46.183842 262.373993
v -176.246002 -24.525442 262.725006
v -166.776993 -58.394341 261.937012
v -141.147995 -99.021347 261.829956
v -135.464005 -105.716049 261.695984
v -108.401001 -74.434845 262.669006
v -127.000000 -111.798042 261.628967
v -120.505997 -118.097046 261.606964
v -111.899002 -121.856049 261.366974
v -82.001701 -102.798042 261.326965
v -71.973701 -108.289047 260.216980
v -61.937199 -113.782043 260.348969
v -52.088402 -119.138046 261.677979
v -66.499603 -135.391052 260.443970
v -40.298500 -124.876045 261.684967
v 166.326004 42.343868 179.179001
v -130.378006 -109.911049 261.664978
v -123.957001 -115.040047 261.551971
v -117.167999 -119.881042 261.540955
v 151.343002 -7.166511 126.134003
v -96.239899 154.772949 272.973022
v -73.017899 168.093948 272.664032
v -53.435398 174.513962 272.636017
v -139.764008 45.051758 265.842987
v 24.271400 127.254951 259.702026
v 32.259899 125.518959 255.935013
v -117.306000 134.964951 271.989044
v -107.990997 145.506958 272.686035
vn -0.0078 -0.7079 0.7062
vn -0.0373 -0.8490 0.5271
vn -0.0240 -0.8371 0.5465
vn 0.3033 -0.1645 0.9386
vn 0.0026 -0.6965 0.7175
vn 0.0079 -0.8053 0.5929
vn 0.0127 -0.7934 0.6085
vn 0.0786 -0.0865 0.9931
vn 0.1091 -0.0639 0.9920
vn 0.0126 -0.0481 0.9988
vn 0.0339 -0.7092 0.7042
vn 0.0415 -0.6600 0.7501
vn 0.0471 0.0099 0.9988
vn 0.0157 -0.8289 0.5592
vn -0.0285 -0.8215 0.5695
vn 0.0248 -0.7227 0.6907
vn -0.0511 -0.7088 0.7036
vn -0.0229 -0.7601 0.6495
vn -0.0180 -0.6754 0.7373
vn 0.0084 -0.7297 0.6837
vn -0.1420 -0.6699 0.7288
vn -0.3258 -0.9266 0.1877
vn -0.0438 -0.5279 0.8482
vn 0.3907 -0.3826 0.8372
vn -0.1151 -0.5217 0.8453
vn 0.2261 -0.4970 0.8378
vn 0.2113 -0.4741 0.8548
vn 0.0171 -0.5282 0.8489
vn -0.0420 -0.5284 0.8479
vn -0.0677 -0.8558 0.5129
vn 0.2197 -0.4217 0.8797
vn 0.2239 -0.4363 0.8715
vn 0.2066 -0.4433 0.8722
vn 0.1755 -0.2761 0.9450
vn -0.0118 -0.2717 0.9623
vn 0.3497 -0.2924 0.8901
vn 0.1712 -0.1439 0.9747
vn 0.1023 -0.2645 0.9590
vn 0.0645 -0.0722 0.9953
vn 0.1609 -0.2692 0.9496
vn 0.0955 -0.0532 0.9940
vn 0.2141 -0.1453 0.9659
vn 0.2147 -0.0792 0.9735
vn 0.0931 -0.2526 0.9631
vn 0.0840 -0.2563 0.9629
vn 0.0834 -0.1118 0.9902
vn 0.4324 -0.1897 0.8815
vn 0.0696 -0.0866 0.9938
vn 0.0855 -0.0784 0.9933
vn 0.0616 0.0054 0.9981
vn 0.1288 -0.4319 0.8927
vn 0.0454 -0.0771 0.9960
vn 0.0730 -0.0645 0.9952
vn 0.0066 -0.0614 0.9981
vn -0.0050 -0.0557 0.9984
vn -0.0848 -0.0795 0.9932
vn 0.0705 -0.1083 0.9916
vn 0.0327 -0.0599 0.9977
vn 0.0337 -0.0637 0.9974
vn 0.0541 -0.0825 0.9951
vn -0.0864 -0.0652 0.9941
vn 0.0467 -0.0347 0.9983
vn 0.0517 -0.0362 0.9980
vn -0.0764 0.0528 0.9957
vn -0.0046 0.0316 0.9995
vn 0.0604 -0.0017 0.9982
vn 0.0493 -0.0305 0.9983
vn 0.0606 -0.0024 0.9982
vn -0.5519 -0.2341 0.8004
vn -0.4883 -0.4303 0.7592
vn -0.0015 -0.0298 0.9996
vn 0.0013 -0.0356 0.9994
vn -0.0089 -0.0234 0.9997
vn -0.0159 -0.0199 0.9997
vn 0.0125 -0.0176 0.9998
vn 0.0171 -0.0247 0.9995
vn 0.0190 -0.0296 0.9994
vn -0.0320 -0.0345 0.9989
vn 0.0517 -0.0543 0.9972
vn 0.0895 -0.0377 0.9953
vn -0.1116 0.0412 0.9929
vn -0.0262 -0.0526 0.9983
vn -0.1052 0.0177 0.9943
vn 0.0444 -0.6112 0.7902
vn 0.0233 -0.5604 0.8279
vn 0.0202 0.0171 0.9996
vn -0.2093 -0.2189 0.9531
vn 0.0638 0.0825 0.9945
vn -0.0901 -0.8132 0.5749
vn 0.0478 -0.0601 0.9970
vn 0.0333 -0.0578 0.9978
vn 0.0596 -0.1585 0.9856
vn 0.0823 -0.0793 0.9934
vn 0.1834 -0.3952 0.9001
vn 0.2046 -0.4316 0.8786
vn -0.0632 -0.2076 0.9762
vn -0.2126 -0.5442 0.8115
vn -0.0037 -0.0970 0.9953
vn 0.3033 -0.4627 0.8330
vn 0.0143 -0.0691 0.9975
vn 0.2205 -0.4321 0.8745
vn 0.1324 0.2490 0.9594
vn 0.2187 -0.1226 0.9681
vn 0.0263 0.0272 0.9993
vn 0.1131 -0.0270 0.9932
vn 0.0068 -0.0889 0.9960
vn 0.3446 -0.3253 0.8806
vn 0.3203 -0.3120 0.8945
vn 0.0091 -0.0587 0.9982
vn -0.0030 -0.0633 0.9980
vn 0.0446 -0.0556 0.9975
vn 0.0337 -0.0736 0.9967
vn -0.0114 -0.0670 0.9977
vn -0.0145 0.0689 0.9975
usemtl None
s off
f 1//1 2//1 3//1
f 4//2 5//2 6//2
f 4//3 6//3 7//3
f 8//4 10//4 9//4
f 11//5 12//5 2//5
f 11//6 7//6 13//6
f 13//7 12//7 11//7
f 14//8 16//8 15//8
f 14//9 15//9 17//9
f 18//10 19//10 20//10
f 3//11 22//11 21//11
f 23//12 3//12 24//12
f 25//13 27//13 26//13
f 11//14 28//14 4//14
f 7//15 11//15 4//15
f 21//16 1//16 3//16
f 24//17 3//17 2//17
f 12//18 24//18 2//18
f 29//19 11//19 2//19
f 29//20 1//20 28//20
f 28//21 11//21 29//21
f 29//22 2//22 1//22
f 30//23 3//23 31//23
f 32//24 3//24 10//24
f 33//25 3//25 30//25
f 34//26 10//26 3//26
f 32//27 10//27 35//27
f 33//28 34//28 3//28
f 31//29 3//29 36//29
f 5//30 4//30 37//30
f 34//31 38//31 10//31
f 38//32 39//32 10//32
f 35//33 10//33 8//33
f 40//34 41//34 42//34
f 9//35 42//35 43//35
f 9//36 43//36 44//36
f 45//37 46//37 41//37
f 41//38 46//38 43//38
f 41//39 43//39 42//39
f 47//40 44//40 15//40
f 47//41 48//41 49//41
f 15//42 43//42 17//42
f 44//43 43//43 15//43
f 17//44 43//44 50//44
f 46//45 50//45 43//45
f 47//46 15//46 16//46
f 47//47 16//47 48//47
f 51//48 16//48 14//48
f 51//49 52//49 48//49
f 51//50 14//50 53//50
f 51//51 54//51 55//51
f 52//52 51//52 55//52
f 56//53 52//53 55//53
f 57//54 19//54 18//54
f 58//55 20//55 59//55
f 60//56 61//56 62//56
f 63//57 64//57 60//57
f 60//58 58//58 65//58
f 66//59 63//59 60//59
f 64//60 63//60 67//60
f 66//61 68//61 63//61
f 69//62 67//62 63//62
f 70//63 67//63 69//63
f 71//64 72//64 70//64
f 70//65 69//65 71//65
f 73//66 69//66 74//66
f 69//67 63//67 75//67
f 69//68 75//68 74//68
f 76//69 73//69 74//69
f 71//70 77//70 78//70
f 71//71 78//71 79//71
f 71//72 79//72 72//72
f 80//73 79//73 78//73
f 80//74 81//74 79//74
f 82//75 26//75 83//75
f 82//76 83//76 81//76
f 79//77 81//77 83//77
f 84//78 27//78 85//78
f 83//79 26//79 27//79
f 84//80 83//80 27//80
f 86//81 85//81 27//81
f 86//82 87//82 88//82
f 87//83 86//83 27//83
f 89//84 3//84 23//84
f 89//85 36//85 3//85
f 90//86 80//86 78//86
f 91//87 81//87 80//87
f 92//88 82//88 81//88
f 93//89 7//89 6//89
f 94//90 56//90 95//90
f 60//91 65//91 66//91
f 54//92 96//92 55//92
f 51//93 48//93 16//93
f 40//94 42//94 9//94
f 40//95 9//95 10//95
f 61//96 58//96 97//96
f 61//97 97//97 62//97
f 58//98 61//98 20//98
f 32//99 22//99 3//99
f 56//100 55//100 95//100
f 10//101 39//101 40//101
f 44//102 47//102 49//102
f 98//103 44//103 49//103
f 71//104 69//104 73//104
f 97//105 60//105 62//105
f 60//106 97//106 58//106
f 99//107 44//107 98//107
f 9//108 44//108 99//108
f 57//109 18//109 100//109
f 100//110 18//110 101//110
f 101//111 18//111 56//111
f 56//112 94//112 101//112
f 19//113 59//113 20//113
f 25//114 87//114 27//114
