# Blender v2.79 (sub 0) OBJ File: ''
# www.blender.org
mtllib my_crack_surf__38.mtl
o my_crack_surf__38
v 128.957001 57.580570 194.979019
v 126.158997 55.309269 192.459015
v 138.796997 50.755970 189.069016
v 118.559998 43.574471 184.723007
v 144.072006 35.488571 175.860001
v 156.781998 0.736564 138.675995
v 146.591003 -11.764319 119.610001
v 138.466995 -2.592592 136.110992
v 132.386993 114.067963 223.444016
v 111.431000 69.822472 207.023010
v 106.172997 129.172958 238.296021
v 88.608704 112.869965 235.297012
v 129.210007 19.551573 159.835007
v 163.362000 20.463074 161.979004
v 129.787003 -1.786732 136.451004
v -71.214600 139.555954 270.874023
v -73.010002 105.208954 269.370026
v -59.723202 115.447952 269.712036
v 163.725998 42.952370 180.059006
v 157.029999 71.338066 197.697021
v 139.106003 -15.512318 112.857002
v 77.681900 100.568962 233.938019
v 64.683403 114.146965 244.317017
v 53.581902 132.960953 254.595016
v 108.276001 136.494949 240.506012
v 94.365898 147.819962 247.825027
v 52.065201 118.448959 250.968018
v 30.150000 126.155952 258.477020
v 81.006104 155.990952 252.573029
v 59.537300 164.243958 258.821045
v 40.999599 168.560959 262.459045
v 9.191310 139.995956 265.225037
v 10.409500 170.360947 266.254028
v -43.644100 159.019958 270.816040
v 7.233110 130.521957 263.965027
v -3.509570 169.063950 268.146027
v -40.895000 123.706955 269.167023
v -58.375900 150.973953 271.546021
v -81.673302 122.326958 269.809021
v -82.865898 111.761955 268.841034
v 151.291000 84.263268 205.852020
v 100.364998 124.512962 237.123016
v 116.282997 55.168171 196.438019
v -82.219704 98.365257 266.963043
v -20.406200 166.275955 269.427032
v 130.266998 -17.309618 108.335999
vn -0.0644 -0.7047 0.7066
vn 0.0206 -0.5596 0.8285
vn 0.0629 -0.6405 0.7654
vn 0.0829 -0.8531 0.5150
vn 0.2740 -0.4460 0.8521
vn 0.2403 -0.4358 0.8674
vn 0.2544 -0.4331 0.8647
vn -0.0229 -0.7353 0.6774
vn -0.0422 -0.7385 0.6729
vn 0.0083 -0.0442 0.9990
vn 0.0174 -0.5247 0.8511
vn 0.1632 -0.5009 0.8500
vn 0.2795 -0.5712 0.7718
vn 0.0155 -0.7161 0.6978
vn -0.0154 -0.8669 0.4982
vn 0.0716 -0.6257 0.7768
vn -0.0264 -0.6964 0.7171
vn 0.3311 -0.3891 0.8596
vn 0.3224 -0.3002 0.8977
vn 0.1889 -0.3588 0.9141
vn 0.3100 -0.3720 0.8749
vn 0.3788 -0.2615 0.8878
vn 0.2305 -0.2585 0.9381
vn 0.2143 -0.1707 0.9617
vn 0.1538 -0.1610 0.9749
vn 0.1208 -0.0385 0.9919
vn 0.0533 -0.1425 0.9884
vn 0.0918 -0.0374 0.9951
vn 0.1599 -0.3989 0.9029
vn 0.1126 -0.0376 0.9929
vn 0.0160 -0.0767 0.9969
vn 0.0414 -0.0284 0.9987
vn -0.1057 -0.0789 0.9913
vn 0.2987 -0.3534 0.8865
vn 0.1509 -0.4787 0.8649
vn -0.3627 0.2244 0.9045
vn 0.2171 -0.8327 0.5094
vn 0.0718 -0.0410 0.9966
vn -0.0642 -0.8853 0.4605
vn 0.1959 -0.5307 0.8246
vn 0.2802 -0.3645 0.8881
vn -0.1485 -0.1443 0.9783
vn 0.0497 -0.3017 0.9521
vn 0.3037 -0.4392 0.8455
vn -0.0324 -0.0420 0.9986
vn 0.0506 -0.7693 0.6369
vn 0.1989 -0.1695 0.9653
vn 0.1099 -0.4526 0.8849
vn 0.0928 -0.1078 0.9898
vn 0.2263 -0.1856 0.9562
vn 0.2917 -0.6509 0.7009
vn -0.0685 -0.8739 0.4813
vn 0.2061 -0.1587 0.9656
vn 0.2096 -0.1397 0.9678
usemtl None
s off
f 1//1 2//1 3//1
f 2//2 4//2 3//2
f 5//3 3//3 4//3
f 6//4 8//4 7//4
f 9//5 10//5 1//5
f 9//6 11//6 10//6
f 12//7 10//7 11//7
f 13//8 8//8 14//8
f 13//9 15//9 8//9
f 16//10 17//10 18//10
f 5//11 19//11 20//11
f 1//12 3//12 20//12
f 5//13 20//13 3//13
f 5//14 4//14 13//14
f 15//15 21//15 7//15
f 5//16 14//16 19//16
f 13//17 14//17 5//17
f 22//18 10//18 12//18
f 23//19 12//19 24//19
f 25//20 26//20 12//20
f 22//21 12//21 23//21
f 23//22 24//22 27//22
f 28//23 27//23 24//23
f 29//24 30//24 24//24
f 30//25 31//25 24//25
f 31//26 33//26 32//26
f 34//27 35//27 32//27
f 34//28 32//28 33//28
f 34//29 33//29 36//29
f 34//30 37//30 35//30
f 16//31 37//31 38//31
f 37//32 16//32 18//32
f 39//33 40//33 17//33
f 11//34 9//34 25//34
f 20//35 41//35 1//35
f 11//36 42//36 12//36
f 2//37 1//37 43//37
f 38//38 37//38 34//38
f 7//39 8//39 15//39
f 10//40 43//40 1//40
f 26//41 24//41 12//41
f 17//42 40//42 44//42
f 42//43 11//43 25//43
f 42//44 25//44 12//44
f 39//45 17//45 16//45
f 6//46 14//46 8//46
f 32//47 35//47 28//47
f 1//48 41//48 9//48
f 34//49 36//49 45//49
f 26//50 29//50 24//50
f 2//51 43//51 4//51
f 46//52 21//52 15//52
f 24//53 32//53 28//53
f 24//54 31//54 32//54
