# Blender v2.79 (sub 0) OBJ File: ''
# www.blender.org
mtllib my_crack_surf__105.mtl
o my_crack_surf__105
v 130.276993 -5.648840 127.087997
v 145.026001 -15.977118 111.457001
v 151.285004 -12.291919 118.329002
v 64.028397 114.541962 241.656021
v 66.149399 128.686951 247.667023
v 88.614403 112.865959 235.311020
v 32.566002 125.426964 255.566010
v 3.743970 147.173950 266.253021
v -3.123310 181.506958 269.480042
v 27.859699 180.686951 266.219025
v -181.626999 -32.820141 262.833008
v -182.912003 -2.116843 263.753998
v -129.238007 -8.066633 261.149994
v 159.621002 -1.312582 134.514008
v 155.858002 -7.404860 125.851997
v 156.867004 23.344074 162.410004
v 0.000000 -131.500046 258.830963
v -23.603001 -143.135040 260.739960
v 25.789900 -171.606049 258.830963
v 106.811996 -110.296036 255.539978
v 104.732002 -118.598038 255.813980
v 87.358803 -135.256042 257.150970
v 137.466003 8.904186 147.727005
v 129.317001 5.240907 143.285995
v 146.845993 19.395773 158.643005
v 118.459000 43.942768 184.703995
v 167.998001 48.783569 183.191010
v 112.494003 66.607071 203.849014
v 116.240997 55.292168 196.329010
v 155.932007 84.630173 206.331009
v 129.151993 20.153072 159.121994
v 164.457001 9.241326 148.408997
v 166.578003 20.574173 160.917007
v 168.341995 35.026875 173.408005
v 129.205994 12.988075 150.858994
v 137.306000 16.533476 155.009003
v 149.354004 93.628662 211.877014
v 102.117996 78.311363 213.107010
v 125.746002 125.591965 232.811020
v 147.960007 97.571663 214.120010
v 75.615898 102.460960 232.733017
v 135.839005 113.578964 224.539017
v 130.266006 -17.606216 106.640999
v 111.266998 139.656952 243.524017
v 102.896004 148.284958 248.961029
v 83.813103 162.372955 256.368042
v 51.754002 126.248962 248.561020
v 50.818901 119.195961 246.037018
v 52.687801 133.491959 251.051010
v 70.248199 169.213959 259.583038
v 7.233110 130.521957 263.965027
v 24.030300 127.252953 259.346039
v -41.723301 123.700951 267.943024
v 51.476002 175.892960 263.602020
v 42.687199 178.164948 264.511017
v -27.000200 181.715958 271.942017
v -61.345699 136.700958 270.275024
v -49.133999 177.471954 272.673035
v -59.062901 116.027954 268.668030
v -109.292999 118.068954 270.334045
v -98.286697 85.774857 268.799011
v -98.440399 156.787949 272.675018
v -67.417702 172.027954 272.826019
v -105.228996 100.677956 270.124023
v -113.192001 65.724052 268.145996
v -122.514000 131.847961 270.767029
v -149.350998 65.617554 267.851013
v -140.444000 100.154953 269.406036
v -163.516006 84.992851 269.653992
v -146.108994 81.399551 269.016998
v -123.249001 37.984756 265.484009
v -132.139999 40.611958 264.897003
v -130.759003 13.784657 263.049011
v -127.901001 24.625856 264.036011
v -178.492996 53.099258 267.792999
v -181.098999 37.838158 266.640015
v -127.955002 -30.302341 260.403015
v -138.994003 -39.459042 260.799011
v -123.098999 -41.410843 260.739990
v -113.349998 -63.427040 262.932007
v -178.552002 -46.928543 262.289001
v -172.167999 -62.838444 262.463989
v -138.630997 -112.751045 261.752960
v -161.306000 -85.142647 261.812012
v -148.432999 -102.030045 261.538971
v -108.407997 -74.425049 262.688995
v -113.992996 -136.799042 261.764984
v -82.463203 -119.449043 260.484955
v -82.028297 -102.779045 261.324982
v -104.761002 -143.337051 261.993958
v -95.591003 -153.538040 262.053955
v -42.050598 -124.595047 260.464966
v -84.123398 -160.563049 261.891968
v -36.673901 -174.631042 260.477966
v -63.345699 -168.588043 260.785980
v -10.546300 -129.762039 259.730957
v 24.628599 -126.713036 257.213959
v 52.050598 -163.160049 258.544983
v 32.716000 -171.198044 259.092957
v 49.145599 -121.968040 256.664978
v 71.525101 -107.129036 256.920959
v 94.379501 -91.493835 255.533981
v 108.814003 -99.706635 253.932983
v 137.878006 -18.901817 106.026001
v -153.824997 99.857452 269.223022
v -182.949005 -10.136443 263.362000
v -182.783997 -17.000542 262.984009
v 71.575302 -151.669052 258.423981
v 101.421997 -79.771240 249.623978
v 107.259003 -76.634735 248.217987
v 105.891998 -72.995338 247.803986
v -106.792999 149.292953 272.687042
v 111.307999 -90.160439 251.815979
v -139.778000 44.975758 265.612000
v -139.304993 117.769951 270.717041
v 164.201996 62.557968 192.244019
v -182.923996 -22.144543 262.803986
v 129.488998 -20.364017 99.988899
v -173.307999 67.672653 268.997009
v -2.906260 -174.155045 260.034973
v 92.899300 157.202957 254.220032
vn -0.0575 -0.8571 0.5120
vn 0.2019 -0.4085 0.8901
vn 0.3329 -0.0220 0.9427
vn 0.0982 -0.1803 0.9787
vn 0.0453 -0.0281 0.9986
vn -0.0276 -0.8120 0.5831
vn -0.0556 -0.7508 0.6582
vn 0.0612 0.0394 0.9973
vn 0.0595 0.0180 0.9981
vn 0.0666 -0.8262 0.5594
vn 0.2377 -0.8309 0.5031
vn 0.0355 -0.7356 0.6765
vn 0.0868 -0.6527 0.7526
vn 0.1626 -0.5082 0.8457
vn 0.0034 -0.7316 0.6817
vn -0.1036 -0.7283 0.6774
vn -0.0680 -0.6476 0.7589
vn -0.1827 -0.5728 0.7991
vn -0.0747 -0.6976 0.7126
vn -0.0677 -0.6896 0.7210
vn -0.0049 -0.7555 0.6551
vn -0.0676 -0.6896 0.7210
vn -0.3685 0.0495 0.9283
vn 0.1348 -0.4466 0.8845
vn 0.2300 -0.4701 0.8521
vn -0.0300 -0.8298 0.5573
vn 0.1394 -0.4519 0.8811
vn 0.2065 -0.4705 0.8579
vn 0.2175 -0.4661 0.8576
vn 0.1470 -0.4590 0.8762
vn -0.0693 -0.8611 0.5036
vn 0.2112 -0.4453 0.8701
vn 0.1600 -0.4105 0.8977
vn 0.0735 -0.3843 0.9203
vn 0.3338 -0.3565 0.8726
vn 0.1556 -0.4060 0.9005
vn 0.1168 -0.3483 0.9301
vn 0.3349 -0.3447 0.8770
vn 0.1150 -0.3362 0.9348
vn 0.3434 -0.3745 0.8613
vn 0.0895 -0.2728 0.9579
vn 0.2497 -0.0803 0.9650
vn 0.0964 -0.1156 0.9886
vn 0.4233 0.1197 0.8980
vn 0.0558 -0.1774 0.9826
vn 0.1347 -0.2048 0.9695
vn 0.1017 -0.0729 0.9921
vn 0.0819 -0.1819 0.9799
vn 0.0726 -0.0689 0.9950
vn 0.0744 -0.0807 0.9940
vn 0.0723 -0.0694 0.9950
vn 0.0547 -0.1146 0.9919
vn 0.0316 -0.0367 0.9988
vn 0.0287 -0.0682 0.9973
vn 0.0464 -0.0670 0.9967
vn 0.0266 -0.0058 0.9996
vn -0.0080 -0.0547 0.9985
vn -0.0198 -0.0399 0.9990
vn 0.0304 -0.0299 0.9991
vn -0.0546 0.0382 0.9978
vn 0.0446 -0.1022 0.9938
vn 0.0567 -0.1271 0.9903
vn 0.0327 -0.0809 0.9962
vn 0.0260 -0.0732 0.9970
vn 0.0390 -0.0838 0.9957
vn 0.0607 -0.0300 0.9977
vn 0.0079 0.0338 0.9994
vn 0.0168 0.1064 0.9942
vn 0.0438 -0.0248 0.9987
vn 0.0431 -0.0291 0.9986
vn 0.0331 0.0243 0.9992
vn 0.0408 0.0132 0.9991
vn -0.2271 -0.1886 0.9555
vn -0.0712 0.0126 0.9974
vn -0.0019 -0.0229 0.9997
vn 0.0258 0.0269 0.9993
vn 0.0138 -0.0353 0.9993
vn 0.0165 -0.0507 0.9986
vn 0.0120 0.0519 0.9986
vn 0.0312 0.0340 0.9989
vn -0.0059 -0.0502 0.9987
vn 0.0342 0.0328 0.9989
vn 0.0142 0.0116 0.9998
vn 0.0307 0.0454 0.9985
vn 0.0839 -0.0068 0.9964
vn 0.0582 0.0374 0.9976
vn -0.0007 0.0360 0.9994
vn -0.0479 0.1821 0.9821
vn 0.0330 -0.0670 0.9972
vn 0.0076 0.0585 0.9983
vn 0.0416 0.0278 0.9987
vn 0.1742 0.1155 0.9779
vn -0.0939 -0.8197 0.5650
vn -0.0145 0.0384 0.9992
vn -0.6787 -0.0566 0.7322
vn 0.0095 0.0663 0.9978
vn 0.1459 0.1657 0.9753
vn 0.0107 0.0671 0.9977
vn -0.2068 -0.7431 0.6364
vn 0.0408 -0.0439 0.9982
vn 0.0314 -0.0776 0.9965
vn 0.0065 -0.7443 0.6678
vn -0.3763 -0.0435 0.9255
vn 0.0807 0.2787 0.9570
vn -0.0470 -0.1292 0.9905
vn -0.2010 -0.4907 0.8479
vn 0.1616 -0.4640 0.8710
vn 0.0653 0.0315 0.9974
vn 0.0300 -0.0742 0.9968
vn -0.0192 -0.0730 0.9971
vn 0.0702 -0.5178 0.8526
vn 0.3136 0.0618 0.9475
vn -0.2459 -0.0272 0.9689
vn -0.0421 -0.0717 0.9965
vn 0.0027 0.0175 0.9998
vn -0.0066 -0.0056 1.0000
vn -0.1234 -0.9115 0.3923
vn 0.1931 -0.4564 0.8686
vn -0.0120 -0.0734 0.9972
vn 0.0393 -0.0962 0.9946
vn 0.0464 -0.0818 0.9956
vn 0.1732 0.3584 0.9173
vn 0.1995 0.1622 0.9664
vn 0.0778 -0.5325 0.8428
vn 0.2422 -0.3598 0.9011
vn 0.0098 -0.0152 0.9998
vn -0.0806 -0.0683 0.9944
vn 0.0424 -0.0618 0.9972
vn 0.4755 -0.1616 0.8647
vn -0.0078 -0.0927 0.9957
vn 0.0204 -0.0778 0.9968
vn 0.0133 -0.0138 0.9998
vn 0.0282 -0.0671 0.9973
vn 0.0415 0.0050 0.9991
vn -0.0106 0.0285 0.9995
vn 0.3064 -0.6512 0.6943
vn 0.1264 -0.3097 0.9424
vn -0.1997 -0.6541 0.7296
vn 0.0498 -0.0849 0.9951
usemtl None
s off
f 1//1 2//1 3//1
f 4//2 6//2 5//2
f 7//3 9//3 8//3
f 9//4 7//4 10//4
f 11//5 13//5 12//5
f 14//6 1//6 15//6
f 16//7 1//7 14//7
f 17//8 18//8 19//8
f 20//9 22//9 21//9
f 23//10 24//10 1//10
f 16//11 23//11 1//11
f 16//12 25//12 23//12
f 16//13 27//13 26//13
f 28//14 29//14 30//14
f 26//15 31//15 16//15
f 32//16 33//16 16//16
f 34//17 16//17 33//17
f 34//18 27//18 16//18
f 35//19 24//19 23//19
f 36//20 23//20 25//20
f 36//21 31//21 35//21
f 35//22 23//22 36//22
f 36//23 25//23 16//23
f 37//24 28//24 30//24
f 38//25 28//25 39//25
f 15//26 1//26 3//26
f 40//27 28//27 37//27
f 38//28 6//28 41//28
f 38//29 39//29 6//29
f 40//30 42//30 28//30
f 43//31 2//31 1//31
f 6//32 39//32 44//32
f 6//33 44//33 45//33
f 46//34 6//34 45//34
f 47//35 7//35 48//35
f 48//36 4//36 5//36
f 48//37 5//37 47//37
f 49//38 7//38 47//38
f 49//39 47//39 5//39
f 50//40 7//40 49//40
f 46//41 50//41 49//41
f 8//42 51//42 52//42
f 8//43 53//43 51//43
f 52//44 7//44 8//44
f 54//45 55//45 7//45
f 50//46 54//46 7//46
f 56//47 8//47 9//47
f 55//48 10//48 7//48
f 53//49 8//49 57//49
f 8//50 58//50 57//50
f 57//51 59//51 53//51
f 8//52 56//52 58//52
f 60//53 61//53 59//53
f 62//54 58//54 63//54
f 61//55 64//55 65//55
f 66//56 64//56 60//56
f 64//57 67//57 65//57
f 67//58 64//58 68//58
f 69//59 70//59 68//59
f 12//60 71//60 72//60
f 12//61 73//61 74//61
f 71//62 12//62 74//62
f 67//63 75//63 76//63
f 12//64 67//64 76//64
f 73//65 12//65 13//65
f 77//66 13//66 78//66
f 79//67 77//67 78//67
f 78//68 80//68 79//68
f 78//69 13//69 11//69
f 78//70 11//70 81//70
f 82//71 78//71 81//71
f 83//72 78//72 82//72
f 84//73 85//73 83//73
f 78//74 83//74 80//74
f 80//75 83//75 86//75
f 87//76 88//76 83//76
f 89//77 86//77 83//77
f 88//78 89//78 83//78
f 90//79 88//79 87//79
f 88//80 90//80 91//80
f 92//81 89//81 88//81
f 88//82 91//82 93//82
f 94//83 88//83 95//83
f 92//84 18//84 96//84
f 18//85 17//85 96//85
f 19//86 97//86 17//86
f 19//87 98//87 97//87
f 99//88 98//88 19//88
f 100//89 20//89 101//89
f 100//90 22//90 20//90
f 101//91 20//91 102//91
f 20//92 103//92 102//92
f 104//93 2//93 43//93
f 105//94 69//94 68//94
f 11//95 106//95 107//95
f 108//96 100//96 97//96
f 109//97 110//97 111//97
f 108//98 22//98 100//98
f 32//99 16//99 14//99
f 112//100 57//100 62//100
f 60//101 57//101 112//101
f 36//102 16//102 31//102
f 106//103 11//103 12//103
f 109//104 113//104 110//104
f 71//105 67//105 114//105
f 71//106 114//106 72//106
f 42//107 39//107 28//107
f 93//108 95//108 88//108
f 60//109 59//109 57//109
f 115//110 68//110 64//110
f 26//111 116//111 30//111
f 64//112 61//112 60//112
f 117//113 11//113 107//113
f 66//114 60//114 112//114
f 18//115 92//115 88//115
f 94//116 18//116 88//116
f 43//117 118//117 104//117
f 41//118 6//118 4//118
f 115//119 105//119 68//119
f 119//120 75//120 67//120
f 114//121 12//121 72//121
f 113//122 109//122 102//122
f 113//123 102//123 103//123
f 116//124 26//124 27//124
f 46//125 5//125 6//125
f 66//126 115//126 64//126
f 84//127 83//127 82//127
f 69//128 119//128 67//128
f 67//129 68//129 70//129
f 67//130 71//130 65//130
f 67//131 70//131 69//131
f 94//132 120//132 18//132
f 57//133 58//133 62//133
f 120//134 19//134 18//134
f 97//135 98//135 108//135
f 26//136 30//136 29//136
f 46//137 49//137 5//137
f 45//138 121//138 46//138
f 114//139 67//139 12//139
