# Blender v2.79 (sub 0) OBJ File: ''
# www.blender.org
mtllib my_crack_surf__95.mtl
o my_crack_surf__95
v 137.466003 8.546106 147.901001
v 162.621994 9.581186 148.772003
v 165.860992 27.414574 167.238007
v 133.276993 60.770569 195.667023
v 118.466003 43.918270 184.705002
v 116.240997 55.292168 196.329010
v 130.365997 41.877571 182.080994
v 153.358002 40.742371 177.376007
v 130.276993 -5.705740 127.127998
v 139.630997 -15.096519 112.981003
v 147.421005 -11.503219 119.335999
v 152.578995 -7.345661 125.962997
v 167.179993 35.328072 173.772995
v 111.426003 69.830467 206.034012
v 95.038902 106.533958 230.335022
v 64.046501 114.530960 241.727020
v 66.184502 128.665955 247.806015
v 32.274300 125.514961 255.918015
v 42.819698 176.372955 264.186035
v 20.169500 179.544952 266.754028
v 3.743970 147.173950 266.253021
v 158.072998 -0.310173 135.897003
v -105.228996 100.684952 270.189026
v -141.082993 112.064957 268.997040
v -90.356796 128.445953 271.025024
v 129.320999 5.193626 143.341995
v -178.149994 -24.961542 262.809998
v -178.628006 -15.998243 263.011993
v -129.237000 -8.068593 261.114990
v 166.115005 48.731869 183.630020
v 30.235001 -159.854050 258.328979
v 0.000000 -131.500046 258.823975
v -1.939380 -168.280045 259.938965
v 21.366800 -163.688049 258.737976
v 129.156998 20.095774 159.190002
v 129.205002 12.993176 150.852997
v 164.404999 16.109575 156.065994
v 167.266998 41.155769 178.216003
v 148.050995 93.333260 211.560013
v 154.328995 83.852570 205.967010
v 146.399002 97.432060 213.876022
v 137.994003 109.669960 221.591019
v 75.685699 102.396965 232.774017
v 130.212006 -18.151417 106.674004
v 96.495697 144.936951 248.551025
v 110.097000 139.138962 243.251022
v 124.587997 125.039963 232.513016
v 68.061096 142.979950 252.831024
v 51.811501 125.578964 248.887009
v 50.927502 119.130959 246.467010
v 79.726799 163.276947 256.851044
v 91.856300 155.824951 253.378036
v 63.518501 170.372955 260.882019
v 7.233110 130.521957 263.965027
v -41.692799 123.700951 267.988037
v 24.194901 127.253952 259.589020
v -19.716101 179.944962 271.013031
v -39.732899 178.340958 272.269043
v -74.200798 167.845947 272.689026
v -55.220600 174.436951 272.785034
v -98.302803 85.757751 268.843994
v -59.085899 116.002953 268.731018
v -89.816200 158.842957 272.402039
v -109.059998 144.569962 271.860016
v -113.192001 65.724251 268.144989
v -141.373001 71.876854 268.170013
v -132.141006 40.611359 264.894012
v -127.901001 24.622557 264.002014
v -175.951004 54.935860 267.598999
v -130.759003 13.781257 263.015015
v -171.339996 66.512054 268.164001
v -178.259003 40.886959 266.480011
v -173.886002 -47.394241 262.352997
v -127.954002 -30.306442 260.329987
v -168.921997 -60.657841 262.126007
v -166.994003 -68.081444 262.049988
v -143.274994 -103.550049 261.453979
v -158.753006 -83.853149 261.846985
v -113.352997 -63.418442 262.942993
v -108.420998 -74.404747 262.700989
v -131.695007 -116.153046 261.801971
v -107.165001 -138.287048 261.963959
v -124.983002 -123.293045 261.682983
v -82.024803 -102.781044 261.323975
v -137.479996 -111.161049 261.694977
v -84.437103 -155.294052 261.491974
v -44.110001 -168.164047 260.055969
v -17.236401 -170.121048 259.470978
v -10.541200 -129.763046 259.956970
v 12.328800 -129.101044 257.679962
v 36.849800 -124.359039 257.223969
v 7.363350 -167.235046 259.514984
v 49.063801 -122.003036 256.223969
v 66.893898 -128.117050 257.581970
v 57.424301 -143.526047 257.521973
v -102.450996 150.062958 272.232025
v -94.053299 155.865952 272.238037
v 97.404503 151.344955 250.967026
v -157.694000 92.368652 268.748993
v -153.102997 102.497955 268.735016
v 66.989502 -116.969048 257.916962
v 67.128197 -110.039047 258.354980
v 68.242500 -122.068047 257.887970
v -95.521797 -148.741043 261.761963
v -7.429970 -169.072052 259.819977
v -179.041000 12.235257 264.606995
v 51.525501 174.058960 262.784027
v 71.085098 167.253952 259.421021
v 42.849998 -155.341049 256.999969
v -62.310699 -164.884048 260.214966
v -42.034500 -124.601044 260.466980
v 160.520996 71.374573 198.025009
v -122.429001 129.732956 270.162018
v -180.772003 -2.857163 263.760986
v -149.389008 -96.706543 261.442963
vn 0.0056 -0.7198 0.6942
vn 0.2427 -0.6698 0.7018
vn 0.0761 -0.5898 0.8039
vn 0.1334 -0.5921 0.7948
vn -0.0441 -0.8455 0.5321
vn -0.0327 -0.8350 0.5493
vn -0.0456 -0.6316 0.7740
vn 0.2100 -0.4729 0.8558
vn 0.2183 -0.4132 0.8841
vn 0.0863 -0.1773 0.9804
vn 0.2429 -0.1381 0.9602
vn -0.0106 -0.8132 0.5818
vn -0.0366 -0.0105 0.9993
vn 0.0284 -0.8288 0.5588
vn 0.0416 -0.0203 0.9989
vn -0.0303 -0.8193 0.5726
vn 0.0380 -0.6528 0.7565
vn 0.0426 0.0280 0.9987
vn 0.0560 -0.0230 0.9982
vn 0.1488 -0.5065 0.8493
vn -0.0068 -0.7242 0.6895
vn 0.0096 -0.7611 0.6485
vn -0.5586 -0.5455 0.6248
vn -0.0300 -0.6057 0.7951
vn -0.1160 -0.6899 0.7146
vn -0.0810 -0.6513 0.7545
vn 0.0804 -0.4664 0.8809
vn 0.0792 -0.4660 0.8812
vn 0.2087 -0.4737 0.8556
vn 0.2090 -0.4733 0.8558
vn 0.1118 -0.4739 0.8735
vn -0.0710 -0.8520 0.5187
vn 0.0969 -0.5381 0.8373
vn 0.2099 -0.4380 0.8741
vn 0.2018 -0.4260 0.8819
vn 0.1633 -0.4279 0.8890
vn 0.3155 -0.3710 0.8734
vn 0.1787 -0.4114 0.8938
vn 0.1476 -0.3652 0.9192
vn 0.1438 -0.3445 0.9277
vn 0.0173 -0.3990 0.9168
vn 0.0939 -0.2719 0.9577
vn -0.0785 -0.1501 0.9856
vn 0.3311 -0.2179 0.9181
vn -0.0128 -0.5158 0.8566
vn 0.0974 -0.1154 0.9885
vn 0.4356 0.1503 0.8875
vn 0.0821 -0.0855 0.9930
vn 0.0363 -0.0794 0.9962
vn 0.1052 -0.0688 0.9921
vn 0.1242 -0.3710 0.9203
vn 0.0531 -0.0651 0.9965
vn 0.0055 -0.0454 0.9990
vn 0.0456 -0.0686 0.9966
vn -0.0396 -0.0203 0.9990
vn -0.0113 -0.0558 0.9984
vn 0.8360 0.1931 0.5136
vn 0.0233 -0.0812 0.9964
vn 0.0671 -0.1080 0.9919
vn 0.0092 -0.0524 0.9986
vn 0.0222 -0.0830 0.9963
vn 0.0294 -0.0610 0.9977
vn 0.0515 -0.0830 0.9952
vn 0.0482 -0.0112 0.9988
vn 0.0459 -0.0326 0.9984
vn 0.0442 -0.0006 0.9990
vn 0.0431 0.0010 0.9991
vn 0.0366 0.0077 0.9993
vn 0.0269 0.0012 0.9996
vn -0.0973 0.0356 0.9946
vn -0.0126 -0.0277 0.9995
vn 0.1057 0.1244 0.9866
vn -0.1396 -0.1476 0.9792
vn 0.0027 -0.0460 0.9989
vn 0.0019 0.0167 0.9999
vn 0.0257 0.0512 0.9984
vn 0.0224 0.0022 0.9997
vn 0.0206 -0.0155 0.9997
vn 0.1108 0.0243 0.9935
vn -0.0297 -0.0071 0.9995
vn 0.0130 0.0287 0.9995
vn 0.0792 0.0671 0.9946
vn 0.0376 0.0701 0.9968
vn 0.0784 0.0164 0.9968
vn -0.0638 0.0353 0.9973
vn 0.2463 -0.3573 0.9009
vn 0.0117 -0.7949 0.6066
vn 0.1080 -0.3641 0.9251
vn 0.0237 -0.0094 0.9997
vn -0.0768 -0.0614 0.9952
vn -0.0865 -0.0269 0.9959
vn 0.0378 0.0228 0.9990
vn -0.0316 -0.5843 0.8109
vn -0.0706 0.3489 0.9345
vn 0.0563 -0.0602 0.9966
vn 0.0577 -0.0462 0.9973
vn -0.2068 -0.0582 0.9767
vn 0.0688 -0.0804 0.9944
vn 0.1737 0.0580 0.9831
vn -0.2819 -0.8716 0.4010
vn -0.0018 0.1000 0.9950
vn 0.0301 -0.0839 0.9960
vn 0.2337 -0.0841 0.9687
vn 0.1960 -0.3702 0.9080
vn -0.0234 -0.1110 0.9935
vn -0.0053 0.0581 0.9983
vn 0.2027 -0.2914 0.9349
vn -0.0718 -0.0745 0.9946
vn 0.2737 -0.3503 0.8958
vn 0.0042 -0.0249 0.9997
vn 0.0070 -0.0098 0.9999
vn 0.1166 -0.4915 0.8631
vn 0.2051 -0.4460 0.8712
vn 0.0141 -0.0134 0.9998
vn -0.2152 0.2542 0.9429
vn 0.0578 0.0005 0.9983
vn -0.0055 -0.0205 0.9998
vn -0.0283 -0.0360 0.9990
vn 0.1617 -0.2803 0.9462
vn -0.0303 -0.0867 0.9958
vn 0.0033 -0.0564 0.9984
vn 0.1249 -0.5101 0.8510
vn 0.0145 -0.0101 0.9998
vn 0.0275 -0.7249 0.6883
vn 0.1935 -0.4996 0.8444
vn -0.0865 -0.0311 0.9958
vn -0.1936 -0.1714 0.9660
usemtl None
s off
f 1//1 2//1 3//1
f 4//2 6//2 5//2
f 5//3 7//3 4//3
f 8//4 4//4 7//4
f 9//5 10//5 11//5
f 9//6 11//6 12//6
f 13//7 8//7 3//7
f 4//8 15//8 14//8
f 16//9 15//9 17//9
f 18//10 19//10 20//10
f 20//11 21//11 18//11
f 1//12 12//12 22//12
f 23//13 25//13 24//13
f 1//14 26//14 9//14
f 27//15 29//15 28//15
f 12//16 1//16 9//16
f 8//17 30//17 4//17
f 31//18 32//18 33//18
f 31//19 33//19 34//19
f 8//20 7//20 3//20
f 3//21 7//21 35//21
f 36//22 3//22 35//22
f 37//23 3//23 2//23
f 13//24 38//24 8//24
f 36//25 26//25 1//25
f 36//26 1//26 3//26
f 4//27 40//27 39//27
f 39//28 41//28 4//28
f 42//29 15//29 4//29
f 14//30 15//30 43//30
f 41//31 42//31 4//31
f 9//32 44//32 10//32
f 45//33 47//33 46//33
f 42//34 47//34 15//34
f 47//35 45//35 15//35
f 45//36 48//36 15//36
f 49//37 18//37 50//37
f 50//38 16//38 17//38
f 50//39 17//39 49//39
f 49//40 17//40 48//40
f 45//41 52//41 51//41
f 51//42 19//42 49//42
f 49//43 48//43 51//43
f 19//44 18//44 49//44
f 51//45 53//45 19//45
f 54//46 21//46 55//46
f 56//47 18//47 21//47
f 57//48 55//48 21//48
f 58//49 59//49 55//49
f 20//50 57//50 21//50
f 58//51 60//51 59//51
f 23//52 61//52 62//52
f 25//53 63//53 64//53
f 61//54 23//54 65//54
f 24//55 66//55 23//55
f 23//56 66//56 65//56
f 67//57 66//57 68//57
f 68//58 66//58 69//58
f 28//59 70//59 68//59
f 71//60 69//60 66//60
f 68//61 69//61 72//61
f 68//62 72//62 28//62
f 28//63 29//63 70//63
f 27//64 73//64 74//64
f 74//65 29//65 27//65
f 75//66 74//66 73//66
f 75//67 76//67 74//67
f 77//68 74//68 76//68
f 77//69 76//69 78//69
f 74//70 77//70 79//70
f 79//71 77//71 80//71
f 77//72 81//72 82//72
f 83//73 82//73 81//73
f 84//74 80//74 77//74
f 84//75 77//75 82//75
f 85//76 81//76 77//76
f 84//77 82//77 86//77
f 87//78 88//78 89//78
f 89//79 33//79 32//79
f 89//80 88//80 33//80
f 90//81 31//81 91//81
f 90//82 32//82 31//82
f 92//83 34//83 33//83
f 91//84 31//84 93//84
f 94//85 93//85 95//85
f 64//86 97//86 96//86
f 22//87 2//87 1//87
f 98//88 52//88 45//88
f 66//89 100//89 99//89
f 93//90 101//90 102//90
f 101//91 93//91 103//91
f 104//92 86//92 82//92
f 30//93 8//93 38//93
f 105//94 33//94 88//94
f 25//95 23//95 55//95
f 25//96 55//96 63//96
f 28//97 72//97 106//97
f 57//98 58//98 55//98
f 107//99 19//99 53//99
f 108//100 53//100 51//100
f 23//101 62//101 55//101
f 55//102 59//102 63//102
f 56//103 21//103 54//103
f 45//104 46//104 98//104
f 66//105 67//105 65//105
f 31//106 95//106 93//106
f 109//107 95//107 31//107
f 67//108 68//108 65//108
f 48//109 17//109 15//109
f 99//110 71//110 66//110
f 87//111 111//111 110//111
f 112//112 40//112 4//112
f 43//113 15//113 16//113
f 84//114 110//114 111//114
f 97//115 64//115 63//115
f 86//116 110//116 84//116
f 100//117 66//117 24//117
f 24//118 25//118 113//118
f 45//119 51//119 48//119
f 113//120 25//120 64//120
f 114//121 28//121 106//121
f 4//122 30//122 112//122
f 87//123 89//123 111//123
f 5//124 35//124 7//124
f 14//125 6//125 4//125
f 103//126 93//126 94//126
f 78//127 115//127 77//127
