# Blender v2.79 (sub 0) OBJ File: ''
# www.blender.org
mtllib my_crack_surf__129.mtl
o my_crack_surf__129
v 130.276993 -5.409081 126.889999
v 138.979004 -14.372218 113.019997
v 144.070007 -5.929790 126.910004
v 151.761993 97.056961 213.423019
v 164.561005 72.558868 198.961014
v 88.613297 112.866959 235.306015
v 149.423004 -15.646918 110.136002
v 168.574997 15.750374 155.294006
v 165.679001 3.958967 141.455994
v 161.119995 -2.812181 132.160995
v 64.007401 114.554962 241.573013
v 66.088799 128.722961 247.427017
v 29.440100 132.458954 258.093018
v 0.653835 157.203949 266.393036
v 3.743970 147.173950 266.253021
v 27.773199 182.296951 266.431030
v -2.863970 182.491959 269.537018
v -23.833799 183.604950 271.815033
v -7.821960 183.056961 270.125031
v -12.416200 183.305954 270.714020
v 170.600998 36.476974 174.181000
v 169.673996 26.923273 166.345993
v 144.013000 35.988274 175.255005
v 129.147995 20.194973 159.072998
v 116.240997 55.292168 196.329010
v 171.533997 51.478771 184.657013
v 118.469002 43.906368 184.705994
v 112.478996 66.650169 203.811020
v -185.576004 -35.549042 263.126007
v -184.923996 3.716107 264.161011
v -144.464996 -14.357043 261.528015
v 82.506699 -99.771538 256.200958
v 93.665199 -92.293541 254.069992
v 138.628998 -106.368034 251.594986
v 39.311901 -139.479050 257.081970
v 39.690899 -179.398041 259.604980
v 64.888000 -171.370041 259.348969
v 88.712303 -163.017044 258.802979
v 98.155800 -153.868042 258.140961
v 86.666901 -134.659042 256.919983
v 106.864998 -143.441040 257.677979
v 71.305199 -107.291039 256.947968
v 132.300995 -115.301041 252.922989
v 120.587997 -126.946037 254.996979
v 150.132996 -86.475639 247.747986
v 152.345993 -75.776642 245.736984
v 108.214996 -69.358841 248.299988
v 129.294998 5.463787 143.020996
v 157.026993 88.895569 208.271011
v 102.002998 78.416664 213.041016
v 75.525299 102.543961 232.680008
v 132.556000 119.742958 228.587021
v 130.266006 -16.864616 105.970001
v 129.110001 -22.113716 95.345596
v 138.209000 -19.614817 101.463997
v 114.922997 141.057953 242.211029
v 105.578003 150.060959 247.901031
v 94.503899 159.448959 253.165024
v 52.453701 133.632950 250.125015
v 50.598099 119.328964 245.163010
v 37.996899 123.617958 251.951019
v 61.427601 139.233948 250.937012
v 82.851501 166.387955 256.838043
v 69.447701 157.542953 255.962036
v 70.665199 172.957947 260.034027
v 42.611500 180.857956 264.618042
v 76.892303 169.733948 258.472015
v 46.658699 158.466949 259.485016
v 51.105900 179.050949 263.616028
v 5.475160 138.860947 265.023041
v 7.233110 130.521957 263.965027
v -41.791100 123.699951 267.843018
v -49.354099 161.050949 271.464020
v -59.013901 116.079956 268.532043
v -47.665401 181.179947 272.928040
v -124.510002 134.381958 272.084045
v -61.557301 177.257950 273.049042
v -90.512497 165.003952 273.247040
v -98.086601 160.862961 273.964020
v -105.884003 155.435959 273.738037
v -113.192001 65.724251 268.144989
v -98.254898 85.808754 268.710999
v -142.412994 118.027954 271.418030
v -148.033997 111.836952 270.657043
v -183.442001 52.989258 267.938995
v -143.373993 33.023159 264.938995
v -127.900002 24.632856 264.104004
v -130.757996 13.794157 263.141998
v -129.238998 -8.060822 261.252991
v -127.957001 -30.293741 260.553986
v -138.996994 -39.442341 261.093994
v -184.779999 14.223057 264.951996
v -123.099998 -41.409740 260.759003
v -129.973999 -47.105541 261.105011
v -113.347000 -63.432941 262.872986
v -185.613007 -1.744563 263.957001
v -133.414993 -86.721245 261.847992
v -178.606003 -69.748047 262.641998
v -184.651993 -46.330341 262.994995
v -141.889999 -116.900047 262.186981
v -108.404999 -74.428642 262.654999
v -82.462502 -119.451042 260.559967
v -123.137001 -134.426041 262.230957
v -42.049301 -124.596046 260.465973
v -82.023598 -102.782043 261.324982
v -109.817001 -148.298050 262.331970
v -98.842003 -158.220047 262.402985
v -64.915901 -174.568039 261.188965
v -21.092501 -128.025040 260.038971
v -15.191200 -181.491043 260.934967
v -32.927700 -181.424042 260.888977
v 0.000000 -131.500046 258.826965
v 2.679910 -179.437042 260.176971
v 16.797800 -180.187042 259.817963
v 24.629499 -126.713036 257.259979
v 36.845901 -124.358040 257.406982
v 49.050598 -122.008041 256.784973
v 116.566002 -134.095047 256.024963
v 153.298996 -51.974937 241.985977
v 122.763000 -47.032238 243.417984
v 145.858994 -27.053839 237.050003
v 148.684006 -33.431137 238.373993
v 126.801003 -17.935938 236.195999
v 158.692993 -7.392751 125.595001
v -85.441200 -165.918045 262.031982
v 168.003998 12.527775 151.873993
v 167.007996 9.011907 147.800995
v 110.328003 145.586960 245.149033
v -130.268997 129.407959 271.875031
v -185.582993 31.058256 266.347992
v -53.809101 -177.791046 261.024963
v 139.507004 -20.143839 236.033997
v 23.750299 127.250954 258.932037
v -28.702900 183.387955 272.197021
v -186.755005 -28.886843 263.255005
v -163.309006 95.736053 269.928040
v -155.942993 105.424957 270.359039
v 167.591003 20.954473 160.529999
v -165.014008 -92.520348 262.239990
v 75.304199 -167.041046 259.147980
v -185.080002 41.238358 267.143005
v 166.479004 67.672066 195.843018
v 127.908997 -10.249639 234.856003
v 152.972000 -63.126740 243.342987
v 26.697300 -181.409042 259.806976
v -181.660004 59.203560 268.231995
v -152.623993 -108.095047 262.234955
v -83.835098 169.240952 273.231018
v 121.609001 133.684952 237.506012
v 151.934006 -43.069237 240.294998
vn -0.0328 -0.8487 0.5279
vn 0.2026 -0.4172 0.8860
vn 0.0357 -0.8598 0.5095
vn -0.3045 -0.6926 0.6539
vn 0.2005 -0.3991 0.8947
vn 0.3503 0.0949 0.9318
vn 0.1453 -0.1585 0.9766
vn 0.0996 -0.1091 0.9890
vn 0.0441 -0.7494 0.6606
vn 0.0428 -0.6360 0.7705
vn -0.0550 -0.7700 0.6356
vn -0.0304 -0.7815 0.6232
vn -0.0286 -0.7827 0.6217
vn 0.1413 -0.5234 0.8403
vn 0.1007 -0.7010 0.7060
vn 0.0905 -0.6293 0.7719
vn 0.1371 -0.5128 0.8475
vn 0.0528 -0.0272 0.9982
vn 0.0969 0.1363 0.9859
vn -0.0099 0.0630 0.9980
vn 0.0054 0.0666 0.9978
vn -0.0133 0.0555 0.9984
vn 0.0489 0.0264 0.9985
vn 0.0917 0.0845 0.9922
vn 0.0912 0.0829 0.9924
vn 0.0815 0.1678 0.9824
vn 0.9593 -0.2036 0.1956
vn 0.2945 -0.3670 0.8824
vn 0.1382 -0.5322 0.8353
vn 0.1461 -0.4963 0.8558
vn 0.2026 -0.4748 0.8565
vn 0.2011 -0.4210 0.8845
vn -0.1365 -0.8689 0.4759
vn -0.0555 -0.8928 0.4471
vn 0.1776 -0.3874 0.9047
vn 0.1250 -0.3689 0.9210
vn 0.2219 -0.3734 0.9008
vn 0.3504 -0.3472 0.8699
vn 0.1047 -0.3929 0.9136
vn 0.0655 -0.3346 0.9401
vn 0.1029 -0.2737 0.9563
vn 0.0883 -0.2801 0.9559
vn 0.3253 -0.3066 0.8945
vn 0.2929 -0.5795 0.7605
vn 0.1102 -0.2620 0.9588
vn 0.1278 -0.2877 0.9491
vn 0.0838 -0.2607 0.9618
vn 0.0582 -0.2879 0.9559
vn 0.1289 -0.3146 0.9404
vn -0.0224 -0.4708 0.8820
vn 0.3402 -0.1513 0.9281
vn 0.2572 -0.2206 0.9408
vn -0.0187 -0.5506 0.8346
vn 0.2545 -0.0895 0.9629
vn 0.2605 -0.0673 0.9631
vn 0.0991 -0.1254 0.9871
vn 0.0931 -0.1060 0.9900
vn 0.2006 -0.1843 0.9622
vn 0.1043 -0.1607 0.9815
vn 0.0756 -0.0810 0.9938
vn 0.1006 -0.1098 0.9889
vn 0.1049 -0.1083 0.9886
vn 0.0945 -0.0801 0.9923
vn 0.0339 -0.0723 0.9968
vn 0.0610 -0.1462 0.9874
vn 0.0338 -0.0720 0.9968
vn 0.2660 -0.3298 0.9058
vn 0.0661 -0.1361 0.9885
vn 0.0321 -0.0520 0.9981
vn 0.3634 -0.4314 0.8257
vn 0.0072 -0.0561 0.9984
vn 0.0005 -0.0981 0.9952
vn 0.0051 -0.0897 0.9960
vn 0.0520 -0.0824 0.9952
vn 0.0315 -0.0725 0.9969
vn 0.0303 -0.0773 0.9965
vn 0.0384 -0.0726 0.9966
vn 0.0303 -0.0297 0.9991
vn 0.0535 -0.0056 0.9986
vn -0.0842 -0.0737 0.9937
vn -0.0213 0.0862 0.9961
vn 0.0247 0.0292 0.9993
vn 0.0249 0.0307 0.9992
vn 0.4658 0.5495 0.6936
vn -0.0998 -0.0246 0.9947
vn 0.0246 0.0188 0.9995
vn 0.0429 -0.0079 0.9990
vn 0.0170 -0.0107 0.9998
vn 0.0431 -0.0053 0.9991
vn -0.0946 0.0377 0.9948
vn 0.0071 -0.0166 0.9998
vn 0.0260 -0.0315 0.9992
vn 0.0288 0.0333 0.9990
vn -0.0035 -0.0458 0.9989
vn 0.0011 -0.0459 0.9989
vn 0.0283 0.0345 0.9990
vn 0.0264 0.0363 0.9990
vn 0.0487 0.0269 0.9985
vn -0.0025 0.0165 0.9999
vn 0.0389 0.0303 0.9988
vn 0.0270 0.0296 0.9992
vn 0.0558 0.0396 0.9977
vn -0.0076 -0.0227 0.9997
vn 0.0533 -0.0128 0.9985
vn 0.0476 0.0408 0.9980
vn 0.0071 0.0631 0.9980
vn 0.1362 0.0754 0.9878
vn -0.0294 0.0334 0.9990
vn -0.0223 0.0263 0.9994
vn 0.0295 0.0241 0.9993
vn 0.0268 0.1470 0.9888
vn 0.1092 0.1768 0.9782
vn 0.0950 0.0891 0.9915
vn 0.0793 0.1521 0.9852
vn 0.0732 0.1673 0.9832
vn -0.0649 0.1752 0.9824
vn 0.0673 0.2315 0.9705
vn 0.0807 0.2168 0.9729
vn -0.0430 -0.8704 0.4905
vn 0.0774 0.0869 0.9932
vn -0.5631 -0.5525 0.6146
vn -0.3871 -0.7451 0.5430
vn -0.0205 -0.0182 0.9996
vn 0.0710 -0.0791 0.9943
vn 0.0089 0.0139 0.9999
vn 0.0447 0.1855 0.9816
vn 0.0735 0.1482 0.9862
vn 0.2643 -0.1349 0.9550
vn 0.0278 -0.7280 0.6850
vn 0.0764 -0.0809 0.9938
vn 0.1022 0.0176 0.9946
vn 0.0436 -0.5738 0.8178
vn 0.0299 -0.0750 0.9967
vn 0.0899 -0.4834 0.8708
vn 0.0612 0.0235 0.9978
vn -0.0296 -0.0246 0.9993
vn 0.0071 -0.0498 0.9987
vn 0.0409 -0.0472 0.9980
vn 0.1893 -0.4606 0.8672
vn 0.0019 -0.6982 0.7159
vn 0.0141 -0.0092 0.9999
vn -0.0125 -0.7098 0.7043
vn -0.0136 -0.7105 0.7036
vn -0.0776 -0.9060 0.4162
vn 0.0029 -0.9107 0.4130
vn 0.0109 0.0082 0.9999
vn -0.0545 -0.4444 0.8941
vn 0.3703 -0.2609 0.8915
vn -0.0077 0.0648 0.9979
vn 0.0023 0.0778 0.9970
vn -0.0387 -0.0229 0.9990
vn -0.0005 -0.0459 0.9989
vn 0.1139 -0.0829 0.9900
vn -0.4393 -0.5994 0.6692
vn 0.0414 0.1658 0.9853
vn 0.0172 0.0085 0.9998
vn 0.9582 0.0067 0.2860
vn 0.0075 0.0518 0.9986
vn 0.0033 -0.0481 0.9988
vn 0.0106 0.0148 0.9998
vn 0.0121 0.0093 0.9999
vn 0.0885 -0.1357 0.9868
vn 0.0177 -0.1137 0.9934
vn 0.1917 -0.3985 0.8969
vn 0.2003 -0.4115 0.8891
vn -0.0504 0.1788 0.9826
vn -0.9783 -0.0031 0.2074
vn 0.0344 -0.0729 0.9967
vn -0.0611 0.0087 0.9981
vn -0.0294 -0.8147 0.5792
usemtl None
s off
f 1//1 2//1 3//1
f 4//2 6//2 5//2
f 3//3 2//3 7//3
f 8//4 10//4 9//4
f 11//5 6//5 12//5
f 13//6 14//6 15//6
f 14//7 13//7 16//7
f 17//8 14//8 16//8
f 18//9 19//9 20//9
f 21//10 23//10 22//10
f 8//11 3//11 10//11
f 8//12 1//12 3//12
f 8//13 24//13 1//13
f 25//14 26//14 5//14
f 25//15 27//15 26//15
f 23//16 26//16 27//16
f 25//17 5//17 28//17
f 29//18 31//18 30//18
f 32//19 34//19 33//19
f 35//20 36//20 37//20
f 38//21 39//21 40//21
f 39//22 41//22 40//22
f 32//23 42//23 40//23
f 43//24 32//24 44//24
f 43//25 34//25 32//25
f 45//26 46//26 47//26
f 24//27 48//27 1//27
f 4//28 5//28 49//28
f 28//29 5//29 50//29
f 50//30 5//30 6//30
f 50//31 6//31 51//31
f 52//32 6//32 4//32
f 1//33 53//33 2//33
f 54//34 55//34 53//34
f 6//35 56//35 57//35
f 6//36 57//36 58//36
f 58//37 12//37 6//37
f 59//38 61//38 60//38
f 60//39 11//39 12//39
f 60//40 12//40 59//40
f 62//41 12//41 58//41
f 62//42 59//42 12//42
f 59//43 13//43 61//43
f 59//44 62//44 13//44
f 63//45 65//45 64//45
f 64//46 58//46 63//46
f 65//47 66//47 64//47
f 64//48 66//48 62//48
f 58//49 64//49 62//49
f 67//50 65//50 63//50
f 68//51 62//51 66//51
f 13//52 62//52 68//52
f 65//53 69//53 66//53
f 13//54 15//54 70//54
f 70//55 71//55 13//55
f 70//56 15//56 72//56
f 72//57 71//57 70//57
f 68//58 66//58 13//58
f 16//59 13//59 66//59
f 73//60 74//60 72//60
f 14//61 19//61 18//61
f 14//62 17//62 19//62
f 14//63 75//63 73//63
f 73//64 76//64 74//64
f 75//65 14//65 18//65
f 77//66 76//66 73//66
f 76//67 78//67 79//67
f 80//68 76//68 79//68
f 76//69 81//69 82//69
f 76//70 83//70 84//70
f 81//71 76//71 85//71
f 86//72 87//72 81//72
f 88//73 87//73 86//73
f 31//74 89//74 88//74
f 88//75 86//75 31//75
f 30//76 31//76 85//76
f 86//77 85//77 31//77
f 90//78 89//78 31//78
f 90//79 31//79 91//79
f 85//80 92//80 30//80
f 93//81 94//81 95//81
f 93//82 90//82 91//82
f 94//83 93//83 91//83
f 94//84 91//84 95//84
f 96//85 29//85 30//85
f 97//86 91//86 98//86
f 91//87 31//87 29//87
f 99//88 98//88 29//88
f 98//89 91//89 29//89
f 97//90 100//90 95//90
f 100//91 101//91 95//91
f 100//92 102//92 101//92
f 102//93 100//93 103//93
f 104//94 105//94 102//94
f 101//95 102//95 105//95
f 106//96 102//96 103//96
f 102//97 106//97 107//97
f 102//98 107//98 108//98
f 109//99 111//99 110//99
f 112//100 110//100 113//100
f 112//101 113//101 114//101
f 114//102 115//102 112//102
f 35//103 116//103 115//103
f 116//104 35//104 117//104
f 35//105 115//105 114//105
f 114//106 36//106 35//106
f 42//107 38//107 40//107
f 42//108 117//108 35//108
f 35//109 38//109 42//109
f 118//110 32//110 40//110
f 118//111 40//111 41//111
f 34//112 47//112 33//112
f 32//113 118//113 44//113
f 119//114 47//114 46//114
f 119//115 120//115 47//115
f 121//116 119//116 122//116
f 120//117 121//117 123//117
f 119//118 121//118 120//118
f 124//119 3//119 7//119
f 125//120 108//120 107//120
f 126//121 8//121 127//121
f 128//122 57//122 56//122
f 129//123 83//123 76//123
f 130//124 92//124 85//124
f 131//125 111//125 109//125
f 132//126 123//126 121//126
f 34//127 45//127 47//127
f 133//128 13//128 71//128
f 24//129 23//129 27//129
f 73//130 72//130 15//130
f 14//131 73//131 15//131
f 26//132 23//132 21//132
f 77//133 73//133 75//133
f 134//134 75//134 18//134
f 112//135 109//135 110//135
f 29//136 96//136 135//136
f 136//137 85//137 137//137
f 82//138 74//138 76//138
f 51//139 6//139 11//139
f 22//140 23//140 138//140
f 139//141 97//141 98//141
f 8//142 23//142 24//142
f 23//143 8//143 138//143
f 55//144 2//144 53//144
f 55//145 7//145 2//145
f 97//146 139//146 100//146
f 102//147 109//147 104//147
f 133//148 61//148 13//148
f 37//149 140//149 35//149
f 35//150 140//150 38//150
f 76//151 84//151 85//151
f 137//152 85//152 84//152
f 130//153 85//153 141//153
f 26//154 142//154 5//154
f 143//155 123//155 132//155
f 109//156 108//156 131//156
f 46//157 144//157 119//157
f 36//158 114//158 145//158
f 146//159 85//159 136//159
f 102//160 108//160 109//160
f 147//161 100//161 139//161
f 76//162 148//162 78//162
f 81//163 85//163 86//163
f 56//164 6//164 149//164
f 149//165 6//165 52//165
f 119//166 150//166 122//166
f 127//167 8//167 9//167
f 77//168 148//168 76//168
f 97//169 95//169 91//169
f 124//170 10//170 3//170
