# Blender v2.79 (sub 0) OBJ File: ''
# www.blender.org
mtllib my_crack_surf__143.mtl
o my_crack_surf__143
v 168.222000 12.770676 151.425003
v 155.410995 7.083036 143.804993
v 166.014999 4.194897 140.925003
v 130.276993 -5.250600 126.759003
v 130.270004 -13.074018 113.028000
v 147.664001 -10.910019 119.191002
v 154.345001 95.188164 212.524017
v 111.426003 69.831871 205.866013
v 88.613197 112.866959 235.306015
v 64.034599 114.537964 241.680008
v 66.074699 128.731949 247.372009
v 7.233110 130.521957 263.965027
v 29.738199 132.976959 257.610016
v 23.454800 127.247955 258.496033
v 13.895900 161.207947 265.410034
v 3.743970 147.173950 266.253021
v 0.655653 157.199951 266.352020
v -2.616740 183.308960 269.587036
v 21.559700 183.833954 267.260040
v 164.164993 0.661611 136.164001
v 124.742996 60.527168 197.242020
v 118.470001 43.903969 184.705994
v 116.240997 55.292168 196.329010
v 130.365997 41.877571 182.080994
v 168.218994 35.499073 173.363998
v 153.309006 40.740471 177.416000
v 167.582001 31.328072 169.919006
v 158.725006 -7.116460 124.319000
v 137.968994 4.914947 141.057999
v 146.369995 6.407657 142.667999
v -128.520996 -63.426342 261.761993
v -179.287994 -69.862442 262.580994
v -165.173004 -93.452248 262.346985
v 169.216003 62.238770 192.836014
v 156.035004 50.927670 184.677017
v 17.408199 -159.361038 258.741974
v 0.000000 -131.500046 258.824982
v -26.105700 -158.293045 260.598969
v 39.320000 -139.503052 257.216980
v 48.855999 -181.946045 260.360962
v 66.244797 -173.070053 260.013977
v 80.715302 -149.598053 257.922974
v 98.913399 -155.116043 258.575958
v 78.971199 -120.975037 256.912964
v 143.940994 -102.876038 250.925980
v 122.968002 -128.355042 255.284988
v 153.593994 -88.506638 248.467987
v 129.147003 20.199173 159.067993
v 170.179001 28.244173 167.789001
v 172.276993 51.406170 185.516022
v 129.294998 5.463787 143.020996
v 163.304001 76.498367 202.063019
v 75.595200 102.479965 232.721008
v 150.546997 -15.011118 110.264999
v 135.358994 -20.568516 98.818703
v 129.070007 -22.297615 95.061096
v 165.766006 71.523972 199.102020
v 114.816002 142.189957 242.656036
v 126.810997 128.907974 233.894012
v 95.009499 159.223953 252.464035
v 105.172997 151.625961 248.369034
v 70.596001 173.862961 259.563019
v 52.402802 133.662949 249.924011
v 50.590698 119.332962 245.134018
v 37.903599 123.673965 251.582016
v 5.475090 138.860947 265.022034
v -41.824501 123.699951 267.793030
v 42.995800 174.615952 263.508026
v 53.733002 179.165955 262.881042
v 33.218399 183.063950 265.922028
v -54.248901 147.237961 270.753021
v -58.991001 116.103951 268.468018
v -12.161200 184.739960 270.908020
v -62.582802 178.339951 273.285034
v -47.443199 182.190948 273.261017
v -54.903500 180.411957 273.316040
v -106.024002 155.620956 273.739044
v -77.245598 172.988953 273.629028
v -139.347000 123.064957 271.799042
v -98.238800 85.825851 268.666992
v -150.197998 113.022957 271.046021
v -177.820999 68.242653 268.302002
v -186.171005 42.037258 266.968994
v -173.664993 77.655655 269.002991
v -113.192001 65.724251 268.144989
v -127.900002 24.637257 264.147003
v -130.757004 13.800057 263.199005
v -129.240005 -8.056863 261.321991
v -186.378006 35.802460 266.502991
v -185.889008 18.516356 265.373993
v -185.578995 10.280057 264.811005
v -127.957001 -30.290142 260.618011
v -188.063004 -19.469845 263.502014
v -123.099998 -41.410042 260.752991
v -132.289993 -54.793842 261.609009
v -113.346001 -63.433941 262.846008
v -189.289993 -29.072643 263.454987
v -108.404999 -74.428749 262.652008
v -82.462502 -119.451042 260.590973
v -129.891998 -129.013046 262.168976
v -114.500999 -144.767044 262.242981
v -42.049301 -124.596046 260.465973
v -82.023598 -102.782043 261.324982
v -137.444000 -122.812042 262.100983
v -98.842697 -158.286041 262.222961
v -71.186897 -165.923050 261.263977
v -65.873398 -174.714050 262.161957
v -21.092501 -128.025040 260.038971
v 24.629601 -126.713036 257.267975
v 14.746600 -183.730042 260.454956
v 36.847198 -124.358040 257.471954
v 49.039799 -122.013039 256.806976
v 71.281998 -107.306038 256.950958
v 82.478897 -99.794235 255.796982
v 93.637100 -92.321236 253.780991
v 106.820000 -100.547035 253.561981
v 122.722000 -47.136837 243.252991
v 142.186005 -36.107437 239.354996
v 158.671997 -77.194542 246.400986
v 164.533005 -50.153137 241.749985
v 164.419006 -22.339437 236.078995
v 165.643005 -33.545540 238.261002
v 128.809006 -3.799758 233.550995
v 165.548004 -28.556639 237.300003
v 138.731995 18.602764 223.854004
v 131.076996 9.238183 228.813995
v 152.755997 7.811633 228.022995
v -85.904404 -166.234039 261.794983
v -20.996201 -184.258041 261.277985
v -33.736900 -183.588043 261.619965
v 171.233002 36.018173 174.626007
v -7.326730 184.515961 270.281036
v -22.488899 184.899948 271.911041
v -19.330299 184.896957 271.632019
v -35.077999 184.414948 272.897034
v -187.710007 -36.083942 263.230011
v -186.130997 -48.212143 262.924988
v 89.822800 -164.842041 259.019958
v 75.704300 -168.768051 259.642975
v 127.890999 19.769964 224.369003
v -183.964005 -56.264442 262.769989
v -41.167702 -165.202042 260.934967
v 155.393005 -10.765919 118.374001
v -144.785004 118.373955 271.587036
v -58.130199 -177.944046 262.076965
v 0.616315 -183.244049 260.919983
v -125.408997 135.455948 272.607025
v 161.615997 -10.295238 233.031998
v 158.832993 -3.134368 230.923996
v -164.664993 94.157356 269.844025
v -156.578003 105.771957 270.432037
v -98.754097 161.753952 273.986023
v 110.482002 146.716949 245.487030
v 75.988998 170.841949 258.253021
v -186.466003 27.584557 266.009003
v 157.641006 89.445770 209.054016
v -154.996994 -106.907043 262.335968
v -182.244995 58.333759 267.942993
v 146.022995 -17.066618 106.325996
vn -0.0368 -0.7702 0.6368
vn -0.0672 -0.8669 0.4940
vn 0.1616 -0.4974 0.8523
vn 0.2063 -0.3896 0.8976
vn 0.2847 -0.1663 0.9441
vn 0.2514 -0.1242 0.9599
vn 0.0676 0.0110 0.9976
vn 0.0976 -0.1139 0.9887
vn -0.0507 -0.7924 0.6078
vn 0.3224 -0.6445 0.6933
vn 0.0679 -0.6169 0.7841
vn 0.1841 -0.2172 0.9586
vn 0.0679 -0.6415 0.7641
vn 0.0413 -0.8438 0.5351
vn -0.0597 -0.7968 0.6013
vn 0.0078 -0.8084 0.5885
vn -0.0655 -0.5378 0.8405
vn 0.0162 -0.0002 0.9999
vn 0.0994 -0.6557 0.7485
vn 0.1322 -0.6010 0.7883
vn 0.1311 -0.5984 0.7904
vn 0.1048 -0.4748 0.8738
vn 0.1777 -0.5201 0.8354
vn 0.0432 0.0240 0.9988
vn -0.0160 0.0703 0.9974
vn -0.0256 0.0337 0.9991
vn 0.0002 0.1685 0.9857
vn 0.0270 -0.7283 0.6847
vn 0.1494 -0.4737 0.8679
vn -0.0031 -0.7278 0.6858
vn -0.0259 -0.7798 0.6255
vn -0.0106 -0.8123 0.5832
vn -0.0253 -0.5757 0.8172
vn -0.0260 -0.5647 0.8249
vn 0.1060 -0.7319 0.6731
vn -0.6524 -0.5835 0.4836
vn 0.2087 -0.4744 0.8552
vn -0.0314 -0.9120 0.4089
vn -0.0294 -0.8884 0.4581
vn -0.4298 -0.6093 0.6663
vn 0.2030 -0.4049 0.8916
vn 0.2016 -0.4015 0.8934
vn -0.1607 -0.6261 0.7630
vn 0.1456 -0.3610 0.9211
vn 0.0594 -0.3537 0.9335
vn 0.2949 -0.2766 0.9146
vn 0.3326 -0.3365 0.8810
vn 0.0995 -0.3826 0.9185
vn 0.0597 -0.3232 0.9444
vn 0.0827 -0.2676 0.9600
vn 0.3140 -0.3066 0.8985
vn 0.3636 -0.2604 0.8944
vn 0.2721 -0.0853 0.9585
vn 0.2776 -0.0630 0.9586
vn 0.0981 -0.1257 0.9872
vn 0.0920 -0.1061 0.9901
vn 0.2629 -0.1667 0.9503
vn 0.3223 -0.0798 0.9433
vn 0.0342 -0.3076 0.9509
vn 0.1715 -0.2744 0.9462
vn 0.1019 -0.1625 0.9814
vn 0.1016 -0.2752 0.9560
vn 0.0770 -0.0843 0.9935
vn 0.0774 0.0140 0.9969
vn 0.0765 -0.0846 0.9935
vn 0.1004 -0.1167 0.9881
vn 0.1050 -0.1146 0.9879
vn 0.0208 -0.0756 0.9969
vn 0.0882 -0.3407 0.9360
vn 0.1183 -0.1438 0.9825
vn 0.0533 -0.0819 0.9952
vn 0.0042 -0.0792 0.9968
vn -0.1886 0.0101 0.9820
vn 0.0174 -0.1030 0.9945
vn 0.0206 -0.0925 0.9955
vn 0.0251 -0.0838 0.9962
vn -0.1516 -0.0687 0.9861
vn 0.0400 -0.0666 0.9970
vn 0.0427 -0.0292 0.9987
vn -0.0274 0.0825 0.9962
vn 0.0461 0.0322 0.9984
vn 0.0462 -0.0478 0.9978
vn -0.0713 -0.0134 0.9974
vn 0.0443 -0.0105 0.9990
vn 0.0623 0.0448 0.9971
vn 0.0180 -0.0151 0.9997
vn -0.0201 0.0440 0.9988
vn -0.0712 -0.0496 0.9962
vn 0.0083 -0.0409 0.9991
vn 0.0285 0.0233 0.9993
vn 0.0270 0.0311 0.9992
vn -0.0025 -0.0439 0.9990
vn 0.0029 -0.0441 0.9990
vn -0.0704 -0.0748 0.9947
vn 0.0275 0.0304 0.9992
vn 0.0414 0.0245 0.9988
vn -0.2353 -0.0430 0.9710
vn 0.0240 0.0224 0.9995
vn 0.0340 0.0129 0.9993
vn 0.0589 0.0087 0.9982
vn 0.0568 0.0325 0.9979
vn 0.0441 0.0653 0.9969
vn 0.0358 0.0372 0.9987
vn -0.0130 -0.0190 0.9997
vn 0.0559 -0.0077 0.9984
vn 0.0020 0.0743 0.9972
vn -0.0034 -0.0047 1.0000
vn 0.0759 0.0399 0.9963
vn 0.1613 0.0253 0.9866
vn 0.0640 0.0760 0.9951
vn 0.1134 0.1556 0.9813
vn 0.1460 0.1454 0.9785
vn 0.0294 0.1466 0.9888
vn 0.0885 0.1894 0.9779
vn 0.0456 0.1597 0.9861
vn 0.4772 -0.6232 0.6195
vn -0.1543 0.2130 0.9648
vn 0.0414 0.2127 0.9762
vn 0.0292 0.1774 0.9837
vn -0.0285 0.1886 0.9817
vn 0.0611 0.4278 0.9018
vn 0.0360 0.0047 0.9993
vn 0.0285 0.0317 0.9991
vn -0.2182 -0.6014 0.7685
vn -0.1453 -0.6422 0.7526
vn 0.1238 -0.0937 0.9879
vn 0.0944 -0.1100 0.9894
vn 0.0749 -0.5153 0.8537
vn 0.0815 -0.0992 0.9917
vn -0.0498 -0.0316 0.9983
vn 0.0206 0.0840 0.9963
vn -0.0171 0.0616 0.9980
vn 0.0561 -0.0661 0.9962
vn 0.0872 0.4096 0.9081
vn -0.4687 -0.1336 0.8732
vn 0.0398 -0.0671 0.9969
vn -0.0713 -0.0384 0.9967
vn 0.0227 0.1966 0.9802
vn 0.1777 -0.3425 0.9226
vn 0.0044 0.0390 0.9992
vn 0.0684 -0.8669 0.4938
vn 0.2088 -0.4871 0.8480
vn 0.3225 -0.4125 0.8520
vn 0.0626 -0.8991 0.4333
vn 0.0310 0.0482 0.9984
vn 0.0332 0.1214 0.9920
vn 0.0346 0.0499 0.9982
vn 0.0085 -0.0745 0.9972
vn -0.2523 0.1817 0.9504
vn -0.1818 0.0769 0.9803
vn -0.0044 0.0259 0.9997
vn 0.1664 0.0449 0.9850
vn -0.1151 -0.7914 0.6003
vn -0.0247 -0.5764 0.8168
vn 0.0972 -0.1548 0.9832
vn -0.0009 0.0702 0.9975
vn -0.2213 -0.6605 0.7175
vn -0.2677 -0.7435 0.6128
vn 0.0522 0.0919 0.9944
vn 0.1322 -0.0609 0.9894
vn 0.1937 -0.4586 0.8673
vn -0.0575 -0.0195 0.9982
vn 0.0231 -0.0432 0.9988
vn 0.0070 0.0305 0.9995
vn 0.0124 0.2626 0.9648
vn 0.0301 0.0494 0.9983
vn 0.1209 -0.0964 0.9880
vn -0.0037 -0.7264 0.6873
vn 0.0152 0.0291 0.9995
vn 0.0535 0.0309 0.9981
vn -0.0213 -0.7761 0.6303
vn 0.0104 -0.7599 0.6500
vn 0.4078 -0.2893 0.8660
vn 0.0532 0.2769 0.9594
vn 0.1019 0.3240 0.9406
vn 0.0499 0.0776 0.9957
vn 0.0401 0.0295 0.9988
vn 0.0723 -0.8308 0.5518
vn 0.0437 -0.0800 0.9958
vn 0.1133 -0.0865 0.9898
vn 0.0463 -0.0687 0.9966
vn 0.0445 -0.0799 0.9958
vn -0.0185 -0.8775 0.4792
vn -0.0305 -0.8886 0.4577
vn 0.0030 -0.0589 0.9983
vn -0.0021 -0.0563 0.9984
vn -0.0196 0.0584 0.9981
vn 0.0010 0.0838 0.9965
vn 0.0154 -0.0708 0.9974
usemtl None
s off
f 1//1 2//1 3//1
f 4//2 5//2 6//2
f 7//3 9//3 8//3
f 10//4 9//4 11//4
f 12//5 14//5 13//5
f 13//6 15//6 16//6
f 17//7 16//7 15//7
f 18//8 15//8 19//8
f 20//9 3//9 2//9
f 21//10 23//10 22//10
f 22//11 24//11 21//11
f 25//12 26//12 24//12
f 25//13 24//13 27//13
f 20//14 6//14 28//14
f 20//15 2//15 6//15
f 29//16 6//16 2//16
f 29//17 2//17 30//17
f 31//18 32//18 33//18
f 34//19 21//19 35//19
f 21//20 24//20 35//20
f 26//21 35//21 24//21
f 7//22 21//22 34//22
f 21//23 7//23 8//23
f 36//24 37//24 38//24
f 39//25 40//25 41//25
f 42//26 43//26 44//26
f 45//27 47//27 46//27
f 22//28 48//28 24//28
f 49//29 27//29 24//29
f 48//30 49//30 24//30
f 48//31 2//31 1//31
f 4//32 6//32 29//32
f 50//33 35//33 26//33
f 50//34 34//34 35//34
f 48//35 51//35 29//35
f 7//36 34//36 52//36
f 8//37 9//37 53//37
f 54//38 6//38 5//38
f 55//39 5//39 56//39
f 52//40 34//40 57//40
f 58//41 9//41 59//41
f 7//42 59//42 9//42
f 60//43 58//43 61//43
f 9//44 58//44 60//44
f 60//45 62//45 9//45
f 9//46 62//46 11//46
f 63//47 65//47 64//47
f 64//48 10//48 11//48
f 64//49 11//49 63//49
f 63//50 11//50 62//50
f 63//51 13//51 65//51
f 14//52 65//52 13//52
f 13//53 16//53 66//53
f 66//54 12//54 13//54
f 67//55 66//55 16//55
f 66//56 67//56 12//56
f 15//57 63//57 19//57
f 15//58 13//58 63//58
f 19//59 63//59 68//59
f 69//60 68//60 63//60
f 70//61 19//61 68//61
f 62//62 69//62 63//62
f 71//63 67//63 16//63
f 71//64 16//64 17//64
f 71//65 72//65 67//65
f 17//66 73//66 71//66
f 17//67 15//67 73//67
f 71//68 75//68 74//68
f 76//69 74//69 75//69
f 69//70 70//70 68//70
f 74//71 78//71 77//71
f 79//72 81//72 80//72
f 82//73 83//73 84//73
f 85//74 83//74 86//74
f 87//75 86//75 83//75
f 83//76 88//76 87//76
f 89//77 90//77 83//77
f 91//78 88//78 90//78
f 92//79 88//79 93//79
f 94//80 95//80 96//80
f 94//81 92//81 95//81
f 91//82 93//82 88//82
f 95//83 31//83 96//83
f 97//84 32//84 93//84
f 95//85 93//85 31//85
f 31//86 93//86 32//86
f 98//87 31//87 33//87
f 96//88 31//88 98//88
f 99//89 98//89 33//89
f 99//90 33//90 100//90
f 100//91 101//91 99//91
f 102//92 103//92 99//92
f 99//93 103//93 98//93
f 104//94 100//94 33//94
f 101//95 105//95 99//95
f 99//96 105//96 106//96
f 99//97 106//97 107//97
f 108//98 102//98 107//98
f 38//99 108//99 107//99
f 108//100 38//100 37//100
f 109//101 37//101 36//101
f 110//102 36//102 38//102
f 39//103 109//103 36//103
f 39//104 111//104 109//104
f 111//105 39//105 112//105
f 39//106 36//106 40//106
f 112//107 44//107 113//107
f 114//108 113//108 44//108
f 114//109 44//109 115//109
f 116//110 115//110 44//110
f 117//111 115//111 116//111
f 46//112 117//112 116//112
f 117//113 46//113 47//113
f 47//114 118//114 117//114
f 119//115 120//115 47//115
f 118//116 121//116 117//116
f 120//117 122//117 47//117
f 123//118 117//118 121//118
f 118//119 47//119 124//119
f 47//120 122//120 124//120
f 125//121 126//121 127//121
f 128//122 106//122 105//122
f 129//123 38//123 130//123
f 131//124 25//124 27//124
f 27//125 49//125 131//125
f 132//126 73//126 15//126
f 133//127 71//127 73//127
f 133//128 73//128 134//128
f 133//129 135//129 71//129
f 136//130 137//130 32//130
f 138//131 42//131 139//131
f 138//132 43//132 42//132
f 80//133 72//133 77//133
f 140//134 126//134 125//134
f 136//135 32//135 97//135
f 88//136 83//136 90//136
f 141//137 32//137 137//137
f 118//138 124//138 121//138
f 38//139 107//139 142//139
f 142//140 130//140 38//140
f 143//141 28//141 6//141
f 8//142 23//142 21//142
f 144//143 81//143 79//143
f 143//144 6//144 54//144
f 142//145 107//145 145//145
f 106//146 128//146 107//146
f 146//147 110//147 38//147
f 79//148 80//148 147//148
f 121//149 148//149 149//149
f 150//150 81//150 151//150
f 44//151 112//151 39//151
f 44//152 139//152 42//152
f 25//153 131//153 26//153
f 50//154 26//154 131//154
f 77//155 78//155 152//155
f 40//156 36//156 110//156
f 153//157 61//157 58//157
f 154//158 62//158 60//158
f 116//159 44//159 46//159
f 155//160 90//160 89//160
f 53//161 9//161 10//161
f 150//162 84//162 81//162
f 81//163 85//163 80//163
f 99//164 107//164 102//164
f 127//165 121//165 149//165
f 145//166 130//166 142//166
f 15//167 18//167 132//167
f 48//168 1//168 49//168
f 38//169 129//169 146//169
f 93//170 95//170 92//170
f 48//171 30//171 2//171
f 30//172 48//172 29//172
f 7//173 52//173 156//173
f 127//174 126//174 121//174
f 123//175 121//175 126//175
f 46//176 44//176 43//176
f 157//177 104//177 33//177
f 4//178 29//178 51//178
f 135//179 75//179 71//179
f 158//180 83//180 82//180
f 71//181 74//181 77//181
f 71//182 77//182 72//182
f 54//183 5//183 159//183
f 55//184 159//184 5//184
f 83//185 85//185 81//185
f 81//186 84//186 83//186
f 44//187 39//187 139//187
f 139//188 39//188 41//188
f 147//189 80//189 77//189
