# Blender v2.79 (sub 0) OBJ File: ''
# www.blender.org
mtllib my_crack_surf__145.mtl
o my_crack_surf__145
v 7.233110 130.521957 263.965027
v 5.472220 138.863953 265.004028
v 23.336100 127.247955 258.320038
v 29.816900 133.112961 257.482025
v 13.895900 161.207947 265.409027
v 3.743970 147.173950 266.253021
v 0.656097 157.198959 266.342041
v 21.577700 183.917953 267.304016
v 33.348301 183.203949 265.920044
v -22.538500 184.983948 271.924042
v -7.300960 184.619949 270.280029
v -34.945702 184.554947 272.881042
v -46.892399 173.010956 272.205017
v -187.964996 -36.182041 263.105011
v -186.042999 3.110247 264.378998
v -150.945007 -31.276041 261.795013
v 168.324005 12.725676 151.343002
v 156.337997 17.697775 155.944000
v 166.130005 4.229527 140.779007
v -109.453003 -149.866043 262.072968
v -129.988007 -129.084045 262.170959
v -82.462502 -119.451042 260.592957
v 39.308899 -139.488052 257.213959
v 48.837399 -181.263046 260.262970
v 75.804100 -169.054047 259.671967
v 162.505005 -1.922351 131.565002
v 164.330994 0.721546 136.076004
v 143.584000 -102.953041 250.853989
v 125.011002 -98.485237 251.001984
v 136.815002 -77.741638 246.709991
v 90.000504 -113.662041 255.969986
v 106.829002 -100.521042 253.525986
v 93.645599 -92.313042 253.747986
v 153.798004 -88.071136 248.306992
v 158.869003 -75.993034 246.225983
v 168.235992 35.359272 173.404007
v 144.009003 36.006672 175.229004
v 129.785995 0.035249 134.949005
v 147.660995 -10.882619 119.179001
v 116.240997 55.292168 196.329010
v 144.824997 70.790672 199.635010
v 167.647995 67.492867 196.398010
v 156.033005 50.916370 184.701019
v 118.467003 43.913269 184.705994
v 112.473999 66.667068 203.797012
v 154.531006 95.279861 212.608017
v 129.147003 20.199673 159.067001
v 130.274002 -9.339640 120.043999
v 172.602997 51.524868 185.553009
v 129.294998 5.463787 143.020996
v 161.104996 82.391869 205.282013
v 101.971001 78.446663 213.021011
v 88.613098 112.866959 235.306015
v 75.603897 102.471962 232.726013
v 163.677002 76.491470 202.241013
v 146.020004 -17.000217 106.065002
v 129.067993 -22.304316 95.063004
v 130.266998 -16.730217 105.959000
v 150.753998 -14.860818 109.947998
v 137.712997 115.748962 225.406021
v 122.292999 134.317947 237.342010
v 115.372002 141.845947 242.237030
v 104.936996 151.683960 248.043030
v 110.450996 147.080948 245.219025
v 82.772102 151.381958 251.422028
v 94.723701 159.426956 252.408035
v 66.073502 128.731949 247.367020
v 52.401100 133.663956 249.917023
v 50.572102 119.343964 245.061020
v 37.890202 123.681961 251.529022
v 64.038498 114.535965 241.696014
v 42.540298 181.717957 264.661041
v -41.828300 123.699951 267.788025
v 71.364098 173.688950 259.321045
v 61.267899 176.951950 261.523041
v 53.605301 179.180954 262.816040
v -13.754500 162.256958 268.554016
v -84.875702 169.394958 273.734039
v -67.376297 176.980957 273.396027
v -55.932800 180.306961 273.324036
v -62.601101 178.524948 273.313019
v -2.605580 183.347961 269.590027
v -58.988400 116.106956 268.461029
v -144.839005 118.507957 271.595032
v -106.194000 155.812958 273.796021
v -98.931503 161.942947 274.052032
v -77.469398 173.070953 273.674042
v -113.192001 65.724251 268.144989
v -98.236397 85.828453 268.660004
v -156.869003 105.890953 270.530029
v -125.466003 135.559952 272.657043
v -164.710007 93.908951 269.824036
v -173.820999 77.729851 268.954010
v -135.695999 28.750256 264.661987
v -186.459000 42.182159 267.015015
v -130.757004 13.800757 263.205994
v -127.900002 24.637756 264.152008
v -179.968994 64.489357 268.196991
v -185.662994 46.197159 267.244995
v -129.240005 -8.056353 261.330994
v -127.958000 -30.289742 260.623993
v -123.099998 -41.409843 260.757996
v -113.346001 -63.434040 262.842010
v -186.434006 -48.247440 262.934998
v -184.294998 -56.389542 262.821014
v -180.095001 -68.419449 262.654999
v -108.404999 -74.428848 262.651001
v -137.492004 -122.768044 262.149963
v -42.049301 -124.596046 260.465973
v -82.023598 -102.782043 261.324982
v -93.240700 -161.889053 262.040955
v -69.651199 -173.571045 262.175964
v -21.092501 -128.025040 260.038971
v 0.000000 -131.500046 258.824982
v 14.889000 -145.516052 258.410980
v -21.222200 -185.000046 261.448975
v -33.781700 -183.891052 261.734955
v 24.629700 -126.712036 257.269958
v -0.494996 -183.369049 260.982971
v 17.383699 -159.326050 258.747955
v 36.847301 -124.358040 257.476959
v 49.052399 -122.008041 256.806976
v 23.076799 -175.908051 260.033966
v 67.901497 -128.312042 257.294983
v 71.315498 -107.284035 256.946960
v 123.434998 -128.606049 255.281982
v 82.494301 -99.784935 255.750992
v 122.714996 -47.155937 243.245987
v 147.453995 -33.631039 238.628006
v 163.667007 -55.235939 242.669983
v 164.714005 -23.093138 235.910995
v 147.875000 12.001463 226.417007
v 164.789001 -49.970539 241.607986
v 128.792999 -3.844288 233.427002
v 158.121002 -8.064068 232.494995
v 165.873993 -32.934036 238.192001
v 156.492996 1.597713 229.619995
v 138.552994 18.281864 224.102997
v 131.080002 9.246193 228.738007
v -168.089996 -89.094048 262.384003
v -165.237000 -93.752045 262.335968
v 55.687801 -178.700043 260.229980
v 157.783005 89.567070 209.177017
v 142.528000 109.982964 221.913010
v 148.768005 102.586960 217.065018
v 152.569000 97.777962 214.161011
v 159.294006 -6.496690 125.174004
v -188.287003 -19.417645 263.589996
v -189.987000 -28.959145 263.496002
v -133.686005 -126.023048 262.212982
v 99.058899 -155.505051 258.584961
v 161.503006 -10.974238 233.117996
v -177.697998 69.076851 268.394012
v 21.972000 -183.713043 260.437958
v 127.809998 20.022764 224.188995
v -150.395996 113.206955 271.060028
v 129.440994 0.800422 231.820007
v 160.731003 -68.663734 244.965988
v 162.380997 -61.448139 243.816986
v -56.800400 -178.556046 262.074982
v 86.303398 164.849960 255.240036
v 169.755997 23.799173 163.490005
v 153.417999 7.423623 228.063995
v 171.554993 39.365971 177.339005
v 171.149994 34.469273 173.475998
v -154.787994 -106.571045 262.273956
v -80.774902 -168.592041 261.667969
vn 0.3213 -0.0499 0.9456
vn 0.2544 -0.1264 0.9588
vn 0.0668 0.0117 0.9977
vn 0.1088 -0.1192 0.9869
vn 0.1040 -0.1115 0.9883
vn 0.0810 -0.1416 0.9866
vn 0.0399 -0.0343 0.9986
vn -0.0756 -0.7693 0.6344
vn 0.0284 0.0234 0.9993
vn -0.0101 0.0705 0.9975
vn -0.1672 -0.7883 0.5921
vn -0.8923 -0.1243 0.4340
vn 0.0499 0.1750 0.9833
vn 0.0733 0.0909 0.9932
vn 0.0085 0.1663 0.9860
vn 0.0070 0.1640 0.9864
vn 0.0336 -0.7140 0.6993
vn 0.0109 -0.8163 0.5775
vn 0.0187 -0.7766 0.6297
vn 0.0818 -0.3499 0.9332
vn 0.1505 -0.6382 0.7550
vn 0.1298 -0.6960 0.7062
vn 0.1111 -0.5952 0.7959
vn 0.1643 -0.5028 0.8487
vn 0.1829 -0.5158 0.8369
vn 0.0289 -0.7278 0.6852
vn -0.0487 -0.8462 0.5306
vn -0.0247 -0.5218 0.8527
vn -0.0216 -0.5663 0.8239
vn 0.9601 -0.2015 0.1939
vn 0.0031 -0.7671 0.6415
vn 0.0374 -0.4793 0.8768
vn 0.1697 -0.5093 0.8437
vn 0.1638 -0.4905 0.8559
vn 0.2084 -0.4733 0.8559
vn 0.0139 -0.4533 0.8913
vn -0.0183 -0.8893 0.4570
vn -0.0183 -0.8854 0.4646
vn 0.0011 -0.8764 0.4815
vn 0.0434 -0.5305 0.8466
vn 0.2039 -0.3931 0.8966
vn 0.2035 -0.4042 0.8917
vn 0.1555 -0.3745 0.9141
vn 0.1584 -0.3485 0.9238
vn 0.1533 -0.3616 0.9197
vn 0.2443 -0.3425 0.9072
vn 0.3321 -0.3407 0.8796
vn 0.0939 -0.3809 0.9198
vn 0.0579 -0.3272 0.9432
vn 0.0930 -0.2415 0.9659
vn 0.3092 -0.3040 0.9011
vn 0.1105 -0.2707 0.9563
vn 0.3147 -0.2188 0.9236
vn 0.2593 -0.1502 0.9540
vn 0.3542 -0.2632 0.8974
vn 0.2754 -0.0866 0.9574
vn 0.0990 -0.1277 0.9869
vn 0.0916 -0.1040 0.9903
vn 0.1574 -0.1845 0.9701
vn 0.1149 -0.1245 0.9856
vn -0.0158 -0.5925 0.8054
vn 0.1572 -0.0320 0.9870
vn 0.1074 -0.1253 0.9863
vn 0.0753 -0.0813 0.9938
vn 0.1328 0.0321 0.9906
vn -0.2144 -0.8335 0.5093
vn 0.0535 -0.0791 0.9954
vn 0.1085 -0.1047 0.9886
vn 0.0703 -0.1197 0.9903
vn 0.0414 -0.1011 0.9940
vn 0.0322 -0.0893 0.9955
vn 0.0559 -0.0834 0.9950
vn -0.0871 0.3201 0.9434
vn 0.0962 -0.1150 0.9887
vn 0.0341 -0.0820 0.9960
vn 0.1176 -0.1801 0.9766
vn 0.0948 -0.1749 0.9800
vn 0.0295 -0.0476 0.9984
vn -0.0122 -0.0725 0.9973
vn 0.3791 -0.4800 0.7911
vn -0.0563 -0.0220 0.9982
vn -0.0205 -0.0814 0.9965
vn 0.0282 -0.0681 0.9973
vn 0.0169 -0.0914 0.9957
vn -0.0126 -0.0493 0.9987
vn 0.0461 -0.0663 0.9967
vn 0.0285 -0.0670 0.9973
vn 0.0372 -0.0829 0.9959
vn 0.0375 -0.0846 0.9957
vn 0.0486 -0.0255 0.9985
vn 0.0521 -0.0287 0.9982
vn 0.0844 0.1309 0.9878
vn 0.0494 0.0336 0.9982
vn 0.0366 -0.0094 0.9993
vn -0.0023 -0.0146 0.9999
vn 0.0337 -0.0033 0.9994
vn -0.1566 -0.1349 0.9784
vn -0.0691 -0.0484 0.9964
vn 0.0005 0.0040 1.0000
vn 0.0311 0.0105 0.9995
vn -0.0024 -0.0438 0.9990
vn 0.0030 -0.0440 0.9990
vn 0.0229 0.0283 0.9993
vn 0.0099 0.0316 0.9995
vn 0.0637 0.0382 0.9972
vn 0.0249 0.0247 0.9994
vn 0.0570 0.0310 0.9979
vn 0.0739 0.0377 0.9966
vn -0.0132 -0.0195 0.9997
vn 0.0564 -0.0082 0.9984
vn -0.3104 -0.0329 0.9500
vn 0.0141 0.0821 0.9965
vn 0.0390 0.0404 0.9984
vn 0.0292 0.0794 0.9964
vn 0.0023 0.0540 0.9985
vn -0.0238 0.0536 0.9983
vn -0.0152 0.0318 0.9994
vn -0.0193 0.0197 0.9996
vn 0.0548 0.0076 0.9985
vn 0.1365 0.0095 0.9906
vn 0.0366 0.1387 0.9897
vn 0.2691 -0.3239 0.9070
vn 0.0705 0.0538 0.9961
vn 0.1227 0.0820 0.9890
vn 0.1060 0.1600 0.9814
vn 0.0979 0.1565 0.9828
vn 0.0074 0.1785 0.9839
vn -0.0158 0.1724 0.9849
vn 0.3693 -0.3871 0.8448
vn 0.0149 0.2677 0.9634
vn 0.0149 0.1946 0.9808
vn 0.1950 0.1907 0.9621
vn -0.7152 -0.1591 0.6805
vn 0.0158 0.1956 0.9806
vn -0.0150 0.2829 0.9590
vn 0.0567 0.4182 0.9066
vn -0.0871 -0.0637 0.9942
vn -0.0747 0.2120 0.9744
vn 0.4625 -0.2479 0.8512
vn -0.5725 -0.7180 0.3958
vn -0.7072 -0.6787 0.1982
vn 0.1185 -0.8968 0.4262
vn 0.0968 -0.1475 0.9843
vn 0.0962 -0.0269 0.9950
vn 0.5127 0.6118 0.6023
vn 0.0114 0.0604 0.9981
vn 0.0178 0.2290 0.9733
vn -0.2081 0.0610 0.9762
vn 0.0250 0.0482 0.9985
vn 0.0732 0.4066 0.9107
vn 0.0680 -0.0655 0.9955
vn 0.6373 0.0330 0.7699
vn -0.1710 0.0802 0.9820
vn 0.0132 -0.7209 0.6929
vn 0.0144 0.2274 0.9737
vn 0.3156 0.2706 0.9095
vn 0.0771 0.3242 0.9428
vn 0.0018 0.0514 0.9987
vn 0.0257 0.1630 0.9863
vn -0.7332 0.2673 0.6253
vn 0.0250 0.0442 0.9987
vn 0.0177 0.0606 0.9980
vn 0.0571 0.0246 0.9981
vn 0.0565 -0.0897 0.9944
vn 0.1244 -0.3007 0.9456
vn -0.1213 -0.6553 0.7455
vn 0.0118 -0.1009 0.9948
vn 0.0090 -0.8153 0.5790
vn 0.0244 0.0248 0.9994
vn 0.0354 -0.0393 0.9986
vn 0.0412 0.1384 0.9895
vn -0.1320 0.1901 0.9728
vn 0.0336 -0.7143 0.6990
vn 0.0048 -0.5601 0.8284
vn 0.1997 -0.3985 0.8952
vn 0.0869 -0.2927 0.9522
vn 0.0962 -0.2881 0.9527
vn 0.2071 -0.3884 0.8979
vn 0.1944 -0.4585 0.8672
vn 0.0800 0.2966 0.9516
vn -0.0632 -0.9240 0.3770
vn -0.2013 -0.5964 0.7771
vn -0.0835 -0.5707 0.8169
vn 0.0366 0.0891 0.9954
vn 0.0129 0.0057 0.9999
vn 0.0125 0.0057 0.9999
vn 0.1186 -0.0982 0.9881
vn -0.3071 -0.6116 0.7291
vn -0.0457 -0.7356 0.6759
vn 0.0261 0.0027 0.9997
vn 0.0060 0.0222 0.9997
vn 0.0222 0.0345 0.9992
vn -0.0512 -0.0299 0.9982
vn -0.2170 -0.6518 0.7267
vn 0.1215 0.1344 0.9835
vn 0.1097 0.1496 0.9826
usemtl None
s off
f 1//1 3//1 2//1
f 4//2 5//2 6//2
f 7//3 6//3 5//3
f 8//4 5//4 9//4
f 10//5 5//5 11//5
f 12//6 13//6 10//6
f 14//7 16//7 15//7
f 17//8 18//8 19//8
f 20//9 22//9 21//9
f 23//10 24//10 25//10
f 18//11 26//11 19//11
f 27//12 19//12 26//12
f 28//13 30//13 29//13
f 31//14 32//14 33//14
f 34//15 35//15 30//15
f 34//16 30//16 28//16
f 36//17 37//17 18//17
f 38//18 39//18 26//18
f 38//19 26//19 18//19
f 40//20 42//20 41//20
f 40//21 43//21 42//21
f 40//22 44//22 43//22
f 37//23 43//23 44//23
f 40//24 46//24 45//24
f 46//25 40//25 41//25
f 44//26 47//26 37//26
f 48//27 39//27 38//27
f 49//28 43//28 37//28
f 42//29 43//29 49//29
f 47//30 50//30 38//30
f 18//31 47//31 38//31
f 46//32 41//32 51//32
f 45//33 46//33 52//33
f 52//34 46//34 53//34
f 52//35 53//35 54//35
f 55//36 51//36 41//36
f 56//37 58//37 57//37
f 56//38 48//38 58//38
f 56//39 59//39 48//39
f 55//40 41//40 42//40
f 46//41 60//41 53//41
f 60//42 61//42 53//42
f 62//43 64//43 63//43
f 65//44 62//44 66//44
f 62//45 65//45 53//45
f 53//46 65//46 67//46
f 68//47 70//47 69//47
f 69//48 71//48 67//48
f 69//49 67//49 68//49
f 68//50 67//50 65//50
f 68//51 4//51 70//51
f 65//52 72//52 68//52
f 4//53 68//53 72//53
f 4//54 2//54 3//54
f 3//55 70//55 4//55
f 2//56 4//56 6//56
f 73//57 2//57 6//57
f 2//58 73//58 1//58
f 5//59 4//59 72//59
f 9//60 5//60 72//60
f 74//61 75//61 72//61
f 72//62 75//62 76//62
f 77//63 7//63 5//63
f 13//64 73//64 6//64
f 13//65 6//65 7//65
f 13//66 7//66 77//66
f 78//67 73//67 79//67
f 77//68 5//68 10//68
f 10//69 13//69 77//69
f 13//70 12//70 80//70
f 79//71 73//71 80//71
f 13//72 80//72 73//72
f 79//73 80//73 81//73
f 82//74 5//74 8//74
f 78//75 84//75 83//75
f 85//76 78//76 86//76
f 87//77 78//77 79//77
f 84//78 88//78 89//78
f 84//79 90//79 88//79
f 91//80 84//80 78//80
f 90//81 92//81 93//81
f 88//82 90//82 94//82
f 94//83 90//83 95//83
f 96//84 97//84 94//84
f 98//85 95//85 90//85
f 98//86 99//86 95//86
f 94//87 95//87 15//87
f 96//88 15//88 100//88
f 94//89 15//89 96//89
f 16//90 100//90 15//90
f 101//91 100//91 16//91
f 102//92 16//92 103//92
f 102//93 101//93 16//93
f 16//94 14//94 104//94
f 105//95 106//95 104//95
f 106//96 16//96 104//96
f 22//97 107//97 16//97
f 103//98 16//98 107//98
f 21//99 16//99 108//99
f 22//100 16//100 21//100
f 109//101 110//101 22//101
f 107//102 22//102 110//102
f 22//103 20//103 111//103
f 22//104 111//104 112//104
f 113//105 115//105 114//105
f 113//106 117//106 116//106
f 118//107 114//107 115//107
f 115//108 119//108 120//108
f 23//109 121//109 118//109
f 121//110 23//110 122//110
f 123//111 115//111 120//111
f 123//112 120//112 119//112
f 23//113 118//113 115//113
f 115//114 24//114 23//114
f 123//115 24//115 115//115
f 23//116 25//116 124//116
f 124//117 122//117 23//117
f 124//118 125//118 122//118
f 125//119 124//119 31//119
f 29//120 32//120 31//120
f 126//121 29//121 124//121
f 29//122 31//122 124//122
f 127//123 125//123 31//123
f 127//124 31//124 33//124
f 30//125 128//125 33//125
f 129//126 128//126 30//126
f 129//127 30//127 35//127
f 130//128 129//128 35//128
f 128//129 129//129 131//129
f 128//130 131//130 132//130
f 130//131 133//131 129//131
f 134//132 128//132 132//132
f 132//133 131//133 135//133
f 129//134 133//134 136//134
f 132//135 135//135 137//135
f 138//136 139//136 132//136
f 140//137 141//137 106//137
f 142//138 25//138 24//138
f 46//139 51//139 143//139
f 144//140 60//140 46//140
f 46//141 146//141 145//141
f 39//142 59//142 147//142
f 91//143 78//143 85//143
f 148//144 149//144 14//144
f 21//145 108//145 150//145
f 151//146 124//146 25//146
f 131//147 152//147 135//147
f 153//148 98//148 90//148
f 119//149 154//149 123//149
f 155//150 139//150 138//150
f 83//151 73//151 78//151
f 144//152 46//152 145//152
f 90//153 84//153 156//153
f 18//154 37//154 47//154
f 129//155 136//155 131//155
f 157//156 134//156 139//156
f 132//157 139//157 134//157
f 123//158 154//158 24//158
f 130//159 35//159 158//159
f 158//160 159//160 130//160
f 117//161 112//161 160//161
f 119//162 115//162 116//162
f 115//163 113//163 116//163
f 153//164 90//164 93//164
f 65//165 66//165 161//165
f 162//166 36//166 18//166
f 97//167 88//167 94//167
f 147//168 26//168 39//168
f 113//169 109//169 117//169
f 89//170 83//170 84//170
f 126//171 28//171 29//171
f 132//172 137//172 163//172
f 36//173 164//173 37//173
f 49//174 37//174 164//174
f 61//175 62//175 53//175
f 161//176 74//176 65//176
f 74//177 72//177 65//177
f 53//178 67//178 71//178
f 54//179 53//179 71//179
f 152//180 137//180 135//180
f 59//181 39//181 48//181
f 164//182 36//182 165//182
f 62//183 63//183 66//183
f 126//184 124//184 151//184
f 166//185 16//185 141//185
f 166//186 108//186 16//186
f 5//187 82//187 11//187
f 111//188 167//188 112//188
f 18//189 17//189 162//189
f 16//190 106//190 141//190
f 22//191 117//191 109//191
f 22//192 112//192 117//192
f 14//193 15//193 148//193
f 165//194 36//194 162//194
f 30//195 32//195 29//195
f 32//196 30//196 33//196
