# Blender v2.79 (sub 0) OBJ File: ''
# www.blender.org
mtllib my_crack_surf__57.mtl
o my_crack_surf__57
v 129.785995 -1.060682 135.852997
v 152.960999 -4.886561 130.382996
v 130.272003 -10.430820 120.946999
v 139.074997 -15.321418 113.174004
v 146.451996 -11.694119 119.609001
v 12.359500 143.950958 264.362030
v 26.471399 175.063950 265.350037
v -7.568800 175.628952 269.218018
v 3.743970 147.173950 266.253021
v -89.671303 149.912949 271.812042
v -98.500900 85.546753 269.393005
v -59.250801 115.826958 269.188019
v -129.061996 112.883957 270.129028
v -121.282997 122.138954 270.780029
v 118.572998 43.528770 184.725006
v 122.502998 47.307968 188.359009
v 116.240997 55.292168 196.329010
v 129.345993 4.936666 143.645996
v 160.929993 9.372585 149.373001
v 144.054993 35.662571 175.651993
v 162.281998 53.986870 187.315018
v 144.014999 97.321564 213.880020
v 111.429001 69.827072 206.450012
v 148.259995 25.942974 166.306000
v 165.039001 30.981171 170.292999
v 129.195007 19.707973 159.649994
v 162.645004 15.920875 157.188995
v 156.688004 22.828074 162.636002
v 157.179001 75.270073 200.977020
v 132.960007 113.457962 223.844009
v 77.005203 101.187965 233.543015
v 130.263000 -17.346718 108.239998
v 123.125000 123.628960 231.465012
v 103.624001 141.309952 244.714035
v 64.433296 114.300964 243.149017
v 88.277603 153.270950 252.940033
v 44.411999 127.158958 253.991013
v 68.141701 143.542953 253.190033
v 31.265400 125.818962 257.133026
v 68.274300 163.597961 257.861023
v 24.363199 127.255951 259.838043
v 7.233110 130.521957 263.965027
v 8.439400 139.990952 264.114044
v -43.039200 172.235947 271.743042
v -57.731201 169.032959 272.619019
v -41.453701 123.702957 268.341034
v -22.633400 174.824951 270.686035
v -14.272400 175.346954 269.911041
v -30.132799 174.177948 271.139038
v -47.487400 171.394958 272.057037
v -78.940598 159.298950 272.775024
v -97.329697 144.436951 271.871033
v -150.330994 80.548653 267.600006
v -113.278999 65.542152 268.141998
v -145.397003 89.393852 267.971985
v -132.227997 40.384060 264.589996
v -127.905998 24.574057 263.528015
v -159.136002 11.972557 263.203003
v -130.802994 13.517858 262.975006
v -139.975006 44.657059 265.332001
v -160.380997 23.587856 264.102997
v -159.914001 34.324158 264.454987
v -152.610992 -0.294952 261.950989
v 163.914001 20.894573 161.856995
v 164.436996 41.508068 178.772995
v -112.353996 131.173950 271.264038
v -136.169998 101.985954 268.477020
v -138.707993 96.216156 267.839020
v -158.197006 41.065159 265.093994
v -157.134995 56.790558 266.136993
v -128.537003 -20.008741 260.330994
v -142.884995 -11.095143 260.630005
v -51.817200 170.510956 272.440033
v 55.732101 169.203949 261.300018
v -153.716995 67.178955 267.065002
v 163.677002 48.868668 183.992020
v 97.899200 145.753952 247.994034
vn -0.0143 -0.8467 0.5318
vn -0.0247 -0.8585 0.5122
vn -0.0207 -0.8395 0.5429
vn 0.1112 -0.0819 0.9904
vn 0.2074 -0.0195 0.9781
vn 0.0382 -0.0428 0.9984
vn -0.0221 -0.0516 0.9984
vn 0.0143 -0.7008 0.7133
vn 0.0133 -0.7921 0.6103
vn 0.0037 -0.8004 0.5994
vn 0.1241 -0.6177 0.7766
vn 0.2579 -0.5249 0.8112
vn 0.0329 -0.6853 0.7275
vn 0.0428 -0.7152 0.6976
vn -0.0217 -0.6978 0.7159
vn 0.0220 -0.7181 0.6955
vn 0.1779 -0.5102 0.8415
vn -0.1091 -0.7500 0.6523
vn 0.0452 -0.7081 0.7047
vn -0.0236 -0.7233 0.6902
vn 0.0035 -0.7348 0.6783
vn 0.0639 -0.4753 0.8775
vn 0.1644 -0.4342 0.8857
vn 0.2489 -0.4621 0.8512
vn 0.1093 -0.5183 0.8482
vn -0.0657 -0.8764 0.4770
vn 0.2358 -0.4027 0.8844
vn 0.2436 -0.4196 0.8744
vn 0.2461 -0.4081 0.8792
vn 0.2097 -0.3570 0.9103
vn -0.0371 0.1023 0.9941
vn 0.2442 -0.3742 0.8946
vn 0.2514 -0.3645 0.8966
vn 0.1211 -0.2259 0.9666
vn 0.1940 -0.1242 0.9731
vn 0.2622 -0.3356 0.9048
vn 0.2129 -0.1100 0.9709
vn -0.0543 -0.0088 0.9985
vn 0.1388 -0.1982 0.9703
vn 0.3390 -0.0580 0.9390
vn 0.1941 -0.1190 0.9737
vn 0.0488 -0.1259 0.9908
vn 0.0975 -0.0587 0.9935
vn 0.1002 -0.0636 0.9929
vn 0.0584 -0.0247 0.9980
vn 0.0639 -0.0983 0.9931
vn 0.1104 -0.4620 0.8800
vn 0.0768 -0.2068 0.9754
vn 0.0788 -0.0901 0.9928
vn 0.1318 -0.3512 0.9270
vn 0.0099 -0.1133 0.9935
vn 0.0433 -0.0784 0.9960
vn 0.1760 -0.2358 0.9557
vn -0.0307 -0.0398 0.9987
vn -0.0322 -0.0240 0.9992
vn -0.0716 -0.0863 0.9937
vn -0.0547 -0.0991 0.9936
vn 0.0113 -0.0594 0.9982
vn 0.0320 -0.0583 0.9978
vn 0.0177 -0.0753 0.9970
vn 0.0450 -0.0912 0.9948
vn -0.0276 -0.0316 0.9991
vn 0.0132 -0.0946 0.9954
vn -0.0866 -0.6334 0.7689
vn 0.0597 -0.6241 0.7790
vn 0.0536 -0.1062 0.9929
vn -0.0699 -0.1048 0.9920
vn -0.0265 0.0455 0.9986
vn 0.0059 -0.0959 0.9954
vn 0.0000 -0.0662 0.9978
vn -0.0293 -0.0806 0.9963
vn 0.0004 -0.0376 0.9993
vn -0.0606 -0.0833 0.9947
vn 0.2511 -0.4281 0.8682
vn 0.2104 -0.7685 0.6042
vn 0.5154 -0.3682 0.7738
vn 0.0799 -0.2650 0.9609
vn 0.1629 -0.2248 0.9607
vn 0.2487 0.2904 0.9240
vn 0.0027 -0.0898 0.9960
vn 0.0341 -0.5605 0.8274
vn -0.2724 -0.5751 0.7714
vn -0.0990 -0.6674 0.7381
vn 0.0193 -0.1042 0.9944
vn -0.6350 -0.7698 -0.0652
vn 0.0495 -0.0524 0.9974
usemtl None
s off
f 1//1 3//1 2//1
f 3//2 4//2 5//2
f 3//3 5//3 2//3
f 6//4 7//4 8//4
f 9//5 6//5 8//5
f 10//6 11//6 12//6
f 11//7 14//7 13//7
f 15//8 16//8 17//8
f 18//9 1//9 2//9
f 19//10 18//10 2//10
f 20//11 21//11 16//11
f 22//12 23//12 16//12
f 24//13 25//13 20//13
f 15//14 26//14 16//14
f 20//15 26//15 24//15
f 20//16 16//16 26//16
f 27//17 28//17 24//17
f 27//18 24//18 19//18
f 24//19 28//19 25//19
f 18//20 19//20 24//20
f 18//21 24//21 26//21
f 22//22 16//22 29//22
f 30//23 23//23 22//23
f 30//24 31//24 23//24
f 29//25 16//25 21//25
f 32//26 4//26 3//26
f 31//27 33//27 34//27
f 30//28 33//28 31//28
f 34//29 35//29 31//29
f 36//30 35//30 34//30
f 36//31 38//31 37//31
f 36//32 37//32 35//32
f 39//33 35//33 37//33
f 36//34 40//34 38//34
f 41//35 38//35 6//35
f 41//36 37//36 38//36
f 41//37 6//37 42//37
f 43//38 42//38 6//38
f 43//39 6//39 9//39
f 43//40 9//40 42//40
f 7//41 6//41 38//41
f 44//42 42//42 9//42
f 42//43 45//43 46//43
f 9//44 8//44 47//44
f 46//45 10//45 12//45
f 44//46 9//46 47//46
f 48//47 47//47 8//47
f 44//48 47//48 49//48
f 44//49 45//49 42//49
f 50//50 45//50 44//50
f 51//51 10//51 46//51
f 46//52 45//52 51//52
f 14//53 10//53 52//53
f 53//54 54//54 11//54
f 11//55 55//55 53//55
f 56//56 57//56 54//56
f 56//57 54//57 53//57
f 58//58 59//58 56//58
f 56//59 59//59 57//59
f 58//60 60//60 61//60
f 56//61 60//61 58//61
f 60//62 62//62 61//62
f 63//63 59//63 58//63
f 64//64 25//64 28//64
f 65//65 20//65 25//65
f 66//66 14//66 52//66
f 67//67 11//67 13//67
f 68//68 55//68 11//68
f 69//69 62//69 60//69
f 69//70 60//70 70//70
f 59//71 72//71 71//71
f 14//72 11//72 10//72
f 11//73 67//73 68//73
f 39//74 37//74 41//74
f 50//75 73//75 45//75
f 16//76 23//76 17//76
f 74//77 7//77 38//77
f 40//78 74//78 38//78
f 56//79 70//79 60//79
f 75//80 70//80 56//80
f 65//81 21//81 20//81
f 76//82 21//82 65//82
f 28//83 27//83 64//83
f 72//84 59//84 63//84
f 36//85 34//85 77//85
f 56//86 53//86 75//86
