# Blender v2.79 (sub 0) OBJ File: ''
# www.blender.org
mtllib my_crack_surf__98.mtl
o my_crack_surf__98
v 137.466003 8.636537 147.856995
v 163.479004 9.421926 148.595993
v 129.203995 13.005275 150.839005
v 130.276993 -5.687321 127.112000
v 140.557999 -15.888818 111.603996
v 148.882996 -11.734519 118.949997
v 156.731995 -3.327191 131.742004
v -106.313004 148.924957 272.361023
v -121.821999 130.650955 270.429016
v -105.227997 100.681953 270.172028
v 64.040604 114.534966 241.704010
v 66.173897 128.671951 247.764023
v 75.660599 102.419960 232.759018
v 6.657370 159.658951 266.351044
v 26.136499 173.927948 265.241028
v 27.896999 179.731949 266.169037
v 24.115900 127.253952 259.473022
v 3.743970 147.173950 266.253021
v 6.557640 180.682953 268.489044
v -9.342710 178.449951 270.016022
v -3.395010 180.617950 269.528046
v -14.925000 174.916962 269.597015
v 118.747002 131.751953 237.518021
v 118.463997 43.924568 184.705002
v 116.240997 55.292168 196.329010
v 130.365997 41.877571 182.080994
v 167.774002 35.307072 173.572998
v 159.617996 0.765400 137.404999
v 129.320007 5.207287 143.324997
v 129.154999 20.116173 159.166000
v 31.238199 -164.266052 258.234955
v 0.000000 -131.500046 258.827972
v 19.120501 -169.896042 258.466980
v 165.682999 21.566273 161.725998
v 49.122200 -121.979034 256.362976
v 62.740501 -144.466049 257.735962
v 43.961300 -159.910049 257.768982
v 148.695007 93.554062 211.638016
v 155.431000 84.360168 206.198013
v 147.184006 97.545158 213.895020
v 111.426003 69.830566 206.017014
v 137.669006 111.369965 222.688019
v 130.085999 -18.560017 105.947998
v 114.431000 135.281952 240.309021
v 102.319000 148.005951 248.883026
v 87.521698 159.673950 255.004028
v 51.794300 125.778961 248.790009
v 50.894199 119.150963 246.335022
v 32.379200 125.482964 255.791016
v 52.805801 133.420959 251.518021
v 39.934502 138.397949 256.918030
v 70.612602 169.183960 259.429016
v 51.566200 175.405960 263.209045
v 7.233110 130.521957 263.965027
v -41.702599 123.700951 267.973022
v 33.955101 178.745956 265.592041
v 60.095402 172.721954 261.653046
v -14.432100 161.774948 268.649017
v -40.196201 179.103958 272.307037
v -17.286600 180.987961 271.080017
v -67.394897 171.435959 272.890045
v -90.130096 159.988953 272.557037
v 1.597060 180.697952 269.062042
v -59.078400 116.010956 268.711029
v -102.778999 151.539948 272.554016
v -98.297600 85.763351 268.829987
v -113.192001 65.724251 268.144989
v -139.022995 115.880951 269.500031
v -153.570999 100.375954 268.810028
v -132.139999 40.612358 264.898010
v -169.255005 75.236954 268.523987
v -127.901001 24.623655 264.013000
v -177.460007 56.025059 267.739990
v -130.759003 13.782357 263.026001
v -180.541000 37.416859 266.364014
v -129.237000 -8.067993 261.126007
v -180.884003 13.886157 264.864014
v -127.954002 -30.305042 260.354004
v -138.992004 -39.464642 260.700012
v -118.254997 -52.470142 261.946991
v -182.535995 -2.273023 263.838989
v -181.087006 -19.810442 263.031006
v -179.347000 -33.243240 262.696991
v -147.179993 -103.966049 261.644958
v -170.397003 -67.673248 262.209015
v -174.363998 -54.795242 262.359985
v -111.688004 -93.719643 261.878967
v -128.093994 -99.032143 262.110962
v -113.350998 -63.421944 262.938995
v -108.417000 -74.410744 262.696014
v -104.737999 -143.323044 261.963959
v -126.200996 -124.767044 261.672974
v -82.018600 -102.786049 261.323975
v -82.449203 -119.465042 260.475983
v -42.048199 -124.596046 260.466980
v -95.002602 -152.759048 261.958984
v -83.587997 -159.787048 261.685974
v -23.599300 -143.139053 260.731964
v -10.543900 -129.763046 259.870972
v 12.328800 -129.101044 257.724976
v 67.393501 -138.626053 257.726959
v 70.827499 -129.214050 257.359955
v 71.429802 -118.263039 257.325958
v 60.404598 -114.500046 257.651978
v 158.716003 -0.676203 135.313004
v -24.170500 -173.343048 259.908966
v -3.956260 -171.221039 259.815979
v -33.629700 -172.766052 259.933960
v 9.825920 -171.024048 259.347961
v 68.298500 -109.281036 257.465973
v -182.016998 -11.040543 263.385010
v 167.496002 47.889870 182.812012
v 162.016006 6.592637 144.865997
v 160.733994 3.078127 140.531006
v -82.143097 164.635956 272.667023
v -179.602997 45.102959 266.919006
v -113.476997 141.331955 271.593018
v 160.513000 71.783966 198.227020
v -63.295799 -168.023041 260.398956
v 125.160004 125.343964 232.626022
v -97.410301 155.294952 272.526031
v -161.613998 -85.215645 261.701996
vn -0.0061 -0.5715 0.8206
vn -0.0436 -0.8477 0.5287
vn -0.0240 -0.8286 0.5593
vn -0.0690 -0.0468 0.9965
vn 0.2447 -0.4130 0.8772
vn 0.2132 -0.2170 0.9526
vn 0.2553 -0.0672 0.9645
vn 0.1031 -0.1001 0.9896
vn 0.2470 -0.4895 0.8363
vn 0.8754 -0.2512 0.4131
vn 0.0997 -0.5130 0.8526
vn 0.0252 -0.7346 0.6780
vn -0.0093 -0.8082 0.5888
vn 0.0378 -0.8284 0.5589
vn 0.0268 -0.7256 0.6876
vn 0.0191 0.0001 0.9998
vn -0.0758 -0.6445 0.7609
vn -0.0318 -0.7311 0.6815
vn -0.0163 0.0511 0.9986
vn 0.0612 -0.0723 0.9955
vn -0.1071 -0.6907 0.7152
vn 0.8161 0.3089 0.4884
vn 0.2434 -0.4060 0.8809
vn 0.2203 -0.4629 0.8586
vn 0.3364 -0.3295 0.8822
vn -0.0629 -0.8524 0.5190
vn 0.1962 -0.4493 0.8716
vn 0.1968 -0.4319 0.8802
vn 0.1941 -0.4144 0.8892
vn 0.1396 -0.3153 0.9386
vn 0.3205 -0.3670 0.8733
vn 0.1716 -0.4099 0.8958
vn 0.1383 -0.3605 0.9225
vn 0.3218 -0.3558 0.8774
vn 0.1364 -0.3490 0.9271
vn -0.2736 -0.9381 0.2125
vn 0.2191 -0.0882 0.9717
vn 0.1065 -0.2576 0.9604
vn 0.1311 -0.2061 0.9697
vn 0.1919 -0.3466 0.9182
vn 0.2413 -0.0823 0.9669
vn 0.0971 -0.1155 0.9886
vn 0.1409 -0.2088 0.9678
vn 0.1109 -0.1193 0.9866
vn -0.4026 0.6031 0.6885
vn -0.1413 -0.7927 0.5930
vn 0.1013 -0.0678 0.9925
vn 0.1051 -0.0323 0.9939
vn 0.0648 -0.1767 0.9821
vn 0.0871 -0.0800 0.9930
vn 0.0781 -0.1005 0.9919
vn 0.1031 -0.1967 0.9750
vn 0.0626 -0.1161 0.9913
vn 0.0436 -0.0791 0.9959
vn 0.0292 -0.0869 0.9958
vn 0.0728 -0.7561 0.6504
vn 0.0463 -0.0442 0.9979
vn 0.0133 -0.0914 0.9957
vn 0.0460 -0.0683 0.9966
vn -0.0280 -0.0182 0.9994
vn -0.1341 -0.0269 0.9906
vn 0.0111 -0.0924 0.9957
vn 0.0149 -0.0946 0.9954
vn 0.0481 -0.0425 0.9979
vn 0.0295 -0.0786 0.9965
vn 0.0363 -0.0841 0.9958
vn 0.0364 -0.0641 0.9973
vn 0.0573 -0.0313 0.9979
vn -0.0207 0.0627 0.9978
vn 0.0462 -0.0422 0.9980
vn 0.0452 -0.0276 0.9986
vn 0.0081 -0.0104 0.9999
vn 0.0411 -0.0195 0.9990
vn 0.0458 0.0024 0.9989
vn -0.1507 0.5026 0.8513
vn -0.0058 -0.0026 1.0000
vn -0.3041 -0.0500 0.9513
vn -0.0326 -0.0367 0.9988
vn 0.0130 0.0035 0.9999
vn -0.0302 -0.0192 0.9994
vn -0.0062 -0.0506 0.9987
vn 0.0564 0.0096 0.9984
vn 0.0055 -0.0432 0.9991
vn 0.0031 -0.0509 0.9987
vn -0.0196 -0.0185 0.9996
vn 0.0320 0.0324 0.9990
vn 0.0416 0.0288 0.9987
vn 0.0023 0.0166 0.9999
vn 0.0254 0.0395 0.9989
vn 0.0310 0.0311 0.9990
vn 0.0781 0.0564 0.9954
vn -0.0424 0.0353 0.9985
vn -0.0293 0.0496 0.9983
vn -0.0440 0.0055 0.9990
vn -0.0191 -0.1417 0.9897
vn 0.3569 -0.8340 0.4208
vn 0.0034 0.0118 0.9999
vn 0.0900 0.0355 0.9953
vn 0.0275 -0.0060 0.9996
vn -0.2361 -0.0642 0.9696
vn 0.3407 -0.2777 0.8982
vn 0.0443 -0.0667 0.9968
vn 0.0584 -0.0361 0.9976
vn 0.0795 -0.5888 0.8043
vn 0.7768 -0.4767 0.4116
vn 0.1087 -0.0752 0.9912
vn 0.0742 -0.0708 0.9947
vn 0.2938 -0.4608 0.8375
vn 0.0090 -0.7895 0.6137
vn -0.6042 -0.5220 0.6020
vn 0.0070 -0.7980 0.6026
vn -0.0203 0.0112 0.9997
vn -0.0397 -0.0671 0.9970
vn 0.4393 -0.0482 0.8970
vn 0.0622 -0.2139 0.9749
vn -0.0243 -0.0495 0.9985
vn 0.0043 -0.0062 1.0000
vn 0.0531 -0.0650 0.9965
vn 0.0488 -0.0043 0.9988
vn 0.0478 -0.1450 0.9883
vn -0.0282 0.0062 0.9996
vn 0.0577 -0.5187 0.8530
vn 0.0165 0.0049 0.9999
vn 0.1008 0.0147 0.9948
vn 0.0578 0.0079 0.9983
vn -0.0316 -0.0261 0.9992
vn 0.0434 -0.0677 0.9968
vn 0.0745 0.0278 0.9968
vn 0.0686 -0.5266 0.8473
vn -0.0275 -0.8181 0.5744
vn 0.2905 -0.2506 0.9235
vn 0.4311 -0.2339 0.8715
vn -0.1137 0.1696 0.9789
vn -0.0721 -0.0742 0.9946
vn -0.0954 -0.0764 0.9925
vn -0.0156 0.0707 0.9974
vn 0.0425 -0.0589 0.9974
vn 0.0625 -0.5162 0.8542
vn 0.0336 0.0215 0.9992
usemtl None
s off
f 1//1 2//1 3//1
f 4//2 5//2 6//2
f 4//3 6//3 7//3
f 8//4 9//4 10//4
f 11//5 13//5 12//5
f 14//6 15//6 16//6
f 17//7 14//7 18//7
f 14//8 16//8 19//8
f 20//9 22//9 21//9
f 23//10 25//10 24//10
f 24//11 26//11 23//11
f 27//12 26//12 3//12
f 7//13 28//13 1//13
f 1//14 29//14 4//14
f 24//15 30//15 26//15
f 31//16 32//16 33//16
f 27//17 3//17 34//17
f 2//18 34//18 3//18
f 31//19 36//19 35//19
f 31//20 37//20 36//20
f 3//21 29//21 1//21
f 38//22 23//22 39//22
f 40//23 23//23 38//23
f 41//24 23//24 13//24
f 40//25 42//25 23//25
f 4//26 43//26 5//26
f 12//27 23//27 44//27
f 12//28 13//28 23//28
f 12//29 44//29 45//29
f 12//30 45//30 46//30
f 47//31 49//31 48//31
f 48//32 11//32 12//32
f 48//33 12//33 47//33
f 50//34 49//34 47//34
f 50//35 47//35 12//35
f 50//36 12//36 51//36
f 17//37 51//37 14//37
f 52//38 53//38 46//38
f 46//39 53//39 51//39
f 51//40 12//40 46//40
f 18//41 54//41 17//41
f 18//42 55//42 54//42
f 51//43 53//43 14//43
f 56//44 14//44 53//44
f 14//45 56//45 15//45
f 52//46 57//46 53//46
f 58//47 14//47 22//47
f 58//48 18//48 14//48
f 56//49 16//49 15//49
f 59//50 55//50 58//50
f 19//51 22//51 14//51
f 19//52 21//52 22//52
f 59//53 58//53 60//53
f 59//54 61//54 55//54
f 62//55 55//55 61//55
f 19//56 63//56 21//56
f 64//57 8//57 10//57
f 64//58 65//58 8//58
f 66//59 10//59 67//59
f 68//60 69//60 10//60
f 10//61 70//61 67//61
f 70//62 10//62 71//62
f 72//63 73//63 74//63
f 72//64 70//64 73//64
f 74//65 73//65 75//65
f 76//66 74//66 77//66
f 74//67 75//67 77//67
f 76//68 79//68 78//68
f 78//69 79//69 80//69
f 81//70 82//70 76//70
f 76//71 83//71 79//71
f 80//72 85//72 84//72
f 76//73 82//73 83//73
f 85//74 79//74 86//74
f 84//75 88//75 87//75
f 80//76 84//76 87//76
f 89//77 80//77 87//77
f 89//78 87//78 90//78
f 88//79 91//79 87//79
f 88//80 92//80 91//80
f 93//81 94//81 95//81
f 94//82 87//82 91//82
f 90//83 87//83 93//83
f 94//84 93//84 87//84
f 84//85 92//85 88//85
f 91//86 96//86 94//86
f 94//87 96//87 97//87
f 94//88 98//88 95//88
f 95//89 98//89 99//89
f 100//90 31//90 35//90
f 100//91 32//91 31//91
f 36//92 101//92 35//92
f 102//93 35//93 101//93
f 103//94 35//94 102//94
f 103//95 104//95 35//95
f 105//96 28//96 7//96
f 106//97 107//97 108//97
f 109//98 33//98 32//98
f 104//99 103//99 110//99
f 111//100 82//100 81//100
f 49//101 51//101 17//101
f 65//102 55//102 62//102
f 64//103 55//103 65//103
f 112//104 26//104 27//104
f 3//105 26//105 30//105
f 60//106 20//106 21//106
f 58//107 55//107 18//107
f 41//108 25//108 23//108
f 113//109 1//109 28//109
f 114//110 113//110 28//110
f 113//111 2//111 1//111
f 115//112 62//112 61//112
f 116//113 75//113 73//113
f 22//114 60//114 58//114
f 22//115 20//115 60//115
f 107//116 98//116 94//116
f 94//117 108//117 107//117
f 10//118 66//118 64//118
f 83//119 86//119 79//119
f 117//120 9//120 8//120
f 69//121 71//121 10//121
f 26//122 118//122 23//122
f 108//123 94//123 119//123
f 99//124 107//124 32//124
f 107//125 99//125 98//125
f 68//126 10//126 9//126
f 81//127 76//127 77//127
f 97//128 119//128 94//128
f 118//129 26//129 112//129
f 1//130 4//130 7//130
f 50//131 51//131 49//131
f 42//132 120//132 23//132
f 121//133 65//133 62//133
f 70//134 72//134 67//134
f 122//135 84//135 85//135
f 80//136 79//136 85//136
f 73//137 70//137 71//137
f 118//138 39//138 23//138
f 32//139 107//139 109//139
