# Blender v2.79 (sub 0) OBJ File: ''
# www.blender.org
mtllib my_crack_surf__48.mtl
o my_crack_surf__48
v 138.382996 -2.312622 135.895004
v 145.783005 -7.139551 127.466003
v 136.054993 -6.660741 128.621002
v 130.276993 -6.737271 127.991997
v 139.169006 -15.379918 113.274002
v 146.565002 -11.823219 119.680000
v 146.347000 92.803062 211.289017
v 114.245003 130.851959 237.233017
v 111.429001 69.825668 206.626022
v 118.521004 43.717869 184.716003
v 121.570000 47.965168 187.746017
v 116.240997 55.292168 196.329010
v 165.072006 30.979271 170.576004
v 8.945310 139.994949 264.861023
v 18.115700 173.314957 265.950043
v 31.021500 125.892960 257.427032
v 0.165481 173.768951 268.149017
v 155.869995 -1.704422 135.707993
v 138.014008 2.856177 142.065002
v 129.203995 19.616474 159.757996
v 129.787003 -1.519412 136.231003
v 157.533997 71.303970 198.564011
v 163.873993 48.683769 184.093018
v -97.103500 98.551254 270.676025
v -129.505005 94.630653 269.115021
v -113.178001 121.098953 270.781036
v 164.128998 20.304173 161.783005
v 152.891998 82.063171 205.324020
v 132.891998 113.485962 223.765015
v 136.675003 107.781960 220.143021
v 77.349998 100.872963 233.745010
v 140.302994 102.251961 216.941010
v 143.856995 97.322960 213.884018
v 130.227005 -17.423817 108.337997
v 118.825996 126.714958 234.033020
v 64.495300 114.251961 243.851013
v 45.467999 127.643959 254.639023
v 96.613998 145.412949 248.324036
v 51.848099 118.578964 250.108017
v 58.216999 166.221954 260.920044
v 86.247398 152.538956 253.353027
v 43.230701 170.335953 262.831024
v 7.233110 130.521957 263.965027
v -32.270302 169.908951 271.191040
v -50.435398 166.414948 272.081024
v -82.810204 149.234955 271.942017
v -41.314701 123.703957 268.547028
v -59.346401 115.760956 269.251038
v -21.104700 172.082947 270.232025
v -103.015999 132.090958 270.899017
v -99.893501 84.134155 270.399994
v -103.280998 78.856750 270.479004
v -107.529999 73.889557 269.574005
v -136.384995 77.699455 267.777008
v -135.514008 58.010857 266.786987
v -115.311996 60.546757 268.166992
v -126.795998 44.271458 265.690002
v -131.936005 50.330856 266.123993
v -91.520699 142.747955 271.362030
v -122.125999 41.936157 265.548004
v -42.687698 168.647949 271.485016
v -132.492004 87.697357 268.660004
v 102.496002 140.882950 244.925034
v 106.779999 137.561951 242.201019
vn 0.0180 -0.8607 0.5087
vn -0.0160 -0.9642 0.2646
vn -0.0158 -0.8663 0.4992
vn -0.0048 -0.8571 0.5151
vn 0.1776 -0.4477 0.8764
vn 0.2249 -0.6677 0.7096
vn 0.0714 -0.6127 0.7871
vn 0.2581 -0.1024 0.9607
vn 0.1197 -0.0653 0.9907
vn -0.0119 -0.8280 0.5606
vn 0.0703 -0.7065 0.7042
vn -0.0458 -0.7671 0.6399
vn 0.2389 -0.7373 0.6319
vn -0.0768 -0.7426 0.6653
vn 0.0822 -0.5206 0.8498
vn 0.0789 -0.6016 0.7949
vn 0.2622 -0.5582 0.7872
vn -0.0438 -0.0358 0.9984
vn -0.0227 -0.7604 0.6490
vn -0.0468 -0.8452 0.5325
vn -0.0578 -0.8487 0.5258
vn -0.0323 -0.6337 0.7729
vn 0.0230 -0.4747 0.8799
vn 0.8680 0.3559 0.3463
vn 0.3599 -0.2990 0.8838
vn 0.2776 -0.4409 0.8536
vn -0.5714 -0.6585 0.4898
vn 0.2419 -0.3795 0.8930
vn -0.0628 -0.8767 0.4769
vn -0.0462 -0.6427 0.7647
vn 0.2439 -0.3742 0.8947
vn 0.2547 -0.4151 0.8734
vn 0.2433 -0.3838 0.8908
vn 0.3858 -0.1807 0.9047
vn 0.2163 -0.3105 0.9257
vn 0.2108 -0.2246 0.9514
vn 0.1583 -0.2094 0.9649
vn 0.0863 -0.1436 0.9859
vn 0.2383 -0.1340 0.9619
vn 0.1045 -0.1483 0.9834
vn 0.0700 -0.1116 0.9913
vn 0.0618 -0.1246 0.9903
vn 0.0568 -0.0404 0.9976
vn 0.0916 0.0166 0.9957
vn 0.0994 -0.0730 0.9924
vn -0.0037 -0.0073 1.0000
vn 0.0758 -0.0338 0.9966
vn -0.3018 0.0852 0.9496
vn -0.0450 -0.0256 0.9987
vn -0.0615 -0.0528 0.9967
vn -0.0536 -0.1132 0.9921
vn -0.0382 -0.1036 0.9939
vn 0.0717 -0.5083 0.8582
vn 0.0104 -0.0729 0.9973
vn -0.1698 0.1407 0.9754
vn 0.0374 -0.8546 0.5179
vn 0.0162 -0.7158 0.6981
vn -0.0335 -0.1272 0.9913
vn -0.0068 0.2797 0.9601
vn 0.0744 -0.1072 0.9914
vn 0.0509 -0.0290 0.9983
vn 0.0377 0.0000 0.9993
vn 0.7436 -0.2047 0.6365
vn 0.1027 -0.0699 0.9923
vn -0.0704 -0.0639 0.9955
vn 0.4643 -0.2557 0.8480
vn -0.0688 -0.0508 0.9963
vn 0.2252 -0.3214 0.9198
vn 0.4009 -0.2136 0.8909
vn -0.0950 -0.6735 0.7331
usemtl None
s off
f 1//1 3//1 2//1
f 3//2 4//2 2//2
f 4//3 5//3 6//3
f 4//4 6//4 2//4
f 7//5 8//5 9//5
f 10//6 11//6 12//6
f 11//7 10//7 13//7
f 14//8 16//8 15//8
f 17//9 14//9 15//9
f 2//10 18//10 19//10
f 19//11 18//11 20//11
f 19//12 21//12 1//12
f 2//13 19//13 1//13
f 19//14 20//14 21//14
f 11//15 23//15 22//15
f 13//16 23//16 11//16
f 11//17 7//17 9//17
f 24//18 26//18 25//18
f 27//19 20//19 18//19
f 21//20 4//20 3//20
f 21//21 3//21 1//21
f 13//22 20//22 27//22
f 7//23 11//23 28//23
f 29//24 7//24 30//24
f 29//25 8//25 7//25
f 31//26 9//26 8//26
f 32//27 30//27 7//27
f 32//28 7//28 33//28
f 34//29 5//29 4//29
f 29//30 35//30 8//30
f 36//31 8//31 37//31
f 31//32 8//32 36//32
f 38//33 37//33 8//33
f 36//34 37//34 39//34
f 37//35 16//35 39//35
f 16//36 37//36 40//36
f 41//37 40//37 37//37
f 16//38 40//38 42//38
f 14//39 43//39 16//39
f 42//40 15//40 16//40
f 44//41 45//41 43//41
f 43//42 45//42 46//42
f 46//43 48//43 47//43
f 46//44 47//44 43//44
f 44//45 14//45 49//45
f 24//46 50//46 26//46
f 51//47 24//47 52//47
f 53//48 52//48 24//48
f 25//49 53//49 24//49
f 54//50 55//50 56//50
f 57//51 56//51 55//51
f 55//52 58//52 57//52
f 22//53 28//53 11//53
f 50//54 48//54 46//54
f 50//55 46//55 59//55
f 18//56 2//56 6//56
f 20//57 13//57 10//57
f 57//58 60//58 56//58
f 61//59 45//59 44//59
f 44//60 43//60 14//60
f 24//61 51//61 48//61
f 24//62 48//62 50//62
f 9//63 12//63 11//63
f 17//64 49//64 14//64
f 54//65 56//65 53//65
f 25//66 62//66 54//66
f 53//67 25//67 54//67
f 38//68 41//68 37//68
f 63//69 8//69 64//69
f 63//70 38//70 8//70
