# Blender v2.79 (sub 0) OBJ File: ''
# www.blender.org
mtllib my_crack_surf__147.mtl
o my_crack_surf__147
v 168.488007 12.581076 151.087006
v 129.147003 20.200274 159.065994
v 166.264008 4.147477 140.500000
v 135.554001 -9.287200 120.626999
v 147.692001 -10.880119 119.112999
v 147.147003 -1.033482 133.100998
v 133.720993 121.310959 228.799011
v 111.426003 69.831772 205.867020
v 116.502998 108.742958 226.331009
v 162.735992 -1.964951 131.296005
v 64.042801 114.532959 241.713013
v 66.072403 128.732956 247.363022
v 78.881500 122.834961 240.896011
v 7.233110 130.521957 263.965027
v 5.473830 138.862961 265.014038
v 23.235600 127.246956 258.172028
v 164.531998 0.764631 135.992004
v 29.886499 133.233948 257.370026
v 13.896000 161.207947 265.409027
v 3.743970 147.173950 266.253021
v 0.656084 157.198959 266.342041
v 159.949997 -5.834381 125.707001
v 129.294998 5.463787 143.020996
v 138.270004 2.051687 137.276001
v 116.240997 55.291370 196.328018
v 144.832993 70.789268 199.648010
v 156.048996 50.926868 184.730011
v 89.140800 -163.547043 258.869965
v 99.620102 -156.435043 258.633972
v 79.045799 -120.926041 256.903961
v 126.476997 -125.653038 254.695984
v 155.057999 -87.826035 248.293991
v 159.270996 -76.009338 246.313980
v 126.129997 -67.989540 246.253983
v 118.464996 43.922569 184.705002
v 144.011993 36.008072 175.223999
v 156.695999 21.377573 159.744995
v 170.033005 23.607874 163.348999
v 130.276993 -5.219070 126.733002
v 171.535995 34.368973 173.261993
v 173.054001 51.656769 185.703018
v 168.524002 67.825668 196.651016
v 130.274002 -9.326870 120.032997
v 155.104996 95.412460 212.727020
v 158.716003 88.755470 208.794022
v 75.613197 102.462959 232.732010
v 94.966698 106.591965 230.202011
v 151.087006 -14.842518 109.882004
v 130.261993 -16.746717 105.931999
v 146.274002 -16.925716 105.723999
v 129.065002 -22.343016 94.941902
v 88.613098 112.866959 235.305008
v 126.204002 130.120956 234.462021
v 110.570999 147.456955 245.386032
v 94.836197 160.155960 252.531036
v 52.397202 133.665955 249.901016
v 50.567902 119.346962 245.044022
v 37.875801 123.689964 251.472015
v 54.190102 148.007950 254.615036
v 86.671898 165.225952 255.204025
v -41.832100 123.699951 267.782043
v 42.998600 174.660950 263.514038
v 53.435600 179.883957 262.896027
v 33.727100 183.640961 265.936035
v 70.624702 174.314957 259.508026
v -13.754900 162.256958 268.553040
v -46.884201 173.061951 272.229034
v 42.543900 182.427948 264.694031
v -77.452301 173.309952 273.683044
v -58.985802 116.109955 268.454041
v -67.486801 177.440948 273.452026
v -2.575500 183.486954 269.599030
v 21.697100 184.208954 267.366028
v -34.687801 184.938950 272.961029
v -45.795898 182.965958 273.286041
v -55.883202 180.768951 273.399017
v -106.694000 156.550949 273.937042
v -99.420197 162.356949 274.150024
v -98.234200 85.830856 268.653992
v -150.796005 113.459953 271.070038
v -125.316002 136.377960 272.819031
v -178.871994 68.558151 268.444000
v -186.686005 46.905258 267.324005
v -174.395004 78.050751 268.989990
v -113.192001 65.724251 268.144989
v -143.367004 33.042660 265.010986
v -127.900002 24.638355 264.157013
v -130.757004 13.801457 263.213013
v -184.335999 54.865158 267.760986
v -144.490005 -14.348042 261.575012
v -129.240005 -8.055833 261.341003
v -127.958000 -30.289442 260.630005
v -188.903000 -29.219242 263.324005
v -123.099998 -41.409542 260.763000
v -130.166000 -47.253742 261.273010
v -113.346001 -63.434040 262.842010
v -82.462502 -119.451042 260.595978
v -186.475998 2.308807 264.423004
v -187.283997 -7.947653 263.919006
v -178.565002 -72.167145 262.635010
v -188.186996 -40.079441 263.031006
v -185.449005 -52.924942 262.852997
v -108.404999 -74.428848 262.649994
v -155.042007 -106.996048 262.242981
v -130.197006 -129.339050 262.201965
v -133.764008 -126.293045 262.239960
v -142.768997 -118.259048 262.211975
v -109.919998 -150.318039 262.055969
v -42.049301 -124.596046 260.465973
v -82.023598 -102.782043 261.324982
v -186.352005 17.709455 265.348999
v -187.130005 33.220757 266.404999
v -93.769203 -161.943039 261.972961
v -70.847504 -174.999039 262.005981
v -21.092501 -128.025040 260.038971
v 0.000000 -131.500046 258.824982
v 14.889100 -145.518051 258.414978
v -29.310101 -185.060043 261.744965
v 24.629700 -126.712036 257.272980
v 39.315300 -139.494049 257.211975
v 36.847401 -124.358040 257.481964
v 49.090401 -121.992035 256.811981
v 24.005301 -184.025040 260.468964
v 17.406401 -159.367050 258.754974
v 55.555099 -179.220047 260.181976
v 41.918400 -182.621048 260.324982
v 71.361298 -107.254036 256.943970
v 140.992004 -107.922035 251.796982
v 93.634598 -92.324539 253.719986
v 82.502403 -99.778938 255.707977
v 122.714996 -47.157238 243.239990
v 134.020996 -116.594040 252.963989
v 144.651001 -60.207539 243.623978
v 165.807999 -49.790939 241.651978
v 128.811996 -3.754648 233.281998
v 165.192993 -22.920938 235.740997
v 131.052994 9.444862 228.621994
v 166.091995 -33.095940 238.145004
v 161.925995 -10.868038 232.901001
v 157.514008 1.903773 229.425995
v 138.451996 19.771763 223.354996
v 148.882004 12.960063 226.085007
v 154.235001 8.056093 227.934006
v 129.341003 126.481964 232.090012
v -49.210400 182.262955 273.364044
v -19.285900 185.374954 271.669037
v -7.202480 184.939957 270.306030
v -113.177002 148.836960 273.389038
v -180.093994 -68.480247 262.674988
v -165.498993 -94.402344 262.269958
v -169.037994 -88.784843 262.382996
v 127.500999 20.980864 223.505997
v -62.731098 179.059952 273.388031
v -137.638000 -123.036049 262.166962
v -164.304001 96.050552 269.965027
v -81.917999 -169.264053 261.682983
v -46.147800 -182.194046 262.005981
v -57.913200 -179.176041 262.153961
v 148.052002 -98.377441 250.006989
v -0.452269 -183.638046 261.005981
v 122.571999 134.590958 237.268021
v 149.695007 102.587959 216.849014
v -157.434006 106.130951 270.605042
v 77.403198 -169.023041 259.716980
v -188.628998 -19.312344 263.604004
vn -0.0240 -0.7795 0.6260
vn -0.0357 -0.8179 0.5743
vn 0.2259 -0.4764 0.8497
vn -0.0689 -0.8187 0.5701
vn 0.2662 -0.3890 0.8820
vn 0.3312 -0.0487 0.9423
vn -0.9358 0.0097 0.3523
vn 0.2570 -0.1283 0.9578
vn 0.0668 0.0117 0.9977
vn 0.0159 -0.8258 0.5638
vn 0.0167 -0.8224 0.5687
vn 0.0736 -0.7342 0.6750
vn -0.2448 -0.9521 0.1830
vn 0.1856 -0.5209 0.8332
vn -0.0076 0.0443 0.9990
vn 0.0543 0.0800 0.9953
vn 0.0352 0.1529 0.9876
vn 0.1293 -0.6964 0.7059
vn 0.1105 -0.5960 0.7954
vn 0.0289 -0.7277 0.6853
vn -0.0540 -0.7474 0.6622
vn 0.0119 -0.6933 0.7206
vn -0.0140 -0.8182 0.5748
vn -0.0021 -0.8331 0.5532
vn -0.0215 -0.5827 0.8124
vn 0.0265 -0.5523 0.8332
vn -0.0229 -0.5649 0.8248
vn -0.0523 -0.8513 0.5220
vn 0.0542 -0.4860 0.8723
vn 0.1750 -0.4629 0.8690
vn 0.0264 -0.8169 0.5761
vn 0.0626 -0.4884 0.8704
vn 0.2125 -0.4715 0.8559
vn 0.2014 -0.4764 0.8559
vn 0.0283 -0.5901 0.8069
vn -0.0754 -0.9261 0.3698
vn -0.0457 -0.8840 0.4652
vn -0.0041 -0.8909 0.4541
vn -0.0055 -0.8915 0.4530
vn -0.0041 -0.8911 0.4538
vn 0.2133 -0.4773 0.8525
vn 0.0501 -0.4835 0.8739
vn 0.1787 -0.4196 0.8900
vn 0.2008 -0.4077 0.8908
vn 0.2733 -0.4250 0.8629
vn 0.1395 -0.3486 0.9268
vn 0.2663 -0.3888 0.8820
vn 0.3294 -0.3408 0.8806
vn 0.0920 -0.3795 0.9206
vn 0.0570 -0.3272 0.9432
vn 0.0917 -0.2427 0.9657
vn 0.3054 -0.3024 0.9029
vn 0.1451 -0.3253 0.9344
vn 0.3028 -0.3315 0.8935
vn 0.1338 -0.2849 0.9492
vn 0.2606 -0.1621 0.9517
vn 0.3472 -0.2652 0.8995
vn 0.2800 -0.0843 0.9563
vn 0.0984 -0.1267 0.9871
vn 0.0917 -0.1052 0.9902
vn 0.2064 -0.1595 0.9654
vn 0.1753 -0.2448 0.9536
vn 0.1783 -0.2435 0.9534
vn 0.1263 -0.1347 0.9828
vn 0.1096 -0.2475 0.9627
vn 0.1074 -0.1251 0.9863
vn 0.0755 -0.0818 0.9938
vn 0.1334 0.0323 0.9905
vn -0.2200 -0.8420 0.4925
vn 0.1188 -0.1423 0.9827
vn 0.0693 -0.0686 0.9952
vn 0.0556 -0.0785 0.9954
vn 0.1084 -0.1058 0.9885
vn 0.1115 -0.1217 0.9863
vn 0.0673 -0.1301 0.9892
vn 0.0488 -0.1113 0.9926
vn 0.0576 -0.0837 0.9948
vn 0.0351 -0.1099 0.9933
vn 0.0944 -0.1161 0.9887
vn 0.1290 -0.1416 0.9815
vn 0.1033 -0.1654 0.9808
vn 0.0140 -0.0607 0.9981
vn 0.2581 -0.3555 0.8983
vn -0.0521 -0.0328 0.9981
vn 0.0021 -0.0973 0.9952
vn 0.0069 -0.0886 0.9960
vn 0.0481 -0.0689 0.9965
vn 0.0299 -0.0730 0.9969
vn 0.0490 -0.0819 0.9954
vn 0.0307 -0.0730 0.9969
vn 0.0279 -0.0303 0.9992
vn 0.0439 -0.0137 0.9989
vn -0.0043 0.0921 0.9957
vn 0.0447 0.0315 0.9985
vn 0.0449 0.0328 0.9985
vn 0.0402 0.0172 0.9990
vn -0.9896 0.0718 0.1248
vn 0.0523 -0.0388 0.9979
vn 0.0151 -0.0124 0.9998
vn -0.0888 -0.0327 0.9955
vn -0.0402 -0.0257 0.9989
vn -0.3806 -0.2598 0.8875
vn -0.1894 -0.1022 0.9766
vn 0.0235 0.0046 0.9997
vn 0.0291 0.0217 0.9993
vn 0.0274 0.0342 0.9990
vn 0.0292 0.0213 0.9993
vn -0.0023 -0.0436 0.9990
vn 0.0031 -0.0438 0.9990
vn 0.0394 -0.0659 0.9970
vn 0.0239 0.0260 0.9994
vn 0.0148 0.0285 0.9995
vn 0.0637 0.0385 0.9972
vn 0.0557 0.0218 0.9982
vn 0.0568 0.0312 0.9979
vn -0.0132 -0.0200 0.9997
vn 0.0563 -0.0086 0.9984
vn -0.4630 -0.0625 0.8842
vn 0.0392 0.0403 0.9984
vn 0.0279 0.0859 0.9959
vn 0.0009 0.0535 0.9986
vn 0.0069 0.0143 0.9999
vn -0.0029 -0.0046 1.0000
vn 0.0658 0.0772 0.9948
vn 0.0576 0.1150 0.9917
vn 0.0816 0.0430 0.9957
vn 0.1560 0.0303 0.9873
vn 0.0965 0.1720 0.9804
vn 0.1061 0.1594 0.9815
vn 0.7452 -0.5477 0.3805
vn 0.0495 0.2120 0.9760
vn 0.3328 -0.5281 0.7812
vn 0.2638 0.1803 0.9476
vn 0.0064 0.1735 0.9848
vn 0.0068 0.2216 0.9751
vn 0.7593 0.0982 0.6433
vn 0.0194 0.2052 0.9785
vn 0.0194 0.2343 0.9720
vn 0.0502 0.2783 0.9592
vn 0.0439 0.4288 0.9023
vn 0.0512 0.4007 0.9148
vn 0.0441 0.2576 0.9653
vn 0.7068 0.1596 0.6892
vn 0.1584 -0.6903 0.7059
vn 0.1076 -0.1075 0.9884
vn 0.0862 -0.1128 0.9899
vn 0.0689 -0.1125 0.9913
vn 0.1163 -0.1099 0.9871
vn -0.0087 -0.0144 0.9999
vn 0.0870 0.0348 0.9956
vn 0.0588 0.4198 0.9057
vn -0.0586 -0.0508 0.9970
vn -0.0424 0.1634 0.9857
vn -0.2551 -0.2828 0.9246
vn 0.0603 -0.0716 0.9956
vn 0.0369 -0.0682 0.9970
vn -0.0031 0.2297 0.9733
vn 0.0143 -0.0359 0.9993
vn -0.2617 -0.4573 0.8499
vn 0.0174 -0.1114 0.9936
vn 0.0273 0.0270 0.9993
vn 0.0986 0.3384 0.9358
vn 0.0433 0.1531 0.9873
vn 0.0277 0.1422 0.9894
vn 0.0218 0.0764 0.9968
vn 0.1156 -0.2510 0.9611
vn 0.0093 0.0320 0.9994
vn 0.0232 0.0173 0.9996
vn 0.1287 -0.3866 0.9132
vn 0.2694 -0.3952 0.8782
vn 0.0231 -0.5181 0.8550
vn 0.1649 -0.4151 0.8947
vn 0.0137 -0.7210 0.6928
vn -0.0579 -0.7387 0.6716
vn 0.1723 -0.4998 0.8488
vn 0.0120 -0.6784 0.7346
vn 0.0344 -0.8347 0.5496
vn 0.0305 -0.0905 0.9954
vn 0.0437 -0.0603 0.9972
vn 0.1345 -0.8917 0.4322
vn 0.5393 -0.0752 0.8387
vn 0.0201 0.0270 0.9994
vn 0.0231 0.0755 0.9969
vn 0.0002 -0.0635 0.9980
vn 0.0089 -0.0702 0.9975
vn 0.0066 0.0268 0.9996
vn 0.1536 -0.3651 0.9182
vn 0.0455 0.0568 0.9974
vn -0.0061 0.0586 0.9983
vn -0.0228 0.0653 0.9976
vn -0.0040 0.0251 0.9997
vn 0.0029 -0.0550 0.9985
vn -0.0041 -0.0518 0.9986
vn 0.0938 -0.1488 0.9844
vn 0.0059 -0.0284 0.9996
vn 0.0458 0.0328 0.9984
usemtl None
s off
f 1//1 2//1 3//1
f 4//2 5//2 6//2
f 7//3 9//3 8//3
f 2//4 10//4 3//4
f 11//5 13//5 12//5
f 14//6 16//6 15//6
f 17//7 3//7 10//7
f 18//8 19//8 20//8
f 21//9 20//9 19//9
f 10//10 6//10 22//10
f 23//11 6//11 10//11
f 2//12 23//12 10//12
f 23//13 24//13 6//13
f 25//14 27//14 26//14
f 28//15 29//15 30//15
f 29//16 31//16 30//16
f 32//17 33//17 34//17
f 25//18 35//18 27//18
f 36//19 27//19 35//19
f 35//20 2//20 36//20
f 37//21 38//21 36//21
f 37//22 2//22 1//22
f 39//23 6//23 24//23
f 39//24 4//24 6//24
f 40//25 41//25 27//25
f 40//26 27//26 36//26
f 42//27 27//27 41//27
f 39//28 43//28 4//28
f 44//29 26//29 45//29
f 26//30 7//30 8//30
f 6//31 5//31 22//31
f 26//32 44//32 7//32
f 8//33 47//33 46//33
f 8//34 9//34 47//34
f 42//35 26//35 27//35
f 48//36 5//36 4//36
f 43//37 49//37 4//37
f 50//38 49//38 51//38
f 48//39 4//39 50//39
f 50//40 4//40 49//40
f 46//41 47//41 52//41
f 45//42 26//42 42//42
f 7//43 53//43 9//43
f 54//44 47//44 9//44
f 54//45 52//45 47//45
f 55//46 13//46 54//46
f 55//47 12//47 13//47
f 56//48 58//48 57//48
f 57//49 11//49 12//49
f 57//50 12//50 56//50
f 56//51 12//51 55//51
f 56//52 18//52 58//52
f 55//53 59//53 56//53
f 56//54 59//54 18//54
f 55//55 60//55 59//55
f 18//56 15//56 16//56
f 16//57 58//57 18//57
f 15//58 18//58 20//58
f 61//59 15//59 20//59
f 15//60 61//60 14//60
f 19//61 18//61 59//61
f 19//62 59//62 62//62
f 63//63 62//63 59//63
f 64//64 19//64 62//64
f 65//65 63//65 59//65
f 66//66 21//66 19//66
f 67//67 61//67 20//67
f 67//68 20//68 21//68
f 67//69 21//69 66//69
f 64//70 62//70 68//70
f 61//71 69//71 70//71
f 69//72 61//72 71//72
f 19//73 72//73 66//73
f 73//74 19//74 64//74
f 66//75 74//75 67//75
f 67//76 74//76 75//76
f 67//77 76//77 61//77
f 76//78 67//78 75//78
f 73//79 72//79 19//79
f 63//80 68//80 62//80
f 77//81 69//81 78//81
f 69//82 80//82 79//82
f 69//83 81//83 80//83
f 82//84 83//84 84//84
f 85//85 86//85 87//85
f 88//86 87//86 86//86
f 89//87 83//87 82//87
f 83//88 90//88 86//88
f 90//89 91//89 88//89
f 86//90 90//90 88//90
f 92//91 91//91 90//91
f 92//92 90//92 93//92
f 94//93 95//93 96//93
f 94//94 92//94 93//94
f 93//95 95//95 94//95
f 95//96 93//96 97//96
f 98//97 99//97 93//97
f 98//98 93//98 90//98
f 97//99 93//99 100//99
f 101//100 102//100 93//100
f 100//101 93//101 102//101
f 97//102 103//102 95//102
f 96//103 95//103 103//103
f 97//104 100//104 104//104
f 105//105 97//105 106//105
f 107//106 106//106 97//106
f 105//107 108//107 97//107
f 109//108 110//108 97//108
f 103//109 97//109 110//109
f 111//110 90//110 112//110
f 97//111 108//111 113//111
f 97//112 113//112 114//112
f 115//113 117//113 116//113
f 118//114 117//114 115//114
f 119//115 116//115 117//115
f 120//116 121//116 119//116
f 121//117 120//117 122//117
f 123//118 117//118 124//118
f 120//119 119//119 117//119
f 117//120 125//120 120//120
f 123//121 125//121 117//121
f 123//122 126//122 125//122
f 122//123 30//123 127//123
f 128//124 129//124 30//124
f 31//125 128//125 30//125
f 130//126 127//126 30//126
f 130//127 30//127 129//127
f 128//128 34//128 129//128
f 34//129 131//129 129//129
f 132//130 128//130 31//130
f 133//131 34//131 33//131
f 134//132 34//132 133//132
f 135//133 131//133 34//133
f 134//134 133//134 33//134
f 34//135 136//135 137//135
f 34//136 137//136 135//136
f 34//137 134//137 138//137
f 137//138 136//138 139//138
f 137//139 139//139 140//139
f 141//140 137//140 142//140
f 143//141 142//141 137//141
f 137//142 140//142 143//142
f 144//143 53//143 7//143
f 145//144 76//144 75//144
f 146//145 66//145 147//145
f 146//146 74//146 66//146
f 81//147 69//147 148//147
f 72//148 147//148 66//148
f 149//149 100//149 102//149
f 100//150 151//150 150//150
f 152//151 137//151 141//151
f 150//152 104//152 100//152
f 153//153 71//153 76//153
f 154//154 106//154 107//154
f 79//155 70//155 69//155
f 112//156 90//156 83//156
f 34//157 138//157 136//157
f 155//158 85//158 79//158
f 113//159 156//159 114//159
f 83//160 86//160 85//160
f 97//161 104//161 107//161
f 157//162 114//162 158//162
f 159//163 34//163 128//163
f 159//164 32//164 34//164
f 160//165 124//165 118//165
f 65//166 59//166 60//166
f 157//167 115//167 114//167
f 115//168 109//168 114//168
f 46//169 52//169 13//169
f 46//170 13//170 11//170
f 161//171 54//171 53//171
f 53//172 54//172 9//172
f 36//173 2//173 37//173
f 37//174 1//174 38//174
f 8//175 25//175 26//175
f 38//176 40//176 36//176
f 39//177 24//177 23//177
f 76//178 71//178 61//178
f 98//179 90//179 111//179
f 48//180 22//180 5//180
f 162//181 7//181 44//181
f 157//182 118//182 115//182
f 160//183 123//183 124//183
f 80//184 163//184 155//184
f 80//185 155//185 79//185
f 97//186 114//186 109//186
f 54//187 13//187 52//187
f 30//188 164//188 28//188
f 125//189 164//189 30//189
f 30//190 120//190 125//190
f 30//191 122//191 120//191
f 85//192 155//192 83//192
f 155//193 84//193 83//193
f 148//194 69//194 77//194
f 93//195 99//195 165//195
f 118//196 124//196 117//196
