# Blender v2.79 (sub 0) OBJ File: ''
# www.blender.org
mtllib my_crack_surf__137.mtl
o my_crack_surf__137
v 130.276993 -5.316491 126.814003
v 137.257996 -20.274117 100.196999
v 147.649994 -10.960320 119.206001
v 148.061005 102.224960 216.632019
v 88.613197 112.866959 235.306015
v 99.864998 80.366058 214.612015
v 149.757004 -15.695118 110.190002
v 64.021896 114.545959 241.630020
v 66.079903 128.728958 247.392014
v 7.233110 130.521957 263.965027
v 28.874701 130.750961 257.513031
v 23.565800 127.248955 258.660034
v -2.706750 182.924957 269.561035
v 3.743970 147.173950 266.253021
v 33.759998 182.322952 265.808044
v 21.452299 183.261948 267.119019
v -7.532760 183.863953 270.232025
v -22.883101 183.933960 271.847015
v -12.388000 184.000961 270.860016
v -35.855598 183.340958 272.749023
v -48.826500 181.468948 272.924042
v -82.455101 -119.438049 260.578979
v -71.180603 -165.911041 261.193970
v -65.753899 -174.163040 262.365967
v 23.865299 -181.118042 259.642975
v 0.000000 -131.500046 258.825958
v -41.143398 -165.255051 260.427979
v 98.331703 -154.078049 258.441956
v 107.036003 -143.870041 257.394958
v 106.792999 -100.532036 253.671982
v 139.130005 -106.663040 251.499985
v 116.634003 -134.326050 256.087982
v 150.509003 -85.581635 247.765991
v 154.345993 -75.159737 245.990982
v 144.925995 -65.923241 244.494980
v 144.054993 36.037674 175.253998
v 116.240997 55.292168 196.329010
v 118.459999 43.938770 184.703995
v 153.350006 40.888470 177.526001
v 146.834000 19.637774 158.352005
v 165.778000 4.097997 141.365997
v 169.009003 59.931068 191.087021
v 155.880005 50.990868 184.726013
v 159.412994 84.216370 205.478012
v 112.475998 66.660271 203.803009
v 129.147003 20.196873 159.070007
v 168.751007 19.466873 159.261993
v 129.294998 5.463787 143.020996
v 171.632996 51.317471 185.106018
v 139.612000 112.309959 222.990021
v 163.231003 75.716972 200.723022
v 130.266998 -16.763218 105.989998
v 126.797997 128.140976 233.977020
v 129.076004 -22.246515 95.224503
v 106.161003 150.334961 247.975037
v 70.732101 173.120956 259.750031
v 52.408699 133.659958 249.947021
v 50.624699 119.312965 245.269012
v 37.940399 123.651962 251.728012
v 18.034700 150.361954 263.192017
v 88.423798 162.912949 254.845032
v 51.415401 179.475952 263.421021
v 5.476440 138.859955 265.031036
v -41.809700 123.699951 267.815033
v -59.000999 116.092957 268.496033
v -75.993797 172.804947 273.160034
v -65.738197 176.683960 273.128021
v -105.827003 155.339951 273.594025
v -98.244301 161.144958 273.772034
v -94.779099 145.132950 271.895020
v -113.192001 65.724251 268.144989
v -98.246498 85.817657 268.687988
v -95.734703 106.348953 269.778046
v -135.917007 124.931953 271.960022
v -154.470001 107.204956 270.430023
v -163.143005 95.752953 269.907043
v -170.436005 82.699356 269.558014
v -71.518997 174.588959 273.378021
v -130.757996 13.797358 263.173004
v -183.526001 53.358959 267.829987
v -185.548996 42.786358 267.138000
v -185.235992 9.480577 264.721008
v -129.240005 -8.058743 261.289001
v -184.897003 -48.281342 262.881012
v -127.957001 -30.291641 260.592010
v -178.807999 -69.912048 262.678009
v -123.099998 -41.409943 260.756012
v -164.860992 -92.917343 262.292999
v -113.347000 -63.432941 262.872986
v -183.324997 -55.165443 262.634003
v -108.404999 -74.428749 262.653015
v -129.957993 -128.427048 262.108978
v -137.792007 -122.102043 262.081970
v -123.563004 -134.818039 262.308960
v -42.049301 -124.596046 260.465973
v -82.023598 -102.782043 261.324982
v -142.285004 -117.325043 262.075958
v -110.170998 -148.689041 262.241974
v -98.567200 -157.992050 262.282959
v -23.575199 -143.135040 260.515961
v -33.888000 -183.673050 261.718964
v 41.804298 -181.016052 260.079956
v 24.629499 -126.713036 257.262970
v 48.975399 -122.039040 256.835968
v 71.247803 -107.327042 256.948975
v 82.460899 -99.805534 255.970978
v 93.658798 -92.300041 253.905991
v 126.250000 -67.747437 246.182983
v 157.203995 -63.068539 243.673981
v 124.865997 -31.716438 239.608002
v 123.106003 -46.079639 243.067993
v 159.669998 -37.148739 238.998993
v 155.315994 -18.917139 235.716003
v 149.511993 -7.431698 233.001007
v 158.533005 -7.012801 125.169998
v 154.250000 -12.013519 117.123001
v -85.560402 -165.937042 261.711975
v 58.324200 177.264954 262.339020
v -188.201004 -29.476341 263.306000
v 89.275299 -163.735046 258.925964
v 75.454803 -167.251053 259.741974
v 159.520996 -49.284138 241.257980
v -124.515999 135.682953 272.534027
v -130.585999 130.146957 271.796021
v 168.363007 36.183472 173.348007
v 170.682999 35.450974 173.233002
v 154.085999 94.114861 211.896011
v 75.559898 102.511963 232.700012
v 157.272995 -25.157238 236.675995
v 130.016998 3.109132 232.434006
v 146.229996 -2.450358 231.932999
v 168.242996 14.247875 153.552002
v -185.947998 31.328356 266.363007
v -127.900002 24.635256 264.127014
v -177.576996 68.207352 268.328003
v -84.118500 169.452957 273.418030
v -90.595802 165.092957 273.564026
v 64.919800 -172.249039 260.350983
v -153.162994 -108.705048 262.349976
vn -0.0781 -0.8777 0.4728
vn 0.1828 -0.4822 0.8568
vn -0.0401 -0.8885 0.4572
vn 0.2036 -0.3937 0.8964
vn 0.2848 -0.1203 0.9510
vn 0.1009 -0.0736 0.9922
vn 0.1012 -0.0598 0.9931
vn 0.1242 -0.0692 0.9898
vn 0.0702 -0.7122 0.6984
vn 0.0828 -0.4924 0.8664
vn -0.2959 -0.0592 0.9534
vn 0.0182 0.0252 0.9995
vn 0.0193 0.0857 0.9961
vn 0.0847 0.0956 0.9918
vn 0.0059 0.1658 0.9861
vn 0.0397 -0.7111 0.7020
vn 0.1422 -0.6301 0.7634
vn -0.0956 -0.7852 0.6118
vn 0.1313 -0.6955 0.7064
vn 0.1643 -0.5995 0.7834
vn 0.1394 -0.4564 0.8788
vn 0.1886 -0.6891 0.6997
vn 0.0286 -0.7274 0.6856
vn -0.0362 -0.6633 0.7475
vn -0.0287 -0.8331 0.5524
vn -0.0079 -0.5720 0.8202
vn 0.0042 -0.7366 0.6763
vn 0.1890 -0.4950 0.8481
vn 0.2124 -0.3876 0.8970
vn 0.1112 -0.4467 0.8877
vn -0.0409 -0.8756 0.4813
vn 0.2063 -0.4397 0.8741
vn -0.0651 -0.8863 0.4586
vn 0.1365 -0.2789 0.9506
vn 0.2009 -0.3969 0.8956
vn 0.3365 -0.3295 0.8822
vn 0.1106 -0.3878 0.9151
vn 0.0628 -0.3164 0.9465
vn 0.0798 -0.2751 0.9581
vn 0.2611 -0.2098 0.9422
vn -0.1544 -0.6324 0.7591
vn 0.5848 0.0898 0.8062
vn 0.0898 -0.2792 0.9560
vn 0.2291 -0.2701 0.9352
vn 0.2383 -0.1463 0.9601
vn 0.2788 -0.0825 0.9568
vn 0.2858 -0.0621 0.9563
vn 0.0981 -0.1247 0.9873
vn 0.0926 -0.1071 0.9899
vn 0.1113 -0.1353 0.9845
vn 0.2476 -0.1994 0.9481
vn 0.0747 -0.0788 0.9941
vn 0.0743 -0.0789 0.9941
vn 0.0520 -0.1134 0.9922
vn 0.1040 -0.0756 0.9917
vn 0.0384 -0.0933 0.9949
vn 0.0564 -0.1042 0.9930
vn 0.0418 -0.0581 0.9974
vn 0.0886 -0.1774 0.9801
vn 0.0104 -0.0446 0.9989
vn 0.0144 -0.0347 0.9993
vn 0.3328 -0.8772 0.3461
vn 0.0342 -0.0718 0.9968
vn 0.0349 -0.0834 0.9959
vn 0.0396 0.0018 0.9992
vn -0.0527 0.0724 0.9960
vn 0.0220 0.0244 0.9995
vn 0.0513 -0.0315 0.9982
vn -0.4422 -0.1328 0.8870
vn 0.0073 -0.0418 0.9991
vn 0.0002 -0.0199 0.9998
vn -0.0369 -0.0415 0.9985
vn -0.6731 -0.6634 0.3268
vn 0.0306 0.0306 0.9991
vn -0.0029 -0.0447 0.9990
vn 0.0021 -0.0448 0.9990
vn -0.4859 -0.4557 0.7458
vn 0.0322 0.0263 0.9991
vn 0.0468 0.0246 0.9986
vn 0.0036 0.0063 1.0000
vn 0.0470 0.0496 0.9977
vn 0.1197 -0.0990 0.9879
vn 0.0322 0.0825 0.9961
vn -0.0246 0.0440 0.9987
vn 0.0071 0.0541 0.9985
vn 0.1280 -0.2012 0.9711
vn 0.0502 0.0858 0.9950
vn 0.0938 -0.0103 0.9955
vn 0.0971 0.1268 0.9872
vn 0.0709 0.1820 0.9807
vn 0.1052 -0.1709 0.9797
vn 0.0232 0.1829 0.9829
vn 0.3355 0.1816 0.9244
vn 0.0454 0.1810 0.9824
vn -0.2051 0.1258 0.9706
vn 0.0505 0.2142 0.9755
vn 0.0268 -0.8554 0.5173
vn 0.0059 -0.8848 0.4660
vn 0.0360 -0.0128 0.9993
vn -0.2594 -0.9328 0.2501
vn -0.0544 -0.0321 0.9980
vn 0.0406 0.0716 0.9966
vn -0.0497 0.0964 0.9941
vn -0.0685 0.1834 0.9807
vn 0.0491 -0.0285 0.9984
vn 0.0949 -0.2330 0.9678
vn -0.3015 -0.9534 -0.0097
vn 0.0181 -0.5833 0.8121
vn -0.0069 -0.5989 0.8008
vn 0.0352 0.1632 0.9860
vn -0.0004 -0.0037 1.0000
vn 0.0601 0.0509 0.9969
vn -0.2367 -0.6150 0.7522
vn 0.1884 -0.3926 0.9002
vn 0.0054 -0.0497 0.9988
vn 0.0123 0.0847 0.9963
vn 0.1916 -0.4598 0.8671
vn 0.0961 -0.7833 0.6142
vn 0.3210 0.2416 0.9157
vn 0.0746 0.1906 0.9788
vn 0.1280 0.2878 0.9491
vn -0.0334 0.1061 0.9938
vn -0.0144 -0.8215 0.5700
vn 0.0465 0.0881 0.9950
vn 0.0354 -0.0730 0.9967
vn -0.0338 -0.7362 0.6759
vn 0.0342 -0.0738 0.9967
vn 0.1285 -0.4820 0.8667
vn 0.1587 -0.5052 0.8483
vn 0.0185 -0.0925 0.9955
vn 0.0407 -0.0498 0.9979
vn -0.0039 -0.0959 0.9954
vn -0.0278 0.0598 0.9978
vn 0.0358 -0.0687 0.9970
vn -0.0474 -0.7628 0.6449
vn 0.0070 -0.0880 0.9961
vn 0.0329 0.0032 0.9995
vn 0.3654 -0.2614 0.8934
vn 0.0550 -0.1058 0.9929
vn 0.0278 -0.0823 0.9962
vn 0.0358 0.0505 0.9981
vn 0.1151 0.1558 0.9811
vn 0.0296 -0.0657 0.9974
vn 0.0698 -0.0928 0.9932
vn 0.0909 -0.1019 0.9906
vn 0.0783 -0.0993 0.9920
vn 0.0550 0.0429 0.9976
vn 0.0955 0.1555 0.9832
vn 0.0128 0.1677 0.9858
vn -0.2271 0.5746 0.7863
vn -0.1641 -0.6379 0.7525
vn 0.0110 -0.6442 0.7648
vn 0.2052 -0.4741 0.8562
vn 0.0537 0.1723 0.9836
vn 0.1138 0.1575 0.9809
vn 0.0677 0.0537 0.9963
vn 0.0239 0.0342 0.9991
vn 0.0056 -0.7172 0.6968
vn 0.0505 -0.0591 0.9970
usemtl None
s off
f 1//1 2//1 3//1
f 4//2 5//2 6//2
f 3//3 2//3 7//3
f 8//4 5//4 9//4
f 10//5 12//5 11//5
f 13//6 14//6 15//6
f 13//7 15//7 16//7
f 17//8 14//8 13//8
f 18//9 17//9 19//9
f 20//10 21//10 18//10
f 22//11 23//11 24//11
f 25//12 26//12 27//12
f 28//13 29//13 30//13
f 31//14 30//14 32//14
f 33//15 34//15 35//15
f 36//16 37//16 38//16
f 36//17 39//17 37//17
f 40//18 3//18 41//18
f 37//19 43//19 42//19
f 39//20 43//20 37//20
f 44//21 4//21 45//21
f 40//22 39//22 36//22
f 38//23 46//23 36//23
f 40//24 47//24 39//24
f 1//25 3//25 48//25
f 42//26 43//26 49//26
f 46//27 48//27 40//27
f 45//28 4//28 6//28
f 50//29 5//29 4//29
f 51//30 44//30 37//30
f 1//31 52//31 2//31
f 50//32 53//32 5//32
f 54//33 2//33 52//33
f 55//34 56//34 9//34
f 55//35 9//35 5//35
f 57//36 59//36 58//36
f 58//37 8//37 9//37
f 58//38 9//38 57//38
f 57//39 9//39 56//39
f 57//40 60//40 59//40
f 56//41 55//41 61//41
f 11//42 59//42 60//42
f 56//43 62//43 57//43
f 60//44 57//44 62//44
f 11//45 60//45 14//45
f 11//46 14//46 63//46
f 63//47 10//47 11//47
f 64//48 63//48 14//48
f 63//49 64//49 10//49
f 60//50 62//50 15//50
f 60//51 15//51 14//51
f 21//52 64//52 14//52
f 21//53 65//53 64//53
f 14//54 18//54 21//54
f 14//55 17//55 18//55
f 66//56 21//56 67//56
f 68//57 70//57 69//57
f 71//58 72//58 73//58
f 70//59 74//59 75//59
f 71//60 73//60 75//60
f 76//61 77//61 71//61
f 67//62 78//62 66//62
f 79//63 80//63 81//63
f 79//64 82//64 83//64
f 84//65 86//65 85//65
f 87//66 88//66 89//66
f 87//67 85//67 86//67
f 84//68 83//68 82//68
f 90//69 86//69 84//69
f 22//70 91//70 88//70
f 89//71 88//71 91//71
f 92//72 88//72 93//72
f 92//73 94//73 88//73
f 22//74 88//74 94//74
f 95//75 96//75 22//75
f 91//76 22//76 96//76
f 97//77 93//77 88//77
f 98//78 22//78 94//78
f 22//79 99//79 23//79
f 100//80 95//80 22//80
f 100//81 26//81 95//81
f 100//82 27//82 26//82
f 25//83 27//83 101//83
f 102//84 103//84 25//84
f 102//85 104//85 103//85
f 30//86 105//86 104//86
f 32//87 30//87 29//87
f 106//88 105//88 30//88
f 106//89 30//89 107//89
f 108//90 30//90 35//90
f 109//91 108//91 35//91
f 109//92 35//92 34//92
f 110//93 111//93 108//93
f 112//94 110//94 108//94
f 112//95 113//95 114//95
f 112//96 114//96 110//96
f 115//97 3//97 116//97
f 116//98 3//98 7//98
f 117//99 23//99 99//99
f 118//100 62//100 56//100
f 119//101 84//101 82//101
f 120//102 30//102 121//102
f 120//103 28//103 30//103
f 122//104 112//104 109//104
f 85//105 83//105 84//105
f 70//106 123//106 124//106
f 125//107 126//107 39//107
f 43//108 39//108 126//108
f 49//109 43//109 126//109
f 23//110 117//110 24//110
f 27//111 100//111 22//111
f 27//112 22//112 24//112
f 127//113 4//113 44//113
f 5//114 53//114 55//114
f 76//115 71//115 75//115
f 73//116 65//116 75//116
f 128//117 5//117 8//117
f 40//118 48//118 3//118
f 129//119 113//119 112//119
f 130//120 110//120 114//120
f 131//121 130//121 114//121
f 102//122 121//122 30//122
f 115//123 41//123 3//123
f 101//124 27//124 24//124
f 65//125 21//125 70//125
f 40//126 132//126 47//126
f 133//127 82//127 79//127
f 51//128 37//128 42//128
f 45//129 37//129 44//129
f 79//130 134//130 80//130
f 135//131 80//131 134//131
f 134//132 71//132 77//132
f 70//133 124//133 74//133
f 133//134 79//134 81//134
f 132//135 40//135 41//135
f 134//136 77//136 135//136
f 86//137 88//137 87//137
f 12//138 59//138 11//138
f 123//139 70//139 68//139
f 65//140 70//140 75//140
f 30//141 104//141 102//141
f 108//142 107//142 30//142
f 70//143 21//143 66//143
f 66//144 136//144 70//144
f 137//145 70//145 136//145
f 137//146 69//146 70//146
f 103//147 26//147 25//147
f 31//148 35//148 30//148
f 31//149 33//149 35//149
f 138//150 121//150 102//150
f 126//151 125//151 47//151
f 47//152 125//152 39//152
f 6//153 5//153 128//153
f 112//154 108//154 109//154
f 108//155 111//155 107//155
f 139//156 97//156 88//156
f 22//157 98//157 99//157
f 40//158 36//158 46//158
f 73//159 72//159 65//159
