# Blender v2.79 (sub 0) OBJ File: ''
# www.blender.org
mtllib my_crack_surf__135.mtl
o my_crack_surf__135
v 130.274002 -9.419440 120.110001
v 139.817993 -19.559717 102.125000
v 147.669006 -10.971219 119.196999
v 163.268005 75.538269 200.929016
v 112.476997 66.658371 203.804016
v 88.613297 112.866959 235.306015
v 109.413002 115.554962 231.369019
v 149.778000 -15.636118 110.181999
v 64.019600 114.546959 241.621017
v 66.081703 128.727951 247.399017
v 7.233110 130.521957 263.965027
v 5.475100 138.860947 265.022034
v 23.631500 127.249954 258.757019
v 52.408901 133.658951 249.948013
v 3.743970 147.173950 266.253021
v -27.915300 183.753952 272.198029
v -7.555080 183.823959 270.196045
v -105.225998 100.687958 269.937042
v -121.207001 106.580956 270.077026
v -143.397995 118.066956 271.902039
v 163.751999 0.464622 136.369995
v 165.794998 4.192367 141.319000
v 161.981003 -2.065912 132.151001
v -77.214996 -150.882050 261.298981
v -65.823997 -174.237045 262.086975
v -71.167999 -165.873047 261.184967
v 129.223999 12.797575 151.085007
v 129.785995 -0.039456 135.011002
v 39.307999 -139.488052 257.094971
v 49.047600 -122.010040 256.785980
v 89.974403 -113.661041 256.104980
v 48.524799 -179.957047 259.458984
v 75.374802 -167.345047 259.188965
v 89.196503 -163.785049 258.815979
v 107.051003 -143.847046 257.488983
v 97.661697 -127.329041 256.465973
v 116.240997 55.292168 196.329010
v 156.007996 50.904270 184.719009
v 150.143997 -86.482536 247.769989
v 154.074997 -75.632637 245.791992
v 136.796997 -77.716835 246.776978
v 118.461998 43.931469 184.705002
v 144.003998 36.008472 175.229004
v 129.147003 20.196373 159.070999
v 168.453995 15.871275 155.000000
v 168.447006 62.175968 192.139023
v 171.699997 51.486168 184.621017
v 129.294998 5.463787 143.020996
v 101.986000 78.432663 213.030014
v 75.551300 102.519958 232.695023
v 121.734001 133.859955 237.431015
v 130.029999 -17.833017 103.911003
v 104.200996 141.360947 244.106033
v 108.022003 125.339958 236.340012
v 82.802803 166.377960 256.472015
v 93.955704 159.611954 253.034027
v 105.848000 150.536957 248.043030
v 50.635700 119.305962 245.312012
v 37.949402 123.645966 251.763016
v 28.783899 130.554947 257.581024
v 70.589104 173.235947 259.677032
v 76.332703 170.094955 258.233032
v -41.805599 123.699951 267.821045
v 51.432499 179.459961 263.492035
v 42.969101 174.571960 263.559021
v -48.803200 181.475952 272.905029
v 21.334600 183.184952 267.285034
v -59.003899 116.089951 268.504028
v -35.909100 183.242950 272.637024
v -98.248299 85.815758 268.692993
v -2.741720 182.858948 269.559021
v -124.452003 135.507950 272.355042
v -90.530998 165.162949 273.290039
v -98.269096 161.097961 273.951019
v -105.742996 155.257950 273.673035
v -113.192001 65.724251 268.144989
v -154.438995 78.255951 268.787994
v -133.582993 71.294250 268.157990
v -127.900002 24.634657 264.122009
v -130.757996 13.796657 263.165985
v -163.171005 95.710854 269.952026
v -173.492996 77.616455 269.079010
v -157.089996 -10.372743 262.341003
v -129.238998 -8.059233 261.281006
v -181.617004 59.399757 268.048004
v -183.528000 53.352657 267.855011
v -185.404007 46.139858 267.528015
v -185.798996 31.066055 266.325989
v -185.041000 3.608127 264.196991
v -127.957001 -30.292042 260.584015
v -183.328995 -55.180943 262.996002
v -123.099998 -41.409843 260.756989
v -113.347000 -63.432941 262.872986
v -186.106995 -2.014813 264.153015
v -128.518997 -63.432541 261.735992
v -178.847000 -69.821243 262.783997
v -108.404999 -74.428749 262.653992
v -153.128006 -108.737045 262.347961
v -164.945999 -92.786148 262.351013
v -156.643997 -104.124046 262.342957
v -109.133003 -118.725044 261.429962
v -72.554001 -124.852043 260.530975
v -129.636993 -128.702042 262.258972
v -141.688004 -117.698044 262.286957
v -42.049301 -124.596046 260.465973
v -82.023598 -102.782043 261.324982
v -114.628998 -144.796051 262.485962
v -93.396004 -162.002045 262.164978
v -26.099001 -158.248047 259.878967
v 0.000000 -131.500046 258.825958
v 24.629499 -126.713036 257.262970
v 16.103800 -181.194046 259.871979
v 71.296402 -107.297035 256.947968
v 116.672997 -134.286041 256.036957
v 82.492500 -99.782738 256.015961
v 93.649101 -92.309341 253.946991
v 106.799004 -100.525040 253.689987
v 108.217003 -69.351341 248.366989
v 126.127998 -67.994438 246.209991
v 121.628998 -127.545036 255.044983
v 156.524002 -62.579037 243.573990
v 122.720001 -47.144238 243.355988
v 132.509995 -115.422035 252.862991
v 153.136002 -33.235336 238.203995
v 156.673004 -52.598938 241.818985
v 139.125000 -106.672035 251.504990
v 126.758003 -18.308739 236.565002
v 141.518005 -12.650038 234.645004
v 129.029999 -2.298128 233.942993
v 154.276001 -12.167219 117.281998
v -80.592903 -168.414047 261.667969
v -14.653300 -182.410049 261.023956
v -33.631100 -183.301041 261.197968
v 168.020996 12.783775 151.763000
v 167.119003 9.186476 147.677994
v 40.733101 181.526947 264.964020
v -156.128006 105.582954 270.511017
v -188.110992 -29.413843 263.769989
v -41.169399 -165.150040 260.474976
v -57.692299 -177.160049 261.951965
v 170.240005 31.041073 169.578995
v 129.089005 -22.207016 95.207802
v -65.714600 176.692947 273.057037
v -84.109596 169.465958 273.321045
v -2.116460 -181.107040 260.394958
v 38.208500 -180.738052 259.647980
v 24.052000 -181.143051 259.829956
v 153.164993 95.686661 212.542023
v 157.309006 89.433067 208.619019
v 149.037994 -22.681238 236.098007
vn -0.0541 -0.8818 0.4685
vn 0.1370 -0.5087 0.8500
vn 0.2195 -0.3861 0.8959
vn -0.0184 -0.8897 0.4561
vn 0.2031 -0.3947 0.8961
vn 0.2913 -0.0596 0.9548
vn 0.2969 -0.0791 0.9516
vn 0.0951 -0.2728 0.9574
vn -0.1536 -0.4374 0.8860
vn -0.9122 -0.0414 0.4077
vn 0.0058 -0.8270 0.5621
vn -0.4328 -0.1813 0.8831
vn -0.0174 -0.7816 0.6236
vn 0.0147 0.0095 0.9998
vn -0.0092 0.0562 0.9984
vn -0.0194 0.0626 0.9979
vn 0.0032 0.0636 0.9980
vn 0.1698 -0.5762 0.7995
vn 0.0361 0.1666 0.9854
vn 0.1291 -0.6967 0.7056
vn 0.1103 -0.5958 0.7955
vn 0.1375 -0.5121 0.8479
vn 0.0287 -0.7275 0.6855
vn -0.0134 -0.7167 0.6972
vn -0.0053 -0.7600 0.6498
vn -0.0476 -0.8460 0.5310
vn -0.0025 -0.8239 0.5667
vn 0.0263 -0.5697 0.8214
vn 0.9510 -0.2245 0.2125
vn 0.2325 -0.4630 0.8553
vn 0.2046 -0.4744 0.8562
vn 0.1888 -0.4209 0.8873
vn -0.0720 -0.8847 0.4606
vn -0.2078 -0.4664 0.8598
vn 0.2199 -0.3957 0.8917
vn -0.1004 -0.5772 0.8104
vn 0.0576 -0.4024 0.9137
vn 0.1822 -0.3061 0.9344
vn 0.2068 -0.3902 0.8972
vn 0.3371 -0.3268 0.8829
vn 0.1138 -0.3890 0.9142
vn 0.0634 -0.3138 0.9474
vn 0.0823 -0.2679 0.9599
vn 0.3290 -0.3136 0.8907
vn 0.3065 0.0075 0.9518
vn 0.0945 -0.2784 0.9558
vn -0.1267 -0.5961 0.7928
vn 0.2746 -0.0873 0.9576
vn 0.0987 -0.1256 0.9872
vn 0.0926 -0.1060 0.9900
vn 0.1671 -0.2763 0.9464
vn 0.0991 -0.2802 0.9548
vn 0.0746 -0.0784 0.9941
vn 0.0417 -0.3067 0.9509
vn 0.0742 -0.0785 0.9941
vn 0.0467 -0.1207 0.9916
vn 0.0766 -0.4218 0.9035
vn 0.0508 -0.0596 0.9969
vn 0.3523 0.1549 0.9230
vn 0.0941 -0.2758 0.9566
vn 0.2362 -0.2993 0.9244
vn 0.0571 -0.1202 0.9911
vn 0.0463 -0.0617 0.9970
vn -0.0093 -0.0491 0.9988
vn 0.0013 -0.0470 0.9989
vn -0.0237 -0.0890 0.9957
vn -0.0044 -0.0867 0.9962
vn 0.0172 -0.0580 0.9982
vn 0.0448 -0.0828 0.9956
vn 0.2319 -0.1042 0.9671
vn 0.0347 -0.0718 0.9968
vn 0.0320 -0.0803 0.9963
vn 0.0279 -0.0765 0.9967
vn 0.0404 -0.0290 0.9988
vn 0.0501 -0.0148 0.9986
vn 0.0137 0.1017 0.9947
vn 0.0570 -0.0186 0.9982
vn -0.0627 -0.5443 0.8366
vn 0.0218 -0.0078 0.9997
vn -0.0746 -0.0534 0.9958
vn 0.0107 0.0077 0.9999
vn -0.0597 -0.0445 0.9972
vn 0.0199 -0.0279 0.9994
vn -0.0032 -0.0060 1.0000
vn 0.0542 -0.0285 0.9981
vn 0.0024 -0.0349 0.9994
vn 0.0217 -0.0266 0.9994
vn 0.0231 0.0356 0.9991
vn 0.0292 0.0276 0.9992
vn 0.0409 0.0318 0.9987
vn 0.0379 0.0227 0.9990
vn -0.0063 0.0306 0.9995
vn 0.0525 0.0075 0.9986
vn 0.0392 0.0011 0.9992
vn 0.0434 -0.0030 0.9991
vn 0.0538 0.0487 0.9974
vn 0.0279 0.0510 0.9983
vn 0.0181 0.0076 0.9998
vn 0.0273 -0.0522 0.9983
vn 0.0721 0.1361 0.9881
vn 0.0568 0.0938 0.9940
vn 0.1235 0.0955 0.9877
vn 0.0578 0.0376 0.9976
vn 0.1315 0.0772 0.9883
vn 0.0742 0.0876 0.9934
vn 0.1047 0.1716 0.9796
vn 0.1049 0.1722 0.9795
vn 0.1126 0.1496 0.9823
vn -0.0429 0.1762 0.9834
vn 0.0632 0.1271 0.9899
vn 0.0731 0.1739 0.9821
vn 0.1368 -0.3097 0.9409
vn 0.0234 0.1567 0.9874
vn 0.0368 0.1607 0.9863
vn -0.0540 0.1737 0.9833
vn -0.0095 0.1604 0.9870
vn 0.0923 0.2160 0.9720
vn 0.0435 0.1847 0.9818
vn 0.0513 0.1982 0.9788
vn 0.0702 0.1515 0.9860
vn 0.0115 -0.8299 0.5578
vn -0.0297 -0.8906 0.4539
vn 0.0480 0.0118 0.9988
vn 0.0068 0.0505 0.9987
vn -0.4987 -0.5929 0.6323
vn 0.0642 -0.3065 0.9497
vn 0.1031 -0.1650 0.9809
vn 0.0159 -0.1268 0.9918
vn 0.0578 -0.0193 0.9981
vn 0.0188 0.1191 0.9927
vn 0.0110 0.0618 0.9980
vn 0.1033 -0.1650 0.9809
vn 0.0342 0.1637 0.9859
vn 0.0411 -0.7327 0.6793
vn 0.0561 -0.0758 0.9955
vn 0.0406 0.0668 0.9969
vn 0.1741 -0.3956 0.9018
vn 0.0083 -0.0624 0.9980
vn 0.1629 -0.2739 0.9479
vn 0.0179 0.0472 0.9987
vn 0.0235 -0.6942 0.7194
vn -0.0738 -0.8878 0.4542
vn 0.0571 -0.0181 0.9982
vn 0.1912 -0.4601 0.8670
vn 0.0671 -0.5740 0.8161
vn 0.0270 -0.5937 0.8043
vn 0.0231 -0.0500 0.9985
vn 0.6213 -0.7628 0.1794
vn 0.0019 0.0317 0.9995
vn 0.0371 0.0472 0.9982
vn 0.0692 -0.1104 0.9915
vn 0.1921 -0.4226 0.8857
vn 0.0430 0.0676 0.9968
vn 0.0029 0.3227 0.9465
vn 0.0088 0.0615 0.9981
vn 0.0136 0.0614 0.9980
vn -0.1183 -0.4352 0.8925
vn 0.2088 -0.4077 0.8889
vn 0.0450 0.0124 0.9989
vn 0.1640 -0.4137 0.8955
vn 0.2799 -0.3702 0.8858
vn -0.0003 -0.5496 0.8354
vn 0.0189 -0.0856 0.9962
vn 0.0483 -0.0529 0.9974
vn 0.0115 -0.0558 0.9984
vn 0.0174 -0.0642 0.9978
vn 0.0463 0.0589 0.9972
vn 0.0476 -0.0849 0.9952
vn -0.0354 0.0187 0.9992
vn 0.0112 0.0074 0.9999
vn -0.9221 -0.1870 0.3389
vn 0.0289 0.0529 0.9982
vn 0.1450 0.2475 0.9580
vn 0.0261 -0.0549 0.9982
vn 0.0216 -0.0058 0.9998
vn 0.0142 -0.0620 0.9980
vn 0.3702 -0.2599 0.8919
vn 0.0305 0.0289 0.9991
vn 0.0265 -0.0547 0.9982
usemtl None
s off
f 1//1 2//1 3//1
f 4//2 6//2 5//2
f 4//3 7//3 6//3
f 3//4 2//4 8//4
f 9//5 6//5 10//5
f 11//6 13//6 12//6
f 14//7 15//7 12//7
f 16//8 14//8 17//8
f 18//9 20//9 19//9
f 21//10 22//10 23//10
f 23//11 22//11 3//11
f 24//12 26//12 25//12
f 22//13 27//13 28//13
f 29//14 31//14 30//14
f 29//15 32//15 31//15
f 31//16 32//16 33//16
f 34//17 35//17 36//17
f 37//18 38//18 4//18
f 39//19 40//19 41//19
f 37//20 42//20 38//20
f 43//21 38//21 42//21
f 37//22 4//22 5//22
f 42//23 44//23 43//23
f 27//24 45//24 43//24
f 27//25 22//25 45//25
f 1//26 3//26 28//26
f 28//27 3//27 22//27
f 46//28 38//28 47//28
f 27//29 48//29 28//29
f 49//30 5//30 6//30
f 49//31 6//31 50//31
f 51//32 7//32 4//32
f 1//33 52//33 2//33
f 53//34 7//34 54//34
f 53//35 6//35 7//35
f 55//36 57//36 56//36
f 55//37 53//37 57//37
f 53//38 55//38 10//38
f 53//39 10//39 6//39
f 14//40 59//40 58//40
f 58//41 9//41 10//41
f 58//42 10//42 14//42
f 14//43 10//43 55//43
f 14//44 60//44 59//44
f 12//45 60//45 14//45
f 61//46 14//46 55//46
f 62//47 61//47 55//47
f 12//48 13//48 60//48
f 63//49 12//49 15//49
f 12//50 63//50 11//50
f 64//51 65//51 14//51
f 61//52 64//52 14//52
f 66//53 63//53 15//53
f 14//54 65//54 67//54
f 66//55 68//55 63//55
f 66//56 15//56 16//56
f 66//57 16//57 69//57
f 18//58 70//58 68//58
f 15//59 14//59 16//59
f 71//60 14//60 67//60
f 72//61 73//61 74//61
f 75//62 72//62 74//62
f 70//63 18//63 76//63
f 19//64 76//64 18//64
f 76//65 19//65 77//65
f 78//66 79//66 76//66
f 79//67 78//67 80//67
f 77//68 81//68 82//68
f 83//69 84//69 80//69
f 85//70 86//70 87//70
f 83//71 80//71 88//71
f 80//72 87//72 88//72
f 88//73 89//73 83//73
f 90//74 84//74 83//74
f 83//75 91//75 90//75
f 91//76 93//76 92//76
f 94//77 83//77 89//77
f 91//78 95//78 93//78
f 95//79 91//79 96//79
f 93//80 95//80 97//80
f 98//81 95//81 99//81
f 100//82 98//82 99//82
f 101//83 102//83 97//83
f 103//84 97//84 104//84
f 101//85 97//85 103//85
f 105//86 106//86 102//86
f 97//87 102//87 106//87
f 107//88 101//88 103//88
f 101//89 108//89 102//89
f 101//90 107//90 108//90
f 102//91 108//91 24//91
f 102//92 24//92 25//92
f 109//93 105//93 25//93
f 109//94 110//94 105//94
f 109//95 29//95 110//95
f 111//96 110//96 29//96
f 109//97 112//97 29//97
f 29//98 30//98 111//98
f 31//99 113//99 30//99
f 114//100 41//100 36//100
f 114//101 36//101 35//101
f 41//102 31//102 36//102
f 115//103 113//103 31//103
f 115//104 31//104 116//104
f 117//105 116//105 31//105
f 41//106 118//106 116//106
f 41//107 119//107 118//107
f 41//108 116//108 117//108
f 41//109 114//109 120//109
f 121//110 119//110 41//110
f 121//111 122//111 118//111
f 121//112 118//112 119//112
f 123//113 41//113 120//113
f 121//114 41//114 40//114
f 124//115 121//115 125//115
f 123//116 126//116 41//116
f 127//117 122//117 121//117
f 124//118 127//118 121//118
f 124//119 128//119 127//119
f 129//120 127//120 128//120
f 23//121 3//121 130//121
f 130//122 3//122 8//122
f 131//123 26//123 24//123
f 132//124 109//124 133//124
f 134//125 45//125 135//125
f 17//126 14//126 71//126
f 136//127 65//127 64//127
f 20//128 137//128 19//128
f 138//129 91//129 83//129
f 26//130 131//130 25//130
f 34//131 36//131 33//131
f 136//132 67//132 65//132
f 126//133 39//133 41//133
f 27//134 43//134 44//134
f 18//135 68//135 66//135
f 139//136 25//136 140//136
f 53//137 54//137 51//137
f 81//138 77//138 137//138
f 109//139 25//139 139//139
f 139//140 133//140 109//140
f 141//141 43//141 45//141
f 2//142 52//142 142//142
f 83//143 94//143 138//143
f 50//144 6//144 9//144
f 141//145 38//145 43//145
f 47//146 38//146 141//146
f 66//147 143//147 72//147
f 117//148 31//148 41//148
f 102//149 25//149 105//149
f 31//150 33//150 36//150
f 72//151 144//151 73//151
f 51//152 54//152 7//152
f 132//153 145//153 109//153
f 146//154 112//154 147//154
f 29//155 112//155 146//155
f 146//156 32//156 29//156
f 76//157 77//157 78//157
f 148//158 51//158 4//158
f 108//159 131//159 24//159
f 57//160 53//160 51//160
f 148//161 4//161 149//161
f 38//162 46//162 4//162
f 80//163 78//163 85//163
f 80//164 85//164 87//164
f 85//165 78//165 77//165
f 77//166 82//166 85//166
f 140//167 133//167 139//167
f 143//168 144//168 72//168
f 95//169 104//169 97//169
f 95//170 98//170 104//170
f 135//171 45//171 22//171
f 112//172 109//172 145//172
f 150//173 128//173 124//173
f 18//174 66//174 72//174
f 95//175 96//175 99//175
f 19//176 137//176 77//176
f 13//177 59//177 60//177
f 92//178 90//178 91//178
f 18//179 72//179 20//179
