# Blender v2.79 (sub 0) OBJ File: ''
# www.blender.org
mtllib my_crack_surf__117.mtl
o my_crack_surf__117
v 129.307999 5.334267 143.175003
v 166.373001 14.196876 154.065994
v 129.147995 20.188374 159.080002
v 167.182007 21.307774 161.358994
v 130.274002 -9.679870 120.323997
v 138.983994 -14.596218 113.121002
v 151.791000 -12.113919 118.114998
v 163.772003 5.596687 143.261993
v 156.309006 -7.421481 125.352997
v -110.500000 146.300949 272.382019
v -105.225998 100.683952 270.057037
v -103.866997 152.890961 273.083038
v 64.007202 114.554962 241.572021
v 66.110497 128.709961 247.513016
v 88.613899 112.865959 235.308014
v 27.850000 181.089951 266.084045
v 0.652498 157.206955 266.424042
v 3.743970 147.173950 266.253021
v 1.770880 181.256958 268.896027
v 124.742996 60.526569 197.316010
v 118.452003 43.968071 184.703003
v 116.240997 55.292168 196.329010
v 168.100998 31.284771 170.195999
v 144.005005 35.992973 175.246994
v 161.712997 71.399666 197.903015
v 118.880997 -122.007042 254.682983
v 106.799004 -100.525040 253.958984
v 127.433998 -107.556038 252.016983
v 39.307400 -139.489044 257.068970
v 46.306999 -175.209045 259.387970
v 64.651199 -167.295044 259.201965
v 169.382004 51.386871 185.044022
v 111.426003 69.831268 205.930008
v 137.102005 83.832268 208.446014
v 131.666000 -102.350037 250.719986
v 169.268005 41.259670 177.893005
v 168.947998 47.653168 182.472015
v 156.746994 85.239372 206.382019
v 142.666000 106.016960 219.330017
v 75.554199 102.516960 232.697021
v 160.483994 76.682472 201.113022
v 130.266998 -16.940918 106.138000
v 138.794998 -18.364717 104.144997
v 129.475998 -20.390915 98.398598
v 93.825104 157.414948 253.443024
v 81.029503 136.962952 247.014023
v 103.487999 148.706955 248.617035
v 52.520901 133.591949 250.391022
v 50.716599 119.256966 245.632019
v 33.015099 125.290962 255.025009
v 50.033401 176.944962 263.739044
v 29.266600 132.156952 258.374023
v 75.892799 167.547958 258.525024
v 23.883400 127.251953 259.129028
v -41.759800 123.699951 267.889038
v 7.233110 130.521957 263.965027
v -26.892700 181.832947 271.842041
v -3.055220 181.739960 269.481018
v -43.359501 179.180954 272.551025
v -98.269302 85.793457 268.751007
v -59.036201 116.055954 268.593018
v -119.577003 136.023956 271.582031
v -147.973999 109.131958 269.634033
v -113.192001 65.724251 268.144989
v -164.684006 86.010353 269.085999
v -127.900002 24.629456 264.070007
v -174.016998 68.170357 268.684998
v -180.781998 46.172958 267.209991
v -130.757996 13.789257 263.092987
v -159.848999 -20.566341 262.501007
v -129.238007 -8.063803 261.200012
v -144.444000 -14.364543 261.489014
v -182.520004 32.565960 266.213013
v -127.956001 -30.297543 260.487000
v -168.973007 -26.715542 262.334015
v -123.099998 -41.410141 260.752014
v -113.347000 -63.432842 262.873993
v -183.623993 -1.891133 264.006989
v -183.470993 -26.195942 262.720001
v -178.977997 -48.841244 262.394012
v -174.416000 -65.692047 262.395996
v -149.505005 -104.483047 261.888977
v -140.072006 -114.594048 261.702972
v -108.405998 -74.428146 262.670013
v -42.049301 -124.596046 260.465973
v -82.462502 -119.451042 260.528961
v -82.023598 -102.782043 261.324982
v -121.113998 -132.323044 261.923981
v -105.723000 -144.696045 262.171967
v -96.919098 -155.412048 262.406982
v -86.126297 -163.370041 262.374969
v -21.092501 -128.025040 260.038971
v -23.603100 -143.134048 260.654968
v 0.000000 -131.500046 258.829956
v -32.358299 -179.157043 260.766968
v 24.629000 -126.713036 257.235962
v 49.046799 -122.010040 256.744965
v 26.822901 -178.276047 259.729980
v 2.138750 -177.025040 259.867981
v 37.208000 -177.462051 259.571960
v 89.974403 -113.661041 256.352966
v 86.671097 -134.632050 257.323975
v 71.296402 -107.297035 256.947968
v 82.509300 -99.765442 256.499969
v 93.665199 -92.292839 254.408981
v 108.206001 -69.380737 248.103989
v 136.201996 -92.235641 248.783981
v 141.533005 -78.117340 246.325989
v 143.968002 -60.691238 244.140991
v 144.957993 -67.377335 244.748978
v 122.745003 -47.078136 243.945984
v 139.386002 -46.569839 242.240997
v 145.975998 -15.575118 111.013000
v 121.584999 -118.305038 254.163986
v 111.824997 140.088959 243.148010
v -183.177994 -10.111843 263.437988
v -183.914993 -17.274342 262.934998
v -19.168100 -178.369049 260.801971
v 112.920998 -131.154053 255.828979
v 102.994003 -140.194046 256.696960
v -163.082001 -88.117744 261.967010
v -98.551903 157.672958 272.756042
v -85.283897 164.803955 272.878021
v 60.437698 173.859955 261.819031
v 93.786499 -149.532043 257.280975
v -64.176498 -171.151047 261.067963
v -70.951103 171.173950 273.001038
v 84.751404 -156.351044 257.927979
v -44.712898 -177.004044 260.541962
v 124.934998 -31.310638 239.570999
v 135.132004 -40.062340 241.022003
v -157.968002 96.869553 269.223022
v -63.124699 173.911957 272.928040
v 124.969002 126.726959 233.511017
v 135.714996 114.804962 225.150009
vn -0.0257 -0.7307 0.6822
vn -0.0209 -0.7147 0.6991
vn -0.0417 -0.8480 0.5284
vn 0.0047 -0.8098 0.5867
vn 0.0044 -0.7829 0.6221
vn -0.0492 -0.0565 0.9972
vn 0.1995 -0.4043 0.8926
vn 0.0216 -0.0104 0.9997
vn 0.1059 -0.1065 0.9887
vn 0.3186 -0.6480 0.6918
vn 0.0057 -0.7177 0.6963
vn -0.0262 -0.8313 0.5553
vn 0.1757 -0.6379 0.7498
vn 0.1288 0.1057 0.9860
vn -0.0164 0.0616 0.9980
vn 0.0871 -0.6331 0.7692
vn 0.2310 -0.4621 0.8562
vn 0.1279 -0.4818 0.8669
vn 0.1729 -0.4976 0.8500
vn 0.1376 0.1327 0.9816
vn 0.0269 -0.7271 0.6860
vn -0.0254 -0.6615 0.7495
vn -0.0383 -0.8359 0.5476
vn 0.0454 -0.6136 0.7883
vn 0.0359 -0.5807 0.8133
vn 0.0281 -0.5693 0.8217
vn 0.1257 -0.4851 0.8654
vn 0.1261 -0.5520 0.8243
vn 0.2103 -0.4104 0.8873
vn 0.2055 -0.4751 0.8556
vn 0.0341 -0.5132 0.8576
vn -0.1246 -0.8832 0.4521
vn -0.0630 -0.9197 0.3875
vn -0.0558 -0.9098 0.4113
vn 0.1273 -0.3690 0.9207
vn 0.2716 -0.4391 0.8564
vn 0.2321 -0.3650 0.9016
vn 0.3502 -0.3345 0.8749
vn 0.1352 -0.4005 0.9063
vn 0.0834 -0.3234 0.9426
vn 0.0972 -0.2905 0.9519
vn 0.0956 -0.2879 0.9529
vn 0.3278 -0.2608 0.9080
vn 0.0503 -0.3753 0.9256
vn 0.2344 -0.1085 0.9661
vn 0.3524 -0.2478 0.9025
vn 0.0756 -0.1531 0.9853
vn 0.0953 -0.1159 0.9887
vn 0.2123 -0.1461 0.9662
vn 0.2425 0.0582 0.9684
vn 0.0976 -0.1085 0.9893
vn 0.0560 -0.0820 0.9951
vn 0.0525 -0.0629 0.9966
vn 0.1091 -0.1067 0.9883
vn -0.0200 -0.0512 0.9985
vn 0.0473 -0.0653 0.9967
vn -0.0030 -0.0539 0.9985
vn 0.0284 -0.0756 0.9967
vn 0.1232 -0.1212 0.9850
vn 0.0753 -0.0809 0.9939
vn 0.3766 -0.8983 0.2266
vn -0.0061 -0.0723 0.9974
vn 0.0315 -0.0302 0.9990
vn 0.1789 -0.2909 0.9399
vn 0.0753 0.1286 0.9888
vn 0.0489 0.0452 0.9978
vn 0.0194 -0.0558 0.9983
vn 0.0263 -0.0092 0.9996
vn 0.0036 0.0011 1.0000
vn 0.0187 -0.0010 0.9998
vn 0.0186 -0.0011 0.9998
vn -0.0151 -0.0122 0.9998
vn -0.0312 -0.0325 0.9990
vn -0.0045 -0.0476 0.9989
vn 0.0435 -0.0224 0.9988
vn -0.0003 -0.0477 0.9989
vn 0.0208 0.0459 0.9987
vn 0.0247 0.0422 0.9988
vn 0.0319 0.0393 0.9987
vn 0.0263 0.0364 0.9990
vn 0.0622 0.0303 0.9976
vn 0.0542 0.0466 0.9974
vn 0.0575 -0.0109 0.9983
vn 0.0548 0.0500 0.9972
vn 0.0185 0.0082 0.9998
vn 0.0089 0.0656 0.9978
vn 0.0101 0.0652 0.9978
vn 0.0039 0.0656 0.9978
vn 0.0001 0.0462 0.9989
vn 0.0179 -0.0409 0.9990
vn 0.0801 0.0785 0.9937
vn 0.0678 0.0355 0.9971
vn 0.0346 0.0080 0.9994
vn 0.1413 0.0655 0.9878
vn 0.0819 0.0763 0.9937
vn 0.1440 0.1765 0.9737
vn 0.1217 0.1781 0.9765
vn 0.1372 0.1265 0.9824
vn 0.0888 0.1382 0.9864
vn 0.0824 0.1127 0.9902
vn 0.1182 0.1073 0.9872
vn 0.0769 0.1341 0.9880
vn 0.0956 0.1631 0.9820
vn 0.0050 -0.9005 0.4348
vn -0.2869 0.3353 0.8974
vn -0.0123 -0.9219 0.3873
vn 0.1548 -0.4182 0.8950
vn -0.0039 -0.0697 0.9976
vn -0.0597 0.9956 0.0716
vn 0.0517 0.0391 0.9979
vn -0.0442 -0.0414 0.9982
vn -0.1113 0.1904 0.9754
vn 0.1048 -0.2462 0.9635
vn 0.0513 -0.0591 0.9969
vn -0.0034 -0.0692 0.9976
vn 0.2642 -0.0767 0.9614
vn 0.0812 -0.0883 0.9928
vn 0.0078 -0.0266 0.9996
vn 0.2043 -0.4914 0.8466
vn 0.0439 0.0960 0.9944
vn 0.0447 0.0184 0.9988
vn 0.0721 0.0359 0.9968
vn 0.0462 -0.0788 0.9958
vn 0.0350 -0.0594 0.9976
vn 0.3277 -0.2636 0.9073
vn 0.0541 0.0230 0.9983
vn -0.0059 0.0283 0.9996
vn 0.0284 0.0639 0.9976
vn 0.0258 -0.0228 0.9994
vn 0.1896 -0.4583 0.8683
vn 0.0434 -0.0179 0.9989
vn 0.0337 0.0223 0.9992
vn -0.0057 0.0045 1.0000
vn 0.0048 -0.1004 0.9949
vn 0.0825 0.2558 0.9632
vn 0.0916 0.2409 0.9662
vn -0.0269 -0.0540 0.9982
vn 0.0701 -0.5201 0.8512
vn 0.0228 0.0519 0.9984
vn 0.0127 -0.0643 0.9979
vn -0.0156 -0.0030 0.9999
vn -0.0205 -0.0132 0.9997
vn 0.0023 0.0059 1.0000
vn -0.0526 0.0991 0.9937
vn -0.0395 0.0405 0.9984
vn 0.0410 -0.0825 0.9957
vn 0.0614 -0.0469 0.9970
vn -0.0142 -0.0219 0.9997
vn 0.1568 -0.4716 0.8678
vn 0.1897 -0.3801 0.9053
vn 0.0385 -0.0835 0.9958
vn 0.2078 -0.4205 0.8832
vn -0.0197 -0.0086 0.9998
vn 0.2072 -0.4296 0.8789
usemtl None
s off
f 1//1 2//1 3//1
f 3//2 2//2 4//2
f 5//3 6//3 7//3
f 1//4 9//4 8//4
f 1//5 8//5 2//5
f 10//6 11//6 12//6
f 13//7 15//7 14//7
f 16//8 17//8 18//8
f 19//9 17//9 16//9
f 20//10 22//10 21//10
f 23//11 24//11 3//11
f 1//12 7//12 9//12
f 21//13 25//13 20//13
f 26//14 28//14 27//14
f 29//15 30//15 31//15
f 24//16 32//16 21//16
f 20//17 15//17 33//17
f 34//18 20//18 25//18
f 20//19 34//19 15//19
f 35//20 27//20 28//20
f 21//21 3//21 24//21
f 23//22 3//22 4//22
f 5//23 7//23 1//23
f 23//24 36//24 24//24
f 37//25 24//25 36//25
f 37//26 32//26 24//26
f 34//27 25//27 38//27
f 34//28 38//28 15//28
f 39//29 15//29 38//29
f 33//30 15//30 40//30
f 41//31 38//31 25//31
f 5//32 42//32 6//32
f 43//33 6//33 42//33
f 44//34 43//34 42//34
f 45//35 46//35 47//35
f 46//36 45//36 14//36
f 46//37 14//37 15//37
f 48//38 50//38 49//38
f 49//39 13//39 14//39
f 49//40 14//40 48//40
f 48//41 14//41 45//41
f 45//42 51//42 48//42
f 48//43 51//43 52//43
f 53//44 51//44 45//44
f 18//45 54//45 52//45
f 54//46 50//46 52//46
f 51//47 16//47 52//47
f 18//48 55//48 56//48
f 18//49 52//49 16//49
f 57//50 18//50 17//50
f 17//51 58//51 57//51
f 57//52 59//52 55//52
f 11//53 60//53 61//53
f 17//54 19//54 58//54
f 62//55 63//55 11//55
f 11//56 64//56 60//56
f 65//57 64//57 11//57
f 66//58 67//58 68//58
f 66//59 70//59 69//59
f 70//60 71//60 69//60
f 71//61 70//61 72//61
f 73//62 70//62 68//62
f 74//63 71//63 72//63
f 72//64 70//64 75//64
f 75//65 77//65 76//65
f 76//66 74//66 75//66
f 78//67 75//67 70//67
f 75//68 79//68 80//68
f 81//69 75//69 80//69
f 81//70 82//70 75//70
f 82//71 83//71 75//71
f 84//72 75//72 83//72
f 77//73 75//73 84//73
f 85//74 87//74 86//74
f 86//75 84//75 88//75
f 86//76 87//76 84//76
f 89//77 86//77 88//77
f 86//78 89//78 90//78
f 86//79 90//79 91//79
f 85//80 93//80 92//80
f 93//81 94//81 92//81
f 93//82 29//82 94//82
f 93//83 95//83 29//83
f 96//84 94//84 29//84
f 29//85 97//85 96//85
f 98//86 29//86 99//86
f 100//87 29//87 98//87
f 100//88 30//88 29//88
f 97//89 102//89 101//89
f 103//90 97//90 101//90
f 27//91 101//91 26//91
f 26//92 101//92 102//92
f 104//93 103//93 101//93
f 104//94 101//94 105//94
f 27//95 105//95 101//95
f 27//96 106//96 105//96
f 27//97 107//97 106//97
f 27//98 35//98 107//98
f 106//99 107//99 108//99
f 106//100 108//100 109//100
f 110//101 109//101 108//101
f 109//102 111//102 106//102
f 112//103 111//103 109//103
f 113//104 7//104 6//104
f 28//105 26//105 114//105
f 113//106 6//106 43//106
f 47//107 46//107 115//107
f 75//108 116//108 117//108
f 99//109 95//109 118//109
f 119//110 102//110 120//110
f 81//111 121//111 82//111
f 122//112 12//112 123//112
f 53//113 124//113 51//113
f 12//114 11//114 61//114
f 116//115 75//115 78//115
f 54//116 18//116 56//116
f 57//117 55//117 18//117
f 64//118 65//118 67//118
f 33//119 22//119 20//119
f 119//120 26//120 102//120
f 125//121 120//121 102//121
f 91//122 126//122 86//122
f 12//123 55//123 127//123
f 66//124 68//124 70//124
f 48//125 52//125 50//125
f 125//126 102//126 128//126
f 97//127 128//127 102//127
f 97//128 31//128 128//128
f 117//129 79//129 75//129
f 40//130 15//130 13//130
f 72//131 75//131 74//131
f 129//132 86//132 126//132
f 95//133 93//133 85//133
f 64//134 67//134 66//134
f 130//135 111//135 131//135
f 112//136 131//136 111//136
f 62//137 11//137 10//137
f 25//138 21//138 32//138
f 99//139 29//139 95//139
f 78//140 70//140 73//140
f 132//141 65//141 11//141
f 95//142 86//142 129//142
f 95//143 85//143 86//143
f 127//144 123//144 12//144
f 97//145 29//145 31//145
f 133//146 55//146 59//146
f 55//147 12//147 61//147
f 132//148 11//148 63//148
f 46//149 134//149 115//149
f 134//150 46//150 15//150
f 127//151 55//151 133//151
f 135//152 15//152 39//152
f 83//153 88//153 84//153
f 15//154 135//154 134//154
