# Blender v2.79 (sub 0) OBJ File: ''
# www.blender.org
mtllib my_crack_surf__149.mtl
o my_crack_surf__149
v 130.274002 -9.310630 120.019997
v 146.369995 -16.749517 105.549004
v 147.647995 -10.811119 119.158997
v 64.052002 114.527962 241.749008
v 66.071098 128.733948 247.358017
v 78.880302 122.834961 240.891022
v 7.233110 130.521957 263.965027
v 29.966499 133.372955 257.240021
v 23.128901 127.245956 258.014038
v 0.656018 157.198959 266.344025
v 9.813550 149.478958 264.702026
v 3.743970 147.173950 266.253021
v -49.388500 182.465958 273.429016
v -54.249100 147.237961 270.749023
v -34.462200 185.142960 272.965027
v 129.294998 5.463787 143.020996
v 166.800003 6.102917 143.014008
v 161.598007 -3.714461 129.074005
v 129.147003 20.200974 159.065002
v 164.535995 0.852144 135.936005
v 124.742996 60.527168 197.243011
v 118.461998 43.932468 184.705002
v 116.240997 55.292168 196.329010
v 130.365997 41.877571 182.080994
v 171.171997 31.409172 170.533005
v 144.001999 36.027874 175.205994
v 155.307007 -11.312619 116.688004
v -188.578003 -29.667042 263.355011
v -157.117996 -10.362743 262.393005
v -127.958000 -30.289042 260.636993
v -178.559998 -72.172943 262.608002
v -165.539993 -94.742645 262.271973
v 39.310299 -139.487045 257.215973
v 44.758999 -163.821045 258.793976
v 48.827099 -181.099045 260.319977
v 88.980598 -163.422043 258.995972
v 99.259201 -155.717041 258.247955
v 78.983803 -120.964035 256.902985
v 113.612000 -140.141052 256.686981
v 154.358994 -87.485039 248.235977
v 159.011002 -77.666641 246.658981
v 136.794998 -77.719635 246.750992
v 158.223007 90.187073 209.643021
v 158.589005 61.124470 191.850021
v 156.009995 50.903671 184.737015
v 149.802002 102.974960 216.992020
v 111.426003 69.831772 205.867020
v 170.158997 23.680073 163.283997
v 130.276993 -5.199501 126.717003
v 172.585999 45.948471 181.634003
v 170.766006 60.941669 192.024017
v 172.539001 51.528969 185.583008
v 88.613098 112.866959 235.305008
v 75.626701 102.450958 232.739014
v 166.947006 71.559868 198.914017
v 130.266998 -16.731718 105.964996
v 129.057999 -22.365915 94.918503
v 123.601997 133.750961 236.638016
v 134.212006 121.189964 228.616013
v 129.302002 -21.046215 97.640503
v 95.169197 160.217957 252.390030
v 106.719002 150.787949 247.491028
v 110.492996 147.594955 245.473038
v 89.487602 163.833954 254.275024
v 52.386299 133.672958 249.858017
v 50.601200 119.326965 245.176010
v 37.858898 123.700958 251.405014
v 71.611900 173.794952 259.203033
v 5.473450 138.862961 265.012024
v -41.837002 123.699951 267.775024
v 42.472801 182.833954 264.749023
v 61.467499 177.744949 261.628021
v 26.173000 173.865952 265.017029
v 21.697399 184.069962 267.289032
v -58.982498 116.112953 268.445038
v -96.939499 143.987961 271.966034
v -78.210899 173.240952 273.756042
v -11.595000 185.016953 270.729034
v -64.292198 178.780960 273.512024
v 33.689999 183.923950 265.939026
v -85.817703 169.523956 273.891022
v -89.990799 160.587952 273.346039
v -106.679001 156.443954 273.924042
v -99.053703 162.602951 274.143036
v -98.231400 85.833855 268.645996
v -110.148003 79.570656 268.640991
v -113.192001 65.724251 268.144989
v -109.250000 118.031952 270.607025
v -118.232002 51.834259 266.769989
v -179.244995 68.705856 268.505005
v -184.673004 54.862556 267.765991
v -174.556000 78.144554 269.036987
v -127.899002 24.639055 264.165009
v -187.397995 33.723557 266.459991
v -186.367996 8.966267 264.928009
v -130.757004 13.802457 263.222992
v -129.240005 -8.055133 261.352997
v -123.099998 -41.409142 260.770996
v -186.608002 2.115097 264.539001
v -187.326004 -7.518063 263.968994
v -118.258003 -52.461040 262.108002
v -185.104996 -53.121342 262.920013
v -82.462502 -119.451042 260.598969
v -154.914993 -106.921043 262.238983
v -113.346001 -63.434040 262.842010
v -108.404999 -74.428848 262.649994
v -142.751999 -118.570045 262.257965
v -133.746002 -126.479042 262.236969
v -61.999901 -113.749046 260.627960
v -82.023598 -102.782043 261.324982
v -42.049301 -124.596046 260.465973
v -68.402199 -176.607040 261.958984
v -82.976196 -169.054047 261.737976
v -21.092501 -128.025040 260.038971
v 0.000000 -131.500046 258.824982
v -1.009160 -183.855042 261.052979
v -34.047699 -184.562042 261.881958
v 23.994900 -183.757050 260.469971
v 17.381001 -159.310043 258.761963
v 24.629801 -126.712036 257.275970
v 36.847599 -124.358040 257.489960
v 49.048100 -122.009041 256.814972
v 34.105099 -183.085052 260.327972
v 74.466797 -171.186050 259.834961
v 64.175400 -121.743034 257.190979
v 71.296402 -107.297035 256.947968
v 141.328003 -107.948036 251.659988
v 93.639801 -92.318939 253.678986
v 82.480202 -99.795341 255.660980
v 122.713997 -47.158638 243.226990
v 123.857002 -128.835052 255.145981
v 165.556000 -22.424139 235.304001
v 128.776993 -3.889558 233.182007
v 165.511002 -53.941540 242.438980
v 166.434006 -37.327839 239.098007
v 161.785004 -8.993218 232.292999
v 154.024994 7.764283 227.643005
v 131.085999 9.153103 228.647995
v 138.072006 19.636065 223.460007
v 149.459000 13.145363 226.268997
v 158.138000 2.131963 229.324997
v 166.542007 -32.265240 238.016998
v 166.343994 -28.625238 237.261993
v 155.270996 95.366562 212.752014
v 153.667007 97.672462 214.141022
v 127.856003 128.910965 233.463013
v 101.060997 155.519958 249.986023
v -150.899002 113.461952 271.121033
v -157.660995 106.281952 270.653046
v -186.990005 47.157757 267.339996
v -180.414993 -68.298447 262.690002
v -130.307999 -129.473053 262.196960
v -110.083000 -150.838043 262.033966
v 166.487000 -43.647537 240.417007
v 127.264000 21.743364 222.953003
v -188.634995 -19.347445 263.584991
v 166.261993 4.223727 140.412003
v -137.705002 -123.122047 262.218964
v 129.369003 0.423014 231.729996
v -165.488007 94.162155 269.916016
v 167.714005 9.423216 147.391998
v 169.158997 16.169575 155.113007
v -145.042007 118.997955 271.891022
v -116.582001 133.039948 272.019043
v 151.028000 -14.461719 110.408997
v 148.763000 -98.023438 249.756989
v -120.232002 141.820953 273.121033
v -58.708099 -179.695053 262.048981
v -125.466003 136.574951 272.822021
v 2.445510 183.653961 269.022034
v -55.724499 181.077957 273.429016
v -187.759995 -40.265842 263.134003
vn -0.0588 -0.9129 0.4039
vn 0.2676 -0.3865 0.8826
vn 0.3020 -0.2198 0.9276
vn 0.6528 0.7383 0.1695
vn 0.2255 0.0606 0.9724
vn 0.0457 -0.0820 0.9956
vn 0.0141 -0.8200 0.5722
vn 0.0127 -0.7363 0.6765
vn -0.4520 -0.6411 0.6202
vn 0.3229 -0.6453 0.6923
vn 0.0662 -0.6173 0.7839
vn -0.0008 -0.7136 0.7005
vn 0.0990 -0.8698 0.4833
vn 0.0127 -0.8215 0.5701
vn 0.0445 -0.0228 0.9987
vn -0.0079 -0.0194 0.9998
vn -0.8844 -0.1699 0.4347
vn 0.0304 0.0563 0.9979
vn 0.0408 0.0624 0.9972
vn 0.0037 0.1569 0.9876
vn 0.1437 -0.5154 0.8448
vn 0.1373 -0.5889 0.7964
vn 0.1301 -0.6016 0.7882
vn 0.1332 -0.6087 0.7822
vn 0.0776 -0.4579 0.8856
vn 0.1921 -0.5049 0.8415
vn 0.0197 -0.7419 0.6703
vn 0.0299 -0.7273 0.6856
vn -0.0172 -0.6828 0.7304
vn -0.0331 -0.8374 0.5457
vn -0.0476 -0.8513 0.5226
vn 0.0329 -0.6085 0.7928
vn -0.0029 -0.5378 0.8431
vn -0.0203 -0.5676 0.8230
vn -0.0207 -0.5673 0.8233
vn 0.1761 -0.4904 0.8535
vn 0.2107 -0.4734 0.8553
vn -0.0676 -0.5216 0.8505
vn 0.0111 -0.8842 0.4669
vn 0.0107 -0.8912 0.4534
vn 0.2039 -0.3987 0.8941
vn 0.7665 -0.6022 0.2232
vn 0.1191 -0.3390 0.9332
vn 0.1655 -0.3797 0.9102
vn 0.2814 -0.3628 0.8884
vn 0.3209 -0.3297 0.8879
vn 0.0998 -0.3777 0.9206
vn 0.0588 -0.3163 0.9468
vn 0.0868 -0.2480 0.9649
vn 0.3020 -0.2996 0.9050
vn 0.2818 -0.4692 0.8369
vn 0.1527 -0.2043 0.9669
vn 0.3406 -0.2661 0.9018
vn 0.2833 -0.0879 0.9550
vn 0.2899 -0.0587 0.9552
vn 0.2770 -0.0853 0.9571
vn 0.0983 -0.1269 0.9870
vn 0.0915 -0.1050 0.9903
vn 0.1508 -0.1855 0.9710
vn 0.1132 -0.1771 0.9777
vn -0.1618 0.3221 0.9328
vn 0.1520 -0.2035 0.9672
vn 0.0769 -0.0850 0.9934
vn 0.0773 0.0148 0.9969
vn 0.1096 -0.1700 0.9793
vn 0.0765 -0.0852 0.9934
vn 0.0344 -0.0790 0.9963
vn 0.0347 -0.0832 0.9959
vn 0.1188 -0.1033 0.9875
vn 0.0962 -0.1080 0.9895
vn 0.0996 -0.1120 0.9887
vn 0.0252 -0.0793 0.9965
vn 0.1072 -0.1995 0.9740
vn 0.4037 -0.2423 0.8822
vn 0.0597 -0.1093 0.9922
vn 0.0208 -0.0404 0.9990
vn 0.0267 -0.0517 0.9983
vn -0.4034 0.0560 0.9133
vn -0.0608 -0.0495 0.9969
vn -0.0284 -0.0422 0.9987
vn 0.0285 -0.0653 0.9975
vn 0.0342 -0.0790 0.9963
vn 0.0631 -0.1029 0.9927
vn 0.0439 -0.0821 0.9957
vn 0.0397 -0.0299 0.9988
vn 0.0131 0.0177 0.9998
vn -0.8673 0.0352 0.4965
vn 0.0554 -0.0406 0.9976
vn -0.0747 0.0874 0.9934
vn 0.0448 -0.0008 0.9990
vn -0.0111 -0.0202 0.9997
vn 0.0261 0.0201 0.9995
vn -0.0402 0.0488 0.9980
vn 0.0079 -0.0409 0.9991
vn -0.0003 -0.0176 0.9998
vn 0.0452 0.0488 0.9978
vn 0.0278 0.0300 0.9992
vn 0.0108 -0.0438 0.9990
vn 0.0033 -0.0436 0.9990
vn 0.0018 -0.0116 0.9999
vn -0.0032 0.0230 0.9997
vn 0.0231 0.0170 0.9996
vn 0.0242 0.0420 0.9988
vn 0.1979 0.1215 0.9727
vn 0.0520 0.0551 0.9971
vn 0.0463 0.0267 0.9986
vn -0.0136 -0.0203 0.9997
vn 0.0569 -0.0088 0.9983
vn 0.0059 0.0713 0.9974
vn 0.0151 0.0681 0.9976
vn 0.0091 0.0744 0.9972
vn -0.0091 0.0723 0.9973
vn 0.0166 0.0531 0.9984
vn 0.0085 0.0917 0.9958
vn -0.0028 -0.0048 1.0000
vn 0.0675 0.0774 0.9947
vn 0.0623 0.1014 0.9929
vn 0.0848 0.0444 0.9954
vn 0.1536 0.0326 0.9876
vn 0.0958 0.1655 0.9815
vn -0.3610 0.4393 0.8226
vn 0.1473 0.1800 0.9726
vn 0.0919 0.1558 0.9835
vn 0.0540 0.2186 0.9743
vn -0.0168 0.1980 0.9801
vn 0.0595 0.2924 0.9544
vn 0.0231 0.4310 0.9021
vn -0.0767 0.2335 0.9693
vn 0.0596 0.2941 0.9539
vn 0.0788 0.2065 0.9753
vn -0.2235 -0.5921 0.7742
vn -0.6629 -0.6664 0.3412
vn 0.4441 -0.1848 0.8767
vn -0.1992 -0.6327 0.7484
vn 0.0217 -0.0853 0.9961
vn 0.0377 -0.0665 0.9971
vn 0.0353 -0.0042 0.9994
vn 0.0292 0.0201 0.9994
vn 0.0292 0.0200 0.9994
vn 0.0262 0.0227 0.9994
vn 0.0037 0.1741 0.9847
vn -0.1159 0.2020 0.9725
vn 0.0398 0.4218 0.9058
vn -0.0872 -0.0227 0.9959
vn 0.1417 -0.8162 0.5602
vn -0.0202 -0.5493 0.8354
vn -0.1890 -0.2177 0.9575
vn 0.2547 0.2769 0.9265
vn 0.0743 0.3157 0.9460
vn 0.0625 0.2350 0.9700
vn -0.6606 0.1484 0.7359
vn 0.0605 0.0187 0.9980
vn -0.0794 0.2415 0.9671
vn 0.2088 -0.4871 0.8480
vn 0.0077 -0.0656 0.9978
vn -0.0372 -0.7925 0.6088
vn -0.0107 -0.7520 0.6591
vn 0.0688 -0.1047 0.9921
vn 0.0401 -0.0712 0.9967
vn 0.0093 0.0305 0.9995
vn 0.0231 0.0421 0.9988
vn 0.0337 -0.0773 0.9964
vn 0.0719 -0.9103 0.4076
vn 0.0322 0.1649 0.9858
vn -0.0033 0.1446 0.9895
vn 0.0594 -0.1095 0.9922
vn 0.0326 0.1313 0.9908
vn -0.0110 0.0854 0.9963
vn 0.0411 -0.0467 0.9981
vn 0.1290 -0.3859 0.9135
vn 0.2718 -0.3944 0.8778
vn 0.0065 0.0254 0.9997
vn 0.0999 -0.3320 0.9380
vn -0.0195 0.0338 0.9992
vn -0.0253 0.0282 0.9993
vn 0.0630 -0.1089 0.9921
vn 0.0308 -0.1696 0.9850
vn 0.0567 -0.0790 0.9953
vn -0.3811 -0.2695 0.8844
vn 0.0479 -0.0583 0.9971
vn 0.2037 -0.3968 0.8950
vn 0.0481 -0.1047 0.9933
vn 0.0920 -0.1778 0.9798
vn -0.0292 0.7842 0.6198
vn 0.0463 -0.0725 0.9963
vn -0.0424 0.1936 0.9802
vn 0.0104 -0.0990 0.9950
vn 0.0122 -0.0598 0.9981
vn -0.0324 -0.0233 0.9992
vn 0.1053 -0.1472 0.9835
vn 0.0669 -0.0919 0.9935
vn 0.0155 -0.0600 0.9981
vn -0.0072 -0.7358 0.6772
vn 0.0292 -0.0605 0.9977
vn 0.1830 -0.3999 0.8981
vn 0.1726 -0.3479 0.9215
vn 0.0365 -0.9172 0.3968
vn 0.0477 -0.1057 0.9932
vn -0.0199 -0.5776 0.8160
vn 0.0115 -0.0613 0.9981
usemtl None
s off
f 1//1 2//1 3//1
f 4//2 6//2 5//2
f 7//3 9//3 8//3
f 8//4 10//4 11//4
f 12//5 11//5 10//5
f 13//6 14//6 15//6
f 16//7 18//7 17//7
f 16//8 17//8 19//8
f 20//9 17//9 18//9
f 21//10 23//10 22//10
f 22//11 24//11 21//11
f 25//12 26//12 19//12
f 18//13 3//13 27//13
f 16//14 3//14 18//14
f 28//15 30//15 29//15
f 28//16 31//16 32//16
f 33//17 34//17 35//17
f 36//18 37//18 38//18
f 37//19 39//19 38//19
f 40//20 41//20 42//20
f 21//21 44//21 43//21
f 21//22 45//22 44//22
f 21//23 24//23 45//23
f 26//24 45//24 24//24
f 46//25 21//25 43//25
f 21//26 46//26 47//26
f 22//27 26//27 24//27
f 22//28 19//28 26//28
f 25//29 19//29 48//29
f 49//30 3//30 16//30
f 49//31 1//31 3//31
f 25//32 50//32 26//32
f 50//33 45//33 26//33
f 51//34 44//34 45//34
f 51//35 45//35 52//35
f 46//36 53//36 47//36
f 54//37 47//37 53//37
f 55//38 43//38 44//38
f 1//39 56//39 2//39
f 2//40 56//40 57//40
f 58//41 53//41 59//41
f 60//42 57//42 56//42
f 6//43 62//43 61//43
f 6//44 63//44 62//44
f 6//45 64//45 5//45
f 65//46 67//46 66//46
f 66//47 4//47 5//47
f 66//48 5//48 65//48
f 65//49 5//49 64//49
f 65//50 8//50 67//50
f 64//51 8//51 65//51
f 68//52 8//52 64//52
f 9//53 67//53 8//53
f 8//54 11//54 69//54
f 69//55 7//55 8//55
f 69//56 11//56 12//56
f 70//57 69//57 12//57
f 69//58 70//58 7//58
f 10//59 8//59 71//59
f 72//60 71//60 8//60
f 71//61 73//61 10//61
f 68//62 72//62 8//62
f 14//63 70//63 12//63
f 14//64 12//64 10//64
f 71//65 74//65 73//65
f 14//66 75//66 70//66
f 14//67 76//67 75//67
f 76//68 14//68 77//68
f 10//69 73//69 78//69
f 78//70 15//70 14//70
f 78//71 14//71 10//71
f 79//72 14//72 13//72
f 80//73 74//73 71//73
f 81//74 82//74 76//74
f 83//75 76//75 84//75
f 85//76 86//76 87//76
f 88//77 86//77 85//77
f 86//78 89//78 87//78
f 88//79 89//79 86//79
f 90//80 91//80 92//80
f 93//81 91//81 94//81
f 29//82 93//82 95//82
f 96//83 93//83 29//83
f 29//84 97//84 96//84
f 30//85 97//85 29//85
f 98//86 30//86 32//86
f 99//87 100//87 28//87
f 99//88 28//88 29//88
f 98//89 32//89 101//89
f 32//90 30//90 28//90
f 102//91 31//91 28//91
f 103//92 32//92 104//92
f 105//93 101//93 32//93
f 103//94 106//94 32//94
f 105//95 32//95 106//95
f 107//96 108//96 104//96
f 108//97 103//97 104//97
f 109//98 110//98 103//98
f 106//99 103//99 110//99
f 109//100 103//100 111//100
f 103//101 113//101 112//101
f 114//102 111//102 112//102
f 115//103 117//103 116//103
f 118//104 119//104 115//104
f 33//105 120//105 115//105
f 33//106 115//106 119//106
f 33//107 121//107 120//107
f 121//108 33//108 122//108
f 118//109 33//109 119//109
f 118//110 34//110 33//110
f 118//111 123//111 34//111
f 124//112 33//112 35//112
f 125//113 36//113 38//113
f 33//114 124//114 36//114
f 122//115 38//115 126//115
f 127//116 128//116 38//116
f 127//117 38//117 39//117
f 129//118 126//118 38//118
f 129//119 38//119 128//119
f 127//120 130//120 128//120
f 39//121 131//121 127//121
f 130//122 127//122 42//122
f 42//123 132//123 130//123
f 133//124 130//124 132//124
f 134//125 135//125 42//125
f 136//126 137//126 138//126
f 139//127 138//127 140//127
f 137//128 136//128 141//128
f 137//129 140//129 138//129
f 142//130 143//130 135//130
f 144//131 46//131 43//131
f 145//132 46//132 144//132
f 146//133 58//133 59//133
f 147//134 61//134 62//134
f 148//135 149//135 88//135
f 150//136 94//136 91//136
f 151//137 31//137 102//137
f 152//138 103//138 108//138
f 153//139 103//139 152//139
f 153//140 113//140 103//140
f 134//141 42//141 41//141
f 134//142 154//142 135//142
f 155//143 138//143 139//143
f 28//144 100//144 156//144
f 157//145 17//145 20//145
f 51//146 55//146 44//146
f 158//147 108//147 107//147
f 159//148 133//148 138//148
f 136//149 138//149 133//149
f 133//150 132//150 136//150
f 135//151 143//151 132//151
f 115//152 114//152 117//152
f 42//153 135//153 132//153
f 47//154 23//154 21//154
f 160//155 89//155 149//155
f 161//156 19//156 17//156
f 161//157 162//157 19//157
f 77//158 81//158 76//158
f 88//159 75//159 76//159
f 117//160 114//160 112//160
f 118//161 115//161 116//161
f 163//162 88//162 164//162
f 27//163 3//163 165//163
f 166//164 42//164 127//164
f 166//165 40//165 42//165
f 83//166 167//166 76//166
f 112//167 168//167 117//167
f 35//168 34//168 123//168
f 85//169 75//169 88//169
f 54//170 53//170 6//170
f 54//171 6//171 4//171
f 103//172 112//172 111//172
f 64//173 6//173 61//173
f 33//174 36//174 122//174
f 125//175 122//175 36//175
f 76//176 82//176 84//176
f 88//177 163//177 148//177
f 167//178 88//178 76//178
f 167//179 164//179 88//179
f 95//180 99//180 29//180
f 59//181 53//181 46//181
f 167//182 169//182 164//182
f 74//183 170//183 73//183
f 122//184 125//184 38//184
f 79//185 77//185 14//185
f 171//186 79//186 13//186
f 93//187 89//187 91//187
f 89//188 92//188 91//188
f 172//189 102//189 28//189
f 73//190 170//190 78//190
f 81//191 84//191 82//191
f 88//192 149//192 89//192
f 19//193 162//193 48//193
f 94//194 95//194 93//194
f 6//195 58//195 63//195
f 58//196 6//196 53//196
f 165//197 3//197 2//197
f 164//198 169//198 163//198
f 50//199 52//199 45//199
f 160//200 92//200 89//200
