# Blender v2.79 (sub 0) OBJ File: ''
# www.blender.org
mtllib my_crack_surf__5.mtl
o my_crack_surf__5
v 119.515999 66.101067 207.909012
v 113.598999 64.295273 208.857010
v 144.973999 51.426670 190.387009
v 147.636002 5.687076 146.822006
v 135.138000 -7.761211 131.703003
v 130.278000 -9.912421 130.240005
v 152.324997 17.207073 159.104996
v 129.147995 19.760973 160.061996
v 135.240005 58.428871 197.652008
vn 0.2823 -0.4929 0.8230
vn 0.1876 -0.8058 0.5617
vn -0.0446 -0.6792 0.7326
vn -0.0355 -0.7091 0.7042
vn 0.1120 -0.7159 0.6891
vn 0.3877 -0.3470 0.8540
vn -0.0506 -0.7188 0.6934
usemtl None
s off
f 1//1 2//1 3//1
f 4//2 6//2 5//2
f 7//3 3//3 8//3
f 4//4 8//4 6//4
f 8//5 3//5 2//5
f 9//6 1//6 3//6
f 4//7 7//7 8//7
