# Blender v2.79 (sub 0) OBJ File: ''
# www.blender.org
mtllib my_crack_surf__81.mtl
o my_crack_surf__81
v 129.167999 19.990074 159.315002
v 129.330002 5.101917 143.449997
v 143.992004 35.833473 175.417999
v 130.276993 -5.798581 127.227997
v 139.848999 -15.165418 112.968002
v 147.225998 -11.466719 119.403999
v 145.880997 12.662975 152.158005
v 159.481995 5.304187 143.541000
v 162.677002 11.133775 151.054001
v 146.378006 97.363762 213.766022
v 112.522003 66.523270 203.923019
v 122.970001 126.334961 233.482010
v 64.091599 114.503960 241.906021
v 66.225197 128.640961 247.967010
v 75.840103 102.254959 232.861008
v 40.019798 138.024948 257.451019
v -3.738160 179.569962 269.327026
v 3.743970 147.173950 266.253021
v -8.816190 179.948959 270.102020
v -19.710899 179.922958 271.138031
v -143.878998 110.026955 270.135040
v -117.305000 134.975952 271.961029
v -105.177002 100.663956 270.287018
v 116.240997 55.292168 196.329010
v 118.480003 43.868069 184.707993
v 167.195999 35.150574 173.813004
v 157.697998 29.870573 168.791000
v 164.740005 22.145973 162.608994
v 152.255005 -7.220120 126.071999
v 157.626999 -0.135462 136.334000
v 165.632996 51.412170 185.465012
v 156.195999 16.932674 156.408005
v 167.220001 41.292770 178.494995
v 147.972000 93.324165 211.503021
v 154.220993 83.803566 206.074020
v 102.355003 78.094360 213.242020
v 159.615005 72.036972 198.796021
v 130.279007 -17.569616 107.633003
v 101.885002 147.429947 249.118027
v 84.666603 159.820953 255.084030
v 51.038502 119.063965 246.906021
v 54.346600 147.897949 255.278030
v 68.357300 142.669952 253.730026
v 71.117401 168.147949 259.140045
v -5.155190 136.733948 265.530029
v 27.846001 178.953949 265.903046
v 44.852798 176.200958 263.833038
v -41.642601 123.700951 268.062042
v 7.233110 130.521957 263.965027
v -39.749599 178.323959 272.291016
v -55.131199 174.386948 272.693024
v -107.570000 145.694962 272.368042
v -72.417900 168.498947 272.686035
v -27.526800 179.576950 271.709045
v -176.610001 -24.574242 262.770996
v -127.902000 24.616756 263.946014
v -130.759995 13.775957 262.963013
v -172.557007 62.601559 267.562012
v -177.410995 40.424358 266.540009
v -179.223007 -0.313315 263.795990
v -127.952003 -30.313442 260.204987
v -166.886002 -58.797543 261.910004
v -160.641006 -71.304749 261.920990
v -171.634003 -46.188141 262.407990
v -141.274994 -99.595749 262.023956
v -82.008797 -102.790047 261.347961
v -117.121002 -120.491043 261.470978
v -113.320999 -63.498341 263.061005
v -108.367996 -74.487442 262.666992
v -71.969597 -108.295044 260.308960
v -83.221497 -137.289047 259.883972
v -50.923401 -119.768044 260.575958
v 158.714005 2.356187 139.811005
v 160.738007 7.080106 145.992004
v 92.257004 156.218948 252.624023
v -47.757500 -140.094040 260.774963
v -38.506599 -125.582047 261.397980
v -62.711399 -137.437042 259.859955
v -59.125099 115.960953 268.840027
v -37.355499 -135.813049 261.312958
v -177.826996 13.646358 264.703003
v 24.293400 127.254951 259.735016
v -81.950104 163.688950 272.750031
v -96.225899 155.252960 273.232025
v -31.295601 -126.502045 260.566956
v -151.955002 -84.430847 262.779999
v -111.320000 68.243958 268.252014
v 32.200802 125.536964 256.006042
v -132.798004 -108.361046 261.596954
v -120.991997 -118.806046 261.648956
v -98.328102 85.730858 268.914001
v -152.778000 100.357956 269.460022
v -167.061996 74.262054 268.011993
v 136.701004 111.335960 222.594009
v -105.505997 -128.074051 261.098969
v -95.327797 -132.766052 260.554962
vn 0.0356 -0.7286 0.6841
vn -0.0383 -0.8468 0.5305
vn 0.0046 -0.8050 0.5932
vn -0.0305 -0.7834 0.6208
vn 0.1654 -0.4600 0.8724
vn 0.2447 -0.4130 0.8772
vn 0.2260 -0.0401 0.9733
vn 0.0774 -0.5966 0.7988
vn -0.0172 -0.0548 0.9984
vn 0.0328 -0.7096 0.7039
vn 0.0273 -0.7143 0.6993
vn -0.0423 -0.6475 0.7609
vn -0.0750 -0.8018 0.5928
vn -0.0428 -0.7921 0.6089
vn 0.0827 -0.8249 0.5591
vn 0.1151 -0.6464 0.7543
vn 0.1892 -0.5026 0.8436
vn 0.0235 -0.7234 0.6901
vn -0.0367 -0.7120 0.7013
vn 0.1313 -0.8405 0.5257
vn -0.0148 -0.6872 0.7263
vn 0.0371 -0.6059 0.7947
vn -0.2070 -0.5091 0.8355
vn 0.1024 -0.4412 0.8916
vn 0.2101 -0.4989 0.8408
vn 0.2510 -0.4638 0.8497
vn 0.1162 -0.4502 0.8854
vn 0.2218 -0.4563 0.8617
vn 0.1471 -0.5063 0.8497
vn -0.0715 -0.8550 0.5136
vn 0.0574 -0.3672 0.9284
vn 0.1972 -0.4113 0.8899
vn -0.0375 -0.3748 0.9263
vn 0.2735 -0.1893 0.9431
vn 0.1525 -0.2211 0.9633
vn 0.0294 -0.2107 0.9771
vn 0.1778 -0.2180 0.9596
vn 0.0998 -0.2448 0.9644
vn 0.1975 -0.0714 0.9777
vn 0.0740 -0.2657 0.9612
vn 0.1319 -0.1800 0.9748
vn 0.0925 -0.0659 0.9935
vn 0.0790 -0.0761 0.9940
vn 0.0845 -0.0798 0.9932
vn 0.0885 -0.4787 0.8735
vn 0.0462 -0.0787 0.9958
vn 0.0399 -0.0754 0.9964
vn 0.0844 -0.3989 0.9131
vn 0.0281 -0.0835 0.9961
vn 0.0910 -0.1137 0.9893
vn 0.0351 -0.0537 0.9979
vn 0.0167 -0.0404 0.9990
vn 0.0456 -0.0595 0.9972
vn -0.3087 -0.1533 0.9387
vn 0.0439 0.0178 0.9989
vn 0.0106 -0.0142 0.9998
vn -0.0939 0.0442 0.9946
vn 0.0094 -0.0379 0.9992
vn 0.0058 -0.0332 0.9994
vn 0.0784 -0.0450 0.9959
vn -0.0171 -0.0080 0.9998
vn -0.4510 -0.6527 0.6087
vn -0.3803 -0.6454 0.6625
vn -0.0671 -0.7163 0.6946
vn 0.2692 -0.0876 0.9591
vn -0.0617 -0.0035 0.9981
vn 0.0234 -0.5646 0.8250
vn 0.0563 -0.0268 0.9981
vn -0.0461 -0.0135 0.9988
vn 0.0303 -0.0689 0.9972
vn 0.3514 -0.4009 0.8460
vn 0.3129 -0.3834 0.8689
vn -0.1008 -0.8030 0.5874
vn 0.2880 0.3498 0.8915
vn 0.0614 -0.1085 0.9922
vn 0.2584 -0.3867 0.8852
vn 0.1151 0.0047 0.9933
vn 0.1772 -0.0503 0.9829
vn -0.3489 -0.1706 0.9215
vn -0.0022 -0.0974 0.9952
vn -0.0648 0.0028 0.9979
vn 0.3466 -0.3191 0.8821
vn 0.0938 0.1109 0.9894
vn 0.2445 -0.2611 0.9338
vn 0.0521 -0.0048 0.9986
vn 0.0426 -0.0337 0.9985
vn -0.0083 -0.0316 0.9995
vn -0.0030 -0.0486 0.9988
vn -0.0166 -0.0991 0.9949
vn -0.0170 -0.0541 0.9984
vn 0.0317 -0.0667 0.9973
vn -0.2163 0.0643 0.9742
vn 0.0922 -0.2597 0.9613
vn 0.2958 0.1614 0.9415
vn -0.1155 -0.1595 0.9804
vn 0.3712 -0.2985 0.8793
vn 0.0536 -0.0670 0.9963
vn 0.2116 -0.4366 0.8744
vn 0.2430 -0.4788 0.8436
vn 0.0009 -0.0411 0.9992
vn 0.1343 -0.4760 0.8691
vn 0.0638 0.0226 0.9977
vn 0.0364 -0.0436 0.9984
vn 0.0159 -0.0246 0.9996
vn 0.0300 -0.0678 0.9972
usemtl None
s off
f 1//1 2//1 3//1
f 4//2 5//2 6//2
f 4//3 6//3 7//3
f 8//4 9//4 7//4
f 10//5 12//5 11//5
f 13//6 15//6 14//6
f 16//7 17//7 18//7
f 19//8 20//8 17//8
f 21//9 23//9 22//9
f 3//10 24//10 25//10
f 26//11 3//11 27//11
f 26//12 27//12 28//12
f 29//13 30//13 7//13
f 8//14 7//14 30//14
f 7//15 2//15 4//15
f 3//16 31//16 24//16
f 28//17 27//17 3//17
f 25//18 1//18 3//18
f 28//19 3//19 2//19
f 32//20 28//20 7//20
f 32//21 7//21 9//21
f 26//22 33//22 3//22
f 28//23 2//23 7//23
f 34//24 24//24 35//24
f 24//25 10//25 11//25
f 36//26 11//26 12//26
f 10//27 24//27 34//27
f 36//28 12//28 15//28
f 37//29 24//29 31//29
f 38//30 5//30 4//30
f 39//31 40//31 15//31
f 41//32 13//32 14//32
f 14//33 43//33 42//33
f 14//34 42//34 16//34
f 44//35 43//35 40//35
f 44//36 42//36 43//36
f 45//37 16//37 18//37
f 17//38 42//38 46//38
f 16//39 42//39 17//39
f 46//40 42//40 47//40
f 45//41 18//41 48//41
f 45//42 48//42 49//42
f 17//43 48//43 18//43
f 50//44 48//44 17//44
f 50//45 17//45 20//45
f 50//46 51//46 48//46
f 52//47 48//47 53//47
f 54//48 50//48 20//48
f 51//49 53//49 48//49
f 55//50 57//50 56//50
f 56//51 58//51 59//51
f 56//52 60//52 55//52
f 61//53 57//53 55//53
f 62//54 63//54 64//54
f 64//55 65//55 61//55
f 66//56 65//56 67//56
f 68//57 61//57 65//57
f 66//58 69//58 65//58
f 68//59 65//59 69//59
f 70//60 66//60 71//60
f 72//61 70//61 71//61
f 73//62 8//62 30//62
f 74//63 9//63 8//63
f 9//64 28//64 32//64
f 39//65 75//65 40//65
f 76//66 77//66 78//66
f 31//67 3//67 33//67
f 79//68 48//68 52//68
f 77//69 76//69 80//69
f 56//70 59//70 81//70
f 40//71 43//71 14//71
f 40//72 14//72 15//72
f 29//73 7//73 6//73
f 82//74 45//74 49//74
f 83//75 52//75 53//75
f 83//76 84//76 52//76
f 80//77 85//77 77//77
f 16//78 45//78 82//78
f 63//79 86//79 64//79
f 56//80 87//80 58//80
f 78//81 77//81 72//81
f 88//82 16//82 82//82
f 89//83 90//83 67//83
f 14//84 16//84 88//84
f 55//85 64//85 61//85
f 22//86 23//86 79//86
f 91//87 58//87 87//87
f 92//88 58//88 91//88
f 92//89 91//89 23//89
f 92//90 23//90 21//90
f 52//91 22//91 79//91
f 92//92 93//92 58//92
f 47//93 42//93 44//93
f 86//94 65//94 64//94
f 89//95 67//95 65//95
f 94//96 12//96 10//96
f 23//97 91//97 79//97
f 15//98 12//98 39//98
f 14//99 88//99 41//99
f 78//100 72//100 71//100
f 37//101 35//101 24//101
f 95//102 96//102 71//102
f 66//103 95//103 71//103
f 95//104 66//104 67//104
f 81//105 60//105 56//105
