# Blender v2.79 (sub 0) OBJ File: ''
# www.blender.org
mtllib my_crack_surf__52.mtl
o my_crack_surf__52
v 129.787003 -1.286102 136.037994
v 151.666000 -3.440112 133.264008
v 130.281006 -6.534161 127.825996
v 130.235001 -17.421318 108.324997
v 139.050995 -15.402818 113.185997
v 146.537994 -11.821119 119.667999
v 140.216003 78.545769 204.989014
v 121.292999 81.914360 211.074020
v 90.215797 89.150963 223.709015
v 107.404999 137.969955 242.410019
v 118.577003 43.513168 184.725998
v 122.591003 47.245968 188.417023
v 116.240997 55.292168 196.329010
v 26.389500 174.640961 265.276031
v -5.168350 175.172958 268.970032
v 7.233110 130.521957 263.965027
v 161.054993 9.252766 149.397995
v 129.354996 4.844717 143.755005
v 160.313004 61.222771 192.338013
v 162.354004 53.961769 187.275009
v 144.035004 35.619568 175.723007
v 111.429001 69.826469 206.527008
v 129.199997 19.658974 159.707993
v 162.688004 15.926475 157.367996
v 164.074005 20.909874 161.906006
v 165.018005 30.167572 169.904999
v 132.910004 113.464958 223.812012
v 143.996002 97.328865 213.885010
v 158.585007 71.248672 198.420013
v 64.515099 114.249962 243.568008
v 53.340599 133.135956 253.623016
v 77.219803 100.991959 233.669022
v 51.733799 118.646965 249.656021
v 30.974001 125.906960 257.484039
v 86.960297 153.360947 253.443024
v 70.111702 162.211960 257.254028
v 58.432701 167.689957 260.755035
v -46.011101 170.142960 271.629028
v -21.705400 173.935959 270.597015
v -52.225800 168.602951 272.250031
v -41.394199 123.702957 268.429016
v -81.121498 154.063950 272.044037
v -105.292999 100.652954 270.457031
v -103.320999 137.424957 271.342041
v -98.640900 85.397652 269.782013
v -113.400002 65.209053 268.403992
v -124.804001 113.681953 270.428040
v -131.852005 98.799553 268.593018
v -142.205994 77.097054 266.683990
v -147.067001 62.924259 266.618011
v -124.348000 35.419357 263.795990
v -132.904007 38.408257 263.856995
v -127.447998 26.523458 263.246002
v -138.264999 20.944557 263.165009
v -143.042999 31.536156 263.959991
v 152.876999 82.037071 205.249008
v -63.908901 164.280960 272.325043
v -71.104301 160.704956 271.589020
v -121.556999 118.894951 270.758026
v -127.033997 110.743958 270.226044
v -140.003998 85.673653 267.298004
v 153.294998 -4.988011 130.988998
v -59.268600 115.807953 269.233032
v -131.005005 12.564757 263.166992
v -128.970993 20.003057 262.385010
v 163.802002 48.710571 183.972015
v 164.520996 41.637371 178.947006
v -144.938995 42.468559 264.864990
vn -0.0148 -0.8429 0.5378
vn 0.0024 -0.8731 0.4875
vn -0.1612 -0.7731 0.6134
vn -0.0962 -0.8307 0.5483
vn 0.0247 -0.8400 0.5420
vn 0.2389 -0.4196 0.8757
vn -0.0021 -0.7020 0.7122
vn 0.1146 -0.0792 0.9903
vn -0.0009 -0.7857 0.6186
vn 0.0018 -0.7829 0.6221
vn 0.0997 -0.5088 0.8551
vn 0.1160 -0.5460 0.8297
vn 0.1264 -0.6159 0.7776
vn 0.1906 -0.4781 0.8574
vn 0.0274 -0.7176 0.6959
vn 0.0222 -0.7183 0.6954
vn -0.0228 -0.6697 0.7423
vn -0.0398 -0.7621 0.6463
vn 0.0388 -0.6556 0.7541
vn -0.0192 -0.7327 0.6802
vn -0.0200 -0.6988 0.7150
vn 0.2245 -0.4982 0.8375
vn 0.1408 -0.4468 0.8835
vn 0.2316 -0.4236 0.8757
vn 0.1074 -0.5021 0.8581
vn 0.5078 -0.1511 0.8481
vn 0.5597 -0.0795 0.8249
vn 0.3313 -0.2832 0.9000
vn 0.2508 -0.2814 0.9262
vn 0.1201 -0.1909 0.9742
vn 0.2108 -0.1350 0.9682
vn 0.0908 -0.2141 0.9726
vn 0.2372 -0.1316 0.9625
vn 0.0596 -0.1118 0.9919
vn 0.1133 -0.0571 0.9919
vn -0.0141 -0.0233 0.9996
vn -0.0205 -0.0531 0.9984
vn -0.0348 -0.0499 0.9982
vn -0.1140 -0.0682 0.9911
vn -0.0539 0.0138 0.9984
vn -0.0411 -0.1380 0.9896
vn -0.0129 -0.0572 0.9983
vn 0.0154 -0.0443 0.9989
vn 0.0466 -0.0538 0.9975
vn 0.1038 -0.4427 0.8906
vn 0.1037 -0.0823 0.9912
vn 0.2383 -0.6314 0.7379
vn -0.0080 -0.0236 0.9997
vn -0.0309 -0.0440 0.9986
vn 0.1837 -0.2055 0.9613
vn -0.0803 -0.0506 0.9955
vn -0.0791 -0.0491 0.9957
vn -0.0492 -0.8418 0.5375
vn 0.2438 -0.3973 0.8847
vn -0.0269 0.1614 0.9865
vn 0.0914 0.0794 0.9927
vn 0.0680 -0.1462 0.9869
vn 0.2090 -0.5469 0.8107
vn 0.0360 -0.0285 0.9989
vn 0.1818 -0.2244 0.9574
vn -0.3493 -0.5660 0.7468
vn 0.0325 -0.5557 0.8308
vn 0.4822 -0.3906 0.7842
vn 0.1780 -0.4060 0.8963
vn 0.0994 -0.0586 0.9933
vn 0.0572 -0.0709 0.9958
vn -0.0356 0.0014 0.9994
vn 0.0924 -0.0713 0.9932
vn -0.0432 -0.1364 0.9897
vn 0.1164 -0.4865 0.8659
vn 0.0566 -0.0794 0.9952
vn 0.0575 -0.6165 0.7852
vn 0.0657 -0.8025 0.5931
vn 0.0590 -0.0722 0.9956
usemtl None
s off
f 1//1 3//1 2//1
f 3//2 4//2 2//2
f 4//3 5//3 6//3
f 4//4 6//4 2//4
f 7//5 9//5 8//5
f 7//6 10//6 9//6
f 11//7 12//7 13//7
f 14//8 15//8 16//8
f 2//9 17//9 18//9
f 1//10 2//10 18//10
f 12//11 19//11 7//11
f 12//12 20//12 19//12
f 21//13 20//13 12//13
f 7//14 8//14 22//14
f 11//15 23//15 12//15
f 21//16 12//16 23//16
f 24//17 25//17 23//17
f 24//18 23//18 17//18
f 21//19 25//19 26//19
f 18//20 17//20 23//20
f 21//21 23//21 25//21
f 22//22 8//22 9//22
f 27//23 7//23 28//23
f 27//24 10//24 7//24
f 29//25 7//25 19//25
f 30//26 9//26 31//26
f 32//27 9//27 30//27
f 30//28 31//28 33//28
f 31//29 34//29 33//29
f 35//30 36//30 31//30
f 34//31 31//31 14//31
f 37//32 14//32 31//32
f 34//33 14//33 16//33
f 16//34 39//34 38//34
f 40//35 41//35 38//35
f 42//36 44//36 43//36
f 45//37 43//37 46//37
f 46//38 43//38 47//38
f 46//39 47//39 48//39
f 49//40 50//40 46//40
f 46//41 52//41 51//41
f 53//42 51//42 52//42
f 53//43 52//43 54//43
f 54//44 52//44 55//44
f 28//45 7//45 56//45
f 39//46 16//46 15//46
f 57//47 58//47 40//47
f 59//48 43//48 44//48
f 59//49 47//49 43//49
f 48//50 47//50 60//50
f 61//51 49//51 46//51
f 61//52 46//52 48//52
f 62//53 2//53 6//53
f 35//54 31//54 9//54
f 43//55 63//55 41//55
f 64//56 65//56 54//56
f 65//57 53//57 54//57
f 22//58 12//58 7//58
f 43//59 45//59 63//59
f 36//60 37//60 31//60
f 66//61 20//61 67//61
f 67//62 20//62 21//62
f 22//63 13//63 12//63
f 10//64 35//64 9//64
f 38//65 41//65 16//65
f 41//66 40//66 43//66
f 43//67 40//67 58//67
f 43//68 58//68 42//68
f 46//69 50//69 52//69
f 29//70 56//70 7//70
f 68//71 52//71 50//71
f 67//72 21//72 26//72
f 62//73 17//73 2//73
f 68//74 55//74 52//74
