# Blender v2.79 (sub 0) OBJ File: ''
# www.blender.org
mtllib my_crack_surf__30.mtl
o my_crack_surf__30
v 64.803398 114.078964 244.646011
v 111.445999 69.803871 207.512009
v 132.996002 105.338959 219.624008
v -14.191200 158.347961 268.412018
v 14.443000 163.039948 265.691040
v 25.794399 127.266953 261.953033
v 118.647003 43.257370 184.738998
v 122.600998 47.239170 188.423019
v 116.314003 55.073868 196.521011
v 130.278000 -7.579661 128.671997
v 129.210999 19.543474 159.843994
v 129.787003 -2.029682 136.651001
v 161.746002 19.913374 162.686005
v 142.781006 90.131470 210.725021
v 156.259995 61.296970 193.762009
v 161.401001 40.848270 179.466995
v 145.988998 -12.223919 119.838997
v 152.865997 -4.834742 132.813995
v 118.070999 122.267960 230.516022
v 130.264999 -17.116117 108.888000
v 64.190903 144.387955 252.895035
v 81.096497 137.044952 246.600021
v 104.778000 133.382950 240.206009
v 88.143898 145.203949 247.708023
v 39.485600 163.014954 260.380035
v 5.689740 138.640961 266.399017
v 7.871350 130.413956 263.930023
v -27.940901 151.063950 269.242035
v -39.345402 123.631958 268.291016
v -40.120098 130.980957 268.164032
v -22.414200 155.486954 268.682037
v 138.720993 97.093559 214.980011
v 111.998001 127.910965 235.619019
v 68.043503 155.996948 254.654037
v 71.598000 144.877960 252.826035
v 81.712700 143.163956 248.357025
vn 0.2569 -0.4477 0.8565
vn 0.1057 -0.0701 0.9919
vn 0.0430 -0.7012 0.7117
vn 0.9743 -0.1525 0.1660
vn -0.0486 -0.7543 0.6547
vn 0.1890 -0.4308 0.8824
vn 0.0444 -0.7123 0.7005
vn 0.0165 -0.8726 0.4882
vn -0.0609 -0.6249 0.7783
vn 0.2888 -0.3248 0.9006
vn -0.0221 -0.9006 0.4341
vn 0.2405 -0.2504 0.9378
vn 0.2191 -0.2360 0.9467
vn 0.2045 -0.3030 0.9308
vn 0.0954 -0.2596 0.9610
vn 0.3742 -0.1027 0.9217
vn 0.3439 0.2546 0.9038
vn 0.0580 -0.2728 0.9603
vn -0.2422 -0.3372 0.9097
vn 0.2073 -0.0364 0.9776
vn 0.1016 -0.0788 0.9917
vn 0.1027 -0.0771 0.9917
vn -0.0992 0.0067 0.9950
vn -0.0196 0.1497 0.9885
vn -0.3104 -0.6209 0.7198
vn -0.1715 -0.7559 0.6318
vn 0.1749 -0.4110 0.8947
vn 0.0998 -0.5531 0.8271
vn 0.4716 -0.4219 0.7743
vn 0.2921 -0.4057 0.8661
vn 0.1271 -0.6033 0.7874
vn 0.2961 -0.0621 0.9532
vn 0.2558 -0.5547 0.7918
vn 0.0608 -0.7097 0.7018
vn -0.0246 -0.7662 0.6421
vn 0.0195 -0.1561 0.9875
vn 0.1464 -0.1955 0.9697
vn 0.0463 -0.5865 0.8086
vn 0.3450 -0.2910 0.8924
vn 0.1863 -0.2884 0.9392
usemtl None
s off
f 1//1 2//1 3//1
f 4//2 6//2 5//2
f 7//3 8//3 9//3
f 10//4 11//4 12//4
f 10//5 13//5 11//5
f 14//6 2//6 15//6
f 11//7 16//7 8//7
f 17//8 18//8 10//8
f 11//9 13//9 16//9
f 19//10 1//10 3//10
f 20//11 17//11 10//11
f 1//12 22//12 21//12
f 23//13 22//13 1//13
f 24//14 22//14 23//14
f 21//15 25//15 1//15
f 1//16 25//16 6//16
f 26//17 6//17 4//17
f 6//18 26//18 27//18
f 4//19 27//19 26//19
f 25//20 5//20 6//20
f 27//21 4//21 28//21
f 29//22 27//22 28//22
f 29//23 28//23 30//23
f 31//24 28//24 4//24
f 32//25 3//25 14//25
f 33//26 23//26 19//26
f 14//27 3//27 2//27
f 15//28 8//28 16//28
f 2//29 9//29 8//29
f 19//30 23//30 1//30
f 15//31 2//31 8//31
f 24//32 34//32 35//32
f 24//33 35//33 36//33
f 7//34 11//34 8//34
f 18//35 13//35 10//35
f 34//36 21//36 35//36
f 25//37 21//37 34//37
f 22//38 35//38 21//38
f 36//39 35//39 22//39
f 36//40 22//40 24//40
