# Blender v2.79 (sub 0) OBJ File: ''
# www.blender.org
mtllib my_crack_surf__58.mtl
o my_crack_surf__58
v 130.278000 -6.307131 127.630997
v 139.074997 -15.308818 113.165001
v 146.434998 -11.690719 119.602997
v -2.534420 145.091949 266.694031
v 25.155001 175.409958 265.497040
v 7.233110 130.521957 263.965027
v 0.313663 176.076950 268.509033
v -22.951900 175.244949 270.715027
v -98.474297 85.575058 269.320007
v -134.578003 106.852951 269.400024
v -104.621002 139.083954 271.692017
v 129.343994 4.957777 143.621002
v 153.042999 -4.981001 130.438995
v 160.929993 9.402055 149.356003
v 116.240997 55.292168 196.329010
v 118.573997 43.524769 184.725006
v 162.291000 53.922668 187.289017
v 144.035004 35.677170 175.639999
v 148.216995 25.980274 166.307999
v 165.121994 31.192072 170.533997
v 129.194000 19.719774 159.636002
v 156.182007 16.774376 156.518005
v 163.856003 20.637573 161.796997
v 144.065994 97.342361 213.865021
v 157.431000 75.361168 200.897018
v 111.428001 69.827271 206.432022
v 133.007004 113.447960 223.851013
v 76.945999 101.242958 233.509018
v 130.264008 -17.335117 108.238998
v 108.733002 137.103958 241.724014
v 64.385002 114.218964 243.109009
v 53.236401 133.162949 253.221008
v 83.227699 151.426956 252.920029
v 90.696602 151.735947 251.342026
v 45.693501 120.800964 251.222015
v 44.235100 127.077965 253.883011
v 40.071301 137.799957 257.772034
v 54.102001 143.533951 254.965027
v 68.137703 143.054947 252.992035
v 76.578003 159.702957 256.269043
v 31.291800 125.810959 257.101044
v 62.177101 167.122955 259.990021
v 42.384102 172.584961 263.131042
v -5.124390 136.741959 265.480042
v -8.847710 128.249954 265.642029
v 24.319500 127.254951 259.773041
v -41.467300 123.702957 268.321045
v -49.259998 160.906952 271.620026
v -30.227200 174.598953 271.164032
v -59.245399 115.832954 269.174042
v -81.933197 156.972961 272.776031
v -56.591801 166.405960 270.993042
v -76.367302 160.720947 272.957031
v -139.895004 97.036354 268.493042
v -155.442993 64.103157 267.231995
v -113.196999 65.716652 268.149994
v -145.820999 90.992355 268.777008
v -123.389999 37.741859 264.942993
v -158.412003 57.794956 266.437012
v -160.082993 40.620857 265.281006
v -130.792999 13.637357 262.973999
v -161.130005 28.747356 264.489990
v -161.516998 22.468355 264.114990
v 164.531998 41.384270 178.578003
v 83.479103 156.147949 254.439026
v 68.211998 164.391953 258.322021
v -10.101900 175.928955 269.468018
v -59.419998 169.065948 271.825043
v -65.876297 165.967957 272.582031
v -89.562897 150.016953 271.889038
v -122.644997 121.573952 270.798035
v -17.453100 175.578949 270.230042
v -154.992004 -1.411903 261.696991
v 163.688995 48.656170 183.886017
v -138.072006 -19.297142 260.006989
v -127.982002 -23.934942 259.040985
v -160.688004 11.977657 263.036987
v -150.014008 83.083458 268.989014
vn 0.0295 0.8566 -0.5151
vn -0.1412 0.0900 -0.9859
vn -0.1007 0.3869 -0.9166
vn 0.0256 0.0472 -0.9986
vn 0.0233 0.8179 -0.5749
vn -0.0023 0.7965 -0.6046
vn -0.1207 0.6848 -0.7187
vn -0.0969 0.6027 -0.7921
vn -0.0300 0.6864 -0.7266
vn 0.0213 0.6980 -0.7158
vn -0.0257 0.7197 -0.6938
vn 0.0694 0.7543 -0.6529
vn -0.3220 0.5448 -0.7743
vn 0.0166 0.8455 -0.5337
vn -0.0042 0.6380 -0.7701
vn 0.0235 0.7235 -0.6899
vn -0.0043 0.7353 -0.6778
vn -0.1206 0.4490 -0.8854
vn -0.2333 0.5017 -0.8330
vn -0.2474 0.4624 -0.8515
vn -0.1653 0.4352 -0.8850
vn -0.1518 0.5049 -0.8497
vn 0.0763 0.8667 -0.4929
vn -0.2415 0.4150 -0.8772
vn -0.2241 0.3530 -0.9084
vn -0.2847 0.3766 -0.8815
vn -0.1881 0.3747 -0.9079
vn -0.2076 0.3456 -0.9151
vn -0.2811 0.3179 -0.9055
vn -0.2817 0.3183 -0.9052
vn -0.2371 0.2486 -0.9391
vn -0.1312 0.1750 -0.9758
vn -0.2636 0.1813 -0.9474
vn -0.1511 0.2641 -0.9526
vn 0.3294 0.4324 -0.8394
vn -0.2857 0.2608 -0.9221
vn -0.3024 0.2965 -0.9059
vn -0.1215 0.2464 -0.9615
vn -0.1262 0.2528 -0.9592
vn -0.1119 0.1586 -0.9810
vn -0.1088 0.1584 -0.9814
vn -0.0422 0.1565 -0.9868
vn -0.1076 0.0282 -0.9938
vn -0.7479 0.3168 -0.5833
vn -0.2032 0.1190 -0.9719
vn -0.2151 0.1190 -0.9693
vn -0.1078 0.0593 -0.9924
vn -0.0833 0.0761 -0.9936
vn -0.0758 0.0723 -0.9945
vn -0.0677 0.0705 -0.9952
vn -0.0695 0.0489 -0.9964
vn 0.1761 0.1235 -0.9766
vn -0.1058 0.0247 -0.9941
vn 0.0270 0.0255 -0.9993
vn 0.0200 0.0440 -0.9988
vn 0.0395 0.0707 -0.9967
vn -0.1643 0.1151 -0.9797
vn 0.0231 0.1143 -0.9932
vn -0.0039 0.0675 -0.9977
vn -0.0027 0.0822 -0.9966
vn 0.2514 0.0423 -0.9670
vn 0.1021 0.7262 -0.6799
vn -0.0591 0.6163 -0.7853
vn -0.0916 0.3094 -0.9465
vn -0.3638 -0.2571 -0.8953
vn -0.0892 -0.1259 -0.9880
vn -0.4428 0.8700 -0.2168
vn -0.0348 0.0403 -0.9986
vn 0.0241 0.1004 -0.9947
vn -0.0271 0.0553 -0.9981
vn -0.2959 0.2680 -0.9169
vn -0.0950 0.0975 -0.9907
vn -0.0222 -0.0025 -0.9998
vn -0.1908 0.2450 -0.9506
vn -0.2088 0.3096 -0.9277
vn -0.0315 0.0949 -0.9950
vn -0.1417 0.1551 -0.9777
vn 0.0175 0.1076 -0.9940
vn 0.0489 -0.0966 -0.9941
vn -0.1028 0.7582 -0.6439
vn -0.0002 0.0849 -0.9964
vn 0.4017 0.5698 -0.7169
vn -0.0393 0.5654 -0.8239
vn -0.0490 0.1004 -0.9937
vn -0.0038 0.0905 -0.9959
vn -0.0485 0.0790 -0.9957
vn -0.2361 0.0809 -0.9684
vn 0.5782 0.7292 -0.3659
vn -0.4300 0.2044 -0.8794
usemtl None
s off
f 1//1 3//1 2//1
f 4//2 5//2 6//2
f 7//3 5//3 8//3
f 9//4 10//4 11//4
f 12//5 13//5 1//5
f 14//6 13//6 12//6
f 15//7 17//7 16//7
f 18//8 16//8 17//8
f 19//9 18//9 20//9
f 18//10 19//10 21//10
f 18//11 21//11 16//11
f 22//12 19//12 23//12
f 22//13 14//13 19//13
f 13//14 3//14 1//14
f 19//15 20//15 23//15
f 12//16 19//16 14//16
f 12//17 21//17 19//17
f 24//18 25//18 15//18
f 24//19 15//19 26//19
f 27//20 26//20 28//20
f 24//21 26//21 27//21
f 25//22 17//22 15//22
f 29//23 1//23 2//23
f 28//24 30//24 27//24
f 31//25 32//25 33//25
f 28//26 31//26 33//26
f 30//27 28//27 33//27
f 33//28 34//28 30//28
f 35//29 32//29 31//29
f 32//30 35//30 36//30
f 32//31 36//31 37//31
f 32//32 38//32 39//32
f 38//33 32//33 37//33
f 33//34 39//34 40//34
f 35//35 37//35 36//35
f 41//36 37//36 35//36
f 37//37 42//37 38//37
f 40//38 38//38 42//38
f 38//39 40//39 39//39
f 37//40 43//40 42//40
f 43//41 37//41 5//41
f 44//42 4//42 6//42
f 6//43 45//43 44//43
f 44//44 45//44 4//44
f 46//45 5//45 37//45
f 46//46 6//46 5//46
f 8//47 5//47 4//47
f 47//48 8//48 4//48
f 48//49 49//49 47//49
f 47//50 49//50 8//50
f 47//51 50//51 51//51
f 52//52 48//52 47//52
f 52//53 47//53 53//53
f 54//54 9//54 55//54
f 56//55 55//55 9//55
f 54//56 10//56 9//56
f 55//57 57//57 54//57
f 55//58 58//58 59//58
f 60//59 59//59 58//59
f 60//60 58//60 61//60
f 62//61 60//61 63//61
f 14//62 22//62 23//62
f 18//63 64//63 20//63
f 33//64 40//64 65//64
f 66//65 40//65 42//65
f 67//66 7//66 8//66
f 68//67 53//67 69//67
f 11//68 50//68 9//68
f 70//69 51//69 50//69
f 11//70 70//70 50//70
f 41//71 46//71 37//71
f 47//72 4//72 45//72
f 49//73 48//73 68//73
f 71//74 11//74 10//74
f 33//75 65//75 34//75
f 47//76 51//76 53//76
f 68//77 52//77 53//77
f 55//78 56//78 58//78
f 33//79 32//79 39//79
f 72//80 67//80 8//80
f 60//81 61//81 73//81
f 74//82 64//82 17//82
f 64//83 18//83 17//83
f 61//84 76//84 75//84
f 61//85 75//85 73//85
f 77//86 60//86 73//86
f 77//87 63//87 60//87
f 68//88 48//88 52//88
f 55//89 78//89 57//89
