# Blender v2.79 (sub 0) OBJ File: ''
# www.blender.org
mtllib my_crack_surf__76.mtl
o my_crack_surf__76
v 129.171005 19.953773 159.358002
v 145.891998 12.610075 152.147003
v 163.753998 48.738270 183.601013
v 130.278000 -5.857551 127.253998
v 139.035995 -14.973118 113.098999
v 146.362000 -11.308119 119.529999
v 153.707993 -4.086132 130.951996
v 64.112099 114.491959 241.987015
v 51.068600 119.045959 247.025009
v 95.153297 106.426964 230.522018
v 26.138100 173.898956 265.188019
v 3.743970 147.173950 266.253021
v 24.287100 127.254951 259.725037
v -17.531900 178.059952 270.579041
v -175.337997 -15.509743 263.007996
v -177.567001 -3.855993 263.549011
v -138.987000 -39.497341 260.399994
v -174.800003 -24.117842 262.731995
v 161.084000 9.696286 149.182999
v 137.466003 8.315416 148.007004
v 129.330002 5.100946 143.451004
v -70.680603 -126.058044 259.162964
v -102.859001 -124.851044 261.047974
v -59.780602 -114.962044 259.719971
v -90.871300 -129.070053 260.220978
v 116.240997 55.292168 196.329010
v 158.070007 73.435173 199.664017
v 118.482002 43.858971 184.707993
v 112.525002 66.511467 203.947021
v 144.238007 97.350662 213.828018
v 164.158997 21.082573 161.427002
v 153.035004 82.373070 205.220016
v 102.429001 78.025558 213.283020
v 133.774002 113.468964 223.850021
v 151.065994 -7.005651 126.164001
v 75.944099 102.162964 232.967010
v 130.266998 -17.353518 107.792999
v 99.375000 146.127960 248.770035
v 90.033501 155.748947 254.130035
v 89.315002 148.435959 250.670029
v 83.582298 158.006958 255.081024
v 68.335999 142.905960 254.149033
v 54.254601 148.002960 255.042038
v 32.305302 125.504959 255.880020
v 64.209801 168.779953 259.814026
v 39.018501 162.666962 261.862030
v 7.233110 130.521957 263.965027
v -5.117560 136.743958 265.469025
v -44.776600 143.907959 270.127045
v 27.141399 177.031952 265.607025
v 42.987301 174.755951 263.319031
v -41.625099 123.700951 268.088043
v -29.543800 177.702957 271.499023
v -50.698002 173.994949 272.358032
v -59.138500 115.946953 268.877045
v -98.336098 85.722351 268.936005
v -61.132500 171.572952 272.646027
v -54.171101 173.483948 272.535034
v -81.795998 162.425949 272.306030
v -156.947998 90.078056 269.315002
v -113.192001 65.724251 268.144989
v -148.123993 102.243958 270.312042
v -127.902000 24.614656 263.925995
v -132.145996 40.598660 264.842987
v -175.227005 39.402760 266.473999
v -177.513000 5.062417 263.967010
v -130.759995 13.774158 262.946014
v -175.552002 21.515856 265.424011
v -127.950996 -30.315943 260.161011
v -113.334000 -63.466843 263.096985
v -155.214996 -43.459942 261.154999
v -169.429001 -45.930344 262.325989
v -159.944000 -68.816147 261.848999
v -101.820000 -81.460747 262.311005
v -131.005005 -106.055046 261.766968
v -108.391998 -74.449745 262.674011
v -82.457901 -102.461044 261.353973
v -88.705902 -95.530449 261.921967
v -74.406502 -131.016052 258.892975
v 164.494995 27.750174 167.509995
v 165.735001 36.054173 174.128006
v -88.614098 157.979950 272.921021
v -97.945900 152.358948 273.152039
v -55.395000 -125.557045 262.015961
v -49.405701 -120.714043 263.214966
v -163.076004 80.191254 269.079987
v -167.326004 72.403458 268.596985
v -170.656998 64.073257 268.106995
v 109.180000 137.902954 242.462021
v -145.378998 -90.630943 261.674988
v -106.546997 145.656952 272.814026
v -24.885201 178.072952 271.044037
vn 0.0300 -0.6647 0.7465
vn -0.0358 -0.8502 0.5253
vn -0.0226 -0.8384 0.5446
vn 0.3001 -0.1773 0.9373
vn 0.1915 -0.1217 0.9739
vn 0.1168 -0.0584 0.9914
vn 0.0470 -0.0374 0.9982
vn 0.0527 -0.0287 0.9982
vn -0.0325 -0.7909 0.6111
vn 0.0130 -0.8278 0.5608
vn 0.1763 -0.8402 0.5128
vn -0.0364 -0.7915 0.6101
vn 0.0543 -0.1032 0.9932
vn 0.0572 -0.0330 0.9978
vn 0.1553 -0.5132 0.8441
vn 0.0928 -0.7008 0.7073
vn 0.2214 -0.4966 0.8393
vn 0.1252 -0.4510 0.8837
vn 0.0931 -0.7045 0.7036
vn -0.1048 -0.6230 0.7751
vn -0.0072 -0.7314 0.6819
vn 0.0030 -0.6971 0.7170
vn -0.0925 -0.7282 0.6791
vn -0.7002 -0.6174 0.3585
vn 0.2169 -0.4930 0.8426
vn 0.1866 -0.4286 0.8840
vn 0.2176 -0.8821 0.4178
vn 0.2128 -0.4666 0.8585
vn 0.2320 -0.4606 0.8568
vn -0.0738 -0.8586 0.5072
vn 0.0706 -0.4323 0.8990
vn -0.0159 -0.4263 0.9044
vn 0.2305 -0.2900 0.9288
vn 0.3269 -0.2854 0.9009
vn -0.0341 -0.2632 0.9641
vn 0.0884 -0.2630 0.9607
vn 0.0299 -0.0917 0.9953
vn 0.1468 -0.2877 0.9464
vn 0.2895 0.3603 0.8868
vn 0.1308 -0.1843 0.9741
vn 0.0887 -0.1494 0.9848
vn 0.1143 -0.0133 0.9934
vn 0.1085 -0.1658 0.9802
vn 0.2353 -0.1223 0.9642
vn -0.5599 -0.7477 0.3570
vn 0.1190 -0.1572 0.9804
vn 0.1178 -0.1568 0.9806
vn 0.0956 -0.0852 0.9918
vn 0.0847 -0.0807 0.9931
vn 0.0516 -0.0637 0.9966
vn 0.0833 -0.0872 0.9927
vn 0.0479 -0.0645 0.9968
vn 0.0878 -0.2641 0.9605
vn 0.0743 -0.2042 0.9761
vn 0.0033 -0.0420 0.9991
vn 0.0004 -0.0819 0.9966
vn -0.0722 -0.0762 0.9945
vn 0.0397 -0.0702 0.9967
vn 0.0404 -0.1005 0.9941
vn 0.0373 -0.0926 0.9950
vn 0.0352 -0.0592 0.9976
vn 0.0316 -0.0526 0.9981
vn 0.0380 -0.0470 0.9982
vn 0.0702 -0.0584 0.9958
vn -0.0379 0.0715 0.9967
vn 0.0150 0.1276 0.9917
vn 0.1506 -0.4488 0.8809
vn 0.0637 -0.0029 0.9980
vn 0.0800 0.0124 0.9967
vn -0.0203 0.0019 0.9998
vn -0.1693 -0.2086 0.9632
vn -0.0820 -0.0752 0.9938
vn 0.0429 -0.0527 0.9977
vn -0.6720 -0.6367 0.3782
vn 0.0174 -0.0295 0.9994
vn 0.1054 -0.1649 0.9807
vn 0.0676 -0.1049 0.9922
vn -0.1288 -0.6062 0.7848
vn -0.0084 0.0550 0.9985
vn -0.1861 0.1339 0.9734
vn -0.2695 0.0961 0.9582
vn 0.3543 -0.3128 0.8812
vn -0.7949 -0.3866 0.4677
vn 0.2115 -0.4170 0.8839
vn 0.4387 -0.2921 0.8498
vn 0.0593 -0.0750 0.9954
vn 0.0391 -0.0469 0.9981
vn -0.1855 0.0861 0.9789
vn 0.0342 -0.0723 0.9968
vn 0.0678 -0.0802 0.9945
vn 0.2295 -0.4330 0.8717
vn 0.0070 0.0125 0.9999
vn -0.0325 -0.1061 0.9938
vn 0.0413 0.0196 0.9990
vn -0.1167 0.3096 0.9437
vn 0.0064 -0.0637 0.9979
vn 0.0060 -0.0292 0.9996
vn 0.2007 -0.4244 0.8830
vn 0.0588 0.3897 0.9190
vn 0.0784 -0.0757 0.9940
vn 0.2087 -0.4391 0.8739
vn 0.0458 -0.0633 0.9969
vn 0.1974 -0.4375 0.8773
vn 0.1752 -0.0459 0.9835
vn 0.0100 -0.0632 0.9980
usemtl None
s off
f 1//1 2//1 3//1
f 4//2 5//2 6//2
f 4//3 6//3 7//3
f 8//4 10//4 9//4
f 11//5 12//5 13//5
f 12//6 11//6 14//6
f 15//7 17//7 16//7
f 18//8 17//8 15//8
f 2//9 7//9 19//9
f 20//10 21//10 4//10
f 2//11 20//11 4//11
f 7//12 2//12 4//12
f 22//13 24//13 23//13
f 22//14 23//14 25//14
f 26//15 3//15 27//15
f 26//16 28//16 3//16
f 26//17 30//17 29//17
f 26//18 27//18 30//18
f 28//19 1//19 3//19
f 31//20 3//20 2//20
f 31//21 2//21 19//21
f 1//22 20//22 2//22
f 21//23 20//23 1//23
f 27//24 32//24 30//24
f 29//25 30//25 33//25
f 33//26 30//26 34//26
f 35//27 7//27 6//27
f 33//28 10//28 36//28
f 33//29 34//29 10//29
f 37//30 5//30 4//30
f 38//31 39//31 40//31
f 41//32 40//32 39//32
f 40//33 41//33 42//33
f 43//34 44//34 9//34
f 43//35 9//35 42//35
f 41//36 45//36 43//36
f 41//37 43//37 42//37
f 46//38 43//38 45//38
f 13//39 48//39 47//39
f 48//40 13//40 12//40
f 48//41 12//41 49//41
f 49//42 47//42 48//42
f 11//43 46//43 50//43
f 13//44 43//44 11//44
f 11//45 43//45 46//45
f 50//46 46//46 51//46
f 45//47 51//47 46//47
f 49//48 52//48 47//48
f 12//49 14//49 49//49
f 53//50 54//50 49//50
f 49//51 55//51 52//51
f 54//52 56//52 49//52
f 57//53 54//53 58//53
f 57//54 59//54 54//54
f 56//55 60//55 61//55
f 60//56 56//56 62//56
f 63//57 61//57 64//57
f 64//58 60//58 65//58
f 66//59 67//59 63//59
f 66//60 63//60 68//60
f 63//61 65//61 68//61
f 66//62 17//62 67//62
f 66//63 16//63 17//63
f 69//64 67//64 17//64
f 70//65 69//65 17//65
f 70//66 17//66 71//66
f 17//67 72//67 71//67
f 17//68 18//68 72//68
f 72//69 73//69 71//69
f 74//70 71//70 75//70
f 74//71 76//71 71//71
f 70//72 71//72 76//72
f 77//73 23//73 24//73
f 78//74 74//74 77//74
f 23//75 77//75 74//75
f 50//76 14//76 11//76
f 79//77 22//77 25//77
f 80//78 81//78 3//78
f 54//79 82//79 83//79
f 84//80 24//80 22//80
f 85//81 24//81 84//81
f 44//82 43//82 13//82
f 3//83 31//83 80//83
f 42//84 9//84 10//84
f 86//85 87//85 60//85
f 56//86 55//86 49//86
f 64//87 65//87 63//87
f 22//88 79//88 84//88
f 87//89 88//89 65//89
f 87//90 65//90 60//90
f 10//91 34//91 89//91
f 90//92 75//92 71//92
f 61//93 60//93 64//93
f 71//94 73//94 90//94
f 82//95 54//95 59//95
f 91//96 62//96 56//96
f 23//97 74//97 75//97
f 89//98 42//98 10//98
f 92//99 53//99 14//99
f 49//100 14//100 53//100
f 36//101 10//101 8//101
f 54//102 83//102 56//102
f 42//103 89//103 38//103
f 40//104 42//104 38//104
f 56//105 83//105 91//105
