# Blender v2.79 (sub 0) OBJ File: ''
# www.blender.org
mtllib my_crack_surf__12.mtl
o my_crack_surf__12
v 129.255005 19.391373 159.641998
v 145.819000 55.551670 193.600021
v 110.709999 69.357964 214.199020
v 154.578995 8.965475 151.171997
v 143.720993 -8.196301 130.548996
v 150.794998 47.926270 187.558014
v 100.820999 82.796761 223.698013
v 120.209999 80.850464 216.316010
v 155.703995 28.625971 170.876999
v 130.445999 -13.240120 123.080002
v 155.417007 14.933674 157.634003
vn 0.1277 -0.7094 0.6931
vn -0.0843 -0.7436 0.6632
vn -0.0988 -0.6568 0.7476
vn 0.2907 -0.4004 0.8690
vn -0.0840 -0.6637 0.7432
vn -0.0893 -0.7445 0.6616
vn -0.0540 -0.7053 0.7068
vn -0.5748 -0.5626 0.5942
vn 0.3274 -0.4260 0.8434
usemtl None
s off
f 1//1 2//1 3//1
f 4//2 1//2 5//2
f 1//3 6//3 2//3
f 7//4 3//4 8//4
f 6//5 1//5 9//5
f 10//6 5//6 1//6
f 9//7 1//7 4//7
f 9//8 4//8 11//8
f 2//9 8//9 3//9
