# Blender v2.79 (sub 0) OBJ File: ''
# www.blender.org
mtllib my_crack_surf__85.mtl
o my_crack_surf__85
v 129.164993 20.021173 159.278000
v 145.895996 12.733175 152.123993
v 155.977005 50.895668 184.895020
v 130.278000 -5.769900 127.188004
v 139.082001 -15.366118 112.584000
v 147.395004 -11.504319 119.396004
v 64.075401 114.513962 241.842010
v 51.013901 119.078964 246.809021
v 88.615501 112.864960 235.315018
v 39.998501 138.117950 257.318024
v 63.734699 170.588959 260.716034
v 3.743970 147.173950 266.253021
v -19.686899 179.913956 271.096039
v 20.178900 179.527954 266.706024
v 34.992599 178.138962 265.234039
v -8.828400 179.925949 270.118042
v -3.728380 179.589951 269.367035
v -132.626999 120.313957 270.543030
v -125.627998 124.249954 271.076019
v -105.209999 100.629951 270.254028
v -94.845001 -140.255051 261.490967
v -102.884003 -125.012047 260.949982
v -82.422600 -119.574043 260.399963
v 116.240997 55.292168 196.329010
v 118.475998 43.880970 184.707001
v 152.722000 -7.261160 126.025002
v 158.048996 -0.396115 135.966995
v 161.179993 7.035916 145.554993
v 137.464996 8.373736 147.985001
v 129.326996 5.133497 143.412994
v 111.427002 69.829872 206.108017
v 163.800995 16.300875 157.141006
v 167.154999 35.209972 173.798996
v 167.195999 41.210869 178.399994
v 129.214005 12.906575 150.955994
v 147.970993 93.312660 211.517014
v 154.225998 83.845169 205.974014
v 146.348999 97.381760 213.858017
v 75.800003 102.291962 232.841019
v 135.296997 113.481964 224.113022
v 162.143997 62.508270 192.186020
v 159.455002 73.069969 199.171021
v 130.266998 -17.617918 107.574997
v 114.014999 134.740952 240.113022
v 121.391998 128.209961 234.928009
v 68.169502 142.888962 253.459030
v 96.575996 145.100952 248.764038
v 101.781998 147.433960 248.907028
v 92.121399 156.273956 252.914032
v 50.332802 149.333954 256.701019
v 79.859200 163.238953 256.637024
v -8.973140 128.248947 265.457031
v 7.233110 130.521957 263.965027
v 44.912201 176.406952 264.083038
v -39.756199 178.308960 272.320038
v -41.657799 123.700951 268.040039
v -27.285601 179.490952 271.339020
v -55.348701 174.488953 272.802032
v -74.181503 167.778961 272.783020
v -98.320999 85.738457 268.894012
v -113.192001 65.724251 268.144989
v -170.500000 66.489052 267.998993
v -139.735001 45.038059 265.838013
v -123.264999 37.957958 265.424011
v -132.143005 40.606159 264.872986
v -127.901001 24.618557 263.963013
v -177.367996 -15.787543 262.993011
v -130.759003 13.777557 262.979004
v -177.712006 40.571659 266.475006
v -178.013000 13.369257 264.522003
v -129.237000 -8.070513 261.080994
v -179.751999 -3.104233 263.674988
v -127.953003 -30.311342 260.243011
v -123.098999 -41.413242 260.696991
v -171.832001 -46.272343 262.333008
v -166.201996 -62.214741 261.932007
v -176.847000 -24.668642 262.722992
v -175.464996 -33.005642 262.463989
v -143.029007 -98.887047 261.716980
v -156.001999 -81.890945 261.368988
v -147.442993 -93.234245 261.903992
v -113.332001 -63.475342 263.010010
v -135.423004 -108.793045 261.596954
v -108.331001 -74.543343 262.670990
v -114.025002 -125.339043 261.716980
v -81.943398 -102.843048 261.308960
v -71.906898 -108.323044 260.505981
v -41.344299 -124.829048 260.822968
v -86.824097 -141.403046 261.431976
v -76.912804 -149.266052 261.888977
v -19.439199 -128.301041 259.995972
v -19.083200 -151.893051 261.854980
v -8.833150 -142.472046 260.736969
v -3.500180 -130.778046 260.819977
v -108.760002 -131.293045 261.866974
v 159.688995 2.760127 140.197006
v 163.218002 13.487475 153.764008
v 166.022995 51.176369 185.376022
v -122.043999 -120.072044 261.706970
v -117.679001 -123.106049 261.635956
v -59.113098 115.973953 268.807037
v -102.521004 151.112961 273.171021
v -119.085999 133.455948 271.280029
v -108.495003 145.207947 272.618042
v 71.072197 167.638962 259.280029
v -155.619003 95.839256 269.344025
v -152.589005 101.983955 269.003021
v 24.301201 127.254951 259.746033
v 32.160599 125.548965 256.055023
v -58.775398 -154.239044 260.829956
v -173.442001 59.240757 267.679993
vn 0.0362 -0.6565 0.7534
vn -0.0419 -0.8464 0.5309
vn 0.0017 -0.8036 0.5952
vn 0.2161 -0.3664 0.9050
vn 0.1782 -0.2304 0.9566
vn 0.1162 -0.0634 0.9912
vn 0.0635 -0.3232 0.9442
vn 0.0862 -0.2901 0.9531
vn 0.1576 0.2677 0.9505
vn -0.0380 -0.0675 0.9970
vn 0.0153 0.0435 0.9989
vn 0.1266 -0.6955 0.7073
vn -0.0759 -0.8010 0.5938
vn -0.0273 -0.7857 0.6180
vn 0.0166 -0.8294 0.5584
vn 0.1856 -0.8412 0.5079
vn 0.1866 -0.5050 0.8427
vn -0.1472 -0.6390 0.7550
vn 0.1267 -0.6962 0.7065
vn -0.0883 -0.6354 0.7671
vn -0.0206 -0.7785 0.6272
vn -0.0653 -0.6069 0.7921
vn -0.1240 -0.6920 0.7112
vn -0.0611 -0.6226 0.7802
vn -0.0533 -0.7592 0.6487
vn -0.0749 -0.5402 0.8382
vn -0.2024 -0.5477 0.8118
vn 0.2166 -0.4636 0.8592
vn 0.2017 -0.4812 0.8531
vn 0.0247 -0.5250 0.8508
vn 0.0357 -0.5449 0.8377
vn -0.0750 -0.8535 0.5156
vn 0.1852 -0.4742 0.8607
vn 0.1508 -0.4887 0.8593
vn 0.4470 -0.2196 0.8671
vn 0.1794 -0.4720 0.8631
vn 0.1115 -0.3067 0.9453
vn 0.0609 -0.3090 0.9491
vn 0.3598 -0.2826 0.8892
vn 0.1132 -0.3060 0.9453
vn 0.1241 -0.2592 0.9578
vn 0.1009 -0.2099 0.9725
vn 0.1951 -0.1717 0.9656
vn -0.0494 0.7699 0.6363
vn 0.5630 -0.4818 0.6714
vn 0.0312 -0.4231 0.9055
vn 0.0757 -0.0927 0.9928
vn 0.0671 -0.0803 0.9945
vn -0.0221 0.7663 0.6421
vn 0.0503 -0.0798 0.9955
vn 0.0294 -0.0854 0.9959
vn 0.0446 -0.0704 0.9965
vn -0.0033 -0.0596 0.9982
vn -0.0155 -0.0363 0.9992
vn -0.0039 -0.1058 0.9944
vn -0.0146 -0.0923 0.9956
vn -0.2116 -0.5399 0.8147
vn -0.0853 -0.0792 0.9932
vn 0.1104 -0.0273 0.9935
vn 0.0689 -0.1082 0.9917
vn 0.0289 -0.0667 0.9974
vn 0.0228 -0.0519 0.9984
vn 0.0528 -0.0828 0.9952
vn 0.0080 -0.0522 0.9986
vn 0.0453 -0.0350 0.9984
vn 0.0282 0.0532 0.9982
vn 0.0348 -0.0128 0.9993
vn 0.0475 -0.0276 0.9985
vn 0.0480 -0.0231 0.9986
vn 0.0465 0.0029 0.9989
vn 0.0241 0.0094 0.9997
vn 0.7669 0.5905 0.2514
vn -0.0152 -0.0238 0.9996
vn -0.1095 0.0556 0.9924
vn -0.0006 -0.0309 0.9995
vn -0.0185 -0.0167 0.9997
vn 0.0709 -0.0830 0.9940
vn 0.0281 -0.0219 0.9994
vn -0.0103 0.0002 0.9999
vn 0.0415 -0.0554 0.9976
vn 0.0494 -0.0556 0.9972
vn 0.0137 0.0445 0.9989
vn -0.0074 0.0487 0.9988
vn 0.0501 0.0792 0.9956
vn 0.0360 0.0790 0.9962
vn -0.0492 0.0154 0.9987
vn 0.0660 0.0834 0.9943
vn 0.0751 0.0749 0.9944
vn -0.3279 -0.6918 0.6434
vn -0.4138 -0.6631 0.6238
vn -0.0263 -0.5215 0.8528
vn 0.1094 -0.1275 0.9858
vn 0.0233 0.0374 0.9990
vn -0.2648 -0.4014 0.8768
vn -0.0231 -0.5751 0.8177
vn 0.0638 -0.0451 0.9969
vn 0.0273 -0.0719 0.9970
vn 0.0908 -0.0894 0.9918
vn -0.4166 0.2769 0.8659
vn -0.0949 -0.8021 0.5896
vn -0.1571 -0.7198 0.6761
vn -0.2249 0.1642 0.9605
vn 0.0627 -0.5269 0.8476
vn 0.1861 -0.4683 0.8638
vn 0.0534 -0.0663 0.9964
vn 0.0334 -0.0059 0.9994
vn 0.2072 -0.3988 0.8933
vn 0.2204 -0.1016 0.9701
vn 0.0104 -0.0855 0.9963
vn -0.1053 0.0529 0.9930
vn -0.1028 0.0108 0.9946
vn -0.0163 -0.5394 0.8419
vn 0.3492 -0.3067 0.8854
vn -0.0095 0.0059 0.9999
vn 0.2015 -0.4481 0.8710
vn 0.3355 -0.2990 0.8933
vn 0.0535 -0.0677 0.9963
vn 0.1146 -0.0901 0.9893
vn -0.0073 -0.0421 0.9991
vn 0.0756 0.0639 0.9951
vn -0.1949 -0.1289 0.9723
vn 0.1768 -0.2502 0.9519
vn -0.0268 0.0161 0.9995
vn 0.0219 -0.0965 0.9951
usemtl None
s off
f 1//1 2//1 3//1
f 4//2 5//2 6//2
f 4//3 6//3 2//3
f 7//4 9//4 8//4
f 10//5 11//5 12//5
f 11//6 13//6 12//6
f 14//7 11//7 15//7
f 16//8 13//8 11//8
f 16//9 11//9 17//9
f 18//10 20//10 19//10
f 21//11 23//11 22//11
f 3//12 24//12 25//12
f 26//13 27//13 2//13
f 28//14 2//14 27//14
f 29//15 30//15 4//15
f 2//16 29//16 4//16
f 24//17 3//17 31//17
f 32//18 33//18 3//18
f 25//19 1//19 3//19
f 32//20 3//20 2//20
f 32//21 2//21 28//21
f 33//22 34//22 3//22
f 35//23 30//23 29//23
f 35//24 29//24 2//24
f 35//25 2//25 1//25
f 3//26 37//26 36//26
f 36//27 38//27 3//27
f 39//28 3//28 9//28
f 31//29 3//29 39//29
f 38//30 40//30 3//30
f 41//31 42//31 3//31
f 43//32 5//32 4//32
f 3//33 45//33 44//33
f 40//34 45//34 3//34
f 3//35 46//35 9//35
f 47//36 46//36 3//36
f 47//37 48//37 49//37
f 8//38 46//38 50//38
f 50//39 10//39 8//39
f 47//40 49//40 51//40
f 51//41 11//41 50//41
f 50//42 46//42 51//42
f 10//43 12//43 52//43
f 52//44 53//44 10//44
f 10//45 50//45 11//45
f 15//46 11//46 54//46
f 13//47 52//47 12//47
f 55//48 56//48 13//48
f 55//49 13//49 57//49
f 55//50 58//50 56//50
f 58//51 59//51 56//51
f 60//52 20//52 61//52
f 62//53 61//53 20//53
f 20//54 18//54 62//54
f 62//55 63//55 61//55
f 63//56 64//56 61//56
f 64//57 63//57 65//57
f 66//58 64//58 65//58
f 63//59 66//59 65//59
f 67//60 68//60 66//60
f 66//61 62//61 69//61
f 67//62 66//62 70//62
f 68//63 67//63 71//63
f 67//64 70//64 72//64
f 73//65 71//65 67//65
f 74//66 73//66 75//66
f 74//67 75//67 76//67
f 73//68 67//68 77//68
f 73//69 77//69 78//69
f 73//70 78//70 75//70
f 79//71 74//71 76//71
f 80//72 81//72 79//72
f 79//73 83//73 82//73
f 74//74 79//74 82//74
f 84//75 82//75 83//75
f 83//76 85//76 84//76
f 85//77 22//77 86//77
f 84//78 85//78 86//78
f 87//79 23//79 88//79
f 86//80 22//80 23//80
f 87//81 86//81 23//81
f 89//82 23//82 21//82
f 23//83 89//83 90//83
f 88//84 92//84 91//84
f 93//85 91//85 92//85
f 93//86 94//86 91//86
f 22//87 85//87 95//87
f 95//88 21//88 22//88
f 96//89 28//89 27//89
f 32//90 28//90 97//90
f 98//91 41//91 3//91
f 17//92 11//92 14//92
f 85//93 83//93 99//93
f 85//94 99//94 100//94
f 98//95 3//95 34//95
f 101//96 56//96 102//96
f 66//97 69//97 70//97
f 13//98 56//98 52//98
f 103//99 19//99 104//99
f 26//100 2//100 6//100
f 105//101 11//101 51//101
f 106//102 18//102 107//102
f 3//103 44//103 48//103
f 3//104 48//104 47//104
f 20//105 60//105 101//105
f 20//106 101//106 19//106
f 46//107 8//107 9//107
f 108//108 10//108 53//108
f 63//109 62//109 66//109
f 18//110 19//110 103//110
f 104//111 19//111 102//111
f 42//112 37//112 3//112
f 109//113 10//113 108//113
f 23//114 110//114 88//114
f 39//115 9//115 7//115
f 8//116 10//116 109//116
f 102//117 56//117 59//117
f 111//118 69//118 62//118
f 62//119 18//119 106//119
f 23//120 90//120 110//120
f 79//121 76//121 80//121
f 47//122 51//122 46//122
f 92//123 88//123 110//123
f 102//124 19//124 101//124
