# Blender v2.79 (sub 0) OBJ File: ''
# www.blender.org
mtllib my_crack_surf__127.mtl
o my_crack_surf__127
v 166.658005 9.037457 147.882004
v 146.832001 19.562473 158.449005
v 165.393005 4.160087 141.841995
v 160.052002 -3.605242 131.003998
v 148.654999 -15.742619 110.258003
v 137.328995 -0.317281 134.891998
v 130.274002 -9.514310 120.188004
v 138.955994 -14.375319 113.068001
v 151.384003 96.635963 213.274017
v 164.442993 71.492073 198.157013
v 88.613403 112.866959 235.306015
v 64.002502 114.557961 241.553009
v 66.091400 128.721954 247.438019
v 26.159700 173.879959 265.098022
v 3.743970 147.173950 266.253021
v 24.574100 146.386948 261.419037
v -2.884150 182.350952 269.524017
v -7.885760 182.806961 270.094025
v -24.327400 183.414948 271.846039
v -12.323400 183.049957 270.649017
v -105.225998 100.685951 269.988037
v -177.416000 66.443657 268.592010
v -67.369598 141.642960 270.814026
v 118.473000 43.894169 184.707001
v 116.240997 55.292168 196.329010
v 170.313004 34.267174 172.513000
v 144.005997 35.979572 175.263000
v 171.445007 51.474968 184.675018
v 39.307701 -139.488052 257.080963
v 0.000000 -131.500046 258.827972
v 17.008400 -179.568039 259.824982
v 42.990799 -177.854050 259.565979
v 64.578499 -170.681046 259.285980
v 88.041901 -161.852051 258.743958
v 97.536903 -152.832047 258.167969
v 89.974403 -113.661041 256.218964
v 106.342003 -142.660049 257.642975
v 129.147995 20.194773 159.072998
v 168.218002 15.613674 155.253006
v 130.276993 -5.431291 126.907997
v 129.294998 5.463787 143.020996
v 156.684998 88.426270 208.062012
v 111.426003 69.831566 205.901016
v 157.949005 -7.853790 124.874001
v 75.522499 102.545959 232.679016
v 124.878998 129.159958 234.769012
v 130.266998 -16.847317 106.060997
v 129.158005 -21.881615 95.733498
v 137.938004 -19.432417 101.741997
v 80.976402 136.994949 246.804016
v 92.441902 146.812958 248.875031
v 52.463001 133.626953 250.162018
v 50.622002 119.313965 245.258011
v 38.017200 123.605965 252.031021
v 29.410500 132.406952 258.141022
v 54.288799 147.948959 255.005035
v 70.649498 172.366959 259.963043
v 85.753601 164.369949 255.951035
v 76.791603 169.162949 258.453033
v 50.458599 178.633957 263.554016
v 23.778500 127.250954 258.974030
v 5.473660 138.862961 265.013031
v -41.786598 123.699951 267.849030
v 7.233110 130.521957 263.965027
v 27.768200 182.034958 266.380035
v -59.017101 116.075951 268.541016
v -96.947098 144.041962 271.687042
v -83.459503 168.832947 273.186035
v -62.290600 176.576950 273.041016
v -98.257004 85.806557 268.717010
v -28.678301 183.350952 272.201019
v -48.454899 180.592957 272.904022
v -97.632599 160.297958 273.732025
v -115.362000 143.896957 272.582031
v -105.527000 154.981949 273.624023
v -113.192001 65.724251 268.144989
v -155.061996 105.032951 270.316040
v -162.623993 95.522057 269.914032
v -127.900002 24.632357 264.098999
v -130.757996 13.793457 263.134003
v -182.664001 51.448257 267.809998
v -144.462006 -14.358043 261.523010
v -129.238998 -8.061283 261.243988
v -180.447998 58.259258 268.201996
v -184.626007 4.181907 264.197998
v -127.956001 -30.294243 260.545013
v -177.654999 -69.630745 262.612000
v -123.099998 -41.409740 260.759003
v -113.347000 -63.432941 262.872986
v -184.789993 -40.696743 263.065002
v -152.113007 -107.140045 262.271973
v -164.634995 -91.576942 262.294006
v -82.462502 -119.451042 260.555969
v -108.404999 -74.428642 262.654999
v -122.823997 -134.123047 262.201965
v -42.049301 -124.596046 260.465973
v -82.023598 -102.782043 261.324982
v -109.342003 -147.818039 262.282959
v -98.495499 -157.633041 262.399963
v -73.304901 -170.734039 261.364960
v -21.092501 -128.025040 260.038971
v -23.602301 -143.134048 260.581970
v -26.098700 -158.248047 259.846954
v 24.629400 -126.713036 257.256958
v 2.603850 -178.920044 260.198975
v 36.845798 -124.358040 257.396973
v 49.047600 -122.010040 256.785980
v 26.740801 -180.605042 259.783966
v 75.647697 -166.067047 259.090973
v 71.296402 -107.297035 256.947968
v 116.267998 -133.669052 255.985977
v 124.976997 -98.474236 251.031982
v 82.501099 -99.773842 256.263977
v 93.654900 -92.303337 254.113983
v 102.369003 -107.604034 254.742981
v 108.213997 -69.361542 248.275986
v 120.231003 -126.735039 255.011978
v 152.427994 -51.965839 242.018982
v 122.724998 -47.131538 243.469986
v 151.679001 -73.722839 245.543991
v 149.445007 -85.776840 247.616989
v 152.035995 -64.605042 243.529984
v 149.138000 -36.803040 239.117004
v 151.335999 -44.834538 240.733002
v 126.742996 -18.346539 236.227005
v 145.328995 -27.285038 237.117004
v -85.259201 -165.611038 262.084961
v 167.701996 12.819875 152.281006
v 159.684998 82.235573 204.474014
v 121.205002 133.405960 237.545013
v 114.299004 141.053955 242.509033
v 37.891998 181.355957 265.195038
v -124.612999 133.889954 271.980042
v -143.785995 116.001953 271.239044
v -147.705002 111.589951 270.568024
v -186.378006 -26.888842 263.178986
v -185.022003 -35.423843 263.092010
v -181.983994 -54.299442 262.815002
v -183.369995 -47.697243 262.898010
v -185.063004 36.409157 266.739990
v 134.326996 -16.533237 235.417999
v 127.732002 -11.364338 234.996002
v 137.901001 -105.962036 251.512985
v 131.692001 -114.948036 253.002991
v -15.457300 -180.716049 260.832977
v -39.742401 -180.742050 260.872955
v -60.333500 -175.499039 260.961975
v 96.741501 157.340958 252.129028
v 105.202003 149.798950 248.061035
v 110.288002 145.008957 245.081024
v 169.389008 26.876873 166.466003
v 167.098007 20.927073 160.647995
v -183.897003 44.039356 267.287994
v -172.365997 77.094353 269.165985
v 92.892097 160.092957 253.631027
vn -0.0695 -0.7690 0.6355
vn -0.0348 -0.8542 0.5188
vn 0.0688 -0.7829 0.6184
vn 0.1992 -0.4269 0.8821
vn 0.1994 -0.4009 0.8941
vn 0.2187 -0.1418 0.9654
vn 0.1311 -0.0673 0.9891
vn 0.1064 -0.0722 0.9917
vn 0.0471 -0.7205 0.6919
vn -0.0174 -0.0041 0.9998
vn 0.2017 -0.6796 0.7053
vn 0.0268 -0.7130 0.7007
vn -0.0002 -0.7642 0.6450
vn 0.0775 -0.5382 0.8393
vn 0.0905 -0.6292 0.7720
vn 0.0523 0.0392 0.9979
vn -0.0083 0.0638 0.9979
vn 0.0113 0.0519 0.9986
vn 0.0018 0.0500 0.9987
vn -0.0023 -0.7348 0.6783
vn -0.0369 -0.7418 0.6696
vn 0.0451 -0.8263 0.5614
vn -0.1394 -0.8668 0.4787
vn -0.0091 -0.8546 0.5192
vn 0.1534 -0.7274 0.6689
vn -0.0045 -0.7633 0.6460
vn 0.2349 -0.4083 0.8821
vn 0.1401 -0.5069 0.8505
vn -0.3670 -0.7008 0.6116
vn 0.2039 -0.4763 0.8553
vn 0.2019 -0.4202 0.8847
vn -0.1182 -0.8813 0.4575
vn -0.0528 -0.8954 0.4421
vn 0.3434 -0.5600 0.7540
vn 0.2364 -0.3560 0.9041
vn 0.3510 -0.3436 0.8710
vn 0.1119 -0.3953 0.9117
vn 0.0689 -0.3313 0.9410
vn 0.1086 -0.2348 0.9660
vn 0.3260 -0.3029 0.8955
vn 0.1399 -0.3331 0.9324
vn 0.3236 -0.3399 0.8830
vn 0.0611 -0.3530 0.9336
vn 0.1435 -0.2884 0.9467
vn -0.3674 -0.8650 0.3418
vn 0.2162 -0.1514 0.9646
vn 0.0915 -0.2566 0.9622
vn 0.2631 -0.1330 0.9555
vn 0.2214 -0.0987 0.9702
vn 0.0930 -0.1048 0.9901
vn 0.2169 -0.2368 0.9470
vn 0.0772 -0.0544 0.9955
vn 0.0737 -0.1321 0.9885
vn -0.1640 -0.1215 0.9789
vn 0.1007 -0.1460 0.9841
vn 0.0691 -0.0659 0.9954
vn 0.0360 -0.0798 0.9962
vn 0.0515 -0.0610 0.9968
vn 0.1030 -0.0733 0.9920
vn 0.0824 -0.1094 0.9906
vn 0.0713 -0.0980 0.9926
vn 0.0296 -0.0679 0.9973
vn 0.0987 -0.1735 0.9799
vn 0.1100 -0.1195 0.9867
vn 0.0458 0.2095 0.9767
vn 0.0684 -0.1217 0.9902
vn 0.0173 -0.0771 0.9969
vn 0.0066 -0.0334 0.9994
vn 0.0111 -0.0511 0.9986
vn 0.0058 -0.1000 0.9950
vn 0.0127 -0.0920 0.9957
vn 0.0415 -0.0665 0.9969
vn 0.0523 -0.0824 0.9952
vn 0.2127 -0.1250 0.9691
vn 0.0327 -0.0730 0.9968
vn 0.0335 -0.0775 0.9964
vn 0.0306 -0.0296 0.9991
vn 0.0495 -0.0100 0.9987
vn -0.0127 0.0900 0.9959
vn 0.0196 0.0278 0.9994
vn 0.0417 -0.0054 0.9991
vn -0.0617 -0.0510 0.9968
vn -0.0040 -0.0489 0.9988
vn -0.0021 -0.0207 0.9998
vn 0.0262 0.0088 0.9996
vn 0.0299 0.0299 0.9991
vn -0.0036 -0.0460 0.9989
vn 0.0008 -0.0461 0.9989
vn 0.0284 0.0339 0.9990
vn 0.0238 0.0382 0.9990
vn 0.0542 0.0254 0.9982
vn 0.0255 0.0317 0.9992
vn 0.0615 0.0256 0.9978
vn 0.1062 -0.0658 0.9922
vn 0.0542 0.0485 0.9974
vn 0.0273 0.0304 0.9992
vn -0.0072 -0.0221 0.9997
vn 0.0524 -0.0123 0.9986
vn 0.0024 0.0649 0.9979
vn -0.0088 0.0634 0.9980
vn 0.0560 0.0500 0.9972
vn 0.0016 0.0775 0.9970
vn -0.0292 0.0331 0.9990
vn -0.0221 0.0261 0.9994
vn 0.0965 0.1153 0.9886
vn 0.0804 0.0941 0.9923
vn 0.0464 0.0217 0.9987
vn 0.1415 0.0729 0.9873
vn 0.0769 0.0847 0.9934
vn 0.1291 0.1668 0.9775
vn 0.1184 0.1080 0.9871
vn -0.0009 0.1396 0.9902
vn 0.0747 0.1639 0.9836
vn 0.0776 0.1568 0.9846
vn 0.0775 0.1550 0.9849
vn 0.9966 -0.0213 0.0800
vn -0.1687 0.1498 0.9742
vn 0.0681 0.2345 0.9697
vn 0.0639 0.2297 0.9712
vn 0.1451 0.2026 0.9685
vn -0.6354 -0.5045 0.5846
vn -0.1027 -0.7839 0.6123
vn -0.1645 -0.5531 0.8167
vn -0.0994 -0.6033 0.7913
vn 0.1099 -0.0896 0.9899
vn 0.0324 -0.0899 0.9954
vn 0.0304 -0.0739 0.9968
vn 0.0115 -0.0513 0.9986
vn -0.4140 0.2340 0.8797
vn 0.0406 -0.0037 0.9992
vn 0.0404 -0.0033 0.9992
vn -0.8327 -0.1814 0.5231
vn -0.0673 -0.0322 0.9972
vn 0.0445 -0.0780 0.9960
vn 0.0540 0.2096 0.9763
vn 0.0657 0.1642 0.9842
vn 0.0263 0.1092 0.9937
vn 0.0746 0.1477 0.9862
vn 0.2770 -0.0621 0.9589
vn 0.0365 0.1334 0.9904
vn 0.0416 0.1354 0.9899
vn 0.0388 -0.7117 0.7014
vn 0.1959 -0.4065 0.8924
vn 0.1398 -0.5118 0.8477
vn 0.0809 0.2043 0.9756
vn 0.0475 -0.5786 0.8142
vn 0.0303 -0.0738 0.9968
vn 0.0547 -0.0707 0.9960
vn 0.0460 -0.0758 0.9961
vn 0.0089 0.0294 0.9995
vn -0.0740 -0.9081 0.4121
vn -0.0103 -0.9127 0.4085
vn 0.0293 0.0577 0.9979
vn 0.0501 -0.0356 0.9981
vn -0.0472 -0.0407 0.9981
vn 0.0591 0.0097 0.9982
vn -0.0545 -0.2305 0.9715
vn 0.0204 0.0194 0.9996
vn 0.1397 -0.3440 0.9285
vn 0.1535 -0.4109 0.8987
vn 0.1638 -0.3831 0.9091
vn 0.1886 -0.4601 0.8676
vn 0.1637 -0.3817 0.9097
vn 0.2336 -0.1328 0.9632
vn -0.3468 -0.7324 0.5859
vn 0.0108 0.0623 0.9980
vn 0.3171 -0.4448 0.8376
vn -0.0729 -0.6261 0.7763
vn -0.0316 -0.6926 0.7207
vn 0.0994 -0.0864 0.9913
vn -0.0276 -0.7151 0.6985
vn 0.3690 -0.2589 0.8927
vn 0.2338 -0.1625 0.9586
vn 0.0240 -0.0671 0.9975
vn -0.0108 -0.4906 0.8713
vn 0.1114 -0.3347 0.9357
vn 0.0032 0.0074 1.0000
vn 0.0016 0.0446 0.9990
vn 0.0492 -0.1366 0.9894
usemtl None
s off
f 1//1 2//1 3//1
f 4//2 6//2 5//2
f 7//3 8//3 5//3
f 9//4 11//4 10//4
f 12//5 11//5 13//5
f 14//6 15//6 16//6
f 15//7 14//7 17//7
f 18//8 15//8 17//8
f 19//9 18//9 20//9
f 21//10 23//10 22//10
f 10//11 25//11 24//11
f 26//12 27//12 2//12
f 2//13 6//13 4//13
f 10//14 24//14 28//14
f 27//15 28//15 24//15
f 29//16 30//16 31//16
f 29//17 32//17 33//17
f 34//18 35//18 36//18
f 35//19 37//19 36//19
f 2//20 24//20 38//20
f 1//21 39//21 2//21
f 40//22 5//22 41//22
f 41//23 5//23 6//23
f 40//24 7//24 5//24
f 38//25 41//25 6//25
f 38//26 6//26 2//26
f 9//27 10//27 42//27
f 43//28 10//28 11//28
f 5//29 44//29 4//29
f 43//30 11//30 45//30
f 46//31 11//31 9//31
f 7//32 47//32 8//32
f 48//33 49//33 47//33
f 50//34 51//34 13//34
f 50//35 13//35 11//35
f 52//36 54//36 53//36
f 53//37 12//37 13//37
f 53//38 13//38 52//38
f 52//39 13//39 51//39
f 52//40 55//40 54//40
f 51//41 56//41 52//41
f 52//42 56//42 55//42
f 57//43 51//43 58//43
f 51//44 57//44 56//44
f 59//45 57//45 58//45
f 56//46 16//46 55//46
f 57//47 60//47 56//47
f 16//48 61//48 55//48
f 62//49 16//49 15//49
f 62//50 63//50 64//50
f 56//51 60//51 16//51
f 63//52 62//52 23//52
f 23//53 62//53 15//53
f 16//54 65//54 14//54
f 16//55 60//55 65//55
f 23//56 66//56 63//56
f 67//57 69//57 68//57
f 21//58 70//58 66//58
f 15//59 18//59 19//59
f 19//60 71//60 23//60
f 19//61 23//61 15//61
f 69//62 23//62 72//62
f 65//63 17//63 14//63
f 67//64 68//64 73//64
f 74//65 23//65 67//65
f 75//66 67//66 73//66
f 22//67 70//67 21//67
f 70//68 22//68 76//68
f 22//69 77//69 78//69
f 22//70 79//70 76//70
f 80//71 79//71 22//71
f 80//72 22//72 81//72
f 82//73 83//73 80//73
f 84//74 81//74 22//74
f 82//75 80//75 85//75
f 80//76 81//76 85//76
f 86//77 83//77 82//77
f 82//78 87//78 86//78
f 88//79 87//79 89//79
f 88//80 86//80 87//80
f 87//81 82//81 90//81
f 91//82 87//82 92//82
f 93//83 94//83 87//83
f 89//84 87//84 94//84
f 87//85 91//85 93//85
f 95//86 93//86 91//86
f 96//87 97//87 93//87
f 94//88 93//88 97//88
f 98//89 93//89 95//89
f 93//90 98//90 99//90
f 93//91 99//91 100//91
f 96//92 102//92 101//92
f 102//93 30//93 101//93
f 102//94 103//94 30//94
f 104//95 30//95 29//95
f 30//96 105//96 31//96
f 29//97 106//97 104//97
f 106//98 29//98 107//98
f 108//99 32//99 29//99
f 33//100 109//100 29//100
f 110//101 34//101 36//101
f 29//102 109//102 34//102
f 110//103 107//103 29//103
f 29//104 34//104 110//104
f 111//105 112//105 36//105
f 111//106 36//106 37//106
f 113//107 110//107 36//107
f 113//108 36//108 114//108
f 115//109 114//109 36//109
f 112//110 116//110 114//110
f 112//111 114//111 115//111
f 112//112 111//112 117//112
f 118//113 119//113 116//113
f 120//114 118//114 116//114
f 120//115 116//115 121//115
f 122//116 118//116 120//116
f 118//117 124//117 123//117
f 125//118 119//118 123//118
f 123//119 126//119 125//119
f 127//120 100//120 99//120
f 128//121 39//121 1//121
f 4//122 3//122 2//122
f 129//123 42//123 10//123
f 130//124 131//124 46//124
f 132//125 65//125 60//125
f 133//126 23//126 74//126
f 133//127 134//127 22//127
f 135//128 77//128 22//128
f 22//129 134//129 135//129
f 82//130 136//130 137//130
f 90//131 82//131 137//131
f 138//132 90//132 139//132
f 138//133 87//133 90//133
f 140//134 85//134 81//134
f 141//135 125//135 126//135
f 125//136 141//136 142//136
f 143//137 116//137 112//137
f 143//138 121//138 116//138
f 61//139 62//139 64//139
f 144//140 112//140 117//140
f 144//141 143//141 112//141
f 2//142 27//142 24//142
f 46//143 131//143 11//143
f 43//144 25//144 10//144
f 123//145 119//145 118//145
f 28//146 27//146 26//146
f 133//147 22//147 23//147
f 21//148 66//148 23//148
f 72//149 23//149 71//149
f 103//150 105//150 30//150
f 49//151 8//151 47//151
f 49//152 5//152 8//152
f 105//153 103//153 145//153
f 82//154 85//154 136//154
f 103//155 102//155 96//155
f 96//156 146//156 103//156
f 146//157 100//157 147//157
f 93//158 100//158 146//158
f 51//159 149//159 148//159
f 51//160 131//160 149//160
f 50//161 131//161 51//161
f 45//162 11//162 12//162
f 50//163 11//163 131//163
f 16//164 62//164 61//164
f 150//165 149//165 131//165
f 29//166 31//166 108//166
f 115//167 36//167 112//167
f 151//168 26//168 2//168
f 151//169 2//169 152//169
f 153//170 140//170 81//170
f 2//171 39//171 152//171
f 61//172 54//172 55//172
f 78//173 154//173 22//173
f 23//174 69//174 67//174
f 155//175 58//175 148//175
f 51//176 148//176 58//176
f 93//177 146//177 96//177
f 103//178 146//178 145//178
f 74//179 67//179 75//179
