# Blender v2.79 (sub 0) OBJ File: ''
# www.blender.org
mtllib my_crack_surf__60.mtl
o my_crack_surf__60
v 130.278000 -6.251051 127.610001
v 139.126999 -15.225418 113.228996
v 146.352005 -11.685719 119.514000
v 152.964005 -4.905501 130.593002
v 160.535995 61.167370 192.155014
v 76.858299 101.322960 233.458008
v 111.428001 69.827469 206.412018
v 3.743970 147.173950 266.253021
v 26.851601 175.986954 265.377045
v -20.094200 175.815948 270.453033
v 126.285004 54.848171 192.483017
v 118.489998 43.831268 184.710007
v 116.240997 55.292168 196.329010
v 143.998993 35.691475 175.604004
v 129.341003 4.988377 143.585007
v 160.985992 9.468405 149.365997
v 162.238998 54.073368 187.181015
v 129.192001 19.738773 159.613007
v 165.138000 31.191572 170.520996
v 146.337006 92.809563 211.275009
v 157.063004 75.247871 200.871017
v 144.175003 97.329163 213.835022
v 133.205002 113.492958 223.822021
v 136.893005 108.158958 220.395020
v 140.315994 102.240959 216.980011
v 130.283005 -17.372118 108.259003
v 103.930000 141.627960 244.861023
v 122.758003 124.278961 231.886017
v 64.378601 114.332962 242.997009
v 82.979897 156.870956 254.835037
v 68.213303 143.116959 252.957031
v 53.208199 133.179947 253.110016
v 31.341101 125.795959 257.042023
v 40.070702 137.802948 257.768036
v 24.316900 127.254951 259.770020
v 58.778301 168.760956 260.362030
v 7.233110 130.521957 263.965027
v -41.486599 123.701958 268.293030
v 42.505199 173.008957 263.165039
v -54.189899 147.255951 271.112030
v -38.672199 173.589951 271.418030
v -59.236401 115.842957 269.149017
v -90.367699 150.579956 271.898041
v -59.027000 170.130951 272.883026
v -89.133202 92.767052 269.407990
v -130.046997 114.189957 270.324036
v -105.242996 100.682953 270.461029
v -106.505997 138.528961 271.850037
v -98.443604 85.607758 269.234985
v -113.169998 65.761955 268.153015
v -126.424004 93.631256 269.429993
v -147.960999 92.076454 269.459015
v -142.371994 98.894257 269.147034
v -136.335999 75.957451 267.725006
v -153.511993 84.870354 269.403015
v -157.705002 69.328255 267.790985
v -127.903999 24.587656 263.660004
v -132.164001 40.555859 264.670990
v -159.119003 66.383255 267.812988
v -164.707001 11.473757 262.997986
v -130.759995 13.774257 262.946991
v -139.757996 -26.963942 259.402008
v -128.567993 -21.450642 259.890991
v -161.878998 -5.682132 261.682007
v -155.035004 -25.287441 260.070007
v -158.126999 -19.160242 259.946991
v -144.029999 -34.733940 259.747009
v 162.608994 15.963675 157.229996
v 164.688995 41.324871 178.626007
v 158.195007 71.373367 198.308014
v 64.751297 166.549957 259.390045
v -23.063299 175.483948 270.693024
v -29.953600 175.080948 271.149017
v -77.381798 161.659958 272.326019
v -163.671997 0.647016 261.869995
v -123.639000 -41.875240 260.071014
v -121.271004 -45.131042 260.407013
v -129.309998 -43.111843 259.924988
v -123.190002 122.523956 270.876038
v -163.703003 60.874256 267.157013
v 163.628006 48.859070 184.001022
v 90.803596 152.340958 251.764038
v 98.392799 146.022949 247.888031
v 163.824005 20.671274 161.925003
vn -0.0295 -0.8560 0.5161
vn -0.0195 -0.8476 0.5303
vn 0.1417 -0.5508 0.8225
vn 0.1075 -0.0561 0.9926
vn 0.2404 -0.6674 0.7048
vn 0.0844 -0.6136 0.7851
vn -0.0270 -0.8183 0.5741
vn 0.0015 -0.7943 0.6075
vn 0.1099 -0.5528 0.8260
vn 0.1038 -0.6018 0.7919
vn 0.0199 -0.7170 0.6968
vn 0.0227 -0.6997 0.7141
vn -0.0262 -0.7155 0.6981
vn 0.0607 -0.7342 0.6762
vn -0.0615 -0.5363 0.8418
vn -0.6371 -0.5875 0.4990
vn 0.1943 -0.4316 0.8809
vn 0.2389 -0.4084 0.8810
vn -0.2449 -0.5870 0.7716
vn 0.1068 -0.4753 0.8733
vn -0.0694 -0.8649 0.4971
vn 0.2337 -0.4068 0.8831
vn 0.2405 -0.4210 0.8746
vn 0.2426 -0.4115 0.8785
vn 0.1911 -0.3398 0.9209
vn 0.2041 -0.3443 0.9164
vn 0.2725 -0.3245 0.9058
vn 0.2382 -0.3458 0.9076
vn 0.2491 -0.2379 0.9388
vn 0.1380 -0.1934 0.9714
vn 0.3071 -0.0826 0.9481
vn 0.2053 -0.1224 0.9710
vn 0.1019 -0.2412 0.9651
vn 0.0966 -0.2432 0.9652
vn 0.2219 -0.0870 0.9712
vn 0.1037 -0.1140 0.9880
vn 0.0532 -0.3999 0.9150
vn 0.1890 -0.1219 0.9744
vn 0.0833 -0.0607 0.9947
vn 0.0595 -0.0257 0.9979
vn 0.0818 -0.0597 0.9949
vn 0.0112 -0.1129 0.9935
vn 0.3968 0.7343 0.5508
vn 0.1525 -0.2081 0.9661
vn 0.0326 -0.0664 0.9973
vn 0.0224 -0.0710 0.9972
vn -0.0288 -0.0594 0.9978
vn -0.0322 -0.0491 0.9983
vn 0.0045 -0.0436 0.9990
vn -0.0021 0.0474 0.9989
vn -0.0945 -0.1736 0.9803
vn 0.0667 -0.0591 0.9960
vn 0.0382 -0.1133 0.9928
vn -0.0729 -0.0824 0.9939
vn -0.0091 -0.1301 0.9915
vn 0.0042 -0.0621 0.9981
vn 0.0061 -0.0674 0.9977
vn -0.0009 -0.0865 0.9963
vn 0.0159 -0.0902 0.9958
vn 0.0066 -0.0754 0.9971
vn 0.0485 0.0445 0.9978
vn 0.0458 0.0192 0.9988
vn -0.9694 -0.0488 0.2404
vn 0.0553 -0.6222 0.7809
vn 0.6565 -0.2733 0.7031
vn -0.0333 -0.4762 0.8787
vn 0.0804 -0.2985 0.9510
vn 0.1282 -0.9557 0.2649
vn 0.0164 -0.0578 0.9982
vn -0.3656 -0.1310 0.9215
vn -0.0415 0.0727 0.9965
vn -0.0340 -0.0494 0.9982
vn 0.2986 -0.2724 0.9147
vn -0.0002 -0.0430 0.9991
vn 0.0832 -0.0740 0.9938
vn 0.1602 -0.8417 0.5156
vn 0.0412 -0.0421 0.9983
vn 0.0049 -0.0762 0.9971
vn 0.0244 -0.0860 0.9960
vn 0.1490 -0.5298 0.8349
vn -0.0429 -0.0015 0.9991
vn 0.0295 -0.0903 0.9955
vn -0.0428 -0.0830 0.9956
vn 0.0290 -0.5531 0.8326
vn -0.5359 -0.5391 0.6498
vn 0.0628 -0.0934 0.9936
vn -0.0003 0.0445 0.9990
vn -0.0220 -0.0173 0.9996
vn -0.0072 0.0110 0.9999
vn -0.0058 0.0287 0.9996
vn 0.1104 -0.4200 0.9008
vn -0.2013 -0.7148 0.6698
vn -0.0281 -0.1353 0.9904
vn -0.7505 -0.3594 0.5546
usemtl None
s off
f 1//1 2//1 3//1
f 1//2 3//2 4//2
f 5//3 6//3 7//3
f 8//4 9//4 10//4
f 11//5 13//5 12//5
f 14//6 11//6 12//6
f 15//7 1//7 4//7
f 16//8 15//8 4//8
f 11//9 17//9 5//9
f 14//10 17//10 11//10
f 14//11 12//11 18//11
f 16//12 19//12 14//12
f 15//13 16//13 14//13
f 15//14 14//14 18//14
f 5//15 21//15 20//15
f 20//16 22//16 5//16
f 23//17 5//17 24//17
f 23//18 6//18 5//18
f 25//19 24//19 5//19
f 25//20 5//20 22//20
f 26//21 2//21 1//21
f 6//22 28//22 27//22
f 23//23 28//23 6//23
f 27//24 29//24 6//24
f 30//25 29//25 27//25
f 30//26 31//26 29//26
f 32//27 33//27 29//27
f 32//28 29//28 31//28
f 32//29 34//29 33//29
f 32//30 31//30 9//30
f 9//31 34//31 32//31
f 35//32 34//32 9//32
f 36//33 31//33 30//33
f 36//34 9//34 31//34
f 37//35 35//35 8//35
f 8//36 38//36 37//36
f 36//37 39//37 9//37
f 9//38 8//38 35//38
f 40//39 8//39 41//39
f 38//40 43//40 42//40
f 41//41 44//41 40//41
f 40//42 43//42 38//42
f 45//43 46//43 47//43
f 46//44 43//44 48//44
f 49//45 45//45 47//45
f 49//46 47//46 50//46
f 51//47 50//47 47//47
f 51//48 47//48 46//48
f 50//49 51//49 52//49
f 53//50 52//50 51//50
f 50//51 52//51 54//51
f 54//52 52//52 55//52
f 56//53 54//53 55//53
f 57//54 50//54 58//54
f 50//55 59//55 58//55
f 57//56 58//56 60//56
f 61//57 57//57 60//57
f 62//58 63//58 61//58
f 62//59 61//59 64//59
f 60//60 64//60 61//60
f 65//61 62//61 66//61
f 62//62 65//62 67//62
f 68//63 19//63 16//63
f 14//64 19//64 69//64
f 21//65 5//65 70//65
f 30//66 71//66 36//66
f 72//67 73//67 41//67
f 41//68 10//68 72//68
f 43//69 40//69 74//69
f 64//70 60//70 75//70
f 76//71 78//71 77//71
f 46//72 53//72 51//72
f 33//73 34//73 35//73
f 46//74 45//74 43//74
f 40//75 38//75 8//75
f 11//76 5//76 13//76
f 45//77 42//77 43//77
f 44//78 74//78 40//78
f 79//79 46//79 48//79
f 7//80 13//80 5//80
f 62//81 76//81 63//81
f 60//82 58//82 59//82
f 60//83 59//83 80//83
f 69//84 17//84 14//84
f 81//85 17//85 69//85
f 10//86 41//86 8//86
f 67//87 76//87 62//87
f 67//88 78//88 76//88
f 56//89 59//89 50//89
f 50//90 54//90 56//90
f 82//91 30//91 83//91
f 30//92 27//92 83//92
f 66//93 62//93 64//93
f 19//94 68//94 84//94
