# Blender v2.79 (sub 0) OBJ File: ''
# www.blender.org
mtllib my_crack_surf__69.mtl
o my_crack_surf__69
v 145.891998 12.664175 152.201996
v 146.923004 19.078773 159.024994
v 161.087006 9.736126 149.220993
v 130.276993 -6.007171 127.394997
v 139.134995 -15.051918 113.169998
v 146.289001 -11.434919 119.483002
v 152.886002 -4.734971 130.216995
v 7.233110 130.521957 263.965027
v 27.009399 176.544952 265.531036
v 4.932960 176.906952 267.974030
v -17.174299 177.399948 270.460022
v 136.018997 62.142670 196.321014
v 118.539001 43.652870 184.718994
v 116.240997 55.292168 196.329010
v 144.003998 35.816475 175.485001
v 137.987000 3.728757 141.636002
v 129.330002 5.105237 143.445999
v 162.063004 54.115269 186.993011
v 144.408997 97.360062 213.787018
v 111.428001 69.828468 206.285019
v 145.856003 31.740772 170.740005
v 165.048004 31.252771 170.362000
v 164.186996 21.031973 161.481995
v 129.785995 -0.652679 135.516006
v 129.181000 19.854574 159.475998
v 157.447998 75.289673 200.833008
v 133.459000 113.461960 223.863022
v 76.377197 101.763962 233.193008
v 130.292999 -17.320217 108.049004
v 108.924004 137.875961 242.510010
v 65.737701 112.846962 241.268021
v 99.545502 145.751953 248.908035
v 58.980801 116.247963 244.583008
v 31.380501 125.783958 256.994019
v 40.062599 137.837952 257.718018
v 60.458599 151.386948 256.811035
v 24.424900 127.255951 259.929016
v 77.784500 162.001953 256.442017
v 63.283298 168.460953 260.045044
v 42.834999 174.092957 263.346039
v -4.889640 136.805954 265.099030
v -2.558490 145.116959 266.540039
v -8.922080 128.248947 265.532043
v -33.860802 175.962952 271.448029
v -0.914283 177.084961 268.712036
v -28.405800 176.705948 271.314026
v -51.483601 172.627960 272.175018
v -41.571098 123.701958 268.168030
v -59.179298 115.903954 268.990021
v -66.261299 168.525955 272.838043
v -97.714897 150.026947 273.047028
v -75.933800 164.498947 272.699036
v -24.101101 177.130951 270.912018
v -98.368797 85.687454 269.027008
v -126.003998 123.266953 271.329041
v -140.951996 107.547951 270.789032
v -113.192001 65.724251 268.144989
v -162.065994 76.704254 269.117004
v -145.268997 71.103951 267.871002
v -123.296997 37.903156 265.302002
v -132.151001 40.585560 264.790985
v -154.729004 54.872459 266.519989
v -130.759995 13.770357 262.908997
v -172.016998 -17.607342 262.872986
v -172.289001 29.715357 265.933014
v -171.337997 18.888956 264.851990
v -160.141998 -21.126442 261.213013
v -139.335999 -39.978340 260.194000
v -127.949997 -30.323242 260.033997
v -168.126007 -31.858643 262.243011
v -112.935997 -64.356346 263.221985
v -151.279999 -69.786148 261.709015
v -93.482498 -90.409546 261.697998
v -116.322998 -102.032043 262.584961
v -108.046997 -74.943047 262.781006
v -124.606003 -94.746849 261.984955
v -96.356796 -102.980049 262.241974
v 164.643997 41.356068 178.442001
v -4.436710 177.365952 268.964020
v -148.445999 102.139954 270.757019
v -169.050003 58.164558 267.651001
v -134.970001 -88.171349 262.035004
v -84.025200 -100.624046 262.520966
v -172.350998 43.045757 267.188995
v -171.981995 23.194256 265.151001
v -172.927994 17.302956 265.088989
v -161.207001 -51.965443 260.924011
v -164.345001 -39.665043 261.627014
v -153.746994 -65.396248 262.309998
v 86.645203 155.946960 253.871033
v 94.084900 150.409958 251.268036
v 163.630997 48.785770 183.725021
vn -0.0058 -0.7281 0.6854
vn -0.0305 -0.8520 0.5227
vn -0.0197 -0.8426 0.5381
vn 0.1083 -0.0803 0.9909
vn 0.1096 -0.0802 0.9907
vn 0.2303 -0.6641 0.7113
vn 0.1044 -0.5975 0.7950
vn -0.0315 -0.7886 0.6141
vn -0.0119 -0.8225 0.5687
vn 0.6043 -0.7712 0.2001
vn -0.0322 -0.7887 0.6139
vn 0.0118 -0.7679 0.6405
vn 0.1001 -0.5986 0.7947
vn 0.1998 -0.4731 0.8580
vn -0.0065 -0.7598 0.6501
vn 0.4378 -0.5904 0.6780
vn -0.0137 -0.7337 0.6794
vn 0.9950 -0.0442 0.0892
vn -0.0018 -0.6558 0.7550
vn -0.0320 -0.7258 0.6872
vn -0.0150 -0.7359 0.6769
vn -0.0273 -0.6801 0.7326
vn 0.0968 -0.4606 0.8823
vn 0.2346 -0.4628 0.8549
vn 0.1661 -0.4395 0.8828
vn 0.1415 -0.5198 0.8425
vn -0.0707 -0.8611 0.5035
vn 0.2312 -0.4331 0.8712
vn 0.2190 -0.4285 0.8766
vn 0.2309 -0.4329 0.8714
vn 0.3119 -0.2792 0.9082
vn 0.2578 -0.3272 0.9091
vn 0.2191 -0.1215 0.9681
vn 0.1478 -0.2076 0.9670
vn 0.1427 -0.1494 0.9784
vn 0.1018 -0.2014 0.9742
vn 0.0032 -0.1717 0.9851
vn 0.0958 0.0052 0.9954
vn 0.7238 -0.3099 0.6164
vn 0.1035 -0.2001 0.9743
vn 0.0738 -0.0872 0.9935
vn 0.2445 -0.0070 0.9696
vn 0.0665 -0.0885 0.9939
vn 0.0380 -0.8601 0.5087
vn 0.0972 -0.5662 0.8185
vn 0.0544 -0.0705 0.9960
vn 0.0907 -0.0757 0.9930
vn 0.0743 -0.0628 0.9953
vn -0.0647 0.1212 0.9905
vn 0.0425 0.4248 0.9043
vn 0.0307 -0.0386 0.9988
vn 0.0637 -0.0686 0.9956
vn 0.0159 -0.0495 0.9986
vn 0.0085 -0.0505 0.9987
vn -0.0823 -0.4451 0.8917
vn -0.1654 -0.3719 0.9134
vn -0.0798 -0.0739 0.9941
vn 0.0332 -0.0683 0.9971
vn 0.0455 -0.0610 0.9971
vn 0.0965 -0.0905 0.9912
vn 0.0177 -0.0545 0.9984
vn 0.0990 -0.1313 0.9864
vn 0.0028 -0.0509 0.9987
vn 0.0655 -0.0608 0.9960
vn 0.0809 0.0354 0.9961
vn -0.0474 0.0724 0.9962
vn -0.0493 0.0704 0.9963
vn 0.0503 -0.0226 0.9985
vn -0.0620 0.0117 0.9980
vn -0.0269 -0.0177 0.9995
vn -0.0314 -0.0561 0.9979
vn 0.0190 0.0389 0.9991
vn 0.0551 -0.6223 0.7809
vn 0.1017 0.5090 0.8548
vn 0.0224 -0.0369 0.9991
vn 0.0524 -0.1131 0.9922
vn 0.0367 0.0503 0.9981
vn -0.0323 0.0506 0.9982
vn 0.3207 -0.2853 0.9032
vn 0.0249 -0.0902 0.9956
vn 0.0683 -0.0454 0.9966
vn -0.0126 -0.7022 0.7118
vn 0.0291 -0.7212 0.6921
vn 0.2164 -0.4263 0.8783
vn 0.1410 -0.3307 0.9332
vn 0.1865 -0.0403 0.9816
vn 0.0566 -0.0426 0.9975
vn 0.1913 -0.0268 0.9812
vn 0.0459 -0.0667 0.9967
vn 0.0565 -0.0513 0.9971
vn 0.2023 -0.0568 0.9777
vn 0.0999 -0.0929 0.9906
vn -0.0047 -0.0802 0.9968
vn -0.0241 -0.0930 0.9954
vn 0.1365 -0.0065 0.9906
vn 0.1787 -0.5150 0.8383
vn 0.0113 -0.0704 0.9975
vn 0.2050 -0.1211 0.9712
vn -0.4383 -0.1273 0.8898
vn -0.1677 -0.5949 0.7861
vn -0.4365 -0.5601 0.7041
vn 0.0289 -0.5524 0.8330
vn -0.0177 0.0929 0.9955
vn 0.1535 -0.2686 0.9509
vn 0.1438 -0.2010 0.9690
vn 0.0423 -0.0946 0.9946
usemtl None
s off
f 1//1 3//1 2//1
f 4//2 5//2 6//2
f 4//3 6//3 7//3
f 8//4 9//4 10//4
f 10//5 11//5 8//5
f 12//6 14//6 13//6
f 12//7 13//7 15//7
f 3//8 1//8 7//8
f 16//9 17//9 4//9
f 16//10 4//10 1//10
f 7//11 1//11 4//11
f 16//12 1//12 17//12
f 12//13 15//13 18//13
f 12//14 19//14 20//14
f 15//15 21//15 22//15
f 21//16 15//16 2//16
f 23//17 2//17 3//17
f 24//18 4//18 17//18
f 21//19 23//19 22//19
f 17//20 1//20 2//20
f 17//21 2//21 25//21
f 21//22 2//22 23//22
f 19//23 12//23 26//23
f 27//24 28//24 20//24
f 19//25 27//25 20//25
f 26//26 12//26 18//26
f 29//27 5//27 4//27
f 28//28 27//28 30//28
f 28//29 32//29 31//29
f 28//30 30//30 32//30
f 33//31 35//31 34//31
f 36//32 35//32 33//32
f 37//33 35//33 9//33
f 38//34 39//34 36//34
f 36//35 9//35 35//35
f 36//36 39//36 40//36
f 41//37 8//37 42//37
f 41//38 43//38 8//38
f 41//39 42//39 43//39
f 36//40 40//40 9//40
f 11//41 43//41 42//41
f 11//42 42//42 8//42
f 44//43 43//43 11//43
f 45//44 11//44 10//44
f 44//45 11//45 46//45
f 44//46 47//46 48//46
f 44//47 48//47 43//47
f 49//48 48//48 50//48
f 51//49 50//49 52//49
f 53//50 46//50 11//50
f 49//51 55//51 54//51
f 48//52 47//52 50//52
f 55//53 56//53 54//53
f 57//54 54//54 58//54
f 57//55 58//55 59//55
f 60//56 62//56 61//56
f 63//57 60//57 61//57
f 63//58 61//58 62//58
f 64//59 63//59 62//59
f 65//60 66//60 62//60
f 64//61 62//61 66//61
f 64//62 67//62 63//62
f 68//63 63//63 67//63
f 63//64 68//64 69//64
f 68//65 67//65 70//65
f 69//66 68//66 71//66
f 72//67 71//67 68//67
f 73//68 75//68 74//68
f 76//69 74//69 75//69
f 76//70 75//70 72//70
f 71//71 72//71 75//71
f 77//72 73//72 74//72
f 78//73 15//73 22//73
f 45//74 79//74 11//74
f 80//75 54//75 56//75
f 81//76 62//76 59//76
f 76//77 72//77 82//77
f 77//78 83//78 73//78
f 34//79 35//79 37//79
f 55//80 49//80 51//80
f 81//81 84//81 62//81
f 25//82 2//82 15//82
f 25//83 15//83 13//83
f 31//84 32//84 33//84
f 32//85 36//85 33//85
f 66//86 85//86 86//86
f 87//87 68//87 88//87
f 89//88 72//88 68//88
f 51//89 49//89 50//89
f 88//90 68//90 70//90
f 86//91 64//91 66//91
f 65//92 62//92 84//92
f 59//93 62//93 60//93
f 59//94 60//94 57//94
f 64//95 70//95 67//95
f 20//96 14//96 12//96
f 80//97 58//97 54//97
f 9//98 8//98 37//98
f 65//99 85//99 66//99
f 90//100 32//100 91//100
f 92//101 18//101 78//101
f 78//102 18//102 15//102
f 87//103 89//103 68//103
f 32//104 90//104 36//104
f 90//105 38//105 36//105
f 81//106 59//106 58//106
