# Blender v2.79 (sub 0) OBJ File: ''
# www.blender.org
mtllib my_crack_surf__108.mtl
o my_crack_surf__108
v 130.276993 -5.630510 127.071999
v 144.977997 -15.986518 111.448997
v 151.285004 -12.249319 118.324997
v 64.021599 114.545959 241.629013
v 66.138100 128.693954 247.622009
v 75.597801 102.476959 232.723022
v 29.127199 131.914948 258.600037
v 27.862700 180.674957 266.168030
v -28.441500 181.451950 272.113037
v 3.743970 147.173950 266.253021
v -41.732300 123.700951 267.930023
v 101.161003 -106.207039 255.546982
v 99.612198 -130.859039 257.281982
v 92.679901 -137.054047 257.583984
v 168.324005 35.039673 173.473007
v 144.005997 36.032974 175.203003
v 156.873993 23.379972 162.393005
v 159.626007 -1.265362 134.487000
v 155.863007 -7.356841 125.829002
v 137.466003 9.043876 147.658997
v 129.315002 5.259917 143.263000
v 129.151001 20.165173 159.108002
v 118.458000 43.945969 184.703995
v 116.240997 55.292168 196.329010
v 159.518005 76.184372 201.056015
v 168.065002 51.308670 184.995010
v 149.360001 93.642059 211.834015
v 111.426003 69.831070 205.963013
v 164.459000 9.254316 148.389008
v 166.570999 20.573874 160.919998
v 155.914001 84.691269 206.253021
v 137.796005 111.534966 222.967010
v 147.973007 97.558563 214.073013
v 130.268997 -17.398617 106.508003
v 111.240997 139.676956 243.463013
v 125.712997 125.642960 232.749008
v 102.912003 148.305954 248.798035
v 97.719803 152.834961 251.390030
v 93.004997 156.699951 253.283035
v 51.734798 126.473961 248.452011
v 50.783298 119.216965 245.896011
v 32.656200 125.398964 255.457016
v 52.634701 133.523956 250.841019
v 54.385899 147.889954 255.391037
v 82.296997 163.382950 256.568024
v 69.493103 157.545959 256.044037
v 68.686897 169.935959 259.883026
v 24.002300 127.252953 259.305023
v 5.472820 138.863953 265.008026
v 7.233110 130.521957 263.965027
v 42.692902 178.172958 264.468018
v -59.265301 174.638962 272.883026
v -39.794899 179.475952 272.489044
v -70.659103 170.401947 273.013031
v -120.543999 134.279953 271.147034
v -103.344002 152.238953 272.949036
v -98.282097 85.779755 268.786987
v -132.054001 123.896957 270.397034
v -143.242996 114.653954 270.367035
v -152.455002 102.578957 270.041016
v -113.192001 65.724251 268.144989
v -127.901001 24.626757 264.044006
v -175.401001 62.598858 268.330994
v -173.222000 67.785553 268.627991
v -169.272003 75.535851 268.885010
v -182.712997 3.268997 263.973999
v -130.759003 13.785757 263.058990
v -180.960999 46.543358 267.230011
v -129.238007 -8.065983 261.161011
v -181.395996 -34.468143 262.718994
v -127.955002 -30.301142 260.424011
v -138.994003 -39.456642 260.841003
v -123.098999 -41.410343 260.747986
v -145.875000 -58.074841 261.553009
v -182.796005 -16.967241 262.924988
v -111.676003 -93.722145 261.886963
v -113.351997 -63.419144 262.901001
v -159.981003 -88.384247 261.653992
v -178.580002 -46.860844 262.217010
v -170.044006 -68.641342 262.255005
v -141.658997 -102.308044 261.688965
v -128.093994 -99.020042 262.068970
v -108.417000 -74.409645 262.686005
v -113.988998 -136.801041 261.752960
v -147.072998 -103.939049 261.283966
v -82.451797 -119.456047 260.490967
v -82.027802 -102.779045 261.324982
v -104.749001 -143.350052 261.983978
v -95.566200 -153.563049 262.052979
v -42.100201 -124.578049 260.466980
v -84.138199 -160.623047 261.894958
v 0.000000 -131.500046 258.830963
v -23.611799 -143.165039 260.718964
v -1.737580 -175.274048 259.815979
v 24.628599 -126.713036 257.213959
v 39.341900 -139.476044 257.127960
v 49.090599 -121.991035 256.754974
v 33.575001 -173.563049 259.270966
v 14.774100 -174.045044 259.592957
v 45.829300 -167.983047 258.824982
v 80.860397 -149.388046 258.127960
v 82.395401 -99.842438 256.536957
v 109.188004 -120.444038 255.587982
v 93.714897 -92.244537 254.933990
v 114.014999 -113.290039 254.666992
v 122.125999 -89.153435 250.363983
v 100.904999 -80.650337 250.915985
v 115.014999 -85.425438 249.828979
v 121.547997 -78.961441 247.746979
v 108.195999 -69.440239 247.122986
v 122.144997 -98.784935 251.823990
v 137.414001 -19.075216 105.125000
v 58.648800 -163.851044 258.445984
v 117.392998 -106.566040 253.724991
v 51.483700 175.900955 263.524017
v 47.917500 176.910950 264.024017
v -174.809006 -57.187042 262.377991
v 65.782303 -160.970047 258.712982
v 102.734001 -128.044052 256.460968
v 112.624001 -62.614143 246.626984
v 117.710999 -68.658836 247.110977
v 1.940330 -175.243042 259.874969
v 4.796490 -175.011047 259.803955
v -114.291000 141.120956 271.934021
v -110.167999 145.893951 272.338043
v -107.001999 148.916962 272.744019
v -59.056198 116.034958 268.649017
v -98.447601 156.766953 272.807037
v -182.796997 -10.163643 263.312012
v -52.855499 -171.703049 260.363983
v -63.433800 -168.700043 260.774963
v -36.373100 -176.134048 260.510956
v -43.575500 -173.062042 260.473969
v 129.619003 -19.971415 99.186996
v -163.567001 -82.894547 261.664001
vn -0.0549 -0.8553 0.5152
vn 0.2489 -0.4091 0.8779
vn 0.1018 -0.1500 0.9834
vn 0.4042 0.2281 0.8858
vn 0.0836 -0.0911 0.9923
vn -0.0204 0.0715 0.9972
vn 0.0222 -0.7000 0.7138
vn -0.0265 -0.8121 0.5829
vn -0.0545 -0.7511 0.6579
vn 0.0811 -0.8248 0.5596
vn 0.2228 -0.8289 0.5131
vn 0.0006 -0.7171 0.6970
vn 0.2467 -0.6696 0.7006
vn 0.0895 -0.6336 0.7685
vn 0.1291 -0.4655 0.8756
vn 0.1830 -0.5002 0.8463
vn -0.0007 -0.7118 0.7024
vn 0.0308 -0.7258 0.6872
vn -0.1081 -0.7286 0.6764
vn -0.0726 -0.6486 0.7576
vn 0.0345 -0.5772 0.8158
vn -0.0312 -0.7282 0.6847
vn 0.0351 -0.5101 0.8594
vn 0.1476 -0.4520 0.8797
vn -0.0288 -0.8292 0.5582
vn 0.1522 -0.4494 0.8803
vn 0.2036 -0.4773 0.8548
vn -0.0832 -0.8649 0.4950
vn 0.3540 -0.3089 0.8828
vn -0.6712 -0.7294 0.1319
vn -0.4697 -0.7776 0.4179
vn 0.3400 -0.3518 0.8721
vn 0.1482 -0.4045 0.9025
vn 0.1066 -0.3427 0.9334
vn 0.3409 -0.3405 0.8763
vn 0.1169 -0.3033 0.9457
vn 0.1051 -0.3312 0.9377
vn 0.1229 -0.3132 0.9417
vn 0.3166 -0.3213 0.8925
vn 0.0928 -0.2892 0.9528
vn 0.1002 -0.3049 0.9471
vn 0.2330 -0.2739 0.9331
vn 0.5372 -0.8428 0.0332
vn 0.1053 -0.2302 0.9674
vn 0.2287 -0.1050 0.9678
vn 0.3490 -0.2470 0.9040
vn 0.0946 -0.1038 0.9901
vn 0.0875 -0.1506 0.9847
vn 0.1018 -0.1267 0.9867
vn 0.0430 -0.0820 0.9957
vn 0.0622 -0.1703 0.9834
vn 0.0420 -0.0824 0.9957
vn -0.0364 -0.0652 0.9972
vn 0.0186 -0.0257 0.9995
vn 0.0107 -0.0400 0.9991
vn 0.0119 -0.0361 0.9993
vn 0.0081 -0.1022 0.9947
vn 0.2564 -0.1623 0.9528
vn 0.0378 -0.1003 0.9942
vn 0.0277 -0.0779 0.9966
vn 0.0709 -0.0814 0.9942
vn 0.0242 -0.0324 0.9992
vn 0.0284 -0.0761 0.9967
vn 0.0621 -0.0295 0.9976
vn 0.0100 0.0335 0.9994
vn 0.0101 0.0345 0.9994
vn -0.4297 -0.0450 0.9019
vn -0.3205 -0.0494 0.9460
vn -0.3379 0.1603 0.9274
vn 0.0389 -0.0223 0.9990
vn 0.0451 -0.0302 0.9985
vn 0.0321 0.0143 0.9994
vn 0.0501 -0.0049 0.9987
vn -0.1302 0.4340 0.8914
vn -0.0053 -0.0045 1.0000
vn -0.0353 -0.0354 0.9988
vn 0.0123 -0.0038 0.9999
vn -0.0357 -0.0217 0.9991
vn 0.1279 -0.6171 0.7764
vn 0.0430 -0.0054 0.9991
vn 0.0060 -0.0423 0.9991
vn 0.0036 -0.0500 0.9987
vn 0.0116 0.0516 0.9986
vn 0.0304 0.0341 0.9990
vn -0.0057 -0.0498 0.9987
vn 0.0340 0.0327 0.9989
vn 0.0490 0.0622 0.9969
vn 0.0700 0.0197 0.9974
vn 0.0545 0.0562 0.9969
vn 0.0164 0.0122 0.9998
vn 0.0156 0.0601 0.9981
vn 0.0084 0.0613 0.9981
vn -0.0028 0.0468 0.9989
vn 0.0035 0.0649 0.9979
vn 0.0371 -0.0459 0.9983
vn 0.1069 0.0631 0.9923
vn 0.0820 0.0873 0.9928
vn 0.1009 0.0598 0.9931
vn 0.1266 0.2538 0.9589
vn 0.2643 0.6113 0.7460
vn 0.1449 0.1204 0.9821
vn 0.1351 0.1774 0.9748
vn 0.1278 0.2423 0.9617
vn 0.1214 0.1490 0.9814
vn -0.0961 -0.8443 0.5272
vn 0.0096 0.0616 0.9981
vn 0.1130 0.0820 0.9902
vn -0.1402 -0.7904 0.5964
vn 0.4525 0.1789 0.8736
vn 0.0002 0.0502 0.9987
vn 0.5255 -0.3575 0.7721
vn 0.0591 0.2514 0.9661
vn 0.1136 0.1698 0.9789
vn -0.0050 0.0757 0.9971
vn -0.0181 0.4898 0.8716
vn 0.2960 -0.3718 0.8799
vn 0.5905 -0.6776 0.4383
vn -0.2105 -0.7429 0.6354
vn -0.0539 -0.0684 0.9962
vn 0.0488 -0.0587 0.9971
vn -0.0483 0.0835 0.9953
vn 0.7648 -0.0365 0.6433
vn 0.0167 0.0254 0.9995
vn -0.0037 0.0602 0.9982
vn 0.2550 -0.0668 0.9646
vn -0.0019 -0.1420 0.9899
vn 0.0600 0.0316 0.9977
vn 0.2006 -0.4286 0.8810
vn -0.0548 -0.0370 0.9978
vn 0.0488 0.0277 0.9984
vn -0.0067 -0.0037 1.0000
vn 0.0204 -0.0142 0.9997
vn 0.1430 -0.1816 0.9729
vn 0.0684 -0.1453 0.9870
vn 0.0009 0.0225 0.9997
vn -0.0150 -0.0555 0.9983
vn 0.0153 0.0603 0.9981
vn -0.0129 0.0008 0.9999
vn -0.0449 0.0185 0.9988
vn -0.0293 0.0376 0.9989
vn -0.1520 -0.9282 0.3397
vn 0.2378 -0.0954 0.9666
vn 0.0005 -0.0430 0.9991
vn -0.0119 -0.0003 0.9999
vn 0.3185 -0.2663 0.9097
vn -0.0042 0.0053 1.0000
vn 0.0003 -0.0023 1.0000
vn -0.1940 -0.1285 0.9726
vn 0.0434 -0.0815 0.9957
vn 0.0727 -0.5232 0.8491
vn 0.0053 -0.0458 0.9989
vn 0.0609 -0.0440 0.9972
vn 0.1449 -0.3278 0.9336
vn 0.2003 -0.4284 0.8811
usemtl None
s off
f 1//1 2//1 3//1
f 4//2 6//2 5//2
f 7//3 8//3 9//3
f 10//4 7//4 9//4
f 11//5 10//5 9//5
f 12//6 14//6 13//6
f 15//7 16//7 17//7
f 18//8 1//8 19//8
f 17//9 1//9 18//9
f 20//10 21//10 1//10
f 17//11 20//11 1//11
f 17//12 22//12 20//12
f 23//13 25//13 24//13
f 16//14 26//14 23//14
f 27//15 24//15 25//15
f 24//16 27//16 28//16
f 22//17 17//17 16//17
f 23//18 22//18 16//18
f 29//19 30//19 17//19
f 15//20 17//20 30//20
f 26//21 16//21 15//21
f 21//22 20//22 22//22
f 27//23 25//23 31//23
f 27//24 32//24 28//24
f 19//25 1//25 3//25
f 27//26 33//26 32//26
f 28//27 32//27 6//27
f 34//28 2//28 1//28
f 32//29 36//29 35//29
f 37//30 32//30 35//30
f 37//31 38//31 39//31
f 40//32 42//32 41//32
f 41//33 4//33 5//33
f 41//34 5//34 40//34
f 43//35 42//35 40//35
f 39//36 43//36 5//36
f 43//37 40//37 5//37
f 43//38 39//38 44//38
f 43//39 44//39 7//39
f 45//40 47//40 46//40
f 46//41 39//41 45//41
f 47//42 7//42 46//42
f 46//43 7//43 44//43
f 39//44 46//44 44//44
f 10//45 48//45 7//45
f 48//46 42//46 7//46
f 49//47 11//47 50//47
f 7//48 51//48 8//48
f 11//49 49//49 10//49
f 52//50 11//50 9//50
f 52//51 9//51 53//51
f 52//52 54//52 11//52
f 55//53 57//53 56//53
f 58//54 59//54 57//54
f 57//55 60//55 61//55
f 57//56 59//56 60//56
f 61//57 63//57 62//57
f 64//58 63//58 65//58
f 62//59 66//59 67//59
f 62//60 63//60 68//60
f 67//61 70//61 69//61
f 66//62 70//62 67//62
f 66//63 62//63 68//63
f 69//64 72//64 71//64
f 73//65 71//65 72//65
f 73//66 72//66 74//66
f 66//67 75//67 70//67
f 73//68 76//68 77//68
f 74//69 72//69 78//69
f 69//70 79//70 72//70
f 69//71 70//71 79//71
f 80//72 72//72 79//72
f 80//73 78//73 72//73
f 76//74 81//74 82//74
f 78//75 81//75 76//75
f 77//76 76//76 83//76
f 84//77 76//77 82//77
f 84//78 82//78 85//78
f 81//79 85//79 82//79
f 86//80 76//80 84//80
f 83//81 76//81 87//81
f 86//82 87//82 76//82
f 88//83 86//83 84//83
f 86//84 88//84 89//84
f 90//85 87//85 86//85
f 86//86 89//86 91//86
f 92//87 90//87 93//87
f 93//88 94//88 92//88
f 95//89 92//89 96//89
f 96//90 97//90 95//90
f 98//91 96//91 99//91
f 98//92 100//92 96//92
f 97//93 101//93 14//93
f 97//94 14//94 12//94
f 102//95 97//95 12//95
f 103//96 12//96 13//96
f 102//97 12//97 104//97
f 103//98 105//98 12//98
f 106//99 107//99 104//99
f 106//100 108//100 107//100
f 106//101 104//101 12//101
f 109//102 107//102 108//102
f 110//103 107//103 109//103
f 106//104 12//104 111//104
f 112//105 2//105 34//105
f 113//106 96//106 100//106
f 114//107 12//107 105//107
f 115//108 116//108 51//108
f 80//109 79//109 117//109
f 118//110 101//110 97//110
f 119//111 103//111 13//111
f 106//112 109//112 108//112
f 114//113 111//113 12//113
f 110//114 121//114 120//114
f 122//115 123//115 94//115
f 124//116 55//116 56//116
f 56//117 126//117 125//117
f 29//118 17//118 18//118
f 85//119 81//119 78//119
f 57//120 127//120 56//120
f 128//121 56//121 54//121
f 129//122 75//122 66//122
f 73//123 74//123 76//123
f 121//124 110//124 109//124
f 48//125 49//125 50//125
f 91//126 131//126 130//126
f 86//127 91//127 130//127
f 32//128 37//128 6//128
f 56//129 125//129 124//129
f 123//130 96//130 92//130
f 132//131 93//131 133//131
f 132//132 94//132 93//132
f 115//133 7//133 47//133
f 7//134 115//134 51//134
f 123//135 92//135 94//135
f 55//136 58//136 57//136
f 123//137 99//137 96//137
f 93//138 90//138 130//138
f 96//139 113//139 118//139
f 97//140 96//140 118//140
f 112//141 34//141 134//141
f 10//142 49//142 48//142
f 63//143 60//143 65//143
f 133//144 93//144 130//144
f 43//145 7//145 42//145
f 78//146 76//146 74//146
f 86//147 130//147 90//147
f 78//148 80//148 135//148
f 54//149 56//149 11//149
f 25//150 23//150 26//150
f 61//151 60//151 63//151
f 11//152 56//152 127//152
f 37//153 39//153 5//153
f 37//154 5//154 6//154
