# Blender v2.79 (sub 0) OBJ File: ''
# www.blender.org
mtllib my_crack_surf__27.mtl
o my_crack_surf__27
v 132.653000 105.379959 219.782013
v 120.305000 118.855965 229.254013
v 98.452202 81.643364 218.505020
v 88.540604 113.089958 235.086014
v 130.276001 -7.696081 128.873993
v 129.210999 19.548874 159.837997
v 157.705002 4.155647 144.548996
v 161.533005 40.454571 178.093002
v 149.188995 76.611969 204.379013
v 142.431000 89.450569 210.668015
v 127.662003 71.219269 206.349014
v 116.327003 55.035370 196.554016
v 122.771004 47.119370 188.535019
v 161.895004 19.582773 162.869003
v 146.016998 -12.275419 119.915001
v 130.268005 -17.146816 108.906998
v 111.435997 69.815468 207.664017
v 64.666603 114.134964 244.960022
v 67.688400 153.669952 254.208023
v 79.085701 122.835960 242.615021
v 94.948898 138.332947 243.449020
v 86.102303 135.612961 243.668015
v 30.789801 158.279953 262.940033
v 8.374640 130.649948 267.105042
v 138.511002 96.994461 215.142014
v 117.387001 122.167961 231.193008
v 110.396004 127.864960 235.982010
v 112.349998 121.207962 232.752014
v 1.124100 151.855957 266.965027
v -17.696501 127.064957 267.318024
v 109.191002 117.435959 231.252014
v -15.152500 133.507950 267.700043
v 83.127701 145.771957 248.368027
vn 0.2435 -0.3984 0.8843
vn 0.2347 -0.3945 0.8884
vn -0.0521 -0.7506 0.6587
vn -0.0618 -0.6006 0.7972
vn 0.1736 -0.3580 0.9174
vn -0.0330 -0.7244 0.6886
vn 0.4606 -0.5862 0.6665
vn 0.2287 -0.6475 0.7269
vn -0.0596 -0.7568 0.6509
vn -0.0195 -0.9037 0.4277
vn -0.0741 -0.5885 0.8051
vn 0.2116 -0.3843 0.8986
vn 0.1160 -0.5989 0.7924
vn 0.3448 -0.3505 0.8708
vn 0.2947 -0.2390 0.9252
vn 0.0598 -0.1145 0.9916
vn 0.3468 -0.3391 0.8745
vn 0.3151 -0.3696 0.8741
vn 0.1955 -0.2375 0.9515
vn 0.3306 -0.1272 0.9352
vn -0.1782 -0.5688 0.8029
vn 0.3359 -0.3295 0.8824
vn 0.0069 0.0090 0.9999
vn 0.2340 -0.3852 0.8927
vn 0.1460 -0.4226 0.8945
vn 0.0701 -0.4187 0.9054
vn 0.2430 -0.3601 0.9007
vn 0.1678 0.0700 0.9833
vn 0.1960 -0.1350 0.9713
vn 0.3397 -0.5792 0.7410
vn 0.2089 -0.3505 0.9130
vn 0.1400 -0.3817 0.9136
vn 0.3941 -0.2883 0.8727
vn 0.2150 -0.2731 0.9377
vn 0.1239 0.0489 0.9911
vn 0.0589 -0.8431 0.5344
vn 0.1162 -0.6055 0.7873
vn 0.4249 -0.4499 0.7855
usemtl None
s off
f 1//1 2//1 3//1
f 4//2 3//2 2//2
f 5//3 7//3 6//3
f 6//4 8//4 9//4
f 10//5 11//5 9//5
f 12//6 6//6 13//6
f 13//7 6//7 11//7
f 9//8 11//8 6//8
f 7//9 14//9 6//9
f 5//10 16//10 15//10
f 6//11 14//11 8//11
f 10//12 1//12 11//12
f 3//13 17//13 11//13
f 18//14 3//14 4//14
f 18//15 20//15 19//15
f 21//16 22//16 20//16
f 18//17 4//17 20//17
f 21//18 20//18 4//18
f 19//19 23//19 18//19
f 18//20 23//20 24//20
f 25//21 1//21 10//21
f 26//22 27//22 28//22
f 29//23 30//23 24//23
f 11//24 1//24 3//24
f 27//25 21//25 31//25
f 27//26 31//26 28//26
f 31//27 21//27 4//27
f 31//28 4//28 2//28
f 32//29 30//29 29//29
f 26//30 28//30 31//30
f 26//31 31//31 2//31
f 21//32 33//32 22//32
f 33//33 20//33 22//33
f 33//34 19//34 20//34
f 23//35 29//35 24//35
f 7//36 5//36 15//36
f 13//37 11//37 17//37
f 17//38 12//38 13//38
