# Blender v2.79 (sub 0) OBJ File: ''
# www.blender.org
mtllib my_crack_surf__124.mtl
o my_crack_surf__124
v 145.990997 13.432876 151.701996
v 129.147995 20.194073 159.074005
v 156.684998 21.361374 159.927002
v 167.201004 13.315475 152.951996
v 164.852005 4.618587 142.459000
v 159.514008 -3.525512 131.104004
v 152.895004 -11.910919 117.681000
v 137.345993 -0.351610 134.910004
v 130.274002 -9.558450 120.223999
v 138.957001 -14.384918 113.070000
v 88.613403 112.866959 235.307022
v 135.319000 115.646965 225.950012
v 113.057999 142.109955 243.481033
v -104.862000 154.151947 273.364044
v -125.523003 124.125954 270.821045
v -105.225998 100.685951 270.008026
v 147.666000 -15.790718 110.497002
v 63.999100 114.559959 241.540009
v 66.096199 128.718948 247.457016
v 124.742996 60.526768 197.288010
v 118.478996 43.870571 184.707993
v 116.240997 55.292168 196.329010
v 137.076996 51.968769 188.871017
v 144.005997 35.980473 175.261993
v 169.931000 34.808773 173.035995
v 153.326996 40.731571 177.384995
v 168.912994 26.734673 166.647995
v 13.895500 161.208954 265.419037
v 26.159700 173.879959 265.098022
v 18.015900 172.903961 266.003021
v 161.576996 76.411766 200.990021
v 29.400999 132.390961 258.156036
v 3.743970 147.173950 266.253021
v 20.937099 181.885956 267.026031
v -19.562201 182.966949 271.295044
v -7.982640 182.507950 270.058044
v -12.101900 182.710953 270.531036
v 39.307701 -139.488052 257.079956
v 0.000000 -131.500046 258.828979
v -23.602600 -143.134048 260.610962
v 26.731300 -179.517044 259.802979
v 42.068401 -178.064041 259.655975
v 64.387100 -170.220047 259.265961
v 151.947998 94.592064 212.161011
v 168.261002 19.744473 159.679993
v 130.276993 -5.468201 126.939003
v 129.304001 5.374287 143.128006
v 170.682999 51.444069 184.761017
v 156.177002 87.458870 207.655014
v 111.426003 69.831467 205.909012
v 157.376007 -7.569090 124.987999
v 75.523003 102.545959 232.679016
v 142.246002 107.313965 220.337021
v 130.266998 -16.849916 106.063004
v 139.692001 -19.111618 102.927002
v 129.248993 -21.461716 96.357002
v 52.481998 133.615952 250.237015
v 50.667900 119.286964 245.440018
v 38.052101 123.584961 252.170013
v 95.050598 158.417953 253.049026
v 54.302898 147.939957 255.061035
v 69.871002 171.668961 260.001038
v 83.618896 164.636948 256.418030
v 5.474340 138.861954 265.018036
v -41.778999 123.699951 267.861023
v 7.233110 130.521957 263.965027
v 35.150299 181.218948 265.475037
v -48.056099 179.966949 272.887024
v -59.022499 116.070953 268.555023
v -27.590599 183.147949 272.113037
v -98.260498 85.802757 268.726990
v -61.926498 175.820953 273.048035
v -82.829597 168.232956 273.101044
v -143.600998 115.510956 271.001038
v -159.084000 97.278053 269.810028
v -153.796005 104.436951 270.152039
v -174.483002 71.789154 269.074005
v -127.900002 24.631456 264.089996
v -181.966995 50.038658 267.708008
v -144.457001 -14.359843 261.513000
v -130.757996 13.792157 263.122009
v -129.238998 -8.062043 261.230988
v -176.029007 -24.422342 262.554993
v -184.100006 35.564659 266.565002
v -127.956001 -30.295242 260.528015
v -123.099998 -41.409843 260.757996
v -176.179001 -69.490448 262.627014
v -164.289993 -90.545746 262.339996
v -135.871002 -121.338043 261.994965
v -118.257004 -52.465443 262.028992
v -102.922997 -125.154045 261.182983
v -108.404999 -74.428642 262.656006
v -113.347000 -63.432941 262.872009
v -42.049301 -124.596046 260.465973
v -82.023598 -102.782043 261.324982
v -98.135498 -157.126053 262.410980
v -21.092501 -128.025040 260.038971
v 24.629299 -126.713036 257.249969
v -26.098400 -158.248047 259.822968
v 2.528330 -178.541046 260.215973
v 36.845299 -124.358040 257.374969
v 49.047600 -122.010040 256.785980
v 71.296402 -107.297035 256.947968
v 86.828003 -159.819046 258.633972
v 86.671097 -134.632050 256.895966
v 114.824997 -133.177048 256.020966
v 105.584000 -141.390045 257.406982
v 82.504898 -99.769936 256.371979
v 93.657402 -92.300835 254.185989
v 119.709000 -126.432037 255.086990
v 108.211998 -69.366539 248.230988
v 136.781006 -105.314041 251.431992
v 147.796997 -84.717339 247.452988
v 150.880005 -59.062138 242.764984
v 122.726997 -47.126038 243.517990
v 150.014008 -74.081741 245.582977
v 142.384995 -95.748436 249.613983
v 150.656998 -64.873138 243.575989
v 144.087006 -27.613039 237.164001
v 147.072006 -33.685638 238.556000
v 150.173996 -45.232338 240.936996
v 127.448997 -13.294638 234.994003
v -87.413498 -165.173050 262.395966
v -64.858200 -172.979050 260.977966
v 158.731995 82.501968 204.712021
v 88.723801 161.890961 254.952026
v -185.535995 -30.156542 263.093994
v -184.149994 -35.203541 263.019012
v -184.753998 -1.525813 263.919006
v -183.667999 -41.198242 263.018005
v -180.901993 -53.413742 262.734009
v -181.468002 -47.582340 262.757996
v 137.720001 -20.802837 235.934006
v 130.421997 -114.389038 253.161987
v 168.494003 21.980673 162.110001
v -183.904999 15.507757 265.056000
v 23.758699 127.250954 258.945038
v -95.495697 160.424957 273.128021
v -177.315002 65.311050 268.618011
v -32.806400 -180.655045 260.804962
v -124.583000 133.093948 271.791016
v -151.194000 -106.727043 262.374969
v -113.192001 65.724251 268.144989
v -167.292999 84.451256 269.513000
v 151.306000 -52.142639 242.100983
v 58.303299 175.936951 262.169037
vn 0.0095 -0.7261 0.6876
vn -0.1400 -0.7467 0.6502
vn -0.0279 -0.8415 0.5395
vn -0.0275 -0.8438 0.5359
vn 0.2023 -0.4168 0.8862
vn -0.0321 -0.0624 0.9975
vn -0.0013 -0.8795 0.4759
vn 0.1986 -0.4028 0.8935
vn 0.3185 -0.6447 0.6949
vn 0.0975 -0.6229 0.7762
vn 0.0961 -0.6207 0.7781
vn -0.0152 -0.6192 0.7851
vn 0.1209 -0.0919 0.9884
vn 0.0039 -0.7567 0.6537
vn 0.1458 -0.8002 0.5818
vn 0.1617 -0.5637 0.8100
vn 0.1321 -0.6087 0.7823
vn 0.2381 -0.1149 0.9644
vn 0.8708 -0.3252 0.3688
vn 0.3315 -0.1848 0.9252
vn 0.1272 -0.1530 0.9800
vn 0.0568 -0.6375 0.7684
vn 0.0534 0.0444 0.9976
vn 0.0530 0.0512 0.9973
vn -0.0058 0.0662 0.9978
vn 0.1168 -0.4743 0.8726
vn -0.0182 -0.7074 0.7066
vn 0.0869 -0.5436 0.8348
vn -0.0826 -0.6997 0.7097
vn -0.0244 -0.8313 0.5553
vn -0.0136 -0.8360 0.5486
vn -0.0303 -0.8536 0.5200
vn 0.0084 -0.5763 0.8172
vn -0.0162 -0.5491 0.8356
vn -0.0263 -0.7660 0.6423
vn 0.1730 -0.7206 0.6714
vn 0.0148 -0.7940 0.6078
vn 0.2396 -0.4130 0.8786
vn 0.1197 -0.4760 0.8712
vn 0.2128 -0.4826 0.8496
vn -0.1991 -0.7840 0.5879
vn 0.2038 -0.4763 0.8554
vn 0.1998 -0.4783 0.8552
vn 0.3960 -0.2633 0.8797
vn -0.1162 -0.8830 0.4547
vn -0.0788 -0.9058 0.4164
vn -0.0220 -0.9068 0.4210
vn 0.1924 -0.4100 0.8915
vn -0.0710 -0.8980 0.4342
vn 0.3512 -0.3369 0.8736
vn 0.1247 -0.3982 0.9088
vn 0.0755 -0.3251 0.9426
vn 0.0967 -0.2744 0.9567
vn 0.3242 -0.2930 0.8995
vn 0.1313 -0.3314 0.9343
vn 0.3214 -0.3387 0.8843
vn 0.1103 -0.2714 0.9561
vn 0.1216 -0.2906 0.9491
vn 0.2044 -0.1344 0.9696
vn 0.2518 -0.0907 0.9635
vn 0.0998 -0.1259 0.9870
vn 0.0934 -0.1053 0.9900
vn 0.1824 -0.1965 0.9634
vn -0.2737 0.2882 0.9176
vn 0.0765 -0.0802 0.9938
vn 0.0989 -0.1715 0.9802
vn 0.0755 -0.0804 0.9939
vn 0.0552 -0.1135 0.9920
vn 0.0523 -0.0629 0.9966
vn 0.0424 -0.0748 0.9963
vn 0.0518 -0.0615 0.9968
vn 0.1031 -0.0726 0.9920
vn 0.0994 -0.0750 0.9922
vn 0.0178 -0.0206 0.9996
vn -0.0098 0.0340 0.9994
vn 0.0187 -0.0184 0.9997
vn 0.0005 -0.0656 0.9978
vn -0.1564 0.0685 0.9853
vn 0.0481 -0.0579 0.9972
vn 0.0321 -0.0736 0.9968
vn 0.0526 -0.0825 0.9952
vn 0.0364 -0.0747 0.9965
vn 0.0535 -0.0647 0.9965
vn -0.0429 -0.0724 0.9965
vn 0.0308 -0.0298 0.9991
vn 0.1361 0.0799 0.9875
vn 0.0335 -0.0015 0.9994
vn 0.0344 0.0015 0.9994
vn 0.0326 0.0048 0.9995
vn -0.1640 0.0415 0.9856
vn 0.0239 -0.0066 0.9997
vn -0.1666 -0.0466 0.9849
vn -0.9121 -0.4096 -0.0166
vn 0.0119 -0.0175 0.9998
vn 0.0218 -0.0267 0.9994
vn 0.0296 0.0428 0.9986
vn 0.0258 0.0335 0.9991
vn 0.0618 0.0275 0.9977
vn 0.0544 0.0492 0.9973
vn 0.0189 0.0460 0.9988
vn -0.0193 -0.0489 0.9986
vn -0.0063 -0.0205 0.9998
vn 0.0504 -0.0113 0.9987
vn 0.0032 0.0669 0.9978
vn 0.1261 0.0691 0.9896
vn -0.0035 0.0681 0.9977
vn -0.0291 0.0330 0.9990
vn -0.0217 0.0257 0.9994
vn 0.0235 0.1406 0.9898
vn 0.0382 0.0196 0.9991
vn 0.1696 0.0351 0.9849
vn 0.0247 0.1196 0.9925
vn 0.0772 0.1491 0.9858
vn 0.0849 0.1692 0.9819
vn 0.0899 0.1500 0.9846
vn -0.0766 0.1881 0.9792
vn -0.0597 0.2200 0.9737
vn 0.9280 0.0164 0.3723
vn -0.1011 0.1748 0.9794
vn 0.0748 0.2338 0.9694
vn 0.0751 0.2335 0.9694
vn 0.0340 0.0434 0.9985
vn 0.0843 0.0628 0.9945
vn -0.1935 -0.7519 0.6302
vn -0.2738 -0.5914 0.7585
vn -0.2308 -0.7561 0.6124
vn 0.0562 0.0006 0.9984
vn 0.0751 -0.0308 0.9967
vn 0.0517 0.0040 0.9987
vn 0.0388 -0.0003 0.9992
vn 0.0278 0.0015 0.9996
vn 0.1216 0.2854 0.9506
vn -0.0042 0.1901 0.9818
vn 0.0192 0.1412 0.9898
vn -0.9923 -0.0276 0.1206
vn -0.0024 0.0688 0.9976
vn 0.1024 -0.0728 0.9921
vn -0.0669 -0.0755 0.9949
vn 0.2788 -0.0622 0.9583
vn 0.0282 -0.7284 0.6845
vn -0.2361 0.3860 0.8918
vn 0.0851 -0.0113 0.9963
vn 0.2061 -0.4899 0.8471
vn -0.0811 -0.0346 0.9961
vn -0.0166 -0.0658 0.9977
vn 0.0835 0.1348 0.9873
vn 0.1766 -0.3457 0.9216
vn 0.1882 -0.4597 0.8679
vn 0.2436 -0.1197 0.9624
vn -0.0848 -0.7137 0.6953
vn 0.0221 -0.0947 0.9953
vn 0.0054 0.0000 1.0000
vn -0.0516 -0.0435 0.9977
vn 0.0642 -0.1140 0.9914
vn 0.0324 0.0341 0.9989
vn 0.0119 -0.0135 0.9998
vn 0.0143 0.0395 0.9991
vn 0.3594 -0.2568 0.8972
vn 0.0343 0.0100 0.9994
vn 0.0182 0.0169 0.9997
vn 0.1725 -0.5709 0.8027
vn -0.0252 -0.0892 0.9957
vn 0.1565 -0.1228 0.9800
vn 0.0108 -0.0370 0.9993
vn 0.0017 -0.0850 0.9964
vn -0.3043 0.1095 0.9463
vn 0.0399 -0.1116 0.9930
vn 0.1166 0.1796 0.9768
vn 0.0789 0.0507 0.9956
vn 0.0857 -0.2567 0.9627
vn 0.0792 -0.2559 0.9634
usemtl None
s off
f 1//1 3//1 2//1
f 4//2 3//2 5//2
f 6//3 8//3 7//3
f 9//4 10//4 7//4
f 11//5 12//5 13//5
f 14//6 15//6 16//6
f 7//7 10//7 17//7
f 18//8 11//8 19//8
f 20//9 22//9 21//9
f 20//10 21//10 23//10
f 24//11 23//11 21//11
f 25//12 26//12 27//12
f 28//13 29//13 30//13
f 3//14 8//14 6//14
f 3//15 1//15 8//15
f 23//16 31//16 20//16
f 24//17 26//17 23//17
f 32//18 28//18 33//18
f 34//19 28//19 30//19
f 34//20 33//20 28//20
f 34//21 30//21 29//21
f 35//22 36//22 37//22
f 38//23 39//23 40//23
f 38//24 40//24 41//24
f 38//25 42//25 43//25
f 44//26 20//26 31//26
f 2//27 27//27 24//27
f 24//28 27//28 26//28
f 3//29 45//29 27//29
f 8//30 47//30 46//30
f 46//31 7//31 8//31
f 46//32 9//32 7//32
f 48//33 26//33 25//33
f 31//34 26//34 48//34
f 2//35 8//35 1//35
f 47//36 8//36 2//36
f 2//37 3//37 27//37
f 44//38 31//38 49//38
f 44//39 12//39 20//39
f 50//40 20//40 12//40
f 7//41 51//41 6//41
f 50//42 11//42 52//42
f 50//43 12//43 11//43
f 53//44 12//44 44//44
f 9//45 54//45 10//45
f 55//46 10//46 54//46
f 55//47 17//47 10//47
f 19//48 11//48 13//48
f 56//49 55//49 54//49
f 57//50 59//50 58//50
f 58//51 18//51 19//51
f 58//52 19//52 57//52
f 60//53 57//53 19//53
f 57//54 32//54 59//54
f 57//55 60//55 61//55
f 57//56 61//56 32//56
f 62//57 61//57 63//57
f 60//58 63//58 61//58
f 61//59 28//59 32//59
f 64//60 32//60 33//60
f 64//61 33//61 65//61
f 65//62 66//62 64//62
f 61//63 67//63 28//63
f 28//64 67//64 29//64
f 68//65 65//65 33//65
f 67//66 34//66 29//66
f 68//67 69//67 65//67
f 68//68 33//68 70//68
f 16//69 69//69 14//69
f 68//70 14//70 69//70
f 16//71 71//71 69//71
f 33//72 36//72 35//72
f 35//73 70//73 33//73
f 68//74 72//74 14//74
f 72//75 73//75 14//75
f 15//76 74//76 16//76
f 16//77 74//77 75//77
f 76//78 75//78 74//78
f 77//79 78//79 75//79
f 78//80 77//80 79//80
f 80//81 82//81 81//81
f 80//82 81//82 79//82
f 79//83 83//83 80//83
f 84//84 83//84 79//84
f 85//85 82//85 80//85
f 85//86 80//86 86//86
f 80//87 83//87 86//87
f 87//88 86//88 83//88
f 86//89 87//89 88//89
f 86//90 89//90 90//90
f 91//91 90//91 89//91
f 91//92 92//92 90//92
f 93//93 90//93 92//93
f 94//94 95//94 91//94
f 92//95 91//95 95//95
f 96//96 91//96 89//96
f 94//97 40//97 97//97
f 40//98 39//98 97//98
f 98//99 39//99 38//99
f 99//100 100//100 41//100
f 99//101 41//101 40//101
f 38//102 101//102 98//102
f 101//103 38//103 102//103
f 41//104 42//104 38//104
f 103//105 104//105 105//105
f 38//106 43//106 104//106
f 103//107 102//107 38//107
f 38//108 104//108 103//108
f 106//109 105//109 107//109
f 108//110 103//110 105//110
f 108//111 105//111 109//111
f 105//112 106//112 110//112
f 111//113 112//113 113//113
f 114//114 111//114 113//114
f 114//115 115//115 111//115
f 116//116 114//116 113//116
f 117//117 113//117 112//117
f 118//118 114//118 116//118
f 119//119 121//119 120//119
f 115//120 119//120 122//120
f 121//121 119//121 115//121
f 123//122 91//122 96//122
f 123//123 124//123 91//123
f 3//124 6//124 5//124
f 125//125 49//125 31//125
f 63//126 60//126 126//126
f 83//127 127//127 128//127
f 83//128 129//128 127//128
f 130//129 83//129 128//129
f 131//130 83//130 132//130
f 131//131 87//131 83//131
f 133//132 122//132 119//132
f 134//133 112//133 105//133
f 134//134 105//134 110//134
f 135//135 27//135 45//135
f 104//136 107//136 105//136
f 33//137 34//137 36//137
f 84//138 136//138 83//138
f 137//139 64//139 66//139
f 2//140 24//140 21//140
f 14//141 73//141 138//141
f 130//142 132//142 83//142
f 50//143 22//143 20//143
f 139//144 79//144 77//144
f 136//145 129//145 83//145
f 121//146 115//146 114//146
f 13//147 60//147 19//147
f 52//148 11//148 18//148
f 32//149 64//149 137//149
f 3//150 4//150 45//150
f 78//151 79//151 81//151
f 140//152 91//152 124//152
f 99//153 40//153 94//153
f 141//154 74//154 15//154
f 99//155 91//155 140//155
f 99//156 94//156 91//156
f 100//157 99//157 140//157
f 137//158 59//158 32//158
f 142//159 89//159 86//159
f 86//160 88//160 142//160
f 31//161 23//161 26//161
f 75//162 78//162 143//162
f 144//163 77//163 75//163
f 71//164 75//164 143//164
f 16//165 75//165 71//165
f 145//166 121//166 114//166
f 141//167 15//167 14//167
f 112//168 111//168 109//168
f 112//169 109//169 105//169
f 62//170 146//170 61//170
f 61//171 146//171 67//171
