# Blender v2.79 (sub 0) OBJ File: ''
# www.blender.org
mtllib my_crack_surf__153.mtl
o my_crack_surf__153
v 130.274002 -9.287970 120.000999
v 144.369003 -17.314817 103.990997
v 147.647995 -10.785719 119.125000
v 155.606003 96.402359 213.286011
v 121.136002 82.147263 210.768021
v 101.976997 78.440765 213.025009
v 124.292999 134.750961 236.880020
v 88.613098 112.866959 235.305008
v 0.656375 157.197952 266.335022
v 27.649500 184.271957 266.618042
v 16.870701 184.470947 267.907043
v 24.758101 146.705948 261.121033
v 3.743970 147.173950 266.253021
v -39.984001 185.109955 273.337036
v 2.529860 183.979950 268.997040
v 129.147003 20.202272 159.063995
v 169.000000 14.707875 153.451004
v 164.796997 0.992095 135.785995
v 166.285995 4.495637 140.460999
v -98.226303 85.839157 268.631989
v -137.164001 126.529953 272.350037
v -109.684998 153.907959 273.860016
v 126.425003 54.338871 192.508011
v 118.458000 43.945869 184.703995
v 116.238998 55.300568 196.335022
v 144.000000 36.039974 175.192001
v 168.334000 35.740372 173.324997
v 157.658997 30.034773 168.498001
v 167.664001 31.347073 169.720993
v 159.690002 -7.101190 123.338997
v 129.294998 5.463787 143.020996
v 158.649994 61.135170 191.844009
v 156.037994 50.919071 184.766022
v 39.308601 -139.495041 257.219971
v 49.732800 -181.092041 260.315979
v 63.763100 -176.641052 260.039978
v 171.626007 31.270771 170.307007
v 170.639008 24.005974 163.513000
v 78.993896 -120.974037 256.891968
v 106.815002 -100.529037 253.413986
v 93.637802 -92.320938 253.622986
v 142.259995 -108.486038 251.767990
v 115.084999 -140.281052 256.492981
v 97.671700 -127.328041 256.430969
v 172.421997 36.797874 174.889008
v 173.014999 50.639271 184.803009
v 171.354996 62.047970 192.594009
v 160.720993 86.699066 207.459015
v 112.473999 66.667572 203.796021
v 75.645699 102.432961 232.751022
v 164.203995 77.525169 202.228012
v 162.912994 81.705070 204.377014
v 159.445007 64.349571 193.969009
v 167.921997 70.372368 198.011017
v 150.964996 -14.550718 109.828003
v 130.264008 -16.741417 105.950996
v 129.046997 -22.410315 94.881500
v 155.764008 -11.452019 116.237999
v 51.638802 127.592964 247.909012
v 50.608398 119.321960 245.204010
v 37.839001 123.711960 251.326019
v 64.056503 114.524963 241.767014
v 66.069603 128.734955 247.352020
v 52.388000 133.671951 249.865021
v 98.115700 159.566956 251.762024
v 23.018299 127.244957 257.851044
v 54.162899 148.031952 254.508026
v 70.622002 175.000961 259.683044
v 52.921299 181.563950 263.159027
v 61.735600 178.778961 261.830017
v 5.473770 138.862961 265.014038
v 7.233110 130.521957 263.965027
v -41.844200 123.699951 267.764038
v 42.993999 174.615952 263.501038
v 33.746201 184.872955 266.035034
v 41.487000 184.145950 264.965027
v -58.977699 116.117950 268.431030
v -72.602898 176.542953 273.781036
v -56.530602 181.739960 273.609039
v -76.644501 174.733948 273.821045
v -33.935001 185.851959 273.097015
v -28.936100 185.754959 272.736023
v -88.060303 169.133957 274.049042
v -99.023399 163.292953 274.214020
v -168.003998 93.016953 269.954010
v -113.192001 65.724251 268.144989
v -151.597000 113.862953 271.173035
v -162.181000 101.978951 270.493042
v -180.427002 69.163651 268.550995
v -175.740005 78.836952 269.183014
v -127.899002 24.640156 264.174988
v -187.733994 47.690159 267.424011
v -144.496994 -14.345443 261.588013
v -187.955002 30.772556 266.319000
v -130.757004 13.803857 263.237000
v -129.240997 -8.054063 261.372009
v -127.958000 -30.288443 260.647003
v -189.065994 -29.176542 263.411987
v -123.099998 -41.408340 260.785004
v -187.014999 1.942557 264.559998
v -187.757996 -8.385533 263.984009
v -166.345993 -93.290245 262.390015
v -185.136002 -53.205643 263.028992
v -179.171997 -71.620445 262.709991
v -108.404999 -74.428947 262.648010
v -155.835999 -106.831047 262.307983
v -113.346001 -63.434040 262.842010
v -102.913002 -125.169044 261.209961
v -130.737000 -129.976044 262.277985
v -123.869003 -137.056046 262.274963
v -46.422501 -122.214043 260.507965
v -82.462502 -119.451042 260.602966
v -82.023598 -102.782043 261.324982
v -111.046997 -151.990051 261.960968
v -84.727501 -169.634048 261.760956
v -27.779499 -185.390045 261.726959
v -59.046700 -181.190048 262.122955
v -73.646202 -176.419052 261.741974
v -31.584101 -126.307045 260.199982
v 0.000000 -131.500046 258.823975
v 17.394501 -159.323044 258.776978
v -0.334735 -184.220047 261.062958
v 48.522900 -122.111038 256.867981
v 24.629900 -126.712036 257.280975
v 24.088900 -185.136047 260.513977
v 34.391201 -184.234039 260.329956
v 74.972801 -172.214050 259.815979
v 71.293198 -107.299042 256.947968
v 126.129997 -67.989441 246.254990
v 122.713997 -47.160637 243.208984
v 162.979004 -68.459541 245.374985
v 128.787003 -3.913488 233.001007
v 167.395004 -30.575039 237.147995
v 163.216995 -9.410728 231.889008
v 131.076996 9.280163 228.485001
v 135.367996 12.161763 227.035004
v 126.415001 24.409063 221.339996
v -22.685301 185.698959 271.909027
v 137.334000 22.446163 221.981995
v 150.720993 104.212959 217.279022
v 145.087997 109.874962 221.110016
v 92.493103 -162.789047 258.940979
v -142.893005 -119.228043 262.311981
v 90.167099 164.807953 254.384033
v -51.397499 -182.708038 262.072968
v -145.309006 119.488953 272.094025
v 158.705994 90.915672 209.999008
v 149.671005 -98.486938 249.922989
v 155.643997 -89.300438 248.709991
v 149.171997 14.338063 225.434006
v 129.893005 129.463974 233.145020
v -188.162994 -39.705742 263.216003
v 109.143997 149.724960 246.759033
v 154.990005 8.401113 227.296997
v -189.214005 -20.158644 263.584991
v 164.824005 -60.296436 243.650986
v 167.067001 -43.965839 240.500000
v -83.028603 171.648956 273.976044
v 166.755005 -21.635439 234.494995
vn -0.0581 -0.9120 0.4061
vn 0.2109 -0.6404 0.7385
vn 0.1407 -0.4329 0.8904
vn 0.2435 -0.4586 0.8546
vn 0.1155 -0.1255 0.9853
vn 0.2381 0.0654 0.9690
vn 0.0982 -0.1052 0.9896
vn -0.0217 -0.7872 0.6164
vn -0.2468 -0.7361 0.6302
vn 0.0184 -0.0735 0.9971
vn 0.2000 -0.6817 0.7037
vn 0.0864 -0.6397 0.7637
vn 0.0465 -0.6945 0.7180
vn -0.0116 -0.6331 0.7740
vn 0.0779 -0.8501 0.5208
vn 0.0123 -0.8224 0.5687
vn 0.0451 -0.7355 0.6761
vn 0.1404 -0.5879 0.7967
vn 0.1336 -0.6104 0.7807
vn 0.0207 -0.7228 0.6907
vn -0.0036 0.0733 0.9973
vn -0.1411 0.1665 0.9759
vn -0.0347 -0.6801 0.7323
vn 0.0656 0.0800 0.9946
vn 0.0650 0.0921 0.9936
vn 0.0044 -0.6989 0.7152
vn -0.0455 -0.8420 0.5376
vn 0.0284 -0.8609 0.5079
vn 0.0237 -0.5544 0.8319
vn -0.0114 -0.5819 0.8132
vn -0.0078 -0.5681 0.8229
vn -0.0111 -0.5650 0.8250
vn 0.1308 -0.5267 0.8400
vn 0.1264 -0.4609 0.8784
vn 0.1951 -0.4914 0.8488
vn 0.2112 -0.4720 0.8559
vn 0.0659 -0.4752 0.8774
vn 0.6074 -0.2067 0.7670
vn 0.1870 -0.7152 0.6734
vn 0.0425 -0.9207 0.3880
vn 0.0292 -0.8830 0.4684
vn 0.0268 -0.8909 0.4533
vn 0.0693 -0.4797 0.8747
vn 0.0650 -0.9166 0.3944
vn 0.3133 -0.3302 0.8904
vn 0.1011 -0.3763 0.9210
vn 0.0616 -0.3172 0.9464
vn 0.3125 -0.3256 0.8923
vn 0.0929 -0.2350 0.9675
vn 0.0613 -0.3126 0.9479
vn 0.3140 -0.3281 0.8909
vn 0.1426 -0.3204 0.9365
vn 0.3139 -0.3270 0.8914
vn 0.2236 -0.1809 0.9578
vn 0.1285 -0.2620 0.9565
vn 0.0678 -0.2469 0.9667
vn 0.2295 -0.1812 0.9563
vn 0.3371 -0.0698 0.9389
vn 0.3531 -0.0431 0.9346
vn 0.0980 -0.1268 0.9871
vn 0.0913 -0.1053 0.9902
vn 0.1807 -0.1903 0.9650
vn 0.2186 0.0174 0.9757
vn -0.0125 -0.3251 0.9456
vn 0.1084 -0.1453 0.9834
vn 0.0322 0.0018 0.9995
vn 0.1236 -0.1315 0.9836
vn 0.0641 -0.0572 0.9963
vn 0.1066 -0.0931 0.9899
vn 0.0568 -0.0670 0.9961
vn 0.0398 -0.0901 0.9951
vn 0.0481 -0.0853 0.9952
vn 0.0659 -0.2227 0.9726
vn 0.0879 -0.1370 0.9867
vn 0.0153 -0.0356 0.9993
vn 0.0106 -0.0810 0.9967
vn -0.1417 0.0697 0.9875
vn -0.0419 -0.0328 0.9986
vn 0.1749 -0.1483 0.9733
vn 0.0301 -0.0626 0.9976
vn 0.0276 -0.0779 0.9966
vn 0.0289 -0.0655 0.9974
vn 0.0478 -0.0816 0.9955
vn 0.1229 -0.1177 0.9854
vn 0.0269 -0.0310 0.9992
vn 0.0450 -0.0123 0.9989
vn 0.0458 0.0324 0.9984
vn -0.9513 0.0515 0.3040
vn 0.0543 -0.0404 0.9977
vn 0.0394 -0.0020 0.9992
vn 0.0087 -0.0145 0.9999
vn -0.0050 -0.0177 0.9998
vn -0.0020 -0.0076 1.0000
vn 0.0011 -0.0171 0.9999
vn 0.0113 -0.0271 0.9996
vn 0.0329 0.0315 0.9990
vn -0.0007 -0.0433 0.9991
vn 0.0365 -0.0244 0.9990
vn 0.0035 -0.0434 0.9991
vn 0.0422 0.0152 0.9990
vn 0.0235 0.0220 0.9995
vn 0.0219 0.0213 0.9995
vn 0.0389 0.1973 0.9796
vn 0.0482 0.0284 0.9984
vn 0.0485 0.0289 0.9984
vn 0.0208 0.0767 0.9968
vn 0.0149 0.0123 0.9998
vn -0.0444 0.0556 0.9975
vn 0.0875 0.0957 0.9916
vn 0.0130 0.0551 0.9984
vn -0.0096 0.0513 0.9986
vn -0.0079 0.0705 0.9975
vn -0.0025 0.0764 0.9971
vn 0.0561 0.0928 0.9941
vn 0.1092 0.0574 0.9924
vn 0.1025 0.1604 0.9817
vn 0.3915 -0.0300 0.9197
vn 0.0256 0.1570 0.9873
vn 0.0255 0.1487 0.9885
vn 0.0385 0.2078 0.9774
vn 0.0644 0.2207 0.9732
vn 0.0717 0.2538 0.9646
vn 0.1157 0.3036 0.9457
vn 0.0155 0.4309 0.9023
vn 0.0154 0.0224 0.9996
vn -0.1267 -0.6175 0.7763
vn -0.0098 -0.5498 0.8353
vn 0.0795 -0.7541 0.6519
vn 0.0257 0.4369 0.8992
vn -0.0094 -0.5481 0.8364
vn 0.3998 -0.2065 0.8930
vn 0.0128 0.0687 0.9976
vn 0.0325 0.0336 0.9989
vn 0.0887 -0.3055 0.9481
vn 0.0470 -0.0593 0.9971
vn 0.0449 -0.3917 0.9190
vn 0.0304 -0.7270 0.6859
vn 0.0254 0.0951 0.9951
vn 0.0252 0.0736 0.9970
vn 0.0044 0.0206 0.9998
vn 0.6885 0.1223 0.7149
vn 0.0990 -0.8719 0.4795
vn 0.6378 -0.7449 0.1959
vn 0.0789 -0.1041 0.9914
vn -0.1349 -0.6208 0.7723
vn -0.0320 -0.5270 0.8493
vn 0.1257 -0.1312 0.9834
vn 0.0029 -0.0602 0.9982
vn 0.2263 -0.3644 0.9033
vn 0.2108 -0.3833 0.8993
vn 0.0284 0.0277 0.9992
vn 0.1218 -0.2582 0.9584
vn 0.0042 0.0206 0.9998
vn 0.1973 -0.4574 0.8671
vn 0.0540 0.1261 0.9905
vn -0.0917 0.1887 0.9777
vn 0.0382 0.1538 0.9874
vn 0.0357 0.4352 0.8996
vn 0.2292 -0.5034 0.8331
vn 0.2920 -0.3259 0.8992
vn -0.0344 -0.0215 0.9992
vn 0.0529 -0.0821 0.9952
vn 0.0849 -0.1328 0.9875
vn -0.5181 -0.7699 0.3725
vn 0.1800 -0.3593 0.9157
vn 0.0505 0.3293 0.9429
vn -0.1044 -0.0208 0.9943
vn 0.1989 0.1592 0.9670
vn 0.2571 -0.4904 0.8327
vn 0.1992 -0.2379 0.9506
vn 0.1097 0.1510 0.9824
vn 0.0350 -0.0914 0.9952
vn 0.3429 0.2897 0.8936
vn -0.3292 0.2369 0.9141
vn 0.1368 -0.5696 0.8104
vn 0.0560 0.0333 0.9979
vn 0.0759 0.2816 0.9565
vn 0.0105 0.0147 0.9998
vn 0.0017 -0.0673 0.9977
vn -0.0006 -0.0044 1.0000
vn 0.2731 -0.4630 0.8432
vn -0.0749 -0.7263 0.6833
vn 0.0011 -0.0966 0.9953
vn 0.0539 0.3467 0.9364
vn -0.0487 0.0715 0.9963
vn 0.0326 0.0344 0.9989
vn 0.0441 0.0641 0.9970
usemtl None
s off
f 1//1 2//1 3//1
f 4//2 6//2 5//2
f 4//3 7//3 6//3
f 8//4 6//4 7//4
f 9//5 10//5 11//5
f 12//6 9//6 13//6
f 14//7 9//7 15//7
f 16//8 18//8 17//8
f 17//9 18//9 19//9
f 20//10 22//10 21//10
f 23//11 25//11 24//11
f 26//12 23//12 24//12
f 27//13 26//13 28//13
f 27//14 28//14 29//14
f 18//15 3//15 30//15
f 31//16 3//16 18//16
f 16//17 31//17 18//17
f 32//18 23//18 33//18
f 26//19 33//19 23//19
f 16//20 28//20 26//20
f 34//21 35//21 36//21
f 37//22 29//22 28//22
f 37//23 28//23 38//23
f 39//24 40//24 41//24
f 42//25 44//25 43//25
f 28//26 16//26 17//26
f 1//27 3//27 31//27
f 27//28 45//28 26//28
f 45//29 33//29 26//29
f 46//30 33//30 45//30
f 47//31 32//31 33//31
f 47//32 33//32 46//32
f 5//33 23//33 48//33
f 5//34 48//34 4//34
f 49//35 5//35 6//35
f 50//36 6//36 8//36
f 51//37 48//37 23//37
f 51//38 52//38 48//38
f 53//39 54//39 23//39
f 55//40 3//40 2//40
f 1//41 56//41 2//41
f 2//42 56//42 57//42
f 51//43 23//43 54//43
f 55//44 58//44 3//44
f 59//45 61//45 60//45
f 60//46 62//46 63//46
f 60//47 63//47 59//47
f 59//48 64//48 61//48
f 64//49 63//49 65//49
f 64//50 59//50 63//50
f 64//51 66//51 61//51
f 65//52 67//52 64//52
f 64//53 67//53 66//53
f 12//54 66//54 67//54
f 68//55 67//55 65//55
f 69//56 67//56 70//56
f 66//57 12//57 13//57
f 66//58 13//58 71//58
f 71//59 72//59 66//59
f 73//60 71//60 13//60
f 71//61 73//61 72//61
f 9//62 67//62 10//62
f 9//63 12//63 67//63
f 10//64 67//64 74//64
f 75//65 10//65 74//65
f 73//66 13//66 9//66
f 75//67 74//67 76//67
f 73//68 22//68 77//68
f 73//69 9//69 14//69
f 22//70 20//70 77//70
f 78//71 73//71 79//71
f 78//72 80//72 73//72
f 81//73 14//73 82//73
f 22//74 83//74 84//74
f 20//75 85//75 86//75
f 85//76 20//76 21//76
f 87//77 88//77 21//77
f 85//78 21//78 88//78
f 85//79 90//79 89//79
f 91//80 89//80 92//80
f 93//81 91//81 94//81
f 91//82 92//82 94//82
f 93//83 96//83 95//83
f 91//84 93//84 95//84
f 97//85 96//85 93//85
f 97//86 93//86 98//86
f 99//87 97//87 98//87
f 100//88 101//88 98//88
f 100//89 98//89 93//89
f 99//90 98//90 102//90
f 103//91 104//91 98//91
f 98//92 104//92 102//92
f 105//93 102//93 106//93
f 107//94 102//94 105//94
f 108//95 105//95 106//95
f 109//96 110//96 108//96
f 111//97 113//97 112//97
f 112//98 105//98 108//98
f 112//99 113//99 105//99
f 114//100 108//100 110//100
f 108//101 115//101 112//101
f 108//102 114//102 115//102
f 116//103 118//103 117//103
f 119//104 121//104 120//104
f 119//105 116//105 121//105
f 116//106 122//106 121//106
f 123//107 124//107 34//107
f 125//108 124//108 121//108
f 124//109 35//109 34//109
f 124//110 125//110 126//110
f 126//111 35//111 124//111
f 127//112 34//112 36//112
f 34//113 127//113 44//113
f 44//114 40//114 39//114
f 128//115 39//115 41//115
f 129//116 130//116 41//116
f 129//117 40//117 44//117
f 129//118 44//118 131//118
f 131//119 130//119 129//119
f 132//120 131//120 133//120
f 132//121 130//121 131//121
f 133//122 134//122 132//122
f 135//123 132//123 136//123
f 135//124 136//124 137//124
f 115//125 118//125 112//125
f 37//126 27//126 29//126
f 47//127 53//127 32//127
f 138//128 82//128 14//128
f 139//129 137//129 136//129
f 47//130 54//130 53//130
f 140//131 141//131 4//131
f 142//132 44//132 127//132
f 109//133 108//133 143//133
f 138//134 14//134 15//134
f 94//135 100//135 93//135
f 144//136 68//136 65//136
f 16//137 26//137 24//137
f 116//138 117//138 145//138
f 125//139 121//139 122//139
f 116//140 111//140 118//140
f 141//141 7//141 4//141
f 58//142 30//142 3//142
f 21//143 146//143 87//143
f 15//144 9//144 11//144
f 37//145 45//145 27//145
f 4//146 48//146 147//146
f 69//147 76//147 74//147
f 86//148 85//148 89//148
f 8//149 65//149 63//149
f 8//150 63//150 62//150
f 119//151 111//151 116//151
f 68//152 70//152 67//152
f 112//153 118//153 111//153
f 50//154 8//154 62//154
f 148//155 131//155 44//155
f 148//156 149//156 131//156
f 148//157 44//157 42//157
f 139//158 136//158 150//158
f 49//159 23//159 5//159
f 151//160 7//160 141//160
f 152//161 103//161 98//161
f 80//162 22//162 73//162
f 80//163 83//163 22//163
f 65//164 7//164 153//164
f 7//165 65//165 8//165
f 132//166 154//166 136//166
f 101//167 155//167 98//167
f 131//168 156//168 157//168
f 158//169 83//169 80//169
f 69//170 74//170 67//170
f 129//171 41//171 40//171
f 79//172 73//172 14//172
f 159//173 134//173 133//173
f 157//174 133//174 131//174
f 53//175 23//175 32//175
f 124//176 120//176 121//176
f 134//177 154//177 132//177
f 34//178 44//178 123//178
f 44//179 39//179 123//179
f 39//180 128//180 123//180
f 49//181 25//181 23//181
f 17//182 38//182 28//182
f 86//183 89//183 91//183
f 154//184 150//184 136//184
f 99//185 102//185 107//185
f 143//186 108//186 106//186
f 44//187 142//187 43//187
