# Blender v2.79 (sub 0) OBJ File: ''
# www.blender.org
mtllib my_crack_surf__133.mtl
o my_crack_surf__133
v 135.462006 -9.434910 120.741997
v 139.817993 -19.482517 102.195999
v 154.190002 -12.152119 117.306999
v 144.085007 -5.900640 126.890999
v 142.330002 108.588959 221.129013
v 112.477997 66.655968 203.806015
v 88.613297 112.866959 235.306015
v 149.626007 -15.644018 110.191002
v 64.014702 114.549965 241.602020
v 66.083504 128.725952 247.407013
v 7.233110 130.521957 263.965027
v 5.473610 138.862961 265.013031
v 23.700399 127.249954 258.859039
v 24.615400 146.457947 261.352020
v 6.658340 159.656952 266.329041
v 3.743970 147.173950 266.253021
v 0.654720 157.201950 266.373016
v -5.390340 154.840958 267.364044
v 14.015300 183.066956 267.912018
v -7.617370 183.633957 270.185028
v -30.252800 174.790955 271.254028
v -2.770930 182.755951 269.555023
v -22.893400 183.826950 271.759033
v -12.411000 183.807953 270.790039
v -40.813400 182.422958 272.833038
v -27.885099 183.697952 272.186035
v 163.610001 0.402440 136.444000
v 165.712006 4.187927 141.462997
v 161.865005 -2.120801 132.304001
v 124.742996 60.527069 197.247009
v 118.463997 43.924870 184.705002
v 116.240997 55.292168 196.329010
v 130.365997 41.877571 182.080994
v 129.147995 20.195972 159.070999
v 171.533005 51.479370 184.639023
v 170.634995 36.638275 174.145004
v 169.692993 27.049673 166.266006
v -152.983002 -108.548042 262.322968
v -178.576004 -69.790749 262.756989
v -164.847000 -92.435043 262.345001
v 129.294998 5.463787 143.020996
v 163.039993 75.618073 200.982010
v 153.194000 95.575363 212.494019
v 39.307999 -139.488052 257.095978
v 0.000000 -131.500046 258.826965
v 24.037300 -181.215042 259.826965
v 49.047600 -122.010040 256.785980
v 89.974403 -113.661041 256.129974
v 41.408699 -179.783051 259.619965
v 65.026604 -171.830048 259.458984
v 89.063499 -163.563049 258.803955
v 106.922997 -143.632050 257.490967
v 97.661697 -127.329041 256.479980
v 150.348007 -85.814735 247.643982
v 153.830994 -75.660637 245.795990
v 136.796005 -77.717834 246.766983
v 167.938995 12.805375 151.891998
v 130.276993 -5.357621 126.848000
v 101.990997 78.428459 213.033020
v 75.544998 102.525963 232.692017
v 121.622002 133.760956 237.459015
v 147.479996 102.578964 217.047012
v 130.029999 -17.844818 103.920998
v 72.731796 145.867950 251.562027
v 52.424301 133.649948 250.009018
v 50.617699 119.316963 245.241013
v 37.959499 123.639961 251.803009
v 51.438702 179.463959 263.537018
v 70.607498 173.023956 259.764038
v -41.801300 123.699951 267.828033
v 42.966499 174.573959 263.574036
v 33.766201 182.357956 265.828033
v -48.755501 181.372955 272.942017
v -124.463997 135.200958 272.272034
v -59.006901 116.086952 268.512024
v -67.205200 176.125961 273.058044
v 21.274099 182.993958 267.257019
v -36.092098 183.016953 272.660034
v -90.512398 165.003952 273.272034
v -98.149696 160.948959 273.904022
v -105.617996 155.098953 273.639038
v -143.352005 117.998955 271.818024
v -148.959000 112.430954 270.906036
v -98.250198 85.813751 268.697998
v -163.119995 95.641151 269.921021
v -113.192001 65.724251 268.144989
v -144.470993 -14.354743 261.540009
v -130.757996 13.795857 263.157990
v -129.238998 -8.059713 261.272003
v -127.900002 24.634155 264.117004
v -181.488998 59.237358 268.054993
v -183.414001 53.113056 267.843994
v -185.171997 45.976757 267.510010
v -185.731003 30.321556 266.252014
v -127.957001 -30.292542 260.575012
v -183.113007 -55.076641 262.949005
v -185.164993 3.558177 264.195007
v -187.897003 -29.451344 263.634003
v -123.099998 -41.409740 260.760010
v -113.347000 -63.432941 262.872986
v -108.404999 -74.428749 262.653992
v -156.350006 -104.143044 262.324982
v -102.922997 -125.154045 261.193970
v -42.049301 -124.596046 260.465973
v -72.554001 -124.852043 260.524963
v -82.023598 -102.782043 261.324982
v -142.085999 -117.201042 262.249969
v -109.055000 -149.390045 262.339966
v -114.200996 -144.622040 262.434967
v -118.865997 -139.550049 262.335968
v -99.149803 -158.554047 262.383972
v -66.152802 -173.940048 262.002960
v -23.601801 -143.134048 260.533966
v -26.099001 -158.248047 259.875977
v 24.629499 -126.713036 257.262970
v 71.296402 -107.297035 256.947968
v 116.568001 -134.100052 256.025970
v 82.494400 -99.780739 256.068970
v 93.650398 -92.308037 253.983978
v 106.799004 -100.525040 253.720978
v 122.721001 -47.141838 243.376984
v 121.271004 -127.337036 255.040985
v 132.388000 -115.351036 252.872986
v 138.951996 -106.571037 251.552979
v 156.304001 -63.279037 243.692978
v 126.753998 -18.318539 236.477997
v 151.039001 -29.213139 237.371002
v 156.022003 -49.141937 241.276978
v 147.929001 -22.730438 236.084000
v 139.925003 -13.474339 234.792999
v 128.796997 -3.990628 234.460007
v 153.953995 -37.964840 239.123001
v 158.660004 -7.167110 125.313004
v -85.562401 -165.899048 261.877960
v -14.736000 -182.236038 260.985962
v -33.495602 -182.884048 261.104980
v 105.947998 150.267960 247.841034
v -129.585007 -128.642044 262.250977
v 75.328499 -167.142044 259.193970
v 168.494995 62.170269 192.144012
v 166.160995 68.555771 196.558014
v -41.169201 -165.150040 260.456970
v -57.799500 -176.937042 261.848969
v 129.089996 -22.202015 95.217201
v -84.113800 169.469955 273.312042
v 96.775398 157.441956 251.913025
v -2.173040 -180.830048 260.418976
v 85.697800 164.490952 255.622025
v 76.478699 169.801956 258.245026
v 157.225998 89.272972 208.552017
v -173.369995 77.575554 269.108002
v 92.902802 160.231949 253.411026
v -155.921005 105.449951 270.416016
vn -0.0422 -0.8826 0.4683
vn -0.0268 -0.8500 0.5261
vn 0.1867 -0.4857 0.8540
vn -0.0162 -0.8935 0.4488
vn 0.2021 -0.3962 0.8956
vn 0.2847 -0.0602 0.9567
vn 0.2263 -0.0588 0.9723
vn 0.0109 -0.0086 0.9999
vn 0.1487 0.0340 0.9883
vn 0.3770 -0.9199 0.1078
vn 0.1274 -0.1067 0.9861
vn 0.0824 -0.0909 0.9925
vn 0.1127 -0.0883 0.9897
vn 0.0646 -0.6982 0.7130
vn 0.0614 -0.1200 0.9909
vn -0.9176 -0.0170 0.3972
vn 0.3225 -0.6452 0.6926
vn 0.0666 -0.6174 0.7839
vn 0.1271 -0.7252 0.6767
vn -0.0695 -0.5731 0.8165
vn -0.0303 -0.6328 0.7737
vn 0.0027 -0.8241 0.5665
vn -0.1278 -0.0954 0.9872
vn 0.0031 -0.7367 0.6762
vn 0.1251 -0.5257 0.8414
vn 0.0937 -0.6110 0.7861
vn 0.0958 -0.4615 0.8820
vn 0.1886 -0.5165 0.8353
vn 0.0532 0.0458 0.9975
vn 0.0140 0.0099 0.9999
vn -0.0125 0.0619 0.9980
vn -0.0145 0.0633 0.9979
vn 0.0026 0.0634 0.9980
vn 0.0360 0.1670 0.9853
vn -0.0278 -0.7677 0.6402
vn 0.0014 -0.8311 0.5562
vn -0.6339 0.4411 0.6353
vn 0.1417 -0.4625 0.8752
vn 0.2333 -0.4626 0.8553
vn 0.2042 -0.4745 0.8563
vn 0.2020 -0.4107 0.8891
vn 0.5776 -0.0583 0.8142
vn -0.1809 -0.8819 0.4353
vn -0.0624 -0.8762 0.4779
vn 0.1727 -0.3671 0.9140
vn 0.2619 -0.3221 0.9098
vn 0.3409 -0.3352 0.8783
vn 0.1094 -0.3903 0.9142
vn 0.0638 -0.3222 0.9445
vn 0.0868 -0.2664 0.9600
vn 0.3455 -0.3427 0.8736
vn 0.3194 -0.1369 0.9377
vn 0.0939 -0.2801 0.9554
vn 0.2243 -0.0980 0.9696
vn 0.0994 -0.1266 0.9870
vn 0.0926 -0.1049 0.9902
vn 0.2579 -0.1456 0.9551
vn 0.4928 0.3742 0.7856
vn 0.0537 -0.3030 0.9515
vn 0.1635 -0.2761 0.9471
vn 0.0974 -0.1689 0.9808
vn 0.0777 -0.0842 0.9934
vn 0.5533 0.5714 0.6061
vn 0.0620 -0.0807 0.9948
vn 0.0503 -0.0240 0.9984
vn 0.0343 -0.1568 0.9870
vn 0.0998 -0.1364 0.9856
vn 0.0303 -0.0847 0.9959
vn 0.0986 -0.0871 0.9913
vn 0.0724 -0.5075 0.8586
vn 0.0878 -0.1267 0.9880
vn 0.0426 -0.0787 0.9960
vn 0.0882 -0.4404 0.8935
vn 0.2353 -0.2991 0.9247
vn 0.0702 -0.1344 0.9884
vn 0.6105 -0.6810 0.4044
vn 0.0077 -0.0681 0.9976
vn 0.0132 -0.0373 0.9992
vn 0.0515 -0.0823 0.9953
vn 0.1364 -0.1230 0.9830
vn 0.1779 -0.0897 0.9800
vn 0.0288 -0.0811 0.9963
vn 0.0298 -0.0296 0.9991
vn 0.0479 -0.0109 0.9988
vn 0.0556 -0.0216 0.9982
vn -0.0814 0.0594 0.9949
vn 0.0347 0.0078 0.9994
vn 0.0539 -0.0166 0.9984
vn -0.0053 -0.0147 0.9999
vn 0.0058 -0.0173 0.9998
vn -0.0326 -0.0252 0.9992
vn 0.0135 -0.0273 0.9995
vn 0.0022 -0.0353 0.9994
vn 0.0223 -0.0264 0.9994
vn 0.0212 -0.0271 0.9994
vn 0.0339 0.0343 0.9988
vn 0.2335 0.2331 0.9440
vn 0.0374 0.0377 0.9986
vn 0.0216 0.0380 0.9990
vn 0.0318 0.0392 0.9987
vn 0.0272 0.0336 0.9991
vn 0.0185 0.0221 0.9996
vn 0.0747 -0.0557 0.9957
vn 0.0472 0.0506 0.9976
vn 0.1014 -0.0600 0.9930
vn 0.0538 0.0488 0.9974
vn 0.0131 0.0264 0.9996
vn 0.0181 0.0077 0.9998
vn 0.0264 -0.0509 0.9984
vn 0.0725 0.1362 0.9880
vn 0.0577 0.0944 0.9939
vn 0.1244 0.0952 0.9877
vn 0.0554 0.0342 0.9979
vn 0.1336 0.0763 0.9881
vn 0.0743 0.0871 0.9934
vn 0.1102 0.1595 0.9810
vn 0.1135 0.1502 0.9821
vn -0.0542 0.1807 0.9820
vn 0.0227 0.1575 0.9873
vn 0.0409 0.1287 0.9908
vn -0.0186 0.1623 0.9866
vn 0.0650 0.1545 0.9859
vn 0.0646 0.2237 0.9725
vn 0.0741 0.2096 0.9750
vn 0.0648 0.2241 0.9724
vn 0.0570 0.1861 0.9809
vn 0.0794 0.1279 0.9886
vn -0.0496 0.1801 0.9824
vn -0.0155 -0.8449 0.5347
vn -0.1401 -0.3236 0.9357
vn 0.0047 0.0484 0.9988
vn 0.1555 -0.4159 0.8960
vn 0.1000 -0.1659 0.9811
vn 0.0342 0.0414 0.9986
vn 0.0346 0.0379 0.9987
vn 0.0124 0.0611 0.9981
vn -0.1057 -0.5913 0.7995
vn 0.0355 0.1661 0.9855
vn 0.1347 -0.2127 0.9678
vn 0.0182 0.0444 0.9988
vn 0.0429 -0.0495 0.9979
vn 0.0403 0.0610 0.9973
vn -0.0690 -0.8891 0.4525
vn 0.0722 0.1694 0.9829
vn 0.0828 -0.1275 0.9884
vn 0.1488 -0.3373 0.9295
vn 0.0378 0.0641 0.9972
vn -0.0054 -0.8319 0.5548
vn 0.0500 -0.0891 0.9948
vn 0.1905 -0.4600 0.8673
vn 0.6213 -0.7635 0.1761
vn 0.1035 -0.2801 0.9544
vn 0.0960 -0.2809 0.9549
vn -0.1857 -0.6748 0.7143
vn 0.0017 0.0303 0.9995
vn -0.0067 -0.8093 0.5873
vn 0.0316 -0.0759 0.9966
vn 0.0297 0.0296 0.9991
vn -0.0049 -0.7100 0.7042
vn -0.0004 0.0573 0.9984
vn 0.0378 0.0468 0.9982
vn 0.2936 -0.3648 0.8836
vn 0.0067 0.0629 0.9980
vn -0.3895 -0.6064 0.6932
vn 0.0397 -0.0520 0.9979
vn 0.0082 -0.1005 0.9949
vn 0.0037 -0.0531 0.9986
vn 0.0986 -0.1005 0.9900
vn 0.0441 0.0555 0.9975
vn -0.0498 -0.5252 0.8495
vn 0.1286 -0.2959 0.9465
vn 0.0233 0.0487 0.9985
vn 0.2380 -0.1362 0.9617
vn 0.0257 -0.7282 0.6848
vn 0.0291 -0.0782 0.9965
vn 0.2091 -0.4882 0.8473
vn -0.0747 0.0045 0.9972
vn 0.0088 -0.0660 0.9978
usemtl None
s off
f 1//1 2//1 3//1
f 1//2 3//2 4//2
f 5//3 7//3 6//3
f 3//4 2//4 8//4
f 9//5 7//5 10//5
f 11//6 13//6 12//6
f 14//7 15//7 16//7
f 17//8 16//8 15//8
f 18//9 16//9 17//9
f 15//10 18//10 17//10
f 15//11 19//11 18//11
f 20//12 21//12 18//12
f 20//13 18//13 22//13
f 23//14 20//14 24//14
f 25//15 21//15 26//15
f 27//16 28//16 29//16
f 30//17 32//17 31//17
f 31//18 33//18 30//18
f 34//19 35//19 33//19
f 36//20 35//20 34//20
f 36//21 34//21 37//21
f 29//22 28//22 4//22
f 38//23 39//23 40//23
f 28//24 34//24 41//24
f 30//25 35//25 42//25
f 30//26 33//26 35//26
f 43//27 30//27 42//27
f 30//28 43//28 6//28
f 44//29 45//29 46//29
f 44//30 48//30 47//30
f 44//31 49//31 48//31
f 48//32 49//32 50//32
f 51//33 52//33 53//33
f 54//34 55//34 56//34
f 34//35 28//35 57//35
f 1//36 41//36 58//36
f 1//37 4//37 28//37
f 43//38 5//38 6//38
f 59//39 6//39 7//39
f 59//40 7//40 60//40
f 61//41 7//41 5//41
f 62//42 5//42 43//42
f 58//43 2//43 1//43
f 58//44 63//44 2//44
f 7//45 61//45 64//45
f 7//46 64//46 10//46
f 65//47 67//47 66//47
f 66//48 9//48 10//48
f 66//49 10//49 65//49
f 65//50 10//50 64//50
f 65//51 13//51 67//51
f 14//52 13//52 65//52
f 68//53 65//53 69//53
f 12//54 14//54 16//54
f 70//55 12//55 16//55
f 12//56 70//56 11//56
f 15//57 65//57 19//57
f 15//58 14//58 65//58
f 19//59 65//59 71//59
f 65//60 68//60 71//60
f 72//61 19//61 71//61
f 70//62 16//62 21//62
f 21//63 16//63 18//63
f 21//64 73//64 70//64
f 70//65 74//65 75//65
f 73//66 21//66 25//66
f 21//67 20//67 23//67
f 73//68 76//68 70//68
f 18//69 19//69 22//69
f 77//70 19//70 72//70
f 23//71 26//71 21//71
f 70//72 76//72 74//72
f 78//73 25//73 26//73
f 74//74 79//74 80//74
f 81//75 74//75 80//75
f 74//76 82//76 83//76
f 74//77 83//77 84//77
f 84//78 85//78 86//78
f 87//79 89//79 88//79
f 88//80 90//80 87//80
f 91//81 92//81 93//81
f 90//82 93//82 94//82
f 95//83 89//83 87//83
f 95//84 87//84 96//84
f 97//85 98//85 87//85
f 99//86 38//86 100//86
f 99//87 96//87 38//87
f 87//88 98//88 96//88
f 96//89 39//89 38//89
f 100//90 38//90 101//90
f 38//91 40//91 102//91
f 103//92 101//92 38//92
f 104//93 106//93 105//93
f 105//94 101//94 103//94
f 105//95 106//95 101//95
f 107//96 103//96 38//96
f 108//97 110//97 109//97
f 108//98 103//98 110//98
f 103//99 111//99 105//99
f 103//100 108//100 111//100
f 105//101 111//101 112//101
f 113//102 104//102 112//102
f 112//103 114//103 113//103
f 113//104 45//104 104//104
f 113//105 114//105 45//105
f 115//106 45//106 44//106
f 114//107 46//107 45//107
f 44//108 47//108 115//108
f 48//109 116//109 47//109
f 117//110 56//110 53//110
f 117//111 53//111 52//111
f 56//112 48//112 53//112
f 118//113 116//113 48//113
f 118//114 48//114 119//114
f 120//115 119//115 48//115
f 56//116 121//116 119//116
f 56//117 119//117 120//117
f 56//118 117//118 122//118
f 123//119 56//119 122//119
f 121//120 56//120 55//120
f 123//121 124//121 56//121
f 125//122 121//122 55//122
f 126//123 121//123 127//123
f 128//124 127//124 121//124
f 126//125 127//125 129//125
f 126//126 129//126 130//126
f 131//127 126//127 130//127
f 127//128 128//128 132//128
f 133//129 4//129 3//129
f 134//130 112//130 111//130
f 135//131 114//131 136//131
f 64//132 61//132 137//132
f 72//133 71//133 68//133
f 138//134 110//134 103//134
f 103//135 107//135 138//135
f 51//136 53//136 139//136
f 140//137 141//137 35//137
f 124//138 54//138 56//138
f 114//139 112//139 142//139
f 142//140 136//140 114//140
f 74//141 84//141 75//141
f 142//142 112//142 143//142
f 2//143 63//143 144//143
f 128//144 121//144 125//144
f 74//145 145//145 79//145
f 64//146 137//146 146//146
f 135//147 147//147 114//147
f 41//148 1//148 28//148
f 76//149 145//149 74//149
f 60//150 7//150 9//150
f 120//151 48//151 56//151
f 148//152 69//152 64//152
f 69//153 65//153 64//153
f 149//154 69//154 148//154
f 105//155 112//155 104//155
f 133//156 29//156 4//156
f 97//157 87//157 94//157
f 96//158 99//158 95//158
f 34//159 57//159 37//159
f 50//160 139//160 48//160
f 48//161 139//161 53//161
f 43//162 42//162 150//162
f 44//163 46//163 49//163
f 35//164 141//164 42//164
f 90//165 91//165 93//165
f 90//166 86//166 91//166
f 86//167 85//167 91//167
f 85//168 151//168 91//168
f 143//169 136//169 142//169
f 152//170 148//170 146//170
f 64//171 146//171 148//171
f 114//172 147//172 46//172
f 14//173 12//173 13//173
f 31//174 34//174 33//174
f 94//175 87//175 90//175
f 6//176 32//176 30//176
f 83//177 153//177 85//177
f 83//178 85//178 84//178
