# Blender v2.79 (sub 0) OBJ File: ''
# www.blender.org
mtllib my_crack_surf__65.mtl
o my_crack_surf__65
v 146.072998 7.619386 146.134995
v 164.522995 41.371170 178.477997
v 160.981995 9.673396 149.244003
v 130.279007 -6.108461 127.471001
v 139.119003 -15.105618 113.188004
v 146.328995 -11.476919 119.542000
v 144.182999 97.299965 213.775009
v 120.393997 70.084167 204.629013
v 111.428001 69.827972 206.346008
v 133.207001 113.419960 223.789017
v 95.262703 106.370964 230.722015
v 3.743970 147.173950 266.253021
v 34.133400 174.706955 264.417023
v 26.843700 175.992950 265.329041
v 4.373680 176.721954 267.984039
v 153.209000 -4.182772 131.095993
v 137.457001 8.291057 148.024002
v 129.332993 5.069097 143.488998
v 136.003006 62.129269 196.317017
v 118.550003 43.613369 184.720993
v 130.365997 41.877571 182.080994
v 162.132996 54.043968 187.115021
v -143.990997 -61.774040 261.160004
v -155.925995 -45.299641 260.759003
v -139.007996 -39.768642 259.980988
v 129.186005 19.804773 159.535004
v 162.880997 16.839275 157.705994
v 129.248993 12.542376 151.386993
v 164.598999 27.658674 167.563004
v 157.802994 72.947769 199.322021
v 109.025002 136.952957 242.032013
v 76.595200 101.563965 233.302017
v 130.274994 -17.302816 108.112999
v 89.953796 153.289948 252.773026
v 65.499802 113.120964 241.723022
v 58.648499 116.348961 244.983017
v 38.143101 123.463959 253.678009
v 40.067402 137.816956 257.748016
v 49.559399 149.470947 257.524017
v 76.937401 161.409958 256.405029
v 61.161400 168.602951 259.970032
v 46.270100 157.833954 260.086029
v 42.652802 173.401947 263.176025
v -4.943670 136.790955 265.186035
v -2.552630 145.110947 266.577026
v 7.233110 130.521957 263.965027
v -8.902650 128.248947 265.561035
v -29.710199 175.944962 271.181030
v -63.054699 169.278961 272.553040
v -41.538898 123.701958 268.215027
v -59.203201 115.877953 269.056030
v -0.723985 176.642960 268.608032
v -17.475300 176.587952 270.278046
v -20.078400 176.713959 270.533020
v -52.103699 172.219955 272.191040
v -78.943703 162.433960 272.894043
v -99.260002 148.060959 272.618042
v -98.385803 85.669357 269.074005
v -121.042000 106.491951 270.005035
v -113.192001 65.724251 268.144989
v -127.903000 24.602057 263.802002
v -132.154999 40.575859 264.751007
v -166.341995 61.669659 268.204987
v -130.759995 13.770357 262.907990
v -168.274002 49.640160 267.019012
v -170.626007 4.867327 263.808990
v -168.561996 -19.410742 261.673004
v -127.921997 -30.433542 260.020996
v -123.074997 -41.462143 260.575989
v -108.267998 -74.557243 264.653992
v -123.115997 -74.665146 262.828003
v 164.214005 21.016273 161.522003
v 165.123993 31.285772 170.436005
v -8.306070 176.941956 269.283020
v -149.362000 96.859550 271.036041
v -135.139008 97.147453 271.177032
v -160.807007 76.317955 269.472992
v -170.595001 18.640757 264.466003
v -111.580002 -75.035843 264.167999
v 28.541901 130.897949 259.548035
v 116.240997 55.292168 196.329010
v -125.377998 122.753952 271.269043
v 24.514099 127.256958 260.061035
v 163.550995 48.800568 183.805008
vn -0.0610 -0.6730 0.7371
vn -0.0286 -0.8537 0.5200
vn 0.1803 -0.4513 0.8740
vn 0.1656 -0.4366 0.8843
vn 0.2418 -0.4622 0.8532
vn 0.1136 -0.0593 0.9918
vn 0.1152 -0.0605 0.9915
vn -0.0186 -0.7908 0.6118
vn 0.0056 -0.8199 0.5725
vn 0.0581 -0.8270 0.5591
vn -0.0296 -0.7931 0.6084
vn 0.0926 -0.5897 0.8023
vn 0.0794 -0.5511 0.8306
vn 0.0993 -0.5906 0.8008
vn 0.2135 -0.4738 0.8544
vn 0.0307 0.0465 0.9984
vn 0.0508 -0.7150 0.6973
vn 0.0629 -0.7148 0.6965
vn 0.1139 -0.6022 0.7902
vn -0.8057 -0.3504 0.4776
vn -0.0147 -0.8415 0.5400
vn -0.0947 -0.7236 0.6837
vn 0.1678 -0.3916 0.9047
vn -0.4797 -0.5481 0.6852
vn 0.0196 -0.6973 0.7165
vn 0.0980 -0.7425 0.6626
vn 0.1080 -0.4621 0.8803
vn 0.2389 -0.4296 0.8708
vn 0.2375 -0.4642 0.8533
vn 0.1387 -0.5146 0.8461
vn -0.0720 -0.8634 0.4993
vn 0.2246 -0.3936 0.8915
vn 0.2548 -0.3976 0.8815
vn 0.2837 -0.2966 0.9119
vn 0.3320 -0.2530 0.9087
vn 0.1343 -0.2172 0.9668
vn 0.1920 -0.1377 0.9717
vn 0.1276 -0.2015 0.9711
vn 0.1712 -0.2264 0.9589
vn 0.1267 -0.1647 0.9782
vn -0.1416 -0.3405 0.9295
vn 0.1142 -0.1957 0.9740
vn 0.0328 -0.1293 0.9911
vn 0.0987 -0.0021 0.9951
vn 0.7297 -0.3115 0.6087
vn 0.1922 -0.1475 0.9702
vn 0.1170 -0.1671 0.9790
vn 0.0946 -0.0602 0.9937
vn 0.0704 -0.0864 0.9938
vn 0.0774 -0.0802 0.9938
vn 0.0548 -0.0690 0.9961
vn 0.0739 -0.0599 0.9955
vn 0.0452 -0.9680 0.2468
vn 0.0837 -0.2318 0.9692
vn 0.0641 -0.1168 0.9911
vn 0.0343 -0.0677 0.9971
vn -0.0112 -0.0569 0.9983
vn -0.0736 -0.0787 0.9942
vn 0.0120 -0.1426 0.9897
vn 0.0460 -0.0661 0.9967
vn 0.0364 -0.1038 0.9939
vn -0.0435 -0.0708 0.9965
vn 0.0360 -0.0601 0.9975
vn -0.0035 -0.0879 0.9961
vn 0.0486 -0.0620 0.9969
vn 0.0495 -0.0111 0.9987
vn -0.0253 0.1111 0.9935
vn -0.0335 0.0355 0.9988
vn -0.1222 0.0253 0.9922
vn -0.0410 0.0627 0.9972
vn -0.0117 -0.6724 0.7401
vn 0.0203 -0.6226 0.7823
vn 0.0885 -0.0040 0.9961
vn 0.0761 -0.9252 0.3718
vn -0.0084 -0.0712 0.9974
vn 0.0332 -0.0477 0.9983
vn -0.1191 -0.1694 0.9783
vn 0.0480 -0.0618 0.9969
vn 0.2054 -0.0886 0.9747
vn 0.0437 -0.0560 0.9975
vn 0.0287 -0.0842 0.9960
vn 0.5741 -0.5173 0.6347
vn 0.0915 -0.0771 0.9928
vn 0.0188 -0.0725 0.9972
vn 0.2392 -0.3902 0.8891
vn 0.0080 -0.0905 0.9959
vn 0.0055 -0.0883 0.9961
vn 0.1751 -0.5187 0.8368
vn 0.1403 -0.3167 0.9381
vn 0.3193 -0.2979 0.8996
vn 0.3494 -0.2596 0.9003
vn 0.1601 -0.4050 0.9002
vn -0.4329 -0.5620 0.7048
vn 0.2049 -0.0893 0.9747
vn 0.2030 -0.0914 0.9749
vn 0.1136 -0.0469 0.9924
vn 0.0654 0.0265 0.9975
vn -0.0099 0.0002 1.0000
vn 0.0345 -0.0721 0.9968
usemtl None
s off
f 1//1 3//1 2//1
f 4//2 5//2 6//2
f 7//3 9//3 8//3
f 7//4 10//4 9//4
f 11//5 9//5 10//5
f 12//6 13//6 14//6
f 15//7 12//7 14//7
f 16//8 3//8 1//8
f 17//9 18//9 4//9
f 17//10 4//10 1//10
f 16//11 1//11 4//11
f 19//12 20//12 21//12
f 21//13 2//13 22//13
f 19//14 21//14 22//14
f 7//15 8//15 19//15
f 23//16 25//16 24//16
f 20//17 26//17 21//17
f 2//18 21//18 26//18
f 8//19 20//19 19//19
f 3//20 27//20 2//20
f 16//21 4//21 6//21
f 28//22 18//22 17//22
f 28//23 17//23 1//23
f 2//24 27//24 29//24
f 28//25 1//25 2//25
f 28//26 2//26 26//26
f 7//27 19//27 30//27
f 31//28 11//28 10//28
f 9//29 11//29 32//29
f 30//30 19//30 22//30
f 33//31 5//31 4//31
f 32//32 11//32 34//32
f 32//33 34//33 35//33
f 36//34 38//34 37//34
f 39//35 38//35 36//35
f 34//36 40//36 39//36
f 12//37 38//37 39//37
f 40//38 41//38 39//38
f 39//39 41//39 42//39
f 42//40 41//40 43//40
f 42//41 13//41 39//41
f 44//42 12//42 45//42
f 44//43 46//43 12//43
f 44//44 47//44 46//44
f 44//45 45//45 47//45
f 12//46 39//46 13//46
f 42//47 43//47 13//47
f 48//48 12//48 15//48
f 48//49 47//49 45//49
f 48//50 45//50 12//50
f 48//51 49//51 50//51
f 49//52 51//52 50//52
f 52//53 48//53 15//53
f 53//54 54//54 48//54
f 55//55 49//55 48//55
f 51//56 56//56 57//56
f 57//57 59//57 58//57
f 60//58 62//58 61//58
f 60//59 63//59 62//59
f 64//60 62//60 65//60
f 62//61 63//61 65//61
f 62//62 64//62 61//62
f 64//63 66//63 25//63
f 66//64 67//64 25//64
f 25//65 68//65 64//65
f 67//66 24//66 25//66
f 69//67 25//67 70//67
f 69//68 68//68 25//68
f 25//69 71//69 70//69
f 71//70 25//70 23//70
f 72//71 29//71 27//71
f 73//72 2//72 29//72
f 52//73 74//73 48//73
f 74//74 53//74 48//74
f 75//75 77//75 76//75
f 66//76 64//76 78//76
f 79//77 70//77 71//77
f 56//78 51//78 49//78
f 12//79 80//79 38//79
f 51//80 57//80 58//80
f 65//81 78//81 64//81
f 20//82 8//82 81//82
f 48//83 50//83 47//83
f 82//84 59//84 57//84
f 35//85 34//85 36//85
f 63//86 60//86 76//86
f 63//87 76//87 77//87
f 9//88 81//88 8//88
f 34//89 39//89 36//89
f 37//90 38//90 80//90
f 83//91 37//91 80//91
f 31//92 34//92 11//92
f 84//93 22//93 2//93
f 83//94 80//94 12//94
f 12//95 46//95 83//95
f 76//96 59//96 82//96
f 76//97 58//97 59//97
f 75//98 76//98 82//98
f 76//99 60//99 58//99
