# Blender v2.79 (sub 0) OBJ File: ''
# www.blender.org
mtllib my_crack_surf__64.mtl
o my_crack_surf__64
v 130.279999 -6.147591 127.492996
v 139.097000 -15.116018 113.188004
v 146.317993 -11.487319 119.521004
v 118.553001 43.600769 184.720993
v 130.365997 41.877571 182.080994
v 157.205002 75.211166 200.802017
v 26.851601 175.992950 265.327026
v -8.393700 176.928955 269.278046
v 24.463499 127.255951 259.986023
v 144.024994 35.778473 175.531998
v 137.470993 8.291146 148.026993
v 129.335007 5.052647 143.509003
v 153.195007 -4.159281 131.022995
v 160.985992 9.643456 149.261002
v 148.188004 26.051573 166.233994
v 162.162994 54.049068 187.128021
v -143.604996 -60.509541 261.181000
v -155.862000 -44.108940 260.803009
v -127.917999 -30.454042 260.029999
v 144.145996 97.361664 213.790009
v 116.240997 55.292168 196.329010
v 165.147003 31.359272 170.531998
v 129.186996 19.789473 159.552994
v 156.098007 17.068476 156.569000
v 164.205994 20.916874 161.470001
v 111.428001 69.827766 206.363022
v 76.656303 101.507965 233.340012
v 95.268700 106.366959 230.741013
v 130.276001 -17.300716 108.136002
v 104.143997 141.557953 244.497025
v 133.145996 113.507965 223.808014
v 90.921303 152.413956 251.289032
v 65.545601 113.080963 241.779022
v 58.528801 116.384964 245.127014
v 40.068401 137.811951 257.754028
v 60.000500 151.104950 256.553040
v 78.156502 161.144958 256.009033
v 62.270599 168.188950 259.872040
v 42.662800 173.367950 263.070038
v -4.969680 136.783951 265.229034
v -2.549260 145.107956 266.599030
v 7.233110 130.521957 263.965027
v -8.895160 128.248947 265.572021
v -41.527699 123.701958 268.232025
v -61.090302 169.753952 272.757019
v -29.812000 175.814957 271.217041
v -59.211102 115.869957 269.079041
v -87.581100 154.370956 272.293030
v -99.102402 146.716949 272.217041
v -105.250000 100.662956 270.460022
v -115.374001 112.349953 270.298035
v -98.393997 85.660553 269.096985
v -146.737000 100.508957 270.225037
v -128.923004 57.485859 266.778992
v -135.768005 28.577156 263.963013
v -151.953003 64.071854 267.227997
v -132.156998 40.571957 264.735992
v -127.903000 24.599556 263.778015
v -170.238007 4.703497 263.584015
v -169.108994 28.808056 264.998993
v -130.759995 13.770857 262.914001
v -170.007996 19.066456 264.308990
v -144.669998 -25.953142 260.066010
v -168.528000 -5.247123 262.398010
v -161.507004 -21.173943 261.558990
v -126.523003 -69.608543 262.625000
v -113.751999 -62.696041 263.519012
v 164.514008 41.357670 178.507004
v -166.987000 63.250858 267.614014
v -112.567001 -73.431946 265.233002
v -111.186996 -67.941849 265.600006
v -82.809303 158.617950 272.973022
v -126.334000 121.502953 270.918030
v -76.052101 164.013962 273.067017
v -108.921997 -73.546745 265.485992
v -113.192001 65.724251 268.144989
v -162.143005 71.794754 268.363007
v -156.384003 85.706657 269.665009
v 163.550003 48.927868 183.892014
v 158.871994 5.329027 143.770004
v -167.123993 -21.517942 260.618988
vn -0.0262 -0.8542 0.5193
vn 0.1050 -0.5499 0.8286
vn 0.1077 -0.1135 0.9877
vn 0.1367 -0.5665 0.8127
vn 0.0077 -0.8193 0.5734
vn -0.0186 -0.8148 0.5794
vn 0.0047 -0.7172 0.6969
vn 0.0146 -0.8003 0.5994
vn 0.0079 -0.5414 0.8407
vn 0.0120 0.0320 0.9994
vn 0.1211 -0.4480 0.8858
vn 0.0294 -0.6841 0.7288
vn 0.0517 -0.7144 0.6978
vn -0.0230 -0.6959 0.7177
vn 0.0164 -0.7144 0.6996
vn 0.2427 -0.6589 0.7120
vn -0.0437 -0.7494 0.6607
vn 0.3184 -0.5502 0.7720
vn -0.0105 -0.8405 0.5418
vn -0.1420 -0.6655 0.7328
vn 0.0141 -0.6561 0.7546
vn 0.0048 -0.7364 0.6765
vn 0.2311 -0.4997 0.8348
vn 0.2400 -0.4631 0.8532
vn 0.2081 -0.4775 0.8536
vn -0.0712 -0.8643 0.4980
vn 0.2952 -0.3504 0.8889
vn 0.2244 -0.3794 0.8976
vn 0.2680 -0.3863 0.8826
vn 0.3119 -0.2684 0.9114
vn 0.2629 -0.3116 0.9131
vn 0.1727 -0.2609 0.9498
vn 0.2176 -0.1169 0.9690
vn 0.1435 -0.2071 0.9677
vn 0.1051 -0.2031 0.9735
vn 0.1053 -0.2030 0.9735
vn 0.1530 -0.1410 0.9781
vn 0.1113 -0.1928 0.9749
vn 0.2735 0.3522 0.8951
vn 0.1000 -0.0060 0.9950
vn 0.7324 -0.3125 0.6050
vn 0.0894 -0.0597 0.9942
vn 0.3281 0.1511 0.9325
vn 0.0958 -0.1215 0.9880
vn 0.0766 -0.0652 0.9949
vn 0.0216 -0.0673 0.9975
vn 0.0665 -0.0904 0.9937
vn 0.0327 -0.0592 0.9977
vn 0.0198 0.0310 0.9993
vn 0.0259 -0.0680 0.9974
vn -0.2430 -0.1973 0.9497
vn 0.0118 -0.0375 0.9992
vn -0.0078 -0.0951 0.9954
vn 0.4480 -0.1912 0.8734
vn -0.0079 -0.0620 0.9980
vn 0.0306 -0.0600 0.9977
vn -0.0148 -0.0756 0.9970
vn -0.2576 -0.0446 0.9652
vn 0.0308 -0.0603 0.9977
vn 0.0271 -0.0809 0.9963
vn 0.0424 -0.1111 0.9929
vn 0.0840 -0.0155 0.9963
vn -0.0156 -0.0661 0.9977
vn -0.1031 0.0621 0.9927
vn -0.0500 0.0643 0.9967
vn -0.0719 -0.7233 0.6868
vn 0.0554 -0.6205 0.7823
vn 0.0304 -0.0775 0.9965
vn -0.5291 0.0765 0.8451
vn -0.1446 0.1404 0.9795
vn 0.1973 -0.3673 0.9089
vn 0.0299 -0.0781 0.9965
vn 0.0071 -0.0591 0.9982
vn 0.0525 -0.0831 0.9952
vn 0.2323 -0.4044 0.8846
vn 0.0682 -0.0862 0.9939
vn -0.0707 -0.0488 0.9963
vn 0.0519 -0.0668 0.9964
vn -0.0179 -0.1302 0.9913
vn 0.1722 -0.3145 0.9335
vn 0.0306 -0.1057 0.9939
vn 0.2487 -0.3762 0.8925
vn 0.1451 -0.3917 0.9086
vn -0.0382 -0.0920 0.9950
vn -0.1312 -0.0941 0.9869
vn -0.3999 -0.5646 0.7221
vn 0.0314 -0.5576 0.8295
vn 0.0866 -0.0940 0.9918
vn -0.4274 -0.6236 0.6545
vn 0.0160 -0.0485 0.9987
vn 0.0313 -0.1049 0.9940
vn -0.0223 -0.0312 0.9993
vn -0.0018 -0.0817 0.9967
vn 0.0291 0.0226 0.9993
vn 0.0112 0.0337 0.9994
vn -0.0974 -0.5930 0.7993
vn -0.1567 -0.1207 0.9803
usemtl None
s off
f 1//1 2//1 3//1
f 4//2 5//2 6//2
f 7//3 8//3 9//3
f 10//4 6//4 5//4
f 11//5 12//5 1//5
f 11//6 1//6 13//6
f 14//7 15//7 11//7
f 14//8 11//8 13//8
f 10//9 16//9 6//9
f 17//10 19//10 18//10
f 20//11 21//11 6//11
f 15//12 22//12 10//12
f 4//13 23//13 5//13
f 10//14 23//14 15//14
f 10//15 5//15 23//15
f 21//16 4//16 6//16
f 24//17 25//17 15//17
f 24//18 15//18 14//18
f 13//19 1//19 3//19
f 12//20 11//20 15//20
f 15//21 25//21 22//21
f 12//22 15//22 23//22
f 26//23 21//23 20//23
f 26//24 28//24 27//24
f 26//25 20//25 28//25
f 29//26 2//26 1//26
f 30//27 20//27 31//27
f 27//28 28//28 32//28
f 27//29 32//29 33//29
f 34//30 35//30 9//30
f 36//31 35//31 34//31
f 32//32 37//32 36//32
f 9//33 35//33 7//33
f 37//34 38//34 36//34
f 36//35 38//35 39//35
f 39//36 7//36 36//36
f 36//37 7//37 35//37
f 40//38 9//38 41//38
f 40//39 42//39 9//39
f 40//40 43//40 42//40
f 40//41 41//41 43//41
f 44//42 43//42 45//42
f 9//43 46//43 41//43
f 9//44 8//44 46//44
f 45//45 47//45 44//45
f 45//46 48//46 47//46
f 45//47 41//47 46//47
f 47//48 48//48 49//48
f 50//49 47//49 51//49
f 49//50 51//50 47//50
f 52//51 50//51 51//51
f 51//52 53//52 52//52
f 54//53 56//53 55//53
f 54//54 55//54 57//54
f 55//55 58//55 57//55
f 59//56 55//56 60//56
f 61//57 58//57 55//57
f 59//58 60//58 62//58
f 59//59 61//59 55//59
f 63//60 61//60 64//60
f 59//61 64//61 61//61
f 65//62 63//62 64//62
f 19//63 61//63 63//63
f 19//64 66//64 67//64
f 66//65 19//65 17//65
f 25//66 24//66 14//66
f 10//67 22//67 68//67
f 55//68 69//68 60//68
f 70//69 71//69 67//69
f 66//70 70//70 67//70
f 72//71 48//71 45//71
f 69//72 55//72 56//72
f 73//73 51//73 49//73
f 72//74 45//74 74//74
f 20//75 30//75 28//75
f 41//76 45//76 43//76
f 70//77 75//77 71//77
f 50//78 52//78 47//78
f 56//79 54//79 76//79
f 32//80 36//80 34//80
f 77//81 56//81 78//81
f 33//82 32//82 34//82
f 30//83 32//83 28//83
f 54//84 58//84 76//84
f 58//85 54//85 57//85
f 79//86 16//86 68//86
f 68//87 16//87 10//87
f 56//88 53//88 78//88
f 14//89 13//89 80//89
f 51//90 73//90 53//90
f 77//91 69//91 56//91
f 56//92 76//92 52//92
f 52//93 53//93 56//93
f 81//94 18//94 63//94
f 63//95 18//95 19//95
f 81//96 63//96 65//96
f 81//97 65//97 64//97
