# Blender v2.79 (sub 0) OBJ File: ''
# www.blender.org
mtllib my_crack_surf__9.mtl
o my_crack_surf__9
v 154.022003 10.916775 153.367004
v 153.927994 20.930073 162.914993
v 130.278000 -9.912421 130.240005
v 140.268005 -4.765262 135.231995
v 111.695000 68.704559 216.235016
v 133.367004 64.542473 202.468018
v 116.195999 55.354370 197.592010
v 147.283005 18.605473 159.753998
v 129.212997 19.544273 159.800995
v 147.097000 51.570171 190.518021
vn -0.0982 -0.6872 0.7198
vn 0.1058 -0.7905 0.6033
vn 0.2366 -0.7620 0.6028
vn -0.1036 -0.6848 0.7214
vn -0.0350 -0.7086 0.7048
vn -0.0381 -0.7651 0.6427
vn -0.0445 -0.7328 0.6790
vn 0.1046 -0.6117 0.7842
vn 0.0914 -0.6552 0.7499
usemtl None
s off
f 1//1 2//1 3//1
f 1//2 3//2 4//2
f 5//3 7//3 6//3
f 8//4 3//4 2//4
f 8//5 9//5 3//5
f 9//6 8//6 2//6
f 9//7 2//7 7//7
f 6//8 7//8 10//8
f 2//9 10//9 7//9
