# Blender v2.79 (sub 0) OBJ File: ''
# www.blender.org
mtllib my_crack_surf__148.mtl
o my_crack_surf__148
v 149.373001 103.242958 217.220016
v 112.473999 66.667572 203.796021
v 116.468002 108.727959 226.450012
v 64.047798 114.529961 241.733017
v 66.071800 128.733948 247.360016
v 88.613098 112.866959 235.305008
v 39.733601 139.276947 255.663010
v 0.656155 157.197952 266.340027
v 3.743970 147.173950 266.253021
v 19.831100 178.475952 266.538025
v -19.553301 185.354950 271.652039
v -41.834599 123.699951 267.778046
v -10.170300 185.097961 270.601044
v 126.359001 65.234566 199.687012
v 118.463997 43.927269 184.705002
v 116.239998 55.294571 196.331009
v 171.166000 31.689772 170.968002
v 144.005005 36.015472 175.212006
v 170.093994 23.574274 163.285004
v 161.697006 -3.573221 129.169006
v 147.664993 -10.843019 119.137001
v 166.263000 4.197117 140.440002
v 168.487000 12.574775 151.059006
v -188.636993 -33.363541 263.247009
v -186.550995 2.189837 264.477997
v -127.958000 -30.289242 260.632996
v 158.451004 89.560272 209.281021
v 170.792007 60.988068 192.109009
v 156.024002 50.899868 184.725021
v 129.147003 20.200573 159.065994
v 14.889100 -145.520050 258.417969
v 0.000000 -131.500046 258.824982
v 17.394400 -159.339050 258.758972
v 39.305199 -139.490051 257.213959
v 55.293800 -179.523041 260.289978
v 66.457901 -174.041046 260.016968
v 99.194397 -155.535049 258.239960
v 113.592003 -140.136047 256.707977
v 82.494499 -99.785637 255.682983
v 130.276993 -5.209150 126.724998
v 129.294998 5.463787 143.020996
v 130.274002 -9.318660 120.027000
v 172.880997 49.494270 184.199020
v 101.972000 78.445259 213.022018
v 75.618698 102.457962 232.735016
v 167.070007 71.120171 198.650009
v 150.845993 -14.733518 109.913002
v 146.294006 -16.876818 105.586998
v 129.061005 -22.355415 94.926804
v 130.264008 -16.741917 105.944000
v 122.692001 134.710953 237.268021
v 94.097702 130.940948 241.513016
v 155.149002 -11.307819 116.567001
v 70.624496 174.263962 259.468018
v 96.521698 159.192947 251.906036
v 110.490997 147.598953 245.464035
v 52.394798 133.667953 249.892014
v 50.583801 119.336960 245.107010
v 37.866600 123.695961 251.436020
v 23.178600 127.245956 258.088043
v 47.529999 160.870956 259.535034
v 5.474810 138.861954 265.021027
v 7.233110 130.521957 263.965027
v 42.510601 182.685959 264.722015
v 33.700401 183.819962 265.944031
v -58.984200 116.110954 268.449036
v -85.646004 169.575958 273.868042
v -40.340302 184.173950 273.162018
v -72.507202 175.586960 273.622040
v 21.655701 184.127960 267.331024
v -27.763800 185.014954 272.477020
v -34.574299 185.067947 272.978027
v -135.233994 127.574951 272.195038
v -145.039993 118.899956 271.832031
v -150.832993 113.419952 271.092041
v -125.785004 136.101959 272.793030
v -144.492004 -14.347443 261.576996
v -119.255997 49.007359 266.510986
v -143.367996 33.049660 265.015015
v -127.900002 24.638657 264.161011
v -130.757004 13.801957 263.217987
v -184.591003 54.847858 267.759003
v -179.080002 68.632553 268.483002
v -186.992004 47.150059 267.347992
v -129.240005 -8.055483 261.346985
v -123.099998 -41.409344 260.765991
v -179.690994 -69.987648 262.648987
v -113.346001 -63.434040 262.842010
v -187.283005 -7.553043 263.946014
v -184.326004 -56.330643 262.833008
v -82.462502 -119.451042 260.598969
v -155.050995 -106.973045 262.225983
v -108.404999 -74.428848 262.649994
v -142.779999 -118.434044 262.231964
v -133.774994 -126.388046 262.254974
v -42.049301 -124.596046 260.465973
v -82.023598 -102.782043 261.324982
v -46.945499 -182.526047 262.103973
v -70.791397 -175.546051 261.977966
v -21.092501 -128.025040 260.038971
v 24.629801 -126.712036 257.274963
v 36.847500 -124.358040 257.484955
v 49.025299 -122.019035 256.813965
v 23.107700 -175.946045 260.002960
v 76.316299 -169.908051 259.751984
v 141.201004 -107.858040 251.662979
v 93.641998 -92.316536 253.697983
v 136.832001 -77.739838 246.740982
v 122.714996 -47.157940 243.232986
v 128.792999 -3.853408 233.238998
v 138.544006 -15.349538 235.307999
v 148.679001 4.123743 229.365997
v 162.328003 -11.361438 232.899994
v 157.949997 2.032212 229.391006
v 140.425003 18.689564 223.811996
v 131.072006 9.282113 228.645004
v 149.445999 13.211463 226.175995
v 154.514008 8.258213 227.998001
v -82.669601 -169.100052 261.693970
v -113.352997 148.874954 273.431030
v -188.871994 -27.475742 263.395996
v -188.654999 -19.426245 263.592010
v -130.270996 -129.415039 262.213959
v -110.051003 -150.623047 262.044983
v -94.176399 -161.753052 261.935974
v 127.398003 21.286163 223.201996
v 61.450802 177.624954 261.621033
v -137.688004 -123.092049 262.195984
v -186.563995 -47.974541 262.963013
v -107.335999 155.780960 273.888031
v -99.104698 162.590958 274.152039
v -111.323997 68.235451 268.213989
v -164.369995 96.081253 270.003021
v -157.582001 106.198952 270.623016
v -58.559898 -179.473053 262.102966
v -0.423303 -183.750046 261.018982
v 30.920401 -183.636047 260.340973
v 148.335007 -98.632339 249.843979
v 158.128998 -79.756035 246.990982
v -98.232803 85.832352 268.649994
v -171.692001 83.466255 269.316986
v -62.797001 179.244949 273.450043
v 89.492699 163.715958 254.323029
v 22.237200 142.463959 261.146027
v 88.906097 -163.241043 258.990967
v -29.233900 -184.783051 261.749969
v -166.074005 -93.881348 262.274963
v 123.830002 -128.821045 255.198990
v -187.264999 33.450058 266.437012
v -186.289993 8.618267 264.847992
v 71.295403 -107.297035 256.947968
v 154.684998 96.273964 213.276016
v 0.057188 183.693954 269.301025
v 41.817902 -182.505051 260.346954
v 166.278000 -49.808239 241.659988
v 165.412994 -22.628439 235.501999
v 166.141998 -28.636639 237.251999
vn 0.1619 -0.4798 0.8623
vn 0.2090 -0.3858 0.8986
vn 0.2981 0.0836 0.9509
vn 0.1841 -0.1749 0.9672
vn 0.1080 -0.1012 0.9890
vn 0.3849 -0.6220 0.6818
vn 0.0039 -0.6878 0.7259
vn 0.0294 -0.8285 0.5593
vn -0.0964 -0.7715 0.6289
vn 0.0449 -0.0372 0.9983
vn 0.1028 -0.4794 0.8716
vn 0.0667 -0.6511 0.7561
vn 0.1107 -0.5988 0.7932
vn 0.1104 -0.5970 0.7946
vn 0.0829 -0.4584 0.8849
vn 0.1963 -0.5062 0.8398
vn 0.0294 -0.7275 0.6855
vn 0.0608 0.0356 0.9975
vn -0.0111 0.0722 0.9973
vn 0.0433 0.0587 0.9973
vn -0.0328 -0.8370 0.5462
vn -0.0479 -0.8514 0.5224
vn -0.0218 -0.5695 0.8217
vn -0.0051 -0.7365 0.6764
vn -0.0078 -0.7429 0.6694
vn 0.2113 -0.4790 0.8520
vn 0.2094 -0.4728 0.8559
vn 0.2014 -0.4760 0.8561
vn -0.4566 -0.5948 0.6616
vn -0.0624 -0.9271 0.3695
vn 0.0026 -0.8911 0.4538
vn 0.0029 -0.8846 0.4663
vn 0.1810 -0.4147 0.8918
vn 0.2291 -0.3777 0.8972
vn 0.0851 -0.9072 0.4120
vn -0.0864 -0.5614 0.8231
vn 0.1089 -0.3296 0.9378
vn 0.0785 -0.3451 0.9353
vn 0.2971 -0.2730 0.9150
vn 0.3247 -0.3362 0.8840
vn 0.0956 -0.3784 0.9207
vn 0.0584 -0.3228 0.9447
vn 0.0827 -0.2638 0.9610
vn 0.2913 -0.2828 0.9139
vn 0.3378 -0.2839 0.8974
vn 0.1770 -0.3006 0.9372
vn 0.2970 -0.2714 0.9155
vn 0.3218 -0.0729 0.9440
vn 0.3367 -0.0481 0.9404
vn 0.0979 -0.1259 0.9872
vn 0.0917 -0.1060 0.9901
vn 0.1096 -0.2136 0.9707
vn 0.1158 -0.2045 0.9720
vn 0.1120 -0.1822 0.9769
vn 0.0327 0.0014 0.9995
vn 0.0685 -0.0667 0.9954
vn 0.0773 -0.0903 0.9929
vn 0.0550 -0.0796 0.9953
vn 0.1083 -0.1723 0.9791
vn 0.0846 -0.8718 0.4825
vn 0.0692 -0.2472 0.9665
vn 0.5801 -0.6749 0.4561
vn 0.3458 -0.4414 0.8280
vn -0.0142 -0.0720 0.9973
vn 0.3817 -0.2219 0.8972
vn 0.1261 -0.1190 0.9849
vn 0.0319 -0.0652 0.9974
vn 0.0328 -0.0635 0.9974
vn 0.0488 -0.0818 0.9955
vn 0.0769 0.0207 0.9968
vn 0.0276 -0.0305 0.9992
vn -0.0117 0.0887 0.9960
vn -0.7716 0.0233 0.6356
vn -0.0300 -0.0236 0.9993
vn 0.0433 -0.0057 0.9990
vn 0.0231 0.0039 0.9997
vn -0.0030 -0.0472 0.9989
vn -0.0011 -0.0180 0.9998
vn -0.0385 -0.0407 0.9984
vn 0.0279 0.0321 0.9991
vn -0.0022 -0.0435 0.9991
vn 0.0033 -0.0436 0.9990
vn 0.0020 0.0250 0.9997
vn 0.0636 0.0373 0.9973
vn 0.0567 0.0313 0.9979
vn -0.0133 -0.0201 0.9997
vn 0.0567 -0.0087 0.9984
vn -0.2948 -0.0299 0.9551
vn 0.0393 0.0403 0.9984
vn 0.0275 0.0875 0.9958
vn -0.0032 0.0512 0.9987
vn -0.0053 0.0767 0.9970
vn 0.0860 0.1340 0.9872
vn 0.1039 0.1606 0.9815
vn 0.1857 0.1961 0.9628
vn 0.0037 0.1801 0.9836
vn 0.0585 0.2709 0.9608
vn 0.0280 0.4346 0.9002
vn 0.0570 0.3264 0.9435
vn -0.0143 0.3323 0.9431
vn 0.0528 0.2457 0.9679
vn -0.0119 0.0221 0.9997
vn 0.1099 -0.8716 0.4778
vn 0.0781 -0.1254 0.9890
vn 0.0143 -0.0247 0.9996
vn 0.0295 0.0206 0.9994
vn 0.0295 0.0202 0.9994
vn 0.0243 0.0249 0.9994
vn 0.0420 0.4232 0.9051
vn 0.1038 -0.2074 0.9727
vn -0.2522 -0.2828 0.9254
vn -0.0308 -0.0238 0.9992
vn 0.0553 0.3211 0.9454
vn 0.0882 0.2484 0.9646
vn -0.0145 -0.7076 0.7064
vn 0.1083 -0.1689 0.9797
vn -0.0047 -0.0863 0.9963
vn 0.0462 0.0159 0.9988
vn 0.0350 0.0219 0.9991
vn 0.0011 -0.0619 0.9981
vn 0.0950 -0.1479 0.9844
vn 0.0450 0.1714 0.9842
vn 0.0213 0.0655 0.9976
vn 0.0164 0.0803 0.9966
vn 0.0362 0.1663 0.9854
vn 0.0024 0.1482 0.9890
vn 0.0419 -0.0476 0.9980
vn 0.0135 0.0315 0.9994
vn -0.0512 -0.4252 0.9037
vn 0.1958 -0.4585 0.8669
vn 0.1869 -0.4154 0.8902
vn 0.0040 -0.0566 0.9984
vn 0.0490 -0.0832 0.9953
vn -0.1501 -0.6372 0.7559
vn 0.2655 -0.1741 0.9483
vn 0.0315 0.0552 0.9980
vn 0.0311 0.0552 0.9980
vn 0.1857 -0.3961 0.8993
vn -0.0007 -0.0642 0.9979
vn 0.0399 -0.5608 0.8270
vn -0.0245 -0.5948 0.8035
vn 0.0283 0.0654 0.9975
vn 0.0226 0.0758 0.9969
vn -0.0437 -0.0405 0.9982
vn 0.0799 0.0868 0.9930
vn -0.3760 0.4484 0.8109
vn 0.0317 -0.0669 0.9973
vn 0.0317 -0.0626 0.9975
vn -0.0338 0.0420 0.9985
vn 0.0783 0.0509 0.9956
vn -0.0038 -0.0871 0.9962
vn 0.0274 -0.0697 0.9972
vn -0.0432 -0.0248 0.9988
vn -0.1190 -0.5562 0.8225
vn -0.0072 -0.0698 0.9975
vn 0.0368 -0.0521 0.9980
vn 0.2004 -0.4904 0.8482
vn 0.3404 0.4293 0.8366
vn 0.2192 -0.1792 0.9591
vn 0.1394 -0.2356 0.9618
vn 0.0989 0.1745 0.9797
vn 0.0923 -0.0896 0.9917
vn 0.2163 -0.2038 0.9548
vn 0.1590 -0.1598 0.9743
vn -0.0045 0.0393 0.9992
vn -0.0048 0.0406 0.9992
vn -0.0115 -0.8911 0.4536
vn 0.1115 -0.1030 0.9884
vn 0.2366 0.1688 0.9568
vn 0.0365 -0.0827 0.9959
vn 0.0291 -0.8149 0.5788
vn 0.0324 -0.0894 0.9955
vn 0.0295 -0.0586 0.9978
vn 0.0399 -0.0732 0.9965
vn 0.0049 0.1740 0.9847
vn -0.0152 0.2097 0.9776
vn -0.0333 0.2162 0.9758
vn -0.1305 0.2626 0.9560
vn 0.0223 0.0217 0.9995
vn -0.0341 0.0418 0.9985
vn -0.0243 0.2036 0.9787
usemtl None
s off
f 1//1 3//1 2//1
f 4//2 6//2 5//2
f 7//3 8//3 9//3
f 8//4 7//4 10//4
f 11//5 12//5 13//5
f 14//6 16//6 15//6
f 17//7 18//7 19//7
f 20//8 22//8 21//8
f 23//9 21//9 22//9
f 24//10 26//10 25//10
f 14//11 28//11 27//11
f 14//12 29//12 28//12
f 14//13 15//13 29//13
f 18//14 29//14 15//14
f 1//15 14//15 27//15
f 14//16 1//16 2//16
f 15//17 30//17 18//17
f 31//18 32//18 33//18
f 34//19 35//19 36//19
f 37//20 38//20 39//20
f 40//21 21//21 41//21
f 40//22 42//22 21//22
f 28//23 29//23 43//23
f 30//24 41//24 23//24
f 30//25 23//25 19//25
f 44//26 2//26 3//26
f 44//27 6//27 45//27
f 44//28 3//28 6//28
f 46//29 27//29 28//29
f 47//30 21//30 42//30
f 48//31 50//31 49//31
f 48//32 42//32 50//32
f 1//33 51//33 3//33
f 52//34 6//34 3//34
f 47//35 53//35 21//35
f 54//36 56//36 55//36
f 54//37 52//37 56//37
f 6//38 52//38 54//38
f 6//39 54//39 5//39
f 57//40 59//40 58//40
f 58//41 4//41 5//41
f 58//42 5//42 57//42
f 57//43 5//43 54//43
f 57//44 7//44 59//44
f 60//45 59//45 7//45
f 54//46 61//46 57//46
f 7//47 57//47 61//47
f 60//48 9//48 62//48
f 62//49 63//49 60//49
f 12//50 62//50 9//50
f 62//51 12//51 63//51
f 7//52 61//52 10//52
f 10//53 61//53 64//53
f 65//54 10//54 64//54
f 12//55 9//55 8//55
f 12//56 67//56 66//56
f 68//57 12//57 11//57
f 67//58 12//58 69//58
f 70//59 10//59 65//59
f 11//60 71//60 68//60
f 72//61 68//61 71//61
f 73//62 74//62 75//62
f 76//63 73//63 67//63
f 77//64 78//64 79//64
f 78//65 77//65 80//65
f 81//66 80//66 77//66
f 82//67 79//67 83//67
f 82//68 84//68 79//68
f 77//69 85//69 81//69
f 25//70 26//70 77//70
f 26//71 85//71 77//71
f 86//72 87//72 88//72
f 25//73 89//73 24//73
f 90//74 87//74 24//74
f 87//75 26//75 24//75
f 91//76 87//76 92//76
f 91//77 93//77 87//77
f 88//78 87//78 93//78
f 94//79 95//79 92//79
f 95//80 91//80 92//80
f 96//81 97//81 91//81
f 93//82 91//82 97//82
f 98//83 91//83 99//83
f 100//84 33//84 32//84
f 101//85 32//85 31//85
f 34//86 102//86 101//86
f 102//87 34//87 103//87
f 104//88 31//88 33//88
f 34//89 101//89 31//89
f 31//90 35//90 34//90
f 104//91 35//91 31//91
f 105//92 34//92 36//92
f 106//93 107//93 39//93
f 108//94 109//94 107//94
f 110//95 109//95 108//95
f 110//96 108//96 111//96
f 112//97 113//97 114//97
f 115//98 116//98 117//98
f 112//99 117//99 116//99
f 118//100 117//100 112//100
f 112//101 114//101 118//101
f 119//102 99//102 91//102
f 21//103 53//103 20//103
f 76//104 67//104 120//104
f 24//105 122//105 121//105
f 123//106 91//106 95//106
f 124//107 91//107 123//107
f 124//108 125//108 91//108
f 126//109 116//109 115//109
f 127//110 64//110 61//110
f 128//111 95//111 94//111
f 90//112 24//112 129//112
f 112//113 116//113 110//113
f 110//114 111//114 112//114
f 19//115 18//115 30//115
f 130//116 67//116 131//116
f 132//117 79//117 78//117
f 33//118 100//118 98//118
f 125//119 119//119 91//119
f 133//120 132//120 134//120
f 120//121 67//121 130//121
f 98//122 99//122 135//122
f 136//123 137//123 104//123
f 104//124 33//124 136//124
f 138//125 108//125 106//125
f 138//126 139//126 108//126
f 140//127 66//127 73//127
f 98//128 100//128 91//128
f 100//129 96//129 91//129
f 45//130 6//130 4//130
f 51//131 52//131 3//131
f 141//132 132//132 133//132
f 142//133 69//133 12//133
f 54//134 55//134 143//134
f 144//135 60//135 7//135
f 39//136 145//136 37//136
f 105//137 145//137 39//137
f 52//138 51//138 56//138
f 75//139 134//139 132//139
f 17//140 29//140 18//140
f 43//141 29//141 17//141
f 98//142 146//142 33//142
f 33//143 146//143 136//143
f 92//144 87//144 147//144
f 38//145 106//145 39//145
f 106//146 38//146 148//146
f 149//147 79//147 84//147
f 149//148 150//148 79//148
f 105//149 151//149 103//149
f 151//150 105//150 39//150
f 79//151 132//151 141//151
f 83//152 79//152 141//152
f 24//153 89//153 122//153
f 152//154 1//154 27//154
f 75//155 132//155 73//155
f 73//156 132//156 140//156
f 2//157 16//157 14//157
f 7//158 9//158 144//158
f 144//159 9//159 60//159
f 54//160 127//160 61//160
f 108//161 107//161 106//161
f 153//162 12//162 70//162
f 10//163 70//163 8//163
f 70//164 12//164 8//164
f 104//165 137//165 35//165
f 154//166 35//166 137//166
f 47//167 42//167 48//167
f 153//168 13//168 12//168
f 108//169 112//169 111//169
f 66//170 67//170 73//170
f 23//171 41//171 21//171
f 142//172 12//172 68//172
f 25//173 79//173 150//173
f 77//174 79//174 25//174
f 155//175 108//175 139//175
f 112//176 108//176 113//176
f 156//177 113//177 108//177
f 108//178 157//178 156//178
f 26//179 87//179 86//179
f 105//180 103//180 34//180
f 155//181 157//181 108//181
