# Blender v2.79 (sub 0) OBJ File: ''
# www.blender.org
mtllib my_crack_surf__112.mtl
o my_crack_surf__112
v 130.274002 -9.760950 120.390999
v 145.192993 -15.869818 111.362999
v 151.317001 -12.157419 118.289001
v 137.408005 -0.475344 134.975998
v 147.968002 97.581764 214.108017
v 133.414993 60.773769 195.723022
v 75.575203 102.497963 232.709015
v 66.122704 128.702957 247.562012
v 3.743970 147.173950 266.253021
v 27.858999 180.669952 266.127045
v 1.694880 180.987961 268.885040
v -54.247799 147.238953 270.773041
v -8.245830 181.717957 270.055023
v -181.822006 -32.847843 262.670013
v -169.625000 -6.420863 262.985992
v -159.848999 -20.566341 262.502991
v -114.441002 -137.273041 261.843964
v -138.639999 -112.741043 261.700958
v -82.462502 -119.451042 260.508972
v 39.307598 -139.488052 257.077972
v 0.000000 -131.500046 258.830963
v 26.564600 -177.111038 259.784973
v 118.455002 43.956871 184.703003
v 116.240997 55.292168 196.329010
v 144.003006 36.011475 175.225006
v 168.307999 35.060772 173.449005
v 156.878998 23.437374 162.360992
v 167.509003 31.282272 170.488998
v 159.639008 -1.215352 134.444000
v 155.880997 -7.263570 125.772003
v 117.342003 -117.347038 254.699982
v 106.799004 -100.525040 254.068985
v 122.718002 -108.088036 252.855988
v 46.697399 -172.040039 259.595978
v 66.277802 -165.764053 259.037964
v 129.311005 5.298676 143.216995
v 129.214005 12.906075 150.955994
v 146.841995 19.457973 158.572998
v 168.304001 51.341568 185.216019
v 137.307999 16.510176 155.037003
v 129.149002 20.179373 159.091003
v 164.462006 9.294066 148.363998
v 166.563004 20.605274 160.910004
v 149.358002 93.641060 211.864014
v 155.917007 84.644768 206.309021
v 111.426003 69.831169 205.945023
v 130.266998 -17.113617 106.279999
v 111.230003 139.701950 243.367020
v 125.721001 125.612961 232.760010
v 102.904999 148.352951 248.746033
v 95.290901 155.079956 252.277023
v 52.568401 133.563950 250.579010
v 50.725399 119.251961 245.667023
v 32.847401 125.341965 255.227020
v 64.016800 114.548965 241.610016
v 29.203501 132.047958 258.476044
v 70.827698 169.206955 259.360016
v 82.019897 163.586960 256.589020
v 23.936100 127.251953 259.207031
v 5.474760 138.861954 265.020020
v -41.746300 123.699951 267.909027
v 7.233110 130.521957 263.965027
v 42.695900 178.177948 264.439026
v 51.485401 175.900955 263.490021
v -40.546001 179.537949 272.490021
v -27.160999 181.349960 271.863037
v -59.045898 116.045952 268.620026
v -105.225998 100.683952 270.081024
v -98.275597 85.786652 268.769012
v -61.341801 173.868958 272.914032
v -67.736099 171.795959 273.029022
v -146.819000 108.687958 269.616028
v -119.335999 135.801956 271.592041
v -169.690002 75.682854 268.928009
v -113.192001 65.724251 268.144989
v -157.350006 96.453857 269.435028
v -177.639008 56.208260 267.875000
v -127.901001 24.628056 264.057007
v -180.313995 44.666557 267.139008
v -144.436005 -14.367643 261.472992
v -130.757996 13.787357 263.075012
v -129.238007 -8.064913 261.179993
v -182.371002 17.676556 265.156006
v -127.955002 -30.299242 260.455994
v -183.076004 -2.068623 263.957001
v -175.296005 -59.783543 262.390991
v -160.130997 -89.123848 262.359985
v -147.695007 -104.421043 261.620972
v -123.099998 -41.410240 260.751007
v -128.031998 -99.012848 262.041962
v -105.353996 -100.302048 261.709961
v -113.347000 -63.432640 262.881012
v -108.405998 -74.427849 262.678009
v -42.049301 -124.596046 260.465973
v -82.023598 -102.782043 261.324982
v -104.787003 -143.377045 262.050964
v -96.184502 -154.377045 262.162964
v -44.130299 -175.058044 260.469971
v -63.873501 -169.939041 261.064972
v -23.603500 -143.134048 260.694977
v 1.989440 -176.819046 259.821960
v -31.864500 -177.506042 260.742981
v 24.628799 -126.713036 257.223969
v 49.046600 -122.010040 256.732971
v 97.661697 -127.329041 256.804962
v 83.159897 -153.685043 258.077972
v 82.509697 -99.765038 256.509979
v 93.670898 -92.286942 254.574982
v 131.835999 -89.351936 249.147980
v 108.198997 -69.398041 247.948990
v 139.173004 -66.996338 244.729980
v 138.003006 -55.661537 243.337982
v 122.740997 -47.090538 243.834991
v 140.238007 -60.279339 243.734985
v 137.531006 -18.828817 104.966003
v -85.098801 -161.931046 262.124969
v 93.969704 -146.857040 257.149963
v 47.922600 176.912949 264.009033
v -182.789001 -10.400243 263.407013
v -183.417007 -17.155743 262.914001
v 134.003998 -50.306839 243.187988
v 129.703995 -45.920036 243.054001
v 110.133003 -128.325043 255.775986
v -107.051003 149.150955 272.788025
v -98.445801 156.775955 272.798035
v -82.238899 165.469955 272.836029
v 129.541000 -20.147415 98.950798
v 123.495003 -41.751038 242.845001
v -183.031006 -22.146942 262.700012
v 137.589005 111.509964 223.062012
v 35.529099 -176.517044 259.692963
v 115.219002 -122.714035 255.552979
v -182.449005 26.168856 265.759003
vn -0.0478 -0.8622 0.5044
vn -0.0400 -0.8339 0.5505
vn 0.1842 -0.4965 0.8482
vn 0.1974 -0.4285 0.8817
vn 0.1037 -0.0709 0.9921
vn 0.0774 -0.0727 0.9943
vn 0.1071 -0.1224 0.9867
vn 0.0192 -0.0208 0.9996
vn 0.0248 0.0303 0.9992
vn 0.0552 0.0530 0.9971
vn 0.2392 -0.6720 0.7008
vn 0.1031 -0.6077 0.7874
vn 0.0245 -0.7025 0.7112
vn -0.1752 -0.5839 0.7927
vn -0.0134 -0.8174 0.5759
vn -0.0091 -0.7500 0.6614
vn 0.1317 0.1195 0.9841
vn 0.0034 0.0779 0.9970
vn 0.0793 -0.7781 0.6231
vn -0.0174 -0.7131 0.7008
vn 0.4592 -0.8091 -0.3668
vn 0.0685 -0.6186 0.7827
vn -0.0062 -0.7182 0.6958
vn 0.0287 -0.7266 0.6865
vn -0.1119 -0.7287 0.6757
vn -0.0818 -0.6615 0.7454
vn -0.0363 -0.8349 0.5493
vn 0.0363 -0.5854 0.8099
vn -0.0485 -0.6990 0.7135
vn -0.0041 -0.7455 0.6665
vn -0.3277 -0.0704 0.9422
vn 0.0911 -0.4742 0.8757
vn 0.1985 -0.4816 0.8536
vn -0.0265 -0.8291 0.5584
vn 0.0821 -0.4711 0.8782
vn 0.1240 -0.4976 0.8585
vn -0.0832 -0.8837 0.4605
vn 0.1921 -0.4565 0.8688
vn 0.1790 -0.3895 0.9035
vn 0.1445 -0.3267 0.9340
vn 0.3489 -0.3441 0.8717
vn 0.1347 -0.4011 0.9061
vn 0.0893 -0.3336 0.9385
vn 0.1079 -0.2894 0.9511
vn 0.2084 -0.1464 0.9670
vn 0.0940 -0.2833 0.9544
vn 0.1143 -0.3016 0.9466
vn 0.3252 -0.1382 0.9355
vn 0.2317 -0.1071 0.9669
vn 0.3505 -0.2472 0.9034
vn 0.0944 -0.1053 0.9899
vn 0.0612 -0.2837 0.9569
vn 0.0279 -0.2909 0.9563
vn 0.0769 -0.1306 0.9884
vn 0.0851 -0.0757 0.9935
vn 0.0571 -0.0771 0.9954
vn 0.0764 -0.0803 0.9938
vn 0.0526 -0.0632 0.9966
vn 0.0330 -0.0466 0.9984
vn 0.0396 -0.0698 0.9968
vn -0.0211 -0.0514 0.9985
vn 0.0074 -0.0366 0.9993
vn 0.0062 -0.0281 0.9996
vn 0.0336 -0.0676 0.9971
vn 0.0315 -0.0709 0.9970
vn 0.0534 -0.0826 0.9952
vn 0.1101 -0.1097 0.9878
vn 0.0367 -0.0477 0.9982
vn -0.3156 -0.2494 0.9155
vn 0.0320 -0.0307 0.9990
vn 0.0652 0.0037 0.9979
vn 0.0593 -0.0393 0.9975
vn 0.0564 -0.0251 0.9981
vn 0.0118 -0.0075 0.9999
vn 0.0314 0.0152 0.9994
vn -0.0154 0.0198 0.9997
vn 0.0592 -0.0001 0.9982
vn -0.0282 0.0248 0.9993
vn 0.0158 0.0210 0.9997
vn -0.4897 -0.1335 0.8616
vn -0.0570 -0.0440 0.9974
vn 0.0119 -0.0485 0.9988
vn -0.0185 -0.0105 0.9998
vn 0.0167 -0.0377 0.9991
vn -0.0051 -0.0488 0.9988
vn 0.0127 -0.0359 0.9993
vn 0.0113 -0.0492 0.9987
vn 0.0121 0.0530 0.9985
vn 0.0316 0.0349 0.9989
vn 0.0364 0.0244 0.9990
vn 0.0030 0.0154 0.9999
vn 0.0666 0.0247 0.9975
vn 0.0273 -0.0052 0.9996
vn 0.0550 0.0518 0.9971
vn 0.0018 0.0219 0.9998
vn 0.0183 0.0096 0.9998
vn 0.0006 0.0194 0.9998
vn 0.0367 0.0280 0.9989
vn -0.0003 0.0105 0.9999
vn 0.1018 0.0666 0.9926
vn 0.1026 0.1028 0.9894
vn 0.1358 0.1283 0.9824
vn 0.0893 0.1648 0.9823
vn 0.0985 0.1180 0.9881
vn 0.0955 0.1310 0.9868
vn 0.0924 0.1308 0.9871
vn -0.1062 -0.8479 0.5194
vn 0.0281 0.0363 0.9989
vn 0.0627 0.0341 0.9975
vn 0.0845 0.0016 0.9964
vn -0.1544 -0.8236 0.5457
vn -0.2828 -0.0436 0.9582
vn 0.0826 0.0895 0.9926
vn 0.0908 0.1192 0.9887
vn -0.2136 -0.7427 0.6347
vn 0.0824 0.0020 0.9966
vn 0.0495 -0.0538 0.9973
vn -0.0041 0.0034 1.0000
vn -0.9666 -0.0499 0.2514
vn 0.0188 -0.7222 0.6914
vn 0.2612 -0.0667 0.9630
vn -0.0307 -0.1019 0.9943
vn 0.1887 -0.4975 0.8467
vn -0.1440 -0.9092 0.3906
vn 0.0967 -0.1084 0.9894
vn -0.0089 0.0653 0.9978
vn 0.0815 0.1706 0.9820
vn -0.7443 -0.0860 0.6623
vn 0.3242 -0.2640 0.9084
vn -0.0351 -0.0571 0.9978
vn 0.2521 -0.4068 0.8781
vn 0.0345 -0.0758 0.9965
vn 0.0218 -0.0959 0.9952
vn -0.0048 -0.0040 1.0000
vn 0.0488 0.0608 0.9970
vn -0.0210 0.0064 0.9998
vn 0.2460 -0.0919 0.9649
vn 0.0518 -0.0624 0.9967
vn 0.0664 0.0789 0.9947
vn 0.0074 -0.0212 0.9997
vn 0.2030 -0.4180 0.8855
vn 0.1951 -0.4390 0.8771
vn 0.0056 0.0699 0.9975
vn -0.0204 0.0725 0.9972
vn -0.0356 0.0512 0.9981
vn 0.1084 0.1871 0.9763
vn 0.1529 0.1840 0.9710
vn 0.0354 -0.0721 0.9968
vn 0.0353 -0.0742 0.9966
vn 0.1037 -0.2877 0.9521
vn -0.2207 0.2376 0.9459
vn 0.0854 0.0415 0.9955
vn -0.0289 -0.0711 0.9971
vn -0.0034 -0.0978 0.9952
usemtl None
s off
f 1//1 2//1 3//1
f 1//2 3//2 4//2
f 5//3 7//3 6//3
f 5//4 8//4 7//4
f 9//5 10//5 11//5
f 9//6 11//6 12//6
f 13//7 12//7 11//7
f 14//8 16//8 15//8
f 17//9 19//9 18//9
f 20//10 21//10 22//10
f 6//11 24//11 23//11
f 25//12 6//12 23//12
f 26//13 25//13 27//13
f 26//14 27//14 28//14
f 29//15 4//15 30//15
f 27//16 4//16 29//16
f 31//17 33//17 32//17
f 20//18 34//18 35//18
f 27//19 36//19 4//19
f 27//20 37//20 36//20
f 27//21 38//21 37//21
f 25//22 39//22 6//22
f 40//23 27//23 25//23
f 23//24 41//24 25//24
f 42//25 43//25 27//25
f 28//26 27//26 43//26
f 1//27 4//27 36//27
f 39//28 25//28 26//28
f 40//29 37//29 38//29
f 40//30 41//30 37//30
f 40//31 38//31 27//31
f 44//32 6//32 45//32
f 46//33 6//33 7//33
f 30//34 4//34 3//34
f 5//35 6//35 44//35
f 39//36 45//36 6//36
f 1//37 47//37 2//37
f 8//38 49//38 48//38
f 8//39 48//39 50//39
f 51//40 8//40 50//40
f 52//41 54//41 53//41
f 53//42 55//42 8//42
f 53//43 8//43 52//43
f 51//44 52//44 8//44
f 56//45 10//45 9//45
f 57//46 52//46 58//46
f 51//47 58//47 52//47
f 52//48 10//48 56//48
f 9//49 59//49 56//49
f 59//50 54//50 56//50
f 60//51 61//51 62//51
f 52//52 63//52 10//52
f 64//53 63//53 52//53
f 12//54 60//54 9//54
f 61//55 60//55 12//55
f 65//56 12//56 66//56
f 12//57 67//57 61//57
f 68//58 69//58 67//58
f 70//59 71//59 65//59
f 12//60 65//60 71//60
f 72//61 68//61 73//61
f 69//62 74//62 75//62
f 74//63 69//63 76//63
f 77//64 78//64 74//64
f 77//65 79//65 78//65
f 80//66 82//66 81//66
f 81//67 16//67 80//67
f 83//68 16//68 81//68
f 83//69 15//69 16//69
f 84//70 82//70 80//70
f 84//71 80//71 16//71
f 85//72 14//72 15//72
f 16//73 86//73 84//73
f 16//74 14//74 86//74
f 87//75 84//75 86//75
f 88//76 89//76 84//76
f 88//77 84//77 87//77
f 89//78 88//78 90//78
f 89//79 90//79 91//79
f 89//80 91//80 92//80
f 92//81 91//81 93//81
f 19//82 91//82 90//82
f 88//83 18//83 90//83
f 19//84 90//84 18//84
f 94//85 95//85 19//85
f 93//86 91//86 95//86
f 19//87 95//87 91//87
f 96//88 19//88 17//88
f 19//89 96//89 97//89
f 98//90 19//90 99//90
f 100//91 94//91 19//91
f 101//92 21//92 100//92
f 101//93 100//93 102//93
f 103//94 21//94 20//94
f 101//95 22//95 21//95
f 20//96 104//96 103//96
f 105//97 104//97 20//97
f 105//98 35//98 106//98
f 105//99 107//99 104//99
f 107//100 105//100 32//100
f 107//101 32//101 108//101
f 32//102 33//102 109//102
f 110//103 109//103 111//103
f 112//104 113//104 110//104
f 114//105 112//105 111//105
f 112//106 110//106 111//106
f 115//107 2//107 47//107
f 116//108 19//108 97//108
f 116//109 99//109 19//109
f 117//110 105//110 106//110
f 64//111 118//111 63//111
f 14//112 119//112 120//112
f 121//113 113//113 112//113
f 121//114 122//114 113//114
f 42//115 27//115 29//115
f 105//116 117//116 123//116
f 124//117 68//117 67//117
f 125//118 124//118 126//118
f 119//119 14//119 85//119
f 40//120 25//120 41//120
f 59//121 60//121 62//121
f 69//122 68//122 72//122
f 46//123 24//123 6//123
f 115//124 47//124 127//124
f 12//125 13//125 66//125
f 105//126 20//126 35//126
f 113//127 122//127 128//127
f 129//128 14//128 120//128
f 52//129 56//129 54//129
f 124//130 73//130 68//130
f 7//131 8//131 55//131
f 81//132 79//132 83//132
f 78//133 79//133 81//133
f 98//134 100//134 19//134
f 21//135 94//135 100//135
f 98//136 102//136 100//136
f 9//137 60//137 59//137
f 85//138 15//138 83//138
f 31//139 32//139 105//139
f 69//140 72//140 76//140
f 130//141 8//141 5//141
f 130//142 49//142 8//142
f 20//143 22//143 131//143
f 131//144 34//144 20//144
f 124//145 71//145 126//145
f 110//146 32//146 109//146
f 32//147 110//147 108//147
f 12//148 71//148 124//148
f 12//149 124//149 67//149
f 57//150 64//150 52//150
f 132//151 31//151 123//151
f 123//152 31//152 105//152
f 133//153 83//153 79//153
f 75//154 74//154 78//154
