# Blender v2.79 (sub 0) OBJ File: ''
# www.blender.org
mtllib my_crack_surf__159.mtl
o my_crack_surf__159
v 169.126007 14.821876 153.414993
v 166.442993 4.708997 140.194000
v 164.901001 1.258108 135.617004
v 112.474998 66.663467 203.800018
v 136.102997 121.944962 228.104019
v 88.613098 112.866959 235.305008
v 64.053703 114.526962 241.756012
v 66.067497 128.735947 247.343018
v 54.144001 148.035950 254.433029
v 13.896100 161.206955 265.405029
v 3.743970 147.173950 266.253021
v 14.464700 184.625961 268.257019
v 0.657126 157.195953 266.318024
v 27.623100 184.621948 266.693024
v 168.369995 36.108974 173.244995
v 167.647003 31.386774 169.358002
v 144.000000 36.048973 175.181000
v 163.434006 -1.660191 130.401001
v 147.641998 -10.750019 119.124001
v 129.785995 0.112225 134.886002
v 118.454002 43.963570 184.703003
v 156.035995 50.929169 184.782013
v 171.483994 27.795473 167.115005
v 17.392900 -159.321045 258.789978
v 0.000000 -131.500046 258.823975
v -21.092501 -128.025040 260.038971
v 88.017097 -166.783051 259.106964
v 100.483002 -157.831039 258.426971
v 78.994598 -120.962036 256.879974
v 101.065002 -106.260040 254.455978
v 93.634804 -92.323936 253.536987
v 156.738998 -88.409439 248.814987
v 163.908997 -69.316635 245.728989
v 136.809006 -77.715439 246.809982
v 150.001999 -99.716835 250.543991
v 170.059006 19.510473 158.610001
v 129.147003 20.204674 159.061005
v 130.274002 -9.254409 119.973999
v 173.246002 42.101269 178.619003
v 173.294998 51.731869 185.158020
v 129.294998 5.463787 143.020996
v 161.522003 87.123268 207.575012
v 116.237999 55.304470 196.339020
v 151.229996 105.016960 217.528015
v 101.988998 78.429962 213.032013
v 75.659103 102.420959 232.758011
v 165.001007 77.411469 202.003021
v 149.664001 -14.967817 108.289001
v 144.248993 -17.132418 103.894997
v 129.044006 -22.421816 94.857903
v 130.266006 -16.730717 105.953003
v 154.925003 -11.555120 115.196999
v 129.298996 -21.054815 97.639297
v 94.064400 130.940948 241.421021
v 98.524498 159.805954 251.507034
v 117.079002 142.757950 241.843033
v 51.643600 127.535965 247.936020
v 50.627899 119.310959 245.281021
v 37.812099 123.728958 251.220016
v 52.385899 133.672958 249.857010
v 42.993500 174.577957 263.450043
v 72.407097 174.575958 259.366028
v 62.590599 178.667953 261.479034
v 7.233110 130.521957 263.965027
v -41.855499 123.699951 267.747040
v 33.145901 185.344955 266.197021
v 40.833099 184.700958 265.224030
v -48.363201 135.418961 269.246033
v -54.249401 147.237961 270.742035
v -114.745003 143.920959 273.177032
v -58.970100 116.125954 268.410034
v -36.876301 185.608948 273.304016
v -28.420401 186.115952 272.733032
v -70.332901 177.741959 273.964020
v -76.676804 175.302948 274.036041
v -108.453003 88.280556 269.109009
v -98.220901 85.844955 268.617004
v -105.224998 100.690956 269.800018
v -113.192001 65.724251 268.144989
v -118.235001 51.830158 266.760010
v -163.546005 99.863953 270.427032
v -130.757004 13.806157 263.259003
v -144.503998 -14.343243 261.600006
v -127.899002 24.641657 264.190002
v -188.720001 48.388557 267.515015
v -129.240997 -8.052253 261.403992
v -188.602005 32.203957 266.502014
v -127.958000 -30.287441 260.665985
v -123.099998 -41.407841 260.792999
v -113.346001 -63.434143 262.838989
v -188.029999 -6.865823 264.105011
v -187.472000 7.008677 264.917999
v -189.835007 -19.958643 263.626007
v -188.641006 -37.495842 263.279999
v -178.699997 -72.576744 262.795013
v -82.458397 -119.453049 260.620972
v -108.404999 -74.428947 262.645996
v -127.929001 -133.225052 262.373962
v -82.023598 -102.782043 261.324982
v -42.049301 -124.596046 260.465973
v -71.424599 -177.458038 262.321960
v -89.626900 -168.356049 262.015961
v -59.178501 -181.652039 262.022980
v -34.170101 -185.094040 261.788971
v 42.945900 -123.184036 257.052979
v 24.629900 -126.712036 257.281982
v 39.308701 -139.485046 257.247955
v 35.922401 -184.794052 260.833984
v 6.872060 -184.900040 260.886963
v 53.380798 -180.779053 260.513977
v 60.172401 -114.653038 256.885956
v 71.296402 -107.297035 256.947968
v 115.473000 -58.235943 245.966980
v 130.279007 -123.357040 254.343979
v 144.048004 -66.561638 244.754990
v 145.244995 -53.757538 242.548981
v 122.711998 -47.163540 243.183990
v 169.039001 -28.295439 237.104004
v 165.751007 -10.089938 231.774002
v 126.761002 -18.299938 236.643005
v 168.427002 -36.931438 239.343994
v 128.757996 -3.938638 232.744003
v 131.091003 9.035482 228.205994
v 168.466995 -19.823038 234.393005
v 147.947998 12.012463 226.304001
v 156.751007 10.232463 226.574997
v 160.904999 2.663153 228.557007
v 153.371994 -94.731834 249.684982
v 153.026993 15.369564 224.408005
v 109.891998 149.988953 245.986023
v 2.612370 184.230957 268.950043
v -130.779007 133.972961 272.982025
v -112.880997 135.089951 272.201019
v -151.854004 114.006958 271.306030
v -145.403000 119.780952 272.302032
v -111.344002 -152.535049 261.981964
v 148.108002 19.551363 221.990005
v 170.949997 24.225773 163.811005
v -109.242996 118.025955 270.679016
v -181.251999 68.607452 268.528992
v -177.477997 76.824554 269.036987
v -88.820396 169.133957 274.179016
v -155.108994 -107.050049 262.401978
v -143.468002 -118.963043 262.316956
v -100.346001 162.650955 274.297028
v 155.981995 96.891861 213.409012
v 90.427498 165.356949 254.352036
v 25.734301 -186.545044 260.627960
v -6.989180 185.551956 270.197021
v 143.173004 113.251961 222.836014
v -165.419006 -94.624649 262.466980
v -11.896000 185.716949 270.723022
v -19.206699 186.239960 271.766022
v 136.815002 25.414265 218.740997
v 124.667000 29.515865 216.175003
v 168.354996 -45.084938 240.960007
v 172.074005 61.642471 192.029022
v -56.687901 181.820953 273.775024
v -86.020302 170.580948 274.137024
v 64.174301 -177.302048 259.919983
v 160.162994 -6.591230 123.558998
v 100.958000 -80.574936 251.046982
v 52.164600 182.202957 263.456024
v 130.727005 129.826965 232.818008
v -182.951996 -60.729141 262.981995
v -169.274994 -88.656944 262.579987
vn -0.0643 -0.7863 0.6145
vn 0.2195 -0.4697 0.8551
vn 0.2103 -0.3834 0.8993
vn 0.2288 -0.1070 0.9676
vn 0.2233 -0.1232 0.9669
vn 0.0647 0.0135 0.9978
vn 0.1145 -0.2400 0.9640
vn 0.0624 -0.6400 0.7659
vn 0.1935 -0.8784 0.4370
vn 0.0146 -0.8155 0.5785
vn 0.0134 -0.7968 0.6041
vn 0.1095 -0.5999 0.7925
vn 0.1404 -0.4122 0.9002
vn 0.0638 0.0387 0.9972
vn 0.0172 0.0519 0.9985
vn 0.0484 0.0914 0.9946
vn -0.0114 0.1637 0.9864
vn -0.0139 0.1592 0.9871
vn -0.0098 -0.7155 0.6986
vn 0.0026 -0.7144 0.6997
vn -0.0470 -0.8466 0.5302
vn 0.0588 -0.6926 0.7189
vn 0.0160 -0.5512 0.8342
vn 0.0081 -0.5617 0.8273
vn 0.9649 -0.1889 0.1825
vn 0.1469 -0.5086 0.8484
vn 0.1118 -0.4331 0.8944
vn 0.2345 -0.4621 0.8553
vn 0.2118 -0.4714 0.8561
vn 0.1784 -0.5436 0.8202
vn -0.0933 -0.5204 0.8488
vn -0.0632 -0.9340 0.3518
vn 0.0410 -0.8909 0.4524
vn 0.0439 -0.8816 0.4700
vn 0.1017 -0.9205 0.3773
vn 0.7353 -0.6325 0.2435
vn 0.1479 -0.3567 0.9224
vn 0.1616 -0.3477 0.9236
vn 0.1530 -0.3470 0.9253
vn 0.4372 -0.0595 0.8974
vn 0.3025 -0.3264 0.8955
vn 0.1072 -0.3769 0.9200
vn 0.0651 -0.3138 0.9473
vn 0.3010 -0.3178 0.8991
vn 0.0645 -0.3052 0.9501
vn 0.3041 -0.3228 0.8963
vn 0.1353 -0.1787 0.9746
vn 0.2240 -0.2741 0.9352
vn 0.3750 -0.0486 0.9257
vn 0.0924 -0.1165 0.9889
vn -0.1563 -0.3759 0.9134
vn 0.0311 0.0031 0.9995
vn 0.1177 -0.2378 0.9642
vn 0.1119 -0.1483 0.9826
vn 0.0942 -0.0787 0.9924
vn 0.0456 -0.1030 0.9936
vn 0.0605 -0.0495 0.9969
vn 0.0458 -0.1017 0.9938
vn 0.0752 -0.1433 0.9868
vn 0.0446 -0.0817 0.9957
vn 0.0408 -0.0768 0.9962
vn 0.1031 -0.1155 0.9879
vn 0.0327 -0.0640 0.9974
vn 0.0360 -0.0502 0.9981
vn -0.3489 0.0333 0.9366
vn 0.0098 -0.0669 0.9977
vn 0.1185 -0.1160 0.9862
vn 0.0246 -0.0767 0.9968
vn 0.0463 -0.0813 0.9956
vn 0.0453 -0.0621 0.9970
vn 0.0259 -0.0317 0.9992
vn 0.3237 0.2286 0.9181
vn 0.1155 0.0618 0.9914
vn 0.0470 -0.0603 0.9971
vn 0.0467 -0.0165 0.9988
vn 0.0394 -0.0026 0.9992
vn -0.8146 -0.4838 0.3200
vn -0.2234 -0.1174 0.9676
vn 0.0351 0.0114 0.9993
vn -0.0015 -0.0422 0.9991
vn 0.0046 -0.0423 0.9991
vn -0.0024 0.0289 0.9996
vn 0.0368 0.0363 0.9987
vn 0.0132 0.0276 0.9995
vn 0.0107 0.0096 0.9999
vn -0.0357 0.0541 0.9979
vn 0.0015 0.0811 0.9967
vn 0.1000 0.1123 0.9886
vn 0.0041 0.0618 0.9981
vn -0.0017 -0.0059 1.0000
vn 0.0587 0.0760 0.9954
vn 0.1124 0.0584 0.9920
vn 0.1516 0.0742 0.9857
vn 0.0942 0.1458 0.9848
vn -0.0636 0.1714 0.9832
vn 0.0799 0.1302 0.9883
vn 0.0886 0.1611 0.9830
vn 0.0835 0.1912 0.9780
vn -0.0211 0.1944 0.9807
vn 0.0703 0.1453 0.9869
vn -0.0062 0.1637 0.9865
vn -0.0244 0.1720 0.9848
vn 0.0107 0.2827 0.9591
vn 0.0775 0.2100 0.9746
vn -0.0053 0.1941 0.9810
vn 0.0775 0.3167 0.9453
vn 0.0673 0.2527 0.9652
vn 0.2224 0.3107 0.9241
vn -0.0509 0.2541 0.9658
vn 0.0579 0.2836 0.9572
vn 0.0222 0.2570 0.9662
vn -0.0553 0.2244 0.9729
vn 0.2352 0.0085 0.9719
vn 0.0578 0.4233 0.9042
vn -0.1260 -0.6189 0.7753
vn -0.0542 -0.5364 0.8422
vn 0.0620 -0.1221 0.9906
vn 0.0496 -0.0994 0.9938
vn 0.1644 -0.3432 0.9247
vn 0.0500 -0.0434 0.9978
vn 0.0355 0.0102 0.9993
vn 0.0174 0.0260 0.9995
vn 0.0218 0.0256 0.9994
vn -0.0043 0.4967 0.8679
vn -0.9748 -0.0543 0.2162
vn -0.0101 -0.0530 0.9985
vn 0.2079 -0.3692 0.9058
vn 0.0521 -0.0664 0.9964
vn 0.0928 -0.0754 0.9928
vn -0.1287 -0.0022 0.9917
vn 0.0664 -0.1077 0.9920
vn -0.0981 -0.1029 0.9898
vn -0.8972 -0.2272 0.3786
vn -0.9717 -0.2157 0.0966
vn 0.0495 -0.0987 0.9939
vn 0.0474 -0.0959 0.9943
vn -0.8146 -0.5575 0.1600
vn 0.0306 -0.7268 0.6862
vn -0.1048 -0.6153 0.7813
vn 0.1294 -0.2666 0.9551
vn 0.0023 -0.1299 0.9915
vn 0.1152 -0.0958 0.9887
vn 0.1192 -0.4419 0.8891
vn 0.1599 -0.8659 0.4740
vn 0.0488 -0.0564 0.9972
vn 0.0129 -0.0524 0.9985
vn 0.0070 0.0252 0.9997
vn 0.0147 0.0070 0.9999
vn 0.1325 -0.2685 0.9541
vn 0.0765 -0.1180 0.9901
vn 0.0103 -0.0664 0.9977
vn 0.1971 -0.4561 0.8678
vn 0.1181 -0.0903 0.9889
vn 0.1024 -0.1068 0.9890
vn 0.1009 -0.4035 0.9094
vn 0.0090 0.4980 0.8672
vn -0.0125 0.5036 0.8639
vn 0.0103 0.4965 0.8680
vn 0.0011 -0.8976 0.4408
vn -0.0402 -0.7382 0.6734
vn -0.0078 0.1945 0.9809
vn 0.0086 -0.5690 0.8223
vn -0.0133 -0.7692 0.6389
vn 0.0556 -0.1685 0.9841
vn -0.1622 0.3403 0.9262
vn 0.0084 0.0077 0.9999
vn 0.0023 0.0720 0.9974
vn 0.0265 0.0878 0.9958
vn 0.0234 -0.0839 0.9962
vn 0.0192 -0.0778 0.9968
vn 0.0237 0.0202 0.9995
vn 0.0625 -0.3099 0.9487
vn -0.4937 -0.5762 0.6513
vn 0.1381 -0.2848 0.9486
vn -0.0190 -0.5405 0.8411
vn 0.5006 -0.1306 0.8558
vn 0.1307 0.1344 0.9823
vn 0.0469 -0.0606 0.9971
vn 0.1316 -0.1591 0.9785
vn 0.1210 -0.1462 0.9818
vn 0.0297 0.0030 0.9996
vn -0.0123 0.0461 0.9989
vn 0.0041 0.0112 0.9999
vn 0.0905 -0.0573 0.9942
vn 0.0607 -0.1572 0.9857
vn 0.1277 -0.4461 0.8858
vn 0.0155 -0.0996 0.9949
vn 0.0136 -0.0588 0.9982
vn 0.2398 -0.3726 0.8965
vn 0.1944 -0.4104 0.8909
vn 0.0042 0.0110 0.9999
vn 0.0740 0.0512 0.9959
vn 0.1279 -0.6980 0.7046
vn 0.0559 0.0337 0.9979
vn 0.0259 -0.0065 0.9996
vn 0.0923 0.0408 0.9949
usemtl None
s off
f 1//1 3//1 2//1
f 4//2 5//2 6//2
f 7//3 6//3 8//3
f 9//4 10//4 11//4
f 10//5 9//5 12//5
f 10//6 13//6 11//6
f 12//7 9//7 14//7
f 15//8 17//8 16//8
f 18//9 3//9 19//9
f 20//10 19//10 3//10
f 20//11 3//11 1//11
f 17//12 22//12 21//12
f 23//13 16//13 17//13
f 24//14 25//14 26//14
f 27//15 28//15 29//15
f 29//16 30//16 31//16
f 32//17 33//17 34//17
f 32//18 34//18 35//18
f 23//19 17//19 36//19
f 17//20 37//20 1//20
f 38//21 19//21 20//21
f 15//22 39//22 17//22
f 39//23 22//23 17//23
f 40//24 22//24 39//24
f 37//25 41//25 20//25
f 4//26 43//26 42//26
f 44//27 4//27 42//27
f 45//28 4//28 6//28
f 45//29 6//29 46//29
f 22//30 42//30 43//30
f 22//31 47//31 42//31
f 48//32 19//32 38//32
f 49//33 51//33 50//33
f 49//34 38//34 51//34
f 48//35 52//35 19//35
f 53//36 50//36 51//36
f 54//37 9//37 6//37
f 55//38 54//38 56//38
f 9//39 54//39 55//39
f 9//40 8//40 6//40
f 57//41 59//41 58//41
f 58//42 7//42 8//42
f 58//43 8//43 57//43
f 57//44 60//44 59//44
f 60//45 57//45 8//45
f 59//46 60//46 9//46
f 61//47 62//47 63//47
f 59//48 9//48 11//48
f 11//49 64//49 59//49
f 11//50 65//50 64//50
f 66//51 9//51 61//51
f 13//52 65//52 11//52
f 66//53 14//53 9//53
f 66//54 61//54 67//54
f 13//55 69//55 68//55
f 68//56 69//56 70//56
f 70//57 71//57 65//57
f 70//58 65//58 68//58
f 72//59 13//59 73//59
f 70//60 69//60 74//60
f 70//61 74//61 75//61
f 13//62 10//62 73//62
f 76//63 77//63 78//63
f 77//64 76//64 79//64
f 76//65 80//65 79//65
f 81//66 80//66 76//66
f 82//67 84//67 83//67
f 84//68 85//68 83//68
f 83//69 86//69 82//69
f 87//70 83//70 85//70
f 88//71 86//71 83//71
f 89//72 83//72 90//72
f 89//73 88//73 83//73
f 91//74 83//74 92//74
f 83//75 93//75 94//75
f 95//76 83//76 94//76
f 96//77 97//77 83//77
f 90//78 83//78 97//78
f 96//79 83//79 98//79
f 99//80 96//80 100//80
f 97//81 96//81 99//81
f 96//82 102//82 101//82
f 96//83 101//83 103//83
f 26//84 103//84 104//84
f 105//85 106//85 107//85
f 108//86 106//86 24//86
f 108//87 24//87 109//87
f 106//88 110//88 107//88
f 108//89 110//89 106//89
f 111//90 29//90 112//90
f 28//91 30//91 29//91
f 112//92 29//92 31//92
f 28//93 34//93 30//93
f 113//94 30//94 34//94
f 28//95 114//95 34//95
f 115//96 113//96 34//96
f 116//97 113//97 115//97
f 116//98 117//98 113//98
f 115//99 34//99 33//99
f 116//100 118//100 117//100
f 34//101 114//101 35//101
f 116//102 115//102 33//102
f 117//103 118//103 119//103
f 117//104 119//104 120//104
f 33//105 121//105 116//105
f 119//106 123//106 122//106
f 119//107 122//107 120//107
f 119//108 118//108 124//108
f 116//109 121//109 118//109
f 119//110 125//110 123//110
f 126//111 125//111 119//111
f 119//112 127//112 126//112
f 128//113 32//113 35//113
f 129//114 125//114 126//114
f 23//115 15//115 16//115
f 130//116 55//116 56//116
f 131//117 10//117 12//117
f 132//118 133//118 70//118
f 133//119 135//119 134//119
f 91//120 93//120 83//120
f 136//121 96//121 98//121
f 136//122 102//122 96//122
f 109//123 26//123 104//123
f 129//124 137//124 125//124
f 138//125 23//125 36//125
f 76//126 78//126 139//126
f 5//127 54//127 6//127
f 78//128 71//128 70//128
f 13//129 68//129 65//129
f 85//130 141//130 140//130
f 75//131 142//131 70//131
f 98//132 143//132 144//132
f 70//133 139//133 78//133
f 133//134 139//134 70//134
f 135//135 133//135 132//135
f 70//136 145//136 132//136
f 146//137 44//137 42//137
f 37//138 17//138 21//138
f 23//139 39//139 15//139
f 62//140 9//140 147//140
f 148//141 108//141 109//141
f 131//142 149//142 10//142
f 150//143 5//143 4//143
f 52//144 18//144 19//144
f 78//145 77//145 71//145
f 139//146 81//146 76//146
f 96//147 103//147 100//147
f 143//148 83//148 151//148
f 62//149 61//149 9//149
f 70//150 142//150 145//150
f 80//151 81//151 141//151
f 46//152 6//152 7//152
f 152//153 73//153 10//153
f 149//154 152//154 10//154
f 153//155 73//155 152//155
f 154//156 123//156 137//156
f 154//157 155//157 123//157
f 137//158 123//158 125//158
f 48//159 38//159 49//159
f 17//160 1//160 36//160
f 33//161 156//161 121//161
f 157//162 22//162 40//162
f 1//163 37//163 20//163
f 72//164 158//164 13//164
f 159//165 142//165 75//165
f 143//166 98//166 83//166
f 107//167 160//167 27//167
f 107//168 110//168 160//168
f 139//169 133//169 81//169
f 134//170 81//170 133//170
f 26//171 100//171 103//171
f 9//172 60//172 8//172
f 161//173 18//173 52//173
f 9//174 55//174 147//174
f 47//175 22//175 157//175
f 113//176 162//176 31//176
f 113//177 31//177 30//177
f 87//178 92//178 83//178
f 61//179 63//179 163//179
f 163//180 67//180 61//180
f 83//181 95//181 151//181
f 107//182 27//182 29//182
f 107//183 29//183 111//183
f 74//184 69//184 13//184
f 158//185 74//185 13//185
f 150//186 4//186 44//186
f 84//187 80//187 85//187
f 85//188 80//188 141//188
f 164//189 56//189 5//189
f 54//190 5//190 56//190
f 111//191 105//191 107//191
f 109//192 24//192 26//192
f 22//193 43//193 21//193
f 106//194 25//194 24//194
f 165//195 95//195 94//195
f 166//196 151//196 95//196
