# Blender v2.79 (sub 0) OBJ File: ''
# www.blender.org
mtllib my_crack_surf__62.mtl
o my_crack_surf__62
v 130.283005 -6.196031 127.538002
v 139.089996 -15.175518 113.193001
v 146.354004 -11.565719 119.551003
v 152.880997 -4.765481 130.636993
v 144.156998 97.350861 213.808014
v 124.745003 60.520771 197.703018
v 111.428001 69.827568 206.394012
v 103.918999 141.634949 244.728027
v 95.268303 106.346962 230.766022
v 24.324600 127.254951 259.781036
v 26.861500 175.991959 265.333038
v -2.547870 145.105957 266.608032
v 40.069599 137.806961 257.762024
v -4.686800 176.645950 268.931030
v 118.459999 43.939571 184.703995
v 116.240997 55.292168 196.329010
v 164.578003 41.347569 178.537994
v 160.987000 9.568865 149.317001
v 129.337997 5.026556 143.539993
v 162.192001 54.047268 187.126022
v 164.210007 20.877474 161.503006
v 129.188995 19.766573 159.580002
v 165.063995 31.255571 170.466003
v 157.205994 75.171066 200.784012
v 133.175995 113.492958 223.810013
v 76.742599 101.428963 233.390015
v 130.276993 -17.336918 108.176003
v 123.135002 123.859962 231.546021
v 83.228302 157.451950 254.666031
v 65.624603 113.012962 241.866013
v 58.337002 116.442963 245.355011
v 54.213501 142.234955 255.596024
v 31.448999 125.763962 256.912018
v 76.930801 161.432953 256.159027
v 42.728901 173.343948 263.074036
v 58.960300 168.752960 260.245026
v 1.553310 137.696960 264.649017
v 7.233110 130.521957 263.965027
v -41.510502 123.701958 268.257019
v -58.500401 169.904953 272.869019
v -48.530602 135.373947 269.518036
v -44.766201 143.862961 270.232025
v -12.304600 176.503952 269.731018
v -59.222599 115.856956 269.110016
v -80.863098 152.429947 271.720032
v -90.295197 128.645950 271.053040
v -65.034698 167.457947 273.115021
v -79.091003 154.621948 271.341034
v -76.783699 162.213959 272.349030
v -38.547699 174.084961 271.494019
v -29.832600 175.600952 271.194031
v -82.781898 153.829956 271.475037
v -83.253403 149.670959 272.165039
v -98.587898 146.564957 272.274017
v -125.814003 121.364952 270.890045
v -130.759995 13.771358 262.917999
v -160.639008 69.786057 268.010986
v -166.649002 48.428959 266.406006
v -127.903999 24.595257 263.734985
v -167.479004 4.075377 263.154999
v -128.578995 -19.980843 260.243011
v -160.419998 -21.167942 261.209991
v -156.149994 -32.799442 260.377991
v -127.525002 -31.629642 260.078003
v -137.341995 -40.827141 259.678986
v -120.132004 -48.047142 260.856995
v -130.404007 -60.611343 261.277008
v -111.780998 -66.209549 263.529999
v -8.334580 176.765961 269.275024
v 90.613403 152.270950 251.472031
v 69.077599 164.935959 258.558044
v -155.181000 86.464951 269.114014
v -145.173996 100.652954 270.080017
v -150.662003 -43.291344 260.653992
v -142.014008 -53.453140 260.505005
v -135.524994 -56.685341 260.687012
v -164.802002 61.974560 267.308014
v -98.420303 85.632553 269.170013
v -83.838097 156.961960 271.551025
v 163.578003 48.899868 183.934021
v -113.166000 65.778152 268.153015
v 156.203003 0.418258 137.854996
v -53.709801 171.337952 272.534027
vn -0.0283 -0.8550 0.5178
vn -0.0192 -0.8472 0.5310
vn 0.2151 -0.4842 0.8481
vn 0.1790 -0.4487 0.8756
vn 0.3341 -0.4165 0.8455
vn 0.1687 -0.1202 0.9783
vn 0.2058 -0.1213 0.9710
vn 0.1117 -0.0655 0.9916
vn 0.2909 -0.6561 0.6963
vn 0.0678 -0.6313 0.7725
vn 0.0030 -0.7940 0.6080
vn 0.1424 -0.5360 0.8321
vn -0.0143 -0.7310 0.6822
vn -0.0267 -0.8192 0.5729
vn -0.3532 -0.5946 0.7222
vn -0.0178 -0.7363 0.6764
vn -0.0219 -0.6393 0.7687
vn 0.1190 -0.4498 0.8852
vn 0.3058 -0.3425 0.8884
vn 0.2434 -0.4616 0.8530
vn 0.1505 -0.5115 0.8460
vn -0.0712 -0.8645 0.4975
vn -0.0322 -0.6176 0.7859
vn 0.2256 -0.3686 0.9018
vn 0.2890 -0.3689 0.8834
vn 0.1362 -0.3932 0.9093
vn 0.2041 -0.3329 0.9206
vn 0.2968 -0.2770 0.9139
vn 0.2416 -0.3245 0.9145
vn 0.1222 -0.1732 0.9773
vn 0.1980 -0.1594 0.9672
vn 0.1411 -0.1954 0.9705
vn 0.1157 -0.1916 0.9746
vn -0.5103 -0.4725 0.7185
vn 0.1138 -0.1552 0.9813
vn 0.0909 -0.0230 0.9956
vn -0.0068 -0.2591 0.9658
vn 0.0228 -0.0938 0.9953
vn 0.1089 -0.0795 0.9909
vn 0.1143 -0.0402 0.9926
vn 0.0782 -0.0746 0.9941
vn 0.4959 -0.2888 0.8190
vn 0.0755 -0.0621 0.9952
vn 0.1054 -0.0659 0.9922
vn 0.0437 -0.0453 0.9980
vn 0.0595 -0.0706 0.9957
vn -0.0068 -0.1296 0.9915
vn -0.0960 0.6931 0.7144
vn 0.0906 -0.1670 0.9818
vn 0.0628 -0.0677 0.9957
vn -0.0060 0.1643 0.9864
vn 0.0191 -0.0592 0.9981
vn 0.0085 -0.0640 0.9979
vn 0.0193 -0.0803 0.9966
vn 0.0259 -0.0736 0.9970
vn 0.0268 -0.0773 0.9967
vn 0.0328 -0.0677 0.9972
vn 0.0325 -0.0594 0.9977
vn -0.0252 -0.0164 0.9995
vn 0.0217 -0.0362 0.9991
vn -0.0597 0.0205 0.9980
vn -0.0882 0.1052 0.9905
vn 0.0986 0.2026 0.9743
vn -0.0801 -0.6033 0.7935
vn -0.2552 -0.8663 0.4295
vn -0.0051 -0.0643 0.9979
vn 0.0621 0.0587 0.9963
vn 0.0038 0.0639 0.9980
vn 0.3066 -0.2836 0.9086
vn 0.3683 -0.1717 0.9137
vn 0.0544 -0.7078 0.7043
vn -0.0588 -0.0583 0.9966
vn 0.0412 -0.0515 0.9978
vn -0.5992 0.5798 0.5521
vn -0.0130 -0.0788 0.9968
vn -0.0098 0.0831 0.9965
vn 0.0046 -0.0446 0.9990
vn 0.2343 -0.0190 0.9720
vn 0.0654 0.0410 0.9970
vn 0.1834 -0.5179 0.8356
vn -0.4731 -0.5528 0.6860
vn -0.0726 0.0550 0.9958
vn -0.0404 0.0664 0.9970
vn 0.0918 0.0972 0.9910
vn -0.0183 -0.1261 0.9918
vn -0.1886 -0.0873 0.9782
vn 0.3866 0.1081 0.9159
vn -0.0116 -0.1025 0.9947
vn -0.0083 -0.0627 0.9980
vn -0.7074 -0.3782 0.5971
vn 0.2592 -0.3607 0.8959
vn 0.0664 0.0113 0.9977
vn 0.0087 -0.0472 0.9988
vn -0.0020 -0.0496 0.9988
usemtl None
s off
f 1//1 2//1 3//1
f 1//2 3//2 4//2
f 5//3 7//3 6//3
f 5//4 8//4 7//4
f 9//5 7//5 8//5
f 10//6 11//6 12//6
f 13//7 11//7 10//7
f 14//8 12//8 11//8
f 6//9 16//9 15//9
f 17//10 6//10 15//10
f 18//11 19//11 4//11
f 17//12 20//12 6//12
f 21//13 22//13 18//13
f 1//14 4//14 19//14
f 17//15 21//15 23//15
f 19//16 18//16 22//16
f 17//17 22//17 21//17
f 6//18 24//18 5//18
f 25//19 8//19 5//19
f 26//20 7//20 9//20
f 24//21 6//21 20//21
f 27//22 2//22 1//22
f 25//23 28//23 8//23
f 26//24 9//24 29//24
f 26//25 29//25 30//25
f 8//26 29//26 9//26
f 29//27 32//27 31//27
f 31//28 13//28 33//28
f 32//29 13//29 31//29
f 29//30 34//30 32//30
f 35//31 13//31 32//31
f 34//32 36//32 32//32
f 32//33 36//33 35//33
f 37//34 38//34 12//34
f 13//35 35//35 11//35
f 39//36 38//36 37//36
f 12//37 40//37 37//37
f 41//38 39//38 42//38
f 37//39 42//39 39//39
f 37//40 40//40 42//40
f 40//41 12//41 43//41
f 41//42 42//42 44//42
f 44//43 39//43 41//43
f 12//44 14//44 43//44
f 44//45 45//45 46//45
f 44//46 42//46 47//46
f 48//47 47//47 49//47
f 50//48 40//48 51//48
f 43//49 51//49 40//49
f 40//50 47//50 42//50
f 52//51 53//51 45//51
f 46//52 53//52 54//52
f 54//53 55//53 46//53
f 56//54 57//54 58//54
f 59//54 57//54 56//54
f 60//55 56//55 58//55
f 61//56 56//56 60//56
f 60//57 62//57 61//57
f 63//58 61//58 62//58
f 61//59 65//59 64//59
f 61//60 63//60 65//60
f 66//61 64//61 65//61
f 67//62 68//62 66//62
f 69//63 43//63 14//63
f 70//64 29//64 8//64
f 71//65 36//65 34//65
f 72//66 57//66 73//66
f 74//67 65//67 63//67
f 75//68 76//68 65//68
f 33//69 13//69 10//69
f 53//70 46//70 45//70
f 22//71 17//71 15//71
f 77//72 58//72 57//72
f 78//73 44//73 46//73
f 48//74 45//74 47//74
f 44//75 47//75 45//75
f 79//76 54//76 53//76
f 78//77 46//77 55//77
f 10//78 12//78 38//78
f 65//79 74//79 75//79
f 7//80 16//80 6//80
f 80//81 20//81 17//81
f 76//82 67//82 65//82
f 66//83 65//83 67//83
f 79//84 45//84 48//84
f 48//85 49//85 79//85
f 79//86 52//86 45//86
f 79//87 53//87 52//87
f 57//88 59//88 81//88
f 81//89 73//89 57//89
f 82//90 18//90 4//90
f 30//91 29//91 31//91
f 50//92 83//92 40//92
f 81//93 55//93 73//93
f 81//94 78//94 55//94
