# Blender v2.79 (sub 0) OBJ File: ''
# www.blender.org
mtllib my_crack_surf__101.mtl
o my_crack_surf__101
v 130.276993 -5.669751 127.105003
v 145.048004 -16.033720 111.446999
v 148.104996 -13.939719 115.322998
v 155.457001 -7.346800 125.995003
v 143.701004 103.145966 217.657013
v 160.929001 71.848167 198.378021
v 125.750000 125.588959 232.817017
v 64.034302 114.538963 241.679016
v 66.163696 128.677948 247.724014
v 88.614601 112.865959 235.311020
v 24.089001 127.252953 259.433044
v 28.509100 157.888962 262.522034
v 3.743970 147.173950 266.253021
v 1.677890 180.982956 268.953033
v -49.321800 161.052948 271.517029
v 33.987801 179.581955 265.609039
v 16.455601 180.913956 267.299042
v -9.346830 178.431961 270.039032
v -3.139280 181.504959 269.524017
v -14.947100 174.892960 269.622040
v 137.466003 8.747946 147.802994
v 164.447006 9.178836 148.440994
v 129.203995 13.004875 150.839005
v 24.628599 -126.713036 257.211975
v 49.853699 -121.645035 256.565979
v 56.076500 -147.044052 257.663971
v 45.450699 -161.022049 258.299957
v 161.091995 1.228477 138.171997
v 129.317993 5.223047 143.307007
v 118.461998 43.933170 184.705002
v 116.240997 55.292168 196.329010
v 168.412994 35.169373 173.667007
v 168.266998 51.869469 185.350021
v 111.426003 69.830772 205.996017
v 166.578995 20.535173 160.972000
v 129.154007 20.134274 159.143997
v 149.371994 93.604965 211.901016
v 155.955002 84.589966 206.317017
v 147.968994 97.590462 214.134018
v 75.638298 102.439964 232.746017
v 130.246002 -17.747017 107.636002
v 111.287003 139.645950 243.591019
v 102.888000 148.333954 248.835037
v 87.517303 160.483948 255.083023
v 51.775501 125.998962 248.683014
v 50.859402 119.171959 246.197021
v 32.446301 125.462959 255.710022
v 39.921600 138.454956 256.837036
v 68.832802 170.113953 259.955017
v 51.506199 175.886948 263.628021
v 7.233110 130.521957 263.965027
v -41.712200 123.700951 267.959045
v 30.287100 163.038956 262.946045
v -59.071201 116.018951 268.691040
v -98.577301 156.713959 272.761017
v -60.556400 174.590958 272.790039
v -110.865997 145.170959 272.135040
v -98.292503 85.768654 268.816010
v -82.313004 165.725952 272.730042
v -132.865005 121.716957 270.381042
v -143.432999 113.320953 270.498016
v -132.139999 40.613159 264.902008
v -113.192001 65.724251 268.144989
v -152.800995 101.021957 268.737030
v -127.716003 126.662956 269.960022
v -146.031998 40.762257 265.635986
v -178.432999 53.669159 267.574005
v -173.294006 67.733055 268.634003
v -169.701996 75.777153 268.826996
v -182.261002 -32.796143 262.865997
v -127.901001 24.624657 264.023987
v -130.759003 13.783457 263.036011
v -154.647995 25.343956 264.601990
v -182.225998 28.576756 265.845001
v -167.343994 3.929117 263.545990
v -129.238007 -8.067383 261.136993
v -138.992996 -39.462044 260.746002
v -127.954002 -30.303741 260.377014
v -123.098999 -41.411343 260.731995
v -113.341003 -63.451241 262.941010
v -182.619995 0.805142 263.929993
v -178.552994 -46.929840 262.295990
v -172.876007 -64.063644 262.605011
v -160.516998 -87.714645 261.834015
v -148.945007 -102.465042 261.655975
v -108.383003 -74.464745 262.691986
v -82.380501 -119.441048 260.475983
v -114.063004 -136.749039 261.711975
v -82.037102 -102.772049 261.333984
v -41.997002 -124.614044 260.463959
v -104.878998 -143.205048 261.882965
v -95.680397 -153.476044 262.081970
v -84.007797 -160.634048 261.885956
v -18.011000 -174.378052 260.297974
v -63.157600 -168.714050 260.711975
v -23.556999 -143.289047 260.735962
v -10.546300 -129.762039 259.800964
v 0.000000 -131.500046 258.829956
v 4.977270 -172.187042 259.709961
v 12.328800 -129.101044 257.763977
v 19.394300 -170.728043 258.635956
v 58.662601 -151.887039 258.756958
v 73.668900 -135.180038 257.126984
v 83.084198 -122.280037 257.131958
v 84.564499 -98.816841 257.209961
v 150.776001 -12.166619 118.501999
v 137.626007 -19.490017 105.427002
v -27.063601 181.710953 271.911041
v 20.045099 180.806961 266.918030
v -117.466003 136.926956 270.893036
v -155.998001 97.122452 269.600037
v -163.548004 85.253357 269.803009
v 75.800499 -130.588043 257.143982
v -175.330994 62.378059 268.394989
v -37.052502 -173.835052 260.258972
v -31.645500 -175.556046 260.304962
v -182.779999 -10.398143 263.355011
v -52.414299 -171.124039 260.285980
v 129.783005 -19.912918 100.545998
v 27.854799 180.697952 266.308044
v 137.712997 111.580963 223.129013
v -4.912700 -173.523041 259.691956
v -50.393799 177.389954 272.989044
v 88.435699 -108.988037 257.509979
v -43.229801 -172.992050 260.435974
v 32.164299 -165.169052 258.873962
v 96.570198 153.919952 251.865036
vn -0.0602 -0.8576 0.5108
vn -0.0321 -0.8403 0.5412
vn 0.2099 -0.4264 0.8798
vn 0.2024 -0.4106 0.8891
vn 0.2013 -0.1270 0.9713
vn 0.1076 -0.1488 0.9830
vn 0.0945 -0.1636 0.9820
vn 0.1097 0.2115 0.9712
vn 0.3935 -0.6937 0.6032
vn -0.0096 -0.5929 0.8052
vn 0.0161 0.0471 0.9988
vn 0.0101 0.0378 0.9992
vn -0.0213 -0.8127 0.5822
vn 0.0494 -0.8275 0.5593
vn 0.2185 -0.6767 0.7031
vn 0.0804 -0.5709 0.8171
vn 0.1510 -0.5122 0.8455
vn -0.0749 -0.6481 0.7579
vn 0.0243 -0.7266 0.6866
vn -0.0342 -0.7376 0.6743
vn -0.0945 -0.6931 0.7146
vn -0.0091 -0.5314 0.8471
vn 0.1533 -0.4601 0.8745
vn -0.2227 -0.5972 0.7705
vn 0.1569 -0.4401 0.8841
vn 0.2100 -0.4720 0.8562
vn 0.2178 -0.4680 0.8565
vn -0.0374 -0.8492 0.5268
vn 0.2118 -0.4479 0.8687
vn 0.1466 -0.4034 0.9032
vn 0.1374 -0.3099 0.9408
vn 0.3274 -0.3618 0.8729
vn 0.1642 -0.4086 0.8978
vn 0.1277 -0.3544 0.9263
vn 0.6903 0.2021 0.6947
vn 0.1001 -0.2876 0.9525
vn 0.2512 -0.1329 0.9588
vn 0.1506 -0.2990 0.9423
vn 0.1297 -0.2251 0.9657
vn 0.2440 -0.0817 0.9663
vn 0.0968 -0.1156 0.9886
vn 0.0223 -0.0897 0.9957
vn 0.5263 -0.2486 0.8132
vn 0.0742 -0.1746 0.9818
vn 0.1174 0.0734 0.9904
vn 0.0780 -0.0788 0.9938
vn 0.0769 -0.0790 0.9939
vn -0.1013 0.3774 0.9205
vn 0.0988 -0.1619 0.9818
vn 0.0312 -0.0679 0.9972
vn 0.0397 -0.0474 0.9981
vn -0.0157 0.0318 0.9994
vn 0.0259 -0.0186 0.9995
vn -0.8005 0.5919 0.0941
vn -0.0212 -0.0706 0.9973
vn 0.0641 0.0182 0.9978
vn 0.0526 -0.0180 0.9985
vn 0.5179 -0.2509 0.8178
vn 0.1026 -0.1171 0.9878
vn -0.3999 0.1631 0.9019
vn 0.0384 -0.0565 0.9977
vn 0.0523 -0.0409 0.9978
vn 0.0304 -0.0733 0.9968
vn 0.4406 -0.3029 0.8450
vn -0.1626 0.0478 0.9855
vn 0.0704 -0.0815 0.9942
vn 0.0449 -0.0264 0.9986
vn 0.0588 -0.0307 0.9978
vn 0.0051 0.0342 0.9994
vn 0.0139 0.1058 0.9943
vn 0.0315 -0.0313 0.9990
vn 0.0445 -0.0286 0.9986
vn 0.0336 0.0292 0.9990
vn -0.0779 -0.0731 0.9943
vn 0.0501 0.0065 0.9987
vn -0.1803 -0.1033 0.9782
vn -0.3244 -0.2327 0.9168
vn 0.0245 0.0265 0.9993
vn 0.0206 0.0112 0.9997
vn -0.0063 -0.0513 0.9987
vn -0.0037 -0.0513 0.9987
vn 0.0138 0.0461 0.9988
vn 0.0216 0.0387 0.9990
vn 0.0368 0.0327 0.9988
vn 0.0103 0.0088 0.9999
vn -0.0354 -0.0204 0.9992
vn 0.0280 0.0421 0.9987
vn 0.0889 -0.0167 0.9959
vn 0.0559 0.0496 0.9972
vn 0.0212 0.0457 0.9987
vn 0.0733 -0.0010 0.9973
vn -0.1902 0.9817 0.0103
vn 0.0719 0.0237 0.9971
vn -0.5315 -0.0938 0.8419
vn 0.0210 0.0783 0.9967
vn -0.0171 -0.0022 0.9999
vn -0.2840 -0.7158 0.6379
vn -0.0397 -0.8446 0.5339
vn 0.0989 -0.0332 0.9945
vn 0.1094 0.2054 0.9725
vn -0.0930 -0.0752 0.9928
vn 0.6750 -0.4190 0.6073
vn -0.0203 0.0057 0.9998
vn -0.0167 0.0161 0.9997
vn 0.8453 -0.3399 0.4122
vn -0.0019 -0.7904 0.6126
vn -0.0014 0.0223 0.9998
vn 0.3416 -0.2745 0.8988
vn 0.0330 -0.0891 0.9955
vn -0.6183 -0.0315 0.7853
vn 0.1092 -0.1365 0.9846
vn 0.0632 -0.2149 0.9746
vn 0.0494 -0.7577 0.6507
vn -0.0282 -0.2945 0.9552
vn -0.1342 -0.9452 0.2975
vn 0.0683 0.0314 0.9972
vn 0.0733 -0.2082 0.9753
vn -0.1364 0.1482 0.9795
vn 0.0392 -0.0693 0.9968
vn 0.0277 -0.0686 0.9973
vn 0.0308 -0.0744 0.9968
vn 0.2630 -0.3867 0.8839
vn 0.0749 -0.5657 0.8212
vn -0.0001 -0.0034 1.0000
vn 0.0618 -0.0855 0.9944
vn 0.0051 -0.0894 0.9960
vn -0.0738 0.0013 0.9973
vn 0.0134 0.1453 0.9893
vn -0.0098 -0.2735 0.9618
vn -0.0345 0.0364 0.9987
vn 0.0280 0.0486 0.9984
vn 0.0728 -0.5259 0.8474
vn 0.1941 -0.4554 0.8689
vn -0.1790 0.0150 0.9837
vn 0.1966 -0.4174 0.8872
vn -0.0288 -0.8155 0.5781
vn 0.3355 -0.2713 0.9021
vn 0.1170 -0.2881 0.9504
vn -0.0365 -0.0542 0.9979
vn -0.0724 -0.0738 0.9946
vn -0.1635 -0.6069 0.7778
vn 0.0332 -0.0859 0.9957
vn 0.1270 -0.0195 0.9917
vn -0.0340 -0.1163 0.9926
usemtl None
s off
f 1//1 2//1 3//1
f 1//2 3//2 4//2
f 5//3 7//3 6//3
f 8//4 10//4 9//4
f 11//5 12//5 13//5
f 14//6 15//6 12//6
f 12//7 16//7 14//7
f 17//8 14//8 16//8
f 18//9 20//9 19//9
f 21//10 22//10 23//10
f 24//11 26//11 25//11
f 24//12 27//12 26//12
f 4//13 28//13 21//13
f 21//14 29//14 1//14
f 30//15 6//15 31//15
f 32//16 33//16 30//16
f 31//17 6//17 34//17
f 23//18 35//18 32//18
f 30//19 36//19 32//19
f 22//20 35//20 23//20
f 23//21 29//21 21//21
f 6//22 38//22 37//22
f 34//23 6//23 7//23
f 37//24 5//24 6//24
f 37//25 39//25 5//25
f 34//26 10//26 40//26
f 34//27 7//27 10//27
f 41//28 2//28 1//28
f 10//29 7//29 42//29
f 10//30 42//30 43//30
f 9//31 43//31 44//31
f 45//32 47//32 46//32
f 46//33 8//33 9//33
f 46//34 9//34 45//34
f 45//35 12//35 48//35
f 9//36 44//36 49//36
f 11//37 48//37 12//37
f 49//38 12//38 45//38
f 50//39 12//39 49//39
f 13//40 51//40 11//40
f 13//41 52//41 51//41
f 12//42 50//42 53//42
f 53//43 16//43 12//43
f 16//44 53//44 50//44
f 15//45 13//45 12//45
f 52//46 13//46 15//46
f 15//47 54//47 52//47
f 14//48 20//48 15//48
f 14//49 19//49 20//49
f 55//50 15//50 56//50
f 57//51 58//51 54//51
f 56//52 59//52 55//52
f 60//53 61//53 58//53
f 58//54 62//54 63//54
f 62//55 58//55 64//55
f 60//56 58//56 65//56
f 62//57 67//57 66//57
f 68//58 67//58 69//58
f 70//59 72//59 71//59
f 70//60 66//60 73//60
f 71//61 66//61 70//61
f 71//62 62//62 66//62
f 66//63 67//63 74//63
f 66//64 75//64 73//64
f 70//65 73//65 75//65
f 72//66 70//66 76//66
f 77//67 76//67 70//67
f 78//68 76//68 77//68
f 79//69 78//69 77//69
f 77//70 80//70 79//70
f 81//71 70//71 75//71
f 77//72 70//72 82//72
f 83//73 77//73 82//73
f 84//74 85//74 83//74
f 83//75 85//75 77//75
f 80//76 77//76 86//76
f 77//77 87//77 86//77
f 88//78 87//78 85//78
f 77//79 85//79 87//79
f 89//80 87//80 90//80
f 89//81 86//81 87//81
f 91//82 87//82 88//82
f 87//83 91//83 92//83
f 87//84 92//84 93//84
f 94//85 87//85 95//85
f 94//86 96//86 90//86
f 97//87 90//87 96//87
f 96//88 98//88 97//88
f 96//89 24//89 98//89
f 99//90 24//90 94//90
f 96//91 94//91 24//91
f 100//92 98//92 24//92
f 99//93 101//93 24//93
f 102//94 25//94 26//94
f 102//95 103//95 25//95
f 25//96 104//96 105//96
f 106//97 4//97 3//97
f 107//98 2//98 41//98
f 108//99 18//99 19//99
f 16//100 109//100 17//100
f 57//101 110//101 58//101
f 111//102 112//102 64//102
f 25//103 103//103 113//103
f 113//104 104//104 25//104
f 68//105 114//105 67//105
f 22//106 21//106 28//106
f 115//107 116//107 94//107
f 47//108 48//108 11//108
f 57//109 15//109 55//109
f 117//110 70//110 81//110
f 20//111 108//111 15//111
f 20//112 18//112 108//112
f 23//113 32//113 36//113
f 94//114 95//114 118//114
f 41//115 119//115 107//115
f 93//116 95//116 87//116
f 109//117 16//117 120//117
f 102//118 26//118 27//118
f 75//119 74//119 81//119
f 57//120 54//120 15//120
f 66//121 74//121 75//121
f 121//122 7//122 5//122
f 99//123 94//123 122//123
f 94//124 90//124 87//124
f 108//125 123//125 15//125
f 56//126 15//126 123//126
f 124//127 105//127 104//127
f 125//128 94//128 118//128
f 94//129 125//129 115//129
f 126//130 24//130 101//130
f 126//131 27//131 24//131
f 6//132 30//132 33//132
f 40//133 10//133 8//133
f 112//134 69//134 67//134
f 43//135 9//135 10//135
f 21//136 1//136 4//136
f 45//137 48//137 47//137
f 49//138 45//138 9//138
f 65//139 58//139 110//139
f 62//140 71//140 63//140
f 43//141 127//141 44//141
f 67//142 62//142 112//142
f 62//143 64//143 112//143
f 58//144 61//144 64//144
