# Blender v2.79 (sub 0) OBJ File: ''
# www.blender.org
mtllib my_crack_surf__130.mtl
o my_crack_surf__130
v 130.274002 -9.473310 120.153999
v 138.960007 -14.348418 113.043999
v 149.496002 -15.601918 110.185997
v 150.117004 -6.637860 126.143997
v 153.074005 95.149864 212.214020
v 111.426003 69.831566 205.893021
v 134.128006 118.094963 227.453018
v 64.011101 114.551964 241.587021
v 66.087196 128.723953 247.421021
v 88.613297 112.866959 235.306015
v 46.671398 158.488953 259.465027
v 27.760201 182.331955 266.440033
v -2.847870 182.508957 269.537018
v -19.497801 183.504959 271.393036
v -7.803960 183.087952 270.134033
v -12.485100 183.340958 270.728027
v 146.007996 13.525075 151.647995
v 165.684998 4.007387 141.438004
v 158.276001 -7.873460 124.755997
v -186.574005 -29.063242 263.377991
v -185.651001 -1.780293 263.989014
v -159.850006 -20.566942 262.502991
v 130.276993 -5.394210 126.877998
v 116.240997 55.292168 196.329010
v 166.160995 68.653267 196.468018
v 144.794006 70.789070 199.499008
v 156.016998 50.907669 184.720016
v 118.468002 43.911968 184.705994
v 144.007996 35.988972 175.253006
v 39.305801 -139.486038 257.083984
v 0.000000 -131.500046 258.826965
v -23.601000 -143.144043 260.557983
v 120.622002 -126.962036 254.994980
v 93.659401 -92.299141 254.044983
v 138.669006 -106.401039 251.601990
v 88.766098 -163.086044 258.804962
v 98.156700 -153.870041 258.104980
v 89.974800 -113.660042 256.173981
v 106.833000 -143.482040 257.632965
v 129.147995 20.195272 159.072006
v 132.300995 -115.301041 252.921982
v 169.684006 26.990774 166.307999
v 167.664993 20.976774 160.479996
v 171.533997 51.478970 184.652008
v 129.294998 5.463787 143.020996
v 163.018005 75.728371 200.928009
v 75.529701 102.539963 232.683014
v 130.266006 -16.842518 106.012001
v 114.917000 140.986954 242.179031
v 129.104996 -22.127516 95.350304
v 138.160004 -19.511017 101.571999
v 94.200104 130.859955 241.958008
v 85.967697 164.455948 255.760025
v 105.567001 150.060959 247.879028
v 52.446800 133.636948 250.098022
v 50.593800 119.330963 245.146011
v 37.984001 123.624962 251.900009
v 61.398399 139.220947 250.916016
v 29.462700 132.497955 258.056030
v 3.743970 147.173950 266.253021
v 70.652199 172.974960 259.963043
v 42.593201 180.794952 264.635040
v 51.266899 179.087952 263.605042
v 23.732300 127.250954 258.906036
v -41.794102 123.699951 267.838043
v 5.472710 138.863953 265.007019
v 7.233110 130.521957 263.965027
v -40.733101 181.997955 272.767029
v -67.046898 175.402954 273.088043
v -59.011902 116.081955 268.526031
v -96.953201 144.036957 271.729034
v -75.355797 172.430954 273.177032
v -98.253502 85.810257 268.707001
v -27.705299 183.436951 272.112030
v -48.677700 180.933960 272.922028
v -83.869202 169.260956 273.257019
v -90.512398 165.003952 273.250031
v -98.089798 160.859955 273.966034
v -142.401001 117.869957 271.496033
v -148.074997 111.851952 270.587036
v -113.192001 65.724251 268.144989
v -163.029999 95.696251 269.933044
v -167.423996 87.989754 269.592010
v -127.900002 24.633257 264.108002
v -181.610992 59.259956 268.161987
v -184.621002 45.595459 267.454010
v -183.429993 53.041958 267.898987
v -130.757996 13.794657 263.145996
v -144.466995 -14.356343 261.531006
v -129.238998 -8.060503 261.257996
v -184.949997 3.682737 264.165985
v -127.957001 -30.293343 260.559998
v -155.688004 -43.436543 261.723999
v -123.099998 -41.409740 260.759003
v -113.347000 -63.432941 262.872986
v -182.813995 -54.906643 262.889008
v -184.576996 -46.457642 263.006989
v -178.597000 -69.759743 262.678986
v -108.404999 -74.428642 262.654999
v -152.731003 -108.197044 262.261963
v -164.807007 -92.165543 262.294006
v -82.462502 -119.451042 260.561981
v -141.910995 -116.936043 262.234955
v -123.151001 -134.473053 262.219971
v -42.049301 -124.596046 260.465973
v -82.023598 -102.782043 261.324982
v -109.536003 -148.588043 262.342957
v -98.880096 -158.304047 262.418976
v -66.026703 -174.046051 261.633972
v -26.129999 -158.277039 259.864960
v -21.092501 -128.025040 260.038971
v -15.107200 -181.588043 260.947968
v -32.786400 -180.700043 260.915955
v -2.203140 -179.835052 260.340973
v -5.999720 -180.584045 260.425964
v 24.629499 -126.713036 257.260956
v 36.846100 -124.358040 257.412964
v 49.046700 -122.010040 256.782959
v 16.666100 -180.183044 259.819977
v 26.691500 -181.408051 259.815979
v 71.300697 -107.294037 256.946960
v 116.566002 -134.095047 256.029968
v 82.495903 -99.779037 256.162964
v 108.214996 -69.357140 248.314987
v 153.302002 -55.094238 242.339981
v 122.739998 -47.091137 243.414978
v 152.449997 -73.787735 245.425980
v 150.005997 -86.304337 247.714981
v 149.089005 -33.428040 238.302002
v -85.321999 -165.745041 261.958984
v 170.606003 36.517372 174.169998
v 168.007004 12.577375 151.852005
v 168.585007 15.783774 155.246002
v 167.011993 9.043516 147.783005
v 110.324997 145.593948 245.134033
v -36.498699 182.501953 272.624023
v -124.568001 134.508957 272.107025
v -107.109001 153.693954 273.559021
v -185.514008 30.046455 266.252991
v -53.851898 -177.603043 261.023956
v 126.768997 -18.178638 236.285995
v 127.928001 -9.993518 234.852005
v 136.723999 -17.358839 235.722000
v -70.732300 174.098953 273.168030
v 39.627201 -179.051041 259.617981
v 121.597000 133.698959 237.514023
v -155.940994 105.425957 270.365021
v 96.789597 157.430954 251.976028
v 157.046997 88.950966 208.317017
v 64.807198 -171.242050 259.334961
v 145.470993 -25.977638 236.880997
v 75.304199 -167.041046 259.145966
v 151.843994 -42.995239 240.216995
v 76.755600 169.616959 258.348022
vn 0.0777 -0.7754 0.6266
vn -0.0235 -0.8712 0.4903
vn 0.1469 -0.4602 0.8756
vn 0.2013 -0.3979 0.8951
vn 0.0973 -0.2076 0.9734
vn 0.0486 -0.7218 0.6904
vn -0.0739 -0.7965 0.6001
vn 0.0403 -0.0237 0.9989
vn -0.0137 -0.7855 0.6188
vn -0.0264 -0.7863 0.6173
vn 0.0950 -0.3645 0.9264
vn 0.1603 -0.6069 0.7784
vn 0.1294 -0.6960 0.7063
vn 0.1104 -0.5944 0.7966
vn 0.1769 -0.4993 0.8482
vn 0.0527 0.0415 0.9977
vn 0.0825 0.0914 0.9924
vn 0.0228 0.0526 0.9984
vn -0.0025 0.0475 0.9989
vn 0.0106 -0.7318 0.6815
vn 0.1021 0.0740 0.9920
vn 0.0056 -0.6969 0.7172
vn -0.0344 -0.8545 0.5184
vn 0.0239 -0.5493 0.8353
vn 0.0243 -0.5615 0.8271
vn 0.9598 -0.2023 0.1945
vn -0.0363 -0.7829 0.6210
vn 0.0609 -0.4780 0.8762
vn 0.1766 -0.5020 0.8467
vn -0.0483 -0.8700 0.4906
vn 0.2044 -0.4762 0.8553
vn 0.2024 -0.4772 0.8552
vn -0.1186 -0.8805 0.4589
vn 0.2005 -0.4055 0.8918
vn -0.0498 -0.8927 0.4479
vn 0.0687 -0.3646 0.9286
vn 0.1785 -0.3849 0.9055
vn 0.2432 -0.3467 0.9059
vn 0.3484 -0.3466 0.8709
vn 0.1031 -0.3915 0.9144
vn 0.0643 -0.3339 0.9404
vn 0.0950 -0.2760 0.9564
vn 0.0870 -0.2795 0.9562
vn 0.3249 -0.3083 0.8941
vn 0.2921 -0.5797 0.7607
vn 0.2009 -0.1852 0.9619
vn 0.2569 -0.2211 0.9408
vn 0.0816 -0.2788 0.9569
vn 0.1037 -0.2839 0.9532
vn 0.3384 -0.1533 0.9284
vn 0.0034 -0.5037 0.8639
vn 0.2440 -0.1104 0.9635
vn 0.0999 -0.1272 0.9868
vn 0.0927 -0.1041 0.9902
vn 0.0969 -0.2079 0.9733
vn 0.1693 -0.0519 0.9842
vn 0.0334 -0.0848 0.9958
vn 0.0695 -0.0671 0.9953
vn 0.0771 -0.0826 0.9936
vn 0.0915 -0.2188 0.9715
vn 0.0396 -0.0809 0.9959
vn 0.0577 -0.0688 0.9960
vn 0.1031 -0.0973 0.9899
vn 0.0848 -0.3419 0.9359
vn 0.0704 -0.0853 0.9939
vn 0.0278 -0.0625 0.9977
vn 0.0394 -0.0808 0.9960
vn 0.0092 -0.0520 0.9986
vn 0.1581 -0.1197 0.9802
vn -0.0274 -0.1240 0.9919
vn 0.0166 -0.0403 0.9990
vn 0.0069 -0.0481 0.9988
vn 0.0367 -0.0598 0.9975
vn 0.1302 -0.0799 0.9883
vn 0.0237 -0.0946 0.9952
vn 0.3778 -0.9053 0.1942
vn 0.0389 -0.0833 0.9958
vn 0.0467 -0.0149 0.9988
vn 0.0255 -0.0356 0.9990
vn 0.0302 -0.0296 0.9991
vn 0.0715 -0.0210 0.9972
vn 0.0475 -0.0117 0.9988
vn 0.0229 0.1056 0.9942
vn 0.0277 0.0300 0.9992
vn 0.0411 -0.0265 0.9988
vn -0.0781 -0.0302 0.9965
vn -0.0346 -0.0239 0.9991
vn 0.0501 -0.0073 0.9987
vn -0.0462 -0.0406 0.9981
vn -0.1091 -0.0842 0.9905
vn -0.0800 -0.0922 0.9925
vn 0.0088 0.0086 0.9999
vn 0.0342 0.0177 0.9993
vn -0.0034 -0.0456 0.9990
vn 0.0012 -0.0458 0.9990
vn 0.0276 0.0354 0.9990
vn 0.0263 0.0366 0.9990
vn 0.0389 0.0313 0.9988
vn 0.0327 0.0294 0.9990
vn 0.0253 0.0301 0.9992
vn 0.0613 0.0241 0.9978
vn -0.1426 -0.0215 0.9895
vn 0.0005 0.0467 0.9989
vn 0.0938 -0.3708 0.9239
vn 0.0540 0.0483 0.9974
vn -0.0080 -0.0230 0.9997
vn 0.0540 -0.0129 0.9985
vn 0.0285 0.0513 0.9983
vn 0.0080 0.0626 0.9980
vn 0.0128 0.0101 0.9999
vn -0.0093 0.0534 0.9985
vn 0.0248 -0.0486 0.9985
vn 0.0807 0.0980 0.9919
vn 0.0755 0.0913 0.9930
vn 0.0510 0.0282 0.9983
vn 0.1373 0.0748 0.9877
vn 0.1082 0.1758 0.9785
vn 0.0779 0.1655 0.9831
vn 0.0802 0.1588 0.9841
vn 0.0806 0.1640 0.9832
vn 0.0864 0.1987 0.9762
vn -0.0446 -0.1424 0.9888
vn 0.0440 -0.6384 0.7684
vn -0.5647 -0.5498 0.6155
vn -0.2638 -0.6932 0.6707
vn 0.1204 -0.8811 0.4574
vn -0.0040 -0.0718 0.9974
vn 0.0205 -0.0586 0.9981
vn 0.0333 -0.0782 0.9964
vn 0.0115 0.0434 0.9990
vn 0.0421 0.1666 0.9851
vn 0.0538 0.0220 0.9983
vn 0.0745 0.1487 0.9861
vn 0.2817 -0.0602 0.9576
vn 0.0313 -0.7227 0.6904
vn 0.0447 -0.5751 0.8169
vn 0.3231 -0.8932 0.3129
vn 0.0036 0.0639 0.9979
vn -0.0340 -0.5608 0.8273
vn 0.0064 -0.0490 0.9988
vn 0.1898 -0.4607 0.8670
vn 0.2643 -0.0890 0.9603
vn 0.0331 -0.0789 0.9963
vn 0.0755 0.0860 0.9934
vn 0.0562 -0.0894 0.9944
vn -0.0742 -0.9075 0.4135
vn 0.0028 -0.9120 0.4102
vn 0.0419 0.0375 0.9984
vn -0.0436 -0.0384 0.9983
vn -0.0420 -0.5232 0.8512
vn 0.1136 -0.3536 0.9285
vn 0.3248 -0.3454 0.8805
vn 0.1810 -0.3900 0.9029
vn 0.0476 -0.0084 0.9988
vn -0.0086 0.0638 0.9979
vn 0.0001 -0.0178 0.9998
vn -0.0369 -0.7255 0.6873
vn -0.0120 -0.7109 0.7032
vn 0.0098 -0.1012 0.9948
vn 0.0052 -0.0523 0.9986
vn 0.0414 0.1743 0.9838
vn 0.0739 0.2214 0.9724
vn 0.0652 0.2303 0.9709
vn 0.3715 -0.2614 0.8909
vn -0.0078 0.0644 0.9979
vn 0.0024 0.0778 0.9970
vn 0.0708 -0.5092 0.8577
vn -0.1441 0.1541 0.9775
vn 0.0093 -0.0459 0.9989
vn 0.0277 0.0121 0.9995
vn -0.0137 -0.0201 0.9997
vn 0.1269 -0.0542 0.9904
vn 0.0569 -0.1278 0.9902
vn -0.3132 -0.8086 0.4981
vn -0.0504 -0.7771 0.6273
vn -0.0335 -0.7382 0.6738
usemtl None
s off
f 1//1 2//1 3//1
f 1//2 3//2 4//2
f 5//3 7//3 6//3
f 8//4 10//4 9//4
f 11//5 12//5 13//5
f 14//6 15//6 16//6
f 17//7 19//7 18//7
f 20//8 22//8 21//8
f 17//9 4//9 19//9
f 17//10 23//10 4//10
f 24//11 25//11 26//11
f 25//12 24//12 27//12
f 24//13 28//13 27//13
f 29//14 27//14 28//14
f 24//15 26//15 6//15
f 30//16 31//16 32//16
f 33//17 35//17 34//17
f 36//18 37//18 38//18
f 37//19 39//19 38//19
f 17//20 28//20 40//20
f 41//21 35//21 33//21
f 42//22 29//22 43//22
f 23//23 1//23 4//23
f 44//24 27//24 29//24
f 25//25 27//25 44//25
f 40//26 45//26 23//26
f 40//27 23//27 17//27
f 5//28 26//28 46//28
f 26//29 5//29 6//29
f 4//30 3//30 19//30
f 6//31 10//31 47//31
f 6//32 7//32 10//32
f 1//33 48//33 2//33
f 49//34 10//34 7//34
f 50//35 51//35 48//35
f 52//36 53//36 10//36
f 52//37 49//37 54//37
f 53//38 9//38 10//38
f 55//39 57//39 56//39
f 56//40 8//40 9//40
f 56//41 9//41 55//41
f 58//42 9//42 53//42
f 58//43 55//43 9//43
f 55//44 59//44 57//44
f 55//45 58//45 59//45
f 59//46 11//46 60//46
f 11//47 59//47 58//47
f 61//48 62//48 58//48
f 53//49 61//49 58//49
f 11//50 58//50 62//50
f 61//51 63//51 62//51
f 60//52 64//52 59//52
f 65//53 66//53 60//53
f 66//54 65//54 67//54
f 12//55 11//55 62//55
f 60//56 11//56 15//56
f 68//57 69//57 65//57
f 69//58 70//58 65//58
f 60//59 15//59 65//59
f 11//60 13//60 15//60
f 71//61 69//61 72//61
f 69//62 73//62 70//62
f 65//63 15//63 14//63
f 14//64 74//64 68//64
f 14//65 68//65 65//65
f 69//66 68//66 75//66
f 72//67 76//67 71//67
f 69//68 71//68 73//68
f 71//69 77//69 78//69
f 73//70 79//70 80//70
f 80//71 81//71 73//71
f 82//72 83//72 81//72
f 84//73 85//73 86//73
f 85//74 87//74 86//74
f 84//75 86//75 88//75
f 22//76 89//76 90//76
f 88//77 21//77 90//77
f 22//78 90//78 21//78
f 88//79 91//79 21//79
f 92//80 90//80 89//80
f 93//81 89//81 22//81
f 92//82 89//82 93//82
f 94//83 93//83 95//83
f 94//84 92//84 93//84
f 93//85 22//85 20//85
f 96//86 20//86 97//86
f 96//87 98//87 20//87
f 98//88 93//88 20//88
f 95//89 93//89 99//89
f 98//90 101//90 100//90
f 93//91 102//91 99//91
f 103//92 104//92 93//92
f 102//93 93//93 104//93
f 105//94 106//94 102//94
f 99//95 102//95 106//95
f 107//96 102//96 104//96
f 102//97 107//97 108//97
f 102//98 108//98 109//98
f 102//99 109//99 110//99
f 105//100 32//100 111//100
f 32//101 31//101 111//101
f 110//102 112//102 32//102
f 110//103 113//103 112//103
f 114//104 112//104 115//104
f 116//105 31//105 30//105
f 30//106 117//106 116//106
f 117//107 30//107 118//107
f 119//108 30//108 114//108
f 30//109 119//109 120//109
f 38//110 118//110 30//110
f 30//111 36//111 38//111
f 38//112 121//112 118//112
f 122//113 33//113 38//113
f 122//114 38//114 39//114
f 123//115 121//115 38//115
f 123//116 38//116 34//116
f 35//117 124//117 34//117
f 125//118 126//118 124//118
f 127//119 125//119 124//119
f 127//120 124//120 128//120
f 129//121 126//121 125//121
f 130//122 109//122 108//122
f 42//123 131//123 29//123
f 132//124 133//124 134//124
f 135//125 54//125 49//125
f 136//126 68//126 74//126
f 137//127 73//127 138//127
f 137//128 79//128 73//128
f 139//129 91//129 88//129
f 140//130 113//130 110//130
f 141//131 143//131 142//131
f 112//132 30//132 32//132
f 35//133 128//133 124//133
f 64//134 66//134 67//134
f 17//135 29//135 28//135
f 44//136 29//136 131//136
f 72//137 69//137 144//137
f 145//138 30//138 120//138
f 49//139 7//139 146//139
f 82//140 81//140 147//140
f 47//141 10//141 8//141
f 60//142 66//142 64//142
f 139//143 88//143 86//143
f 34//144 38//144 33//144
f 71//145 76//145 77//145
f 51//146 2//146 48//146
f 51//147 3//147 2//147
f 30//148 112//148 114//148
f 110//149 32//149 105//149
f 53//150 54//150 148//150
f 52//151 54//151 53//151
f 5//152 46//152 149//152
f 49//153 52//153 10//153
f 110//154 109//154 140//154
f 30//155 145//155 150//155
f 102//156 110//156 105//156
f 29//157 17//157 133//157
f 29//158 133//158 43//158
f 84//159 81//159 85//159
f 81//160 83//160 85//160
f 143//161 141//161 151//161
f 151//162 126//162 129//162
f 151//163 141//163 126//163
f 64//164 57//164 59//164
f 150//165 152//165 30//165
f 30//166 152//166 36//166
f 46//167 26//167 25//167
f 125//168 153//168 129//168
f 80//169 147//169 81//169
f 98//170 103//170 93//170
f 98//171 100//171 103//171
f 138//172 73//172 71//172
f 138//173 71//173 78//173
f 154//174 61//174 53//174
f 134//175 17//175 18//175
f 134//176 133//176 17//176
