# Blender v2.79 (sub 0) OBJ File: ''
# www.blender.org
mtllib my_crack_surf__152.mtl
o my_crack_surf__152
v 130.274002 -9.291600 120.003998
v 144.552994 -17.253317 104.156998
v 147.643997 -10.776519 119.151001
v 155.460999 96.249763 213.229019
v 112.473999 66.667671 203.796021
v 94.970001 106.588959 230.208008
v 146.365005 6.655547 142.729004
v 166.229004 4.499687 140.544006
v 155.313995 2.530938 137.755997
v 168.973999 14.725775 153.492996
v 162.985992 -2.121431 131.039993
v 126.424004 54.341969 192.508011
v 118.459000 43.944069 184.703995
v 116.240997 55.292168 196.329010
v -22.671400 185.566956 271.905029
v 2.518640 183.907959 269.010040
v -10.934300 185.045959 270.610016
v -39.976200 184.932953 273.308044
v -28.936199 185.611954 272.696045
v 144.001007 36.035675 175.197006
v 168.259003 35.713974 173.324997
v 138.108994 20.741873 159.291000
v 172.220001 36.753174 174.854004
v 159.617996 -7.111720 123.355003
v 137.466995 9.969936 147.207993
v -157.123993 -10.360643 262.403015
v -178.722000 -72.595642 262.674988
v -169.604004 -88.399849 262.451996
v 158.587997 61.124969 191.832016
v 156.011002 50.903168 184.756012
v 39.310398 -139.487045 257.218964
v 49.607300 -180.882050 260.288971
v 74.910599 -172.101044 259.822968
v 100.198997 -157.291046 258.333984
v 115.136002 -139.734039 256.546967
v 97.661697 -127.329041 256.431976
v 142.052994 -108.368034 251.736984
v 124.356003 -129.125046 255.159988
v 149.388000 -98.450836 249.887985
v 155.393997 -88.859535 248.572983
v 162.692001 -68.388039 245.320984
v 136.796997 -77.716736 246.776978
v 129.147003 20.201973 159.063995
v 170.516006 23.969273 163.460999
v 156.811996 22.572573 160.940002
v 172.988998 50.637970 184.823013
v 171.145004 62.002171 192.609009
v 129.294998 5.463787 143.020996
v 167.750000 70.419769 198.035019
v 101.975998 78.441460 213.024017
v 75.642799 102.435959 232.749008
v 144.944000 109.626961 221.039017
v 140.406006 115.315964 224.582016
v 159.386993 64.320671 193.955017
v 150.996994 -14.554018 109.862000
v 130.266998 -16.732718 105.966003
v 129.048004 -22.405315 94.885803
v 155.697006 -11.473919 116.322998
v 97.027702 160.041962 252.059036
v 107.170998 150.997955 247.617035
v 104.452003 141.257950 243.588028
v 102.482002 135.444962 241.647018
v 89.964996 164.509949 254.326035
v 66.069901 128.734955 247.353012
v 51.639400 127.584961 247.912018
v 50.599300 119.327965 245.168015
v 37.842602 123.709961 251.341019
v 64.054604 114.525963 241.760010
v 52.386600 133.672958 249.859009
v 54.166100 148.021957 254.520035
v 23.033300 127.244957 257.873016
v 5.475820 138.860947 265.027039
v 70.537102 174.699951 259.617035
v 7.233110 130.521957 263.965027
v 42.599499 183.725952 264.773041
v 61.658298 178.517960 261.775024
v -41.842999 123.699951 267.766022
v 19.842699 178.440948 266.517029
v 32.494202 169.477951 263.544037
v 42.980099 174.559952 263.491028
v 27.653299 184.158951 266.604034
v -100.096001 162.511948 274.201019
v 33.725201 184.634949 266.003021
v -58.978500 116.116951 268.433044
v 16.883101 184.366959 267.872040
v -72.459099 176.392960 273.754028
v -56.395199 181.589951 273.577026
v -34.015202 185.694962 273.069031
v -98.226997 85.838455 268.634003
v -135.682999 127.679955 272.363037
v -145.209000 119.364952 272.054016
v -167.811005 92.802055 269.929993
v -119.259003 49.010658 266.468994
v -179.983002 68.975258 268.583008
v -127.899002 24.639956 264.174011
v -130.757004 13.803658 263.234985
v -187.610001 47.599056 267.402008
v -129.240997 -8.054243 261.368988
v -127.958000 -30.288542 260.644989
v -123.099998 -41.408443 260.782013
v -118.258003 -52.460541 262.117004
v -186.927002 1.981227 264.557007
v -187.688995 -8.400673 263.977997
v -188.759003 -33.339340 263.334015
v -155.770004 -106.492043 262.293976
v -187.393997 -43.151840 263.160004
v -113.346001 -63.434040 262.842010
v -82.462502 -119.451042 260.601959
v -108.404999 -74.428848 262.648010
v -142.828995 -119.079048 262.299957
v -42.049301 -124.596046 260.465973
v -82.023598 -102.782043 261.324982
v -21.092501 -128.025040 260.038971
v -27.799000 -185.194046 261.745972
v 17.381201 -159.310043 258.773956
v 0.000000 -131.500046 258.823975
v 48.488201 -122.117035 256.849976
v 24.629900 -126.712036 257.279968
v 34.373600 -183.985046 260.305969
v 93.638100 -92.320541 253.631989
v 78.983803 -120.964035 256.893982
v 71.296402 -107.297035 256.947968
v 122.713997 -47.160339 243.211990
v 128.770004 -3.906548 233.031006
v 166.820999 -43.916939 240.464005
v 167.100998 -30.641237 237.274994
v 138.533005 -15.372838 235.268997
v 166.427994 -21.787539 234.669998
v 131.087006 9.127343 228.563995
v 135.350998 11.977363 227.113007
v 158.016006 -8.187648 232.300003
v 154.673004 8.188863 227.386002
v 126.611000 23.821764 221.718994
v 162.888000 -9.401448 231.992004
v -84.577400 -169.486038 261.781982
v -73.154800 -175.841049 261.833984
v -110.751999 -151.779053 261.985962
v -130.632004 -129.846039 262.248962
v -51.457500 -182.213043 262.034973
v 137.395004 21.852163 222.328995
v 87.555801 -165.858047 259.246979
v 150.485992 103.940964 217.233017
v -158.182999 106.115952 270.703033
v -151.399002 113.727951 271.161041
v -111.322998 68.236755 268.210999
v -0.354587 -184.143051 261.059967
v 24.097601 -184.743042 260.506958
v 124.399002 134.242950 236.628021
v -63.947399 -179.197052 261.971954
v 158.835007 90.278168 209.640015
v 129.363007 129.216965 233.222015
v 135.453995 121.361961 228.470016
v 149.143997 14.015263 225.671997
v 164.593002 -60.322937 243.653992
v -189.076996 -20.182043 263.571991
v -187.731995 30.611755 266.285004
v -182.753998 -60.785141 262.864990
vn -0.0580 -0.9121 0.4059
vn 0.1547 -0.4971 0.8538
vn -0.0169 -0.7843 0.6201
vn -0.0166 -0.7830 0.6218
vn 0.0022 -0.8209 0.5711
vn 0.2004 -0.6817 0.7037
vn 0.0981 -0.2081 0.9732
vn 0.0825 -0.7154 0.6938
vn 0.0863 -0.6395 0.7639
vn 0.0431 -0.7281 0.6841
vn -0.2708 -0.3092 0.9116
vn 0.0786 -0.8515 0.5185
vn 0.0118 -0.8156 0.5785
vn -0.0252 -0.8082 0.5884
vn 0.2365 -0.4949 0.8361
vn 0.0200 -0.0026 0.9998
vn 0.1406 -0.5872 0.7971
vn -0.0067 0.0723 0.9974
vn 0.0408 0.0667 0.9969
vn 0.1337 -0.6101 0.7810
vn -0.1783 0.3062 0.9351
vn -0.0011 0.1573 0.9876
vn 0.0265 -0.7280 0.6851
vn -0.0303 -0.6628 0.7482
vn 0.0937 -0.9947 0.0419
vn -0.0406 -0.8104 0.5845
vn 0.0281 -0.8590 0.5112
vn 0.0242 -0.5544 0.8319
vn -0.0123 -0.5827 0.8126
vn -0.0113 -0.5672 0.8235
vn -0.0121 -0.5665 0.8240
vn 0.0590 -0.7349 0.6756
vn 0.0699 -0.7304 0.6794
vn -0.0197 -0.7797 0.6259
vn 0.0192 -0.6410 0.7673
vn 0.0701 -0.4808 0.8740
vn 0.2305 -0.4646 0.8550
vn 0.2136 -0.4698 0.8566
vn 0.8265 0.5075 0.2438
vn 0.1846 -0.7087 0.6809
vn 0.0410 -0.9203 0.3891
vn 0.0271 -0.8832 0.4682
vn 0.0249 -0.8910 0.4534
vn 0.0590 -0.9171 0.3943
vn 0.0974 -0.3486 0.9322
vn 0.2519 -0.4291 0.8674
vn 0.1258 -0.3523 0.9274
vn 0.3057 -0.3748 0.8753
vn 0.3148 -0.3348 0.8882
vn 0.0989 -0.3766 0.9211
vn 0.0622 -0.3218 0.9448
vn 0.3129 -0.3239 0.8928
vn 0.0877 -0.2467 0.9651
vn 0.0615 -0.3109 0.9485
vn 0.1536 -0.3225 0.9340
vn 0.3149 -0.3271 0.8910
vn 0.2899 -0.1444 0.9461
vn 0.2578 -0.3273 0.9091
vn 0.1247 -0.2595 0.9577
vn 0.3512 -0.0451 0.9352
vn 0.0834 -0.2500 0.9646
vn 0.0915 -0.1068 0.9901
vn -0.1830 -0.5324 0.8265
vn 0.2310 -0.1202 0.9655
vn 0.1339 -0.2663 0.9546
vn 0.1116 -0.1674 0.9796
vn 0.0746 -0.0531 0.9958
vn 0.0856 -0.1663 0.9824
vn 0.1227 -0.1325 0.9836
vn 0.0593 -0.1196 0.9910
vn 0.0839 -0.0955 0.9919
vn 0.0672 -0.0642 0.9957
vn 0.1086 -0.0805 0.9908
vn 0.1121 -0.1680 0.9794
vn 0.0017 0.0288 0.9996
vn 0.0182 -0.0090 0.9998
vn 0.0677 -0.2248 0.9721
vn 0.1101 -0.1679 0.9796
vn 0.0254 -0.0662 0.9975
vn 0.0139 -0.0635 0.9979
vn 0.0896 -0.1248 0.9881
vn 0.0101 -0.0748 0.9972
vn 0.0627 -0.1026 0.9928
vn 0.0350 -0.0676 0.9971
vn 0.0437 -0.0820 0.9957
vn 0.0395 -0.0302 0.9988
vn 0.2480 0.2225 0.9429
vn 0.0973 0.0548 0.9937
vn -0.7007 0.0116 0.7134
vn 0.0566 -0.0375 0.9977
vn 0.0062 -0.0010 1.0000
vn 0.0384 -0.0124 0.9992
vn 0.0325 -0.0069 0.9994
vn -0.0549 0.0414 0.9976
vn 0.0167 -0.0358 0.9992
vn 0.0034 -0.0161 0.9999
vn 0.0283 0.0296 0.9992
vn -0.0021 -0.0433 0.9991
vn 0.0034 -0.0434 0.9991
vn 0.0248 0.0269 0.9993
vn 0.0491 0.0289 0.9984
vn 0.0612 0.0226 0.9979
vn 0.0155 0.0130 0.9998
vn -0.0178 0.0497 0.9986
vn 0.0869 0.0952 0.9917
vn -0.0093 0.0512 0.9986
vn -0.0026 0.0768 0.9970
vn 0.0750 0.0749 0.9944
vn 0.0674 0.1041 0.9923
vn 0.0628 0.1123 0.9917
vn 0.1089 0.0573 0.9924
vn -0.5173 0.5367 0.6666
vn 0.0875 0.1996 0.9760
vn 0.1014 0.1612 0.9817
vn 0.1899 0.1997 0.9613
vn -0.0159 0.1972 0.9802
vn 0.0275 0.1807 0.9832
vn -0.0118 0.1818 0.9833
vn 0.0865 0.2873 0.9539
vn 0.1193 0.3028 0.9455
vn 0.0444 0.2954 0.9543
vn 0.0217 0.4276 0.9037
vn 0.1213 0.2428 0.9625
vn 0.1368 0.3102 0.9408
vn 0.0084 0.0232 0.9997
vn -0.0131 -0.5510 0.8344
vn 0.0307 0.0159 0.9994
vn 0.0231 0.0226 0.9995
vn 0.0281 0.1270 0.9915
vn 0.0277 0.4312 0.9018
vn -0.0115 -0.5450 0.8383
vn 0.0109 0.0700 0.9975
vn 0.0275 0.0657 0.9975
vn 0.4047 -0.2025 0.8918
vn 0.0283 0.0273 0.9992
vn 0.0109 -0.0697 0.9975
vn 0.2148 -0.1145 0.9699
vn 0.0308 -0.7262 0.6868
vn -0.0076 -0.0871 0.9962
vn 0.0597 -0.0708 0.9957
vn 0.0244 0.0744 0.9969
vn 0.0220 0.0761 0.9969
vn 0.0954 -0.8688 0.4858
vn 0.1865 -0.3897 0.9018
vn 0.1890 -0.4085 0.8930
vn 0.0813 -0.0825 0.9933
vn -0.0224 -0.1324 0.9909
vn 0.0144 0.0805 0.9966
vn 0.1260 -0.4577 0.8801
vn 0.1220 -0.2580 0.9584
vn 0.2809 -0.3858 0.8788
vn 0.5630 -0.4270 0.7076
vn -0.0104 0.1422 0.9898
vn 0.3086 -0.3056 0.9008
vn 0.1656 -0.4161 0.8941
vn 0.1897 -0.5377 0.8215
vn 0.1799 -0.8246 0.5363
vn 0.0030 -0.6859 0.7276
vn 0.0062 0.0226 0.9997
vn 0.0067 0.0229 0.9997
vn 0.0306 0.4307 0.9020
vn -0.1862 -0.6348 0.7499
vn 0.2044 -0.4063 0.8906
vn 0.1325 0.2974 0.9455
vn 0.1198 0.1738 0.9775
vn -0.0515 -0.7283 0.6833
vn -0.1146 -0.0207 0.9932
vn 0.4599 -0.1042 0.8818
vn 0.0477 -0.0588 0.9971
vn 0.0383 -0.0658 0.9971
vn 0.0825 -0.3441 0.9353
vn 0.0039 -0.0608 0.9981
vn 0.0211 -0.0397 0.9990
vn 0.0189 -0.0719 0.9972
vn -0.0598 0.2343 0.9703
vn 0.0881 0.2941 0.9517
vn 0.0102 0.0159 0.9998
vn 0.0012 -0.0690 0.9976
vn -0.0013 -0.0047 1.0000
vn 0.1376 -0.5717 0.8088
vn 0.0561 0.0333 0.9979
vn -0.0081 -0.0189 0.9998
vn 0.0101 -0.0010 0.9999
vn 0.0505 0.3257 0.9441
vn 0.1753 -0.3958 0.9014
vn -0.1616 0.0716 0.9843
vn 0.2732 -0.4630 0.8432
vn 0.0142 0.0717 0.9973
usemtl None
s off
f 1//1 2//1 3//1
f 4//2 6//2 5//2
f 7//3 9//3 8//3
f 7//4 8//4 10//4
f 11//5 8//5 9//5
f 12//6 14//6 13//6
f 15//7 16//7 17//7
f 18//8 15//8 19//8
f 20//9 12//9 13//9
f 21//10 20//10 22//10
f 21//11 22//11 23//11
f 11//12 3//12 24//12
f 11//13 9//13 3//13
f 25//14 3//14 9//14
f 25//15 9//15 7//15
f 26//16 27//16 28//16
f 29//17 12//17 30//17
f 31//18 32//18 33//18
f 34//19 35//19 36//19
f 20//20 30//20 12//20
f 37//21 39//21 38//21
f 40//22 41//22 42//22
f 22//23 13//23 43//23
f 23//24 22//24 44//24
f 45//25 44//25 22//25
f 1//26 3//26 25//26
f 21//27 23//27 20//27
f 23//28 30//28 20//28
f 46//29 30//29 23//29
f 47//30 29//30 30//30
f 47//31 30//31 46//31
f 43//32 48//32 25//32
f 7//33 43//33 25//33
f 43//34 7//34 10//34
f 22//35 43//35 10//35
f 4//36 12//36 49//36
f 50//37 5//37 6//37
f 50//38 6//38 51//38
f 52//39 53//39 4//39
f 54//40 49//40 12//40
f 55//41 3//41 2//41
f 1//42 56//42 2//42
f 2//43 56//43 57//43
f 55//44 58//44 3//44
f 51//45 60//45 59//45
f 51//46 61//46 60//46
f 51//47 62//47 61//47
f 51//48 63//48 64//48
f 65//49 67//49 66//49
f 66//50 68//50 64//50
f 66//51 64//51 65//51
f 65//52 69//52 67//52
f 69//53 64//53 63//53
f 69//54 65//54 64//54
f 63//55 70//55 69//55
f 71//56 67//56 69//56
f 71//57 69//57 72//57
f 72//58 69//58 70//58
f 73//59 70//59 63//59
f 71//60 72//60 74//60
f 75//61 70//61 76//61
f 72//62 77//62 74//62
f 78//63 70//63 79//63
f 78//64 72//64 70//64
f 79//65 70//65 80//65
f 79//66 81//66 78//66
f 77//67 72//67 82//67
f 79//68 80//68 83//68
f 83//69 80//69 75//69
f 82//70 72//70 18//70
f 72//71 15//71 18//71
f 82//72 84//72 77//72
f 72//73 16//73 15//73
f 85//74 78//74 81//74
f 86//75 82//75 87//75
f 18//76 87//76 82//76
f 88//77 18//77 19//77
f 83//78 81//78 79//78
f 89//79 90//79 91//79
f 92//80 94//80 93//80
f 93//81 26//81 95//81
f 94//82 26//82 93//82
f 96//83 95//83 26//83
f 94//84 97//84 26//84
f 26//85 98//85 96//85
f 99//86 98//86 26//86
f 100//87 26//87 101//87
f 100//88 99//88 26//88
f 102//89 103//89 104//89
f 102//90 104//90 26//90
f 26//91 105//91 101//91
f 26//92 104//92 106//92
f 26//93 106//93 27//93
f 107//94 101//94 105//94
f 108//95 109//95 105//95
f 107//96 105//96 109//96
f 110//97 108//97 105//97
f 111//98 112//98 108//98
f 109//99 108//99 112//99
f 111//100 114//100 113//100
f 115//101 116//101 114//101
f 113//102 114//102 116//102
f 117//103 118//103 31//103
f 119//104 118//104 115//104
f 118//105 32//105 31//105
f 119//106 32//106 118//106
f 31//107 33//107 36//107
f 39//108 120//108 121//108
f 39//109 36//109 35//109
f 39//110 121//110 36//110
f 122//111 121//111 120//111
f 35//112 38//112 39//112
f 120//113 39//113 42//113
f 42//114 123//114 120//114
f 42//115 124//115 123//115
f 41//116 125//116 42//116
f 42//117 126//117 127//117
f 42//118 127//118 124//118
f 126//119 128//119 127//119
f 129//120 124//120 130//120
f 130//121 131//121 132//121
f 129//122 130//122 133//122
f 134//123 131//123 128//123
f 134//124 132//124 131//124
f 135//125 136//125 108//125
f 47//126 54//126 29//126
f 137//127 108//127 138//127
f 137//128 135//128 108//128
f 139//129 114//129 136//129
f 140//130 133//130 130//130
f 47//131 49//131 54//131
f 141//132 36//132 33//132
f 141//133 34//133 36//133
f 142//134 52//134 4//134
f 138//135 108//135 110//135
f 143//136 89//136 144//136
f 85//137 72//137 78//137
f 22//138 20//138 13//138
f 92//139 93//139 145//139
f 89//140 84//140 82//140
f 146//141 147//141 115//141
f 146//142 115//142 114//142
f 58//143 24//143 3//143
f 53//144 6//144 4//144
f 53//145 148//145 6//145
f 16//146 72//146 85//146
f 89//147 91//147 144//147
f 136//148 149//148 139//148
f 4//149 49//149 150//149
f 73//150 76//150 70//150
f 51//151 64//151 68//151
f 62//152 6//152 61//152
f 39//153 40//153 42//153
f 151//154 148//154 152//154
f 61//155 148//155 60//155
f 5//156 12//156 4//156
f 1//157 25//157 48//157
f 22//158 10//158 45//158
f 108//159 114//159 111//159
f 108//160 136//160 114//160
f 140//161 130//161 153//161
f 152//162 148//162 53//162
f 51//163 6//163 62//163
f 130//164 124//164 127//164
f 41//165 154//165 125//165
f 10//166 44//166 45//166
f 103//167 155//167 104//167
f 75//168 80//168 70//168
f 102//169 26//169 156//169
f 156//170 26//170 97//170
f 63//171 51//171 59//171
f 92//172 145//172 143//172
f 89//173 143//173 145//173
f 82//174 90//174 89//174
f 125//175 126//175 42//175
f 128//176 130//176 127//176
f 31//177 36//177 117//177
f 36//178 121//178 117//178
f 121//179 122//179 117//179
f 54//180 12//180 29//180
f 118//181 116//181 115//181
f 157//182 27//182 106//182
f 105//183 26//183 28//183
f 153//184 130//184 132//184
f 6//185 148//185 61//185
f 130//186 128//186 131//186
f 5//187 14//187 12//187
f 119//188 115//188 147//188
