# Blender v2.79 (sub 0) OBJ File: ''
# www.blender.org
mtllib my_crack_surf__59.mtl
o my_crack_surf__59
v 130.278000 -6.281891 127.610001
v 139.059998 -15.275018 113.172997
v 146.401993 -11.691219 119.556999
v 144.171997 97.332359 213.838013
v 76.892403 101.291962 233.478012
v 102.797997 77.686462 213.497009
v 22.958300 131.291962 260.155029
v -0.488763 176.257950 268.584045
v 7.233110 130.521957 263.965027
v 34.146301 174.251953 264.308044
v -2.538520 145.096954 266.668030
v -30.082001 175.070953 271.176025
v 118.570999 43.534470 184.725006
v 122.541000 47.281170 188.384018
v 116.240997 55.292168 196.329010
v 129.341995 4.978567 143.595993
v 153.210999 -4.592921 130.908997
v 160.973007 9.408635 149.348999
v 164.727005 41.371571 178.589005
v 162.304001 53.821571 187.296021
v 152.822006 82.100273 205.164017
v 160.526993 61.191071 192.238022
v 112.557999 66.411072 204.046021
v 162.658997 16.009075 157.132996
v 165.205002 31.287571 170.544998
v 129.192993 19.732273 159.621002
v 129.785995 -0.949239 135.761002
v 133.214996 113.490959 223.840012
v 157.957001 72.426270 199.101013
v 130.264008 -17.329117 108.237999
v 122.759003 124.276962 231.882019
v 104.095001 141.553955 244.552032
v 65.737999 112.916962 242.018021
v 83.321899 151.179947 252.807037
v 90.772598 152.391953 251.684036
v 57.974300 116.551964 245.795013
v 49.493801 149.559952 257.697021
v 60.586201 151.408951 256.852020
v 31.343300 125.795959 257.039032
v 70.348900 163.658951 257.888031
v 75.986099 154.371948 254.050034
v 58.807899 168.734955 260.508026
v 46.107700 157.568954 260.339020
v 24.320200 127.254951 259.774017
v -5.081740 136.753952 265.411041
v -8.858880 128.249954 265.626038
v 42.496799 173.007950 263.200043
v -82.671402 149.573959 271.736023
v -41.480499 123.702957 268.302032
v -59.239399 115.839951 269.157043
v -60.187099 169.761948 271.851044
v -68.779602 165.692947 272.683044
v -105.213997 100.668953 270.445038
v -105.014000 139.508957 271.755035
v -88.184196 152.159958 272.103027
v -122.314003 122.868958 270.849030
v -152.647995 84.078354 268.833008
v -98.453697 85.597054 269.261993
v -113.167999 65.771553 268.178986
v -160.546997 50.784260 266.095001
v -123.372002 37.773060 265.011993
v -132.164993 40.553356 264.660004
v -162.391998 13.557957 262.997986
v -130.804001 13.510257 262.941986
v -162.259003 34.796757 265.095001
v -159.533997 -0.671144 261.813995
v -144.807007 -23.181442 259.876007
v -128.324997 -22.519741 259.381989
v 64.488503 166.481949 259.440033
v -65.838303 167.104950 272.620026
v -77.009300 161.802948 273.046021
v -77.438797 158.098953 272.956024
v -156.979996 67.691856 267.808990
v -153.973007 80.182655 268.477997
v -160.526001 59.056458 266.946991
v -150.561996 -16.787842 260.343994
v 163.647995 48.777370 183.969009
v 26.805599 175.704956 265.342041
v -127.891998 -27.457743 259.872986
vn -0.0300 -0.8565 0.5153
vn 0.2201 -0.4782 0.8502
vn 0.2378 -0.0578 0.9696
vn 0.1144 -0.1251 0.9855
vn 0.1656 -0.0714 0.9836
vn 0.0897 -0.0670 0.9937
vn 0.0059 -0.7018 0.7123
vn -0.0225 -0.8180 0.5748
vn 0.0017 -0.7968 0.6043
vn 0.1138 -0.5544 0.8244
vn -0.3100 -0.5800 0.7534
vn 0.1066 -0.5053 0.8563
vn 0.1419 -0.4278 0.8927
vn -0.2787 -0.6069 0.7443
vn 0.0361 -0.7175 0.6956
vn -0.0150 -0.6451 0.7640
vn 0.0621 -0.7136 0.6978
vn 0.1952 -0.5583 0.8063
vn -0.0360 -0.7584 0.6508
vn 0.9959 -0.0359 0.0836
vn -0.0151 -0.8437 0.5366
vn -0.0201 -0.7356 0.6771
vn 0.2306 -0.5001 0.8347
vn 0.2368 -0.3902 0.8898
vn 0.0451 -0.5132 0.8571
vn -0.0749 -0.8662 0.4940
vn 0.2406 -0.4194 0.8753
vn 0.2314 -0.4002 0.8867
vn 0.2813 -0.3780 0.8820
vn 0.1960 -0.3595 0.9123
vn 0.1233 -0.3084 0.9432
vn 0.2999 -0.2545 0.9194
vn 0.2204 -0.2553 0.9414
vn 0.1753 0.0196 0.9843
vn 0.2247 -0.1981 0.9541
vn 0.1366 -0.1911 0.9720
vn 0.1067 -0.1948 0.9750
vn 0.1923 -0.2332 0.9532
vn 0.3693 0.0369 0.9286
vn 0.2360 -0.0121 0.9717
vn -0.2730 -0.4035 0.8733
vn 0.0352 -0.1594 0.9866
vn 0.1057 -0.0218 0.9942
vn 0.7439 -0.3155 0.5891
vn 0.1885 -0.1430 0.9716
vn 0.1069 -0.1569 0.9818
vn 0.1217 -0.1533 0.9807
vn 0.0680 -0.0870 0.9939
vn 0.0626 -0.0328 0.9975
vn 0.0335 -0.0632 0.9974
vn 0.0300 -0.0844 0.9960
vn 0.0161 -0.0338 0.9993
vn 0.0329 -0.0712 0.9969
vn -0.0200 -0.0336 0.9992
vn -0.0065 -0.0497 0.9987
vn -0.0056 -0.0808 0.9967
vn -0.0194 -0.0774 0.9968
vn -0.2888 -0.8601 0.4204
vn 0.0016 -0.0855 0.9963
vn 0.0096 -0.0983 0.9951
vn -0.0060 0.1067 0.9943
vn 0.0325 -0.0646 0.9974
vn 0.1785 -0.2061 0.9621
vn -0.1253 -0.6649 0.7364
vn 0.4329 -0.8981 0.0776
vn -0.2321 0.0033 0.9727
vn 0.8268 -0.2266 0.5148
vn 0.0077 -0.1025 0.9947
vn -0.0520 -0.1194 0.9915
vn 0.3055 -0.3161 0.8982
vn 0.0587 -0.0310 0.9978
vn 0.5083 -0.3710 0.7772
vn 0.0432 -0.0463 0.9980
vn -0.0130 -0.3886 0.9213
vn 0.0920 -0.0760 0.9929
vn 0.1635 -0.3094 0.9368
vn 0.0133 -0.1126 0.9936
vn -0.0092 -0.1091 0.9940
vn -0.3959 -0.5768 0.7146
vn 0.1866 -0.3758 0.9077
vn 0.1146 -0.1225 0.9858
vn -0.0217 -0.0349 0.9992
vn 0.0468 -0.0573 0.9973
vn 0.0269 -0.0653 0.9975
vn 0.2601 -0.3709 0.8915
vn 0.1111 -0.0314 0.9933
vn 0.0092 -0.0977 0.9952
vn 0.0016 -0.0826 0.9966
vn 0.0258 0.1011 0.9945
vn -0.0859 -0.0614 0.9944
usemtl None
s off
f 1//1 2//1 3//1
f 4//2 5//2 6//2
f 7//3 8//3 9//3
f 10//4 8//4 7//4
f 11//5 9//5 8//5
f 12//6 11//6 8//6
f 13//7 14//7 15//7
f 16//8 1//8 17//8
f 18//9 16//9 17//9
f 14//10 19//10 20//10
f 21//11 20//11 22//11
f 21//12 14//12 20//12
f 4//13 23//13 21//13
f 24//14 25//14 19//14
f 13//15 26//15 14//15
f 19//16 26//16 24//16
f 19//17 14//17 26//17
f 23//18 14//18 21//18
f 24//19 26//19 18//19
f 27//20 1//20 16//20
f 17//21 1//21 3//21
f 16//22 18//22 26//22
f 23//23 4//23 6//23
f 28//24 5//24 4//24
f 29//25 21//25 22//25
f 30//26 2//26 1//26
f 28//27 31//27 5//27
f 31//28 32//28 5//28
f 5//29 34//29 33//29
f 35//30 34//30 32//30
f 36//31 38//31 37//31
f 37//32 39//32 36//32
f 40//33 38//33 41//33
f 34//34 41//34 38//34
f 7//35 39//35 37//35
f 40//36 42//36 38//36
f 37//37 38//37 42//37
f 37//38 42//38 43//38
f 44//39 39//39 7//39
f 7//40 9//40 44//40
f 43//41 10//41 37//41
f 45//42 9//42 11//42
f 9//43 45//43 46//43
f 45//44 11//44 46//44
f 7//45 37//45 10//45
f 43//46 47//46 10//46
f 42//47 47//47 43//47
f 46//48 11//48 12//48
f 48//49 50//49 49//49
f 12//50 51//50 49//50
f 48//51 49//51 52//51
f 53//52 48//52 54//52
f 55//53 54//53 48//53
f 56//54 53//54 54//54
f 57//55 59//55 58//55
f 58//56 53//56 57//56
f 57//57 60//57 59//57
f 61//58 60//58 62//58
f 61//59 63//59 64//59
f 61//60 65//60 63//60
f 61//61 62//61 65//61
f 66//62 67//62 68//62
f 34//63 35//63 40//63
f 40//64 69//64 42//64
f 51//65 70//65 52//65
f 71//66 48//66 72//66
f 73//67 60//67 74//67
f 73//68 75//68 60//68
f 76//69 67//69 66//69
f 72//70 48//70 52//70
f 72//71 52//71 71//71
f 14//72 23//72 15//72
f 53//73 50//73 48//73
f 40//74 41//74 34//74
f 49//75 46//75 12//75
f 34//76 38//76 36//76
f 55//77 48//77 71//77
f 60//78 61//78 59//78
f 77//79 20//79 19//79
f 34//80 5//80 32//80
f 8//81 10//81 78//81
f 56//82 57//82 53//82
f 53//83 58//83 50//83
f 65//84 62//84 60//84
f 33//85 34//85 36//85
f 52//86 49//86 51//86
f 66//87 68//87 64//87
f 64//88 63//88 66//88
f 68//89 67//89 79//89
f 60//90 57//90 74//90
