# Blender v2.79 (sub 0) OBJ File: ''
# www.blender.org
mtllib my_crack_surf__15.mtl
o my_crack_surf__15
v 154.970993 39.737171 181.164001
v 149.347000 63.944370 198.666016
v 113.363998 64.223572 206.060013
v 157.876999 27.971371 171.322998
v 147.145996 -8.995011 129.304001
v 129.207001 19.585873 159.794006
v 130.276001 -8.378611 129.472000
v 130.294006 -16.264420 117.346001
v 129.403000 4.351807 144.341995
v 130.300003 90.295265 216.201019
v 99.286499 80.865761 221.244019
v 113.216003 101.764961 225.472015
v 89.764603 103.870964 230.068008
v 153.591003 -0.916024 139.893997
v 153.869995 50.507271 189.714020
v 77.492699 100.758965 228.787018
vn 0.1636 -0.5528 0.8171
vn 0.0962 -0.6245 0.7751
vn -0.0201 -0.7353 0.6774
vn -0.0252 -0.8381 0.5450
vn -0.0612 -0.7287 0.6821
vn 0.8919 -0.3163 0.3232
vn 0.1760 -0.4540 0.8734
vn 0.2534 -0.3512 0.9014
vn 0.1580 -0.2959 0.9420
vn 0.2855 -0.5028 0.8159
vn -0.1103 -0.7567 0.6444
vn -0.0596 -0.7309 0.6799
vn -0.3834 -0.5980 0.7039
vn -0.0060 -0.3603 0.9328
usemtl None
s off
f 1//1 2//1 3//1
f 1//2 3//2 4//2
f 5//3 6//3 7//3
f 5//4 7//4 8//4
f 6//5 4//5 3//5
f 7//6 6//6 9//6
f 2//7 10//7 3//7
f 11//8 10//8 12//8
f 12//9 13//9 11//9
f 10//10 11//10 3//10
f 5//11 14//11 6//11
f 14//12 4//12 6//12
f 1//13 15//13 2//13
f 13//14 16//14 11//14
