# Blender v2.79 (sub 0) OBJ File: ''
# www.blender.org
mtllib my_crack_surf__87.mtl
o my_crack_surf__87
v 129.162994 20.034773 159.261993
v 145.927994 12.726475 152.108994
v 144.037994 35.827374 175.412994
v 130.276993 -5.756280 127.177002
v 139.942993 -15.195718 112.962997
v 147.380005 -11.518819 119.390999
v 13.064800 179.625961 267.363037
v 3.743970 147.173950 266.253021
v 27.755501 178.983948 265.966034
v -27.487801 179.429947 271.383026
v 159.654007 2.665987 140.149002
v 164.289993 15.766674 156.231003
v -3.716520 179.592957 269.342041
v -133.524002 116.264954 270.240021
v -112.941002 135.115952 271.730042
v -105.214996 100.661957 270.247040
v 152.679001 -7.263970 125.992996
v 137.464996 8.392527 147.975998
v 129.326004 5.145536 143.399002
v 116.240997 55.292168 196.329010
v 165.921997 51.243271 185.535019
v 155.953995 50.959969 184.876022
v 118.473999 43.887970 184.707001
v 167.123001 35.133472 173.807007
v 167.188995 41.171669 178.432999
v 147.973007 93.303162 211.544022
v 158.753998 75.797966 201.052017
v 111.427002 69.829971 206.095016
v 96.568802 145.088959 248.759033
v 146.332993 97.396461 213.878021
v 135.307007 113.465965 224.128021
v 75.776604 102.313965 232.827011
v 130.266998 -17.678318 107.471001
v 121.403999 128.193954 234.937012
v 68.150398 142.910950 253.333023
v 51.004101 119.084961 246.770020
v 64.069504 114.516960 241.819016
v 44.040199 149.964951 258.436035
v 79.754997 163.285950 256.617035
v 92.092201 156.178955 252.892029
v 32.147900 125.552963 256.070038
v 56.637600 161.787949 259.038025
v 63.358398 170.801956 260.914032
v 24.291201 127.254951 259.732025
v -5.212570 136.718948 265.623016
v 7.233110 130.521957 263.965027
v 45.127399 176.676956 264.028046
v -41.664200 123.700951 268.030029
v -39.737099 178.313950 272.304016
v -66.535500 170.891953 272.966034
v -81.993202 163.764954 272.634033
v -98.317902 85.741653 268.885986
v -59.108101 115.978951 268.793030
v -19.684200 179.919952 271.041016
v -94.269997 156.029953 272.849030
v -109.024002 144.209961 271.573029
v -113.192001 65.724251 268.144989
v -127.693001 122.066956 270.464020
v -154.259003 55.070457 267.042999
v -140.585999 100.501953 268.874023
v -116.461998 133.168961 271.672028
v -130.759003 13.778157 262.984985
v -123.263000 37.960957 265.431000
v -132.141998 40.607357 264.877991
v -175.807007 54.824959 267.441010
v -177.694000 40.524960 266.380005
v -177.548004 -15.788043 262.940002
v -129.237000 -8.070183 261.087006
v -178.003998 13.378957 264.489014
v -179.837006 -3.066373 263.648987
v -178.037003 21.584557 265.326996
v -127.953003 -30.310442 260.259003
v -167.968002 -61.222042 260.755005
v -113.353996 -63.417442 262.997986
v -177.082001 -24.654741 262.660004
v -172.664001 -46.405743 262.243011
v -146.653000 -96.534042 261.728973
v -159.608002 -79.470047 261.591003
v -152.302994 -90.138443 262.089996
v -108.414001 -74.415344 262.677002
v -82.471802 -119.464043 260.410980
v -82.009804 -102.793045 261.321960
v -136.567993 -110.059044 261.579956
v -71.999199 -108.274048 260.553955
v -42.153400 -124.558044 260.473969
v -58.807499 -158.369049 261.679962
v -8.068800 -149.918045 260.678955
v -8.385490 -130.125046 260.486969
v 7.979420 -130.451050 258.030975
v 4.899180 -139.467041 258.224976
v -116.088997 -126.898048 261.590973
v -109.158997 -133.383041 261.670959
v 101.761002 147.364960 248.865036
v -102.176003 150.570953 272.745026
v -98.080299 153.680954 272.852020
v -122.598999 129.620956 270.648041
v -146.690002 107.238953 269.214020
v -132.313004 120.530952 270.000031
v -123.403000 -121.598045 261.673981
v -39.079700 -160.019043 260.562958
v -46.505901 -157.818039 261.065979
v 11.993600 -128.984039 257.141968
v -26.044300 -157.844040 260.975983
v 71.075699 167.507950 259.337036
v -101.125999 -139.090042 261.652985
v -87.962997 -142.869049 261.428955
v -172.584000 63.606258 267.566986
v -155.942993 95.388756 269.313019
v -76.773903 -150.772049 261.663971
vn -0.0096 -0.7106 0.7036
vn -0.0424 -0.8453 0.5326
vn 0.0003 -0.8034 0.5954
vn 0.0919 -0.0604 0.9939
vn 0.0988 -0.0623 0.9932
vn -0.0143 -0.7732 0.6340
vn 0.0197 -0.9884 0.1507
vn -0.0273 -0.0491 0.9984
vn -0.0682 -0.8007 0.5952
vn 0.0169 -0.8294 0.5584
vn 0.1820 -0.8411 0.5093
vn 0.0026 -0.9323 0.3616
vn 0.1280 -0.6955 0.7070
vn 0.1070 -0.5864 0.8029
vn 0.0218 -0.7248 0.6886
vn 0.0277 -0.7088 0.7049
vn -0.0566 -0.6664 0.7434
vn 0.0369 -0.6080 0.7931
vn 0.0043 -0.6945 0.7195
vn -0.0931 -0.7264 0.6809
vn 0.1211 -0.4544 0.8825
vn 0.5871 -0.3084 0.7485
vn 0.1214 -0.4545 0.8824
vn 0.1681 -0.4693 0.8669
vn 0.2456 -0.4409 0.8633
vn 0.1381 -0.4635 0.8753
vn 0.1452 -0.4979 0.8550
vn -0.0741 -0.8532 0.5162
vn 0.1370 -0.4988 0.8558
vn 0.1755 -0.4174 0.8916
vn 0.2026 -0.3929 0.8970
vn 0.1016 -0.3315 0.9380
vn 0.1074 -0.3088 0.9450
vn 0.3541 -0.2596 0.8985
vn 0.1136 -0.1708 0.9787
vn 0.1358 -0.2326 0.9631
vn 0.1181 -0.2860 0.9509
vn 0.1379 -0.1768 0.9745
vn 0.2870 0.3364 0.8969
vn 0.1979 -0.1406 0.9701
vn 0.1969 -0.1156 0.9736
vn 0.0812 -0.2074 0.9749
vn 0.1234 -0.1647 0.9786
vn 0.0934 -0.0780 0.9926
vn 0.0803 -0.0802 0.9935
vn 0.0820 -0.0806 0.9934
vn 0.0466 -0.0796 0.9957
vn 0.0214 -0.0928 0.9955
vn 0.0534 -0.0662 0.9964
vn 0.0726 -0.5991 0.7973
vn 0.3238 -0.4914 0.8085
vn 0.0448 -0.0702 0.9965
vn -0.3933 0.3626 0.8449
vn -0.0119 -0.0573 0.9983
vn -0.0386 -0.0286 0.9988
vn 0.0966 -0.2037 0.9742
vn -0.0841 -0.0744 0.9937
vn 0.0194 -0.0869 0.9960
vn 0.0279 -0.0776 0.9966
vn 0.0375 -0.0608 0.9974
vn 0.0514 -0.0829 0.9952
vn 0.0159 -0.0528 0.9985
vn -0.9727 -0.0274 0.2304
vn 0.0438 -0.0346 0.9984
vn -0.0383 0.0656 0.9971
vn 0.0454 -0.0291 0.9985
vn 0.0477 -0.0095 0.9988
vn 0.4342 0.3364 0.8357
vn -0.0429 -0.0484 0.9979
vn -0.0246 0.0345 0.9991
vn -0.0153 -0.0590 0.9981
vn -0.0072 -0.0544 0.9985
vn 0.0226 0.0059 0.9997
vn 0.0460 -0.0558 0.9974
vn -0.0028 -0.0101 0.9999
vn 0.0028 0.0343 0.9994
vn 0.0150 0.0283 0.9995
vn 0.0012 0.0097 1.0000
vn 0.1486 0.0120 0.9888
vn 0.2304 -0.0578 0.9714
vn 0.0262 0.0403 0.9988
vn 0.1148 -0.3059 0.9451
vn 0.3474 -0.5180 0.7816
vn 0.1141 -0.1839 0.9763
vn -0.2664 0.1879 0.9454
vn -0.0342 0.0319 0.9989
vn -0.0044 -0.0543 0.9985
vn 0.0287 0.0409 0.9988
vn 0.0334 -0.1141 0.9929
vn 0.0591 -0.2402 0.9689
vn 0.2367 -0.0600 0.9697
vn 0.0257 -0.5739 0.8185
vn -0.0426 -0.5054 0.8618
vn 0.0445 -0.0265 0.9987
vn 0.2559 -0.0583 0.9649
vn 0.0321 0.0325 0.9990
vn -0.1763 -0.4040 0.8976
vn 0.0917 -0.0223 0.9955
vn 0.1798 -0.4509 0.8743
vn -0.0016 -0.0967 0.9953
vn 0.0993 -0.2078 0.9731
vn 0.3920 -0.4583 0.7977
vn -0.1180 0.0554 0.9915
vn -0.1299 0.0924 0.9872
vn -0.0600 0.1729 0.9831
vn -0.2665 -0.8457 0.4623
vn -0.0914 -0.8020 0.5903
vn -0.0051 0.1098 0.9939
vn -0.0384 -0.0692 0.9969
vn 0.0281 0.0365 0.9989
vn 0.0276 0.0370 0.9989
vn -0.2405 0.1388 0.9607
vn 0.0534 -0.0675 0.9963
vn 0.0295 0.0251 0.9992
vn 0.3604 -0.2623 0.8952
vn 0.2643 -0.3948 0.8799
vn 0.0253 -0.0890 0.9957
vn -0.6401 0.2231 0.7352
vn 0.0719 -0.0771 0.9944
vn 0.0187 -0.0212 0.9996
vn 0.0086 -0.0429 0.9990
vn 0.0565 -0.0842 0.9948
vn 0.0083 0.0415 0.9991
vn 0.0174 0.0431 0.9989
vn 0.1726 -0.2518 0.9523
vn 0.0348 -0.0189 0.9992
usemtl None
s off
f 1//1 2//1 3//1
f 4//2 5//2 6//2
f 4//3 6//3 2//3
f 7//4 8//4 9//4
f 8//5 7//5 10//5
f 11//6 12//6 2//6
f 7//7 13//7 10//7
f 14//8 16//8 15//8
f 17//9 11//9 2//9
f 18//10 19//10 4//10
f 2//11 18//11 4//11
f 20//12 22//12 21//12
f 20//13 23//13 22//13
f 3//14 22//14 23//14
f 23//15 1//15 3//15
f 24//16 3//16 2//16
f 12//17 24//17 2//17
f 24//18 25//18 3//18
f 1//19 18//19 2//19
f 19//20 18//20 1//20
f 20//21 27//21 26//21
f 28//22 20//22 29//22
f 26//23 30//23 20//23
f 31//24 29//24 20//24
f 28//25 29//25 32//25
f 30//26 31//26 20//26
f 27//27 20//27 21//27
f 5//28 4//28 33//28
f 31//29 34//29 29//29
f 29//30 35//30 32//30
f 36//31 37//31 35//31
f 36//32 35//32 38//32
f 29//33 40//33 39//33
f 41//34 36//34 38//34
f 39//35 42//35 38//35
f 38//36 35//36 39//36
f 39//37 43//37 42//37
f 44//38 8//38 45//38
f 45//39 46//39 44//39
f 8//40 38//40 9//40
f 44//41 38//41 8//41
f 9//42 38//42 47//42
f 45//43 8//43 48//43
f 45//44 48//44 46//44
f 10//45 48//45 8//45
f 49//46 48//46 10//46
f 49//47 50//47 48//47
f 51//48 48//48 50//48
f 16//49 52//49 53//49
f 10//50 13//50 54//50
f 55//51 56//51 51//51
f 52//52 16//52 57//52
f 58//53 14//53 15//53
f 16//54 59//54 57//54
f 59//55 16//55 60//55
f 58//56 15//56 61//56
f 62//57 63//57 64//57
f 62//58 59//58 65//58
f 62//59 65//59 66//59
f 62//60 66//60 67//60
f 62//61 67//61 68//61
f 69//62 70//62 67//62
f 69//63 67//63 71//63
f 72//64 68//64 67//64
f 73//65 74//65 72//65
f 72//66 67//66 75//66
f 72//67 75//67 76//67
f 77//68 78//68 79//68
f 73//69 80//69 74//69
f 73//70 78//70 80//70
f 78//71 81//71 80//71
f 80//72 81//72 82//72
f 77//73 83//73 81//73
f 84//74 82//74 81//74
f 85//75 84//75 81//75
f 86//76 85//76 81//76
f 87//77 85//77 86//77
f 85//78 87//78 88//78
f 88//79 87//79 89//79
f 87//80 90//80 89//80
f 81//81 91//81 92//81
f 93//82 40//82 29//82
f 55//83 94//83 56//83
f 95//84 94//84 55//84
f 61//85 56//85 96//85
f 56//86 61//86 15//86
f 60//87 98//87 97//87
f 99//88 81//88 83//88
f 100//89 87//89 101//89
f 101//90 87//90 86//90
f 102//91 89//91 90//91
f 21//92 3//92 25//92
f 21//93 22//93 3//93
f 56//94 16//94 48//94
f 67//95 66//95 71//95
f 78//96 77//96 81//96
f 63//97 59//97 64//97
f 16//98 56//98 15//98
f 29//99 34//99 93//99
f 59//100 63//100 57//100
f 47//101 38//101 43//101
f 38//102 42//102 43//102
f 96//103 98//103 58//103
f 98//104 14//104 58//104
f 87//105 100//105 103//105
f 104//106 43//106 39//106
f 17//107 2//107 6//107
f 16//108 53//108 48//108
f 16//109 14//109 60//109
f 92//110 105//110 81//110
f 106//111 81//111 105//111
f 96//112 58//112 61//112
f 62//113 64//113 59//113
f 81//114 99//114 91//114
f 41//115 38//115 44//115
f 32//116 35//116 37//116
f 56//117 48//117 51//117
f 98//118 60//118 14//118
f 73//119 72//119 76//119
f 107//120 65//120 59//120
f 59//121 60//121 107//121
f 107//122 60//122 108//122
f 81//123 106//123 109//123
f 81//124 109//124 86//124
f 29//125 39//125 35//125
f 97//126 108//126 60//126
