# Blender v2.79 (sub 0) OBJ File: ''
# www.blender.org
mtllib my_crack_surf__56.mtl
o my_crack_surf__56
v 129.785995 -1.088712 135.876007
v 130.274002 -10.437820 120.959000
v 146.425003 -11.762719 119.565002
v 139.158997 -15.301418 113.223999
v 144.005005 97.337662 213.883011
v 107.473999 137.982956 242.424011
v 102.855003 77.635361 213.527008
v 77.023697 101.170959 233.554016
v 30.761600 125.970955 257.740021
v 13.885900 161.223953 265.540039
v -2.530200 145.087952 266.721039
v -0.167387 175.730957 268.519043
v 25.055799 174.997955 265.526031
v -98.508003 85.539253 269.412994
v -128.358994 112.481956 270.219025
v -81.274696 156.942947 272.657043
v 153.223999 -4.593281 131.119995
v 129.347000 4.926456 143.658005
v 144.014008 35.651569 175.639999
v 153.270996 40.757469 178.171997
v 163.740005 48.611370 183.880020
v 158.565002 71.256569 198.395020
v 164.966995 30.454971 169.981003
v 162.656006 15.951874 157.227997
v 163.923004 20.907274 161.740005
v 129.195999 19.702473 159.656006
v 160.768005 9.414735 149.432007
v 112.570999 66.375366 204.053009
v 132.921997 113.447960 223.816010
v 88.770897 152.379959 252.560028
v 66.367401 128.600952 248.422012
v 54.254799 141.945953 255.750031
v 40.071701 137.797958 257.775024
v 57.804100 116.602959 246.003021
v 69.582001 162.697952 257.881042
v -41.447399 123.702957 268.351044
v 7.233110 130.521957 263.965027
v -30.151100 174.143951 271.120026
v -49.149399 170.836960 271.899017
v -65.398102 165.337952 272.747040
v -56.851799 168.755951 272.569031
v -137.341003 95.659058 267.992035
v -145.367996 85.071854 267.597992
v -149.014999 74.466255 267.588013
v -113.421997 65.331154 268.088013
v -132.427002 40.130657 264.502991
v -128.091003 23.971157 263.412994
v -142.035004 -5.696793 261.238007
v -155.740997 24.606056 264.136993
v -130.875000 13.105257 262.964996
v 161.768997 12.456776 153.356003
v -71.899597 162.351959 272.638031
v -121.012001 121.892952 270.821045
v -105.745003 136.651947 271.547028
v 118.528999 43.689671 184.716995
v 36.644699 173.223953 263.990021
v -155.188995 13.411857 263.520996
v -59.252800 115.824951 269.194031
v 54.668800 169.178955 261.556030
v -153.220993 62.363258 266.324005
v -155.080994 54.747158 265.644989
v -129.093002 -10.763243 260.989990
v 152.832001 82.058372 205.227020
v 116.240997 55.292168 196.329010
v 65.864601 112.803963 242.128021
v -148.720993 0.277262 261.496002
v 124.867996 121.600960 230.004013
v 130.240005 -17.404617 108.257004
vn -0.0237 -0.8474 0.5304
vn -0.0265 -0.8597 0.5101
vn 0.2009 -0.4355 0.8775
vn 0.2724 -0.4324 0.8595
vn 0.1916 -0.1237 0.9736
vn 0.1147 -0.0920 0.9891
vn -0.0115 -0.0426 0.9990
vn -0.0466 -0.8363 0.5463
vn 0.0966 -0.7849 0.6121
vn 0.2731 -0.7766 0.5677
vn -0.0397 -0.5265 0.8492
vn 0.0025 -0.5392 0.8422
vn 0.0836 -0.5603 0.8241
vn -0.0213 -0.6701 0.7419
vn -0.0383 -0.7611 0.6475
vn 0.0411 -0.6554 0.7541
vn -0.0197 -0.7346 0.6783
vn -0.0186 -0.6991 0.7148
vn 0.2326 -0.5008 0.8337
vn 0.3592 -0.2981 0.8844
vn 0.2459 -0.3863 0.8890
vn 0.2255 -0.3221 0.9195
vn 0.3120 -0.2483 0.9171
vn 0.1164 -0.2757 0.9542
vn 0.1684 -0.1354 0.9764
vn 0.1053 -0.1163 0.9876
vn 0.0919 -0.1142 0.9892
vn 0.1029 -0.0775 0.9917
vn 0.0524 -0.0664 0.9964
vn 0.0733 -0.0630 0.9953
vn 0.1963 -0.4454 0.8735
vn -0.0386 -0.0079 0.9992
vn -0.0259 -0.0463 0.9986
vn -0.0388 0.0124 0.9992
vn -0.0421 -0.1096 0.9931
vn 0.0241 -0.0844 0.9961
vn 0.0247 -0.0607 0.9979
vn -0.1484 -0.0028 0.9889
vn -0.9081 -0.1853 0.3754
vn -0.0887 0.1571 0.9836
vn -0.0321 -0.0159 0.9994
vn 0.0216 -0.7176 0.6961
vn 0.1554 -0.1689 0.9733
vn 0.1167 -0.0936 0.9887
vn 0.1002 -0.0497 0.9937
vn 0.0498 -0.0573 0.9971
vn 0.1980 -0.3276 0.9238
vn 0.1477 -0.2084 0.9668
vn 0.2512 -0.2807 0.9263
vn -0.0061 -0.0873 0.9962
vn -0.0175 -0.0978 0.9950
vn -0.0136 -0.0835 0.9964
vn -0.6364 -0.6243 0.4530
vn 0.2534 -0.0132 0.9673
vn 0.0682 -0.0474 0.9965
vn 0.0383 -0.0831 0.9958
vn 0.2730 -0.4876 0.8293
vn 0.2454 -0.5108 0.8239
vn 0.3015 -0.3612 0.8824
vn 0.2582 -0.3647 0.8946
vn 0.0327 -0.0892 0.9955
vn 0.0020 -0.7946 0.6071
vn -0.1697 -0.2312 0.9580
vn -0.0727 -0.0865 0.9936
vn 0.0220 -0.6068 0.7946
vn 0.0179 -0.0504 0.9986
vn 0.0306 -0.7040 0.7095
vn 0.1764 -0.1264 0.9762
vn -0.0089 -0.6101 0.7922
vn 0.1968 -0.3805 0.9036
vn 0.0038 0.0692 0.9976
vn -0.0610 -0.8751 0.4801
vn -0.0620 -0.0984 0.9932
vn 0.0847 -0.2090 0.9742
usemtl None
s off
f 1//1 2//1 3//1
f 2//2 4//2 3//2
f 5//3 6//3 7//3
f 8//4 7//4 6//4
f 9//5 10//5 11//5
f 12//6 10//6 13//6
f 14//7 16//7 15//7
f 3//8 17//8 18//8
f 3//9 18//9 1//9
f 19//10 20//10 21//10
f 19//11 22//11 5//11
f 19//12 21//12 22//12
f 19//13 23//13 20//13
f 24//14 25//14 26//14
f 24//15 26//15 27//15
f 19//16 25//16 23//16
f 18//17 27//17 26//17
f 19//18 26//18 25//18
f 28//19 5//19 7//19
f 29//20 6//20 5//20
f 8//21 30//21 31//21
f 32//22 33//22 34//22
f 9//23 34//23 33//23
f 30//24 35//24 31//24
f 9//25 33//25 10//25
f 36//26 37//26 11//26
f 10//27 12//27 38//27
f 36//28 10//28 38//28
f 38//29 39//29 36//29
f 39//30 40//30 36//30
f 39//31 41//31 40//31
f 42//32 43//32 14//32
f 44//33 45//33 14//33
f 14//34 43//34 44//34
f 44//35 46//35 45//35
f 47//36 49//36 48//36
f 47//37 46//37 49//37
f 50//38 47//38 48//38
f 24//39 27//39 51//39
f 52//40 16//40 40//40
f 53//41 16//41 54//41
f 26//42 19//42 55//42
f 56//43 10//43 32//43
f 56//44 13//44 10//44
f 57//45 48//45 49//45
f 16//46 14//46 58//46
f 32//47 34//47 31//47
f 35//48 59//48 32//48
f 32//49 31//49 35//49
f 60//50 61//50 46//50
f 46//51 44//51 60//51
f 48//52 62//52 50//52
f 22//53 63//53 5//53
f 9//54 11//54 37//54
f 16//55 58//55 36//55
f 16//56 36//56 40//56
f 19//57 28//57 64//57
f 28//58 19//58 5//58
f 65//59 8//59 31//59
f 34//60 65//60 31//60
f 53//61 15//61 16//61
f 17//62 27//62 18//62
f 66//63 48//63 57//63
f 46//64 47//64 45//64
f 21//65 20//65 23//65
f 49//66 46//66 61//66
f 55//67 19//67 64//67
f 32//68 10//68 33//68
f 29//69 67//69 6//69
f 8//70 6//70 30//70
f 36//71 11//71 10//71
f 68//72 4//72 2//72
f 14//73 15//73 42//73
f 56//74 32//74 59//74
