# Blender v2.79 (sub 0) OBJ File: ''
# www.blender.org
mtllib my_crack_surf__158.mtl
o my_crack_surf__158
v 35.324402 150.449951 258.958038
v 13.896100 161.206955 265.405029
v 3.743970 147.173950 266.253021
v 22.160999 162.051956 263.754028
v -13.756700 162.256958 268.545044
v -89.410202 -167.972046 261.958984
v -111.109001 -152.283051 261.997955
v -71.201202 -177.153046 262.282959
v 169.078995 14.852675 153.468002
v 166.367996 4.723487 140.261002
v 164.852997 1.231748 135.643005
v 124.742996 60.526970 197.258011
v 118.454002 43.961868 184.703003
v 116.240997 55.292168 196.329010
v 149.733002 -99.597542 250.505981
v 97.661697 -127.329041 256.408966
v 136.798004 -77.713638 246.804977
v 78.983803 -120.964035 256.881958
v 101.063004 -106.258041 254.459991
v 93.635101 -92.323639 253.544983
v 143.828003 -107.018036 251.719986
v 156.436996 -88.276237 248.760986
v 163.714005 -69.202736 245.646988
v 168.322998 36.061874 173.242996
v 143.998993 36.051373 175.177994
v 169.964005 19.446672 158.546005
v 171.363998 27.883074 167.181000
v 163.276001 -1.642221 130.522003
v 147.639999 -10.747619 119.143997
v 160.028000 -6.607430 123.621002
v 129.294998 5.463787 143.020996
v 138.514999 -15.413638 235.199997
v 128.759003 -3.935588 232.770996
v 126.761002 -18.299238 236.649994
v 156.011002 50.902969 184.761017
v 112.474998 66.664268 203.799011
v 88.613098 112.866959 235.305008
v 161.304993 87.009270 207.546021
v 130.274002 -9.257529 119.975998
v 173.039001 42.062370 178.591003
v 173.000000 51.662468 185.164017
v 129.147003 20.204372 159.061005
v 155.768997 96.816360 213.403015
v 101.987999 78.431160 213.031021
v 75.658302 102.421959 232.758011
v 164.707993 77.355568 202.001022
v 145.315002 110.125961 221.101013
v 151.031006 104.761963 217.474014
v 149.341995 -14.949918 108.510002
v 146.037994 -16.459017 105.327003
v 129.046005 -22.415615 94.866203
v 130.266998 -16.730118 105.963997
v 154.824997 -11.570619 115.336998
v 73.366699 146.387955 250.957031
v 102.526001 135.480957 241.606018
v 97.418900 160.407959 251.936035
v 110.130997 149.276947 245.827026
v 71.757599 174.645950 259.464020
v 51.647701 127.488960 247.959015
v 50.634899 119.305962 245.309021
v 37.814701 123.726959 251.230011
v 64.055000 114.525963 241.761017
v 66.067596 128.735947 247.344009
v 52.392899 133.668961 249.884018
v 22.923201 127.243958 257.710022
v 54.144901 148.034958 254.436035
v 90.293198 165.150955 254.335037
v 7.233110 130.521957 263.965027
v -41.854401 123.699951 267.749023
v 42.675598 184.219955 264.958038
v 56.828701 180.749954 262.659027
v -54.249401 147.237961 270.743042
v 33.720299 185.236954 266.128021
v -58.970798 116.125954 268.412018
v -19.275299 185.971954 271.719025
v -45.998199 184.054947 273.587036
v -28.431000 185.996948 272.705017
v 14.447700 184.556961 268.237030
v 27.627100 184.528961 266.683044
v -111.707001 151.852951 273.822021
v -88.399597 169.154953 274.145020
v -99.985199 162.458954 274.232025
v -156.539001 108.427956 270.918030
v -163.263000 99.687851 270.401031
v -113.192001 65.724251 268.144989
v -144.503006 -14.343443 261.597992
v -127.899002 24.641457 264.187988
v -188.720001 48.388557 267.514008
v -130.757004 13.805957 263.256989
v -129.240997 -8.052443 261.401001
v -127.958000 -30.287542 260.664001
v -189.005997 -33.611641 263.356995
v -187.490005 0.299206 264.488007
v -188.100998 -8.243563 264.033997
v -123.099998 -41.407841 260.792999
v -187.451004 -43.169243 263.213989
v -178.429001 -72.126549 262.757996
v -127.843002 -133.169052 262.347961
v -92.459099 -113.979042 261.061981
v -118.258003 -52.459442 262.135010
v -108.404999 -74.428947 262.645996
v -113.346001 -63.434143 262.838989
v -82.462502 -119.451042 260.619965
v -82.023598 -102.782043 261.324982
v -42.049301 -124.596046 260.465973
v 24.629900 -126.712036 257.281982
v 17.381500 -159.310043 258.788971
v 0.000000 -131.500046 258.823975
v 39.310902 -139.487045 257.245972
v 49.051998 -122.008041 257.015961
v 35.849098 -184.401047 260.792969
v 6.863250 -184.765045 260.902985
v 52.162701 -180.688049 260.499969
v 71.296402 -107.297035 256.947968
v 122.712997 -47.163239 243.185989
v 124.887001 -129.432053 255.261978
v 134.569000 -117.489037 253.203979
v 144.649002 -60.239738 243.661987
v 168.126007 -44.953938 240.949005
v 131.089005 9.041703 228.281006
v 139.449005 6.228433 229.014008
v 164.516006 -6.770058 230.960999
v 168.164993 -20.103739 234.507996
v 168.681000 -28.354738 237.018997
v 160.251999 3.495163 228.429001
v 137.341995 13.212063 226.126999
v 124.974998 28.521063 216.731995
v 147.912003 11.952763 226.356003
v 156.412994 10.248763 226.582001
v -168.716003 -88.810745 262.556000
v -165.285004 -94.330345 262.497955
v 153.158997 -94.441437 249.614990
v 152.787003 15.166364 224.496002
v 2.597020 184.169952 268.957031
v -21.253401 -184.904053 261.571960
v -34.009499 -184.459045 261.763977
v -56.314201 -182.116043 261.948975
v -64.055298 -179.893051 262.075958
v 100.125000 -157.167053 258.429962
v 148.007996 18.829865 222.496994
v 170.822998 24.166073 163.735001
v 88.700897 -165.439041 258.981964
v 76.362099 -171.599045 259.710968
v -121.207001 106.578957 270.154022
v 116.922997 142.657959 241.872025
v -76.645798 175.126953 274.004028
v -70.419601 177.653961 273.951019
v -154.979004 -106.760048 262.409973
v -142.886002 -119.379044 262.313965
v -145.352997 119.715958 272.248016
v -151.755005 113.951958 271.301025
v 158.910004 91.490669 210.187012
v 25.736099 -186.042053 260.621979
v -187.358002 9.769707 265.115997
v 135.884003 121.829964 228.148010
v -98.221397 85.844452 268.618011
v -7.058920 185.306961 270.172028
v 130.509995 129.700974 232.871017
v -21.092501 -128.025040 260.038971
v 171.660004 61.600670 192.028015
v 133.727997 125.560959 230.289017
v -189.675995 -19.987244 263.612000
v 63.991100 -176.971039 259.929962
v 134.593002 26.135464 218.492004
v -39.918900 185.102951 273.396027
v -183.063995 -59.790142 262.967987
v -173.520996 83.436356 269.447998
v -180.623993 69.441154 268.576996
vn 0.2346 -0.1114 0.9657
vn 0.2092 -0.1614 0.9645
vn 0.1158 0.5203 0.8461
vn -0.0626 -0.0890 0.9941
vn -0.0692 -0.7847 0.6160
vn 0.3225 -0.6465 0.6914
vn 0.0174 0.1767 0.9841
vn 0.0484 0.0911 0.9947
vn 0.0451 0.1262 0.9910
vn -0.0096 0.1647 0.9863
vn -0.0125 0.1596 0.9871
vn 0.0600 -0.6580 0.7506
vn -0.3579 -0.6383 0.6816
vn 0.0738 -0.8257 0.5593
vn 0.1972 -0.8796 0.4329
vn 0.0213 -0.8195 0.5727
vn 0.0301 -0.7976 0.6024
vn 0.0571 0.2529 0.9658
vn 0.1148 -0.6273 0.7702
vn 0.1097 -0.6000 0.7924
vn 0.2214 -0.4688 0.8551
vn 0.1619 -0.5435 0.8236
vn 0.1379 -0.5183 0.8440
vn -0.0466 -0.8427 0.5363
vn 0.0578 -0.6892 0.7223
vn 0.0161 -0.5513 0.8342
vn 0.0057 -0.5649 0.8251
vn -0.0039 -0.7363 0.6766
vn 0.1879 -0.4233 0.8863
vn 0.2343 -0.4622 0.8553
vn 0.2118 -0.4715 0.8561
vn -0.0963 -0.5211 0.8481
vn 0.3168 -0.2761 0.9074
vn -0.0628 -0.9316 0.3581
vn 0.0336 -0.8910 0.4528
vn 0.0342 -0.8819 0.4703
vn 0.0954 -0.9205 0.3790
vn 0.1619 -0.3561 0.9203
vn 0.1327 -0.3561 0.9250
vn 0.1655 -0.3484 0.9226
vn 0.1242 -0.2795 0.9521
vn 0.3008 -0.3273 0.8957
vn 0.1090 -0.3768 0.9198
vn 0.0676 -0.3149 0.9467
vn 0.2989 -0.3165 0.9003
vn 0.0942 -0.2369 0.9670
vn 0.0668 -0.3041 0.9503
vn 0.3091 -0.3327 0.8909
vn 0.1429 -0.3148 0.9384
vn 0.3079 -0.3213 0.8955
vn 0.2105 -0.1643 0.9637
vn 0.1480 -0.2774 0.9493
vn 0.0710 -0.3632 0.9290
vn 0.1863 -0.3001 0.9356
vn 0.2390 -0.1791 0.9544
vn 0.3603 -0.0525 0.9313
vn 0.0924 -0.1165 0.9889
vn 0.1429 -0.2353 0.9614
vn 0.1281 -0.1716 0.9768
vn 0.0810 -0.2995 0.9506
vn 0.0768 -0.0859 0.9933
vn 0.0772 0.0044 0.9970
vn 0.1063 -0.1426 0.9840
vn 0.1106 -0.1556 0.9816
vn 0.0765 -0.0860 0.9933
vn 0.0946 -0.1104 0.9894
vn 0.0761 -0.0937 0.9927
vn 0.0944 -0.4505 0.8878
vn 0.1310 -0.1015 0.9862
vn 0.1153 -0.1559 0.9810
vn 0.1074 -0.1541 0.9822
vn 0.0817 -0.1285 0.9883
vn 0.0032 -0.0615 0.9981
vn 0.0246 -0.0767 0.9968
vn 0.1185 -0.1160 0.9862
vn 0.0464 -0.0813 0.9956
vn 0.0259 -0.0316 0.9992
vn 0.0447 -0.0121 0.9989
vn -0.5938 -0.0003 0.8046
vn 0.0549 -0.0357 0.9979
vn 0.0378 -0.0088 0.9992
vn 0.0377 -0.0040 0.9993
vn 0.0269 0.0155 0.9995
vn 0.0373 -0.0018 0.9993
vn -0.7673 -0.3314 0.5491
vn -0.9121 -0.4095 -0.0203
vn 0.0402 -0.0072 0.9992
vn 0.0207 -0.0428 0.9989
vn -0.0016 -0.0422 0.9991
vn 0.0124 -0.0350 0.9993
vn 0.0123 0.0312 0.9994
vn 0.0559 0.0337 0.9979
vn 0.0357 0.0382 0.9986
vn 0.0094 0.0079 0.9999
vn -0.0011 0.0788 0.9969
vn 0.0028 0.0816 0.9967
vn -0.0000 0.0787 0.9969
vn 0.0046 -0.0023 1.0000
vn 0.0536 0.0834 0.9951
vn 0.1121 0.0582 0.9920
vn 0.0986 0.1618 0.9819
vn 0.1587 0.0655 0.9851
vn 0.0517 0.1288 0.9903
vn 0.0666 0.1476 0.9868
vn -0.0159 0.1839 0.9828
vn 0.0638 0.0845 0.9944
vn 0.1017 0.2061 0.9732
vn 0.0729 0.1946 0.9782
vn -0.0118 0.1923 0.9813
vn 0.0257 0.3227 0.9461
vn 0.0656 0.2733 0.9597
vn 0.0688 0.2944 0.9532
vn -0.0384 0.2314 0.9721
vn 0.0685 0.2656 0.9616
vn -0.0364 0.5012 0.8646
vn 0.0525 0.3950 0.9172
vn 0.1189 0.2681 0.9560
vn 0.0341 0.2967 0.9544
vn 0.0471 0.2883 0.9564
vn -0.0405 -0.0355 0.9985
vn 0.2500 0.0012 0.9682
vn 0.0618 0.4281 0.9016
vn 0.0654 -0.1733 0.9827
vn 0.0345 0.0119 0.9993
vn 0.0236 0.0420 0.9988
vn 0.0166 0.0448 0.9989
vn -0.0209 -0.1294 0.9914
vn 0.0475 0.0714 0.9963
vn 0.0102 0.4892 0.8721
vn -0.9772 -0.0493 0.2067
vn 0.0287 0.0606 0.9977
vn -0.0007 0.0675 0.9977
vn 0.0403 -0.0807 0.9959
vn 0.0461 -0.0903 0.9949
vn 0.0424 0.0301 0.9986
vn 0.1687 -0.3722 0.9127
vn -0.0053 0.0340 0.9994
vn -0.0756 -0.0800 0.9939
vn 0.0381 -0.0886 0.9953
vn -0.3511 0.2414 0.9047
vn -0.0043 -0.7111 0.7031
vn 0.0308 -0.7268 0.6862
vn 0.2330 -0.3983 0.8872
vn 0.1347 -0.8850 0.4456
vn 0.0216 0.1883 0.9819
vn -0.1012 -0.6164 0.7809
vn 0.0055 -0.1370 0.9906
vn 0.0480 -0.0602 0.9970
vn 0.2044 -0.3774 0.9032
vn 0.7414 0.2147 0.6358
vn 0.2180 -0.3612 0.9067
vn 0.0336 -0.0367 0.9988
vn 0.1079 -0.1362 0.9848
vn -0.0238 -0.0268 0.9994
vn 0.1913 -0.4167 0.8887
vn 0.1180 -0.1236 0.9853
vn 0.2757 -0.3009 0.9129
vn 0.2105 -0.3832 0.8994
vn 0.0602 0.0167 0.9980
vn 0.0244 0.0250 0.9994
vn 0.0018 -0.0618 0.9981
vn -0.0162 -0.0901 0.9958
vn 0.0077 0.0303 0.9995
vn 0.1973 -0.4563 0.8677
vn -0.0053 -0.7411 0.6714
vn 0.0059 -0.5678 0.8232
vn 0.1977 -0.3995 0.8952
vn 0.1950 -0.4054 0.8931
vn 0.0797 0.2708 0.9593
vn -0.0935 -0.0232 0.9953
vn 0.0372 -0.0852 0.9957
vn 0.1119 0.1244 0.9859
vn 0.2079 -0.4880 0.8477
vn 0.0273 -0.0438 0.9987
vn 0.0443 -0.0667 0.9968
vn -0.0104 0.0646 0.9979
vn 0.0212 0.0853 0.9961
vn -0.0013 0.0750 0.9972
vn 0.0225 0.5121 0.8586
vn -0.0332 0.5031 0.8636
vn 0.0393 0.4886 0.8716
vn 0.0264 0.3887 0.9210
vn 0.0469 -0.0801 0.9957
vn 0.0537 -0.0909 0.9944
vn -0.2085 0.0273 0.9776
vn 0.0187 0.0242 0.9995
vn 0.0799 -0.2897 0.9538
vn -0.0204 -0.5412 0.8407
vn 0.0669 -0.0359 0.9971
vn -0.0262 -0.0913 0.9955
vn -0.0211 -0.0242 0.9995
vn 0.0131 0.0058 0.9999
vn -0.0074 -0.9005 0.4347
vn 0.0199 -0.0096 0.9998
vn 0.0218 -0.0723 0.9971
vn 0.0212 -0.0728 0.9971
vn 0.0808 0.0493 0.9955
vn 0.0064 -0.0554 0.9984
vn 0.0303 -0.0620 0.9976
usemtl None
s off
f 1//1 2//1 3//1
f 4//2 2//2 1//2
f 4//3 5//3 2//3
f 6//4 8//4 7//4
f 9//5 11//5 10//5
f 12//6 14//6 13//6
f 15//7 17//7 16//7
f 18//8 19//8 20//8
f 21//9 15//9 16//9
f 22//10 23//10 17//10
f 22//11 17//11 15//11
f 24//12 25//12 26//12
f 24//13 26//13 27//13
f 28//14 29//14 30//14
f 28//15 11//15 29//15
f 31//16 29//16 11//16
f 31//17 11//17 9//17
f 32//18 33//18 34//18
f 12//19 13//19 35//19
f 25//20 35//20 13//20
f 12//21 37//21 36//21
f 38//22 12//22 35//22
f 12//23 38//23 37//23
f 39//24 29//24 31//24
f 24//25 40//25 25//25
f 40//26 35//26 25//26
f 41//27 35//27 40//27
f 9//28 42//28 31//28
f 43//29 37//29 38//29
f 36//30 37//30 44//30
f 44//31 37//31 45//31
f 35//32 46//32 38//32
f 47//33 43//33 48//33
f 49//34 29//34 39//34
f 50//35 52//35 51//35
f 50//36 39//36 52//36
f 49//37 53//37 29//37
f 54//38 37//38 55//38
f 56//39 55//39 57//39
f 54//40 55//40 56//40
f 56//41 58//41 54//41
f 59//42 61//42 60//42
f 60//43 62//43 63//43
f 60//44 63//44 59//44
f 59//45 64//45 61//45
f 64//46 63//46 54//46
f 64//47 59//47 63//47
f 64//48 65//48 61//48
f 54//49 66//49 64//49
f 64//50 66//50 65//50
f 1//51 65//51 66//51
f 54//52 58//52 66//52
f 56//53 67//53 58//53
f 1//54 66//54 58//54
f 65//55 1//55 3//55
f 3//56 68//56 65//56
f 3//57 69//57 68//57
f 4//58 1//58 58//58
f 4//59 58//59 70//59
f 71//60 70//60 58//60
f 72//61 69//61 3//61
f 72//62 3//62 2//62
f 72//63 2//63 5//63
f 4//64 70//64 73//64
f 72//65 74//65 69//65
f 72//66 5//66 75//66
f 76//67 72//67 75//67
f 76//68 75//68 77//68
f 4//69 75//69 5//69
f 78//70 4//70 79//70
f 73//71 79//71 4//71
f 80//72 81//72 82//72
f 83//73 84//73 85//73
f 86//74 87//74 88//74
f 89//75 87//75 86//75
f 86//76 90//76 89//76
f 91//77 90//77 86//77
f 91//78 86//78 92//78
f 93//79 94//79 92//79
f 93//80 92//80 86//80
f 95//81 92//81 96//81
f 95//82 96//82 97//82
f 98//83 95//83 97//83
f 99//84 100//84 98//84
f 99//85 101//85 100//85
f 102//86 100//86 101//86
f 103//87 99//87 98//87
f 99//88 103//88 104//88
f 105//89 104//89 103//89
f 101//90 99//90 104//90
f 103//91 7//91 8//91
f 106//92 108//92 107//92
f 109//93 106//93 107//93
f 106//94 109//94 110//94
f 111//95 109//95 107//95
f 111//96 107//96 112//96
f 111//97 113//97 109//97
f 110//98 18//98 114//98
f 16//99 19//99 18//99
f 114//100 18//100 20//100
f 17//101 115//101 20//101
f 17//102 19//102 16//102
f 116//103 117//103 16//103
f 118//104 115//104 17//104
f 118//105 17//105 23//105
f 16//106 117//106 21//106
f 118//107 34//107 115//107
f 118//108 32//108 34//108
f 23//109 119//109 118//109
f 120//110 33//110 121//110
f 32//111 123//111 122//111
f 32//112 124//112 123//112
f 118//113 119//113 124//113
f 32//114 122//114 125//114
f 126//115 127//115 120//115
f 126//116 120//116 121//116
f 32//117 128//117 121//117
f 129//118 128//118 32//118
f 32//119 125//119 129//119
f 130//120 131//120 97//120
f 132//121 22//121 15//121
f 133//122 128//122 129//122
f 134//123 4//123 78//123
f 7//124 103//124 98//124
f 108//125 135//125 112//125
f 135//126 108//126 136//126
f 137//127 8//127 138//127
f 116//128 16//128 139//128
f 133//129 140//129 128//129
f 141//130 27//130 26//130
f 142//131 16//131 143//131
f 142//132 139//132 16//132
f 144//133 74//133 72//133
f 144//134 72//134 80//134
f 95//135 91//135 92//135
f 145//136 57//136 55//136
f 81//137 147//137 146//137
f 98//138 148//138 149//138
f 150//139 144//139 80//139
f 83//140 150//140 151//140
f 26//141 25//141 42//141
f 42//142 25//142 13//142
f 43//143 38//143 152//143
f 53//144 30//144 29//144
f 118//145 124//145 32//145
f 27//146 40//146 24//146
f 153//147 111//147 112//147
f 88//148 154//148 86//148
f 43//149 55//149 37//149
f 155//150 43//150 47//150
f 155//151 55//151 43//151
f 156//152 74//152 144//152
f 134//153 157//153 4//153
f 148//154 98//154 131//154
f 55//155 158//155 145//155
f 157//156 75//156 4//156
f 37//157 54//157 63//157
f 37//158 63//158 62//158
f 136//159 108//159 159//159
f 159//160 105//160 136//160
f 137//161 136//161 8//161
f 87//162 85//162 84//162
f 103//163 8//163 105//163
f 45//164 37//164 62//164
f 9//165 26//165 42//165
f 160//166 35//166 41//166
f 55//167 155//167 161//167
f 55//168 161//168 158//168
f 33//169 32//169 121//169
f 94//170 162//170 92//170
f 76//171 147//171 72//171
f 17//172 20//172 19//172
f 36//173 14//173 12//173
f 144//174 85//174 156//174
f 93//175 86//175 154//175
f 109//176 163//176 143//176
f 109//177 113//177 163//177
f 109//178 143//178 16//178
f 164//179 126//179 140//179
f 164//180 127//180 126//180
f 140//181 126//181 128//181
f 126//182 121//182 128//182
f 147//183 80//183 72//183
f 147//184 81//184 80//184
f 95//185 98//185 100//185
f 136//186 105//186 8//186
f 165//187 76//187 77//187
f 46//188 35//188 160//188
f 144//189 150//189 85//189
f 83//190 85//190 150//190
f 98//191 97//191 131//191
f 16//192 110//192 109//192
f 49//193 39//193 50//193
f 166//194 97//194 96//194
f 87//195 84//195 167//195
f 87//196 167//196 168//196
f 112//197 107//197 108//197
f 110//198 16//198 18//198
f 168//199 88//199 87//199
