# Blender v2.79 (sub 0) OBJ File: ''
# www.blender.org
mtllib my_crack_surf__118.mtl
o my_crack_surf__118
v 158.733002 -3.425591 131.259003
v 151.953995 -12.117519 118.057999
v 130.274002 -9.658290 120.306999
v 139.003998 -14.590318 113.092003
v 135.742004 114.769958 225.157013
v 124.742996 60.526569 197.312012
v 111.426003 69.831367 205.926010
v 88.613701 112.865959 235.308014
v 66.107803 128.711960 247.503021
v 64.005203 114.555962 241.564011
v 3.743970 147.173950 266.253021
v 22.118700 162.099960 264.013031
v 27.856300 181.056961 266.104034
v -14.823200 182.051956 270.668030
v -82.461700 -119.455048 260.532959
v -121.394997 -132.619049 261.812958
v -102.931999 -125.190048 261.183960
v 145.977005 13.331175 151.764999
v 164.100998 5.436357 143.052002
v 161.412003 0.688559 136.936996
v 118.452003 43.970669 184.703003
v 116.240997 55.292168 196.329010
v 39.308498 -139.489044 257.073975
v 46.057800 -175.823044 259.342957
v 66.745201 -166.492050 259.143982
v 168.365997 31.294971 170.104996
v 144.014008 35.993172 175.240997
v 131.931000 -102.492035 250.751984
v 104.789001 -110.061035 255.107986
v 127.814003 -107.555038 251.988983
v 137.466995 9.454766 147.459000
v 129.307007 5.341967 143.166000
v 169.822998 51.412369 185.015015
v 129.147995 20.189873 159.078995
v 166.690002 13.978175 153.718994
v 169.557999 41.260670 177.819000
v 169.253006 47.664669 182.434021
v 150.839996 94.266159 211.979019
v 156.998001 85.444572 206.352020
v 156.516006 -7.494081 125.241997
v 75.548698 102.521965 232.694016
v 160.813995 76.798569 201.116013
v 130.263000 -16.952217 106.115997
v 139.102997 -18.353317 103.987999
v 129.425003 -20.594416 98.096802
v 162.001999 71.426071 197.908020
v 52.513199 133.596954 250.360016
v 94.808296 156.854950 253.064026
v 50.706600 119.262962 245.593018
v 38.130199 123.537964 252.479019
v 28.566900 130.256958 258.096039
v 50.057400 177.065948 263.699036
v 83.769699 163.439957 256.436035
v 69.218803 170.737961 260.119019
v 23.858299 127.251953 259.092041
v 5.476700 138.859955 265.033020
v -41.763100 123.699951 267.884033
v 7.233110 130.521957 263.965027
v 34.961700 180.231949 265.440033
v -26.923401 181.992950 271.794037
v -59.033798 116.057953 268.587036
v -104.051003 153.129959 273.137024
v -66.512299 172.937958 272.958038
v -49.992802 177.826950 272.758026
v -105.225998 100.684952 270.049042
v -98.267700 85.795052 268.747009
v -82.373596 166.403961 272.949036
v -119.694000 136.125961 271.620026
v -131.966003 40.914459 265.584991
v -113.192001 65.724251 268.144989
v -140.910004 115.660957 270.153046
v -165.182007 86.316551 269.063995
v -127.900002 24.629757 264.074005
v -130.757996 13.789757 263.097992
v -174.399994 68.366753 268.686005
v -180.514999 47.382458 267.291992
v -168.987000 -26.715342 262.335999
v -129.238007 -8.063523 261.204987
v -183.819000 -1.868163 264.019989
v -182.750000 32.929157 266.243988
v -127.956001 -30.297142 260.493988
v -123.099998 -41.410042 260.752991
v -183.862000 -26.268442 262.735992
v -179.328003 -48.709141 262.433990
v -163.550003 -88.679749 261.919006
v -113.346001 -63.433243 262.875000
v -108.411003 -74.419144 262.669006
v -82.017700 -102.787048 261.323975
v -42.043301 -124.598045 260.465973
v -106.064003 -145.136047 262.240967
v -97.094101 -155.719040 262.509979
v -64.335899 -171.576050 261.079956
v -23.601700 -143.143051 260.646973
v 0.000000 -131.500046 258.829956
v -32.425301 -179.574051 260.771973
v 24.629101 -126.713036 257.237976
v 49.064701 -122.003036 256.745972
v 22.501101 -178.310043 259.801971
v 2.141080 -177.090042 259.872955
v 37.040298 -178.040039 259.573975
v 89.992897 -113.667038 256.340973
v 97.687599 -127.357040 256.732971
v 82.510696 -99.765442 256.478973
v 93.671097 -92.286339 254.367981
v 108.223999 -69.351936 248.120987
v 136.789993 -91.994537 248.709991
v 141.837006 -78.201141 246.377991
v 144.966995 -67.264336 244.752991
v 144.332993 -60.621536 244.097992
v 122.760002 -47.027840 243.896988
v 139.656998 -46.254539 242.085999
v 124.963997 -31.092937 239.488007
v 135.257004 -39.631237 240.878998
v 146.156006 -15.557518 110.887001
v -86.413399 -163.777039 262.459961
v 160.085007 -1.440362 134.085007
v 77.338699 166.864960 258.208038
v 89.997704 159.905960 254.682037
v -183.322006 -10.042443 263.450012
v -184.089996 -17.286642 262.949005
v -174.727005 -65.553246 262.332001
v 119.028000 -122.185036 254.623978
v 115.572998 -127.599037 255.333984
v 119.767998 132.460953 237.564011
v 60.508598 174.109955 261.865021
v 103.762001 141.596954 245.111023
v 106.264000 146.302948 246.851028
v -149.759003 -104.784042 261.877960
v -140.214996 -114.776047 261.770966
v 121.822998 -118.472038 254.184982
v 112.675003 -131.363052 255.840988
v 94.119003 -150.116043 257.157959
v -157.423004 97.175156 269.245026
v -98.639900 157.997955 272.820038
v -45.026299 -177.717041 260.555969
v 84.803001 -156.405045 257.822968
v 109.519997 138.926956 242.916016
v -19.649300 182.073959 271.163025
vn -0.0354 -0.8262 0.5622
vn -0.0412 -0.8474 0.5294
vn 0.2147 -0.4801 0.8505
vn 0.2088 -0.3928 0.8956
vn 0.2035 -0.4762 0.8555
vn 0.1992 -0.4041 0.8927
vn 0.2654 -0.1847 0.9463
vn 0.1045 -0.0700 0.9921
vn 0.0266 0.0185 0.9995
vn -0.0402 -0.7806 0.6237
vn 0.3190 -0.6480 0.6917
vn -0.0171 0.0592 0.9981
vn 0.0078 -0.7191 0.6948
vn -0.0671 -0.7926 0.6060
vn 0.1174 0.1446 0.9825
vn 0.1284 -0.8266 0.5479
vn -0.0609 -0.7911 0.6086
vn 0.0947 -0.8257 0.5561
vn 0.0871 -0.6332 0.7691
vn 0.0270 -0.7271 0.6860
vn -0.0352 -0.7759 0.6299
vn -0.0473 -0.6841 0.7278
vn 0.0474 -0.6150 0.7871
vn 0.0383 -0.5830 0.8116
vn 0.0296 -0.5700 0.8211
vn -0.0228 -0.7202 0.6934
vn 0.0352 -0.7305 0.6820
vn 0.0012 -0.7232 0.6906
vn 0.1100 -0.4788 0.8710
vn 0.1204 -0.4726 0.8730
vn -0.0987 -0.8071 0.5821
vn 0.2052 -0.4754 0.8555
vn 0.1220 -0.4742 0.8719
vn -0.1236 -0.8825 0.4537
vn -0.0435 -0.9079 0.4169
vn -0.0546 -0.9230 0.3809
vn 0.1287 -0.4873 0.8637
vn 0.0970 -0.2873 0.9529
vn 0.3624 -0.3349 0.8698
vn 0.1331 -0.4002 0.9067
vn 0.0817 -0.3238 0.9426
vn 0.3303 -0.2827 0.9005
vn 0.3295 -0.2599 0.9077
vn 0.1072 -0.3049 0.9463
vn 0.0550 -0.3603 0.9312
vn 0.0892 -0.2876 0.9536
vn 0.0981 -0.1626 0.9818
vn 0.2785 -0.1206 0.9528
vn 0.2009 -0.1011 0.9744
vn 0.0994 -0.1242 0.9873
vn 0.0941 -0.1070 0.9898
vn 0.0849 -0.1378 0.9868
vn 0.0770 -0.1323 0.9882
vn 0.0788 -0.0838 0.9934
vn 0.0927 -0.0901 0.9916
vn 0.0616 -0.0475 0.9970
vn 0.0215 -0.0317 0.9993
vn 0.0562 -0.0811 0.9951
vn 0.0524 -0.0627 0.9967
vn -0.0195 0.0460 0.9987
vn 0.0408 -0.0276 0.9988
vn 0.0156 -0.1031 0.9945
vn -0.7963 0.5878 0.1429
vn -0.0354 -0.0587 0.9976
vn 0.0139 -0.0807 0.9966
vn -0.0091 -0.0621 0.9980
vn 0.0253 -0.0580 0.9980
vn -0.0103 -0.0949 0.9954
vn 0.0053 -0.0911 0.9958
vn 0.0253 -0.0736 0.9970
vn 0.0665 -0.0815 0.9944
vn 0.0733 -0.0878 0.9934
vn 0.0172 -0.0574 0.9982
vn 0.0249 -0.0761 0.9968
vn 0.0423 -0.0295 0.9987
vn 0.0487 0.0445 0.9978
vn 0.0266 -0.0081 0.9996
vn 0.0200 -0.0050 0.9998
vn 0.0085 -0.0060 0.9999
vn -0.4094 -0.0939 0.9075
vn -0.0307 -0.0325 0.9990
vn -0.0044 -0.0473 0.9989
vn 0.0388 -0.0250 0.9989
vn -0.0000 -0.0474 0.9989
vn 0.0151 0.0526 0.9985
vn 0.0232 0.0451 0.9987
vn 0.0585 0.0308 0.9978
vn 0.0483 0.0577 0.9972
vn 0.0540 0.0463 0.9975
vn 0.0573 -0.0105 0.9983
vn 0.0547 0.0501 0.9972
vn 0.0185 0.0084 0.9998
vn 0.0075 0.0669 0.9977
vn 0.0098 0.0641 0.9979
vn 0.0036 0.0307 0.9995
vn 0.0107 -0.0041 0.9999
vn 0.1634 -0.3557 0.9202
vn 0.1004 0.0848 0.9913
vn 0.1421 0.0667 0.9876
vn 0.0632 0.0809 0.9947
vn 0.1780 0.1518 0.9722
vn 0.1062 0.1595 0.9815
vn 0.1200 0.1358 0.9834
vn 0.0868 0.1351 0.9870
vn 0.0837 0.1230 0.9889
vn 0.0848 0.1058 0.9908
vn 0.0770 0.1368 0.9876
vn 0.0974 0.1690 0.9808
vn 0.0816 0.2553 0.9634
vn 0.0927 0.2378 0.9669
vn 0.0092 -0.9045 0.4265
vn 0.1116 0.1418 0.9836
vn -0.8000 -0.2388 0.5504
vn -0.0072 -0.9242 0.3819
vn -0.0883 -0.5836 0.8072
vn -0.1404 -0.6275 0.7659
vn -0.0024 -0.0687 0.9976
vn 0.0560 0.0093 0.9984
vn 0.0222 0.0524 0.9984
vn -0.6843 0.5056 0.5256
vn 0.1932 -0.4405 0.8767
vn 0.1042 -0.2316 0.9672
vn 0.2040 -0.4331 0.8780
vn 0.1707 -0.3557 0.9189
vn 0.0231 -0.0645 0.9977
vn -0.0036 -0.0698 0.9976
vn 0.2686 -0.0665 0.9610
vn 0.0391 0.0146 0.9991
vn 0.0445 -0.0439 0.9980
vn 0.0174 0.0059 0.9998
vn -0.3504 0.3658 0.8622
vn -0.1906 0.2737 0.9427
vn 0.0870 0.1050 0.9907
vn 0.0618 0.0089 0.9980
vn -0.0367 0.0392 0.9986
vn -0.1775 0.1106 0.9779
vn -0.0958 0.1704 0.9807
vn 0.0272 0.0002 0.9996
vn 0.2045 -0.4912 0.8467
vn 0.0703 -0.5207 0.8509
vn 0.1746 -0.6377 0.7502
vn 0.0219 0.0162 0.9996
vn 0.0262 -0.0230 0.9994
vn 0.0656 0.0083 0.9978
vn 0.0042 0.0356 0.9994
vn 0.0351 0.0677 0.9971
vn 0.1893 -0.4585 0.8683
vn -0.0077 0.0021 1.0000
vn -0.0161 0.0073 0.9998
vn 0.2331 -0.1246 0.9645
vn 0.3519 -0.2526 0.9013
vn 0.1512 -0.4125 0.8983
vn 0.2308 -0.3767 0.8971
vn 0.0448 -0.0828 0.9956
vn 0.0031 0.0116 0.9999
vn 0.0145 0.0639 0.9979
vn 0.0689 -0.7083 0.7025
vn -0.0075 -0.6447 0.7644
vn 0.1939 -0.4002 0.8957
vn 0.0232 0.0269 0.9994
usemtl None
s off
f 1//1 3//1 2//1
f 3//2 4//2 2//2
f 5//3 7//3 6//3
f 8//4 5//4 9//4
f 8//5 7//5 5//5
f 10//6 8//6 9//6
f 11//7 12//7 13//7
f 14//8 11//8 13//8
f 15//9 17//9 16//9
f 18//10 20//10 19//10
f 6//11 22//11 21//11
f 23//12 24//12 25//12
f 26//13 27//13 18//13
f 18//14 1//14 20//14
f 28//15 29//15 30//15
f 31//16 32//16 3//16
f 18//17 3//17 1//17
f 18//18 31//18 3//18
f 27//19 33//19 21//19
f 21//20 34//20 27//20
f 19//21 35//21 18//21
f 26//22 18//22 35//22
f 26//23 36//23 27//23
f 37//24 27//24 36//24
f 37//25 33//25 27//25
f 27//26 31//26 18//26
f 27//27 34//27 32//27
f 32//28 31//28 27//28
f 38//29 5//29 39//29
f 6//30 39//30 5//30
f 2//31 40//31 1//31
f 7//32 8//32 41//32
f 42//33 39//33 6//33
f 3//34 43//34 4//34
f 44//35 43//35 45//35
f 44//36 4//36 43//36
f 42//37 6//37 46//37
f 47//38 9//38 48//38
f 47//39 50//39 49//39
f 49//40 10//40 9//40
f 49//41 9//41 47//41
f 47//42 51//42 50//42
f 47//43 52//43 51//43
f 47//44 48//44 53//44
f 54//45 52//45 53//45
f 47//46 53//46 52//46
f 52//47 12//47 51//47
f 12//48 55//48 51//48
f 56//49 12//49 11//49
f 56//50 11//50 57//50
f 57//51 58//51 56//51
f 59//52 12//52 52//52
f 12//53 59//53 13//53
f 57//54 11//54 14//54
f 57//55 14//55 60//55
f 57//56 62//56 61//56
f 62//57 64//57 63//57
f 57//58 60//58 64//58
f 65//59 66//59 61//59
f 63//60 67//60 62//60
f 65//61 61//61 68//61
f 61//62 62//62 68//62
f 69//63 70//63 66//63
f 65//64 68//64 69//64
f 69//65 66//65 65//65
f 68//66 71//66 69//66
f 72//67 69//67 71//67
f 70//68 69//68 73//68
f 69//69 74//69 73//69
f 69//70 75//70 76//70
f 74//71 77//71 78//71
f 69//72 77//72 74//72
f 69//73 79//73 77//73
f 80//74 69//74 76//74
f 81//75 78//75 77//75
f 82//76 81//76 77//76
f 77//77 83//77 84//77
f 85//78 77//78 84//78
f 17//79 77//79 85//79
f 82//80 17//80 86//80
f 86//81 17//81 87//81
f 88//82 15//82 89//82
f 15//83 87//83 17//83
f 15//84 88//84 87//84
f 90//85 15//85 16//85
f 15//86 90//86 91//86
f 15//87 91//87 92//87
f 93//88 94//88 89//88
f 93//89 23//89 94//89
f 23//90 93//90 95//90
f 96//91 94//91 23//91
f 96//92 23//92 97//92
f 98//93 23//93 99//93
f 100//94 24//94 23//94
f 97//95 102//95 101//95
f 103//96 97//96 101//96
f 29//97 101//97 30//97
f 30//98 101//98 102//98
f 103//99 101//99 104//99
f 29//100 104//100 101//100
f 29//101 105//101 104//101
f 29//102 106//102 105//102
f 29//103 28//103 106//103
f 105//104 106//104 107//104
f 108//105 105//105 107//105
f 109//106 105//106 108//106
f 109//107 110//107 105//107
f 111//108 110//108 109//108
f 112//109 110//109 113//109
f 111//110 113//110 110//110
f 114//111 2//111 4//111
f 115//112 92//112 91//112
f 116//113 20//113 1//113
f 114//114 4//114 44//114
f 117//115 54//115 53//115
f 118//116 53//116 48//116
f 77//117 119//117 120//117
f 121//118 85//118 84//118
f 99//119 23//119 95//119
f 122//120 30//120 123//120
f 124//121 9//121 5//121
f 54//122 125//122 52//122
f 9//123 126//123 127//123
f 48//124 9//124 127//124
f 69//125 80//125 79//125
f 119//126 77//126 79//126
f 55//127 56//127 58//127
f 77//128 17//128 82//128
f 69//129 72//129 75//129
f 128//130 129//130 17//130
f 30//131 122//131 130//131
f 123//132 30//132 131//132
f 131//133 30//133 102//133
f 132//134 131//134 102//134
f 97//135 23//135 25//135
f 133//136 72//136 71//136
f 62//137 67//137 134//137
f 135//138 89//138 92//138
f 7//139 22//139 6//139
f 46//140 21//140 33//140
f 21//141 46//141 6//141
f 17//142 85//142 128//142
f 120//143 83//143 77//143
f 132//144 102//144 136//144
f 97//145 136//145 102//145
f 97//146 25//146 136//146
f 41//147 8//147 10//147
f 93//148 89//148 135//148
f 135//149 95//149 93//149
f 12//150 56//150 55//150
f 55//151 50//151 51//151
f 127//152 126//152 137//152
f 127//153 137//153 124//153
f 57//154 64//154 62//154
f 15//155 92//155 89//155
f 100//156 23//156 98//156
f 60//157 14//157 138//157
f 126//158 124//158 137//158
f 9//159 124//159 126//159
f 129//160 16//160 17//160
