# Blender v2.79 (sub 0) OBJ File: ''
# www.blender.org
mtllib my_crack_surf__54.mtl
o my_crack_surf__54
v 130.276993 -6.488181 127.792999
v 139.141006 -15.350918 113.259003
v 146.488007 -11.789619 119.623001
v 153.110001 -5.100252 130.658005
v 0.625841 157.284958 266.863037
v 26.522400 175.005951 265.299042
v 5.051820 175.482956 267.814026
v -2.522000 145.079956 266.774017
v 31.070101 125.877960 257.368042
v 3.468950 169.916962 267.487030
v 146.348999 30.127972 170.792999
v 137.388000 51.764370 189.077011
v 118.530998 43.682068 184.716995
v 161.069000 9.302725 149.432007
v 129.352005 4.879066 143.714005
v 164.544998 41.282570 178.697998
v 162.244995 54.131271 187.351013
v 158.578995 71.245667 198.414017
v 165.184998 31.041872 170.449997
v 129.197998 19.679274 159.684006
v 162.688004 16.082874 157.375000
v 112.566002 66.378571 204.073013
v 102.908997 77.585762 213.555008
v 132.917999 113.458961 223.812012
v 144.003006 97.329765 213.875015
v 77.125702 101.077965 233.614014
v 130.225006 -17.452017 108.285004
v 107.535004 138.002960 242.435013
v 84.436501 151.563950 253.369034
v 64.460899 114.281960 243.447021
v 61.020199 151.449951 256.709045
v 75.935303 159.181961 256.036041
v 76.554901 154.423950 254.291031
v 52.207001 169.541962 261.637024
v 7.233110 130.521957 263.965027
v -8.800450 128.249954 265.712036
v -38.261101 169.451950 271.314026
v -79.037498 158.771957 272.516022
v -41.418201 123.702957 268.394043
v -46.324100 171.345947 271.795044
v -20.393101 170.783951 270.161041
v -59.262600 115.814957 269.221039
v -22.653299 174.643951 270.722015
v -105.287003 100.630951 270.455017
v -105.875999 136.148956 271.503021
v -98.574699 85.468155 269.597992
v -110.554001 79.711258 268.954987
v -113.219002 65.677956 268.342010
v -136.636002 94.845551 267.752045
v -131.123993 106.899956 269.413025
v -143.522995 88.254257 267.567993
v -152.503006 63.100456 266.743011
v -154.257004 54.381557 265.812012
v -136.817993 58.366558 266.734985
v -130.888000 61.603256 266.388000
v -128.209000 23.480959 263.078003
v -152.498001 25.728256 264.196014
v -145.154999 9.361667 263.489014
v -130.904999 11.983957 262.988007
v -129.826004 0.351323 262.760010
v -147.891006 74.748154 267.798004
v -140.503006 5.891337 263.484009
v 65.570999 164.347961 259.035034
v 58.920502 168.273956 261.004028
v 116.240997 55.292168 196.329010
v 88.361900 152.874954 253.440033
v 163.753998 48.705170 184.013016
v -122.794998 119.808952 270.726044
v -59.573601 167.947952 272.381042
vn -0.0245 -0.8601 0.5096
vn -0.0141 -0.8513 0.5245
vn 0.1142 -0.0795 0.9903
vn 0.2332 -0.0672 0.9701
vn -0.1556 -0.0137 0.9877
vn 0.0866 -0.6219 0.7783
vn 0.0087 -0.8136 0.5814
vn -0.0161 -0.5605 0.8280
vn 0.1085 -0.5232 0.8453
vn 0.1127 -0.6137 0.7815
vn 0.0445 -0.6250 0.7794
vn -0.0067 -0.7232 0.6906
vn 0.0457 -0.6617 0.7483
vn -0.0234 -0.7238 0.6896
vn 0.0065 -0.7334 0.6798
vn 0.1591 -0.5542 0.8171
vn 0.1926 -0.4153 0.8890
vn 0.2510 -0.4544 0.8547
vn -0.0678 -0.8697 0.4890
vn 0.2456 -0.4119 0.8775
vn 0.2189 -0.3588 0.9074
vn 0.2485 -0.4139 0.8758
vn 0.1352 -0.3218 0.9371
vn 0.2764 -0.3002 0.9130
vn 0.2044 -0.3135 0.9273
vn 0.1405 0.0689 0.9877
vn 0.1443 -0.1940 0.9703
vn 0.1498 -0.1502 0.9772
vn 0.2652 -0.0083 0.9642
vn 0.1228 -0.1081 0.9865
vn 0.1444 -0.1940 0.9703
vn 0.1217 -0.0906 0.9884
vn -0.2523 0.0331 0.9671
vn 0.7719 -0.2035 0.6022
vn 0.0919 -0.0694 0.9934
vn 0.0854 -0.0254 0.9960
vn 0.0568 -0.0909 0.9942
vn 0.1077 -0.0888 0.9902
vn 0.0665 -0.0459 0.9967
vn 0.0883 -0.3925 0.9155
vn 0.1065 -0.0817 0.9910
vn 0.0716 -0.1022 0.9922
vn 0.0331 -0.1114 0.9932
vn -0.0127 -0.0297 0.9995
vn -0.0359 -0.0368 0.9987
vn -0.0218 -0.0660 0.9976
vn -0.0762 -0.0522 0.9957
vn -0.0659 -0.1066 0.9921
vn -0.0388 0.0126 0.9992
vn -0.0297 -0.1002 0.9945
vn -0.1045 -0.0236 0.9942
vn -0.0884 -0.0923 0.9918
vn 0.0410 -0.0538 0.9977
vn 0.0438 -0.0235 0.9988
vn 0.0382 -0.0168 0.9991
vn 0.0381 -0.0161 0.9991
vn -0.1014 -0.7464 0.6578
vn 0.1938 -0.4178 0.8876
vn -0.0347 0.0282 0.9990
vn 0.2068 0.2758 0.9387
vn -0.0006 -0.4491 0.8935
vn 0.2169 -0.6686 0.7113
vn 0.0451 -0.0557 0.9974
vn 0.0396 -0.0389 0.9985
vn -0.0159 -0.3461 0.9381
vn -0.1057 -0.6494 0.7531
vn 0.1399 -0.4661 0.8736
vn 0.0693 -0.2598 0.9632
vn -0.0476 -0.0302 0.9984
vn -0.0224 -0.0761 0.9969
vn 0.2956 -0.4513 0.8420
vn -0.0199 -0.0824 0.9964
vn -0.4209 -0.5574 0.7157
vn -0.0272 -0.1109 0.9935
vn 0.1011 -0.0790 0.9917
vn 0.1351 -0.1861 0.9732
vn 0.0506 -0.0382 0.9980
vn -0.0295 -0.7870 0.6163
vn 0.1585 -0.5296 0.8333
vn -0.0444 -0.3921 0.9189
vn 0.0871 -0.1703 0.9815
usemtl None
s off
f 1//1 2//1 3//1
f 1//2 3//2 4//2
f 5//3 6//3 7//3
f 8//4 9//4 5//4
f 5//5 7//5 10//5
f 11//6 12//6 13//6
f 14//7 15//7 1//7
f 11//8 16//8 17//8
f 12//9 17//9 18//9
f 11//10 17//10 12//10
f 11//11 19//11 16//11
f 13//12 20//12 11//12
f 11//13 21//13 19//13
f 15//14 14//14 11//14
f 15//15 11//15 20//15
f 22//16 18//16 23//16
f 24//17 23//17 25//17
f 24//18 26//18 23//18
f 27//19 2//19 1//19
f 24//20 28//20 26//20
f 28//21 29//21 30//21
f 28//22 30//22 26//22
f 29//23 31//23 30//23
f 9//24 30//24 31//24
f 32//25 31//25 33//25
f 29//26 33//26 31//26
f 32//27 34//27 31//27
f 5//28 9//28 31//28
f 8//29 35//29 9//29
f 8//30 36//30 35//30
f 5//31 31//31 34//31
f 34//32 6//32 5//32
f 10//33 36//33 8//33
f 10//34 8//34 5//34
f 37//35 36//35 10//35
f 36//36 38//36 39//36
f 40//37 38//37 36//37
f 10//38 7//38 41//38
f 38//39 42//39 39//39
f 37//40 10//40 41//40
f 43//41 41//41 7//41
f 37//42 41//42 43//42
f 37//43 40//43 36//43
f 44//44 38//44 45//44
f 46//45 47//45 48//45
f 47//46 46//46 44//46
f 49//47 47//47 44//47
f 49//48 44//48 50//48
f 47//49 49//49 51//49
f 52//50 53//50 54//50
f 47//51 55//51 48//51
f 56//52 48//52 55//52
f 56//53 53//53 57//53
f 58//54 56//54 57//54
f 59//55 56//55 58//55
f 60//56 59//56 58//56
f 21//57 11//57 14//57
f 25//58 23//58 18//58
f 61//59 47//59 51//59
f 62//60 60//60 58//60
f 34//61 63//61 64//61
f 13//62 18//62 65//62
f 44//63 42//63 38//63
f 44//64 46//64 42//64
f 32//65 33//65 29//65
f 32//66 63//66 34//66
f 66//67 29//67 28//67
f 29//68 66//68 32//68
f 45//69 50//69 44//69
f 54//70 47//70 52//70
f 55//71 47//71 54//71
f 61//72 52//72 47//72
f 67//73 17//73 16//73
f 56//74 54//74 53//74
f 54//75 56//75 55//75
f 50//76 45//76 68//76
f 37//77 43//77 40//77
f 4//78 14//78 1//78
f 22//79 65//79 18//79
f 18//80 13//80 12//80
f 69//81 38//81 40//81
