# Blender v2.79 (sub 0) OBJ File: ''
# www.blender.org
mtllib my_crack_surf__74.mtl
o my_crack_surf__74
v 129.173004 19.935673 159.380005
v 146.863007 19.154573 158.858002
v 143.985001 35.862972 175.414993
v 146.401993 5.097416 142.367004
v 161.059006 9.754107 149.179001
v 129.330002 5.102177 143.449997
v 139.095993 -14.956418 113.152000
v 146.339005 -11.318319 119.475998
v 152.410995 -5.086821 129.059006
v 53.070202 133.262955 252.564011
v -5.395800 154.852951 267.489044
v 3.743970 147.173950 266.253021
v 26.989500 176.546951 265.534027
v -171.320999 -35.904442 262.803986
v -176.994003 -2.636643 263.604004
v -162.904999 -29.585041 261.829987
v 157.516998 75.319572 200.716019
v 116.240997 55.292168 196.329010
v 118.444000 44.000168 184.701004
v 137.438004 8.304096 148.001007
v 163.552994 48.847370 183.639023
v 133.481003 113.518959 223.838013
v 111.427002 69.829071 206.209015
v 146.281006 30.346071 170.783005
v 165.136993 31.558271 170.494003
v 164.192001 21.130873 161.477997
v 133.268997 14.491776 153.240005
v 65.928398 112.608963 240.703018
v 130.274994 -17.337517 107.822998
v 95.248703 137.848953 244.847015
v 81.447502 136.742950 247.695023
v 99.006203 145.821960 248.569031
v 96.868896 145.123947 248.220032
v 85.367996 138.734955 248.744019
v 83.923203 150.388962 252.564026
v 68.555603 142.633957 254.250031
v 90.544899 148.462952 249.925034
v 35.994801 124.261963 253.681015
v 54.115898 148.053955 254.863037
v 87.769699 155.680954 253.394028
v 63.554699 168.515961 259.777039
v 42.806000 174.119949 263.356018
v 7.233110 130.521957 263.965027
v -41.617100 123.700951 268.100037
v -31.487600 177.076950 271.546021
v -59.144501 115.940956 268.894043
v -0.701090 177.264954 268.694031
v -77.488197 153.363953 272.024017
v -106.675003 144.623947 272.718018
v -83.544197 148.971954 272.218018
v -88.100700 99.436554 269.111023
v -85.332497 95.730858 269.089020
v 4.883370 177.146957 268.015045
v -66.340302 169.134949 272.824036
v -54.334900 173.096954 272.492035
v -95.986603 106.127953 270.192017
v -98.348801 85.708755 268.971985
v -113.192001 65.724251 268.144989
v -144.951996 90.130753 269.475006
v -130.759995 13.773057 262.934998
v -166.850006 71.882057 269.031006
v -127.950996 -30.317242 260.139008
v -168.289001 -46.241341 262.937988
v -165.154007 -33.681641 262.848999
v -159.276993 -67.155548 262.196014
v -145.085999 -80.885147 261.506989
v -148.779999 -84.285049 262.126007
v -113.262001 -63.621841 263.109009
v -130.888000 -103.170044 261.707977
v -108.431999 -74.385048 262.687012
v -80.894203 -103.642044 261.195984
v -107.771004 -117.453049 261.443970
v -82.769600 -120.747047 260.427979
v -63.295898 -113.292046 258.898956
v 12.426800 177.361954 267.128021
v -87.919701 157.552948 272.465027
v -98.407898 151.924957 273.018036
v -81.217903 162.884949 273.273041
v -73.818001 164.280960 273.369019
v -154.052002 96.820854 270.003021
v -173.098999 52.977859 267.421997
v -80.777397 152.144958 271.597015
v -132.013000 117.597954 271.047028
v 24.402800 127.255951 259.896027
vn -0.0102 -0.7047 0.7094
vn -0.0603 -0.7588 0.6485
vn -0.0497 -0.8401 0.5402
vn -0.0215 -0.8319 0.5545
vn -0.0251 -0.7993 0.6004
vn 0.3207 0.2340 0.9178
vn 0.1798 -0.1813 0.9668
vn 0.1178 -0.0038 0.9930
vn 0.1951 -0.5760 0.7939
vn 0.0265 -0.7146 0.6990
vn 0.0390 -0.7850 0.6183
vn 0.0337 -0.8446 0.5343
vn 0.0057 -0.5412 0.8409
vn 0.1576 -0.4369 0.8856
vn 0.0523 -0.6293 0.7754
vn 0.0229 -0.7198 0.6938
vn -0.3855 -0.6821 0.6214
vn -0.0196 -0.7315 0.6816
vn 0.3509 -0.4560 0.8179
vn 0.0495 -0.7307 0.6809
vn -0.1278 -0.6896 0.7128
vn 0.0537 -0.6559 0.7529
vn -0.0071 -0.7609 0.6488
vn -0.0138 -0.7527 0.6582
vn -0.0202 -0.7295 0.6837
vn 0.2210 -0.4588 0.8606
vn -0.0918 -0.8437 0.5290
vn 0.2159 -0.3972 0.8920
vn 0.1672 -0.4806 0.8608
vn -0.0116 -0.4185 0.9082
vn 0.2410 -0.2752 0.9307
vn 0.2893 -0.2656 0.9197
vn 0.2491 -0.3610 0.8987
vn 0.1552 -0.4175 0.8953
vn -0.0153 -0.1525 0.9882
vn 0.1253 -0.2420 0.9621
vn 0.3154 -0.1675 0.9341
vn 0.0953 -0.2738 0.9571
vn 0.0708 0.0760 0.9946
vn 0.0917 -0.2723 0.9578
vn 0.2452 -0.0814 0.9661
vn 0.0238 -0.1312 0.9911
vn 0.0978 -0.2311 0.9680
vn 0.0969 -0.0932 0.9909
vn 0.0801 -0.0794 0.9936
vn 0.0924 -0.0728 0.9931
vn 0.1111 -0.0765 0.9909
vn 0.0426 -0.0625 0.9971
vn 0.0355 -0.0741 0.9966
vn 0.0681 -0.0499 0.9964
vn -0.2119 -0.1640 0.9634
vn 0.0832 0.8380 0.5394
vn 0.0576 -0.0911 0.9942
vn 0.0405 -0.0643 0.9971
vn 0.0292 -0.0630 0.9976
vn 0.0022 -0.0515 0.9987
vn 0.0441 -0.0771 0.9960
vn 0.0319 -0.0491 0.9983
vn 0.0916 -0.0572 0.9942
vn -0.2130 0.1332 0.9679
vn 0.6210 -0.1496 0.7694
vn 0.0562 0.0080 0.9984
vn 0.0711 -0.0048 0.9975
vn 0.1087 0.0625 0.9921
vn -0.0095 -0.0312 0.9995
vn -0.0793 0.0538 0.9954
vn 0.0098 -0.0417 0.9991
vn 0.0042 -0.0373 0.9993
vn 0.0102 -0.0019 0.9999
vn 0.0342 -0.0486 0.9982
vn 0.0993 -0.0555 0.9935
vn 0.0633 -0.6003 0.7972
vn 0.1136 0.0952 0.9890
vn 0.0534 -0.0015 0.9986
vn -0.1145 0.2986 0.9475
vn 0.0109 -0.1259 0.9920
vn 0.1940 -0.7281 0.6575
vn 0.1552 -0.2000 0.9674
vn 0.2911 -0.4550 0.8416
vn 0.0859 -0.0804 0.9931
vn 0.3292 0.2406 0.9131
vn 0.1058 -0.0358 0.9937
vn 0.1618 -0.5175 0.8402
vn 0.0213 -0.0498 0.9985
vn 0.0397 -0.0712 0.9967
vn 0.0483 -0.0530 0.9974
vn -0.0108 0.0098 0.9999
vn 0.1092 -0.6229 0.7746
vn 0.2538 -0.4162 0.8732
vn 0.1601 0.0533 0.9857
vn 0.0031 -0.0646 0.9979
vn -0.2625 0.4006 0.8778
vn -0.0278 -0.0904 0.9955
vn 0.0207 -0.0916 0.9956
vn 0.2386 0.0456 0.9701
vn -0.0473 0.1831 0.9820
vn 0.1887 -0.1823 0.9650
vn 0.0180 -0.4275 0.9038
vn 0.2637 -0.3336 0.9051
vn -0.3001 0.4765 0.8264
vn 0.0569 -0.0904 0.9943
vn 0.2263 -0.4081 0.8844
vn 0.3109 -0.4886 0.8152
vn 0.0034 -0.1541 0.9881
vn -0.0699 -0.1566 0.9852
vn 0.0118 -0.0627 0.9980
vn 0.0048 -0.0594 0.9982
vn 0.0371 -0.0830 0.9959
vn -0.0022 -0.4417 0.8972
usemtl None
s off
f 1//1 2//1 3//1
f 4//2 5//2 2//2
f 6//3 7//3 8//3
f 6//4 8//4 9//4
f 4//5 9//5 5//5
f 10//6 11//6 12//6
f 13//7 11//7 10//7
f 14//8 16//8 15//8
f 17//9 18//9 3//9
f 19//10 3//10 18//10
f 4//11 6//11 9//11
f 4//12 20//12 6//12
f 17//13 3//13 21//13
f 17//14 22//14 23//14
f 3//15 24//15 25//15
f 19//16 1//16 3//16
f 24//17 3//17 2//17
f 26//18 2//18 5//18
f 27//19 20//19 4//19
f 27//20 1//20 6//20
f 6//21 20//21 27//21
f 24//22 26//22 25//22
f 27//23 4//23 2//23
f 27//24 2//24 1//24
f 24//25 2//25 26//25
f 23//26 22//26 28//26
f 29//27 7//27 6//27
f 30//28 31//28 28//28
f 30//29 22//29 32//29
f 30//30 32//30 33//30
f 34//31 35//31 36//31
f 37//32 35//32 34//32
f 10//33 38//33 28//33
f 10//34 28//34 36//34
f 10//35 36//35 39//35
f 40//36 41//36 35//36
f 42//37 10//37 39//37
f 35//38 41//38 39//38
f 35//39 39//39 36//39
f 42//40 39//40 41//40
f 10//41 12//41 43//41
f 43//42 12//42 11//42
f 10//43 42//43 13//43
f 44//44 43//44 11//44
f 45//45 46//45 44//45
f 11//46 47//46 45//46
f 47//47 11//47 13//47
f 46//48 45//48 48//48
f 49//49 46//49 50//49
f 48//50 50//50 46//50
f 49//51 51//51 52//51
f 53//52 47//52 13//52
f 54//53 48//53 55//53
f 56//54 57//54 52//54
f 57//55 56//55 58//55
f 59//56 58//56 56//56
f 60//57 59//57 61//57
f 60//58 15//58 16//58
f 60//59 63//59 62//59
f 16//60 63//60 60//60
f 16//61 64//61 63//61
f 65//62 66//62 62//62
f 65//63 62//63 63//63
f 67//64 66//64 65//64
f 67//65 69//65 68//65
f 66//66 68//66 62//66
f 70//67 69//67 71//67
f 69//68 70//68 68//68
f 69//69 72//69 71//69
f 72//70 73//70 71//70
f 74//71 71//71 73//71
f 21//72 3//72 25//72
f 53//73 13//73 75//73
f 50//74 76//74 77//74
f 14//75 64//75 16//75
f 78//76 48//76 79//76
f 34//77 31//77 30//77
f 37//78 34//78 33//78
f 34//79 30//79 33//79
f 45//80 44//80 11//80
f 52//81 51//81 56//81
f 56//82 51//82 49//82
f 23//83 18//83 17//83
f 59//84 80//84 61//84
f 15//85 60//85 81//85
f 49//86 52//86 46//86
f 64//87 14//87 63//87
f 34//88 36//88 31//88
f 31//89 36//89 28//89
f 76//90 50//90 82//90
f 83//91 56//91 49//91
f 48//92 82//92 50//92
f 59//93 60//93 58//93
f 81//94 60//94 61//94
f 10//95 43//95 84//95
f 78//96 79//96 54//96
f 48//97 54//97 79//97
f 40//98 37//98 33//98
f 40//99 35//99 37//99
f 66//100 67//100 68//100
f 55//101 48//101 45//101
f 22//102 30//102 28//102
f 38//103 10//103 84//103
f 82//104 78//104 76//104
f 78//105 82//105 48//105
f 80//106 59//106 83//106
f 83//107 59//107 56//107
f 49//108 50//108 77//108
f 40//109 33//109 32//109
