# Blender v2.79 (sub 0) OBJ File: ''
# www.blender.org
mtllib crack_only_103.mtl
o crack_only_103
v 2.823890 1.407363 -3.306205
v 2.771329 1.240794 -3.606320
v 2.897211 1.984717 -3.666479
v 2.897913 2.516989 -4.636545
v 2.932282 2.551113 -4.415786
v 2.795854 2.133414 -4.642659
v 3.020460 2.496753 -2.490452
v 3.051200 2.804015 -2.069942
v 2.983794 2.404768 -2.245997
v 3.098438 2.891515 -2.518772
v 2.820327 1.682212 -1.943699
v 2.883646 2.007241 -2.205488
v 2.812680 1.948812 -1.559532
v 2.820518 1.323647 -2.288541
v 2.864366 1.757316 -2.444404
v 2.974956 2.596045 -1.537981
v 2.988574 2.687961 -1.258504
v 2.872643 2.303769 -1.373166
v 2.748144 1.459124 -4.013949
v 2.752223 1.765794 -4.342555
v 2.859948 1.542684 -2.943563
v 2.819204 1.130414 -3.122095
v 2.824936 1.159814 -2.782408
v 2.800046 1.618470 -1.824542
v 2.807623 1.154859 -3.262461
v 2.899232 1.820210 -2.693422
v 3.157806 3.350837 -2.604498
v 3.194484 3.871106 -2.304131
v 3.202450 3.967131 -2.693842
v 3.112161 2.999696 -2.949721
v 3.073040 2.766175 -3.056365
v 3.063459 3.013351 -1.252395
v 3.033669 2.867970 -1.445973
v 3.122720 3.184206 -2.195063
v 2.983491 2.887483 -4.567340
v 3.041200 3.039187 -4.281988
v 2.834183 2.362587 -4.774775
v 3.004010 2.686158 -4.138639
v 2.982418 2.938590 -4.670586
v 2.960745 2.808361 -4.632458
v 3.042994 3.168292 -4.396962
v 3.021022 3.109925 -4.517381
v 3.172274 3.730865 -1.289084
v 3.173132 3.659917 -1.634680
v 3.125116 3.297879 -1.598252
v 2.872184 2.553604 -4.884636
v 2.946702 2.770087 -4.757528
v 3.080046 2.895348 -3.600808
v 3.120728 3.143975 -3.385306
v 3.086457 2.904129 -3.358498
v 3.170976 3.549617 -3.433013
v 3.107177 3.151770 -3.710346
v 3.165542 3.496032 -3.063614
v 3.138119 3.222710 -3.186701
v 3.146927 3.265824 -3.007762
v 3.183169 3.692225 -3.080999
v 3.108268 3.231533 -1.247279
v 3.202491 3.874321 -3.093207
v 3.130923 3.405150 -1.874438
v 3.029442 3.249091 -4.647766
v 3.188608 3.837049 -1.972043
v 3.149232 3.486584 -1.992877
v 3.003985 3.059814 -4.855254
v 2.916835 2.729129 -4.973932
v 2.961167 2.869932 -4.923213
v 2.994383 2.939922 -5.061593
v 3.042134 2.606329 -3.251788
v 2.975084 2.174578 -3.054206
v 2.992353 2.355633 -3.517556
v 3.058551 2.716862 -3.389172
v 2.979949 2.283556 -2.823720
v 3.080637 3.238503 -5.076029
v 2.960783 2.507573 -1.680464
v 3.049249 2.920394 -1.658139
v 3.204561 4.053763 -2.227000
v 3.070343 3.244044 -4.228710
v 3.086825 3.490038 -4.447942
v 3.200031 4.124373 -1.840881
v 3.188008 3.809883 -3.478132
v 3.127445 3.614515 -4.196117
v 3.096377 3.325431 -4.087327
v 3.149482 3.697859 -3.967547
v 3.151905 3.575577 -3.764745
v 3.014270 2.589790 -3.824634
v 2.923113 2.378241 -4.171084
v 3.106595 3.307652 -3.931808
v 3.065187 3.433044 -4.583983
v 3.044433 3.341400 -4.808247
v 3.075174 3.139156 -4.073266
v 3.219570 4.212440 -1.326854
vt 0.124253 0.362308
vt 0.084317 0.278349
vt 0.356701 0.301291
vt 0.612875 0.084460
vt 0.610980 0.141845
vt 0.473043 0.062839
vt 0.459263 0.622314
vt 0.538800 0.742986
vt 0.407502 0.678524
vt 0.604160 0.635540
vt 0.123267 0.716735
vt 0.259547 0.667919
vt 0.189016 0.825811
vt 0.022013 0.612914
vt 0.187803 0.595656
vt 0.423617 0.864972
vt 0.436680 0.939599
vt 0.303620 0.890591
vt 0.188801 0.186661
vt 0.320155 0.119430
vt 0.147848 0.460171
vt 0.000000 0.481353
vt 0.013618 0.394811
vt 0.091267 0.743179
vt 0.031587 0.360714
vt 0.229578 0.536859
vt 0.774800 0.637298
vt 1.000000 0.645616
vt 0.938024 0.738373
vt 0.673664 0.533130
vt 0.597146 0.494513
vt 0.554593 0.958014
vt 0.515739 0.902063
vt 0.685138 0.731182
vt 0.742706 0.121014
vt 0.778759 0.200620
vt 0.565039 0.041468
vt 0.642540 0.218772
vt 0.767961 0.097650
vt 0.718328 0.100547
vt 0.832394 0.178167
vt 0.819294 0.144880
vt 0.815092 0.985313
vt 0.682565 0.886155
vt 0.814907 0.895353
vt 0.642032 0.023802
vt 0.713050 0.067184
vt 0.681755 0.364629
vt 0.755890 0.431254
vt 0.667889 0.425798
vt 0.904468 0.439787
vt 0.781091 0.350090
vt 0.858981 0.529565
vt 0.773149 0.532058
vt 0.770306 0.485045
vt 0.930070 0.535026
vt 0.633287 0.970545
vt 0.995933 0.541118
vt 0.740265 0.822336
vt 0.877925 0.119149
vt 0.902033 0.819759
vt 0.778317 0.796909
vt 0.824891 0.057631
vt 0.712483 0.010615
vt 0.760728 0.030777
vt 0.797004 0.000000
vt 0.553284 0.437378
vt 0.383915 0.464863
vt 0.481512 0.357948
vt 0.602801 0.408604
vt 0.405985 0.527942
vt 0.907596 0.012116
vt 0.401952 0.824798
vt 0.550148 0.851722
vt 0.997198 0.766732
vt 0.848477 0.224347
vt 0.951400 0.181698
vt 0.994170 0.866770
vt 1.000000 0.441426
vt 0.979350 0.251354
vt 0.868384 0.264059
vt 0.993500 0.312933
vt 0.936222 0.357761
vt 0.586850 0.292805
vt 0.532312 0.194536
vt 0.851599 0.302257
vt 0.939915 0.144573
vt 0.922615 0.083685
vt 0.800819 0.258202
vt 0.989458 1.000000
vn 0.9821 -0.1724 -0.0763
vn 0.9609 -0.2539 -0.1103
vn 0.9777 -0.1970 0.0725
vn 0.9798 -0.1888 0.0663
vn 0.9887 -0.1134 0.0984
vn 0.9885 -0.1046 0.1093
vn 0.9954 -0.0941 0.0181
vn 0.9515 -0.3030 0.0533
vn 0.9727 -0.1755 -0.1518
vn 0.9955 -0.0947 -0.0086
vn 0.9873 -0.1207 0.1034
vn 0.9884 -0.0854 -0.1257
vn 0.9906 -0.0553 0.1247
vn 0.9881 -0.1065 0.1112
vn 0.9974 -0.0719 0.0027
vn 0.9917 -0.1283 -0.0006
vn 0.9869 -0.1612 -0.0090
vn 0.9743 -0.2246 0.0187
vn 0.9842 -0.1614 0.0721
vn 0.9943 -0.0966 0.0459
vn 0.9919 -0.1216 0.0355
vn 0.9768 -0.1918 -0.0956
vn 0.9547 -0.2515 -0.1593
vn 0.9709 -0.1706 -0.1682
vn 0.9754 -0.1933 -0.1058
vn 0.9830 -0.1294 -0.1300
vn 0.9837 -0.1410 -0.1112
vn 0.9913 -0.1286 0.0289
vn 0.9583 -0.2595 -0.1198
vn 0.9542 -0.2570 -0.1529
vn 0.9894 -0.1437 -0.0210
vn 0.9910 -0.1275 -0.0400
vn 0.9909 -0.1254 -0.0481
vn 0.9958 -0.0873 -0.0280
vn 0.9965 -0.0829 -0.0094
vn 0.9910 -0.1331 -0.0167
vn 0.9916 -0.1294 0.0005
vn 0.9891 -0.1446 -0.0293
vn 0.9960 -0.0893 0.0017
vn 0.9912 -0.1271 -0.0364
vn 0.9950 -0.0999 0.0001
vn 0.9919 -0.1251 0.0240
vn 0.9822 -0.1796 -0.0553
vn 0.9944 -0.1050 0.0081
vn 0.9904 -0.1345 -0.0314
vn 0.9858 -0.1428 -0.0887
vn 0.9937 -0.1120 0.0061
vn 0.9855 -0.1476 -0.0833
vn 0.9798 -0.1992 -0.0164
vn 0.9947 -0.1007 0.0202
vn 0.9938 -0.1109 -0.0126
vn 0.9559 -0.2830 -0.0784
vn 0.9618 -0.2536 0.1026
vn 0.9777 -0.2065 -0.0391
vn 0.9449 -0.3208 0.0646
vn 0.9587 -0.2728 -0.0807
vn 0.9857 -0.1659 -0.0281
vn 0.9847 -0.1729 -0.0214
vn 0.9650 -0.2579 0.0477
vn 0.9560 -0.2707 0.1128
vn 0.9884 -0.1509 0.0164
vn 0.9772 -0.1984 0.0758
vn 0.9713 -0.2331 0.0481
vn 0.9844 -0.1680 0.0521
vn 0.9795 -0.2004 0.0224
vn 0.9754 -0.2189 0.0245
vn 0.9753 -0.1951 -0.1036
vn 0.9709 -0.2077 -0.1191
vn 0.9767 -0.2100 -0.0454
vn 0.9787 -0.2053 0.0082
vn 0.9796 -0.2012 0.0003
vn 0.9810 -0.1939 -0.0011
vn 0.9983 -0.0577 0.0062
vn 0.9845 -0.1489 -0.0930
vn 0.9900 -0.1343 0.0426
vn 0.9981 -0.0599 0.0115
vn 0.9986 -0.0492 0.0207
vn 0.9814 -0.1668 0.0953
vn 0.9862 -0.1568 0.0533
vn 0.9684 -0.2356 0.0822
vn 0.9972 -0.0697 -0.0258
vn 0.9857 -0.1442 -0.0877
vn 0.9848 -0.1431 -0.0990
vn 0.9950 -0.0799 -0.0600
vn 0.9951 -0.0761 -0.0632
vn 0.9682 -0.2190 -0.1211
vn 0.9728 -0.2124 -0.0925
vn 0.9656 -0.2311 0.1194
vn 0.9861 -0.1640 0.0278
vn 0.9819 -0.1895 -0.0003
vn 0.9820 -0.1888 0.0014
vn 0.9900 -0.1151 -0.0812
vn 0.9909 -0.1253 -0.0499
vn 0.9899 -0.1184 -0.0786
vn 0.9831 -0.1601 -0.0893
vn 0.9835 -0.1501 -0.1015
vn 0.9825 -0.1857 -0.0150
vn 0.9896 -0.1438 0.0097
vn 0.9823 -0.1563 -0.1034
vn 0.9855 -0.1686 -0.0179
vn 0.9894 -0.1439 -0.0218
vn 0.9881 -0.1503 -0.0333
vn 0.9888 -0.1477 -0.0235
vn 0.9652 -0.2243 -0.1344
vn 0.9617 -0.2378 -0.1361
vn 0.9866 -0.1440 -0.0764
vn 0.9899 -0.1147 -0.0833
vn 0.9898 -0.1186 -0.0786
vn 0.9986 -0.0489 0.0201
vn 0.9948 -0.0993 -0.0208
vn 0.9986 -0.0520 0.0132
vn 0.9888 -0.1488 0.0098
vn 0.9876 -0.1514 -0.0417
vn 0.9728 -0.2165 -0.0822
vn 0.9843 -0.1728 0.0372
vn 0.9821 -0.1852 -0.0358
vn 0.9946 -0.0763 -0.0704
vn 0.9940 -0.0583 -0.0922
vn 0.9776 -0.2012 0.0615
vn 0.9760 -0.2169 0.0181
vn 0.9728 -0.1767 -0.1500
vn 0.9675 -0.2381 0.0848
vn 0.9543 -0.2871 0.0833
vn 0.9654 -0.2288 0.1252
vn 0.9965 -0.0767 0.0343
vn 0.9654 -0.1715 0.1964
vn 0.9883 -0.1360 0.0684
vn 0.9806 -0.1887 -0.0527
vn 0.9856 -0.1415 -0.0927
vn 0.9869 -0.1095 -0.1187
vn 0.9874 -0.1202 -0.1032
vn 0.9876 -0.1118 -0.1102
vn 0.9898 -0.1152 -0.0837
vn 0.9914 -0.1131 -0.0658
vn 0.9858 -0.1463 -0.0818
vn 0.9958 -0.0905 -0.0118
vn 0.9974 -0.0720 0.0015
vn 0.9943 -0.1039 0.0242
vn 0.9644 -0.2422 -0.1059
vn 0.9620 -0.2388 -0.1326
vn 0.9612 -0.2410 -0.1343
vn 0.9853 -0.1663 -0.0402
vn 0.9839 -0.1689 -0.0586
vn 0.9852 -0.1440 -0.0930
vn 0.9894 -0.1440 -0.0210
vn 0.9823 -0.1856 0.0243
vn 0.9895 -0.1295 0.0639
usemtl None
s off
f 1/1/1 2/2/1 3/3/1
f 4/4/2 5/5/2 6/6/2
f 7/7/3 8/8/3 9/9/3
f 7/7/4 10/10/4 8/8/4
f 11/11/5 12/12/5 13/13/5
f 12/12/6 11/11/6 14/14/6
f 12/12/7 14/14/7 15/15/7
f 16/16/8 17/17/8 18/18/8
f 19/19/9 20/20/9 3/3/9
f 21/21/10 23/22/10 22/23/10
f 11/11/11 13/13/11 24/24/11
f 1/1/12 25/25/12 2/2/12
f 26/26/13 15/15/13 14/14/13
f 24/24/14 14/14/14 11/11/14
f 27/27/15 29/28/15 28/29/15
f 30/30/16 27/27/16 10/10/16
f 31/31/17 30/30/17 10/10/17
f 32/32/18 17/17/18 33/33/18
f 8/8/19 10/10/19 34/34/19
f 27/27/20 28/29/20 34/34/20
f 27/27/21 34/34/21 10/10/21
f 35/35/22 36/36/22 5/5/22
f 4/4/23 6/6/23 37/37/23
f 36/36/24 38/38/24 5/5/24
f 39/39/25 35/35/25 40/40/25
f 35/35/26 41/41/26 36/36/26
f 42/42/27 41/41/27 35/35/27
f 43/43/28 45/44/28 44/45/28
f 46/46/29 47/47/29 37/37/29
f 4/4/30 37/37/30 47/47/30
f 48/48/31 49/49/31 50/50/31
f 49/49/32 48/48/32 51/51/32
f 52/52/33 51/51/33 48/48/33
f 53/53/34 55/54/34 54/55/34
f 53/53/35 27/27/35 55/54/35
f 55/54/36 30/30/36 54/55/36
f 55/54/37 27/27/37 30/30/37
f 54/55/38 50/50/38 49/49/38
f 56/56/39 53/53/39 51/51/39
f 54/55/40 49/49/40 51/51/40
f 54/55/41 51/51/41 53/53/41
f 57/57/42 45/44/42 43/43/42
f 40/40/43 47/47/43 39/39/43
f 58/58/44 56/56/44 51/51/44
f 59/59/45 44/45/45 45/44/45
f 60/60/46 42/42/46 39/39/46
f 61/61/47 62/62/47 28/29/47
f 39/39/48 42/42/48 35/35/48
f 39/39/49 47/47/49 63/63/49
f 62/62/50 34/34/50 28/29/50
f 62/62/51 61/61/51 44/45/51
f 64/64/52 47/47/52 46/46/52
f 65/65/53 66/66/53 63/63/53
f 65/65/54 63/63/54 47/47/54
f 65/65/55 64/64/55 66/66/55
f 64/64/56 65/65/56 47/47/56
f 67/67/57 68/68/57 69/69/57
f 67/67/58 69/69/58 70/70/58
f 71/71/59 7/7/59 9/9/59
f 72/72/60 63/63/60 66/66/60
f 60/60/61 39/39/61 63/63/61
f 73/73/62 9/9/62 8/8/62
f 73/73/63 8/8/63 16/16/63
f 74/74/64 8/8/64 34/34/64
f 74/74/65 45/44/65 33/33/65
f 16/16/66 33/33/66 17/17/66
f 35/35/67 5/5/67 40/40/67
f 40/40/68 5/5/68 4/4/68
f 40/40/69 4/4/69 47/47/69
f 57/57/70 33/33/70 45/44/70
f 57/57/71 32/32/71 33/33/71
f 31/31/72 10/10/72 7/7/72
f 75/75/73 28/29/73 29/28/73
f 76/76/74 41/41/74 77/77/74
f 67/67/75 71/71/75 68/68/75
f 61/61/76 28/29/76 75/75/76
f 75/75/77 78/78/77 61/61/77
f 12/12/78 15/15/78 26/26/78
f 68/68/79 71/71/79 26/26/79
f 73/73/80 12/12/80 9/9/80
f 79/79/81 58/58/81 51/51/81
f 76/76/82 77/77/82 80/80/82
f 76/76/83 80/80/83 81/81/83
f 82/82/84 79/79/84 83/83/84
f 79/79/85 51/51/85 83/83/85
f 84/84/86 3/3/86 85/85/86
f 84/84/87 69/69/87 3/3/87
f 12/12/88 26/26/88 9/9/88
f 71/71/89 9/9/89 26/26/89
f 71/71/90 67/67/90 31/31/90
f 31/31/91 7/7/91 71/71/91
f 82/82/92 83/83/92 81/81/92
f 82/82/93 81/81/93 80/80/93
f 81/81/94 83/83/94 86/86/94
f 87/87/95 77/77/95 60/60/95
f 60/60/96 77/77/96 41/41/96
f 87/87/97 60/60/97 88/88/97
f 88/88/98 60/60/98 63/63/98
f 60/60/99 41/41/99 42/42/99
f 70/70/100 31/31/100 67/67/100
f 50/50/101 31/31/101 70/70/101
f 54/55/102 30/30/102 31/31/102
f 54/55/103 31/31/103 50/50/103
f 3/3/104 20/20/104 6/6/104
f 85/85/105 3/3/105 6/6/105
f 89/89/106 84/84/106 38/38/106
f 52/52/107 89/89/107 86/86/107
f 86/86/108 89/89/108 81/81/108
f 61/61/109 78/78/109 44/45/109
f 90/90/110 43/43/110 78/78/110
f 43/43/111 44/45/111 78/78/111
f 21/21/112 26/26/112 14/14/112
f 1/1/113 3/3/113 21/21/113
f 21/21/114 3/3/114 69/69/114
f 68/68/115 26/26/115 21/21/115
f 68/68/116 21/21/116 69/69/116
f 25/25/117 1/1/117 21/21/117
f 21/21/118 22/23/118 25/25/118
f 74/74/119 16/16/119 8/8/119
f 16/16/120 74/74/120 33/33/120
f 2/2/121 19/19/121 3/3/121
f 12/12/122 73/73/122 13/13/122
f 16/16/123 18/18/123 73/73/123
f 73/73/124 18/18/124 13/13/124
f 21/21/125 14/14/125 23/22/125
f 88/88/126 63/63/126 72/72/126
f 74/74/127 34/34/127 59/59/127
f 59/59/128 45/44/128 74/74/128
f 36/36/129 89/89/129 38/38/129
f 36/36/130 76/76/130 81/81/130
f 36/36/131 81/81/131 89/89/131
f 41/41/132 76/76/132 36/36/132
f 83/83/133 52/52/133 86/86/133
f 52/52/134 83/83/134 51/51/134
f 84/84/135 89/89/135 52/52/135
f 53/53/136 56/56/136 27/27/136
f 56/56/137 29/28/137 27/27/137
f 56/56/138 58/58/138 29/28/138
f 85/85/139 38/38/139 84/84/139
f 85/85/140 5/5/140 38/38/140
f 85/85/141 6/6/141 5/5/141
f 48/48/142 70/70/142 69/69/142
f 69/69/143 84/84/143 48/48/143
f 52/52/144 48/48/144 84/84/144
f 48/48/145 50/50/145 70/70/145
f 62/62/146 44/45/146 59/59/146
f 59/59/147 34/34/147 62/62/147
