# Blender v2.79 (sub 0) OBJ File: ''
# www.blender.org
mtllib crack_only_100.mtl
o crack_only_100
v 2.898639 2.516933 -4.636556
v 2.932282 2.551113 -4.415786
v 2.795762 2.133488 -4.642649
v 3.021463 2.496499 -2.490131
v 3.041923 2.753257 -2.051551
v 2.984482 2.404039 -2.246377
v 3.100743 2.893227 -2.517600
v 2.824885 1.407812 -3.305770
v 2.772343 1.239225 -3.604263
v 2.897514 1.984606 -3.666435
v 3.051556 2.947483 -1.253563
v 3.033424 2.868050 -1.445886
v 2.988678 2.687948 -1.258482
v 2.884002 2.007111 -2.205070
v 2.864787 1.757640 -2.443507
v 2.824059 1.334424 -2.261639
v 2.974467 2.596205 -1.537808
v 2.872323 2.303906 -1.373234
v 2.748217 1.459113 -4.014000
v 2.751780 1.765836 -4.342275
v 2.860170 1.536462 -2.937413
v 2.820817 1.130003 -3.122648
v 2.827559 1.159371 -2.780803
v 2.809241 1.154216 -3.261470
v 2.884358 1.706818 -2.711871
v 3.016556 2.589733 -3.825848
v 3.063105 2.884050 -3.909518
v 3.007147 2.695212 -4.138268
v 2.834183 2.362587 -4.774775
v 3.116770 3.005035 -2.951145
v 3.158624 3.349901 -2.481470
v 3.075216 2.764550 -3.060373
v 2.872708 2.558718 -4.886288
v 2.948294 2.776580 -4.761014
v 3.086133 2.958887 -3.738449
v 3.076035 2.863270 -3.607904
v 3.073646 2.801111 -3.373967
v 3.104640 3.046211 -3.591135
v 3.107312 3.143717 -3.706514
v 3.110566 3.222242 -1.245812
v 3.127914 3.312796 -1.605215
v 2.987359 2.901773 -4.568829
v 3.042472 3.040161 -4.280823
v 2.991676 3.001582 -4.673773
v 2.964309 2.817630 -4.634480
v 3.155176 3.399221 -3.410599
v 3.165686 3.676260 -1.284378
v 3.003807 3.073804 -4.860365
v 2.920693 2.748284 -4.981031
v 2.963478 2.883689 -4.930506
v 2.997261 2.952887 -5.063149
v 3.195820 3.862810 -1.492493
v 3.179540 3.682506 -1.645834
v 3.043514 2.607116 -3.252589
v 2.976349 2.175088 -3.053705
v 2.992928 2.355549 -3.517370
v 2.983150 2.281064 -2.822021
v 2.940037 2.053378 -2.651912
v 3.063575 3.172749 -5.072299
v 2.959845 2.507580 -1.680604
v 3.143727 3.301805 -2.076752
v 3.183527 3.748618 -2.052258
v 3.058826 2.965535 -1.679116
v 3.158989 3.648384 -3.787817
v 3.189259 3.713468 -3.438253
v 3.059699 3.369426 -4.498859
v 3.040640 3.167664 -4.400418
v 3.115652 3.534764 -4.148781
v 3.029491 3.218237 -4.875596
v 3.030695 3.303065 -4.684931
v 3.196429 3.904003 -2.518373
v 3.190737 3.756780 -3.178784
v 3.204077 4.053371 -1.315335
v 2.892434 2.238685 -4.178765
v 3.143253 3.223503 -3.182307
v 3.187234 3.986331 -1.914100
v 3.086324 3.234202 -4.082110
v 2.811980 1.949116 -1.559428
v 2.799809 1.618510 -1.824557
v 3.198146 3.955236 -2.264572
vt 0.636875 0.084306
vt 0.634740 0.141982
vt 0.491845 0.062342
vt 0.475813 0.624777
vt 0.537500 0.748102
vt 0.421744 0.680988
vt 0.626794 0.638640
vt 0.129519 0.362933
vt 0.087495 0.278780
vt 0.370550 0.301847
vt 0.548874 0.958566
vt 0.451169 0.943591
vt 0.533339 0.906008
vt 0.268401 0.670308
vt 0.024527 0.621874
vt 0.194436 0.597697
vt 0.437911 0.868594
vt 0.313272 0.894087
vt 0.196730 0.186321
vt 0.333064 0.119036
vt 0.150767 0.462439
vt 0.000000 0.482663
vt 0.014547 0.395141
vt 0.033072 0.361273
vt 0.197227 0.527947
vt 0.609538 0.293411
vt 0.670750 0.219947
vt 0.725565 0.287611
vt 0.587313 0.041007
vt 0.700887 0.535373
vt 0.793541 0.671182
vt 0.619186 0.495400
vt 0.669254 0.023221
vt 0.743537 0.066569
vt 0.741311 0.334662
vt 0.696166 0.362609
vt 0.763111 0.376297
vt 0.655891 0.418326
vt 0.807369 0.352156
vt 0.651674 0.974956
vt 0.712560 0.889298
vt 0.776955 0.121648
vt 0.808937 0.201698
vt 0.821365 0.100268
vt 0.749923 0.100647
vt 0.880910 0.439911
vt 0.822890 0.988544
vt 0.862325 0.057091
vt 0.748111 0.009456
vt 0.796080 0.029465
vt 0.833175 0.000000
vt 0.908094 0.945873
vt 0.853071 0.898137
vt 0.574482 0.438812
vt 0.398533 0.466472
vt 0.499877 0.359046
vt 0.420100 0.530093
vt 0.322022 0.560987
vt 0.917712 0.009514
vt 0.415529 0.828084
vt 0.744840 0.770378
vt 0.907806 0.799259
vt 0.587764 0.852536
vt 1.000000 0.357463
vt 0.999249 0.449019
vt 0.946011 0.163442
vt 0.983188 0.260453
vt 0.864151 0.177925
vt 0.917496 0.060779
vt 0.934118 0.112958
vt 1.000000 0.689921
vt 0.995636 0.516445
vt 0.964587 1.000000
vt 0.501029 0.185541
vt 0.799208 0.488441
vt 0.984098 0.845856
vt 0.867180 0.261902
vt 0.194671 0.828828
vt 0.093623 0.745571
vt 0.999705 0.756318
vn 0.9607 -0.2561 -0.1068
vn 0.9770 -0.2009 0.0720
vn 0.9793 -0.1911 0.0662
vn 0.9823 -0.1713 -0.0762
vn 0.9718 -0.2356 0.0057
vn 0.9959 -0.0899 0.0138
vn 0.9514 -0.3036 0.0513
vn 0.9726 -0.1751 -0.1530
vn 0.9958 -0.0910 -0.0118
vn 0.9884 -0.0832 -0.1270
vn 0.9947 -0.0597 0.0838
vn 0.9794 -0.1806 -0.0905
vn 0.9537 -0.2533 -0.1619
vn 0.9920 -0.1261 0.0042
vn 0.9859 -0.1673 -0.0067
vn 0.9806 -0.1959 0.0003
vn 0.9574 -0.2597 -0.1260
vn 0.9534 -0.2576 -0.1570
vn 0.9835 -0.1718 -0.0572
vn 0.9880 -0.1517 -0.0302
vn 0.9879 -0.1513 -0.0344
vn 0.9927 -0.1027 -0.0638
vn 0.9777 -0.2098 -0.0057
vn 0.9765 -0.1942 -0.0935
vn 0.9700 -0.1708 -0.1730
vn 0.9774 -0.1717 -0.1231
vn 0.9919 -0.1073 -0.0677
vn 0.9927 -0.1190 0.0179
vn 0.9842 -0.1618 -0.0721
vn 0.9825 -0.1862 -0.0082
vn 0.9553 -0.2835 -0.0834
vn 0.9620 -0.2469 0.1162
vn 0.9802 -0.1949 -0.0353
vn 0.9432 -0.3245 0.0709
vn 0.9588 -0.2711 -0.0854
vn 0.9921 -0.1202 0.0359
vn 0.9903 -0.1344 0.0356
vn 0.9855 -0.1669 -0.0297
vn 0.9666 -0.2511 0.0514
vn 0.9862 -0.1625 0.0324
vn 0.9500 -0.2808 0.1368
vn 0.9755 -0.2051 0.0800
vn 0.9777 -0.2098 -0.0055
vn 0.9683 -0.2443 0.0525
vn 0.9869 -0.0951 0.1303
vn 0.9814 -0.1832 -0.0565
vn 0.9796 -0.1998 0.0232
vn 0.9754 -0.2191 0.0223
vn 0.9764 -0.1943 -0.0938
vn 0.9706 -0.2112 -0.1152
vn 0.9756 -0.2127 -0.0545
vn 0.9915 -0.1132 -0.0648
vn 0.9861 -0.1382 -0.0923
vn 0.9676 -0.1507 0.2025
vn 0.9835 -0.1677 0.0684
vn 0.9939 -0.1091 0.0157
vn 0.9937 -0.0964 0.0574
vn 0.9942 -0.1068 0.0122
vn 0.9898 -0.1382 0.0341
vn 0.9860 -0.1637 0.0307
vn 0.9789 -0.1754 0.1046
vn 0.9672 -0.2348 0.0970
vn 0.9859 -0.1610 0.0447
vn 0.9680 -0.2361 0.0854
vn 0.9677 -0.2219 -0.1196
vn 0.9727 -0.2146 -0.0885
vn 0.9901 -0.1397 -0.0130
vn 0.9820 -0.1796 0.0578
vn 0.9927 -0.1204 -0.0001
vn 0.9832 -0.1818 0.0146
vn 0.9876 -0.1319 0.0850
vn 0.9907 -0.1358 -0.0118
vn 0.9889 -0.1381 -0.0547
vn 0.9976 -0.0686 -0.0073
vn 0.9969 -0.0778 -0.0078
vn 0.9838 -0.1707 -0.0542
vn 0.9835 -0.1733 -0.0509
vn 0.9995 -0.0192 -0.0260
vn 0.9818 -0.1900 -0.0063
vn 0.9829 -0.1842 0.0061
vn 0.9825 -0.1305 -0.1326
vn 0.9904 -0.1081 -0.0860
vn 0.9918 -0.0999 -0.0795
vn 0.9886 -0.1507 0.0078
vn 0.9877 -0.1506 -0.0420
vn 0.9727 -0.2167 -0.0834
vn 0.9843 -0.1743 0.0261
vn 0.9820 -0.1854 -0.0370
vn 0.9949 -0.0735 -0.0696
vn 0.9943 -0.0542 -0.0924
vn 0.9873 -0.1553 -0.0337
vn 0.9880 -0.1525 -0.0227
vn 0.9675 -0.2374 0.0866
vn 0.9542 -0.2879 0.0810
vn 0.9656 -0.2289 0.1233
vn 0.9780 -0.1973 0.0681
vn 0.9761 -0.2170 0.0156
vn 0.9845 -0.1121 -0.1346
vn 0.9726 -0.1760 -0.1517
vn 0.9968 -0.0732 0.0314
vn 0.9898 -0.1230 -0.0713
vn 0.9924 -0.0951 -0.0784
vn 0.9857 -0.1219 -0.1160
vn 0.9664 -0.2333 -0.1079
vn 0.9631 -0.2295 -0.1406
vn 0.9610 -0.2342 -0.1472
vn 0.9618 -0.2414 -0.1293
vn 0.9608 -0.2350 -0.1469
vn 0.9882 -0.1164 0.0998
vn 0.9881 -0.0980 0.1185
vn 0.9860 -0.1393 -0.0920
vn 0.9856 -0.1315 -0.1067
vn 0.9917 -0.1278 0.0150
vn 0.9861 -0.1383 -0.0926
vn 0.9899 -0.1149 -0.0827
vn 0.9853 -0.1674 -0.0344
vn 0.9854 -0.1684 -0.0246
vn 0.9851 -0.1698 -0.0269
vn 0.9963 -0.0863 -0.0043
vn 0.9998 -0.0032 -0.0213
vn 0.9956 -0.0901 0.0259
vn 0.9977 -0.0677 0.0050
vn 0.9979 -0.0642 0.0062
vn 0.9988 -0.0355 0.0342
vn 0.9877 -0.0993 -0.1210
vn 0.9870 -0.1362 -0.0849
usemtl None
s off
f 1/1/1 2/2/1 3/3/1
f 4/4/2 5/5/2 6/6/2
f 4/4/3 7/7/3 5/5/3
f 8/8/4 9/9/4 10/10/4
f 11/11/5 13/12/5 12/13/5
f 14/14/6 16/15/6 15/16/6
f 17/17/7 13/12/7 18/18/7
f 19/19/8 20/20/8 10/10/8
f 21/21/9 23/22/9 22/23/9
f 8/8/10 24/24/10 9/9/10
f 25/25/11 15/16/11 16/15/11
f 26/26/12 28/27/12 27/28/12
f 1/1/13 3/3/13 29/29/13
f 30/30/14 31/31/14 7/7/14
f 32/32/15 30/30/15 7/7/15
f 32/32/16 7/7/16 4/4/16
f 33/33/17 34/34/17 29/29/17
f 1/1/18 29/29/18 34/34/18
f 26/26/19 27/28/19 35/35/19
f 36/36/20 38/37/20 37/38/20
f 35/35/21 38/37/21 36/36/21
f 39/39/22 38/37/22 35/35/22
f 40/40/23 12/13/23 41/41/23
f 42/42/24 43/43/24 2/2/24
f 43/43/25 28/27/25 2/2/25
f 44/44/26 42/42/26 45/45/26
f 39/39/27 46/46/27 38/37/27
f 40/40/28 41/41/28 47/47/28
f 45/45/29 34/34/29 44/44/29
f 44/44/30 34/34/30 48/48/30
f 49/49/31 34/34/31 33/33/31
f 50/50/32 51/51/32 48/48/32
f 50/50/33 48/48/33 34/34/33
f 50/50/34 49/49/34 51/51/34
f 49/49/35 50/50/35 34/34/35
f 52/52/36 47/47/36 53/53/36
f 53/53/37 47/47/37 41/41/37
f 54/54/38 55/55/38 56/56/38
f 57/57/39 4/4/39 6/6/39
f 57/57/40 6/6/40 58/58/40
f 59/59/41 48/48/41 51/51/41
f 60/60/42 6/6/42 5/5/42
f 40/40/43 11/11/43 12/13/43
f 60/60/44 5/5/44 17/17/44
f 61/61/45 62/62/45 63/63/45
f 63/63/46 62/62/46 41/41/46
f 63/63/47 41/41/47 12/13/47
f 17/17/48 12/13/48 13/12/48
f 42/42/49 2/2/49 45/45/49
f 2/2/50 1/1/50 45/45/50
f 45/45/51 1/1/51 34/34/51
f 64/64/52 65/65/52 46/46/52
f 66/66/53 68/67/53 67/68/53
f 69/69/54 48/48/54 59/59/54
f 69/69/55 70/70/55 48/48/55
f 71/71/56 46/46/56 72/72/56
f 73/73/57 47/47/57 52/52/57
f 46/46/58 65/65/58 72/72/58
f 54/54/59 57/57/59 55/55/59
f 57/57/60 58/58/60 25/25/60
f 14/14/61 15/16/61 25/25/61
f 14/14/61 25/25/61 58/58/61
f 14/14/62 58/58/62 6/6/62
f 55/55/63 57/57/63 25/25/63
f 60/60/64 14/14/64 6/6/64
f 26/26/65 10/10/65 74/74/65
f 26/26/66 56/56/66 10/10/66
f 62/62/67 53/53/67 41/41/67
f 63/63/68 5/5/68 61/61/68
f 31/31/69 30/30/69 75/75/69
f 31/31/70 61/61/70 5/5/70
f 31/31/71 5/5/71 7/7/71
f 38/37/72 46/46/72 37/38/72
f 75/75/73 37/38/73 46/46/73
f 71/71/74 31/31/74 46/46/74
f 75/75/75 46/46/75 31/31/75
f 56/56/76 26/26/76 36/36/76
f 35/35/77 36/36/77 26/26/77
f 52/52/78 76/76/78 73/73/78
f 57/57/79 54/54/79 32/32/79
f 32/32/80 4/4/80 57/57/80
f 77/77/81 27/28/81 28/27/81
f 27/28/82 77/77/82 35/35/82
f 39/39/83 35/35/83 77/77/83
f 21/21/84 25/25/84 16/15/84
f 8/8/85 10/10/85 21/21/85
f 21/21/86 10/10/86 56/56/86
f 55/55/87 25/25/87 21/21/87
f 55/55/88 21/21/88 56/56/88
f 24/24/89 8/8/89 21/21/89
f 21/21/90 22/23/90 24/24/90
f 75/75/91 30/30/91 32/32/91
f 75/75/92 32/32/92 37/38/92
f 14/14/93 60/60/93 78/78/93
f 17/17/94 18/18/94 60/60/94
f 60/60/95 18/18/95 78/78/95
f 63/63/96 17/17/96 5/5/96
f 17/17/97 63/63/97 12/13/97
f 42/42/98 67/68/98 43/43/98
f 9/9/99 19/19/99 10/10/99
f 21/21/100 16/15/100 23/22/100
f 64/64/101 46/46/101 77/77/101
f 46/46/102 39/39/102 77/77/102
f 77/77/103 67/68/103 68/67/103
f 74/74/104 28/27/104 26/26/104
f 74/74/105 2/2/105 28/27/105
f 74/74/106 3/3/106 2/2/106
f 74/74/107 10/10/107 20/20/107
f 74/74/108 20/20/108 3/3/108
f 14/14/109 78/78/109 79/79/109
f 79/79/110 16/15/110 14/14/110
f 44/44/111 67/68/111 42/42/111
f 70/70/112 66/66/112 44/44/112
f 44/44/113 48/48/113 70/70/113
f 44/44/114 66/66/114 67/68/114
f 68/67/115 64/64/115 77/77/115
f 36/36/116 37/38/116 56/56/116
f 37/38/117 32/32/117 54/54/117
f 54/54/118 56/56/118 37/38/118
f 62/62/119 52/52/119 53/53/119
f 76/76/120 52/52/120 62/62/120
f 61/61/121 31/31/121 62/62/121
f 71/71/122 62/62/122 31/31/122
f 71/71/123 80/80/123 62/62/123
f 62/62/124 80/80/124 76/76/124
f 67/68/125 77/77/125 43/43/125
f 43/43/126 77/77/126 28/27/126
