# Blender v2.79 (sub 0) OBJ File: ''
# www.blender.org
mtllib crack_only_163.mtl
o crack_only_163
v 2.763621 1.764718 -4.349746
v 2.840543 2.139588 -4.198678
v 2.871641 1.994088 -3.670226
v 2.799367 2.130597 -4.643054
v 3.101614 4.070952 -4.417204
v 3.065939 3.703095 -4.635799
v 3.125654 4.411802 -4.766783
v 3.050683 3.526865 -4.445957
v 3.073134 3.750359 -4.204043
v 3.169605 4.994400 -3.825459
v 3.145627 4.578222 -3.978532
v 3.160672 4.959631 -4.179752
v 2.796584 1.395030 -3.318127
v 2.756691 1.262459 -3.634164
v 3.015035 2.923526 -2.503759
v 2.982519 2.779136 -2.056451
v 2.926774 2.319106 -2.416481
v 2.949581 2.881401 -4.551380
v 2.988881 3.148190 -4.477452
v 3.026374 3.218162 -3.981387
v 2.958183 2.939232 -4.675133
v 3.022592 3.328048 -4.693195
v 2.820903 1.681895 -1.943267
v 2.876632 2.009800 -2.213723
v 2.824217 1.943800 -1.561242
v 2.804965 1.359984 -2.204469
v 2.876471 2.072197 -1.921746
v 2.929703 2.507806 -1.685103
v 3.165079 5.377314 -4.018686
v 3.162902 5.472834 -3.646035
v 2.852240 1.747959 -2.470242
v 3.155144 5.323230 -4.388115
v 3.209108 4.540365 -1.346843
v 3.210023 4.600339 -1.710770
v 3.143218 4.996675 -1.396680
v 3.170467 4.956165 -1.924996
v 3.185036 4.588883 -2.457690
v 3.177001 4.919853 -2.459556
v 3.179368 4.854503 -4.580794
v 3.090329 3.801571 -3.872562
v 3.119994 3.934197 -3.461508
v 3.159235 4.256855 -2.888292
v 3.033590 5.535454 -1.761925
v 3.070709 3.341359 -2.578900
v 3.145821 3.988349 -2.685412
v 3.064239 3.292856 -2.075369
v 2.992235 5.607883 -1.399359
v 2.819843 1.405307 -2.874075
v 2.797923 1.176088 -2.654073
v 3.153009 4.024771 -1.943965
v 3.060862 6.445951 -3.807883
v 3.125943 5.897401 -3.960934
v 3.108265 6.042752 -3.478606
v 2.848457 6.063087 -1.779847
v 2.877380 2.301749 -1.372158
v 3.114431 3.721235 -2.992244
v 3.148384 5.577511 -3.277478
v 3.086516 3.437533 -1.910313
v 3.001347 2.838909 -2.965711
v 2.987551 2.770405 -3.363349
v 3.087362 3.560921 -3.414239
v 2.860674 1.752648 -2.839279
v 2.795568 1.164770 -2.800374
v 2.883145 2.530592 -4.884615
v 3.028492 3.162694 -5.066126
v 2.748743 1.459037 -4.014369
v 2.786497 1.138755 -3.110868
v 2.804802 1.617676 -1.824252
v 2.941961 2.574650 -3.783132
v 2.777636 1.166775 -3.280835
v 3.097766 5.380330 -2.196355
v 3.054829 5.536572 -2.140818
v 3.102837 5.679247 -2.898223
v 3.154892 5.287251 -3.083472
v 3.143084 5.291224 -2.692362
v 3.019905 5.850708 -2.511312
v 3.062845 5.794684 -2.742491
v 2.990324 5.893398 -2.348300
v 3.043725 5.612716 -2.232355
v 2.958099 5.889253 -2.031568
v 3.067040 5.574977 -2.375256
v 3.100624 5.801038 -2.999627
v 3.067628 5.897652 -2.865997
v 2.807477 6.006684 -1.417013
v 2.761314 6.096560 -1.449712
v 3.115836 5.834828 -4.332879
v 3.054732 6.359851 -4.275770
v 3.094201 6.007977 -4.311169
v 3.181703 4.104184 -1.321114
v 2.681843 6.220260 -1.464634
v 3.169231 5.198078 -3.405587
v 3.167491 5.098436 -3.315747
v 3.167886 4.919056 -3.154693
v 3.091978 6.178309 -3.447693
v 3.091461 6.099255 -3.326620
v 3.086324 5.996533 -3.158637
v 3.028844 6.595710 -4.286462
v 2.770492 6.195400 -1.721807
v 3.060218 5.973472 -2.872962
v 3.032309 6.001788 -2.715384
v 2.947128 6.082142 -2.438166
v 2.856398 6.144454 -2.094918
v 3.169262 5.038802 -2.949621
v 3.059416 3.220413 -1.259660
v 2.976018 2.689620 -1.261204
v 3.063413 3.699301 -5.010009
vt 0.761860 0.086594
vt 0.736293 0.161302
vt 0.595418 0.147331
vt 0.850146 0.148245
vt 0.860467 0.520624
vt 0.903845 0.445616
vt 0.962315 0.576101
vt 0.848831 0.417158
vt 0.794404 0.465499
vt 0.740410 0.709963
vt 0.765311 0.627529
vt 0.830341 0.694399
vt 0.483764 0.043103
vt 0.560327 0.009994
vt 0.328019 0.352543
vt 0.207770 0.336583
vt 0.284267 0.240558
vt 0.853191 0.292515
vt 0.843567 0.344798
vt 0.718501 0.370661
vt 0.887076 0.300303
vt 0.905456 0.373324
vt 0.139985 0.132139
vt 0.221171 0.187250
vt 0.050740 0.191237
vt 0.196005 0.064760
vt 0.148189 0.206425
vt 0.102589 0.294709
vt 0.803345 0.777277
vt 0.710738 0.804742
vt 0.278023 0.131302
vt 0.896499 0.757683
vt 0.087063 0.687281
vt 0.182792 0.689364
vt 0.115351 0.771942
vt 0.250032 0.750959
vt 0.374491 0.668203
vt 0.386370 0.730565
vt 0.929998 0.664438
vt 0.710950 0.483604
vt 0.609890 0.519111
vt 0.473710 0.594597
vt 0.227452 0.864061
vt 0.362050 0.429570
vt 0.412161 0.549068
vt 0.230766 0.433180
vt 0.136462 0.886829
vt 0.369955 0.056356
vt 0.305319 0.018654
vt 0.222651 0.574761
vt 0.785541 0.983962
vt 0.687092 0.916367
vt 0.806273 0.876755
vt 0.249441 0.962723
vt 0.014695 0.263666
vt 0.481746 0.490833
vt 0.619445 0.833803
vt 0.193393 0.464704
vt 0.443910 0.324835
vt 0.543806 0.301797
vt 0.584678 0.449832
vt 0.373191 0.122844
vt 0.342566 0.012803
vt 0.926517 0.217748
vt 0.995739 0.332689
vt 0.664924 0.037411
vt 0.421527 0.000000
vt 0.107064 0.123010
vt 0.644857 0.254126
vt 0.466193 0.000954
vt 0.334184 0.823923
vt 0.325093 0.854708
vt 0.525153 0.862512
vt 0.559520 0.783989
vt 0.458956 0.794634
vt 0.431128 0.904486
vt 0.488881 0.888149
vt 0.390517 0.916608
vt 0.308718 0.923790
vt 0.351228 0.866724
vt 0.386806 0.856032
vt 0.555446 0.882908
vt 0.524244 0.904448
vt 0.153932 0.961198
vt 0.165239 0.977220
vt 0.899780 0.855496
vt 0.902943 0.955840
vt 0.900076 0.888658
vt 0.065244 0.605601
vt 0.172986 1.000000
vt 0.639398 0.759030
vt 0.612827 0.742511
vt 0.565186 0.712763
vt 0.683746 0.942684
vt 0.649856 0.930843
vt 0.603054 0.915717
vt 0.913724 1.000000
vt 0.238717 0.988982
vt 0.528622 0.918557
vt 0.488921 0.927833
vt 0.419965 0.949835
vt 0.333369 0.970096
vt 0.516557 0.740553
vt 0.018328 0.440196
vt 0.000000 0.339856
vt 1.000000 0.435403
vn 0.9818 -0.1604 -0.1019
vn 0.9822 -0.1662 -0.0876
vn 0.9961 -0.0869 -0.0163
vn 0.9957 -0.0929 -0.0066
vn 0.9957 -0.0929 -0.0062
vn 0.9985 -0.0501 -0.0203
vn 0.9858 -0.1577 -0.0583
vn 0.9897 -0.1407 0.0265
vn 0.9788 -0.1852 -0.0870
vn 0.9863 -0.1566 -0.0525
vn 0.9865 -0.1626 0.0186
vn 0.9913 -0.1122 0.0683
vn 0.9914 -0.1083 0.0730
vn 0.9827 -0.1655 0.0835
vn 0.9999 0.0131 0.0025
vn 0.9939 -0.1094 0.0171
vn 0.9996 -0.0002 -0.0269
vn 0.9890 0.1457 0.0265
vn 0.9901 0.1346 0.0407
vn 0.9997 -0.0009 -0.0251
vn 0.9996 0.0243 0.0106
vn 0.9954 0.0898 -0.0347
vn 0.9840 -0.1558 0.0867
vn 0.9941 -0.1023 -0.0358
vn 0.9988 -0.0475 -0.0153
vn 0.9962 -0.0876 0.0013
vn 0.9974 -0.0651 -0.0316
vn 0.9747 0.2209 0.0333
vn 0.9934 -0.1150 0.0017
vn 0.9688 0.2396 0.0626
vn 0.9680 -0.2453 0.0530
vn 0.9967 -0.0792 0.0168
vn 0.9958 -0.0857 -0.0320
vn 0.9931 0.1175 0.0010
vn 0.9424 0.3320 0.0412
vn 0.9893 -0.1413 0.0375
vn 0.9836 -0.1728 0.0507
vn 0.9933 -0.1155 -0.0011
vn 0.9957 0.0916 0.0132
vn 0.9929 -0.1144 -0.0338
vn 0.9918 -0.1275 -0.0123
vn 0.9918 -0.1275 -0.0124
vn 0.9959 -0.0858 -0.0272
vn 0.9971 -0.0711 -0.0282
vn 0.9959 -0.0773 -0.0469
vn 0.9919 -0.1262 -0.0157
vn 0.9928 -0.1197 -0.0037
vn 0.9897 -0.1403 -0.0277
vn 0.9947 -0.1028 -0.0081
vn 0.9970 0.0766 -0.0138
vn 0.9968 -0.0791 -0.0086
vn 0.9963 -0.0764 -0.0399
vn 0.9764 -0.2083 0.0565
vn 0.9835 -0.1589 0.0860
vn 0.9818 -0.1598 -0.1021
vn 0.9956 0.0930 0.0085
vn 0.9941 -0.1065 -0.0201
vn 0.9906 -0.1164 0.0712
vn 0.9911 -0.1330 -0.0050
vn 0.9987 0.0364 0.0370
vn 0.9846 -0.1742 -0.0129
vn 0.9894 -0.1449 -0.0028
vn 0.9954 -0.0907 -0.0294
vn 0.9858 -0.1381 -0.0960
vn 0.9917 -0.0962 -0.0848
vn 0.9802 -0.1977 0.0127
vn 0.9958 -0.0910 -0.0084
vn 0.9911 -0.1098 0.0748
vn 0.9856 0.1693 0.0005
vn 0.9676 0.2464 0.0550
vn 0.9751 0.2111 0.0687
vn 0.9916 0.0864 0.0959
vn 0.9926 0.1182 0.0288
vn 0.9755 0.1694 0.1401
vn 0.9688 0.2262 0.1015
vn 0.9787 0.1964 0.0590
vn 0.9693 0.2252 0.0987
vn 0.9677 0.2232 0.1171
vn 0.9776 0.1684 0.1262
vn 0.9910 0.0957 0.0933
vn 0.9792 0.1356 0.1510
vn 0.9797 0.1338 0.1495
vn 0.8919 0.4206 0.1661
vn 0.8490 0.4992 0.1735
vn 0.9960 0.0807 -0.0386
vn 0.9918 0.1166 -0.0531
vn 0.9960 0.0794 -0.0404
vn 0.9903 0.1299 -0.0488
vn 0.9980 -0.0632 -0.0079
vn 0.9958 -0.0844 -0.0351
vn 0.9911 0.1278 -0.0365
vn 0.9802 0.1369 0.1430
vn 0.8214 0.5471 0.1613
vn 0.9986 0.0460 0.0263
vn 0.9998 0.0167 -0.0072
vn 0.9999 -0.0116 0.0065
vn 0.9978 -0.0638 0.0172
vn 0.9997 -0.0161 -0.0204
vn 0.9921 0.1029 0.0714
vn 0.9912 0.1145 0.0670
vn 0.9878 0.1174 0.1020
vn 0.9929 0.1187 0.0025
vn 0.9937 0.1076 -0.0328
vn 0.8772 0.4013 0.2636
vn 0.9819 0.1101 0.1541
vn 0.9583 0.2674 0.1010
vn 0.9577 0.2685 0.1035
vn 0.9475 0.2267 0.2254
vn 0.9818 0.1191 0.1479
vn 0.8787 0.4564 0.1400
vn 0.9954 0.0956 0.0075
vn 0.9107 0.3939 0.1247
vn 0.9013 0.4003 0.1656
vn 1.0000 -0.0025 -0.0052
vn 0.9929 -0.1181 0.0141
vn 0.9941 -0.1065 0.0214
vn 0.9937 -0.1123 0.0039
vn 0.9899 -0.1302 -0.0565
vn 0.9893 -0.1459 0.0006
vn 0.9982 0.0604 0.0050
vn 0.9985 0.0440 0.0323
vn 0.9991 0.0181 0.0395
vn 0.9969 0.0735 0.0293
vn 0.9671 0.2482 0.0549
vn 0.9673 0.2399 0.0822
vn 0.9272 0.3313 0.1751
vn 0.9899 -0.1389 -0.0279
vn 0.9933 -0.1134 0.0213
vn 0.9895 0.1274 0.0676
vn 0.9784 0.1688 0.1195
vn 0.9895 0.1058 0.0990
vn 0.9897 -0.1394 0.0321
vn 0.9896 -0.1404 0.0306
vn 0.9893 -0.1428 0.0293
vn 0.9967 0.0238 -0.0780
vn 0.9997 -0.0143 -0.0193
vn 0.9999 -0.0128 0.0007
vn 0.9978 -0.0653 -0.0095
vn 0.9985 -0.0551 -0.0070
vn 0.9996 -0.0205 -0.0185
vn 0.9895 -0.1444 -0.0070
vn 0.9875 -0.1563 0.0213
vn 0.9912 -0.1321 0.0000
vn 0.9890 0.1321 0.0666
vn 0.9778 0.2029 0.0529
vn 0.9663 0.2394 0.0945
vn 0.9681 0.2375 0.0802
vn 0.9848 -0.1735 -0.0096
vn 0.9874 -0.1561 0.0264
vn 0.9692 -0.2464 -0.0002
vn 0.9871 -0.1550 -0.0414
vn 0.9935 -0.1112 -0.0234
vn 0.9896 -0.1253 0.0712
vn 0.9979 -0.0643 -0.0061
vn 0.9964 -0.0850 -0.0059
vn 0.9818 -0.1593 -0.1029
vn 0.9925 -0.1117 -0.0494
vn 0.9946 -0.0907 -0.0500
vn 0.9957 -0.0684 -0.0632
vn 0.9941 -0.1017 -0.0389
vn 0.9914 -0.1271 -0.0298
vn 0.9944 -0.0933 -0.0505
vn 0.9902 -0.1372 -0.0268
vn 0.9927 -0.1205 0.0063
vn 0.9886 -0.1506 -0.0083
vn 0.9905 -0.1292 -0.0473
vn 0.9860 -0.1625 -0.0369
vn 0.9849 -0.1537 -0.0795
vn 0.9890 -0.1424 -0.0410
usemtl None
s off
f 1/1/1 2/2/1 3/3/1
f 1/1/2 4/4/2 2/2/2
f 5/5/3 6/6/3 7/7/3
f 8/8/4 5/5/4 9/9/4
f 8/8/5 6/6/5 5/5/5
f 10/10/6 11/11/6 12/12/6
f 13/13/7 14/14/7 3/3/7
f 15/15/8 16/16/8 17/17/8
f 18/18/9 2/2/9 4/4/9
f 19/19/10 8/8/10 20/20/10
f 19/19/11 21/21/11 22/22/11
f 19/19/11 22/22/11 8/8/11
f 23/23/12 24/24/12 25/25/12
f 24/24/13 23/23/13 26/26/13
f 27/27/14 28/28/14 25/25/14
f 10/10/15 29/29/15 30/30/15
f 24/24/16 26/26/16 31/31/16
f 29/29/17 12/12/17 32/32/17
f 33/33/18 34/34/18 35/35/18
f 34/34/19 36/36/19 35/35/19
f 12/12/20 29/29/20 10/10/20
f 36/36/21 37/37/21 38/38/21
f 37/37/22 36/36/22 34/34/22
f 12/12/23 7/7/23 39/39/23
f 9/9/24 40/40/24 20/20/24
f 12/12/25 11/11/25 7/7/25
f 5/5/26 11/11/26 9/9/26
f 41/41/27 11/11/27 42/42/27
f 43/43/28 35/35/28 36/36/28
f 44/44/29 45/45/29 46/46/29
f 43/43/30 47/47/30 35/35/30
f 27/27/31 25/25/31 24/24/31
f 48/48/32 26/26/32 49/49/32
f 37/37/33 34/34/33 50/50/33
f 51/51/34 53/52/34 52/53/34
f 43/43/35 54/54/35 47/47/35
f 27/27/36 16/16/36 28/28/36
f 28/28/37 55/55/37 25/25/37
f 45/45/38 44/44/38 56/56/38
f 57/57/39 30/30/39 53/52/39
f 46/46/40 50/50/40 58/58/40
f 56/56/41 44/44/41 59/59/41
f 56/56/42 59/59/42 60/60/42
f 45/45/43 56/56/43 41/41/43
f 45/45/44 41/41/44 42/42/44
f 40/40/45 11/11/45 41/41/45
f 56/56/46 60/60/46 61/61/46
f 46/46/47 45/45/47 50/50/47
f 13/13/48 3/3/48 62/62/48
f 48/48/49 49/49/49 63/63/49
f 29/29/50 52/53/50 30/30/50
f 5/5/51 7/7/51 11/11/51
f 40/40/52 9/9/52 11/11/52
f 21/21/53 64/64/53 65/65/53
f 22/22/54 21/21/54 65/65/54
f 66/66/55 1/1/55 3/3/55
f 53/52/56 30/30/56 52/53/56
f 48/48/57 63/63/57 67/67/57
f 23/23/58 25/25/58 68/68/58
f 44/44/59 15/15/59 59/59/59
f 39/39/60 32/32/60 12/12/60
f 18/18/61 64/64/61 21/21/61
f 15/15/62 17/17/62 59/59/62
f 56/56/63 61/61/63 41/41/63
f 69/69/64 3/3/64 2/2/64
f 13/13/65 70/70/65 14/14/65
f 18/18/66 4/4/66 64/64/66
f 8/8/67 9/9/67 20/20/67
f 68/68/68 26/26/68 23/23/68
f 71/71/69 36/36/69 38/38/69
f 71/71/70 72/72/70 43/43/70
f 71/71/71 43/43/71 36/36/71
f 73/73/72 74/74/72 57/57/72
f 74/74/73 73/73/73 75/75/73
f 76/76/74 75/75/74 77/77/74
f 78/78/75 80/79/75 79/80/75
f 81/81/76 75/75/76 76/76/76
f 78/78/77 79/80/77 81/81/77
f 78/78/78 81/81/78 76/76/78
f 73/73/79 77/77/79 75/75/79
f 82/82/80 73/73/80 57/57/80
f 73/73/81 83/83/81 77/77/81
f 77/77/82 83/83/82 76/76/82
f 84/84/83 47/47/83 54/54/83
f 84/84/84 54/54/84 85/85/84
f 86/86/85 29/29/85 32/32/85
f 87/87/86 52/53/86 88/88/86
f 86/86/87 52/53/87 29/29/87
f 86/86/88 88/88/88 52/53/88
f 89/89/89 34/34/89 33/33/89
f 89/89/90 50/50/90 34/34/90
f 87/87/91 51/51/91 52/53/91
f 82/82/92 83/83/92 73/73/92
f 85/85/93 54/54/93 90/90/93
f 91/91/94 30/30/94 57/57/94
f 91/91/95 10/10/95 30/30/95
f 92/92/96 10/10/96 91/91/96
f 92/92/97 11/11/97 10/10/97
f 92/92/98 93/93/98 11/11/98
f 53/52/99 94/94/99 95/95/99
f 95/95/100 57/57/100 53/52/100
f 96/96/101 57/57/101 95/95/101
f 94/94/102 53/52/102 51/51/102
f 97/97/103 51/51/103 87/87/103
f 98/98/104 90/90/104 54/54/104
f 99/99/105 100/100/105 83/83/105
f 80/79/106 78/78/106 101/101/106
f 78/78/107 76/76/107 101/101/107
f 101/101/108 76/76/108 100/100/108
f 83/83/109 100/100/109 76/76/109
f 54/54/110 102/102/110 98/98/110
f 103/103/111 75/75/111 38/38/111
f 102/102/112 54/54/112 80/79/112
f 102/102/113 80/79/113 101/101/113
f 103/103/114 93/93/114 92/92/114
f 48/48/115 62/62/115 26/26/115
f 62/62/116 31/31/116 26/26/116
f 50/50/117 104/104/117 58/58/117
f 18/18/118 19/19/118 20/20/118
f 18/18/119 21/21/119 19/19/119
f 92/92/120 74/74/120 103/103/120
f 74/74/121 91/91/121 57/57/121
f 91/91/122 74/74/122 92/92/122
f 74/74/123 75/75/123 103/103/123
f 80/79/124 43/43/124 72/72/124
f 80/79/125 72/72/125 79/80/125
f 80/79/126 54/54/126 43/43/126
f 50/50/127 89/89/127 104/104/127
f 24/24/128 31/31/128 62/62/128
f 96/96/129 82/82/129 57/57/129
f 96/96/130 83/83/130 82/82/130
f 99/99/131 83/83/131 96/96/131
f 62/62/132 17/17/132 24/24/132
f 27/27/133 24/24/133 17/17/133
f 27/27/134 17/17/134 16/16/134
f 37/37/135 42/42/135 38/38/135
f 103/103/136 38/38/136 42/42/136
f 103/103/137 42/42/137 93/93/137
f 37/37/138 50/50/138 42/42/138
f 45/45/139 42/42/139 50/50/139
f 42/42/140 11/11/140 93/93/140
f 58/58/141 104/104/141 46/46/141
f 15/15/142 46/46/142 16/16/142
f 44/44/143 46/46/143 15/15/143
f 71/71/144 38/38/144 75/75/144
f 81/81/145 71/71/145 75/75/145
f 79/80/146 71/71/146 81/81/146
f 79/80/147 72/72/147 71/71/147
f 28/28/148 46/46/148 104/104/148
f 46/46/149 28/28/149 16/16/149
f 28/28/150 105/105/150 55/55/150
f 28/28/151 104/104/151 105/105/151
f 8/8/152 22/22/152 6/6/152
f 22/22/153 65/65/153 6/6/153
f 106/106/154 6/6/154 65/65/154
f 6/6/155 106/106/155 7/7/155
f 14/14/156 66/66/156 3/3/156
f 13/13/157 62/62/157 48/48/157
f 70/70/158 13/13/158 48/48/158
f 48/48/159 67/67/159 70/70/159
f 20/20/160 40/40/160 41/41/160
f 20/20/161 61/61/161 60/60/161
f 20/20/162 41/41/162 61/61/162
f 62/62/163 3/3/163 60/60/163
f 17/17/164 62/62/164 60/60/164
f 17/17/165 60/60/165 59/59/165
f 69/69/166 60/60/166 3/3/166
f 18/18/167 20/20/167 2/2/167
f 20/20/168 69/69/168 2/2/168
f 69/69/169 20/20/169 60/60/169
