# Blender v2.79 (sub 0) OBJ File: ''
# www.blender.org
mtllib crack_only_153.mtl
o crack_only_153
v 2.761842 1.764886 -4.348624
v 2.838192 2.141298 -4.198661
v 2.873008 1.993587 -3.670026
v 2.798756 2.131088 -4.642985
v 3.169365 5.000507 -3.824207
v 3.139015 4.289890 -3.901068
v 3.163266 4.962130 -4.179320
v 2.799742 1.396456 -3.316749
v 2.758445 1.259983 -3.631054
v 3.166237 5.388718 -4.015789
v 3.169155 5.486182 -3.634883
v 3.156450 5.331296 -4.386801
v 3.211327 4.539879 -1.346326
v 3.212950 4.600835 -1.709920
v 3.144220 4.999661 -1.396892
v 3.173012 4.957869 -1.923065
v 3.194360 4.641646 -2.501544
v 3.184864 4.920126 -2.455828
v 3.183898 4.855261 -4.579606
v 3.126042 4.411680 -4.767035
v 3.039891 5.536854 -1.765597
v 3.017399 5.565899 -1.399467
v 3.176175 4.035066 -1.954931
v 2.937021 2.400183 -2.168758
v 2.987312 2.705547 -3.315031
v 2.863664 1.885789 -2.403320
v 2.822276 1.400462 -2.875785
v 2.800978 1.175379 -2.654601
v 2.806261 1.359848 -2.204495
v 2.863144 1.742887 -2.827099
v 2.798503 1.164275 -2.798579
v 2.976894 2.964669 -4.534966
v 2.881835 2.532098 -4.884313
v 3.030772 3.162211 -5.066586
v 2.748579 1.459061 -4.014255
v 2.788460 1.138254 -3.111542
v 2.942041 2.574611 -3.783167
v 2.779760 1.165931 -3.279533
v 3.188819 4.535797 -2.895551
v 3.179398 4.915408 -2.814924
v 3.186151 4.915282 -3.155419
v 3.145692 5.279330 -2.682898
v 3.169707 5.203092 -3.410855
v 3.152496 5.656358 -3.240964
v 3.114961 5.832442 -4.332634
v 3.184574 4.103555 -1.320446
v 2.956941 5.795393 -1.662705
v 2.936547 5.817016 -1.401846
v 3.003244 5.763515 -2.004178
v 3.079706 5.467292 -2.156864
v 3.098009 5.623126 -2.650006
v 3.068301 5.674843 -2.412847
v 3.143122 5.868081 -3.645494
v 3.119742 6.081405 -4.038812
v 3.032083 5.719341 -2.226657
v 3.188617 4.349258 -2.809683
v 3.062711 3.591671 -4.615088
v 3.101558 3.430276 -1.901425
v 3.059834 3.220493 -1.259552
v 3.017204 3.093118 -4.025484
v 3.056105 3.334136 -3.905005
v 3.118285 3.698199 -3.432396
v 3.062303 3.699208 -5.009485
v 3.083419 6.147009 -4.295610
v 3.145852 3.779358 -2.901129
v 2.870589 2.076056 -1.920623
v 3.051832 3.092427 -2.055966
v 2.978523 2.689289 -1.260665
v 2.876477 2.302134 -1.372350
v 2.822856 1.944391 -1.561040
v 2.804812 1.617675 -1.824251
vt 0.771044 0.098786
vt 0.743543 0.180013
vt 0.602375 0.162566
vt 0.858167 0.167081
vt 0.732415 0.777002
vt 0.730994 0.629401
vt 0.823122 0.760667
vt 0.493086 0.048099
vt 0.570294 0.012378
vt 0.793607 0.851946
vt 0.697998 0.880971
vt 0.887856 0.831305
vt 0.077650 0.741784
vt 0.173529 0.745651
vt 0.104504 0.834256
vt 0.239361 0.813422
vt 0.379523 0.735081
vt 0.376043 0.793134
vt 0.958646 0.633695
vt 0.923465 0.729431
vt 0.215969 0.934754
vt 0.122129 0.949226
vt 0.219946 0.623679
vt 0.226230 0.281958
vt 0.271480 0.170483
vt 0.531899 0.317671
vt 0.379143 0.059554
vt 0.204279 0.067050
vt 0.315180 0.018543
vt 0.376817 0.131151
vt 0.352090 0.012833
vt 0.855229 0.341710
vt 0.932621 0.244108
vt 0.998672 0.369955
vt 0.675384 0.043984
vt 0.432264 0.000000
vt 0.649064 0.279402
vt 0.476548 0.001616
vt 0.478269 0.704007
vt 0.556864 0.775546
vt 0.468790 0.783603
vt 0.445542 0.861024
vt 0.631563 0.828310
vt 0.601201 0.925053
vt 0.888861 0.934926
vt 0.057875 0.652830
vt 0.197094 0.989532
vt 0.130262 1.000000
vt 0.284473 0.975243
vt 0.315098 0.911517
vt 0.447334 0.931866
vt 0.387534 0.947866
vt 0.712187 0.958746
vt 0.820320 0.992929
vt 0.340701 0.961130
vt 0.450466 0.667837
vt 0.894757 0.468873
vt 0.015642 0.472473
vt 0.187970 0.500517
vt 0.727294 0.380414
vt 0.703357 0.432929
vt 0.592024 0.519180
vt 1.000000 0.481534
vt 0.888709 1.000000
vt 0.457035 0.548619
vt 0.152322 0.220963
vt 0.217814 0.427279
vt 0.000000 0.363037
vt 0.017275 0.280326
vt 0.055356 0.202174
vt 0.113647 0.128873
vn 0.9818 -0.1560 -0.1083
vn 0.9826 -0.1661 -0.0834
vn 0.9991 -0.0413 -0.0127
vn 0.9857 -0.1572 -0.0613
vn 1.0000 0.0038 -0.0086
vn 0.9996 0.0033 -0.0269
vn 0.9886 0.1475 0.0291
vn 0.9897 0.1366 0.0433
vn 0.9999 -0.0004 -0.0171
vn 0.9993 0.0308 0.0200
vn 0.9948 0.1004 -0.0182
vn 0.9811 -0.1683 0.0955
vn 0.9988 -0.0448 -0.0213
vn 0.9760 0.2145 0.0364
vn 0.9749 0.2185 0.0426
vn 0.9982 -0.0535 -0.0262
vn 0.9896 -0.1435 0.0052
vn 0.9970 -0.0754 0.0192
vn 0.9898 -0.1391 -0.0298
vn 0.9946 -0.1031 -0.0092
vn 0.9740 -0.2260 0.0148
vn 0.9814 -0.1595 -0.1070
vn 0.9939 -0.1075 -0.0230
vn 0.9983 0.0412 0.0405
vn 0.9852 -0.1371 -0.1032
vn 0.9912 -0.0999 -0.0868
vn 0.9996 0.0206 0.0198
vn 0.9950 0.0981 -0.0164
vn 1.0000 0.0009 -0.0013
vn 0.9990 0.0393 -0.0201
vn 0.9992 0.0264 0.0309
vn 0.9954 0.0867 -0.0397
vn 0.9981 -0.0615 -0.0059
vn 0.9981 -0.0621 -0.0065
vn 0.9506 0.3065 0.0489
vn 0.9736 0.2204 0.0599
vn 0.9872 0.1278 0.0958
vn 0.9975 0.0674 -0.0228
vn 0.9975 0.0661 -0.0246
vn 0.9954 0.0645 -0.0708
vn 0.9745 0.2077 0.0851
vn 0.9988 -0.0214 -0.0442
vn 0.9988 -0.0394 -0.0301
vn 0.9988 -0.0230 -0.0438
vn 0.9925 -0.1208 0.0164
vn 0.9976 0.0684 0.0127
vn 0.9963 -0.0818 -0.0264
vn 0.9962 0.0851 0.0197
vn 0.9924 -0.1202 0.0252
vn 0.9902 -0.1397 0.0020
vn 0.9828 -0.1730 -0.0653
vn 0.9976 0.0507 0.0464
vn 0.9989 0.0436 -0.0152
vn 0.9942 -0.0860 -0.0646
vn 0.9661 0.2200 0.1353
vn 0.9870 0.1436 0.0725
vn 0.9860 0.1515 0.0696
vn 0.9829 0.1841 0.0088
vn 0.9762 0.2075 0.0625
vn 0.9982 -0.0569 -0.0165
vn 0.9964 -0.0813 -0.0232
vn 0.9814 -0.1590 -0.1079
vn 0.9960 -0.0863 -0.0220
vn 0.9925 -0.1114 -0.0497
vn 0.9943 -0.0942 -0.0500
vn 0.9954 -0.0714 -0.0633
vn 0.9875 0.1121 -0.1110
vn 0.9992 0.0366 -0.0157
vn 0.9993 0.0295 -0.0220
vn 0.9997 -0.0252 0.0053
vn 0.9999 -0.0067 -0.0123
vn 0.9968 -0.0677 -0.0414
vn 0.9973 -0.0729 -0.0123
vn 0.9968 -0.0681 -0.0416
vn 0.9853 -0.1634 0.0503
vn 0.9914 -0.1312 0.0037
vn 0.9911 -0.1261 -0.0432
vn 0.9883 -0.1521 0.0145
vn 0.9870 0.1275 0.0982
vn 0.9948 -0.0967 0.0314
vn 0.9948 -0.0992 0.0248
vn 0.9865 -0.1636 -0.0003
vn 0.9846 -0.1700 0.0415
vn 0.9688 -0.2453 -0.0350
vn 0.9884 -0.1513 0.0144
vn 0.9836 -0.1661 0.0697
vn 0.9834 -0.1742 0.0508
vn 0.9896 -0.1436 -0.0066
vn 0.9892 -0.1418 -0.0357
vn 0.9850 -0.1656 -0.0489
vn 0.9933 -0.1099 0.0359
vn 0.9892 -0.1433 -0.0311
vn 0.9898 -0.1292 -0.0596
vn 0.9906 -0.1339 -0.0272
vn 0.9905 -0.1343 -0.0309
vn 0.9895 -0.1380 -0.0435
vn 0.9833 -0.1790 -0.0327
vn 0.9767 -0.1981 -0.0821
vn 0.9781 -0.2079 -0.0087
vn 0.9892 -0.1407 -0.0418
vn 0.9886 -0.1238 0.0859
vn 0.9885 -0.1235 0.0875
vn 0.9903 -0.1288 0.0525
vn 0.9556 0.2925 0.0355
vn 0.9583 0.2656 0.1052
usemtl None
s off
f 1/1/1 2/2/1 3/3/1
f 1/1/2 4/4/2 2/2/2
f 5/5/3 6/6/3 7/7/3
f 8/8/4 9/9/4 3/3/4
f 5/5/5 10/10/5 11/11/5
f 10/10/6 7/7/6 12/12/6
f 13/13/7 14/14/7 15/15/7
f 14/14/8 16/16/8 15/15/8
f 7/7/9 10/10/9 5/5/9
f 16/16/10 17/17/10 18/18/10
f 17/17/11 16/16/11 14/14/11
f 7/7/12 20/19/12 19/20/12
f 7/7/13 6/6/13 20/19/13
f 21/21/14 15/15/14 16/16/14
f 21/21/15 22/22/15 15/15/15
f 17/17/16 14/14/16 23/23/16
f 24/24/17 26/25/17 25/26/17
f 27/27/18 29/28/18 28/29/18
f 8/8/19 3/3/19 30/30/19
f 27/27/20 28/29/20 31/31/20
f 32/32/21 33/33/21 34/34/21
f 35/35/22 1/1/22 3/3/22
f 27/27/23 31/31/23 36/36/23
f 19/20/24 12/12/24 7/7/24
f 37/37/25 3/3/25 2/2/25
f 8/8/26 38/38/26 9/9/26
f 39/39/27 41/40/27 40/41/27
f 40/41/28 42/42/28 18/18/28
f 43/43/29 5/5/29 11/11/29
f 43/43/30 41/40/30 5/5/30
f 43/43/31 11/11/31 44/44/31
f 45/45/32 10/10/32 12/12/32
f 46/46/33 14/14/33 13/13/33
f 46/46/34 23/23/34 14/14/34
f 22/22/35 47/47/35 48/48/35
f 49/49/36 21/21/36 50/50/36
f 51/51/37 52/52/37 42/42/37
f 53/53/38 11/11/38 54/54/38
f 11/11/39 10/10/39 54/54/39
f 45/45/40 54/54/40 10/10/40
f 49/49/41 50/50/41 55/55/41
f 56/56/42 6/6/42 39/39/42
f 41/40/43 6/6/43 5/5/43
f 41/40/44 39/39/44 6/6/44
f 27/27/45 30/30/45 29/28/45
f 53/53/46 44/44/46 11/11/46
f 6/6/47 57/57/47 20/19/47
f 42/42/48 40/41/48 41/40/48
f 23/23/49 59/58/49 58/59/49
f 23/23/50 46/46/50 59/58/50
f 60/60/51 37/37/51 2/2/51
f 42/42/52 41/40/52 44/44/52
f 43/43/53 44/44/53 41/40/53
f 61/61/54 6/6/54 62/62/54
f 55/55/55 50/50/55 52/52/55
f 52/52/56 50/50/56 42/42/56
f 50/50/57 18/18/57 42/42/57
f 50/50/58 16/16/58 18/18/58
f 50/50/59 21/21/59 16/16/59
f 63/63/60 57/57/60 34/34/60
f 57/57/61 63/63/61 20/19/61
f 9/9/62 35/35/62 3/3/62
f 57/57/63 6/6/63 61/61/63
f 8/8/64 30/30/64 27/27/64
f 38/38/65 8/8/65 27/27/65
f 27/27/66 36/36/66 38/38/66
f 45/45/67 64/64/67 54/54/67
f 40/41/68 18/18/68 17/17/68
f 40/41/69 17/17/69 39/39/69
f 56/56/70 17/17/70 23/23/70
f 17/17/71 56/56/71 39/39/71
f 65/65/72 62/62/72 6/6/72
f 65/65/73 56/56/73 23/23/73
f 6/6/74 56/56/74 65/65/74
f 66/66/75 26/25/75 24/24/75
f 67/67/76 65/65/76 23/23/76
f 23/23/77 58/59/77 67/67/77
f 58/59/78 59/58/78 67/67/78
f 51/51/79 42/42/79 44/44/79
f 26/25/80 29/28/80 30/30/80
f 66/66/81 29/28/81 26/25/81
f 24/24/82 25/26/82 67/67/82
f 66/66/83 24/24/83 67/67/83
f 67/67/84 68/68/84 69/69/84
f 67/67/85 59/58/85 68/68/85
f 66/66/86 67/67/86 70/70/86
f 67/67/87 69/69/87 70/70/87
f 65/65/88 67/67/88 25/26/88
f 25/26/89 60/60/89 61/61/89
f 37/37/90 60/60/90 25/26/90
f 26/25/91 30/30/91 25/26/91
f 25/26/92 30/30/92 3/3/92
f 37/37/93 25/26/93 3/3/93
f 61/61/94 62/62/94 25/26/94
f 65/65/95 25/26/95 62/62/95
f 32/32/96 61/61/96 60/60/96
f 32/32/97 60/60/97 2/2/97
f 32/32/98 2/2/98 4/4/98
f 32/32/99 4/4/99 33/33/99
f 32/32/100 57/57/100 61/61/100
f 71/71/101 66/66/101 70/70/101
f 66/66/102 71/71/102 29/28/102
f 57/57/103 32/32/103 34/34/103
f 47/47/104 22/22/104 21/21/104
f 21/21/105 49/49/105 47/47/105
