# Blender v2.79 (sub 0) OBJ File: ''
# www.blender.org
mtllib crack_only_168.mtl
o crack_only_168
v 3.098551 4.071246 -4.418457
v 3.061215 3.707543 -4.635720
v 3.125624 4.411812 -4.766763
v 2.764457 1.764639 -4.350273
v 2.902847 2.427116 -3.923967
v 2.870616 1.994464 -3.670377
v 2.799704 2.130328 -4.643092
v 3.134992 4.998785 -1.396203
v 3.150146 4.190623 -2.024857
v 3.174106 4.920485 -2.460133
v 3.143477 4.577344 -3.979147
v 3.154709 5.323261 -4.388133
v 3.046682 3.527803 -4.442952
v 3.071235 3.749498 -4.204095
v 2.795459 1.394522 -3.318619
v 2.755851 1.263137 -3.634703
v 2.679909 6.272506 -1.677276
v 2.744898 6.282464 -1.923491
v 2.866645 6.009598 -1.766836
v 2.570083 6.343934 -1.491067
v 2.965556 2.968668 -4.528579
v 3.169605 4.994400 -3.825459
v 3.164321 5.371549 -4.015775
v 3.158656 5.462255 -3.640130
v 3.091042 5.434399 -2.288373
v 3.043535 5.478662 -1.729878
v 3.087927 3.800184 -3.874901
v 3.038416 3.348782 -3.925017
v 3.001389 5.539278 -1.400217
v 3.063401 3.334790 -2.576096
v 3.148897 4.222182 -2.773614
v 3.118682 3.832632 -2.318857
v 3.052331 3.216054 -2.044288
v 3.054272 6.444556 -3.810904
v 3.124963 5.885713 -3.961315
v 3.111662 5.986763 -3.499573
v 2.818436 1.408121 -2.873019
v 2.796100 1.176511 -2.653758
v 2.804296 1.360055 -2.204455
v 3.104544 3.722707 -3.000514
v 3.150966 5.556536 -3.282062
v 3.012902 6.222537 -3.113720
v 2.996862 2.842131 -2.957177
v 2.980763 2.773680 -3.364155
v 3.087149 3.634849 -3.423328
v 2.857923 1.751179 -2.836891
v 2.793816 1.165065 -2.801445
v 2.961975 2.937998 -4.674247
v 2.883039 2.530714 -4.884591
v 3.027287 3.162949 -5.065883
v 3.018523 3.326135 -4.693884
v 3.163715 4.063309 -1.323597
v 2.748836 1.459024 -4.014434
v 2.785056 1.139122 -3.110374
v 2.994210 2.835038 -2.257145
v 2.818858 1.683023 -1.944803
v 2.804859 1.617667 -1.824248
v 2.825040 1.943443 -1.561364
v 3.129447 5.375495 -2.735166
v 2.924073 2.320391 -2.415902
v 2.776316 1.167299 -3.281643
v 3.025457 5.824718 -2.509397
v 2.996359 5.862572 -2.351002
v 3.098961 5.765590 -2.989569
v 3.104927 5.646166 -2.892633
v 3.117068 5.814579 -4.335103
v 3.065387 6.304043 -4.278426
v 3.098381 5.985629 -4.314882
v 2.976995 6.839599 -4.288430
v 3.067815 5.798878 -2.775918
v 2.786904 6.035697 -1.426753
v 2.939300 5.931977 -2.064125
v 3.162446 5.107798 -3.321851
v 3.157541 5.197542 -3.076603
v 3.023863 6.482894 -3.539639
v 2.624343 6.408712 -1.796837
v 2.736177 6.372316 -2.144201
v 3.013515 6.696555 -3.845320
v 2.953184 6.169189 -2.791366
v 2.860115 6.250989 -2.482580
v 2.569206 6.412844 -1.623333
v 2.870425 1.977845 -2.249815
v 3.001050 3.091636 -4.038074
v 2.513541 6.429899 -1.498401
v 3.158054 4.923366 -3.155031
v 3.090332 3.489079 -1.778914
v 3.058664 3.220269 -1.259854
v 2.873789 2.073957 -1.921234
v 3.064444 3.699388 -5.010496
v 2.975528 2.689685 -1.261309
v 2.878196 2.301401 -1.371985
vt 0.862368 0.495751
vt 0.904182 0.424151
vt 0.964671 0.548099
vt 0.756255 0.080134
vt 0.672583 0.211395
vt 0.591069 0.139863
vt 0.845315 0.138508
vt 0.122494 0.744063
vt 0.253281 0.581118
vt 0.392566 0.701578
vt 0.902109 0.723089
vt 0.769020 0.599030
vt 0.795123 0.443241
vt 0.847895 0.396761
vt 0.477865 0.040663
vt 0.553779 0.008460
vt 0.240509 0.966828
vt 0.254432 0.916954
vt 0.304332 0.962099
vt 0.194936 0.984666
vt 0.848369 0.293292
vt 0.745470 0.678585
vt 0.808486 0.741746
vt 0.715550 0.768158
vt 0.367524 0.799093
vt 0.225747 0.821956
vt 0.712693 0.461184
vt 0.708276 0.378165
vt 0.143295 0.841685
vt 0.361936 0.411569
vt 0.446484 0.566885
vt 0.315017 0.508510
vt 0.221021 0.404248
vt 0.795928 0.941280
vt 0.699079 0.866774
vt 0.813741 0.836200
vt 0.364213 0.055001
vt 0.190880 0.064105
vt 0.299137 0.018930
vt 0.485612 0.470462
vt 0.627246 0.794748
vt 0.608562 0.919665
vt 0.440757 0.312264
vt 0.542467 0.289035
vt 0.590644 0.443300
vt 0.368081 0.118043
vt 0.336569 0.012925
vt 0.884551 0.283863
vt 0.922751 0.204545
vt 0.993783 0.314155
vt 0.904502 0.353582
vt 0.068702 0.576768
vt 0.658521 0.033782
vt 0.414773 0.000000
vt 0.260955 0.329624
vt 0.136551 0.129456
vt 0.048076 0.186784
vt 0.103102 0.120837
vt 0.480061 0.776552
vt 0.281914 0.232261
vt 0.459717 0.000533
vt 0.438629 0.863794
vt 0.399301 0.874849
vt 0.559882 0.840338
vt 0.530544 0.821317
vt 0.906876 0.813372
vt 0.910572 0.903412
vt 0.908059 0.844849
vt 0.932936 1.000000
vt 0.506202 0.852038
vt 0.167828 0.930702
vt 0.328083 0.895023
vt 0.620567 0.712510
vt 0.561038 0.735276
vt 0.727667 0.955429
vt 0.276050 0.988263
vt 0.364283 0.972473
vt 0.814074 0.985937
vt 0.523601 0.918575
vt 0.447063 0.941560
vt 0.231452 0.993610
vt 0.226140 0.174691
vt 0.727388 0.328617
vt 0.199795 1.000000
vt 0.570805 0.683585
vt 0.163450 0.460725
vt 0.020043 0.425905
vt 0.145520 0.200831
vt 1.000000 0.412695
vt 0.000000 0.329842
vt 0.013270 0.256609
vn 0.9955 -0.0937 -0.0142
vn 0.9848 -0.1365 -0.1076
vn 0.9847 -0.1563 -0.0767
vn 0.9992 -0.0104 0.0375
vn 0.9995 -0.0246 -0.0175
vn 0.9954 -0.0943 -0.0148
vn 0.9954 -0.0944 -0.0130
vn 0.9858 -0.1575 -0.0581
vn 0.8282 0.5068 0.2391
vn 0.8230 0.4822 0.3004
vn 0.9806 -0.1852 -0.0642
vn 0.9997 0.0009 -0.0259
vn 0.9977 -0.0434 -0.0518
vn 0.9998 0.0193 0.0104
vn 0.9711 0.2298 0.0644
vn 0.9882 0.1513 0.0252
vn 0.9939 -0.1052 -0.0342
vn 0.9963 -0.0863 -0.0025
vn 0.9676 0.2398 0.0796
vn 0.9948 -0.1002 -0.0198
vn 0.9941 -0.1086 -0.0035
vn 0.9921 0.1252 0.0012
vn 0.9965 -0.0817 0.0152
vn 0.9456 0.3194 0.0622
vn 0.9956 -0.0934 0.0111
vn 0.9960 0.0898 -0.0023
vn 0.9751 0.1644 0.1491
vn 0.9924 -0.1221 -0.0154
vn 0.9923 -0.1223 -0.0187
vn 0.9967 -0.0772 -0.0250
vn 0.9969 -0.0747 -0.0256
vn 0.9965 -0.0833 -0.0052
vn 0.9900 -0.1390 -0.0255
vn 0.9947 -0.1029 -0.0074
vn 0.9964 -0.0842 -0.0049
vn 0.9963 -0.0764 -0.0388
vn 0.9766 -0.2108 0.0418
vn 0.9970 0.0767 -0.0035
vn 0.9866 -0.1395 0.0844
vn 0.9995 0.0296 -0.0140
vn 0.9822 -0.1595 -0.0994
vn 0.9941 -0.1064 -0.0193
vn 0.9894 -0.1444 -0.0116
vn 0.9926 -0.1075 0.0570
vn 0.9883 0.1374 0.0668
vn 0.9908 -0.1357 0.0024
vn 0.9798 -0.1991 0.0178
vn 0.9907 -0.1358 0.0024
vn 0.9917 -0.0972 -0.0839
vn 0.9805 -0.1958 0.0137
vn 0.9962 0.0866 0.0097
vn 0.9956 -0.0928 -0.0162
vn 0.9934 -0.0958 0.0634
vn 0.9786 0.1973 0.0581
vn 0.9652 0.2313 0.1220
vn 0.9886 0.1215 0.0889
vn 0.9961 0.0802 -0.0361
vn 0.9932 0.1080 -0.0442
vn 0.9961 0.0801 -0.0363
vn 0.9926 0.1135 -0.0426
vn 0.9915 0.1295 -0.0154
vn 0.9803 0.1943 0.0355
vn 0.9864 0.1623 -0.0253
vn 0.9711 0.2124 0.1085
vn 0.9818 0.1467 0.1203
vn 0.7956 0.5891 0.1413
vn 0.8865 0.4521 0.0986
vn 0.9996 0.0242 0.0151
vn 0.9998 0.0195 0.0098
vn 0.9921 0.0754 0.0999
vn 0.9940 0.1056 0.0267
vn 0.9800 0.1802 0.0844
vn 0.8099 0.5371 0.2355
vn 0.8006 0.5653 0.1985
vn 0.9874 0.1554 -0.0312
vn 0.9290 0.2968 0.2212
vn 0.9307 0.3556 0.0860
vn 0.8037 0.5299 0.2707
vn 0.8835 0.4378 0.1666
vn 0.8887 0.4358 0.1423
vn 0.8048 0.5415 0.2429
vn 0.9932 -0.1157 0.0127
vn 0.9943 -0.1050 0.0194
vn 0.9912 -0.1264 -0.0400
vn 0.9879 -0.1517 -0.0334
vn 0.7914 0.5443 0.2783
vn 0.9734 0.1833 0.1371
vn 0.9816 0.1705 0.0859
vn 0.9994 -0.0347 -0.0031
vn 0.9994 -0.0257 -0.0232
vn 0.9998 -0.0185 -0.0099
vn 0.9968 -0.0753 -0.0267
vn 0.9778 0.1558 0.1403
vn 0.9819 0.1536 0.1112
vn 0.9997 0.0085 -0.0231
vn 0.9996 0.0246 0.0110
vn 0.9935 0.1117 0.0235
vn 0.9945 -0.0978 -0.0370
vn 0.9923 -0.1239 -0.0036
vn 0.9283 0.3588 0.0978
vn 0.9631 0.2328 0.1352
vn 0.9929 -0.1092 -0.0479
vn 0.9946 -0.0917 -0.0485
vn 0.9957 -0.0687 -0.0621
vn 0.9897 -0.1392 0.0327
vn 0.9897 -0.1400 0.0308
vn 0.9919 -0.1116 0.0598
vn 0.9924 -0.1011 0.0701
vn 0.9748 -0.2168 0.0534
vn 0.9914 -0.1309 -0.0073
vn 0.9963 -0.0857 -0.0022
vn 0.9929 -0.1167 -0.0221
vn 0.9939 -0.1074 -0.0252
vn 0.9895 -0.1225 0.0771
vn 0.9975 -0.0701 0.0101
vn 0.9960 -0.0891 0.0105
vn 0.9822 -0.1590 -0.1002
vn 0.9200 0.3451 0.1858
vn 0.9467 0.2981 0.1216
vn 0.9910 -0.1301 -0.0316
vn 0.9938 -0.1049 -0.0367
vn 0.9357 0.3218 0.1446
vn 0.9621 0.2660 0.0608
vn 0.9998 -0.0043 0.0216
vn 0.9968 -0.0738 0.0308
vn 0.9996 -0.0288 -0.0056
vn 0.9892 -0.1437 0.0289
vn 0.9891 -0.1469 -0.0072
vn 0.9710 -0.2387 -0.0166
vn 0.9879 -0.1548 -0.0041
vn 0.9890 -0.1159 0.0919
vn 0.9862 -0.1629 0.0311
vn 0.9911 -0.1310 -0.0231
vn 0.9930 -0.1177 0.0031
vn 0.9883 -0.1519 -0.0135
vn 0.9873 -0.1532 -0.0426
vn 0.9912 -0.1135 -0.0677
vn 0.9919 -0.1243 -0.0255
vn 0.9922 -0.1236 -0.0151
vn 0.9898 -0.1387 -0.0321
vn 0.9896 -0.1439 0.0060
vn 0.9895 -0.1443 0.0050
vn 0.8994 0.3982 0.1803
usemtl None
s off
f 1/1/1 2/2/1 3/3/1
f 4/4/2 5/5/2 6/6/2
f 4/4/3 7/7/3 5/5/3
f 8/8/4 9/9/4 10/10/4
f 3/3/5 12/11/5 11/12/5
f 14/13/6 13/14/6 1/1/6
f 13/14/7 2/2/7 1/1/7
f 15/15/8 16/16/8 6/6/8
f 17/17/9 19/18/9 18/19/9
f 20/20/10 19/18/10 17/17/10
f 21/21/11 5/5/11 7/7/11
f 22/22/12 12/11/12 23/23/12
f 22/22/13 11/12/13 12/11/13
f 22/22/14 23/23/14 24/24/14
f 25/25/15 26/26/15 8/8/15
f 25/25/16 8/8/16 10/10/16
f 14/13/17 27/27/17 28/28/17
f 1/1/18 11/12/18 14/13/18
f 26/26/19 29/29/19 8/8/19
f 30/30/20 31/31/20 32/32/20
f 33/33/21 30/30/21 32/32/21
f 34/34/22 36/35/22 35/36/22
f 37/37/23 39/38/23 38/39/23
f 26/26/24 19/18/24 29/29/24
f 31/31/25 30/30/25 40/40/25
f 41/41/26 24/24/26 36/35/26
f 42/42/27 41/41/27 36/35/27
f 40/40/28 30/30/28 43/43/28
f 40/40/29 43/43/29 44/44/29
f 31/31/30 40/40/30 45/45/30
f 27/27/31 11/12/31 45/45/31
f 32/32/32 31/31/32 9/9/32
f 15/15/33 6/6/33 46/46/33
f 37/37/34 38/39/34 47/47/34
f 1/1/35 3/3/35 11/12/35
f 27/27/36 14/13/36 11/12/36
f 48/48/37 49/49/37 50/50/37
f 23/23/38 35/36/38 24/24/38
f 51/51/39 48/48/39 50/50/39
f 52/52/40 9/9/40 8/8/40
f 53/53/41 4/4/41 6/6/41
f 37/37/42 47/47/42 54/54/42
f 30/30/43 33/33/43 55/55/43
f 56/56/44 58/57/44 57/58/44
f 25/25/45 10/10/45 59/59/45
f 30/30/46 55/55/46 43/43/46
f 21/21/47 49/49/47 48/48/47
f 55/55/48 60/60/48 43/43/48
f 15/15/49 61/61/49 16/16/49
f 21/21/50 7/7/50 49/49/50
f 36/35/51 24/24/51 35/36/51
f 13/14/52 14/13/52 28/28/52
f 57/58/53 39/38/53 56/56/53
f 62/62/54 25/25/54 59/59/54
f 62/62/55 63/63/55 25/25/55
f 64/64/56 65/65/56 41/41/56
f 66/66/57 23/23/57 12/11/57
f 67/67/58 35/36/58 68/68/58
f 66/66/59 35/36/59 23/23/59
f 66/66/60 68/68/60 35/36/60
f 67/67/61 34/34/61 35/36/61
f 64/64/62 41/41/62 42/42/62
f 67/67/63 69/69/63 34/34/63
f 70/70/64 64/64/64 42/42/64
f 64/64/65 70/70/65 65/65/65
f 71/71/66 19/18/66 20/20/66
f 72/72/67 18/19/67 19/18/67
f 73/73/68 24/24/68 41/41/68
f 73/73/69 22/22/69 24/24/69
f 65/65/70 74/74/70 41/41/70
f 74/74/71 65/65/71 59/59/71
f 75/75/72 36/35/72 34/34/72
f 76/76/73 17/17/73 18/19/73
f 18/19/74 77/77/74 76/76/74
f 78/78/75 34/34/75 69/69/75
f 79/79/76 70/70/76 42/42/76
f 63/63/77 62/62/77 80/80/77
f 81/81/78 20/20/78 17/17/78
f 77/77/79 72/72/79 80/80/79
f 77/77/80 18/19/80 72/72/80
f 17/17/81 76/76/81 81/81/81
f 37/37/82 46/46/82 39/38/82
f 46/46/83 82/82/83 39/38/83
f 21/21/84 28/28/84 83/83/84
f 21/21/85 83/83/85 5/5/85
f 84/84/86 20/20/86 81/81/86
f 75/75/87 42/42/87 36/35/87
f 34/34/88 78/78/88 75/75/88
f 31/31/89 10/10/89 9/9/89
f 85/85/90 10/10/90 31/31/90
f 31/31/91 11/12/91 85/85/91
f 45/45/92 11/12/92 31/31/92
f 62/62/93 59/59/93 70/70/93
f 65/65/94 70/70/94 59/59/94
f 85/85/95 74/74/95 10/10/95
f 74/74/96 73/73/96 41/41/96
f 74/74/97 59/59/97 10/10/97
f 52/52/98 86/86/98 9/9/98
f 86/86/99 52/52/99 87/87/99
f 72/72/100 63/63/100 80/80/100
f 72/72/101 25/25/101 63/63/101
f 15/15/102 46/46/102 37/37/102
f 61/61/103 15/15/103 37/37/103
f 37/37/104 54/54/104 61/61/104
f 46/46/105 60/60/105 82/82/105
f 88/88/106 82/82/106 60/60/106
f 56/56/107 82/82/107 58/57/107
f 82/82/108 56/56/108 39/38/108
f 88/88/109 58/57/109 82/82/109
f 86/86/110 87/87/110 33/33/110
f 32/32/111 9/9/111 86/86/111
f 32/32/112 86/86/112 33/33/112
f 13/14/113 51/51/113 2/2/113
f 51/51/114 50/50/114 2/2/114
f 89/89/115 2/2/115 50/50/115
f 2/2/116 89/89/116 3/3/116
f 16/16/117 53/53/117 6/6/117
f 80/80/118 62/62/118 79/79/118
f 70/70/119 79/79/119 62/62/119
f 83/83/120 28/28/120 44/44/120
f 28/28/121 27/27/121 45/45/121
f 72/72/122 19/18/122 26/26/122
f 72/72/123 26/26/123 25/25/123
f 74/74/124 85/85/124 73/73/124
f 73/73/125 11/12/125 22/22/125
f 73/73/126 85/85/126 11/12/126
f 88/88/127 60/60/127 55/55/127
f 55/55/128 33/33/128 87/87/128
f 55/55/129 90/90/129 91/91/129
f 55/55/130 87/87/130 90/90/130
f 88/88/131 55/55/131 58/57/131
f 55/55/132 91/91/132 58/57/132
f 46/46/133 6/6/133 44/44/133
f 60/60/134 46/46/134 44/44/134
f 60/60/135 44/44/135 43/43/135
f 5/5/136 83/83/136 44/44/136
f 5/5/137 44/44/137 6/6/137
f 28/28/138 45/45/138 44/44/138
f 40/40/139 44/44/139 45/45/139
f 21/21/140 13/14/140 28/28/140
f 21/21/141 48/48/141 51/51/141
f 21/21/142 51/51/142 13/14/142
f 71/71/143 29/29/143 19/18/143
