# Blender v2.79 (sub 0) OBJ File: ''
# www.blender.org
mtllib crack_only_152.mtl
o crack_only_152
v 2.761056 1.764960 -4.348128
v 2.909124 2.428379 -3.922852
v 2.873606 1.993368 -3.669939
v 2.798493 2.131299 -4.642955
v 2.800850 1.396957 -3.316265
v 2.759210 1.257391 -3.626859
v 3.038877 2.914275 -2.508421
v 2.982692 2.699904 -1.945847
v 2.895082 2.124311 -2.338198
v 3.169505 5.019977 -3.801451
v 3.149052 4.485938 -3.959981
v 3.164371 4.969188 -4.174175
v 3.167602 5.425005 -3.993263
v 3.166845 5.531488 -3.615746
v 3.156067 5.347409 -4.384071
v 3.212002 4.539732 -1.346169
v 3.213825 4.600984 -1.709665
v 3.143265 5.007751 -1.397123
v 2.818506 1.683217 -1.945067
v 2.853334 1.923334 -2.063253
v 2.822362 1.944606 -1.560967
v 3.172075 4.967576 -1.920779
v 3.192483 4.560953 -2.252089
v 3.186686 4.925980 -2.458575
v 3.185258 4.861176 -4.576646
v 3.126241 4.411618 -4.767165
v 2.806459 1.359827 -2.204499
v 2.864122 1.743868 -2.827597
v 3.108526 3.478558 -1.786693
v 3.196515 4.192631 -2.031390
v 3.186037 4.103234 -1.320105
v 3.037545 5.555656 -1.777717
v 3.017094 5.567354 -1.399671
v 3.105973 3.373059 -2.592431
v 3.175495 3.956463 -2.688946
v 3.146425 3.772683 -2.262934
v 3.077991 3.232188 -2.028513
v 2.870492 2.076121 -1.920604
v 3.142357 5.937163 -3.925764
v 2.823593 1.397898 -2.876360
v 2.801965 1.175150 -2.654772
v 3.144849 3.716705 -2.966801
v 2.989645 2.705218 -3.312748
v 3.147373 3.941353 -3.463506
v 2.800225 1.163984 -2.797525
v 2.977240 2.964487 -4.535182
v 2.881188 2.532843 -4.884163
v 3.030756 3.162215 -5.066583
v 3.035137 3.333946 -4.691071
v 3.060875 3.220693 -1.259284
v 2.748545 1.459066 -4.014230
v 2.804714 1.617691 -1.824257
v 3.106897 3.551439 -3.413871
v 2.787594 1.149450 -3.184954
v 3.165460 5.230718 -3.400888
v 3.186545 4.913923 -3.147461
v 3.090052 5.464592 -2.286261
v 3.158752 5.596723 -3.263769
v 3.161528 5.278012 -3.158441
v 3.200451 4.530102 -2.533299
v 2.961307 5.782783 -1.569505
v 2.948953 5.802013 -1.401297
v 3.166227 5.718676 -3.545571
v 3.162132 5.163315 -2.765801
v 3.142578 5.518514 -2.817286
v 3.093811 5.602659 -2.510887
v 3.067910 3.604186 -4.594075
v 3.097239 3.761291 -4.203390
v 3.058427 3.331821 -3.906976
v 3.196558 4.661540 -2.592764
v 3.190094 4.761602 -2.843404
v 3.032485 5.708963 -2.082730
v 3.188808 4.268244 -2.889724
v 2.986273 5.754541 -1.783684
v 3.099184 6.026217 -4.311843
v 3.062130 3.699193 -5.009403
v 3.019295 3.093208 -4.023488
v 2.979132 2.689209 -1.260534
v 2.876091 2.302298 -1.372432
vt 0.783941 0.108644
vt 0.687164 0.255324
vt 0.612349 0.168569
vt 0.868245 0.180424
vt 0.507946 0.049499
vt 0.585821 0.014874
vt 0.329364 0.381233
vt 0.178516 0.345344
vt 0.268611 0.218106
vt 0.709356 0.799621
vt 0.739557 0.685583
vt 0.805270 0.782821
vt 0.767612 0.880767
vt 0.671594 0.909185
vt 0.867670 0.858022
vt 0.060733 0.740701
vt 0.156566 0.747455
vt 0.083564 0.836626
vt 0.157143 0.131993
vt 0.192885 0.180388
vt 0.062613 0.192824
vt 0.219003 0.819878
vt 0.296832 0.729922
vt 0.358075 0.802457
vt 0.947994 0.656510
vt 0.907773 0.753874
vt 0.217950 0.060234
vt 0.388047 0.130467
vt 0.153324 0.511389
vt 0.231820 0.656919
vt 0.044916 0.649976
vt 0.193759 0.943356
vt 0.095623 0.951846
vt 0.360764 0.476052
vt 0.397993 0.596639
vt 0.283335 0.565132
vt 0.211116 0.455774
vt 0.158946 0.214739
vt 0.760588 0.988282
vt 0.393547 0.057208
vt 0.331278 0.014276
vt 0.465296 0.541803
vt 0.534246 0.323885
vt 0.599157 0.580384
vt 0.368184 0.009569
vt 0.857608 0.357507
vt 0.939380 0.260878
vt 1.000000 0.390419
vt 0.905855 0.432443
vt 0.010737 0.465947
vt 0.690748 0.050349
vt 0.124345 0.120211
vt 0.578151 0.499604
vt 0.468662 0.000000
vt 0.609489 0.850098
vt 0.537047 0.788537
vt 0.324244 0.916499
vt 0.581360 0.928517
vt 0.547385 0.863921
vt 0.369364 0.718921
vt 0.144186 0.993334
vt 0.100807 1.000000
vt 0.657198 0.949321
vt 0.442871 0.846545
vt 0.463570 0.919462
vt 0.385536 0.941568
vt 0.886235 0.490652
vt 0.787871 0.530132
vt 0.701849 0.445218
vt 0.387542 0.745268
vt 0.454805 0.761889
vt 0.276267 0.970179
vt 0.456675 0.658373
vt 0.199354 0.984157
vt 0.862817 1.000000
vt 0.996240 0.503501
vt 0.727192 0.393207
vt 0.000000 0.354429
vt 0.021007 0.270971
vn 0.9827 -0.1464 -0.1138
vn 0.9826 -0.1666 -0.0822
vn 0.9857 -0.1568 -0.0617
vn 0.9845 -0.1722 0.0327
vn 0.9993 -0.0356 -0.0089
vn 1.0000 0.0050 0.0006
vn 0.9995 0.0050 -0.0305
vn 0.9885 0.1484 0.0300
vn 0.9916 -0.1114 0.0659
vn 0.9895 0.1379 0.0439
vn 0.9999 -0.0017 -0.0135
vn 0.9992 0.0299 0.0248
vn 0.9952 0.0871 -0.0456
vn 0.9808 -0.1696 0.0964
vn 0.9912 -0.1031 0.0825
vn 0.9988 -0.0424 -0.0243
vn 0.9952 -0.0917 0.0356
vn 0.9925 -0.1226 -0.0008
vn 0.9761 0.2142 0.0373
vn 0.9982 -0.0597 -0.0050
vn 0.9988 -0.0491 0.0085
vn 0.9744 0.2199 0.0459
vn 0.9992 -0.0121 -0.0384
vn 0.9932 -0.1154 0.0180
vn 0.9929 -0.1170 0.0200
vn 0.9824 -0.1738 0.0679
vn 0.9986 0.0509 -0.0123
vn 0.9969 -0.0758 0.0211
vn 0.9847 -0.1712 0.0331
vn 0.9928 -0.1194 -0.0065
vn 0.9894 -0.1423 -0.0279
vn 0.9956 -0.0873 -0.0344
vn 0.9920 -0.1257 0.0134
vn 0.9949 -0.1008 -0.0042
vn 0.9737 -0.2275 0.0134
vn 0.9897 -0.1341 0.0498
vn 0.9901 -0.1389 0.0215
vn 0.9812 -0.1593 -0.1092
vn 0.9897 -0.1423 0.0136
vn 0.9932 -0.1009 0.0587
vn 0.9982 0.0441 0.0400
vn 0.9887 -0.1486 -0.0219
vn 0.9833 -0.1818 -0.0129
vn 0.9931 -0.1087 -0.0441
vn 0.9911 -0.0998 -0.0880
vn 0.9939 -0.0892 0.0651
vn 1.0000 0.0019 0.0091
vn 0.9985 0.0524 -0.0175
vn 0.9849 0.1724 0.0134
vn 0.9761 0.2078 0.0636
vn 0.9997 0.0104 0.0211
vn 0.9976 0.0686 0.0028
vn 0.9998 0.0132 0.0136
vn 0.9993 0.0262 0.0254
vn 0.9595 0.2789 0.0386
vn 0.9997 -0.0057 0.0240
vn 0.9985 0.0220 -0.0500
vn 0.9878 0.0742 0.1368
vn 0.9991 -0.0291 -0.0308
vn 0.9968 -0.0765 -0.0211
vn 0.9968 -0.0774 0.0183
vn 0.9970 0.0617 0.0469
vn 0.9974 0.0691 0.0186
vn 1.0000 0.0091 0.0011
vn 0.9978 0.0558 -0.0366
vn 0.9976 0.0691 0.0019
vn 0.9976 0.0654 0.0211
vn 0.9824 0.1727 0.0705
vn 0.9986 -0.0513 -0.0135
vn 0.9889 -0.1410 0.0471
vn 0.9880 -0.1492 0.0410
vn 0.9838 -0.1754 0.0377
vn 0.9671 0.2506 0.0446
vn 0.9506 0.3021 0.0710
vn 0.9896 -0.1422 0.0199
vn 0.9927 -0.1208 0.0044
vn 0.9922 -0.1248 0.0019
vn 0.9616 0.2512 0.1103
vn 0.9999 -0.0014 -0.0124
vn 0.9991 0.0111 -0.0408
vn 0.9997 -0.0002 -0.0259
vn 0.9991 -0.0123 -0.0396
vn 0.9995 -0.0288 -0.0115
vn 0.9979 -0.0453 -0.0463
vn 0.9973 -0.0651 -0.0349
vn 0.9909 0.1065 0.0820
vn 0.9839 0.1442 0.1051
vn 0.9857 0.1620 0.0464
vn 0.9950 0.0884 -0.0469
vn 0.9934 0.0617 -0.0968
vn 0.9929 -0.0819 -0.0865
vn 0.9928 -0.1093 -0.0489
vn 0.9971 -0.0534 -0.0534
vn 0.9934 -0.1106 -0.0301
vn 0.9890 -0.1385 0.0518
vn 0.9981 -0.0555 -0.0266
vn 0.9964 -0.0788 -0.0319
vn 0.9812 -0.1589 -0.1098
vn 0.9954 -0.0805 -0.0513
vn 0.9927 -0.1189 0.0186
vn 0.9927 -0.1091 -0.0511
vn 0.9899 -0.1385 -0.0299
vn 0.9889 -0.1440 -0.0373
vn 0.9894 -0.1412 -0.0344
vn 0.9839 -0.1710 -0.0523
vn 0.9895 -0.1240 -0.0743
vn 0.9889 -0.1452 -0.0319
vn 0.9929 -0.1159 0.0273
vn 0.9895 -0.1409 -0.0319
vn 0.9847 -0.1733 0.0193
vn 0.9662 -0.2576 0.0010
vn 0.9884 -0.1520 0.0028
vn 0.9824 -0.1740 0.0679
vn 0.9822 -0.1785 0.0588
vn 0.9937 -0.1088 -0.0283
vn 0.9891 -0.1397 -0.0462
vn 0.9849 -0.1690 -0.0384
vn 0.9886 -0.1441 -0.0435
vn 0.9897 -0.1361 0.0449
vn 0.9773 -0.2010 -0.0672
vn 0.9780 -0.2083 -0.0115
vn 0.9994 0.0272 0.0200
vn 0.9989 0.0404 0.0239
usemtl None
s off
f 1/1/1 2/2/1 3/3/1
f 1/1/2 4/4/2 2/2/2
f 5/5/3 6/6/3 3/3/3
f 7/7/4 8/8/4 9/9/4
f 10/10/5 11/11/5 12/12/5
f 10/10/6 13/13/6 14/14/6
f 13/13/7 12/12/7 15/15/7
f 16/16/8 17/17/8 18/18/8
f 19/19/9 20/20/9 21/21/9
f 17/17/10 22/22/10 18/18/10
f 12/12/11 13/13/11 10/10/11
f 22/22/12 23/23/12 24/24/12
f 23/23/13 22/22/13 17/17/13
f 12/12/14 26/25/14 25/26/14
f 20/20/15 19/19/15 27/27/15
f 12/12/16 11/11/16 26/25/16
f 20/20/17 27/27/17 28/28/17
f 29/29/18 30/30/18 31/31/18
f 32/32/19 18/18/19 22/22/19
f 17/17/20 16/16/20 31/31/20
f 17/17/21 31/31/21 30/30/21
f 32/32/22 33/33/22 18/18/22
f 23/23/23 17/17/23 30/30/23
f 34/34/24 35/35/24 36/36/24
f 37/37/25 34/34/25 36/36/25
f 38/38/26 21/21/26 20/20/26
f 13/13/27 39/39/27 14/14/27
f 40/40/28 27/27/28 41/41/28
f 7/7/29 37/37/29 8/8/29
f 35/35/30 34/34/30 42/42/30
f 42/42/31 34/34/31 43/43/31
f 35/35/32 42/42/32 44/44/32
f 36/36/33 35/35/33 30/30/33
f 40/40/34 41/41/34 45/45/34
f 46/46/35 47/47/35 48/48/35
f 49/49/36 46/46/36 48/48/36
f 29/29/37 31/31/37 50/50/37
f 51/51/38 1/1/38 3/3/38
f 34/34/39 37/37/39 7/7/39
f 19/19/40 21/21/40 52/52/40
f 25/26/41 15/15/41 12/12/41
f 34/34/42 7/7/42 43/43/42
f 7/7/43 9/9/43 43/43/43
f 42/42/44 53/53/44 44/44/44
f 5/5/45 54/54/45 6/6/45
f 52/52/46 27/27/46 19/19/46
f 55/55/47 10/10/47 14/14/47
f 55/55/48 56/56/48 10/10/48
f 57/57/49 22/22/49 24/24/49
f 57/57/50 32/32/50 22/22/50
f 55/55/51 14/14/51 58/58/51
f 55/55/52 59/59/52 56/56/52
f 59/59/53 55/55/53 58/58/53
f 60/60/54 23/23/54 30/30/54
f 33/33/55 61/61/55 62/62/55
f 63/63/56 58/58/56 14/14/56
f 63/63/57 14/14/57 39/39/57
f 64/64/58 65/65/58 66/66/58
f 56/56/59 11/11/59 10/10/59
f 11/11/60 67/67/60 26/25/60
f 68/68/61 11/11/61 69/69/61
f 64/64/62 58/58/62 65/65/62
f 64/64/63 56/56/63 59/59/63
f 59/59/64 58/58/64 64/64/64
f 64/64/65 24/24/65 70/70/65
f 64/64/66 70/70/66 71/71/66
f 71/71/67 56/56/67 64/64/67
f 57/57/68 72/72/68 32/32/68
f 35/35/69 73/73/69 30/30/69
f 9/9/70 20/20/70 28/28/70
f 38/38/71 20/20/71 9/9/71
f 38/38/72 9/9/72 8/8/72
f 74/74/73 33/33/73 32/32/73
f 61/61/74 33/33/74 74/74/74
f 29/29/75 50/50/75 37/37/75
f 36/36/76 30/30/76 29/29/76
f 36/36/77 29/29/77 37/37/77
f 72/72/78 74/74/78 32/32/78
f 71/71/79 73/73/79 56/56/79
f 70/70/80 60/60/80 73/73/80
f 70/70/81 73/73/81 71/71/81
f 56/56/82 73/73/82 11/11/82
f 60/60/83 30/30/83 73/73/83
f 44/44/84 11/11/84 73/73/84
f 35/35/85 44/44/85 73/73/85
f 66/66/86 57/57/86 64/64/86
f 72/72/87 57/57/87 66/66/87
f 57/57/88 24/24/88 64/64/88
f 75/75/89 13/13/89 15/15/89
f 75/75/90 39/39/90 13/13/90
f 69/69/91 11/11/91 44/44/91
f 69/69/92 44/44/92 53/53/92
f 67/67/93 11/11/93 68/68/93
f 67/67/94 68/68/94 69/69/94
f 49/49/95 48/48/95 67/67/95
f 76/76/96 67/67/96 48/48/96
f 67/67/97 76/76/97 26/25/97
f 6/6/98 51/51/98 3/3/98
f 54/54/99 5/5/99 40/40/99
f 28/28/100 27/27/100 40/40/100
f 5/5/101 28/28/101 40/40/101
f 5/5/102 3/3/102 28/28/102
f 77/77/103 69/69/103 43/43/103
f 69/69/104 53/53/104 43/43/104
f 2/2/105 77/77/105 43/43/105
f 2/2/106 43/43/106 3/3/106
f 28/28/107 3/3/107 43/43/107
f 9/9/108 28/28/108 43/43/108
f 42/42/109 43/43/109 53/53/109
f 8/8/110 37/37/110 50/50/110
f 8/8/111 78/78/111 79/79/111
f 8/8/112 50/50/112 78/78/112
f 38/38/113 8/8/113 21/21/113
f 8/8/114 79/79/114 21/21/114
f 40/40/115 45/45/115 54/54/115
f 46/46/116 69/69/116 77/77/116
f 46/46/117 77/77/117 2/2/117
f 46/46/118 67/67/118 69/69/118
f 46/46/119 49/49/119 67/67/119
f 46/46/120 2/2/120 4/4/120
f 46/46/121 4/4/121 47/47/121
f 70/70/122 24/24/122 23/23/122
f 60/60/123 70/70/123 23/23/123
