# Blender v2.79 (sub 0) OBJ File: ''
# www.blender.org
mtllib crack_only_133.mtl
o crack_only_133
v 2.806108 1.399332 -3.313969
v 2.763859 1.249516 -3.616150
v 2.876114 1.992449 -3.669571
v 2.942913 2.507707 -1.683131
v 2.960889 2.600614 -1.533008
v 3.006510 2.754956 -2.019373
v 3.078576 3.520327 -4.466906
v 3.067227 3.579716 -4.754129
v 3.019471 3.165372 -4.548242
v 2.818666 1.683129 -1.944947
v 2.886869 2.022069 -2.324686
v 2.819164 1.945995 -1.560493
v 2.807661 1.359701 -2.204523
v 2.873646 2.074051 -1.921207
v 2.869405 1.748986 -2.829438
v 2.827354 1.391506 -2.872617
v 2.808312 1.173676 -2.655869
v 3.226079 4.616315 -1.725685
v 3.221163 4.560654 -1.347544
v 3.198171 4.154412 -1.681998
v 2.874447 2.303000 -1.372782
v 3.202136 4.260637 -2.312735
v 3.222829 4.586476 -2.255285
v 3.197783 4.199914 -2.031673
v 3.040931 3.073152 -3.927785
v 3.067605 3.306863 -4.099836
v 3.039897 3.113456 -4.073098
v 2.980500 2.689028 -1.260240
v 2.960277 2.783611 -4.420372
v 2.929041 2.451025 -3.921935
v 2.797400 2.132174 -4.642833
v 3.173467 3.799265 -2.025304
v 2.807469 1.162761 -2.793093
v 3.033465 3.161641 -5.067131
v 3.065852 3.679996 -5.015552
v 2.748729 1.459039 -4.014360
v 2.756809 1.765361 -4.345448
v 2.799607 1.135412 -3.115368
v 2.804271 1.617765 -1.824284
v 2.789768 1.161954 -3.273401
v 3.079988 3.717631 -4.609493
v 3.144327 4.323772 -4.177981
v 3.141092 4.543688 -4.373520
v 3.153589 4.630410 -3.977117
v 3.114899 4.273339 -4.570007
v 3.123212 4.096466 -4.382405
v 3.171874 3.944427 -3.457915
v 3.179865 4.286432 -3.740775
v 3.192861 4.110301 -3.072731
v 3.204202 4.374302 -2.827869
v 3.193974 3.936606 -2.691148
v 3.203729 4.349485 -2.572738
v 3.150343 4.218458 -4.074453
v 3.145324 3.829309 -3.849732
v 3.119630 3.771445 -4.202784
v 3.210712 4.689112 -2.511811
v 3.203812 4.964599 -2.470873
v 3.206211 4.552985 -2.533513
v 3.207939 4.699584 -2.685229
v 3.202200 4.514124 -2.839811
v 3.200200 4.426646 -3.089532
v 3.195824 4.417756 -3.364577
v 3.174855 3.821272 -2.301811
v 3.105247 3.939009 -4.480816
v 3.122082 3.583633 -3.714431
v 3.101450 3.256825 -2.108341
v 3.084865 3.899778 -4.733580
v 3.072244 3.906020 -4.935887
v 3.080738 4.043823 -4.885315
v 3.193892 4.104506 -1.318345
v 3.145648 4.746061 -4.295937
v 3.151261 4.797567 -4.030470
v 3.168897 4.694013 -4.462439
v 3.199016 4.856058 -2.789621
v 3.163202 5.154120 -1.949550
v 3.119457 3.459848 -3.096848
v 3.121043 3.386606 -2.598213
v 3.128412 5.218984 -1.400680
v 3.009590 2.706901 -3.110697
v 3.078730 3.203208 -1.747344
v 3.187546 4.828552 -3.149050
v 3.157818 4.853612 -3.641088
v 3.114864 3.402607 -1.807629
v 3.054949 3.059490 -3.451060
v 3.131151 3.556319 -3.404489
v 2.877810 2.536729 -4.883382
v 3.054668 2.895737 -2.510143
v 3.071032 3.230891 -1.257652
v 3.147001 4.581539 -4.698012
vt 0.415802 0.928692
vt 0.333574 0.960796
vt 0.336818 0.769717
vt 0.865527 0.681838
vt 0.783924 0.610672
vt 0.906762 0.661295
vt 0.164399 0.362303
vt 0.135004 0.451375
vt 0.090886 0.341276
vt 0.778372 0.886864
vt 0.687502 0.791512
vt 0.884200 0.828984
vt 0.703632 0.962995
vt 0.793542 0.787549
vt 0.550026 0.849710
vt 0.530626 0.939873
vt 0.582098 1.000000
vt 0.902862 0.142697
vt 1.000000 0.165144
vt 0.903869 0.260789
vt 0.941292 0.741815
vt 0.742108 0.220068
vt 0.764374 0.138677
vt 0.813877 0.241648
vt 0.294578 0.487769
vt 0.257645 0.474437
vt 0.255140 0.424446
vt 0.979825 0.644539
vt 0.159457 0.551800
vt 0.281616 0.647325
vt 0.086078 0.714881
vt 0.806546 0.343390
vt 0.546144 0.999761
vt 0.000000 0.440618
vt 0.025057 0.310277
vt 0.234457 0.899549
vt 0.155102 0.814839
vt 0.461627 0.999765
vt 0.808230 0.906321
vt 0.421019 0.989823
vt 0.131647 0.309376
vt 0.257727 0.164513
vt 0.211661 0.104824
vt 0.316807 0.091367
vt 0.154398 0.169291
vt 0.199381 0.217835
vt 0.436946 0.275379
vt 0.370924 0.182728
vt 0.540974 0.241521
vt 0.610580 0.180048
vt 0.636453 0.293680
vt 0.676419 0.191917
vt 0.282391 0.193213
vt 0.332268 0.296413
vt 0.238944 0.303838
vt 0.699796 0.107431
vt 0.716461 0.038996
vt 0.691121 0.141392
vt 0.654881 0.101047
vt 0.610535 0.144563
vt 0.543615 0.161194
vt 0.471818 0.157500
vt 0.735090 0.331742
vt 0.170181 0.255794
vt 0.361904 0.361871
vt 0.772491 0.480004
vt 0.103401 0.260600
vt 0.050806 0.254870
vt 0.067058 0.221030
vt 0.997367 0.281452
vt 0.236334 0.055379
vt 0.306585 0.048086
vt 0.192029 0.064333
vt 0.631096 0.059488
vt 0.855997 0.003539
vt 0.519865 0.406703
vt 0.648015 0.436082
vt 1.000000 0.000000
vt 0.498913 0.598779
vt 0.865086 0.501958
vt 0.536881 0.058796
vt 0.409187 0.042346
vt 0.854044 0.449530
vt 0.418427 0.501360
vt 0.442019 0.375358
vt 0.032957 0.605760
vt 0.659660 0.563315
vt 0.993065 0.505891
vt 0.128099 0.088025
vn 0.9862 -0.1535 -0.0618
vn 0.9747 -0.2223 0.0209
vn 0.9865 -0.1483 -0.0696
vn 0.9906 -0.1137 0.0764
vn 0.9910 -0.1029 0.0862
vn 0.9771 -0.1984 0.0771
vn 0.9931 -0.1138 0.0272
vn 0.9695 -0.2370 0.0623
vn 0.9978 -0.0608 0.0265
vn 0.9982 -0.0599 0.0042
vn 0.9654 -0.2570 0.0435
vn 0.9816 -0.1843 0.0501
vn 0.9767 -0.1964 0.0859
vn 0.9980 -0.0637 0.0017
vn 0.9878 -0.1482 -0.0481
vn 0.9627 -0.2698 0.0182
vn 0.9731 -0.2151 -0.0826
vn 0.9978 -0.0660 -0.0024
vn 0.9981 -0.0607 -0.0090
vn 0.9963 -0.0863 0.0008
vn 0.9945 -0.1009 0.0275
vn 0.9978 -0.0595 -0.0281
vn 0.9803 -0.1562 -0.1206
vn 0.9956 -0.0923 -0.0165
vn 0.9931 -0.0977 0.0655
vn 0.9917 -0.0848 -0.0966
vn 0.9980 -0.0419 -0.0481
vn 0.9935 -0.0899 0.0698
vn 0.9995 -0.0111 -0.0291
vn 0.9960 -0.0382 -0.0802
vn 0.9974 -0.0387 -0.0600
vn 0.9982 -0.0504 -0.0327
vn 0.9995 -0.0283 -0.0158
vn 0.9997 -0.0231 -0.0018
vn 0.9958 0.0136 -0.0909
vn 0.9954 -0.0570 -0.0765
vn 0.9967 -0.0500 -0.0643
vn 0.9989 0.0302 -0.0351
vn 0.9999 -0.0126 0.0018
vn 0.9981 -0.0240 -0.0567
vn 0.9971 -0.0540 -0.0531
vn 0.9997 -0.0235 -0.0004
vn 0.9995 0.0272 -0.0143
vn 0.9998 0.0131 -0.0148
vn 0.9999 -0.0123 0.0007
vn 0.9994 -0.0302 -0.0178
vn 0.9997 -0.0224 -0.0103
vn 0.9995 -0.0243 -0.0201
vn 0.9989 -0.0374 -0.0293
vn 0.9996 -0.0240 -0.0151
vn 0.9982 -0.0605 0.0024
vn 0.9981 -0.0612 -0.0091
vn 0.9981 -0.0620 0.0001
vn 0.9976 -0.0612 0.0309
vn 0.9911 -0.1225 -0.0520
vn 0.9945 -0.0591 -0.0870
vn 0.9941 -0.0619 -0.0887
vn 0.9937 -0.0704 -0.0875
vn 0.9986 0.0047 -0.0532
vn 0.9965 -0.0488 -0.0685
vn 0.9966 -0.0211 -0.0794
vn 0.9930 -0.1128 -0.0342
vn 0.9921 -0.1250 0.0117
vn 0.9968 -0.0637 -0.0488
vn 0.9979 -0.0526 -0.0379
vn 0.9973 -0.0382 -0.0634
vn 0.9980 -0.0062 -0.0625
vn 0.9982 -0.0534 -0.0257
vn 0.9982 -0.0594 0.0036
vn 0.9920 -0.1200 -0.0401
vn 0.9995 -0.0114 -0.0290
vn 0.9997 0.0068 -0.0224
vn 0.9828 -0.0849 0.1638
vn 0.9989 0.0382 -0.0281
vn 0.9981 0.0179 -0.0585
vn 0.9957 0.0781 0.0492
vn 0.9937 0.1110 -0.0124
vn 0.9905 -0.1352 -0.0230
vn 0.9897 0.1352 0.0468
vn 0.9893 0.1421 0.0338
vn 0.9893 -0.1439 -0.0243
vn 0.9906 -0.1338 -0.0282
vn 0.9831 -0.1797 0.0352
vn 0.9914 -0.1306 0.0051
vn 0.9994 0.0290 -0.0168
vn 0.9977 0.0380 -0.0556
vn 0.9971 0.0504 -0.0577
vn 0.9972 0.0556 -0.0495
vn 0.9975 -0.0713 0.0020
vn 0.9910 -0.1311 0.0280
vn 0.9994 0.0141 -0.0330
vn 0.9994 0.0288 -0.0181
vn 0.9998 0.0132 -0.0126
vn 0.9868 -0.1587 -0.0329
vn 0.9885 -0.1507 -0.0097
vn 0.9894 -0.1441 -0.0174
vn 0.9779 -0.1754 -0.1137
vn 0.9778 -0.1862 -0.0962
vn 0.9955 -0.0430 -0.0846
vn 0.9949 -0.0735 -0.0688
vn 0.9951 -0.0702 -0.0694
vn 0.9852 -0.1673 0.0372
vn 0.9887 -0.1499 -0.0070
vn 0.9922 -0.1237 0.0157
vn 0.9891 -0.1473 -0.0086
vn 0.9954 -0.0858 -0.0419
vn 0.9824 -0.1779 -0.0563
vn 0.9932 -0.1095 -0.0387
vn 0.9804 -0.1567 -0.1197
vn 0.9998 0.0082 -0.0180
vn 0.9836 -0.1772 -0.0340
vn 0.9861 -0.1513 -0.0681
vn 0.9825 -0.1772 -0.0567
vn 0.9729 -0.2251 -0.0533
vn 0.9850 -0.1523 -0.0811
vn 0.9828 -0.1792 0.0450
vn 0.9814 -0.1835 0.0558
vn 0.9814 -0.1914 -0.0135
vn 0.9944 -0.1055 -0.0087
vn 0.9898 -0.1393 -0.0305
vn 0.9830 -0.1779 0.0454
vn 0.9911 -0.1332 0.0043
vn 0.9958 -0.0770 -0.0493
vn 0.9967 -0.0424 -0.0692
vn 0.9899 -0.1367 0.0362
vn 0.9850 -0.1709 0.0251
vn 0.9828 -0.1830 0.0258
vn 0.9862 -0.1647 -0.0175
vn 0.9894 -0.1298 -0.0657
vn 0.9891 -0.1434 -0.0332
vn 0.9882 -0.1476 -0.0419
vn 0.9841 -0.1700 -0.0520
vn 0.9807 -0.1787 -0.0794
vn 0.9719 -0.2339 0.0279
vn 0.9868 -0.1510 -0.0583
vn 0.9925 -0.1196 0.0236
vn 0.9872 -0.1554 -0.0371
vn 0.9903 -0.1337 0.0381
vn 0.9926 -0.1108 -0.0497
vn 0.9902 -0.1357 -0.0314
vn 0.9829 -0.1839 -0.0036
vn 0.9954 -0.0922 0.0277
vn 0.9906 -0.0847 -0.1073
vn 0.9949 -0.1010 0.0063
usemtl None
s off
f 1/1/1 2/2/1 3/3/1
f 4/4/2 6/5/2 5/6/2
f 7/7/3 9/8/3 8/9/3
f 10/10/4 11/11/4 12/12/4
f 11/11/5 10/10/5 13/13/5
f 14/14/6 4/4/6 12/12/6
f 11/11/7 13/13/7 15/15/7
f 14/14/8 12/12/8 11/11/8
f 16/16/9 13/13/9 17/17/9
f 18/18/10 19/19/10 20/20/10
f 5/6/11 21/21/11 4/4/11
f 14/14/12 6/5/12 4/4/12
f 4/4/13 21/21/13 12/12/13
f 22/22/14 23/23/14 24/24/14
f 25/25/15 27/26/15 26/27/15
f 5/6/16 28/28/16 21/21/16
f 29/29/17 30/30/17 31/31/17
f 23/23/18 18/18/18 24/24/18
f 24/24/19 20/20/19 32/32/19
f 16/16/20 17/17/20 33/33/20
f 9/8/21 34/34/21 8/9/21
f 35/35/22 8/9/22 34/34/22
f 36/36/23 37/37/23 3/3/23
f 16/16/24 33/33/24 38/38/24
f 10/10/25 12/12/25 39/39/25
f 1/1/26 40/40/26 2/2/26
f 7/7/27 8/9/27 41/41/27
f 39/39/28 13/13/28 10/10/28
f 42/42/29 43/43/29 44/44/29
f 45/45/30 43/43/30 46/46/30
f 42/42/31 46/46/31 43/43/31
f 47/47/32 48/48/32 49/49/32
f 50/50/33 51/51/33 49/49/33
f 52/52/34 22/22/34 51/51/34
f 53/53/35 44/44/35 48/48/35
f 53/53/36 48/48/36 54/54/36
f 53/53/37 54/54/37 55/55/37
f 56/56/38 57/57/38 23/23/38
f 58/58/39 22/22/39 52/52/39
f 58/58/40 56/56/40 23/23/40
f 58/58/41 23/23/41 22/22/41
f 50/50/42 52/52/42 51/51/42
f 56/56/43 59/59/43 57/57/43
f 50/50/44 60/60/44 58/58/44
f 52/52/45 50/50/45 58/58/45
f 59/59/46 56/56/46 58/58/46
f 59/59/47 58/58/47 60/60/47
f 50/50/48 49/49/48 61/61/48
f 62/62/49 49/49/49 48/48/49
f 62/62/50 61/61/50 49/49/50
f 24/24/51 32/32/51 22/22/51
f 18/18/52 20/20/52 24/24/52
f 63/63/53 22/22/53 32/32/53
f 63/63/54 51/51/54 22/22/54
f 26/27/55 55/55/55 54/54/55
f 64/64/56 46/46/56 55/55/56
f 41/41/57 64/64/57 55/55/57
f 41/41/58 55/55/58 7/7/58
f 42/42/59 44/44/59 53/53/59
f 53/53/60 55/55/60 46/46/60
f 53/53/61 46/46/61 42/42/61
f 47/47/62 65/65/62 54/54/62
f 66/66/63 51/51/63 63/63/63
f 47/47/64 54/54/64 48/48/64
f 67/67/65 41/41/65 8/9/65
f 67/67/66 68/68/66 69/69/66
f 68/68/67 67/67/67 35/35/67
f 67/67/68 8/9/68 35/35/68
f 70/70/69 20/20/69 19/19/69
f 26/27/70 7/7/70 55/55/70
f 71/71/71 44/44/71 43/43/71
f 71/71/72 72/72/72 44/44/72
f 43/43/73 73/73/73 71/71/73
f 74/74/74 57/57/74 59/59/74
f 59/59/75 60/60/75 74/74/75
f 57/57/76 75/75/76 23/23/76
f 23/23/77 75/75/77 18/18/77
f 76/76/78 51/51/78 77/77/78
f 78/78/79 18/18/79 75/75/79
f 78/78/80 19/19/80 18/18/80
f 77/77/81 79/79/81 76/76/81
f 26/27/82 54/54/82 25/25/82
f 66/66/83 5/6/83 6/5/83
f 66/66/83 80/80/83 5/6/83
f 66/66/84 77/77/84 51/51/84
f 81/81/85 61/61/85 62/62/85
f 62/62/86 48/48/86 44/44/86
f 81/81/87 62/62/87 82/82/87
f 62/62/88 44/44/88 82/82/88
f 70/70/89 32/32/89 20/20/89
f 70/70/90 83/83/90 32/32/90
f 81/81/91 74/74/91 60/60/91
f 81/81/92 60/60/92 61/61/92
f 61/61/93 60/60/93 50/50/93
f 79/79/94 3/3/94 84/84/94
f 84/84/95 85/85/95 76/76/95
f 84/84/96 76/76/96 79/79/96
f 30/30/97 3/3/97 37/37/97
f 30/30/98 37/37/98 31/31/98
f 67/67/99 45/45/99 46/46/99
f 64/64/100 41/41/100 67/67/100
f 64/64/101 67/67/101 46/46/101
f 66/66/102 83/83/102 80/80/102
f 83/83/103 63/63/103 32/32/103
f 66/66/104 63/63/104 83/83/104
f 76/76/105 85/85/105 51/51/105
f 85/85/106 49/49/106 51/51/106
f 25/25/107 29/29/107 27/26/107
f 85/85/108 65/65/108 47/47/108
f 2/2/109 36/36/109 3/3/109
f 82/82/110 44/44/110 72/72/110
f 30/30/111 25/25/111 84/84/111
f 30/30/112 84/84/112 3/3/112
f 30/30/113 29/29/113 25/25/113
f 29/29/114 31/31/114 86/86/114
f 29/29/115 26/27/115 27/26/115
f 11/11/116 87/87/116 6/5/116
f 14/14/117 11/11/117 6/5/117
f 87/87/118 11/11/118 79/79/118
f 47/47/119 49/49/119 85/85/119
f 77/77/120 87/87/120 79/79/120
f 87/87/121 66/66/121 6/5/121
f 77/77/122 66/66/122 87/87/122
f 40/40/123 1/1/123 16/16/123
f 16/16/124 38/38/124 40/40/124
f 88/88/125 83/83/125 70/70/125
f 80/80/126 83/83/126 88/88/126
f 88/88/127 5/6/127 80/80/127
f 88/88/128 28/28/128 5/6/128
f 25/25/129 54/54/129 65/65/129
f 25/25/130 65/65/130 84/84/130
f 84/84/131 65/65/131 85/85/131
f 29/29/132 9/8/132 26/27/132
f 29/29/133 86/86/133 9/8/133
f 9/8/134 86/86/134 34/34/134
f 9/8/135 7/7/135 26/27/135
f 15/15/136 13/13/136 16/16/136
f 15/15/137 3/3/137 79/79/137
f 11/11/138 15/15/138 79/79/138
f 1/1/139 15/15/139 16/16/139
f 1/1/140 3/3/140 15/15/140
f 73/73/141 43/43/141 89/89/141
f 45/45/142 67/67/142 89/89/142
f 67/67/143 69/69/143 89/89/143
f 45/45/144 89/89/144 43/43/144
