# Blender v2.79 (sub 0) OBJ File: ''
# www.blender.org
mtllib crack_only_127.mtl
o crack_only_127
v 2.810578 1.401350 -3.312017
v 2.882786 1.760054 -2.834239
v 2.830672 1.367845 -2.974199
v 2.791864 1.161121 -3.272117
v 2.765302 1.250686 -3.619609
v 2.876241 1.992402 -3.669552
v 3.094681 3.793995 -4.562197
v 3.124346 3.818789 -4.230676
v 3.093236 3.562210 -4.426651
v 2.967638 2.562086 -3.794571
v 3.025835 2.977995 -3.983694
v 2.895384 2.374465 -4.277100
v 3.092704 3.430802 -4.125792
v 3.038255 3.196326 -4.583381
v 2.874702 2.073358 -1.921408
v 2.946499 2.507680 -1.682596
v 2.817938 1.946528 -1.560311
v 2.837607 1.395687 -2.736639
v 2.810989 1.173054 -2.656331
v 2.808105 1.359654 -2.204532
v 3.024812 2.721972 -3.187077
v 3.011655 2.749770 -2.011421
v 2.873683 2.303326 -1.372945
v 3.209302 4.621786 -1.720975
v 3.218343 4.551051 -1.347127
v 3.202499 4.154194 -1.682073
v 3.062149 3.580924 -4.761430
v 3.127865 4.071538 -4.373323
v 3.201878 4.272609 -2.315087
v 3.217747 4.600199 -2.257408
v 3.203275 4.203700 -2.032975
v 3.101417 3.146153 -2.561234
v 3.172161 3.758558 -2.289088
v 3.195644 3.946745 -2.693852
v 2.809856 1.162359 -2.791633
v 2.748741 1.459037 -4.014368
v 2.756008 1.765437 -4.344943
v 2.801603 1.134903 -3.116054
v 2.821927 1.681330 -1.942497
v 2.804190 1.617778 -1.824289
v 3.152014 3.836187 -3.854026
v 3.174928 3.802008 -2.026284
v 3.090043 3.275483 -1.548154
v 3.029361 2.974944 -1.403539
v 3.083749 3.207028 -1.750586
v 3.195531 4.116044 -3.086171
v 3.212327 4.624221 -2.956756
v 3.095964 4.309662 -4.598495
v 3.084246 4.132791 -4.696489
v 3.100647 4.365296 -4.751298
v 3.153736 4.223623 -4.081194
v 3.074108 4.076468 -4.868292
v 3.181129 3.783736 -3.082892
v 3.180952 3.905867 -3.333035
v 3.151333 3.530976 -3.410347
v 3.180024 3.955207 -3.461146
v 3.163178 3.791586 -3.575454
v 3.131942 3.537940 -3.749901
v 3.184428 4.290406 -3.741309
v 3.209318 4.356218 -2.570081
v 3.047966 3.339978 -4.688898
v 3.197938 4.395329 -3.359904
v 3.196999 4.532698 -3.438121
v 3.192558 4.048328 -1.316271
v 3.173561 3.836775 -1.654578
v 3.169626 3.820875 -1.453399
v 3.108886 3.261269 -2.101557
v 3.091078 3.345255 -1.265732
v 3.111802 3.448707 -1.437830
v 3.142243 3.638484 -1.286514
v 3.054146 3.351730 -4.875368
v 3.069021 3.706103 -5.011189
v 3.216491 4.945129 -1.390827
v 3.228048 4.853691 -2.047758
v 3.218130 4.761017 -2.343467
v 3.225845 4.894375 -1.866305
v 3.196882 4.653731 -3.409802
v 3.207342 4.709335 -2.533220
v 3.122191 4.509500 -4.325814
v 3.176769 4.586418 -3.830319
v 3.035183 3.143831 -4.882204
v 3.051116 3.226784 -5.073370
v 2.968988 2.843764 -4.642856
v 2.876220 2.538558 -4.883015
v 3.089785 3.264126 -3.762314
v 3.078905 3.052912 -3.181133
v 2.889336 2.000257 -2.330932
v 3.120302 3.407660 -1.813442
v 2.797101 2.132414 -4.642799
v 2.981679 2.688872 -1.259986
v 3.011379 2.591356 -2.466345
vt 0.091159 0.372186
vt 0.171039 0.507670
vt 0.067867 0.456505
vt 0.022889 0.372740
vt 0.061823 0.288105
vt 0.270929 0.305389
vt 0.810855 0.151817
vt 0.804126 0.236902
vt 0.741244 0.177045
vt 0.435469 0.296799
vt 0.402805 0.166789
vt 0.559598 0.265701
vt 0.692071 0.248014
vt 0.645952 0.122640
vt 0.217314 0.750725
vt 0.328326 0.828710
vt 0.165202 0.836617
vt 0.065410 0.517743
vt 0.031599 0.650673
vt 0.000000 0.529135
vt 0.454668 0.457203
vt 0.410946 0.755553
vt 0.256691 0.898423
vt 0.918327 0.903808
vt 0.882931 0.995691
vt 0.787959 0.895341
vt 0.760030 0.092822
vt 0.879864 0.210714
vt 0.847935 0.739837
vt 0.935898 0.767350
vt 0.816803 0.808520
vt 0.546243 0.632734
vt 0.774643 0.631257
vt 0.704715 0.726092
vt 0.002897 0.494483
vt 0.135730 0.196237
vt 0.234466 0.124639
vt 0.009190 0.411278
vt 0.109017 0.729629
vt 0.085927 0.756894
vt 0.793351 0.333097
vt 0.705334 0.794288
vt 0.537523 0.893939
vt 0.446956 0.918258
vt 0.527315 0.840007
vt 0.838176 0.538627
vt 0.972677 0.591341
vt 0.954165 0.162771
vt 0.909483 0.130978
vt 0.976211 0.126332
vt 0.909714 0.290770
vt 0.901171 0.085234
vt 0.746314 0.526362
vt 0.690221 0.433408
vt 0.790718 0.467853
vt 0.809806 0.437365
vt 0.769328 0.401918
vt 0.706315 0.347620
vt 0.914189 0.379618
vt 0.882178 0.678665
vt 0.690275 0.101641
vt 0.926860 0.480307
vt 0.967973 0.465875
vt 0.742723 0.983651
vt 0.698728 0.889655
vt 0.685523 0.939888
vt 0.558150 0.753567
vt 0.544476 0.968108
vt 0.580951 0.928796
vt 0.627395 0.974743
vt 0.701766 0.054987
vt 0.805454 0.034591
vt 0.993061 1.000000
vt 0.983832 0.751861
vt 0.996752 0.830363
vt 1.000000 0.877830
vt 1.000000 0.477760
vt 0.977556 0.701752
vt 0.997990 0.239774
vt 0.999175 0.368588
vt 0.644400 0.044978
vt 0.675935 0.000000
vt 0.549700 0.093231
vt 0.473634 0.019760
vt 0.630424 0.333425
vt 0.546872 0.472096
vt 0.215400 0.644412
vt 0.586202 0.832258
vt 0.349384 0.063979
vt 0.360778 0.942988
vt 0.387139 0.634296
vn 0.9918 -0.1069 -0.0696
vn 0.9937 -0.0887 -0.0679
vn 0.9858 -0.1522 -0.0706
vn 0.9948 -0.0558 -0.0848
vn 0.9816 -0.1735 -0.0795
vn 0.9906 -0.1260 -0.0533
vn 0.9752 -0.2058 0.0810
vn 0.9918 -0.1268 -0.0141
vn 0.9937 -0.1014 0.0482
vn 0.9845 -0.1685 -0.0483
vn 0.9801 -0.1913 0.0533
vn 0.9746 -0.2025 0.0956
vn 0.9995 -0.0168 -0.0274
vn 0.9935 -0.0622 -0.0957
vn 0.9945 -0.0615 -0.0844
vn 0.9988 -0.0456 -0.0161
vn 0.9932 -0.1163 0.0035
vn 0.9894 -0.1378 -0.0461
vn 0.9930 -0.1183 0.0010
vn 0.9803 -0.1552 -0.1223
vn 0.9933 -0.1145 -0.0156
vn 0.9898 -0.1122 0.0882
vn 0.9927 -0.0994 -0.0683
vn 0.9995 -0.0270 0.0168
vn 0.9975 -0.0705 -0.0077
vn 0.9826 -0.1833 0.0314
vn 0.9995 -0.0297 -0.0131
vn 0.9941 -0.0783 -0.0752
vn 0.9814 -0.1748 -0.0790
vn 0.9906 -0.0938 -0.0999
vn 0.9897 -0.1137 0.0874
vn 0.9976 -0.0691 0.0054
vn 0.9901 -0.0243 -0.1382
vn 0.9912 0.0077 -0.1323
vn 0.9968 -0.0492 -0.0626
vn 0.9964 -0.0781 -0.0332
vn 0.9981 0.0065 -0.0610
vn 0.9968 -0.0714 -0.0356
vn 0.9965 -0.0672 -0.0507
vn 0.9949 -0.0857 -0.0536
vn 0.9926 -0.0937 -0.0769
vn 0.9989 -0.0419 -0.0234
vn 0.9988 -0.0435 -0.0219
vn 0.9989 -0.0435 -0.0191
vn 0.9990 -0.0351 -0.0263
vn 0.9969 -0.0579 -0.0535
vn 0.9991 -0.0384 0.0166
vn 0.9914 -0.0875 -0.0970
vn 0.9955 -0.0512 -0.0798
vn 0.9964 -0.0461 -0.0711
vn 0.9995 -0.0295 -0.0127
vn 0.9991 -0.0341 -0.0260
vn 0.9994 -0.0115 -0.0322
vn 0.9994 -0.0280 -0.0198
vn 0.9995 -0.0102 -0.0299
vn 0.9986 -0.0505 0.0125
vn 0.9959 -0.0897 0.0121
vn 0.9959 -0.0897 0.0124
vn 0.9926 -0.1210 0.0142
vn 0.9852 -0.1708 0.0160
vn 0.9972 -0.0707 -0.0222
vn 0.9999 -0.0145 0.0002
vn 0.9983 -0.0578 -0.0010
vn 0.9949 -0.0823 -0.0585
vn 0.9979 -0.0561 0.0318
vn 0.9951 -0.0915 -0.0382
vn 0.9983 -0.0498 0.0300
vn 0.9927 -0.0479 -0.1109
vn 0.9996 -0.0204 0.0173
vn 0.9997 0.0021 -0.0238
vn 0.9995 -0.0174 -0.0281
vn 0.9983 -0.0554 0.0179
vn 0.9986 -0.0484 0.0230
vn 0.9994 0.0088 -0.0335
vn 0.9984 -0.0286 -0.0490
vn 0.9950 0.0282 -0.0954
vn 0.9941 -0.0069 -0.1084
vn 0.9947 0.0238 -0.1005
vn 0.9933 -0.1148 -0.0114
vn 0.9932 0.0252 -0.1140
vn 0.9948 -0.0922 0.0429
vn 0.9987 0.0108 -0.0500
vn 0.9660 -0.2536 -0.0508
vn 0.9668 -0.2539 -0.0296
vn 0.9869 -0.1573 -0.0368
vn 0.9857 -0.1609 -0.0504
vn 0.9845 -0.1699 -0.0433
vn 0.9821 -0.1824 -0.0479
vn 0.9858 -0.1602 -0.0502
vn 0.9987 0.0126 -0.0498
vn 0.9869 -0.1611 -0.0116
vn 0.9928 -0.1104 0.0476
vn 0.9922 -0.1173 0.0431
vn 0.9836 -0.1668 -0.0686
vn 0.9870 -0.1493 -0.0594
vn 0.9870 -0.1492 -0.0605
vn 0.9986 -0.0474 0.0247
vn 0.9849 -0.1709 0.0272
vn 0.9852 -0.1654 0.0450
vn 0.9913 -0.1312 0.0113
vn 0.9927 -0.1185 0.0209
vn 0.9919 -0.1266 0.0094
vn 0.9915 -0.1289 0.0157
vn 0.9909 -0.1332 0.0171
vn 0.9805 -0.1917 0.0431
vn 0.9881 -0.1487 0.0386
vn 0.9721 -0.2111 -0.1021
vn 0.9703 -0.2084 -0.1229
vn 0.9692 -0.2342 -0.0767
vn 0.9848 -0.1651 -0.0536
vn 0.9830 -0.1789 0.0406
vn 0.9864 -0.1644 0.0000
vn 0.9890 -0.1447 0.0321
vn 0.9968 -0.0716 -0.0348
vn 0.9964 -0.0725 -0.0430
vn 0.9992 -0.0398 0.0098
vn 0.9992 -0.0384 0.0082
vn 0.9995 0.0025 0.0300
vn 0.9978 -0.0390 -0.0531
vn 0.9999 0.0045 0.0109
vn 0.9803 -0.1549 -0.1229
vn 0.9867 -0.1620 -0.0110
vn 0.9829 -0.1816 0.0295
vn 0.9871 -0.1513 0.0521
vn 0.9823 -0.1752 0.0657
vn 0.9812 -0.1886 0.0411
vn 0.9590 -0.2805 0.0404
vn 0.9814 -0.1900 0.0267
vn 0.9856 -0.1691 -0.0096
vn 0.9904 -0.1187 -0.0704
vn 0.9985 -0.0453 0.0302
vn 0.9958 -0.0910 0.0058
vn 0.9802 -0.1967 0.0245
vn 0.9783 -0.2064 -0.0192
vn 0.9905 -0.1285 0.0484
vn 0.9801 -0.1875 0.0647
vn 0.9795 -0.1892 0.0688
vn 0.9907 -0.1067 0.0844
vn 0.9906 -0.1094 0.0821
vn 0.9720 -0.2229 0.0745
vn 0.9809 -0.1885 -0.0483
vn 0.9817 -0.1860 -0.0410
vn 0.9666 -0.2336 -0.1052
vn 0.9898 -0.1410 0.0188
vn 0.9905 -0.1365 -0.0154
vn 0.9933 -0.1151 0.0111
vn 0.9951 -0.0993 -0.0017
vn 0.9923 -0.1195 0.0322
usemtl None
s off
f 1/1/1 2/2/1 3/3/1
f 4/4/2 1/1/2 3/3/2
f 1/1/3 5/5/3 6/6/3
f 7/7/4 8/8/4 9/9/4
f 10/10/5 12/11/5 11/12/5
f 13/13/6 14/14/6 9/9/6
f 15/15/7 16/16/7 17/17/7
f 2/2/8 18/18/8 3/3/8
f 18/18/9 20/19/9 19/20/9
f 10/10/10 21/21/10 6/6/10
f 15/15/11 22/22/11 16/16/11
f 16/16/12 23/23/12 17/17/12
f 24/24/13 25/25/13 26/26/13
f 7/7/14 9/9/14 27/27/14
f 8/8/15 7/7/15 28/28/15
f 29/29/16 30/30/16 31/31/16
f 32/32/17 34/33/17 33/34/17
f 1/1/18 6/6/18 2/2/18
f 18/18/19 19/20/19 35/35/19
f 36/36/20 37/37/20 6/6/20
f 18/18/21 38/38/21 3/3/21
f 18/18/21 35/35/21 38/38/21
f 39/39/22 17/17/22 40/40/22
f 8/8/23 41/41/23 13/13/23
f 30/30/24 24/24/24 31/31/24
f 31/31/25 26/26/25 42/42/25
f 43/43/26 44/44/26 45/45/26
f 46/46/27 47/47/27 34/33/27
f 3/3/28 38/38/28 4/4/28
f 10/10/29 6/6/29 12/11/29
f 1/1/30 4/4/30 5/5/30
f 40/40/31 20/19/31 39/39/31
f 48/48/32 49/49/32 50/50/32
f 49/49/33 28/28/33 7/7/33
f 49/49/34 48/48/34 28/28/34
f 51/51/35 8/8/35 28/28/35
f 49/49/36 52/52/36 50/50/36
f 49/49/37 7/7/37 52/52/37
f 53/53/38 55/54/38 54/55/38
f 56/56/39 57/57/39 41/41/39
f 58/58/40 41/41/40 57/57/40
f 58/58/41 13/13/41 41/41/41
f 54/55/42 56/56/42 46/46/42
f 54/55/43 46/46/43 53/53/43
f 53/53/44 46/46/44 34/33/44
f 56/56/45 59/59/45 46/46/45
f 56/56/46 41/41/46 59/59/46
f 60/60/47 29/29/47 34/33/47
f 61/61/48 27/27/48 9/9/48
f 51/51/49 59/59/49 41/41/49
f 51/51/50 41/41/50 8/8/50
f 60/60/51 34/33/51 47/47/51
f 62/62/52 46/46/52 59/59/52
f 63/63/53 62/62/53 59/59/53
f 62/62/54 47/47/54 46/46/54
f 62/62/55 63/63/55 47/47/55
f 64/64/56 26/26/56 25/25/56
f 65/65/57 42/42/57 26/26/57
f 65/65/58 26/26/58 66/66/58
f 67/67/59 32/32/59 33/34/59
f 68/68/60 69/69/60 70/70/60
f 31/31/61 42/42/61 29/29/61
f 24/24/62 26/26/62 31/31/62
f 33/34/63 29/29/63 42/42/63
f 57/57/64 55/54/64 58/58/64
f 33/34/65 34/33/65 29/29/65
f 9/9/66 8/8/66 13/13/66
f 61/61/67 71/71/67 27/27/67
f 7/7/68 27/27/68 52/52/68
f 72/72/69 52/52/69 27/27/69
f 73/73/70 25/25/70 24/24/70
f 30/30/71 75/74/71 74/75/71
f 74/75/72 24/24/72 30/30/72
f 74/75/73 76/76/73 24/24/73
f 77/77/74 47/47/74 63/63/74
f 75/74/75 30/30/75 78/78/75
f 79/79/76 59/59/76 51/51/76
f 80/80/77 59/59/77 79/79/77
f 51/51/78 28/28/78 79/79/78
f 48/48/79 50/50/79 79/79/79
f 48/48/80 79/79/80 28/28/80
f 81/81/81 82/82/81 71/71/81
f 80/80/82 63/63/82 59/59/82
f 83/83/83 84/84/83 81/81/83
f 82/82/84 81/81/84 84/84/84
f 11/12/85 14/14/85 13/13/85
f 10/10/86 11/12/86 21/21/86
f 85/85/87 55/54/87 86/86/87
f 86/86/88 11/12/88 85/85/88
f 86/86/89 21/21/89 11/12/89
f 63/63/90 80/80/90 77/77/90
f 86/86/91 32/32/91 21/21/91
f 18/18/92 2/2/92 20/19/92
f 2/2/93 87/87/93 20/19/93
f 11/12/94 13/13/94 85/85/94
f 85/85/95 58/58/95 55/54/95
f 58/58/96 85/85/96 13/13/96
f 24/24/97 76/76/97 73/73/97
f 45/45/98 88/88/98 43/43/98
f 67/67/99 88/88/99 45/45/99
f 88/88/100 33/34/100 42/42/100
f 67/67/101 33/34/101 88/88/101
f 65/65/102 66/66/102 88/88/102
f 88/88/103 42/42/103 65/65/103
f 66/66/104 70/70/104 88/88/104
f 88/88/105 70/70/105 69/69/105
f 88/88/106 69/69/106 43/43/106
f 12/11/107 6/6/107 37/37/107
f 12/11/108 37/37/108 89/89/108
f 83/83/109 89/89/109 84/84/109
f 2/2/110 6/6/110 21/21/110
f 43/43/111 68/68/111 44/44/111
f 44/44/112 68/68/112 90/90/112
f 69/69/113 68/68/113 43/43/113
f 55/54/114 56/56/114 54/55/114
f 55/54/115 57/57/115 56/56/115
f 27/27/116 71/71/116 82/82/116
f 27/27/117 82/82/117 72/72/117
f 78/78/118 29/29/118 60/60/118
f 78/78/119 30/30/119 29/29/119
f 60/60/120 47/47/120 78/78/120
f 5/5/121 36/36/121 6/6/121
f 32/32/122 91/91/122 21/21/122
f 32/32/123 67/67/123 22/22/123
f 32/32/124 22/22/124 91/91/124
f 67/67/125 16/16/125 22/22/125
f 67/67/126 45/45/126 16/16/126
f 16/16/127 90/90/127 23/23/127
f 44/44/128 16/16/128 45/45/128
f 44/44/129 90/90/129 16/16/129
f 14/14/130 61/61/130 9/9/130
f 61/61/131 14/14/131 71/71/131
f 81/81/132 71/71/132 14/14/132
f 81/81/133 14/14/133 83/83/133
f 91/91/134 87/87/134 21/21/134
f 87/87/135 2/2/135 21/21/135
f 87/87/136 91/91/136 22/22/136
f 15/15/137 87/87/137 22/22/137
f 39/39/138 87/87/138 17/17/138
f 87/87/139 39/39/139 20/19/139
f 15/15/140 17/17/140 87/87/140
f 12/11/141 14/14/141 11/12/141
f 12/11/142 83/83/142 14/14/142
f 12/11/143 89/89/143 83/83/143
f 55/54/144 53/53/144 86/86/144
f 86/86/145 53/53/145 32/32/145
f 53/53/146 34/33/146 32/32/146
f 64/64/147 66/66/147 26/26/147
f 66/66/148 64/64/148 70/70/148
