# Blender v2.79 (sub 0) OBJ File: ''
# www.blender.org
mtllib crack_only_212.mtl
o crack_only_212
v 3.132521 4.929549 -2.468417
v 2.883261 5.902541 -2.127102
v 2.970056 5.735845 -2.898441
v 2.773450 1.763790 -4.355947
v 2.833819 2.144478 -4.198631
v 2.862008 1.997618 -3.671638
v 2.805768 2.125466 -4.643773
v 3.134992 4.998785 -1.396203
v 3.109303 4.188854 -2.019103
v 3.125825 4.411748 -4.766894
v 3.113267 4.578543 -3.979604
v 3.149670 5.323624 -4.388335
v 2.874088 2.143548 -2.237135
v 2.982414 2.926824 -2.496418
v 2.964485 2.797312 -2.084322
v 2.953156 2.881402 -4.552962
v 2.519143 6.186337 -1.508500
v 2.515633 6.432146 -1.908312
v 1.373789 7.629590 -3.092330
v 1.253771 7.673878 -3.321820
v 1.448280 7.619429 -3.367144
v 1.224620 7.757684 -3.138974
v 3.086638 4.954667 -3.157490
v 2.742382 5.784909 -1.413420
v 2.660269 5.958765 -1.443926
v 2.194440 6.804027 -1.883935
v 2.103964 6.846429 -1.684377
v 1.301540 7.628116 -3.557017
v 1.421164 7.623142 -2.865427
v 1.541487 7.578788 -3.091826
v 3.095520 3.919468 -1.333435
v 3.059934 3.544721 -1.654144
v 3.066869 3.837395 -3.447425
v 3.099419 4.217571 -2.747708
v 1.376069 7.626775 -3.693240
v 1.774746 7.591800 -3.684516
v 2.785621 1.178945 -2.651947
v 2.801647 1.360334 -2.204402
v 2.803418 1.504222 -3.012156
v 1.790538 7.196437 -1.977288
v 2.440603 6.917771 -3.252285
v 2.516332 6.586568 -2.487117
v 2.842896 6.342029 -3.411110
v 2.920027 2.481205 -1.700539
v 2.829733 1.941404 -1.562059
v 2.880375 2.300471 -1.371521
v 2.971532 6.320628 -4.271649
v 3.028781 5.720658 -3.811772
v 3.083214 3.966252 -2.502324
v 3.048869 3.459602 -1.940512
v 2.956235 2.756964 -2.997129
v 2.756133 6.656045 -4.048125
v 2.921107 6.384561 -3.974510
v 2.916137 6.478450 -4.271539
v 2.259139 6.585135 -1.560862
v 2.781374 1.167165 -2.809057
v 2.410728 7.079708 -3.546454
v 2.460162 7.272926 -4.266284
v 3.046897 3.574053 -4.767090
v 3.046156 3.628734 -4.528445
v 2.963444 2.937519 -4.673904
v 2.886151 2.527134 -4.885310
v 3.018853 3.164736 -5.064179
v 2.992858 3.190106 -4.522670
v 3.067069 3.699609 -5.011735
v 3.018880 3.207483 -2.183666
v 3.111096 4.119650 -1.337549
v 3.030613 3.214889 -1.267093
v 2.750721 1.458751 -4.015758
v 2.770321 1.142880 -3.105316
v 2.818066 1.683460 -1.945398
v 2.806414 1.617407 -1.824153
v 2.266337 7.290087 -3.788059
v 2.763114 1.172545 -3.289732
v 2.913843 2.588408 -3.770605
v 1.584612 7.495376 -2.756162
v 1.556347 7.632491 -3.864259
v 1.803778 7.437924 -3.012939
v 1.677703 7.556719 -3.359875
v 1.959913 7.476364 -3.505651
v 2.127219 7.433866 -3.790397
v 1.899578 7.563861 -3.829989
v 2.225762 7.171761 -3.076648
v 1.632550 7.418521 -2.448591
v 1.565909 7.451035 -2.297763
v 1.441114 7.517959 -2.503800
v 1.671274 7.338628 -2.151512
v 1.340343 7.595145 -2.704851
v 2.255891 6.947720 -2.580437
v 1.875289 7.291348 -2.593173
v 3.062125 3.729024 -3.035995
v 1.921055 7.326499 -2.858307
v 3.015746 3.155275 -1.706652
v 2.968823 2.690571 -1.262751
v 1.738290 7.620619 -4.023445
v 3.052565 3.748576 -4.147076
v 2.998395 3.226295 -3.987816
v 2.750365 1.276352 -3.654701
v 2.964076 2.879825 -3.402919
vt 0.307559 0.642470
vt 0.416279 0.761877
vt 0.281899 0.817126
vt 0.525686 0.059970
vt 0.512233 0.127400
vt 0.410772 0.121303
vt 0.592339 0.109069
vt 0.196809 0.536563
vt 0.115144 0.691196
vt 0.705639 0.477282
vt 0.672400 0.640186
vt 0.568788 0.532289
vt 0.155470 0.195162
vt 0.233787 0.313760
vt 0.153645 0.307017
vt 0.606106 0.234942
vt 0.178271 0.889357
vt 0.260583 0.915890
vt 0.754616 0.321382
vt 0.776396 0.365116
vt 0.738048 0.362799
vt 0.722120 0.335296
vt 0.433672 0.623091
vt 0.146624 0.824198
vt 0.158472 0.852630
vt 0.912396 0.084333
vt 0.888068 0.054185
vt 0.992310 0.072529
vt 0.756317 0.399581
vt 0.756329 0.282778
vt 0.786730 0.316735
vt 0.061458 0.516304
vt 0.105020 0.443885
vt 0.442807 0.429450
vt 0.330465 0.516003
vt 0.773348 0.420626
vt 0.843955 0.410551
vt 0.192879 0.023032
vt 0.271202 0.063781
vt 0.118590 0.068285
vt 0.820483 0.117738
vt 0.523644 0.949747
vt 0.371934 0.921109
vt 0.532450 0.845104
vt 0.071234 0.268891
vt 0.004090 0.251067
vt 0.024487 0.185929
vt 0.688965 0.810183
vt 0.582239 0.726906
vt 0.275927 0.483399
vt 0.153756 0.420027
vt 0.318141 0.268661
vt 0.660105 0.875503
vt 0.637089 0.831607
vt 0.694771 0.836752
vt 0.927832 0.024002
vt 0.220987 0.015666
vt 0.996625 0.000000
vt 0.722120 0.972607
vt 0.583312 0.966457
vt 0.672592 0.340369
vt 0.631288 0.357687
vt 0.630361 0.239844
vt 0.652403 0.165830
vt 0.710554 0.263004
vt 0.612846 0.286333
vt 0.722120 0.352271
vt 0.188013 0.370418
vt 0.070093 0.548913
vt 0.021568 0.403449
vt 0.451766 0.021906
vt 0.273891 0.001469
vt 0.084135 0.130274
vt 0.059431 0.123764
vt 0.982152 0.362163
vt 1.000000 0.485222
vt 0.951083 0.410347
vt 0.308566 0.000000
vt 0.452091 0.214450
vt 0.789369 0.258241
vt 0.809180 0.445558
vt 0.838544 0.294967
vt 0.819695 0.357846
vt 0.877838 0.374404
vt 0.917971 0.417146
vt 0.871633 0.431464
vt 0.500331 1.000000
vt 0.793263 0.204469
vt 0.755592 0.219878
vt 0.775146 0.181661
vt 0.796084 0.152531
vt 0.739363 0.257070
vt 0.934789 0.202022
vt 1.000000 0.172211
vt 0.930204 0.290444
vt 0.847585 0.220384
vt 0.363685 0.426016
vt 0.861216 0.264246
vt 0.099153 0.378489
vt 0.000000 0.318045
vt 0.846070 0.468045
vt 0.566590 0.390617
vt 0.516953 0.310863
vt 0.378953 0.004494
vt 0.396819 0.274640
vn 0.9718 0.2279 0.0601
vn 0.9889 -0.1210 -0.0866
vn 0.9894 -0.1335 -0.0566
vn 0.9995 -0.0315 -0.0003
vn 0.9991 -0.0359 0.0235
vn 0.9670 0.2543 -0.0186
vn 0.9906 -0.1370 0.0000
vn 0.9813 -0.1848 -0.0539
vn 0.8390 0.4668 0.2797
vn 0.2780 0.9598 0.0399
vn 0.6741 0.7063 -0.2162
vn 0.9842 0.1666 -0.0595
vn 0.8598 0.4488 0.2437
vn 0.7474 0.6321 0.2045
vn 0.2368 0.9616 -0.1390
vn 0.2899 0.9565 -0.0333
vn 0.9964 -0.0836 -0.0128
vn 0.9976 -0.0689 -0.0090
vn 0.0421 0.9990 0.0132
vn 0.2895 0.9562 0.0431
vn 0.0873 0.9962 0.0031
vn 0.9978 -0.0650 -0.0094
vn 0.6709 0.7262 0.1499
vn 0.8294 0.5379 0.1508
vn 0.9871 -0.1567 0.0329
vn 0.9820 0.1646 0.0925
vn 0.9963 -0.0842 -0.0150
vn 0.9926 -0.1211 -0.0024
vn 0.8242 0.5437 0.1581
vn 0.9741 0.1886 0.1247
vn 0.7528 0.5875 0.2970
vn 0.9964 -0.0840 -0.0135
vn 0.9967 -0.0779 -0.0211
vn 0.7708 0.5457 0.3287
vn 0.9009 0.3745 0.2193
vn 0.8582 0.4780 0.1872
vn 0.9953 -0.0938 0.0246
vn 0.9801 -0.1971 0.0244
vn 0.9929 -0.1062 0.0526
vn 0.9876 -0.1475 0.0543
vn 0.9951 -0.0931 0.0343
vn 0.9950 -0.0938 0.0339
vn 0.9952 -0.0947 -0.0246
vn 0.9969 -0.0778 -0.0105
vn 0.8818 0.4716 -0.0027
vn 0.9399 0.3298 0.0885
vn 0.8465 0.4843 0.2212
vn 0.9958 -0.0920 -0.0030
vn 0.9996 -0.0275 -0.0054
vn 0.9850 -0.1561 -0.0741
vn 0.9961 -0.0834 -0.0303
vn 0.9939 -0.1033 0.0392
vn 0.6513 0.7205 0.2381
vn 0.9829 -0.1842 -0.0018
vn 0.9956 -0.0779 -0.0514
vn 0.8657 0.4377 0.2430
vn 0.9916 -0.1006 -0.0811
vn 0.9813 -0.1922 0.0070
vn 0.8013 0.5581 0.2156
vn 0.9949 -0.0885 0.0474
vn 0.5536 0.8221 0.1332
vn 0.0841 0.9890 0.1217
vn 0.4333 0.8892 0.1470
vn 0.3560 0.9161 0.1843
vn 0.4711 0.8697 0.1470
vn 0.8065 0.5675 0.1658
vn 0.4584 0.8887 0.0110
vn 0.6925 0.6743 0.2565
vn 0.6415 0.7576 0.1201
vn 0.9991 -0.0405 -0.0152
vn 0.9975 -0.0200 -0.0672
vn 0.3987 0.9014 0.1690
vn 0.9994 0.0282 0.0195
vn 0.1970 0.9443 0.2638
vn 0.9837 0.0472 0.1737
vn 0.6566 0.7252 0.2075
vn 0.7608 0.6076 0.2281
vn 0.7715 0.6062 0.1931
vn 0.7512 0.6376 0.1710
vn 0.8396 0.5246 0.1410
vn 0.9953 -0.0906 0.0351
vn 0.6371 0.7162 0.2847
vn 0.9966 -0.0806 -0.0167
vn 0.9974 -0.0719 -0.0074
vn 0.9974 -0.0716 -0.0075
vn 0.9959 0.0644 0.0630
vn 0.9861 0.1610 -0.0417
vn 0.5000 0.8367 0.2237
vn 0.6525 0.7302 0.2023
vn 0.5294 0.8340 0.1553
vn 0.6142 0.7628 0.2021
vn 0.9936 -0.1126 -0.0058
vn 0.9950 -0.0990 -0.0090
vn 0.9925 -0.1212 -0.0171
vn 0.5130 0.8462 0.1444
vn 0.4023 0.8835 0.2400
vn 0.5232 0.8284 0.2001
vn 0.5550 0.8068 0.2028
vn 0.4620 0.8869 -0.0045
vn 0.9696 0.1938 0.1492
vn 0.9661 0.2517 0.0579
vn 0.8249 0.5435 0.1555
vn 0.3655 0.9074 0.2073
vn 0.2617 0.9637 0.0537
vn 0.2542 0.9505 0.1787
vn 0.8426 0.5196 0.1414
vn 0.8280 0.5224 0.2035
vn 0.6567 0.7251 0.2073
vn 0.6489 0.7092 0.2754
vn 0.4556 0.8902 0.0050
vn 0.8138 0.5400 0.2146
vn 0.7061 0.6861 0.1754
vn 0.4854 0.8512 0.1998
vn 0.5085 0.8339 0.2145
vn 0.9754 -0.2202 -0.0034
vn 0.9915 -0.1295 0.0082
vn 0.9900 -0.1407 -0.0089
vn 0.9899 -0.1407 -0.0144
vn 0.9916 -0.1173 -0.0544
vn 0.9914 -0.1310 0.0020
vn 0.4891 0.8709 0.0476
vn 0.4116 0.9081 -0.0767
vn 0.1813 0.9742 0.1346
vn 0.1978 0.9801 -0.0185
vn 0.9972 -0.0743 0.0066
vn 0.9923 -0.1202 0.0306
vn 0.9950 -0.0988 0.0143
vn 0.9850 -0.1543 -0.0770
vn 0.9905 -0.1373 0.0016
vn 0.9945 -0.0983 0.0359
vn 0.9947 -0.0900 0.0492
vn 0.9956 -0.0927 -0.0143
vn 0.9926 -0.1212 0.0095
vn 0.9903 -0.1385 -0.0048
vn 0.9868 -0.1608 0.0167
vn 0.9943 -0.1070 -0.0050
vn 0.9941 -0.1075 -0.0169
vn 0.9881 -0.1531 0.0143
vn 0.9890 -0.1434 -0.0362
vn 0.9878 -0.1535 -0.0271
vn 0.9957 -0.0742 -0.0559
vn 0.9899 -0.1396 -0.0246
vn 0.9935 -0.0970 -0.0588
vn 0.9938 -0.1106 -0.0143
vn 0.9944 -0.1053 -0.0070
vn 0.9974 -0.0706 -0.0114
vn 0.9953 -0.0965 0.0036
vn 0.9949 -0.0966 -0.0293
vn 0.9919 -0.1274 -0.0016
vn 0.9912 -0.1298 0.0241
vn 0.9927 -0.1207 -0.0021
vn 0.9939 -0.1089 -0.0150
vn 0.9940 -0.1088 -0.0137
usemtl None
s off
f 1/1/1 3/2/1 2/3/1
f 4/4/2 5/5/2 6/6/2
f 4/4/3 7/7/3 5/5/3
f 9/8/4 1/1/4 8/9/4
f 10/10/5 12/11/5 11/12/5
f 2/3/6 8/9/6 1/1/6
f 13/13/7 14/14/7 15/15/7
f 16/16/8 5/5/8 7/7/8
f 17/17/9 2/3/9 18/18/9
f 19/19/10 21/20/10 20/21/10
f 20/21/11 22/22/11 19/19/11
f 3/2/12 1/1/12 23/23/12
f 24/24/13 2/3/13 25/25/13
f 26/26/14 27/27/14 18/28/14
f 20/21/15 21/20/15 28/29/15
f 29/30/16 30/31/16 19/19/16
f 31/32/17 32/33/17 9/8/17
f 33/34/18 11/12/18 34/35/18
f 28/29/19 21/20/19 35/36/19
f 19/19/20 30/31/20 21/20/20
f 36/37/21 35/36/21 21/20/21
f 37/38/22 39/39/22 38/40/22
f 27/27/23 26/26/23 40/41/23
f 41/42/24 42/43/24 43/44/24
f 44/45/25 46/46/25 45/47/25
f 47/48/26 48/49/26 12/11/26
f 49/50/27 9/8/27 50/51/27
f 51/52/28 39/39/28 6/6/28
f 52/53/29 53/54/29 54/55/29
f 48/49/30 47/48/30 53/54/30
f 55/56/31 18/28/31 27/27/31
f 50/51/32 9/8/32 32/33/32
f 56/57/33 39/39/33 37/38/33
f 55/56/34 17/58/34 18/28/34
f 43/44/35 42/43/35 3/2/35
f 52/53/36 58/59/36 57/60/36
f 59/61/37 10/10/37 60/62/37
f 61/63/38 62/64/38 63/65/38
f 64/66/39 63/65/39 59/61/39
f 64/66/40 61/63/40 63/65/40
f 65/67/41 59/61/41 63/65/41
f 59/61/42 65/67/42 10/10/42
f 49/50/43 50/51/43 66/68/43
f 31/32/44 9/8/44 67/69/44
f 42/43/45 2/3/45 3/2/45
f 53/54/46 47/48/46 54/55/46
f 52/53/47 54/55/47 58/59/47
f 32/33/48 31/32/48 68/70/48
f 67/69/49 9/8/49 8/9/49
f 69/71/50 4/4/50 6/6/50
f 56/57/51 70/72/51 39/39/51
f 71/73/52 45/47/52 72/74/52
f 57/75/53 58/76/53 73/77/53
f 16/16/54 62/64/54 61/63/54
f 74/78/55 39/39/55 70/72/55
f 24/24/56 8/9/56 2/3/56
f 75/79/57 6/6/57 5/5/57
f 16/16/58 7/7/58 62/64/58
f 25/25/59 2/3/59 17/17/59
f 72/74/60 38/40/60 71/73/60
f 76/80/61 30/31/61 29/30/61
f 36/37/62 77/81/62 35/36/62
f 78/82/63 79/83/63 30/31/63
f 79/83/64 78/82/64 80/84/64
f 81/85/65 82/86/65 80/84/65
f 42/43/66 41/42/66 83/87/66
f 84/88/67 86/89/67 85/90/67
f 81/85/68 73/77/68 58/76/68
f 84/88/69 85/90/69 87/91/69
f 9/8/70 34/35/70 1/1/70
f 34/35/71 23/23/71 1/1/71
f 82/86/72 36/37/72 80/84/72
f 34/35/73 11/12/73 23/23/73
f 88/92/74 86/89/74 29/30/74
f 48/49/75 11/12/75 12/11/75
f 26/26/76 89/93/76 40/41/76
f 42/94/77 83/95/77 89/93/77
f 42/94/78 89/93/78 26/26/78
f 26/26/79 18/28/79 42/94/79
f 42/43/80 18/18/80 2/3/80
f 11/12/81 60/62/81 10/10/81
f 89/93/82 83/95/82 90/96/82
f 49/50/83 34/35/83 9/8/83
f 49/50/84 91/97/84 33/34/84
f 49/50/85 33/34/85 34/35/85
f 48/49/86 3/2/86 11/12/86
f 23/23/87 11/12/87 3/2/87
f 92/98/88 80/84/88 78/82/88
f 89/93/89 90/96/89 40/41/89
f 84/88/90 87/91/90 90/96/90
f 90/96/91 87/91/91 40/41/91
f 66/68/92 50/51/92 93/99/92
f 32/33/93 68/70/93 50/51/93
f 50/51/94 68/70/94 93/99/94
f 90/96/95 30/31/95 76/80/95
f 78/82/96 30/31/96 90/96/96
f 78/82/97 90/96/97 92/98/97
f 92/98/98 90/96/98 83/95/98
f 90/96/99 86/89/99 84/88/99
f 48/49/100 53/54/100 43/44/100
f 48/49/101 43/44/101 3/2/101
f 53/54/102 52/53/102 43/44/102
f 79/83/103 80/84/103 36/37/103
f 79/83/104 21/20/104 30/31/104
f 79/83/105 36/37/105 21/20/105
f 52/53/106 57/60/106 43/44/106
f 57/60/107 41/42/107 43/44/107
f 80/84/108 92/98/108 57/75/108
f 81/85/109 80/84/109 57/75/109
f 57/75/110 92/98/110 83/95/110
f 57/60/111 83/87/111 41/42/111
f 81/85/112 57/75/112 73/77/112
f 90/96/113 76/80/113 86/89/113
f 76/80/114 29/30/114 86/89/114
f 44/45/115 94/100/115 46/46/115
f 66/68/116 44/45/116 15/15/116
f 66/68/117 93/99/117 44/45/117
f 44/45/118 93/99/118 68/70/118
f 44/45/119 68/70/119 94/100/119
f 14/14/120 66/68/120 15/15/120
f 82/86/121 81/85/121 58/76/121
f 82/86/122 58/76/122 95/101/122
f 82/86/123 95/101/123 77/81/123
f 82/86/124 77/81/124 36/37/124
f 60/62/125 11/12/125 96/102/125
f 60/62/126 64/66/126 59/61/126
f 60/62/127 96/102/127 97/103/127
f 98/104/128 69/71/128 6/6/128
f 44/45/129 13/13/129 15/15/129
f 71/73/130 13/13/130 45/47/130
f 13/13/131 71/73/131 38/40/131
f 13/13/132 38/40/132 39/39/132
f 51/52/133 13/13/133 39/39/133
f 14/14/134 13/13/134 51/52/134
f 44/45/135 45/47/135 13/13/135
f 97/103/136 33/34/136 99/105/136
f 91/97/137 99/105/137 33/34/137
f 16/16/138 97/103/138 5/5/138
f 97/103/139 75/79/139 5/5/139
f 39/39/140 98/104/140 6/6/140
f 39/39/141 74/78/141 98/104/141
f 75/79/142 97/103/142 99/105/142
f 75/79/143 99/105/143 6/6/143
f 51/52/144 6/6/144 99/105/144
f 97/103/145 96/102/145 33/34/145
f 96/102/146 11/12/146 33/34/146
f 49/50/147 14/14/147 91/97/147
f 66/68/148 14/14/148 49/50/148
f 16/16/149 64/66/149 97/103/149
f 16/16/150 61/63/150 64/66/150
f 64/66/151 60/62/151 97/103/151
f 91/97/152 14/14/152 51/52/152
f 91/97/153 51/52/153 99/105/153
