# Blender v2.79 (sub 0) OBJ File: ''
# www.blender.org
mtllib crack_only_49.mtl
o crack_only_49
v 3.003540 2.095471 -3.323876
v 2.872203 1.588042 -2.966299
v 2.911452 1.820960 -3.373996
v 2.837043 1.792164 -3.931635
v 2.829774 1.635862 -3.668585
v 2.746315 1.530344 -4.100400
v 2.900636 1.736434 -2.702813
v 2.874083 1.823585 -2.377955
v 2.872694 1.476245 -2.480014
v 2.841556 1.367123 -2.185809
v 2.872269 1.244284 -2.465935
v 2.877872 1.407655 -2.733017
v 2.863984 1.370897 -2.964649
v 2.822400 1.713172 -2.056162
v 2.839453 1.863621 -2.084674
v 2.768368 1.356382 -3.833341
v 2.807560 1.648033 -1.996856
v 2.793740 1.512537 -1.990258
v 2.869988 1.159641 -2.664642
v 2.850996 1.122307 -3.133007
v 2.991346 2.135252 -2.850988
v 2.941456 2.099821 -2.462220
v 2.956969 2.030310 -2.652337
v 2.912078 1.936883 -3.688478
v 2.809157 1.963714 -1.933100
v 2.855063 2.008988 -2.054714
v 2.833537 1.361273 -3.296006
v 2.823339 1.170307 -3.355131
v 2.805099 1.771342 -1.954140
v 2.742623 1.650243 -1.802727
v 2.737414 1.627125 -4.175512
v 2.743757 1.825512 -1.673845
v 2.790722 1.233016 -3.601597
vt 1.000000 0.350256
vt 0.451835 0.476926
vt 0.720685 0.322365
vt 0.728520 0.101015
vt 0.551138 0.200280
vt 0.471542 0.026423
vt 0.581314 0.586173
vt 0.638684 0.718496
vt 0.301567 0.666229
vt 0.165827 0.779801
vt 0.069859 0.663973
vt 0.254400 0.563370
vt 0.234961 0.470345
vt 0.497084 0.843270
vt 0.650854 0.836800
vt 0.279645 0.126265
vt 0.425866 0.864824
vt 0.289095 0.863052
vt 0.001504 0.582235
vt 0.000000 0.395260
vt 1.000000 0.539552
vt 0.927721 0.693433
vt 0.875749 0.615368
vt 0.861324 0.201405
vt 0.734633 0.900806
vt 0.794691 0.853397
vt 0.248632 0.338874
vt 0.062450 0.309076
vt 0.544684 0.885996
vt 0.404969 0.942905
vt 0.572762 0.000000
vt 0.568888 1.000000
vt 0.140913 0.213793
vn 0.9493 -0.3035 -0.0820
vn 0.9596 -0.2528 -0.1237
vn 0.9955 -0.0303 0.0895
vn 0.9943 0.0047 0.1070
vn 0.9998 -0.0006 0.0206
vn 0.9978 -0.0382 -0.0538
vn 0.9938 0.0137 0.1103
vn 0.9887 -0.0460 0.1430
vn 0.9878 -0.0876 0.1286
vn 0.9797 -0.1211 -0.1598
vn 0.9762 -0.0266 0.2151
vn 0.9521 -0.0828 0.2944
vn 0.9995 -0.0313 0.0018
vn 0.9982 -0.0130 -0.0578
vn 0.9879 -0.1011 0.1176
vn 0.9702 -0.1912 0.1491
vn 0.9742 -0.2213 0.0437
vn 0.9763 -0.2160 0.0163
vn 0.9780 -0.1985 0.0644
vn 0.9685 -0.2089 0.1352
vn 0.9584 -0.2685 -0.0970
vn 0.9536 -0.2696 -0.1338
vn 0.9483 -0.2984 -0.1081
vn 0.9416 -0.1620 0.2951
vn 0.9820 -0.1331 0.1341
vn 0.9957 0.0101 -0.0918
vn 0.9919 -0.0138 -0.1265
vn 0.9687 -0.1863 0.1639
vn 0.9441 -0.0909 0.3168
vn 0.9450 -0.0809 0.3170
vn 0.9694 -0.0650 0.2367
vn 0.9809 -0.0415 0.1900
vn 0.9800 -0.0474 0.1932
vn 0.9462 -0.1396 -0.2920
vn 0.9984 -0.0420 -0.0371
vn 0.9755 -0.1345 0.1744
vn 0.9382 -0.0571 0.3414
vn 0.9798 -0.1214 -0.1592
vn 0.9952 -0.0384 -0.0903
vn 0.9703 -0.1899 -0.1497
vn 0.9859 -0.1672 -0.0006
vn 0.9895 -0.1112 -0.0920
vn 0.9909 -0.0114 -0.1340
vn 0.9905 -0.1335 -0.0317
vn 0.9990 0.0428 0.0088
usemtl None
s off
f 1/1/1 2/2/1 3/3/1
f 4/4/2 5/5/2 6/6/2
f 7/7/3 8/8/3 9/9/3
f 10/10/4 11/11/4 9/9/4
f 11/11/5 12/12/5 9/9/5
f 13/13/6 2/2/6 12/12/6
f 14/14/7 10/10/7 9/9/7
f 14/14/8 9/9/8 8/8/8
f 14/14/9 8/8/9 15/15/9
f 5/5/10 16/16/10 6/6/10
f 14/14/11 17/17/11 10/10/11
f 18/18/12 10/10/12 17/17/12
f 19/19/13 12/12/13 11/11/13
f 20/20/14 13/13/14 12/12/14
f 21/21/15 22/22/15 23/23/15
f 23/23/16 22/22/16 8/8/16
f 1/1/17 21/21/17 2/2/17
f 7/7/18 2/2/18 21/21/18
f 7/7/19 21/21/19 23/23/19
f 23/23/20 8/8/20 7/7/20
f 24/24/21 3/3/21 5/5/21
f 24/24/22 5/5/22 4/4/22
f 24/24/23 1/1/23 3/3/23
f 25/25/24 15/15/24 26/26/24
f 26/26/25 15/15/25 8/8/25
f 20/20/26 27/27/26 13/13/26
f 27/27/27 20/20/27 28/28/27
f 22/22/28 26/26/28 8/8/28
f 17/17/29 29/29/29 30/30/29
f 17/17/30 30/30/30 18/18/30
f 15/15/31 25/25/31 14/14/31
f 25/25/32 29/29/32 14/14/32
f 29/29/33 17/17/33 14/14/33
f 31/31/34 4/4/34 6/6/34
f 19/19/35 20/20/35 12/12/35
f 25/25/36 32/32/36 30/30/36
f 25/25/37 30/30/37 29/29/37
f 33/33/38 16/16/38 5/5/38
f 27/27/39 2/2/39 13/13/39
f 5/5/40 3/3/40 27/27/40
f 2/2/41 27/27/41 3/3/41
f 33/33/42 5/5/42 27/27/42
f 28/28/43 33/33/43 27/27/43
f 2/2/44 7/7/44 9/9/44
f 2/2/45 9/9/45 12/12/45
