# Blender v2.79 (sub 0) OBJ File: ''
# www.blender.org
mtllib crack_only_74.mtl
o crack_only_74
v 2.884450 1.685060 -3.338350
v 3.023705 2.359095 -3.514007
v 2.916963 1.977479 -3.663584
v 2.819638 1.518684 -3.655237
v 2.868649 1.339478 -2.725790
v 2.857200 1.311244 -3.014786
v 2.837475 1.125755 -3.128366
v 2.851477 1.156667 -2.749705
v 2.786114 1.230218 -3.586520
v 3.033557 2.498856 -2.486026
v 3.004125 2.585067 -1.923876
v 2.986835 2.438632 -2.178157
v 2.909106 2.020127 -2.340810
v 2.887275 2.005917 -2.201226
v 2.885201 1.789990 -2.376983
v 2.955234 2.055564 -2.648118
v 2.828390 2.024856 -1.736829
v 2.816898 1.927592 -1.827863
v 2.793379 1.957196 -1.556671
v 2.842085 2.046913 -1.808596
v 2.846841 1.897064 -2.051515
v 2.867857 2.077849 -1.920101
v 2.824489 2.001684 -4.249127
v 2.843682 1.887697 -3.980177
v 2.747097 1.749730 -4.323349
v 2.887759 2.037076 -3.937538
v 2.878486 2.070781 -4.034951
v 2.869080 2.221143 -1.627638
v 2.890130 2.219416 -1.842371
v 2.878899 2.220943 -1.718581
v 2.803144 2.173480 -4.673767
v 2.772971 1.943860 -4.487882
v 2.840794 2.145141 -4.440575
v 2.940736 2.581078 -4.461433
v 2.964146 2.353619 -4.062724
v 2.833596 2.132545 -1.471241
v 2.925257 2.159209 -3.882604
v 2.870908 2.141661 -4.207757
v 3.065527 2.608767 -3.745125
v 3.002652 2.408485 -3.809332
v 3.038512 2.554159 -3.851845
v 2.971344 2.276094 -3.768921
v 3.107049 2.718606 -3.350011
v 3.082334 2.767283 -3.880445
v 2.996036 2.725602 -1.371252
v 3.018492 2.795876 -1.248864
v 2.936283 2.568296 -1.299823
v 2.984612 2.668605 -1.485121
v 2.794648 1.829543 -1.783169
v 2.813084 1.848802 -1.898705
v 2.797523 1.731090 -1.911818
v 2.799952 1.640337 -3.916206
v 2.773640 1.731528 -1.739761
v 3.038454 2.701010 -4.167386
v 2.878376 2.425411 -4.676837
v 2.827295 2.374349 -4.770751
v 3.104486 2.803482 -3.727048
v 3.024351 2.849663 -1.468218
v 2.973304 2.591076 -1.618055
v 3.085828 2.680862 -2.892278
v 3.132624 2.961391 -2.939137
v 3.096151 3.002603 -1.866080
v 3.113816 3.045001 -2.317896
v 2.830048 1.357345 -2.204975
v 2.885855 1.584759 -2.842621
v 2.765459 1.624242 -1.826657
v 2.901126 1.696104 -2.742658
v 2.915573 2.399065 -1.613438
v 2.982446 2.106687 -2.955809
v 3.130379 2.896927 -3.289847
v 2.772236 1.322262 -3.760001
v 2.749157 1.458977 -4.014660
vt 0.339216 0.364441
vt 0.528492 0.288873
vt 0.726770 0.350281
vt 0.275252 0.267623
vt 0.095825 0.517330
vt 0.019066 0.394829
vt 0.107848 0.435634
vt 0.000000 0.501563
vt 0.112947 0.272203
vt 0.701243 0.642432
vt 0.688525 0.802256
vt 0.634289 0.724350
vt 0.421125 0.657859
vt 0.397589 0.695631
vt 0.300827 0.636300
vt 0.474910 0.574879
vt 0.355683 0.824697
vt 0.298578 0.870959
vt 0.312068 0.794554
vt 0.375826 0.806026
vt 0.321160 0.731370
vt 0.405872 0.776908
vt 0.587929 0.126493
vt 0.503867 0.195776
vt 0.453853 0.092673
vt 0.583289 0.215426
vt 0.609485 0.189934
vt 0.452929 0.865062
vt 0.475313 0.805653
vt 0.462791 0.839938
vt 0.717355 0.016812
vt 0.683934 0.080576
vt 0.574981 0.056812
vt 0.926655 0.097269
vt 0.770688 0.197063
vt 0.387065 0.903704
vt 0.646432 0.237079
vt 0.662788 0.145360
vt 0.885415 0.298849
vt 0.779191 0.270504
vt 0.864041 0.266251
vt 0.702050 0.274878
vt 0.909380 0.414331
vt 0.983932 0.269246
vt 0.707727 0.962345
vt 0.735309 1.000000
vt 0.611255 0.973767
vt 0.687542 0.927833
vt 0.253603 0.801901
vt 0.277072 0.771006
vt 0.214641 0.761435
vt 0.362516 0.200923
vt 0.195420 0.808907
vt 0.972091 0.185875
vt 0.835254 0.000000
vt 0.858711 0.029160
vt 0.990521 0.313837
vt 0.785661 0.941838
vt 0.658420 0.887030
vt 0.842514 0.539231
vt 1.000000 0.540487
vt 0.981345 0.716705
vt 0.913005 0.839778
vt 0.050132 0.662239
vt 0.238257 0.497098
vt 0.146498 0.779462
vt 0.288837 0.530451
vt 0.550419 0.878245
vt 0.534866 0.492333
vt 1.000000 0.440009
vt 0.176750 0.228400
vt 0.270947 0.164145
vn 0.9676 -0.2282 -0.1084
vn 0.9739 -0.2082 -0.0899
vn 0.9957 -0.0869 -0.0310
vn 0.9955 -0.0897 -0.0295
vn 0.9924 -0.0328 -0.1187
vn 0.9577 -0.2728 0.0920
vn 0.9822 -0.1242 0.1410
vn 0.9834 -0.1231 0.1334
vn 0.9651 -0.2288 0.1276
vn 0.9691 -0.2153 0.1206
vn 0.9698 -0.2206 0.1040
vn 0.9706 -0.2155 0.1077
vn 0.9679 -0.2230 0.1161
vn 0.9603 -0.2285 0.1598
vn 0.9654 -0.2288 0.1252
vn 0.9548 -0.2429 -0.1711
vn 0.9587 -0.2389 -0.1542
vn 0.9571 -0.2334 -0.1719
vn 0.9634 -0.2514 0.0928
vn 0.9590 -0.2366 0.1560
vn 0.9607 -0.2572 0.1043
vn 0.9638 -0.2507 0.0905
vn 0.9436 -0.2743 -0.1857
vn 0.9656 -0.2242 0.1317
vn 0.9557 -0.2280 -0.1862
vn 0.9637 -0.2567 0.0732
vn 0.9620 -0.2270 -0.1519
vn 0.9394 -0.3007 -0.1645
vn 0.9611 -0.2197 -0.1675
vn 0.9472 -0.2984 -0.1176
vn 0.9579 -0.2667 -0.1060
vn 0.9670 -0.2208 -0.1267
vn 0.9775 -0.2059 -0.0455
vn 0.9578 -0.2646 -0.1125
vn 0.9588 -0.2609 -0.1120
vn 0.9570 -0.2510 -0.1457
vn 0.9370 -0.3259 -0.1261
vn 0.9611 -0.2293 -0.1539
vn 0.9608 -0.2625 -0.0892
vn 0.9576 -0.2626 -0.1183
vn 0.9584 -0.2721 -0.0867
vn 0.9669 -0.2169 -0.1347
vn 0.9670 -0.2168 -0.1339
vn 0.9383 -0.3447 0.0258
vn 0.9426 -0.3267 0.0690
vn 0.9791 -0.1748 0.1040
vn 0.9701 -0.1866 0.1553
vn 0.9781 -0.1632 0.1289
vn 0.9806 -0.1444 0.1324
vn 0.9635 -0.2075 -0.1694
vn 0.9811 -0.1663 0.0992
vn 0.9635 -0.2124 -0.1628
vn 0.9590 -0.2168 -0.1827
vn 0.9425 -0.2636 -0.2057
vn 0.8996 -0.2728 -0.3410
vn 0.9674 -0.2351 -0.0936
vn 0.9776 -0.1866 -0.0971
vn 0.9749 -0.2181 0.0443
vn 0.9765 -0.2152 0.0098
vn 0.9863 -0.1549 0.0575
vn 0.9759 -0.2175 0.0177
vn 0.9519 -0.2928 0.0898
vn 0.9729 -0.1989 0.1181
vn 0.9608 -0.2273 0.1590
vn 0.9768 -0.1408 0.1614
vn 0.9877 -0.0704 0.1396
vn 0.9746 -0.1476 0.1687
vn 0.9966 -0.0342 0.0750
vn 0.9688 -0.0952 0.2289
vn 0.9663 -0.1014 0.2365
vn 0.9857 -0.1607 0.0515
vn 0.9827 -0.1682 0.0772
vn 0.9865 -0.1612 0.0288
vn 0.9927 -0.0992 0.0687
vn 0.9562 -0.2770 0.0945
vn 0.9534 -0.2842 0.1017
vn 0.9557 -0.2737 0.1086
vn 0.9602 -0.2592 0.1042
vn 0.9635 -0.2518 0.0905
vn 0.9635 -0.2576 0.0727
vn 0.9408 -0.2832 -0.1863
vn 0.9669 -0.2272 -0.1157
vn 0.9507 -0.2702 -0.1525
vn 0.9583 -0.2321 -0.1667
vn 0.9521 -0.2781 -0.1273
vn 0.9481 -0.2878 -0.1349
vn 0.9959 -0.0847 -0.0312
vn 0.9701 -0.2260 0.0882
vn 0.9631 -0.2492 0.1020
vn 0.9802 -0.1915 -0.0498
vn 0.9823 -0.1818 0.0449
vn 0.9797 -0.1930 0.0546
vn 0.9867 -0.1591 0.0326
vn 0.9905 -0.1359 0.0186
vn 0.9763 -0.2149 -0.0250
vn 0.9831 -0.1804 0.0307
vn 0.9780 -0.2077 -0.0216
vn 0.9751 -0.1463 -0.1669
vn 0.9680 -0.2483 -0.0350
vn 0.9793 -0.1495 0.1363
vn 0.9735 -0.1841 0.1356
vn 0.9932 -0.1131 -0.0257
vn 0.9783 -0.2060 -0.0236
vn 0.9697 -0.1851 -0.1594
vn 0.9688 -0.1772 -0.1734
vn 0.9758 -0.1511 -0.1582
vn 0.9816 -0.1439 -0.1252
vn 0.9956 -0.0909 -0.0212
vn 0.9824 -0.1580 -0.0998
vn 0.9543 -0.2847 0.0906
vn 0.9849 -0.1525 0.0820
vn 0.9775 -0.2041 0.0525
vn 0.9917 -0.1032 0.0770
vn 0.9636 -0.2565 0.0748
vn 0.9924 -0.1186 -0.0334
usemtl None
s off
f 1/1/1 3/2/1 2/3/1
f 3/2/2 1/1/2 4/4/2
f 5/5/3 7/6/3 6/7/3
f 5/5/4 8/8/4 7/6/4
f 6/7/5 7/6/5 9/9/5
f 10/10/6 11/11/6 12/12/6
f 13/13/7 14/14/7 15/15/7
f 13/13/8 15/15/8 16/16/8
f 14/14/9 13/13/9 12/12/9
f 13/13/10 16/16/10 10/10/10
f 13/13/11 10/10/11 12/12/11
f 17/17/12 19/18/12 18/19/12
f 17/17/13 18/19/13 20/20/13
f 18/19/14 21/21/14 20/20/14
f 14/14/15 12/12/15 22/22/15
f 23/23/16 24/24/16 25/25/16
f 26/26/17 3/2/17 24/24/17
f 27/27/18 26/26/18 24/24/18
f 17/17/19 28/28/19 19/18/19
f 20/20/20 22/22/20 29/29/20
f 17/17/21 30/30/21 28/28/21
f 20/20/21 30/30/21 17/17/21
f 30/30/22 20/20/22 29/29/22
f 31/31/23 33/32/23 32/33/23
f 29/29/24 22/22/24 12/12/24
f 33/32/25 34/34/25 35/35/25
f 28/28/26 36/36/26 19/18/26
f 26/26/27 37/37/27 3/2/27
f 38/38/28 35/35/28 27/27/28
f 27/27/29 37/37/29 26/26/29
f 37/37/30 27/27/30 35/35/30
f 39/39/31 40/40/31 41/41/31
f 42/42/32 2/3/32 3/2/32
f 43/43/33 2/3/33 39/39/33
f 40/40/34 39/39/34 2/3/34
f 40/40/35 2/3/35 42/42/35
f 23/23/36 25/25/36 32/33/36
f 38/38/37 33/32/37 35/35/37
f 42/42/38 3/2/38 37/37/38
f 41/41/39 40/40/39 35/35/39
f 40/40/40 42/42/40 37/37/40
f 37/37/41 35/35/41 40/40/41
f 44/44/42 41/41/42 35/35/42
f 44/44/43 39/39/43 41/41/43
f 45/45/44 46/46/44 47/47/44
f 45/45/45 47/47/45 48/48/45
f 49/49/46 18/19/46 19/18/46
f 21/21/47 18/19/47 50/50/47
f 49/49/48 50/50/48 18/19/48
f 49/49/49 51/51/49 50/50/49
f 52/52/50 3/2/50 4/4/50
f 49/49/51 19/18/51 53/53/51
f 52/52/52 24/24/52 3/2/52
f 52/52/53 25/25/53 24/24/53
f 54/54/54 35/35/54 34/34/54
f 31/31/55 56/55/55 55/56/55
f 54/54/56 44/44/56 35/35/56
f 57/57/57 39/39/57 44/44/57
f 58/58/58 48/48/58 59/59/58
f 58/58/59 45/45/59 48/48/59
f 60/60/60 61/61/60 10/10/60
f 11/11/61 63/62/61 62/63/61
f 59/59/62 48/48/62 47/47/62
f 21/21/63 14/14/63 22/22/63
f 22/22/64 20/20/64 21/21/64
f 21/21/65 15/15/65 14/14/65
f 21/21/66 64/64/66 15/15/66
f 51/51/67 21/21/67 50/50/67
f 5/5/68 65/65/68 64/64/68
f 21/21/69 51/51/69 64/64/69
f 66/66/70 64/64/70 51/51/70
f 61/61/71 63/62/71 10/10/71
f 10/10/72 63/62/72 11/11/72
f 65/65/73 67/67/73 64/64/73
f 67/67/74 15/15/74 64/64/74
f 29/29/75 12/12/75 11/11/75
f 68/68/76 11/11/76 59/59/76
f 29/29/77 11/11/77 68/68/77
f 68/68/78 28/28/78 30/30/78
f 30/30/79 29/29/79 68/68/79
f 68/68/80 36/36/80 28/28/80
f 55/56/81 33/32/81 31/31/81
f 55/56/82 34/34/82 33/32/82
f 23/23/83 38/38/83 27/27/83
f 27/27/84 24/24/84 23/23/84
f 23/23/85 33/32/85 38/38/85
f 23/23/86 32/33/86 33/32/86
f 65/65/87 5/5/87 6/7/87
f 62/63/88 58/58/88 11/11/88
f 58/58/89 59/59/89 11/11/89
f 57/57/90 43/43/90 39/39/90
f 60/60/91 10/10/91 69/69/91
f 69/69/92 10/10/92 16/16/92
f 61/61/93 60/60/93 43/43/93
f 43/43/94 70/70/94 61/61/94
f 43/43/95 69/69/95 2/3/95
f 60/60/96 69/69/96 43/43/96
f 1/1/97 2/3/97 69/69/97
f 4/4/98 71/71/98 72/72/98
f 58/58/99 46/46/99 45/45/99
f 53/53/100 51/51/100 49/49/100
f 51/51/101 53/53/101 66/66/101
f 65/65/102 1/1/102 67/67/102
f 67/67/103 1/1/103 69/69/103
f 4/4/104 72/72/104 52/52/104
f 72/72/105 25/25/105 52/52/105
f 4/4/106 9/9/106 71/71/106
f 9/9/107 4/4/107 1/1/107
f 1/1/108 65/65/108 6/7/108
f 9/9/109 1/1/109 6/7/109
f 59/59/110 47/47/110 68/68/110
f 69/69/111 15/15/111 67/67/111
f 69/69/112 16/16/112 15/15/112
f 5/5/113 64/64/113 8/8/113
f 36/36/114 68/68/114 47/47/114
f 70/70/115 43/43/115 57/57/115
