# Blender v2.79 (sub 0) OBJ File: ''
# www.blender.org
mtllib crack_only_142.mtl
o crack_only_142
v 2.758714 1.765181 -4.346650
v 2.916078 2.426980 -3.923033
v 2.875250 1.992765 -3.669698
v 2.797875 2.131793 -4.642886
v 3.068836 3.522610 -4.459591
v 3.102247 3.763561 -4.203255
v 3.134034 4.099392 -4.167376
v 3.079571 3.763456 -4.671499
v 2.803466 1.398138 -3.315122
v 2.761422 1.252461 -3.619543
v 3.047410 2.910965 -2.510089
v 3.002689 2.758806 -2.025278
v 2.997186 2.613644 -2.465416
v 3.170064 5.035995 -3.829128
v 3.152972 4.584549 -3.976212
v 3.175226 4.999632 -4.168803
v 3.140438 4.502284 -4.369952
v 2.978582 2.964653 -4.535719
v 3.061121 3.568254 -4.760528
v 3.036351 3.334517 -4.690865
v 2.818747 1.683084 -1.944887
v 2.850399 1.923230 -2.064499
v 2.820831 1.945271 -1.560740
v 2.807032 1.359767 -2.204510
v 2.868161 2.077649 -1.920159
v 2.942569 2.507710 -1.683183
v 2.849563 1.745893 -2.475947
v 3.128403 3.823564 -3.835494
v 3.067999 3.323995 -3.894982
v 3.215456 4.545857 -1.346419
v 3.218452 4.598048 -1.719474
v 3.144952 5.016556 -1.397455
v 3.084246 3.233061 -1.931484
v 3.195080 3.986194 -2.676359
v 3.198186 4.192703 -2.031625
v 3.170167 4.974312 -1.935959
v 3.191275 4.566242 -2.250170
v 3.190514 4.931596 -2.455787
v 2.826243 1.393744 -2.871689
v 2.805274 1.174381 -2.655344
v 3.075906 5.445190 -1.804638
v 3.189516 4.102472 -1.319295
v 2.875128 2.302709 -1.372637
v 3.025254 2.983523 -1.399279
v 3.064406 3.221370 -1.258373
v 2.979383 2.689176 -1.260480
v 3.155091 3.715179 -2.958234
v 3.115000 3.381173 -2.595894
v 2.991906 2.687037 -3.360830
v 2.867264 1.746414 -2.828542
v 2.803712 1.163395 -2.795392
v 2.972758 2.934488 -4.671727
v 2.878965 2.535400 -4.883649
v 3.031700 3.162014 -5.066774
v 3.063280 3.699290 -5.009946
v 2.748607 1.459057 -4.014274
v 2.804437 1.617737 -1.824274
v 2.792529 1.147266 -3.180429
v 3.201041 4.656676 -2.507101
v 3.203020 4.253788 -2.312142
v 3.206116 4.528867 -2.532171
v 3.201068 4.679019 -2.669504
v 3.201623 4.494955 -2.753540
v 3.179180 4.440595 -3.390077
v 3.162856 4.259225 -3.734057
v 3.178288 4.104934 -3.072225
v 3.190013 4.916161 -2.814367
v 3.196133 4.772198 -2.842894
v 3.193193 4.437487 -3.026517
v 3.186970 4.928697 -3.150982
v 3.171088 4.727496 -3.584939
v 3.168046 5.244133 -3.381700
v 3.115323 5.380538 -2.157992
v 3.204963 4.914514 -4.548632
v 3.127401 4.413910 -4.766790
v 3.156257 5.402249 -4.385383
v 3.087388 3.305516 -1.596215
v 3.166155 3.990939 -3.351810
v 3.149689 4.056354 -3.848163
v 3.117487 4.172625 -4.524905
v 3.142583 4.304074 -4.198174
v 3.163033 5.368213 -3.906817
v 3.168812 5.297495 -3.695763
v 3.045043 5.481024 -1.398192
v 3.144478 5.288277 -2.359966
v 3.027351 3.094026 -4.017491
v 3.163037 5.202070 -2.629991
v 3.083440 4.051504 -4.884548
v 3.072116 3.906605 -4.934608
v 3.174536 5.130291 -3.076684
v 2.881974 2.043216 -2.323748
v 3.121731 3.544240 -3.413590
vt 0.820182 0.149278
vt 0.704572 0.303083
vt 0.640817 0.200256
vt 0.895609 0.236627
vt 0.838358 0.562786
vt 0.757999 0.696087
vt 0.769532 0.617832
vt 0.892490 0.620021
vt 0.551546 0.059140
vt 0.632438 0.026328
vt 0.330448 0.409745
vt 0.204246 0.371033
vt 0.320657 0.339683
vt 0.663461 0.912162
vt 0.704841 0.807929
vt 0.752819 0.905680
vt 0.808713 0.790806
vt 0.861957 0.432254
vt 0.900283 0.519883
vt 0.917087 0.574912
vt 0.190150 0.117959
vt 0.220005 0.174863
vt 0.087736 0.176719
vt 0.260277 0.044169
vt 0.181140 0.210192
vt 0.116141 0.309898
vt 0.329068 0.135965
vt 0.672576 0.630155
vt 0.691373 0.513567
vt 0.014691 0.785465
vt 0.112279 0.799683
vt 0.025431 0.893833
vt 0.176540 0.481901
vt 0.367186 0.662589
vt 0.196712 0.707008
vt 0.166954 0.887410
vt 0.251831 0.794786
vt 0.303591 0.880694
vt 0.435127 0.056045
vt 0.379728 0.003605
vt 0.129896 0.994428
vt 0.010323 0.681999
vt 0.036058 0.259515
vt 0.038527 0.420098
vt 0.000000 0.475154
vt 0.004002 0.350278
vt 0.442914 0.600599
vt 0.349942 0.520437
vt 0.555238 0.361567
vt 0.421559 0.138317
vt 0.416556 0.001802
vt 0.897851 0.425909
vt 0.956140 0.332937
vt 1.000000 0.481848
vt 0.981751 0.606732
vt 0.734825 0.076240
vt 0.158927 0.101896
vt 0.517740 0.000000
vt 0.318692 0.817348
vt 0.269954 0.722809
vt 0.326031 0.787909
vt 0.361181 0.823430
vt 0.384349 0.781187
vt 0.551803 0.771717
vt 0.470412 0.692054
vt 0.643225 0.731258
vt 0.397798 0.879081
vt 0.406139 0.845929
vt 0.456364 0.769219
vt 0.486078 0.883797
vt 0.601234 0.839240
vt 0.544777 0.957964
vt 0.222921 0.982013
vt 0.913437 0.772273
vt 0.852942 0.888505
vt 0.807279 1.000000
vt 0.088099 0.496918
vt 0.544514 0.666944
vt 0.674436 0.684593
vt 0.851438 0.714784
vt 0.764821 0.743895
vt 0.681862 0.989573
vt 0.626881 0.972091
vt 0.023087 1.000000
vt 0.276410 0.962191
vt 0.725028 0.460213
vt 0.347751 0.943976
vt 0.946654 0.688105
vt 0.960700 0.654571
vt 0.465393 0.929968
vt 0.287236 0.204651
vt 0.563550 0.562898
vn 0.9805 -0.1594 -0.1152
vn 0.9803 -0.1764 -0.0887
vn 0.9950 -0.0893 -0.0458
vn 0.9949 -0.0876 -0.0491
vn 0.9859 -0.1558 -0.0616
vn 0.9862 -0.1605 0.0406
vn 0.9988 -0.0443 0.0199
vn 0.9979 -0.0622 -0.0188
vn 0.9763 -0.2019 -0.0775
vn 0.9921 -0.1181 -0.0433
vn 0.9930 -0.0997 0.0626
vn 0.9928 -0.0945 0.0729
vn 0.9783 -0.1997 0.0553
vn 0.9958 -0.0853 0.0347
vn 0.9921 -0.1138 -0.0520
vn 0.9881 0.1512 0.0291
vn 0.9929 -0.1146 0.0319
vn 0.9885 0.1469 0.0348
vn 0.9990 0.0230 0.0372
vn 0.9939 0.0950 -0.0566
vn 0.9826 -0.1740 0.0653
vn 0.9972 -0.0705 0.0251
vn 0.9817 0.1878 0.0312
vn 0.9983 -0.0584 -0.0002
vn 0.9985 -0.0540 0.0053
vn 0.9815 -0.1886 0.0341
vn 0.9775 -0.1931 0.0848
vn 0.9987 -0.0111 -0.0505
vn 0.9875 -0.1577 -0.0081
vn 0.9888 -0.1468 -0.0259
vn 0.9899 -0.1380 -0.0310
vn 0.9951 -0.0985 -0.0034
vn 0.9722 -0.2340 0.0103
vn 0.9949 -0.0960 0.0317
vn 0.9863 -0.1540 0.0585
vn 0.9982 -0.0564 -0.0210
vn 0.9806 -0.1580 -0.1157
vn 0.9929 -0.1006 0.0633
vn 0.9888 -0.1469 -0.0259
vn 0.9722 -0.2339 0.0103
vn 0.9853 -0.1694 -0.0197
vn 0.9914 -0.0929 -0.0925
vn 0.9963 -0.0772 -0.0372
vn 0.9776 -0.2093 -0.0216
vn 0.9943 -0.1015 -0.0342
vn 0.9935 -0.0910 0.0685
vn 0.9984 0.0292 0.0482
vn 0.9992 0.0327 0.0243
vn 0.9984 0.0301 0.0485
vn 0.9993 0.0373 0.0053
vn 0.9992 0.0386 0.0055
vn 0.9997 0.0132 -0.0223
vn 0.9990 -0.0317 -0.0307
vn 0.9990 0.0445 -0.0033
vn 0.9990 0.0435 -0.0051
vn 0.9994 0.0092 -0.0328
vn 0.9997 0.0129 -0.0215
vn 0.9990 0.0439 -0.0074
vn 0.9996 0.0059 -0.0267
vn 0.9990 -0.0258 -0.0368
vn 0.9994 -0.0188 -0.0279
vn 0.9987 0.0472 -0.0174
vn 0.9886 0.1480 0.0265
vn 0.9815 0.1749 0.0775
vn 0.9881 -0.1539 0.0018
vn 0.9950 0.0792 0.0601
vn 0.9886 -0.1105 0.1022
vn 0.9931 -0.1163 0.0158
vn 0.9990 -0.0313 -0.0306
vn 0.9910 -0.1329 -0.0128
vn 0.9983 -0.0430 -0.0388
vn 0.9946 -0.0934 -0.0453
vn 0.9980 -0.0604 -0.0193
vn 0.9973 -0.0412 -0.0600
vn 0.9940 -0.0939 -0.0554
vn 0.9996 0.0160 -0.0220
vn 0.9761 0.2101 0.0556
vn 1.0000 0.0033 0.0030
vn 0.9901 0.1019 0.0964
vn 0.9984 0.0278 0.0489
vn 0.9991 -0.0409 0.0083
vn 0.9879 -0.1443 -0.0570
vn 0.9840 -0.1712 -0.0499
vn 0.9927 -0.1182 0.0226
vn 0.9960 -0.0746 0.0499
vn 0.9923 0.1200 0.0299
vn 0.9911 -0.0876 -0.1004
vn 0.9962 -0.0788 -0.0378
vn 0.9966 -0.0573 -0.0594
vn 0.9957 -0.0706 -0.0605
vn 0.9987 -0.0270 -0.0430
vn 0.9963 -0.0791 -0.0330
vn 0.9952 0.0975 -0.0056
vn 0.9981 0.0610 0.0015
vn 0.9995 -0.0142 -0.0289
vn 0.9898 -0.1332 0.0495
vn 0.9889 -0.1370 0.0570
vn 0.9864 -0.1576 0.0472
vn 0.9991 0.0410 -0.0112
vn 0.9996 0.0241 0.0126
vn 0.9990 -0.0026 -0.0453
vn 0.9993 0.0025 -0.0378
vn 0.9990 -0.0035 -0.0455
vn 0.9837 -0.1762 0.0354
vn 0.9901 -0.1396 0.0147
vn 0.9915 -0.1290 0.0171
vn 0.9962 0.0864 0.0118
vn 0.9979 0.0640 -0.0066
vn 0.9813 -0.1860 0.0491
vn 0.9813 -0.1862 0.0495
vn 0.9993 0.0029 -0.0385
vn 0.9985 -0.0394 -0.0388
vn 0.9998 -0.0181 -0.0085
vn 0.9979 -0.0374 -0.0535
vn 0.9997 -0.0156 -0.0179
vn 0.9995 -0.0170 -0.0273
vn 0.9991 -0.0014 -0.0428
vn 0.9949 -0.0937 -0.0377
vn 0.9939 -0.1016 -0.0433
vn 0.9926 -0.1156 -0.0375
vn 0.9935 -0.0891 -0.0701
vn 0.9980 -0.0150 -0.0609
vn 0.9980 -0.0346 -0.0536
vn 0.9991 -0.0410 0.0050
vn 0.9971 -0.0501 -0.0564
vn 0.9943 -0.0876 -0.0606
vn 0.9832 -0.1775 0.0425
vn 0.9627 -0.2689 0.0316
vn 0.9867 -0.1616 -0.0166
vn 0.9806 -0.1586 -0.1148
vn 0.9927 -0.1091 -0.0521
vn 0.9961 -0.0713 -0.0519
vn 0.9920 -0.1258 -0.0039
vn 0.9842 -0.1757 0.0232
vn 0.9898 -0.1383 0.0329
vn 0.9826 -0.1842 0.0225
vn 0.9846 -0.1728 0.0281
vn 0.9869 -0.1525 -0.0522
vn 0.9875 -0.1573 -0.0074
vn 0.9873 -0.1584 -0.0099
vn 0.9874 -0.1526 -0.0413
vn 0.9875 -0.1521 -0.0407
vn 0.9932 -0.1110 0.0363
vn 0.9880 -0.1506 -0.0347
vn 0.9789 -0.2033 -0.0224
vn 0.9837 -0.1716 -0.0533
vn 0.9884 -0.1344 -0.0711
vn 0.9885 -0.1507 -0.0159
vn 0.9941 -0.1053 -0.0245
usemtl None
s off
f 1/1/1 2/2/1 3/3/1
f 1/1/2 4/4/2 2/2/2
f 5/5/3 7/6/3 6/7/3
f 5/5/4 8/8/4 7/6/4
f 9/9/5 10/10/5 3/3/5
f 11/11/6 12/12/6 13/13/6
f 14/14/7 15/15/7 16/16/7
f 17/17/8 16/16/8 15/15/8
f 18/18/9 2/2/9 4/4/9
f 5/5/10 20/19/10 19/20/10
f 21/21/11 22/22/11 23/23/11
f 22/22/12 21/21/12 24/24/12
f 25/25/13 26/26/13 23/23/13
f 22/22/14 24/24/14 27/27/14
f 6/7/15 28/28/15 29/29/15
f 30/30/16 31/31/16 32/32/16
f 33/33/17 34/34/17 35/35/17
f 31/31/18 36/36/18 32/32/18
f 36/36/19 37/37/19 38/38/19
f 37/37/20 36/36/20 31/31/20
f 25/25/21 23/23/21 22/22/21
f 39/39/22 24/24/22 40/40/22
f 41/41/23 32/32/23 36/36/23
f 31/31/24 30/30/24 42/42/24
f 31/31/25 42/42/25 35/35/25
f 25/25/26 12/12/26 26/26/26
f 26/26/27 43/43/27 23/23/27
f 37/37/28 31/31/28 35/35/28
f 44/44/29 45/45/29 46/46/29
f 47/47/30 48/48/30 49/49/30
f 9/9/31 3/3/31 50/50/31
f 39/39/32 40/40/32 51/51/32
f 52/52/33 53/53/33 54/54/33
f 20/19/34 54/54/34 19/20/34
f 20/19/35 52/52/35 54/54/35
f 55/55/36 19/20/36 54/54/36
f 56/56/37 1/1/37 3/3/37
f 21/21/38 23/23/38 57/57/38
f 48/48/39 11/11/39 49/49/39
f 18/18/40 53/53/40 52/52/40
f 11/11/41 13/13/41 49/49/41
f 9/9/42 58/58/42 10/10/42
f 5/5/43 19/20/43 8/8/43
f 18/18/44 4/4/44 53/53/44
f 5/5/45 6/7/45 29/29/45
f 57/57/46 24/24/46 21/21/46
f 59/59/47 38/38/47 37/37/47
f 60/60/48 37/37/48 35/35/48
f 61/61/49 59/59/49 37/37/49
f 59/59/50 62/62/50 38/38/50
f 62/62/51 59/59/51 61/61/51
f 62/62/52 61/61/52 63/63/52
f 64/64/53 66/65/53 65/66/53
f 67/67/54 38/38/54 62/62/54
f 67/67/55 62/62/55 68/68/55
f 63/63/56 69/69/56 68/68/56
f 62/62/57 63/63/57 68/68/57
f 68/68/58 70/70/58 67/67/58
f 68/68/59 69/69/59 70/70/59
f 71/71/60 15/15/60 14/14/60
f 71/71/61 14/14/61 70/70/61
f 72/72/62 70/70/62 14/14/62
f 73/73/63 36/36/63 38/38/63
f 73/73/64 41/41/64 36/36/64
f 17/17/65 75/74/65 74/75/65
f 74/75/66 76/76/66 16/16/66
f 16/16/67 17/17/67 74/75/67
f 77/77/68 33/33/68 35/35/68
f 78/78/69 65/66/69 66/65/69
f 47/47/70 34/34/70 48/48/70
f 79/79/71 65/66/71 78/78/71
f 79/79/72 78/78/72 28/28/72
f 80/80/73 75/74/73 17/17/73
f 80/80/74 17/17/74 81/81/74
f 79/79/75 28/28/75 6/7/75
f 14/14/76 82/82/76 83/83/76
f 84/84/77 32/32/77 41/41/77
f 83/83/78 72/72/78 14/14/78
f 85/85/79 73/73/79 38/38/79
f 61/61/80 37/37/80 60/60/80
f 60/60/81 35/35/81 34/34/81
f 18/18/82 29/29/82 86/86/82
f 18/18/83 86/86/83 2/2/83
f 39/39/84 50/50/84 24/24/84
f 50/50/85 27/27/85 24/24/85
f 38/38/86 87/87/86 85/85/86
f 8/8/87 88/88/87 75/74/87
f 80/80/88 8/8/88 75/74/88
f 89/89/89 88/88/89 8/8/89
f 80/80/90 7/6/90 8/8/90
f 89/89/91 8/8/91 55/55/91
f 8/8/92 19/20/92 55/55/92
f 87/87/93 38/38/93 67/67/93
f 90/90/94 70/70/94 72/72/94
f 81/81/95 17/17/95 15/15/95
f 91/91/96 27/27/96 50/50/96
f 91/91/97 22/22/97 27/27/97
f 25/25/98 22/22/98 91/91/98
f 82/82/99 16/16/99 76/76/99
f 82/82/100 14/14/100 16/16/100
f 64/64/101 15/15/101 71/71/101
f 71/71/102 70/70/102 64/64/102
f 64/64/103 65/66/103 15/15/103
f 11/11/104 33/33/104 12/12/104
f 48/48/105 33/33/105 11/11/105
f 33/33/106 48/48/106 34/34/106
f 87/87/107 67/67/107 90/90/107
f 90/90/108 67/67/108 70/70/108
f 91/91/109 13/13/109 12/12/109
f 25/25/110 91/91/110 12/12/110
f 69/69/111 64/64/111 70/70/111
f 64/64/112 69/69/112 66/65/112
f 60/60/113 34/34/113 61/61/113
f 34/34/114 66/65/114 69/69/114
f 34/34/115 63/63/115 61/61/115
f 69/69/116 63/63/116 34/34/116
f 78/78/117 66/65/117 34/34/117
f 47/47/118 92/92/118 78/78/118
f 47/47/119 78/78/119 34/34/119
f 29/29/120 28/28/120 78/78/120
f 29/29/121 78/78/121 92/92/121
f 7/6/122 15/15/122 65/66/122
f 79/79/123 7/6/123 65/66/123
f 81/81/124 15/15/124 7/6/124
f 80/80/125 81/81/125 7/6/125
f 79/79/126 6/7/126 7/6/126
f 33/33/127 26/26/127 12/12/127
f 26/26/128 46/46/128 43/43/128
f 44/44/129 46/46/129 26/26/129
f 10/10/130 56/56/130 3/3/130
f 9/9/131 50/50/131 39/39/131
f 58/58/132 9/9/132 39/39/132
f 77/77/133 35/35/133 42/42/133
f 77/77/134 45/45/134 44/44/134
f 45/45/135 77/77/135 42/42/135
f 44/44/136 26/26/136 33/33/136
f 77/77/137 44/44/137 33/33/137
f 18/18/138 5/5/138 29/29/138
f 18/18/139 52/52/139 20/19/139
f 18/18/140 20/19/140 5/5/140
f 86/86/141 29/29/141 49/49/141
f 29/29/142 92/92/142 49/49/142
f 91/91/143 50/50/143 49/49/143
f 50/50/144 3/3/144 49/49/144
f 13/13/145 91/91/145 49/49/145
f 2/2/146 86/86/146 49/49/146
f 2/2/147 49/49/147 3/3/147
f 47/47/148 49/49/148 92/92/148
f 39/39/149 51/51/149 58/58/149
