# Blender v2.79 (sub 0) OBJ File: ''
# www.blender.org
mtllib crack_only_28.mtl
o crack_only_28
v 2.825619 1.446528 -3.372629
v 2.851605 1.307908 -3.092937
v 2.864890 1.557829 -2.983440
v 2.872346 1.410411 -2.720909
v 2.886801 1.151449 -2.727870
v 2.885005 1.137461 -2.887232
v 2.810169 1.204974 -3.498816
v 2.833112 1.169398 -3.361783
v 2.873904 1.506241 -2.623264
v 2.892759 1.219244 -2.517109
v 2.798184 1.324490 -3.548758
v 2.793040 1.230617 -3.596225
v 2.875460 1.321627 -2.293792
v 2.870957 1.120032 -3.104777
vt 0.185199 0.814980
vt 0.000000 0.510162
vt 0.561681 0.609453
vt 0.391747 0.319284
vt 0.996154 0.339616
vt 1.000000 0.461670
vt 0.834352 0.823297
vt 0.724123 0.926566
vt 0.185939 0.239122
vt 0.876521 0.174967
vt 0.435026 0.957879
vt 0.644845 1.000000
vt 0.675743 0.000000
vt 1.000000 0.628852
vn 0.9952 -0.0102 -0.0975
vn 0.9984 -0.0326 -0.0467
vn 0.9983 0.0562 -0.0162
vn 0.9920 0.0958 -0.0817
vn 0.9869 0.0204 -0.1599
vn 0.9973 0.0438 -0.0589
vn 0.9973 0.0569 -0.0465
vn 0.9997 0.0081 -0.0239
vn 0.9858 0.0297 -0.1655
vn 0.9847 0.0269 -0.1720
vn 0.9960 0.0803 0.0403
vn 0.9916 0.1067 -0.0726
vn 0.9862 0.1094 -0.1242
vn 0.9964 0.0238 -0.0808
usemtl None
s off
f 1/1/1 3/2/1 2/3/1
f 2/3/2 3/2/2 4/4/2
f 5/5/3 6/6/3 4/4/3
f 6/6/4 2/3/4 4/4/4
f 8/7/5 7/8/5 1/1/5
f 9/9/6 10/10/6 4/4/6
f 5/5/7 4/4/7 10/10/7
f 9/9/8 4/4/8 3/2/8
f 11/11/9 7/8/9 12/12/9
f 11/11/10 1/1/10 7/8/10
f 13/13/11 10/10/11 9/9/11
f 14/14/12 2/3/12 6/6/12
f 2/3/13 14/14/13 8/7/13
f 8/7/14 1/1/14 2/3/14
