# Blender v2.79 (sub 0) OBJ File: ''
# www.blender.org
mtllib crack_only_121.mtl
o crack_only_121
v 2.815479 1.403564 -3.309877
v 2.767557 1.248757 -3.617963
v 2.881984 2.059727 -3.755609
v 2.953466 2.349986 -2.146666
v 3.010463 2.541699 -2.481238
v 3.006067 2.681391 -1.916764
v 3.098495 3.809380 -4.564186
v 3.126465 3.850699 -4.260317
v 3.098467 3.571469 -4.443037
v 2.951130 2.801939 -5.010403
v 3.006284 3.028702 -4.826507
v 2.874464 2.540578 -4.882609
v 3.099150 3.433726 -4.125617
v 3.054734 3.239788 -4.406491
v 3.060780 3.590809 -4.760032
v 3.053047 3.353709 -4.874108
v 3.078251 3.452121 -5.066441
v 3.208342 4.631011 -1.728470
v 3.219335 4.565767 -1.346827
v 3.204742 4.155508 -1.682554
v 3.128958 4.121999 -4.405424
v 3.204428 4.275611 -2.313117
v 3.221599 4.622139 -2.268592
v 3.203354 4.211697 -2.033408
v 2.865581 1.627155 -2.770471
v 2.813469 1.172478 -2.656760
v 2.808754 1.359586 -2.204545
v 3.121335 3.194084 -2.574030
v 3.174713 3.758878 -2.289556
v 3.195182 3.951945 -2.688132
v 3.154388 3.858598 -3.857325
v 3.179931 3.843326 -2.028076
v 2.884652 2.066829 -1.923308
v 2.813302 1.161777 -2.789525
v 2.748782 1.459031 -4.014397
v 2.754654 1.765564 -4.344089
v 2.823415 1.680509 -1.941380
v 2.804280 1.617763 -1.824283
v 2.816594 1.947111 -1.560112
v 2.804312 1.139234 -3.150710
v 2.936677 2.667307 -4.516715
v 2.796660 2.132768 -4.642749
v 2.992553 2.925088 -5.060562
v 3.184720 4.141854 -3.590897
v 3.185545 3.793862 -3.085750
v 3.137718 3.539450 -3.750323
v 3.167334 3.805188 -3.578536
v 3.207836 4.364466 -2.569061
v 3.038195 3.234707 -4.681583
v 3.059510 3.156124 -5.072392
v 3.206681 4.551614 -2.527890
v 3.198260 4.048529 -1.315232
v 3.178546 3.833227 -1.652645
v 3.174256 3.818152 -1.457813
v 3.148960 3.420424 -3.065398
v 3.070569 4.130942 -4.845117
v 3.071053 3.712386 -5.010026
v 3.163057 3.527156 -3.413429
v 3.229604 4.812100 -1.381146
v 3.211438 4.797738 -1.591559
v 3.213612 4.763635 -1.789840
v 3.141622 3.474711 -2.125073
v 3.087073 3.211405 -1.770346
v 3.205941 4.506752 -2.807809
v 3.197189 4.145784 -3.060983
v 3.203462 4.439627 -3.355336
v 3.031564 2.959927 -3.999177
v 3.092850 3.203584 -3.705427
v 3.051983 2.802574 -3.230905
v 2.950513 2.160891 -3.060629
v 3.116837 4.171866 -4.501481
v 3.111650 3.384034 -1.531144
v 3.155284 4.297905 -4.202242
v 3.188307 4.387622 -3.808593
v 2.885422 1.974770 -2.230187
v 3.095833 3.349552 -1.264911
v 3.142707 3.638573 -1.286394
v 3.184367 3.922820 -3.323601
v 2.983082 2.688687 -1.259685
v 2.873683 2.303326 -1.372945
vt 0.101911 0.363072
vt 0.072470 0.279251
vt 0.317067 0.283066
vt 0.315963 0.695692
vt 0.391047 0.621982
vt 0.400638 0.768225
vt 0.871473 0.164236
vt 0.867830 0.241671
vt 0.796404 0.183417
vt 0.600808 0.006471
vt 0.657911 0.062852
vt 0.516221 0.025588
vt 0.739602 0.255818
vt 0.697530 0.176987
vt 0.817921 0.105413
vt 0.755556 0.066263
vt 0.795084 0.023289
vt 0.958321 0.905478
vt 0.919252 0.997189
vt 0.818777 0.895149
vt 0.953887 0.218095
vt 0.887433 0.744331
vt 0.985369 0.771309
vt 0.853876 0.810736
vt 0.138732 0.507383
vt 0.029304 0.634979
vt 0.000000 0.514402
vt 0.587434 0.629655
vt 0.814189 0.636545
vt 0.736403 0.726363
vt 0.849205 0.342151
vt 0.746759 0.795067
vt 0.220182 0.737567
vt 0.004087 0.481005
vt 0.153864 0.190420
vt 0.260149 0.122728
vt 0.107972 0.714962
vt 0.163939 0.821561
vt 0.082973 0.740964
vt 0.016830 0.390379
vt 0.534901 0.122577
vt 0.383365 0.065795
vt 0.640286 0.000000
vt 0.917340 0.421356
vt 0.789843 0.530703
vt 0.750981 0.353982
vt 0.819163 0.408925
vt 0.926962 0.684972
vt 0.710413 0.108432
vt 0.709568 0.008162
vt 0.978601 0.703699
vt 0.767913 0.981262
vt 0.723519 0.887649
vt 0.708514 0.935217
vt 0.680042 0.518415
vt 0.978390 0.109032
vt 0.866769 0.049078
vt 0.730031 0.437136
vt 0.992375 1.000000
vt 0.999039 0.947040
vt 1.000000 0.896357
vt 0.644633 0.753898
vt 0.547918 0.829359
vt 0.980783 0.632267
vt 0.890228 0.552984
vt 0.990961 0.493476
vt 0.594189 0.264990
vt 0.650414 0.349421
vt 0.507995 0.448411
vt 0.310798 0.460510
vt 0.973059 0.196459
vt 0.585482 0.896725
vt 0.994396 0.276696
vt 1.000000 0.378633
vt 0.210275 0.657313
vt 0.560668 0.961009
vt 0.646540 0.969253
vt 0.839801 0.477619
vt 0.366511 0.931229
vt 0.258210 0.884671
vn 0.9854 -0.1521 -0.0769
vn 0.9794 -0.1941 0.0557
vn 0.9954 -0.0437 -0.0857
vn 0.9637 -0.2645 0.0371
vn 0.9886 -0.1371 -0.0616
vn 0.9929 -0.0762 0.0911
vn 0.9995 -0.0105 -0.0306
vn 0.9906 -0.0620 -0.1216
vn 0.9950 -0.0542 -0.0842
vn 0.9988 -0.0486 -0.0073
vn 0.9935 -0.1008 0.0521
vn 0.9953 -0.0963 0.0045
vn 0.9940 -0.0868 -0.0672
vn 0.9992 -0.0301 0.0250
vn 0.9979 -0.0637 -0.0141
vn 0.9937 -0.1119 0.0078
vn 0.9783 -0.1602 -0.1316
vn 0.9882 -0.1164 0.0991
vn 0.9894 -0.1032 -0.1020
vn 0.9686 -0.2340 -0.0837
vn 0.9878 -0.1233 0.0953
vn 0.9539 -0.2912 0.0729
vn 0.9967 -0.0451 -0.0671
vn 0.9954 -0.0949 0.0136
vn 0.9956 -0.0721 -0.0600
vn 0.9937 -0.0787 -0.0799
vn 0.9995 -0.0314 0.0024
vn 0.9883 -0.0898 -0.1230
vn 0.9976 -0.0536 0.0438
vn 0.9968 -0.0426 -0.0682
vn 0.9932 -0.0648 0.0970
vn 0.9999 0.0030 0.0144
vn 0.9980 -0.0436 -0.0456
vn 0.9992 -0.0404 0.0059
vn 0.9979 -0.0636 -0.0107
vn 1.0000 -0.0081 -0.0052
vn 0.9983 -0.0575 -0.0014
vn 0.9967 -0.0809 0.0015
vn 0.9967 -0.0796 0.0158
vn 0.9981 -0.0563 0.0240
vn 0.9952 -0.0969 0.0113
vn 0.9964 -0.0767 -0.0354
vn 0.9886 -0.0407 -0.1449
vn 0.9986 0.0169 0.0493
vn 0.9993 -0.0126 0.0349
vn 0.9814 -0.1191 0.1507
vn 0.9593 -0.2747 0.0653
vn 0.9952 -0.0611 -0.0771
vn 0.9982 -0.0467 -0.0367
vn 0.9944 0.0551 -0.0896
vn 0.9993 -0.0321 0.0165
vn 0.9993 -0.0281 0.0250
vn 0.9941 -0.1072 0.0148
vn 0.9886 -0.1438 0.0452
vn 0.9944 -0.1041 0.0202
vn 0.9998 -0.0205 -0.0053
vn 0.9995 -0.0242 -0.0224
vn 1.0000 0.0070 -0.0038
vn 0.9997 -0.0230 -0.0017
vn 0.9868 -0.1540 -0.0497
vn 0.9849 -0.1647 -0.0543
vn 0.9830 -0.1730 -0.0616
vn 0.9821 -0.1743 -0.0715
vn 0.9845 -0.1599 -0.0728
vn 0.9866 -0.1424 -0.0794
vn 0.9882 -0.1403 -0.0620
vn 0.9900 -0.0261 -0.1385
vn 0.9911 -0.0276 -0.1302
vn 0.9932 -0.1119 0.0330
vn 0.9847 -0.1726 0.0233
vn 0.9952 -0.0723 -0.0664
vn 0.9951 -0.0736 -0.0667
vn 0.9987 -0.0445 -0.0232
vn 0.9877 -0.1561 0.0004
vn 0.9919 -0.1132 -0.0575
vn 0.9890 -0.1367 -0.0569
vn 0.9895 -0.1442 -0.0128
vn 0.9917 -0.1218 0.0420
vn 0.9788 -0.1930 -0.0684
vn 0.9911 -0.1272 -0.0393
vn 0.9876 -0.1567 0.0008
vn 0.9951 -0.0782 -0.0600
vn 0.9798 -0.1910 0.0597
vn 0.9800 -0.1906 0.0577
vn 0.9803 -0.1807 0.0802
vn 0.9888 -0.1133 0.0969
vn 0.9887 -0.1194 0.0906
vn 0.9559 -0.2807 0.0866
vn 0.9868 -0.1572 0.0383
vn 0.9920 -0.0024 -0.1264
vn 0.9798 -0.1996 -0.0127
vn 0.9647 -0.2517 -0.0769
vn 0.9882 -0.1532 -0.0070
vn 0.9884 -0.1513 -0.0141
vn 0.9783 -0.1603 -0.1314
vn 0.9988 -0.0401 -0.0288
vn 0.9983 -0.0456 -0.0360
vn 0.9964 -0.0538 -0.0649
vn 0.9970 -0.0536 -0.0566
vn 0.9993 -0.0300 -0.0233
vn 0.9937 -0.1109 -0.0178
vn 0.9891 -0.1474 -0.0003
vn 0.9897 -0.1415 0.0216
vn 0.9863 -0.1647 0.0090
vn 0.9795 -0.1879 -0.0734
vn 0.9984 -0.0469 -0.0304
vn 0.9993 -0.0315 -0.0220
vn 0.9994 -0.0323 -0.0114
vn 0.9952 -0.0969 0.0106
vn 0.9952 -0.0971 -0.0107
vn 0.9904 -0.1310 0.0450
vn 0.9734 -0.2010 -0.1102
vn 0.9801 -0.1834 -0.0760
vn 0.9674 -0.2271 -0.1117
vn 0.9816 -0.1802 -0.0630
vn 0.9585 -0.2829 0.0367
vn 0.9739 -0.1937 0.1187
vn 0.9741 -0.2056 0.0942
vn 0.9858 -0.1681 -0.0039
vn 0.9858 -0.1608 0.0475
vn 0.9855 -0.1632 0.0455
vn 0.9847 -0.1729 0.0236
vn 0.9851 -0.1678 0.0368
vn 0.9863 -0.1608 0.0363
usemtl None
s off
f 1/1/1 2/2/1 3/3/1
f 4/4/2 5/5/2 6/6/2
f 7/7/3 8/8/3 9/9/3
f 10/10/4 11/11/4 12/12/4
f 13/13/5 14/14/5 9/9/5
f 15/15/6 16/16/6 17/17/6
f 18/18/7 19/19/7 20/20/7
f 7/7/8 9/9/8 15/15/8
f 8/8/9 7/7/9 21/21/9
f 22/22/10 23/23/10 24/24/10
f 25/25/11 27/26/11 26/27/11
f 28/28/12 30/29/12 29/30/12
f 8/8/13 31/31/13 13/13/13
f 23/23/14 18/18/14 24/24/14
f 24/24/15 20/20/15 32/32/15
f 33/33/2 4/4/2 6/6/2
f 25/25/16 26/27/16 34/34/16
f 35/35/17 36/36/17 3/3/17
f 37/37/18 39/38/18 38/39/18
f 1/1/19 40/40/19 2/2/19
f 41/41/20 42/42/20 12/12/20
f 38/39/21 27/26/21 37/37/21
f 43/43/22 11/11/22 10/10/22
f 44/44/23 8/8/23 21/21/23
f 45/45/24 30/29/24 28/28/24
f 46/46/25 31/31/25 47/47/25
f 46/46/26 13/13/26 31/31/26
f 48/48/27 22/22/27 30/29/27
f 49/49/28 15/15/28 9/9/28
f 49/49/29 16/16/29 15/15/29
f 44/44/30 31/31/30 8/8/30
f 50/50/31 17/17/31 16/16/31
f 51/51/32 22/22/32 48/48/32
f 51/51/33 23/23/33 22/22/33
f 52/52/34 20/20/34 19/19/34
f 24/24/35 32/32/35 22/22/35
f 18/18/36 20/20/36 24/24/36
f 29/30/37 22/22/37 32/32/37
f 53/53/38 32/32/38 20/20/38
f 53/53/39 20/20/39 54/54/39
f 29/30/40 30/29/40 22/22/40
f 55/55/41 45/45/41 28/28/41
f 9/9/42 8/8/42 13/13/42
f 7/7/43 15/15/43 56/56/43
f 15/15/44 17/17/44 57/57/44
f 57/57/45 56/56/45 15/15/45
f 50/50/46 16/16/46 11/11/46
f 50/50/47 11/11/47 43/43/47
f 47/47/48 58/58/48 46/46/48
f 59/59/49 19/19/49 18/18/49
f 59/59/50 18/18/50 60/60/50
f 60/60/51 18/18/51 61/61/51
f 61/61/52 18/18/52 23/23/52
f 62/62/53 29/30/53 32/32/53
f 63/63/54 28/28/54 62/62/54
f 62/62/55 28/28/55 29/30/55
f 64/64/56 30/29/56 65/65/56
f 64/64/57 48/48/57 30/29/57
f 48/48/58 64/64/58 51/51/58
f 64/64/59 65/65/59 66/66/59
f 67/67/60 14/14/60 13/13/60
f 68/68/61 58/58/61 69/69/61
f 69/69/62 67/67/62 68/68/62
f 70/70/63 3/3/63 69/69/63
f 67/67/64 13/13/64 68/68/64
f 68/68/65 46/46/65 58/58/65
f 46/46/66 68/68/66 13/13/66
f 71/71/67 21/21/67 7/7/67
f 71/71/68 7/7/68 56/56/68
f 62/62/69 32/32/69 72/72/69
f 62/62/70 72/72/70 63/63/70
f 73/73/71 44/44/71 21/21/71
f 74/74/72 44/44/72 73/73/72
f 66/66/73 65/65/73 44/44/73
f 5/5/74 70/70/74 69/69/74
f 14/14/75 11/11/75 49/49/75
f 49/49/76 9/9/76 14/14/76
f 49/49/77 11/11/77 16/16/77
f 25/25/78 75/75/78 27/26/78
f 70/70/79 25/25/79 3/3/79
f 1/1/80 3/3/80 25/25/80
f 5/5/81 25/25/81 70/70/81
f 40/40/82 1/1/82 25/25/82
f 33/33/83 75/75/83 4/4/83
f 4/4/84 75/75/84 5/5/84
f 75/75/85 25/25/85 5/5/85
f 37/37/86 75/75/86 39/38/86
f 75/75/87 37/37/87 27/26/87
f 33/33/88 39/38/88 75/75/88
f 76/76/89 72/72/89 77/77/89
f 21/21/90 71/71/90 73/73/90
f 14/14/91 41/41/91 11/11/91
f 41/41/92 12/12/92 11/11/92
f 55/55/93 69/69/93 58/58/93
f 69/69/94 55/55/94 28/28/94
f 2/2/95 35/35/95 3/3/95
f 44/44/96 74/74/96 66/66/96
f 58/58/97 44/44/97 78/78/97
f 58/58/98 47/47/98 44/44/98
f 44/44/99 47/47/99 31/31/99
f 78/78/100 44/44/100 65/65/100
f 25/25/101 34/34/101 40/40/101
f 53/53/102 72/72/102 32/32/102
f 53/53/103 77/77/103 72/72/103
f 54/54/104 77/77/104 53/53/104
f 41/41/105 14/14/105 67/67/105
f 45/45/106 58/58/106 78/78/106
f 78/78/107 65/65/107 45/45/107
f 45/45/108 65/65/108 30/29/108
f 45/45/109 55/55/109 58/58/109
f 52/52/110 54/54/110 20/20/110
f 54/54/111 52/52/111 77/77/111
f 3/3/112 36/36/112 42/42/112
f 3/3/113 41/41/113 67/67/113
f 41/41/114 3/3/114 42/42/114
f 69/69/115 3/3/115 67/67/115
f 6/6/116 79/79/116 80/80/116
f 33/33/117 6/6/117 39/38/117
f 6/6/118 80/80/118 39/38/118
f 28/28/119 5/5/119 69/69/119
f 28/28/120 6/6/120 5/5/120
f 28/28/121 63/63/121 6/6/121
f 72/72/122 79/79/122 63/63/122
f 72/72/123 76/76/123 79/79/123
f 79/79/124 6/6/124 63/63/124
