# Blender v2.79 (sub 0) OBJ File: ''
# www.blender.org
mtllib crack_only_171.mtl
o crack_only_171
v 2.765128 1.764575 -4.350697
v 2.899750 2.428509 -3.923685
v 2.870012 1.994685 -3.670465
v 2.799941 2.130138 -4.643118
v 3.134992 4.998785 -1.396203
v 3.149907 4.190612 -2.024823
v 3.140768 5.101674 -2.386796
v 3.097385 4.071357 -4.418934
v 3.059893 3.708828 -4.635662
v 3.125646 4.411805 -4.766778
v 3.045502 3.528080 -4.442066
v 3.070334 3.749090 -4.204119
v 2.794661 1.394161 -3.318967
v 2.755492 1.263222 -3.634548
v 3.046513 3.252509 -2.559805
v 2.965898 2.714355 -1.968347
v 2.888913 2.131012 -2.329771
v 2.680842 6.263636 -1.683550
v 2.744244 6.275393 -1.931406
v 2.861389 6.003980 -1.768567
v 2.554332 6.507035 -1.853841
v 2.571514 6.343480 -1.490866
v 3.169605 4.994400 -3.825459
v 3.154478 5.323278 -4.388142
v 3.163650 5.371334 -4.015652
v 3.083680 3.797731 -3.879035
v 3.035654 3.351256 -3.925949
v 2.836935 1.578013 -2.855105
v 2.795250 1.176709 -2.653611
v 2.804082 1.360077 -2.204451
v 3.156790 5.461383 -3.638201
v 3.048883 3.213947 -2.046990
v 3.043432 5.475047 -1.728168
v 3.000546 5.536049 -1.400243
v 2.792958 1.165210 -2.801970
v 3.060836 6.399189 -3.817217
v 3.123948 5.879235 -3.963901
v 3.107572 5.983662 -3.493086
v 2.965842 2.968232 -4.528855
v 2.883420 2.530275 -4.884679
v 3.026121 3.163196 -5.065647
v 3.017767 3.325780 -4.694013
v 3.151044 5.549186 -3.277530
v 3.029147 6.092575 -3.140851
v 3.157165 4.050714 -1.324589
v 2.748880 1.459017 -4.014465
v 2.784329 1.139308 -3.110124
v 2.819635 1.682594 -1.944220
v 2.804948 1.617652 -1.824243
v 2.825457 1.943261 -1.561425
v 2.974436 2.735045 -3.311986
v 2.775664 1.167558 -3.282043
v 2.970378 6.812297 -3.866122
v 2.970340 6.792532 -4.286223
v 3.116742 5.813498 -4.335088
v 3.064746 6.300433 -4.278473
v 3.100120 5.983861 -4.315618
v 3.013444 6.371393 -3.381329
v 3.092019 5.769968 -2.976222
v 2.976602 6.486659 -3.333076
v 2.969976 5.893776 -2.231648
v 2.749586 6.409122 -2.393498
v 2.868171 6.307972 -2.735074
v 2.778748 6.035201 -1.427927
v 2.513922 6.504260 -1.683749
v 3.160237 5.201708 -3.405943
v 3.142537 4.576961 -3.979416
v 3.103154 5.647470 -2.890393
v 3.158022 5.199441 -3.078657
v 3.129237 5.372465 -2.734974
v 2.633895 6.486051 -2.079440
v 2.982330 6.664756 -3.636637
v 2.477404 6.498873 -1.504836
v 3.143322 4.219992 -2.769662
v 2.867228 2.078262 -1.919981
v 3.036888 5.836898 -2.619627
v 3.089160 3.494048 -1.773966
v 3.057484 3.220042 -1.260159
v 2.852802 1.899909 -2.117748
v 3.064938 3.699429 -5.010729
v 2.929835 6.961898 -4.290580
v 2.974893 2.689769 -1.261446
v 2.878696 2.301187 -1.371878
v 3.085578 3.651926 -3.305183
v 2.999192 3.091136 -4.038341
vt 0.748334 0.074751
vt 0.668067 0.205121
vt 0.584979 0.135488
vt 0.838574 0.131096
vt 0.132645 0.735821
vt 0.259075 0.573724
vt 0.389846 0.725026
vt 0.864817 0.482325
vt 0.904641 0.411578
vt 0.968108 0.532588
vt 0.847529 0.385154
vt 0.796252 0.431387
vt 0.469535 0.039166
vt 0.544351 0.006679
vt 0.355499 0.391422
vt 0.181413 0.313233
vt 0.248644 0.199043
vt 0.256941 0.952710
vt 0.268641 0.903857
vt 0.321033 0.947451
vt 0.310004 0.991117
vt 0.210553 0.972683
vt 0.752664 0.663703
vt 0.910071 0.705655
vt 0.817076 0.725118
vt 0.715403 0.449557
vt 0.708288 0.368888
vt 0.359123 0.085406
vt 0.183689 0.065809
vt 0.290546 0.020048
vt 0.724502 0.752207
vt 0.222998 0.399617
vt 0.236980 0.810827
vt 0.155630 0.831343
vt 0.327915 0.013652
vt 0.809245 0.913734
vt 0.709236 0.849344
vt 0.825083 0.816948
vt 0.845642 0.283203
vt 0.917548 0.195022
vt 0.991191 0.302027
vt 0.903153 0.341839
vt 0.636121 0.778404
vt 0.623514 0.879130
vt 0.074490 0.569404
vt 0.649542 0.030334
vt 0.405427 0.000015
vt 0.130957 0.130746
vt 0.044283 0.188301
vt 0.097518 0.122743
vt 0.525268 0.277465
vt 0.450451 0.000000
vt 0.838676 0.985823
vt 0.945065 0.969981
vt 0.917011 0.794379
vt 0.922827 0.882641
vt 0.919140 0.825247
vt 0.696570 0.921643
vt 0.568219 0.826554
vt 0.688922 0.943587
vt 0.382759 0.870553
vt 0.528183 0.929509
vt 0.444642 0.957649
vt 0.182580 0.919500
vt 0.266260 0.995664
vt 0.654286 0.712870
vt 0.774206 0.585028
vt 0.541204 0.807290
vt 0.570645 0.722076
vt 0.490074 0.762946
vt 0.367119 0.980674
vt 0.773943 0.966323
vt 0.220176 1.000000
vt 0.450385 0.557092
vt 0.141713 0.201721
vt 0.479737 0.848979
vt 0.165343 0.457363
vt 0.022478 0.423783
vt 0.184589 0.164236
vt 1.000000 0.398894
vt 0.953107 1.000000
vt 0.000000 0.329601
vt 0.011285 0.257413
vt 0.562798 0.440484
vt 0.725809 0.319403
vn 0.9856 -0.1305 -0.1078
vn 0.9856 -0.1526 -0.0734
vn 0.9999 0.0129 0.0072
vn 0.9954 -0.0954 -0.0125
vn 0.9954 -0.0944 -0.0162
vn 0.9954 -0.0945 -0.0142
vn 0.9859 -0.1572 -0.0572
vn 0.9905 -0.1371 0.0103
vn 0.8323 0.5012 0.2367
vn 0.7890 0.5702 0.2289
vn 0.8299 0.4893 0.2681
vn 0.9997 0.0032 -0.0250
vn 0.9942 -0.1043 -0.0252
vn 0.9954 -0.0940 0.0188
vn 0.9997 0.0223 0.0129
vn 0.9859 -0.1664 -0.0171
vn 0.9667 0.2425 0.0813
vn 0.9943 -0.1068 -0.0071
vn 0.9930 0.1182 0.0083
vn 0.9423 0.3290 0.0620
vn 0.9770 -0.2108 0.0331
vn 0.9913 -0.1112 0.0709
vn 0.9954 0.0959 -0.0075
vn 0.9709 0.1772 0.1614
vn 0.9997 0.0229 -0.0058
vn 0.9824 -0.1595 -0.0975
vn 0.9939 -0.1083 -0.0187
vn 0.9919 -0.1117 0.0610
vn 0.9970 0.0780 -0.0005
vn 0.9903 -0.1390 0.0007
vn 0.9919 -0.0967 -0.0830
vn 0.9952 -0.0966 -0.0141
vn 0.9926 -0.1016 0.0665
vn 0.9771 0.2127 -0.0101
vn 0.9959 0.0898 0.0147
vn 0.9961 0.0805 -0.0349
vn 0.9928 0.1148 -0.0331
vn 0.9961 0.0813 -0.0337
vn 0.9942 0.1013 -0.0372
vn 0.9691 0.1900 0.1570
vn 0.9919 0.1256 -0.0185
vn 0.9722 0.2018 0.1186
vn 0.9770 0.2097 0.0378
vn 0.9549 0.2230 0.1962
vn 0.9817 0.1878 -0.0319
vn 0.8833 0.4337 0.1782
vn 0.8075 0.5721 0.1435
vn 0.8007 0.5556 0.2241
vn 0.9997 0.0226 0.0104
vn 0.9997 0.0231 0.0109
vn 0.9939 -0.0888 0.0661
vn 0.9916 0.0782 0.1028
vn 0.9935 0.1100 0.0279
vn 0.9853 0.1485 0.0842
vn 0.7891 0.5715 0.2251
vn 0.8198 0.5474 0.1679
vn 0.9702 0.2235 0.0932
vn 0.8330 0.5212 0.1857
vn 0.9999 0.0066 -0.0086
vn 0.9997 0.0239 0.0069
vn 0.9994 -0.0343 0.0065
vn 0.9952 0.0908 0.0376
vn 0.9880 -0.1508 0.0329
vn 0.9780 0.2070 0.0272
vn 0.9803 0.1701 0.0999
vn 0.9986 -0.0505 0.0178
vn 0.9943 -0.0922 -0.0541
vn 0.9946 -0.0823 -0.0636
vn 0.9948 -0.0975 -0.0298
vn 0.9929 -0.1193 -0.0024
vn 0.9955 -0.0929 0.0191
vn 0.9917 -0.1246 0.0331
vn 0.9891 -0.1436 -0.0332
vn 0.9911 -0.1330 -0.0098
vn 0.9919 -0.1211 0.0369
vn 0.9927 -0.1060 0.0571
vn 0.9929 -0.1000 0.0646
vn 0.9874 -0.1463 0.0599
vn 0.9996 -0.0249 -0.0162
vn 1.0000 0.0028 0.0002
vn 0.9976 -0.0451 -0.0532
vn 0.9963 -0.0859 -0.0035
vn 0.9963 -0.0861 -0.0033
vn 0.9964 -0.0790 -0.0291
vn 0.9274 0.3585 0.1074
vn 0.9786 0.1635 0.1251
vn 0.9714 0.1964 0.1335
vn 0.9591 0.2561 0.1206
vn 0.9824 -0.1587 -0.0989
vn 0.9941 -0.1056 -0.0247
vn 0.9899 -0.1203 0.0749
vn 0.9972 -0.0737 0.0153
vn 0.9958 -0.0902 0.0157
vn 0.9726 0.2323 -0.0110
vn 0.9324 0.3530 0.0779
vn 0.9779 0.1722 0.1189
vn 0.9321 0.2914 0.2151
vn 0.9389 0.2437 0.2431
vn 0.8049 0.5585 0.2003
vn 0.9329 0.3318 0.1398
vn 0.9783 0.2054 0.0281
vn 0.9731 0.1822 0.1411
vn 0.8894 0.4454 0.1026
vn 0.8954 0.4248 0.1333
vn 0.9862 -0.1653 -0.0095
vn 0.9718 -0.2348 -0.0205
vn 0.9879 -0.1538 -0.0179
vn 0.9871 -0.1486 0.0590
vn 0.9861 -0.1632 0.0311
vn 0.9950 -0.0999 -0.0014
vn 0.9927 -0.1202 -0.0124
vn 0.9915 -0.1267 -0.0283
vn 0.9915 -0.1277 -0.0250
vn 0.9937 -0.1108 0.0184
vn 0.9869 -0.1555 -0.0426
vn 0.9919 -0.1073 -0.0673
vn 0.9966 -0.0788 -0.0239
vn 0.9967 -0.0783 -0.0232
vn 0.9942 -0.1038 -0.0297
vn 0.9925 -0.1202 -0.0216
vn 0.9939 -0.1019 -0.0421
vn 0.9947 -0.1023 -0.0128
vn 0.9946 -0.1026 -0.0123
vn 0.9917 -0.1232 -0.0366
vn 0.9878 -0.1532 -0.0288
vn 0.9902 -0.1366 -0.0279
vn 0.9899 -0.1416 0.0047
vn 0.9808 -0.1861 -0.0589
vn 0.9805 -0.1960 0.0141
vn 0.8952 0.4078 0.1798
usemtl None
s off
f 1/1/1 2/2/1 3/3/1
f 1/1/2 4/4/2 2/2/2
f 5/5/3 6/6/3 7/7/3
f 8/8/4 9/9/4 10/10/4
f 11/11/5 8/8/5 12/12/5
f 11/11/6 9/9/6 8/8/6
f 13/13/7 14/14/7 3/3/7
f 15/15/8 16/16/8 17/17/8
f 18/18/9 20/19/9 19/20/9
f 19/20/10 21/21/10 18/18/10
f 22/22/11 20/19/11 18/18/11
f 23/23/12 24/24/12 25/25/12
f 12/12/13 26/26/13 27/27/13
f 28/28/14 30/29/14 29/30/14
f 23/23/15 25/25/15 31/31/15
f 15/15/16 32/32/16 16/16/16
f 33/33/17 34/34/17 5/5/17
f 28/28/18 29/30/18 35/35/18
f 36/36/19 38/37/19 37/38/19
f 33/33/20 20/19/20 34/34/20
f 39/39/21 40/40/21 41/41/21
f 42/42/22 39/39/22 41/41/22
f 43/43/23 31/31/23 38/37/23
f 44/44/24 43/43/24 38/37/24
f 45/45/25 6/6/25 5/5/25
f 46/46/26 1/1/26 3/3/26
f 28/28/27 35/35/27 47/47/27
f 48/48/28 50/49/28 49/50/28
f 25/25/29 37/38/29 31/31/29
f 15/15/30 17/17/30 51/51/30
f 13/13/31 52/52/31 14/14/31
f 11/11/32 12/12/32 27/27/32
f 49/50/33 30/29/33 48/48/33
f 53/53/34 36/36/34 54/54/34
f 38/37/35 31/31/35 37/38/35
f 55/55/36 25/25/36 24/24/36
f 56/56/37 37/38/37 57/57/37
f 55/55/38 37/38/38 25/25/38
f 55/55/39 57/57/39 37/38/39
f 58/58/40 44/44/40 38/37/40
f 56/56/41 36/36/41 37/38/41
f 58/58/42 38/37/42 36/36/42
f 59/59/43 43/43/43 44/44/43
f 60/60/44 44/44/44 58/58/44
f 56/56/45 54/54/45 36/36/45
f 61/61/46 63/62/46 62/63/46
f 64/64/47 20/19/47 22/22/47
f 65/65/48 22/22/48 18/18/48
f 66/66/49 31/31/49 43/43/49
f 66/66/50 23/23/50 31/31/50
f 67/67/51 23/23/51 66/66/51
f 68/68/52 69/69/52 43/43/52
f 69/69/53 68/68/53 70/70/53
f 59/59/54 68/68/54 43/43/54
f 71/71/55 21/21/55 19/20/55
f 71/71/56 19/20/56 62/63/56
f 72/72/57 36/36/57 53/53/57
f 73/73/58 22/22/58 65/65/58
f 74/74/59 7/7/59 6/6/59
f 69/69/60 66/66/60 43/43/60
f 66/66/61 69/69/61 67/67/61
f 69/69/62 70/70/62 7/7/62
f 75/75/63 17/17/63 16/16/63
f 7/7/64 33/33/64 5/5/64
f 76/76/65 7/7/65 70/70/65
f 69/69/66 7/7/66 67/67/66
f 52/52/67 13/13/67 28/28/67
f 28/28/68 47/47/68 52/52/68
f 45/45/69 77/77/69 6/6/69
f 77/77/70 45/45/70 78/78/70
f 79/79/71 30/29/71 28/28/71
f 28/28/72 17/17/72 79/79/72
f 13/13/73 3/3/73 28/28/73
f 77/77/74 78/78/74 32/32/74
f 75/75/75 79/79/75 17/17/75
f 48/48/76 79/79/76 50/49/76
f 79/79/77 48/48/77 30/29/77
f 75/75/78 50/49/78 79/79/78
f 10/10/79 24/24/79 67/67/79
f 74/74/80 67/67/80 7/7/80
f 23/23/81 67/67/81 24/24/81
f 8/8/82 67/67/82 12/12/82
f 8/8/83 10/10/83 67/67/83
f 26/26/84 12/12/84 67/67/84
f 61/61/85 76/76/85 63/62/85
f 68/68/86 76/76/86 70/70/86
f 72/72/87 60/60/87 36/36/87
f 58/58/88 36/36/88 60/60/88
f 14/14/89 46/46/89 3/3/89
f 11/11/90 42/42/90 9/9/90
f 42/42/91 41/41/91 9/9/91
f 80/80/92 9/9/92 41/41/92
f 9/9/93 80/80/93 10/10/93
f 81/81/94 53/53/94 54/54/94
f 59/59/95 63/62/95 76/76/95
f 68/68/96 59/59/96 76/76/96
f 59/59/97 44/44/97 63/62/97
f 60/60/98 63/62/98 44/44/98
f 65/65/99 18/18/99 21/21/99
f 33/33/100 61/61/100 20/19/100
f 33/33/101 7/7/101 61/61/101
f 61/61/102 7/7/102 76/76/102
f 61/61/103 19/20/103 20/19/103
f 61/61/104 62/63/104 19/20/104
f 16/16/105 32/32/105 78/78/105
f 16/16/106 82/82/106 83/83/106
f 16/16/107 78/78/107 82/82/107
f 75/75/108 16/16/108 50/49/108
f 16/16/109 83/83/109 50/49/109
f 74/74/110 15/15/110 84/84/110
f 84/84/111 15/15/111 51/51/111
f 85/85/112 27/27/112 51/51/112
f 28/28/113 3/3/113 51/51/113
f 17/17/114 28/28/114 51/51/114
f 2/2/115 85/85/115 51/51/115
f 2/2/116 51/51/116 3/3/116
f 84/84/117 67/67/117 74/74/117
f 26/26/118 67/67/118 84/84/118
f 27/27/119 26/26/119 84/84/119
f 27/27/120 84/84/120 51/51/120
f 6/6/121 77/77/121 32/32/121
f 15/15/122 74/74/122 6/6/122
f 32/32/123 15/15/123 6/6/123
f 39/39/124 27/27/124 85/85/124
f 39/39/125 85/85/125 2/2/125
f 39/39/126 11/11/126 27/27/126
f 39/39/127 42/42/127 11/11/127
f 39/39/128 2/2/128 4/4/128
f 39/39/129 4/4/129 40/40/129
f 64/64/130 34/34/130 20/19/130
