# Blender v2.79 (sub 0) OBJ File: ''
# www.blender.org
mtllib crack_only_161.mtl
o crack_only_161
v 3.105150 4.070614 -4.415758
v 3.067475 3.701607 -4.635863
v 3.125743 4.411775 -4.766840
v 2.763106 1.764766 -4.349421
v 2.913607 2.429002 -3.922107
v 2.872111 1.993916 -3.670157
v 2.799295 2.130656 -4.643045
v 2.796734 1.395098 -3.318062
v 2.757232 1.261768 -3.633343
v 3.169605 4.994400 -3.825459
v 3.146775 4.578691 -3.978204
v 3.161501 4.959949 -4.179551
v 2.875623 2.072753 -1.921584
v 2.885815 2.029199 -2.359349
v 2.805430 1.359936 -2.204478
v 3.074285 3.750881 -4.204012
v 3.096805 3.594612 -3.418771
v 3.127123 3.759588 -2.957862
v 3.165834 5.374689 -4.015654
v 3.166017 5.465240 -3.633102
v 3.155346 5.323215 -4.388107
v 3.209879 4.540196 -1.346663
v 3.211026 4.600509 -1.710479
v 3.141761 5.006504 -1.396985
v 3.170144 4.962580 -1.918554
v 3.185148 4.668770 -2.571759
v 3.178869 4.927502 -2.444180
v 3.180961 4.854086 -4.580712
v 2.821294 1.407111 -2.847779
v 2.798874 1.175867 -2.654238
v 3.032372 5.553682 -1.757940
v 2.991729 5.646148 -1.400717
v 3.035846 3.055403 -2.528292
v 3.066132 3.261723 -1.874311
v 2.970802 2.709947 -1.961515
v 3.168184 4.128642 -1.997149
v 2.771075 6.093112 -1.426334
v 2.840730 6.081076 -1.762107
v 3.149887 5.563168 -3.278331
v 3.114205 5.977160 -3.515721
v 2.856556 1.714583 -2.818288
v 2.796535 1.164607 -2.799783
v 3.015356 3.263974 -4.487222
v 2.882711 2.531091 -4.884515
v 3.029022 3.162582 -5.066233
v 3.125457 5.899979 -3.953317
v 2.748690 1.459045 -4.014332
v 2.787109 1.138599 -3.111079
v 2.778267 1.166524 -3.280448
v 3.091671 5.417488 -2.201128
v 2.945843 5.937676 -2.030114
v 2.924837 6.043523 -2.141122
v 3.117974 5.823127 -4.334235
v 3.051937 6.360603 -4.274830
v 3.097150 5.996531 -4.312576
v 3.182392 4.104033 -1.320954
v 3.071476 6.416694 -3.889502
v 3.182336 4.429354 -2.774009
v 3.059585 3.220445 -1.259617
v 3.171412 5.130924 -3.174206
v 3.144406 5.296616 -2.663864
v 3.037269 5.643142 -2.193062
v 3.062888 3.699257 -5.009761
v 3.101093 6.113657 -3.456916
v 3.034520 6.504796 -4.284132
v 2.976533 2.689552 -1.261093
v 2.876995 2.301913 -1.372240
v 2.823779 1.943990 -1.561177
v 2.804811 1.617675 -1.824251
v 3.113026 5.620118 -2.913395
v 2.985775 2.726240 -3.304622
v 3.011536 3.094224 -4.035717
v 3.047139 3.340306 -3.929839
v 2.991116 5.973413 -2.471248
v 3.112593 5.930089 -3.211948
v 3.070164 5.888239 -2.874239
vt 0.861468 0.528343
vt 0.904127 0.451107
vt 0.964344 0.584199
vt 0.757789 0.085728
vt 0.673169 0.225865
vt 0.592194 0.149112
vt 0.846869 0.147992
vt 0.479344 0.043572
vt 0.555220 0.008996
vt 0.744532 0.722714
vt 0.768189 0.638422
vt 0.834118 0.706161
vt 0.146333 0.213194
vt 0.192223 0.067981
vt 0.257089 0.192601
vt 0.795135 0.472682
vt 0.587800 0.464654
vt 0.475708 0.509363
vt 0.807527 0.790526
vt 0.712715 0.818643
vt 0.901186 0.770179
vt 0.091432 0.704804
vt 0.187064 0.706231
vt 0.121611 0.792888
vt 0.253899 0.769933
vt 0.410627 0.695196
vt 0.387520 0.748509
vt 0.933173 0.674635
vt 0.359130 0.059106
vt 0.300786 0.019980
vt 0.234460 0.887721
vt 0.146143 0.915381
vt 0.339012 0.385679
vt 0.178906 0.443740
vt 0.180528 0.334903
vt 0.242963 0.607334
vt 0.168972 1.000000
vt 0.254838 0.988492
vt 0.625277 0.847355
vt 0.701582 0.920238
vt 0.363095 0.119169
vt 0.337719 0.013736
vt 0.849554 0.370943
vt 0.923941 0.218494
vt 0.994414 0.335286
vt 0.811043 0.893186
vt 0.660351 0.036259
vt 0.416632 0.000000
vt 0.461129 0.000608
vt 0.343246 0.849299
vt 0.318478 0.953716
vt 0.350879 0.970909
vt 0.905933 0.867729
vt 0.910608 0.972577
vt 0.906802 0.901627
vt 0.068512 0.621555
vt 0.813834 0.994199
vt 0.453604 0.643482
vt 0.019580 0.452975
vt 0.582470 0.767194
vt 0.457609 0.813259
vt 0.349489 0.892770
vt 1.000000 0.440184
vt 0.691555 0.948098
vt 0.918341 1.000000
vt 0.000000 0.350588
vt 0.013882 0.272638
vt 0.048925 0.198361
vt 0.104242 0.128186
vt 0.533663 0.868411
vt 0.525902 0.300512
vt 0.727327 0.350913
vt 0.709397 0.401306
vt 0.433123 0.948380
vt 0.621854 0.919677
vt 0.533532 0.920952
vn 0.9959 -0.0864 -0.0256
vn 0.9823 -0.1547 -0.1054
vn 0.9822 -0.1667 -0.0867
vn 0.9859 -0.1576 -0.0569
vn 0.9987 -0.0482 -0.0182
vn 0.9932 -0.1114 0.0342
vn 0.9959 -0.0898 0.0096
vn 0.9966 -0.0730 -0.0394
vn 1.0000 0.0087 -0.0025
vn 0.9996 0.0007 -0.0282
vn 0.9887 0.1474 0.0276
vn 0.9898 0.1361 0.0424
vn 0.9997 -0.0015 -0.0227
vn 0.9997 0.0166 0.0155
vn 0.9948 0.0997 -0.0220
vn 0.9829 -0.1606 0.0901
vn 0.9987 -0.0474 -0.0166
vn 0.9965 -0.0810 0.0186
vn 0.9754 0.2179 0.0347
vn 0.9722 0.2283 0.0515
vn 0.9851 -0.1715 0.0085
vn 0.9970 -0.0690 -0.0354
vn 0.8803 0.4441 0.1667
vn 0.9397 0.3416 0.0185
vn 0.9952 0.0965 0.0186
vn 0.9896 -0.1412 -0.0282
vn 0.9946 -0.1031 -0.0080
vn 0.9973 -0.0719 -0.0114
vn 0.9761 -0.2090 0.0596
vn 0.9967 0.0789 -0.0191
vn 0.9817 -0.1599 -0.1036
vn 0.9942 -0.1057 -0.0213
vn 0.9951 0.0988 0.0082
vn 0.9985 0.0388 0.0382
vn 0.9920 -0.0941 -0.0845
vn 0.9849 0.1729 0.0048
vn 0.9756 0.2094 0.0662
vn 0.9182 0.3586 0.1682
vn 0.9237 0.3371 0.1819
vn 0.9961 0.0787 -0.0389
vn 0.9909 0.1276 -0.0438
vn 0.9961 0.0808 -0.0359
vn 0.9912 0.1246 -0.0446
vn 0.9980 -0.0633 -0.0074
vn 0.9968 -0.0761 -0.0237
vn 0.9947 0.1030 0.0074
vn 0.9967 -0.0716 -0.0383
vn 0.9932 -0.1154 0.0160
vn 0.9932 -0.1156 0.0159
vn 0.9932 -0.1165 0.0028
vn 0.9899 -0.1394 -0.0259
vn 0.9996 -0.0014 -0.0297
vn 0.9983 -0.0583 0.0095
vn 0.9968 -0.0788 -0.0123
vn 0.9875 0.1378 0.0766
vn 0.9713 0.2324 0.0500
vn 0.9998 0.0046 -0.0193
vn 0.9997 -0.0204 0.0103
vn 0.9980 -0.0617 -0.0119
vn 0.9964 -0.0839 -0.0117
vn 0.9928 -0.1092 -0.0491
vn 0.9948 -0.0886 -0.0497
vn 0.9959 -0.0653 -0.0628
vn 0.9817 -0.1593 -0.1045
vn 0.9954 0.0960 -0.0009
vn 0.9915 0.1118 -0.0666
vn 0.9911 0.1154 -0.0671
vn 0.9965 0.0554 -0.0633
vn 0.9854 -0.1701 -0.0009
vn 0.9695 -0.2446 -0.0151
vn 0.9879 -0.1545 -0.0126
vn 0.9857 -0.1415 0.0912
vn 0.9850 -0.1679 0.0406
vn 0.9866 -0.1334 0.0943
vn 0.9867 -0.1338 0.0923
vn 0.9971 0.0692 0.0303
vn 0.9938 0.1095 0.0170
vn 0.9935 0.0710 0.0893
vn 0.9887 -0.1453 0.0375
vn 0.9897 -0.1401 0.0282
vn 0.9894 -0.1450 -0.0023
vn 0.9910 -0.1302 -0.0306
vn 0.9874 -0.1525 -0.0420
vn 0.9905 -0.1263 -0.0550
vn 0.9898 -0.1398 -0.0278
vn 0.9928 -0.1183 0.0178
vn 0.9979 0.0568 0.0297
vn 0.9999 0.0096 -0.0048
vn 0.9909 -0.1308 -0.0312
vn 0.9914 -0.1293 -0.0189
vn 0.9930 -0.1181 -0.0087
vn 0.9921 -0.1251 0.0057
vn 0.9911 -0.1330 -0.0075
vn 0.9912 -0.1265 -0.0392
vn 0.9869 -0.1537 -0.0494
vn 0.9810 -0.1756 -0.0829
vn 0.9814 -0.1903 0.0234
vn 0.9769 0.1999 0.0752
vn 0.9960 0.0876 0.0189
vn 0.9950 0.0974 0.0204
vn 0.9937 -0.1042 0.0417
vn 0.9939 -0.1089 -0.0196
vn 0.9935 -0.1122 0.0180
vn 0.9945 -0.0949 -0.0437
vn 0.9926 0.0851 0.0870
vn 0.9807 0.1363 0.1401
vn 0.9751 0.1868 0.1196
vn 0.9776 0.1324 0.1638
vn 0.9580 0.2510 0.1390
vn 0.9626 0.2629 0.0649
vn 0.9710 0.2320 0.0586
vn 0.9628 0.2616 0.0673
vn 0.9941 -0.0978 -0.0480
vn 0.9962 -0.0754 -0.0436
usemtl None
s off
f 1/1/1 2/2/1 3/3/1
f 4/4/2 5/5/2 6/6/2
f 4/4/3 7/7/3 5/5/3
f 8/8/4 9/9/4 6/6/4
f 10/10/5 11/11/5 12/12/5
f 13/13/6 15/14/6 14/15/6
f 1/1/7 11/11/7 16/16/7
f 17/17/8 11/11/8 18/18/8
f 10/10/9 19/19/9 20/20/9
f 19/19/10 12/12/10 21/21/10
f 22/22/11 23/23/11 24/24/11
f 23/23/12 25/25/12 24/24/12
f 12/12/13 19/19/13 10/10/13
f 25/25/14 26/26/14 27/27/14
f 26/26/15 25/25/15 23/23/15
f 12/12/16 3/3/16 28/28/16
f 12/12/17 11/11/17 3/3/17
f 29/29/18 15/14/18 30/30/18
f 31/31/19 24/24/19 25/25/19
f 31/31/20 32/32/20 24/24/20
f 33/33/21 34/34/21 35/35/21
f 26/26/22 23/23/22 36/36/22
f 37/37/23 32/32/23 38/38/23
f 31/31/24 38/38/24 32/32/24
f 39/39/25 20/20/25 40/40/25
f 8/8/26 6/6/26 41/41/26
f 29/29/27 30/30/27 42/42/27
f 1/1/28 3/3/28 11/11/28
f 43/43/29 44/44/29 45/45/29
f 19/19/30 46/46/30 20/20/30
f 47/47/31 4/4/31 6/6/31
f 29/29/32 42/42/32 48/48/32
f 40/40/33 20/20/33 46/46/33
f 28/28/34 21/21/34 12/12/34
f 8/8/35 49/49/35 9/9/35
f 50/50/36 25/25/36 27/27/36
f 50/50/37 31/31/37 25/25/37
f 51/51/38 52/52/38 38/38/38
f 51/51/39 38/38/39 31/31/39
f 53/53/40 19/19/40 21/21/40
f 54/54/41 46/46/41 55/55/41
f 53/53/42 46/46/42 19/19/42
f 53/53/43 55/55/43 46/46/43
f 56/56/44 23/23/44 22/22/44
f 56/56/45 36/36/45 23/23/45
f 57/57/46 40/40/46 46/46/46
f 58/58/47 18/18/47 11/11/47
f 29/29/48 41/41/48 15/14/48
f 41/41/49 14/15/49 15/14/49
f 36/36/50 59/59/50 34/34/50
f 36/36/51 56/56/51 59/59/51
f 60/60/52 58/58/52 11/11/52
f 60/60/53 11/11/53 10/10/53
f 58/58/54 36/36/54 18/18/54
f 50/50/55 27/27/55 61/61/55
f 62/62/56 50/50/56 61/61/56
f 58/58/57 60/60/57 26/26/57
f 58/58/58 26/26/58 36/36/58
f 63/63/59 2/2/59 45/45/59
f 2/2/60 63/63/60 3/3/60
f 8/8/61 41/41/61 29/29/61
f 49/49/62 8/8/62 29/29/62
f 29/29/63 48/48/63 49/49/63
f 9/9/64 47/47/64 6/6/64
f 40/40/65 57/57/65 64/64/65
f 57/57/66 46/46/66 54/54/66
f 54/54/67 65/65/67 57/57/67
f 26/26/68 61/61/68 27/27/68
f 35/35/69 34/34/69 59/59/69
f 35/35/70 66/66/70 67/67/70
f 35/35/71 59/59/71 66/66/71
f 13/13/72 35/35/72 68/68/72
f 35/35/73 67/67/73 68/68/73
f 69/69/74 13/13/74 68/68/74
f 13/13/75 69/69/75 15/14/75
f 26/26/76 60/60/76 61/61/76
f 70/70/77 61/61/77 60/60/77
f 60/60/78 39/39/78 70/70/78
f 13/13/79 14/15/79 35/35/79
f 33/33/80 35/35/80 14/15/80
f 33/33/81 14/15/81 71/71/81
f 72/72/82 73/73/82 71/71/82
f 5/5/83 72/72/83 71/71/83
f 5/5/84 71/71/84 6/6/84
f 41/41/85 6/6/85 71/71/85
f 14/15/86 41/41/86 71/71/86
f 60/60/87 20/20/87 39/39/87
f 60/60/88 10/10/88 20/20/88
f 73/73/89 17/17/89 71/71/89
f 18/18/90 71/71/90 17/17/90
f 34/34/91 33/33/91 36/36/91
f 33/33/92 18/18/92 36/36/92
f 18/18/93 33/33/93 71/71/93
f 43/43/94 73/73/94 72/72/94
f 43/43/95 72/72/95 5/5/95
f 43/43/96 5/5/96 7/7/96
f 43/43/97 7/7/97 44/44/97
f 62/62/98 61/61/98 74/74/98
f 40/40/99 64/64/99 75/75/99
f 75/75/100 39/39/100 40/40/100
f 43/43/101 45/45/101 2/2/101
f 16/16/102 43/43/102 1/1/102
f 43/43/103 2/2/103 1/1/103
f 43/43/104 16/16/104 73/73/104
f 75/75/105 70/70/105 39/39/105
f 75/75/106 76/76/106 70/70/106
f 70/70/107 74/74/107 61/61/107
f 70/70/108 76/76/108 74/74/108
f 74/74/109 52/52/109 62/62/109
f 51/51/110 31/31/110 62/62/110
f 50/50/111 62/62/111 31/31/111
f 52/52/112 51/51/112 62/62/112
f 73/73/113 16/16/113 17/17/113
f 16/16/114 11/11/114 17/17/114
