# Blender v2.79 (sub 0) OBJ File: ''
# www.blender.org
mtllib crack_only_149.mtl
o crack_only_149
v 2.760327 1.765029 -4.347668
v 2.839071 2.140658 -4.198668
v 2.874156 1.993166 -3.669858
v 2.798278 2.131470 -4.642931
v 2.801755 1.397365 -3.315870
v 2.759854 1.256222 -3.625230
v 3.168772 5.021499 -3.818079
v 3.153691 4.584424 -3.980037
v 3.167063 4.974374 -4.182914
v 3.041740 2.913165 -2.508981
v 2.999468 2.762053 -2.030256
v 2.893992 2.123516 -2.339446
v 3.141690 4.492239 -4.396254
v 3.159278 5.439504 -4.011195
v 3.166284 5.601936 -3.603950
v 3.152131 5.349624 -4.384490
v 3.212986 4.546251 -1.347146
v 3.214951 4.609893 -1.709614
v 3.141395 5.024041 -1.397883
v 3.153125 3.758204 -2.249427
v 3.194666 3.985978 -2.676504
v 3.197186 4.192660 -2.031484
v 3.171802 4.973134 -1.914429
v 3.192107 4.567763 -2.246118
v 3.187515 4.937236 -2.428784
v 2.818972 1.682960 -1.944718
v 2.853161 1.923328 -2.063327
v 2.821860 1.944824 -1.560892
v 2.806667 1.359805 -2.204503
v 2.850819 1.746863 -2.473270
v 2.869904 2.076506 -1.920492
v 2.824358 1.396374 -2.876900
v 2.803012 1.174906 -2.654953
v 3.147285 3.716342 -2.964764
v 3.108513 3.375342 -2.593405
v 2.991095 2.702269 -3.320136
v 2.958507 2.601388 -1.532166
v 2.979167 2.689204 -1.260527
v 2.875824 2.302412 -1.372489
v 2.865092 1.744921 -2.828241
v 2.801241 1.163812 -2.796904
v 2.978088 2.964119 -4.535683
v 2.880506 2.533627 -4.884006
v 3.030690 3.162229 -5.066570
v 3.035382 3.334061 -4.691029
v 2.748533 1.459067 -4.014223
v 2.792390 1.137252 -3.112891
v 2.804630 1.617705 -1.824262
v 2.945795 2.572774 -3.784839
v 2.783132 1.164591 -3.277467
v 3.201219 4.541631 -2.529962
v 3.197732 4.251024 -2.313994
v 3.186916 4.863819 -4.574921
v 3.126380 4.411574 -4.767255
v 3.197868 4.685038 -2.664252
v 3.176061 4.432738 -3.382244
v 3.160558 4.258624 -3.733889
v 3.183314 4.264311 -3.079356
v 3.185205 4.916319 -2.816301
v 3.165526 5.199481 -2.963268
v 3.185941 4.933854 -3.161988
v 3.172993 4.730424 -3.586472
v 3.163938 5.225761 -3.398413
v 3.084591 3.246751 -2.123720
v 3.100311 3.401766 -1.842890
v 3.186938 4.103037 -1.319896
v 3.150851 3.957920 -3.493882
v 3.158182 5.729022 -3.966159
v 3.027206 5.654885 -1.988976
v 3.139666 5.418290 -2.689771
v 3.149045 5.429054 -3.207980
v 3.064862 3.192654 -1.738384
v 3.129297 4.068126 -4.184237
v 3.022193 3.093414 -4.021017
v 3.070922 3.619805 -4.558065
v 3.082598 5.539249 -2.318932
v 3.110576 3.549654 -3.413801
v 3.061336 3.329836 -3.898721
v 2.966578 5.776072 -1.400699
v 3.061871 3.699171 -5.009281
v 3.098678 3.761943 -4.203351
v 3.063228 3.230943 -1.259852
v 3.138282 5.811335 -4.335319
v 3.194847 4.518225 -2.897924
vt 0.805872 0.129481
vt 0.768300 0.211444
vt 0.628944 0.182248
vt 0.884820 0.207356
vt 0.533660 0.055042
vt 0.614237 0.023194
vt 0.680424 0.833393
vt 0.721031 0.739190
vt 0.775892 0.822043
vt 0.328246 0.385350
vt 0.202125 0.354069
vt 0.280609 0.214966
vt 0.829794 0.717880
vt 0.732881 0.921941
vt 0.626781 0.958161
vt 0.830391 0.901343
vt 0.030367 0.740934
vt 0.125686 0.753324
vt 0.045841 0.841835
vt 0.263659 0.568510
vt 0.376569 0.616345
vt 0.208316 0.662773
vt 0.181026 0.829630
vt 0.266224 0.742142
vt 0.315724 0.820423
vt 0.175316 0.121045
vt 0.207403 0.172521
vt 0.075792 0.178379
vt 0.242063 0.050898
vt 0.314142 0.133361
vt 0.170583 0.206000
vt 0.418513 0.056668
vt 0.359390 0.009776
vt 0.451067 0.557023
vt 0.352276 0.484836
vt 0.540118 0.336742
vt 0.070883 0.320832
vt 0.000000 0.340839
vt 0.027849 0.256255
vt 0.407194 0.131938
vt 0.396568 0.006892
vt 0.860014 0.388352
vt 0.949645 0.293702
vt 1.000000 0.429652
vt 0.902258 0.467740
vt 0.717133 0.065051
vt 0.479327 0.000000
vt 0.143470 0.107299
vt 0.661486 0.306801
vt 0.522614 0.005143
vt 0.340528 0.735716
vt 0.282648 0.674288
vt 0.926755 0.699140
vt 0.878178 0.797360
vt 0.376366 0.765860
vt 0.563586 0.709146
vt 0.483424 0.674290
vt 0.655069 0.670494
vt 0.417254 0.814589
vt 0.457044 0.874322
vt 0.507976 0.817162
vt 0.618429 0.772032
vt 0.571265 0.878423
vt 0.228595 0.458608
vt 0.155599 0.492937
vt 0.021349 0.645906
vt 0.590851 0.606898
vt 0.722321 0.983964
vt 0.203735 0.972971
vt 0.522228 0.922312
vt 0.386309 0.921650
vt 0.127347 0.448076
vt 0.772387 0.627770
vt 0.725546 0.418405
vt 0.868570 0.529798
vt 0.289675 0.947937
vt 0.568152 0.519311
vt 0.694437 0.469936
vt 0.050090 1.000000
vt 0.987246 0.545081
vt 0.776126 0.561806
vt 0.002031 0.457878
vt 0.819509 1.000000
vt 0.436926 0.729357
vn 0.9806 -0.1619 -0.1102
vn 0.9814 -0.1714 -0.0866
vn 0.9857 -0.1566 -0.0620
vn 0.9994 -0.0344 -0.0002
vn 0.9837 -0.1774 0.0309
vn 0.9988 -0.0441 -0.0190
vn 0.9997 0.0125 -0.0222
vn 0.9993 0.0261 -0.0254
vn 0.9880 0.1514 0.0319
vn 0.9925 -0.1176 0.0338
vn 0.9888 0.1424 0.0442
vn 0.9998 0.0194 -0.0072
vn 0.9992 0.0266 0.0287
vn 0.9947 0.0903 -0.0494
vn 0.9919 -0.1083 0.0664
vn 0.9916 -0.1018 0.0796
vn 0.9953 -0.0905 0.0333
vn 0.9991 -0.0103 -0.0417
vn 0.9828 -0.1714 0.0686
vn 0.9970 -0.0738 0.0222
vn 0.9894 -0.1427 -0.0277
vn 0.9653 -0.2611 0.0110
vn 0.9899 -0.1382 -0.0301
vn 0.9949 -0.1005 -0.0046
vn 0.9733 -0.2294 0.0108
vn 0.9899 -0.1330 0.0485
vn 0.9810 -0.1590 -0.1112
vn 0.9943 -0.1054 -0.0190
vn 0.9927 -0.1027 0.0626
vn 0.9888 -0.1472 -0.0235
vn 0.9824 -0.1866 -0.0128
vn 0.9842 -0.1425 -0.1050
vn 0.9913 -0.0944 -0.0912
vn 0.9934 -0.0926 0.0681
vn 0.9992 0.0270 0.0296
vn 0.9998 0.0166 0.0054
vn 0.9918 -0.1271 -0.0133
vn 0.9977 0.0581 0.0342
vn 0.9936 -0.0852 0.0743
vn 0.9994 0.0322 0.0095
vn 0.9992 -0.0191 -0.0346
vn 0.9988 0.0490 -0.0086
vn 0.9974 0.0723 0.0058
vn 0.9989 -0.0189 -0.0420
vn 0.9999 0.0000 0.0115
vn 0.9996 -0.0071 -0.0271
vn 0.9980 0.0606 -0.0180
vn 0.9915 -0.1290 0.0157
vn 0.9916 -0.1256 0.0294
vn 0.9930 -0.1149 0.0283
vn 0.9982 -0.0590 -0.0049
vn 0.9988 -0.0489 0.0082
vn 0.9976 -0.0595 -0.0342
vn 0.9893 -0.1434 -0.0284
vn 0.9998 0.0069 -0.0199
vn 0.9768 0.2112 0.0367
vn 0.9999 -0.0111 -0.0004
vn 0.9955 0.0927 0.0199
vn 0.9878 -0.1529 0.0291
vn 0.9855 -0.1664 0.0345
vn 0.9854 -0.1679 0.0269
vn 0.9900 -0.1409 0.0119
vn 0.9904 -0.1380 0.0127
vn 0.9927 -0.1188 0.0197
vn 0.9955 -0.0854 0.0405
vn 0.9980 -0.0237 -0.0592
vn 0.9820 -0.1757 -0.0697
vn 0.9956 0.0931 -0.0110
vn 0.9961 0.0835 0.0274
vn 0.9983 0.0230 0.0535
vn 0.9989 -0.0186 -0.0421
vn 0.9996 -0.0080 -0.0267
vn 0.9992 -0.0089 -0.0396
vn 0.9950 -0.0841 -0.0545
vn 0.9985 -0.0449 -0.0314
vn 0.9972 0.0746 0.0028
vn 0.9972 0.0742 -0.0012
vn 0.9778 0.2091 0.0153
vn 0.9909 -0.1280 0.0405
vn 0.9900 -0.1316 0.0510
vn 0.9885 -0.1458 0.0405
vn 0.9830 -0.1800 0.0363
vn 0.9990 -0.0392 -0.0201
vn 0.9830 0.1528 0.1014
vn 0.9822 0.1507 0.1121
vn 0.9980 -0.0350 -0.0523
vn 0.9935 -0.1062 -0.0418
vn 0.9913 -0.1219 -0.0490
vn 0.9928 -0.1081 -0.0518
vn 0.9726 0.2263 0.0536
vn 0.9873 -0.1487 0.0557
vn 0.9981 -0.0548 -0.0297
vn 0.9963 -0.0787 -0.0338
vn 0.9970 -0.0654 -0.0416
vn 0.9925 -0.1149 -0.0413
vn 0.9942 -0.0965 -0.0465
vn 0.9810 -0.1589 -0.1114
vn 0.9945 -0.0970 -0.0389
vn 0.9934 -0.1097 -0.0338
vn 0.9927 -0.1088 -0.0514
vn 0.9948 -0.0881 -0.0514
vn 0.9958 -0.0624 -0.0664
vn 0.9871 -0.1593 0.0161
vn 0.9900 -0.1407 -0.0035
vn 0.9930 -0.1146 0.0296
vn 0.9851 -0.1712 0.0171
vn 0.9879 -0.1533 -0.0256
vn 0.9888 -0.1446 -0.0369
vn 0.9890 -0.1434 -0.0354
vn 0.9847 -0.1669 -0.0495
vn 0.9886 -0.1469 -0.0327
vn 0.9929 -0.1151 0.0304
vn 0.9892 -0.1340 -0.0591
vn 0.9894 -0.1426 -0.0279
vn 0.9627 -0.2706 -0.0081
vn 0.9812 -0.1820 0.0644
vn 0.9825 -0.1758 0.0618
vn 0.9996 -0.0074 -0.0280
vn 0.9892 -0.1378 -0.0501
vn 0.9826 -0.1817 -0.0386
vn 0.9888 -0.1416 -0.0479
vn 0.9897 -0.1390 0.0341
vn 0.9761 -0.1998 -0.0855
vn 0.9778 -0.2092 -0.0154
vn 0.9991 0.0328 -0.0270
vn 0.9986 0.0117 -0.0512
vn 0.9991 -0.0169 -0.0398
vn 0.9987 -0.0100 -0.0495
vn 0.9997 0.0235 0.0033
vn 0.9989 0.0314 -0.0354
vn 0.9995 0.0111 0.0311
vn 0.9999 -0.0118 0.0002
vn 0.9998 -0.0073 -0.0168
vn 0.9998 0.0067 -0.0177
usemtl None
s off
f 1/1/1 2/2/1 3/3/1
f 1/1/2 4/4/2 2/2/2
f 5/5/3 6/6/3 3/3/3
f 7/7/4 8/8/4 9/9/4
f 10/10/5 11/11/5 12/12/5
f 13/13/6 9/9/6 8/8/6
f 7/7/7 14/14/7 15/15/7
f 14/14/8 9/9/8 16/16/8
f 17/17/9 18/18/9 19/19/9
f 20/20/10 21/21/10 22/22/10
f 18/18/11 23/23/11 19/19/11
f 9/9/12 14/14/12 7/7/12
f 23/23/13 24/24/13 25/25/13
f 24/24/14 23/23/14 18/18/14
f 26/26/15 27/27/15 28/28/15
f 27/27/16 26/26/16 29/29/16
f 27/27/17 29/29/17 30/30/17
f 24/24/18 18/18/18 22/22/18
f 31/31/19 28/28/19 27/27/19
f 32/32/20 29/29/20 33/33/20
f 34/34/21 35/35/21 36/36/21
f 37/37/22 38/38/22 39/39/22
f 5/5/23 3/3/23 40/40/23
f 32/32/24 33/33/24 41/41/24
f 42/42/25 43/43/25 44/44/25
f 45/45/26 42/42/26 44/44/26
f 46/46/27 1/1/27 3/3/27
f 32/32/28 41/41/28 47/47/28
f 26/26/29 28/28/29 48/48/29
f 35/35/30 10/10/30 36/36/30
f 10/10/31 12/12/31 36/36/31
f 49/49/32 3/3/32 2/2/32
f 5/5/33 50/50/33 6/6/33
f 48/48/34 29/29/34 26/26/34
f 51/51/35 25/25/35 24/24/35
f 52/52/36 24/24/36 22/22/36
f 13/13/37 54/53/37 53/54/37
f 53/54/38 16/16/38 9/9/38
f 9/9/39 13/13/39 53/54/39
f 51/51/40 55/55/40 25/25/40
f 56/56/41 58/57/41 57/58/41
f 59/59/42 25/25/42 55/55/42
f 60/60/43 59/59/43 61/61/43
f 62/62/44 8/8/44 7/7/44
f 63/63/45 7/7/45 15/15/45
f 62/62/46 7/7/46 61/61/46
f 63/63/47 61/61/47 7/7/47
f 64/64/48 20/20/48 65/65/48
f 64/64/49 21/21/49 20/20/49
f 65/65/50 20/20/50 22/22/50
f 66/66/51 18/18/51 17/17/51
f 66/66/52 22/22/52 18/18/52
f 67/67/53 57/58/53 58/57/53
f 34/34/54 21/21/54 35/35/54
f 68/68/55 15/15/55 14/14/55
f 19/19/56 23/23/56 69/69/56
f 52/52/57 22/22/57 21/21/57
f 60/60/58 71/70/58 70/71/58
f 64/64/59 65/65/59 72/72/59
f 10/10/60 64/64/60 11/11/60
f 64/64/61 37/37/61 11/11/61
f 64/64/61 72/72/61 37/37/61
f 35/35/62 64/64/62 10/10/62
f 64/64/63 35/35/63 21/21/63
f 32/32/64 40/40/64 29/29/64
f 40/40/65 30/30/65 29/29/65
f 73/73/66 8/8/66 57/58/66
f 74/74/67 49/49/67 2/2/67
f 59/59/68 70/71/68 25/25/68
f 59/59/69 60/60/69 70/71/69
f 71/70/70 63/63/70 15/15/70
f 56/56/71 8/8/71 62/62/71
f 62/62/72 61/61/72 56/56/72
f 56/56/73 57/58/73 8/8/73
f 73/73/74 75/75/74 54/53/74
f 73/73/75 54/53/75 13/13/75
f 60/60/76 61/61/76 71/70/76
f 63/63/77 71/70/77 61/61/77
f 69/69/78 23/23/78 25/25/78
f 40/40/79 12/12/79 30/30/79
f 12/12/80 27/27/80 30/30/80
f 31/31/81 27/27/81 12/12/81
f 31/31/82 12/12/82 11/11/82
f 13/13/83 8/8/83 73/73/83
f 76/76/84 25/25/84 70/71/84
f 76/76/85 69/69/85 25/25/85
f 67/67/86 58/57/86 21/21/86
f 34/34/87 77/77/87 67/67/87
f 34/34/88 67/67/88 21/21/88
f 78/78/89 67/67/89 77/77/89
f 19/19/90 69/69/90 79/79/90
f 45/45/91 44/44/91 75/75/91
f 80/80/92 75/75/92 44/44/92
f 75/75/93 80/80/93 54/53/93
f 67/67/94 73/73/94 57/58/94
f 81/81/95 67/67/95 78/78/95
f 67/67/96 81/81/96 73/73/96
f 6/6/97 46/46/97 3/3/97
f 75/75/98 73/73/98 81/81/98
f 75/75/99 81/81/99 78/78/99
f 5/5/100 40/40/100 32/32/100
f 50/50/101 5/5/101 32/32/101
f 32/32/102 47/47/102 50/50/102
f 72/72/103 65/65/103 82/82/103
f 66/66/104 82/82/104 22/22/104
f 65/65/105 22/22/105 82/82/105
f 82/82/106 37/37/106 72/72/106
f 82/82/107 38/38/107 37/37/107
f 74/74/108 78/78/108 36/36/108
f 78/78/109 77/77/109 36/36/109
f 49/49/110 74/74/110 36/36/110
f 40/40/111 3/3/111 36/36/111
f 12/12/112 40/40/112 36/36/112
f 49/49/113 36/36/113 3/3/113
f 34/34/114 36/36/114 77/77/114
f 39/39/115 11/11/115 37/37/115
f 31/31/116 39/39/116 28/28/116
f 31/31/117 11/11/117 39/39/117
f 58/57/118 56/56/118 61/61/118
f 42/42/119 78/78/119 74/74/119
f 42/42/120 74/74/120 2/2/120
f 42/42/121 75/75/121 78/78/121
f 42/42/122 45/45/122 75/75/122
f 42/42/123 2/2/123 4/4/123
f 42/42/124 4/4/124 43/43/124
f 83/83/125 14/14/125 16/16/125
f 14/14/126 83/83/126 68/68/126
f 58/57/127 84/84/127 21/21/127
f 58/57/128 61/61/128 84/84/128
f 59/59/129 84/84/129 61/61/129
f 55/55/130 84/84/130 59/59/130
f 51/51/131 24/24/131 52/52/131
f 52/52/132 21/21/132 51/51/132
f 21/21/133 84/84/133 51/51/133
f 55/55/134 51/51/134 84/84/134
