# Blender v2.79 (sub 0) OBJ File: ''
# www.blender.org
mtllib crack_only_43.mtl
o crack_only_43
v 2.828913 1.378424 -3.369281
v 2.781841 1.242859 -3.624382
v 2.835062 1.705614 -3.671291
v 2.896192 1.719099 -2.700339
v 2.876125 1.409264 -2.734984
v 2.877097 1.578647 -2.992800
v 2.804933 1.206594 -3.511899
v 2.872368 1.472617 -2.484559
v 2.871435 1.767241 -2.328520
v 2.846933 1.359467 -2.198687
v 2.945877 1.938558 -2.887282
v 2.828547 1.792021 -2.112414
v 2.800986 1.501977 -2.004092
v 2.753755 1.641034 -1.810953
v 2.756429 1.433775 -3.954334
v 2.880511 1.222049 -2.525845
v 2.852424 1.121943 -3.133497
v 2.852889 1.307510 -3.090105
v 2.902016 1.888121 -2.475743
v 2.907562 1.866073 -3.333195
v 2.823310 1.171854 -3.365513
vt 0.622801 0.735302
vt 0.745272 0.863026
vt 0.138591 0.848864
vt 0.324906 0.401755
vt 0.715751 0.441497
vt 0.443486 0.546886
vt 0.814071 0.814059
vt 0.688625 0.321676
vt 0.344900 0.227453
vt 0.896770 0.199202
vt 0.000000 0.470552
vt 0.362795 0.126517
vt 0.626502 0.000000
vt 0.759533 0.099132
vt 0.431977 1.000000
vt 1.000000 0.359802
vt 1.000000 0.646598
vt 0.771653 0.612450
vt 0.156200 0.285652
vt 0.000102 0.681014
vt 0.888550 0.749429
vn 0.9854 -0.1250 -0.1154
vn 0.9975 -0.0606 -0.0360
vn 0.9808 0.0239 -0.1937
vn 0.9972 -0.0682 0.0322
vn 0.9969 -0.0344 0.0708
vn 0.9966 -0.0362 0.0743
vn 0.9801 -0.1962 0.0302
vn 0.9809 0.0029 0.1943
vn 0.9709 -0.0028 0.2395
vn 0.9724 -0.0052 0.2334
vn 0.9804 -0.1279 -0.1495
vn 0.9988 -0.0238 -0.0422
vn 0.9975 0.0137 -0.0692
vn 0.9963 -0.0731 -0.0443
vn 0.9850 -0.1491 0.0867
vn 0.9856 -0.1463 0.0846
vn 0.9806 -0.0097 0.1957
vn 0.9937 -0.0532 -0.0989
vn 0.9791 -0.1476 -0.1399
vn 0.9868 -0.1559 -0.0434
vn 0.9909 -0.0293 -0.1313
vn 0.9953 0.0167 0.0952
vn 0.9995 0.0313 0.0071
vn 0.9926 0.0254 -0.1191
vn 0.9953 -0.0287 -0.0928
vn 0.9836 -0.1714 -0.0567
usemtl None
s off
f 1/1/1 2/2/1 3/3/1
f 4/4/2 5/5/2 6/6/2
f 1/1/3 7/7/3 2/2/3
f 5/5/4 4/4/4 8/8/4
f 4/4/5 9/9/5 8/8/5
f 9/9/6 10/10/6 8/8/6
f 11/11/7 4/4/7 6/6/7
f 9/9/8 12/12/8 10/10/8
f 12/12/9 14/13/9 13/14/9
f 13/14/10 10/10/10 12/12/10
f 2/2/11 15/15/11 3/3/11
f 16/16/12 17/17/12 5/5/12
f 5/5/13 17/17/13 18/18/13
f 5/5/14 18/18/14 6/6/14
f 11/11/15 19/19/15 4/4/15
f 19/19/16 9/9/16 4/4/16
f 9/9/17 19/19/17 12/12/17
f 1/1/18 6/6/18 18/18/18
f 3/3/19 20/20/19 1/1/19
f 6/6/20 1/1/20 20/20/20
f 21/21/21 7/7/21 1/1/21
f 10/10/22 16/16/22 8/8/22
f 16/16/23 5/5/23 8/8/23
f 18/18/24 17/17/24 21/21/24
f 21/21/25 1/1/25 18/18/25
f 11/11/26 6/6/26 20/20/26
