# Blender v2.79 (sub 0) OBJ File: ''
# www.blender.org
mtllib crack_only_116.mtl
o crack_only_116
v 2.820576 1.405866 -3.307652
v 2.767357 1.264854 -3.647996
v 2.944362 2.225757 -3.427848
v 3.010617 2.499250 -2.493601
v 3.045926 2.800990 -2.067490
v 2.982291 2.406360 -2.245169
v 3.092778 2.893363 -2.518960
v 2.821892 1.681349 -1.942524
v 2.881168 2.008145 -2.208398
v 2.815354 1.947650 -1.559928
v 2.809241 1.359534 -2.204555
v 2.860953 1.754682 -2.451676
v 2.838178 1.373666 -2.858593
v 2.815990 1.171893 -2.657195
v 3.208254 4.649001 -1.732083
v 3.219785 4.705908 -1.365799
v 3.208012 4.169459 -1.697591
v 2.974771 2.596106 -1.537915
v 2.985740 2.688336 -1.259113
v 2.873967 2.303205 -1.372884
v 2.872290 1.675344 -2.751056
v 2.816340 1.161265 -2.787667
v 2.748335 1.459096 -4.014083
v 2.754059 1.765621 -4.343713
v 2.810845 1.132546 -3.119226
v 3.149360 3.328937 -2.601329
v 3.184173 3.838122 -2.312437
v 3.195816 3.950486 -2.692435
v 2.804349 1.617752 -1.824279
v 3.040599 2.951468 -1.415194
v 2.800487 1.157695 -3.266833
v 3.119437 3.175948 -2.194920
v 3.159740 3.477706 -3.053194
v 3.127922 3.213126 -3.192240
v 3.135940 3.249480 -3.004930
v 3.073210 2.828622 -3.063634
v 3.190444 3.795907 -3.090265
v 3.163659 3.536174 -3.424735
v 3.114164 3.142901 -3.379373
v 3.183233 3.912253 -3.477192
v 3.189370 3.954459 -3.348259
v 3.069665 3.226091 -4.219809
v 3.093827 3.378290 -4.194947
v 3.097250 3.335683 -4.064112
v 3.043572 3.150602 -4.390146
v 3.107794 3.581990 -4.448967
v 3.044172 3.217375 -4.514634
v 3.186425 4.025174 -2.173922
v 3.176816 3.773817 -2.018305
v 3.203319 4.224222 -2.030045
v 3.195449 4.205760 -2.374490
v 3.151747 3.640307 -1.284061
v 3.160133 3.620090 -1.629312
v 3.123978 3.292062 -1.600070
v 3.142155 3.472196 -2.002661
v 3.130825 3.403163 -1.892182
v 3.182509 3.855607 -1.867458
v 3.191124 3.987433 -1.315130
v 3.177928 3.822654 -1.461552
v 3.180911 3.839337 -1.653587
v 3.061584 3.164702 -5.073385
v 3.051789 3.373584 -4.873790
v 3.000820 3.030130 -4.772369
v 3.206444 4.101771 -1.314899
v 3.132114 3.879853 -4.261684
v 3.082566 3.479991 -5.062459
v 2.961374 2.507569 -1.680375
v 3.101210 3.220316 -1.761867
v 3.040652 2.887494 -1.645483
v 2.994296 2.930288 -5.062097
v 2.952358 2.806909 -5.011630
v 2.873571 2.541605 -4.882403
v 3.141593 4.033142 -4.334888
v 3.120166 3.976183 -4.519097
v 3.220919 4.472725 -2.183346
v 3.189034 4.198510 -3.620248
v 3.158410 3.897369 -3.869107
v 3.169621 4.154591 -3.799097
v 3.155272 4.130523 -3.986295
v 3.212944 4.435781 -2.330204
v 3.201255 4.320208 -2.840731
v 3.211942 4.398502 -2.489750
v 2.991540 2.584599 -3.811509
v 3.065408 2.827201 -3.338894
v 3.054693 2.816146 -3.539151
v 3.021989 3.094512 -4.516017
v 3.020801 2.902523 -4.178315
v 2.945065 2.596762 -4.300264
v 2.916314 2.374068 -4.138253
v 2.796448 2.132938 -4.642725
v 2.940344 2.117517 -2.633019
v 3.063138 3.779561 -4.773043
v 3.057913 3.772176 -4.981586
v 3.060610 3.372098 -4.677433
v 3.201043 4.295056 -3.168623
v 3.199548 4.182998 -3.100870
v 3.113146 3.334681 -3.824563
v 3.079480 3.002288 -3.657204
v 3.105380 3.358181 -1.263262
v 3.142270 3.544941 -3.748152
vt 0.116626 0.340620
vt 0.095991 0.249465
vt 0.377394 0.358061
vt 0.396750 0.601188
vt 0.459243 0.721941
vt 0.350152 0.656200
vt 0.520660 0.617685
vt 0.103849 0.688043
vt 0.223494 0.642063
vt 0.157140 0.795828
vt 0.024590 0.606324
vt 0.163283 0.568620
vt 0.075956 0.448267
vt 0.000000 0.485860
vt 1.000000 0.907613
vt 0.991849 1.000000
vt 0.852686 0.889418
vt 0.357433 0.838720
vt 0.366088 0.911776
vt 0.253579 0.861631
vt 0.160801 0.491495
vt 0.005982 0.453531
vt 0.179726 0.170974
vt 0.295739 0.107824
vt 0.020431 0.371215
vt 0.660156 0.622355
vt 0.856077 0.635109
vt 0.794958 0.721218
vt 0.075662 0.713112
vt 0.458609 0.888935
vt 0.038029 0.336592
vt 0.584226 0.712456
vt 0.737283 0.520767
vt 0.664050 0.519620
vt 0.665948 0.471952
vt 0.538698 0.481381
vt 0.837168 0.529693
vt 0.781236 0.433650
vt 0.657387 0.422392
vt 0.899275 0.441931
vt 0.903183 0.475702
vt 0.740000 0.222080
vt 0.785132 0.236807
vt 0.763181 0.266312
vt 0.728208 0.176192
vt 0.865066 0.186436
vt 0.757162 0.149611
vt 0.841808 0.765312
vt 0.892448 0.811520
vt 0.754561 0.789143
vt 0.910814 0.726614
vt 0.661629 0.960135
vt 0.577620 0.863667
vt 0.680126 0.875097
vt 0.661045 0.775883
vt 0.631994 0.798823
vt 0.768869 0.830436
vt 0.770153 0.972212
vt 0.730182 0.927321
vt 0.748846 0.881553
vt 0.781213 0.010920
vt 0.829911 0.070963
vt 0.717114 0.076092
vt 0.805251 0.978759
vt 0.942783 0.248757
vt 0.876479 0.031265
vt 0.340210 0.799018
vt 0.566481 0.820097
vt 0.455487 0.829359
vt 0.707093 0.000000
vt 0.664707 0.005021
vt 0.572529 0.020969
vt 0.994598 0.239539
vt 0.989554 0.191349
vt 0.978968 0.788174
vt 0.996040 0.423052
vt 0.921431 0.345505
vt 0.994633 0.376910
vt 1.000000 0.329887
vt 0.977843 0.750315
vt 0.978413 0.619579
vt 0.977769 0.709420
vt 0.514557 0.285079
vt 0.557346 0.414253
vt 0.567698 0.364810
vt 0.719315 0.142242
vt 0.637506 0.213751
vt 0.550893 0.166375
vt 0.471143 0.193161
vt 0.429329 0.055859
vt 0.288617 0.545404
vt 0.945897 0.118095
vt 0.958146 0.066894
vt 0.815974 0.118743
vt 0.993878 0.538406
vt 0.955200 0.548663
vt 0.746614 0.324698
vt 0.633164 0.346654
vt 0.573205 0.949093
vt 0.805845 0.355235
vn 0.9831 -0.1612 -0.0869
vn 0.9828 -0.1788 0.0452
vn 0.9779 -0.2000 0.0606
vn 0.9902 -0.1059 0.0906
vn 0.9902 -0.1093 0.0864
vn 0.9934 -0.1100 0.0320
vn 0.9968 -0.0670 0.0427
vn 0.9995 -0.0027 -0.0310
vn 0.9538 -0.2945 0.0599
vn 0.9882 -0.1519 -0.0183
vn 0.9951 -0.0987 0.0107
vn 0.9800 -0.1540 -0.1262
vn 0.9945 -0.1047 -0.0074
vn 0.9973 -0.0732 0.0089
vn 0.9903 -0.1054 0.0903
vn 0.9814 -0.1902 0.0243
vn 0.9886 -0.0987 -0.1137
vn 0.9900 -0.1102 0.0876
vn 0.9832 -0.1699 0.0673
vn 0.9939 -0.1082 -0.0215
vn 0.9943 -0.1063 -0.0121
vn 0.9893 -0.1455 -0.0141
vn 0.9891 -0.1469 -0.0040
vn 0.9951 -0.0903 0.0393
vn 0.9919 -0.1239 0.0264
vn 0.9953 -0.0966 -0.0047
vn 0.9915 -0.1277 -0.0250
vn 0.9933 -0.1154 -0.0077
vn 0.9980 -0.0560 -0.0292
vn 0.9868 -0.1447 -0.0730
vn 0.9859 -0.1421 -0.0880
vn 0.9851 -0.1564 -0.0712
vn 0.9843 -0.1574 -0.0797
vn 0.9976 -0.0596 -0.0347
vn 0.9995 -0.0263 0.0193
vn 0.9973 -0.0709 -0.0190
vn 0.9938 -0.1068 0.0304
vn 0.9994 -0.0272 0.0205
vn 0.9994 -0.0268 0.0227
vn 0.9954 -0.0928 0.0254
vn 0.9941 -0.1013 0.0386
vn 0.9982 -0.0589 -0.0057
vn 0.9974 -0.0674 -0.0252
vn 0.9965 -0.0836 0.0042
vn 0.9956 -0.0935 0.0073
vn 0.9967 -0.0807 0.0085
vn 0.9955 -0.0943 0.0003
vn 0.9967 -0.0817 0.0012
vn 0.9999 -0.0015 -0.0144
vn 0.9830 -0.1006 0.1535
vn 0.9910 -0.1327 -0.0194
vn 0.9970 -0.0770 -0.0070
vn 0.9901 -0.0701 0.1220
vn 0.9794 -0.1895 0.0702
vn 0.9743 -0.2207 0.0455
vn 0.9856 -0.1591 0.0578
vn 0.9831 -0.1763 0.0484
vn 0.9998 -0.0221 0.0002
vn 0.9793 -0.1960 -0.0509
vn 0.9892 -0.1460 0.0102
vn 0.9934 -0.1097 0.0339
vn 0.9932 -0.1127 0.0307
vn 0.9910 -0.1325 -0.0199
vn 0.9596 -0.2720 0.0721
vn 0.9532 -0.2917 0.0791
vn 0.9638 -0.2622 0.0494
vn 0.9913 -0.1014 -0.0840
vn 0.9981 -0.0430 0.0448
vn 0.9944 -0.0150 -0.1043
vn 0.9970 -0.0235 -0.0734
vn 0.9976 -0.0197 -0.0659
vn 0.9955 -0.0899 -0.0314
vn 0.9994 -0.0247 -0.0249
vn 0.9972 -0.0424 -0.0621
vn 0.9804 -0.1890 -0.0562
vn 0.9750 -0.2188 -0.0401
vn 0.9803 -0.1760 -0.0897
vn 0.9879 -0.1544 -0.0147
vn 0.9855 -0.1570 -0.0641
vn 0.9840 -0.1589 -0.0803
vn 0.9812 -0.1693 -0.0928
vn 0.9680 -0.2169 -0.1263
vn 0.9725 -0.2174 -0.0838
vn 0.9751 -0.2000 -0.0956
vn 0.9743 -0.2004 -0.1026
vn 0.9930 -0.1043 -0.0558
vn 0.9745 -0.2103 -0.0780
vn 0.9667 -0.2349 -0.1014
vn 0.9687 -0.2330 -0.0856
vn 0.9835 -0.1772 -0.0367
vn 0.9889 -0.1481 -0.0152
vn 0.9911 -0.1267 0.0411
vn 0.9939 -0.0914 0.0619
vn 0.9845 -0.1744 -0.0188
vn 0.9801 -0.1947 0.0390
vn 0.9851 -0.1534 0.0780
vn 0.9803 -0.1753 0.0915
vn 0.9682 -0.2391 0.0733
vn 0.9679 -0.2385 0.0786
vn 0.9830 -0.0616 -0.1730
vn 0.9900 -0.0594 0.1280
vn 0.9954 0.0918 -0.0282
vn 0.9857 -0.0443 -0.1628
vn 0.9988 -0.0168 -0.0450
vn 0.9994 -0.0260 -0.0210
vn 0.9855 -0.1565 -0.0660
vn 0.9863 -0.1421 -0.0839
vn 0.9842 -0.1555 0.0849
vn 0.9935 -0.1142 -0.0001
vn 0.9934 -0.1143 -0.0026
vn 0.9963 -0.0857 0.0089
vn 0.9799 -0.1505 -0.1308
vn 0.9945 -0.0843 -0.0629
vn 0.9973 -0.0709 -0.0193
vn 0.9945 -0.0892 -0.0551
vn 0.9914 -0.1132 -0.0663
vn 0.9929 -0.0766 -0.0907
vn 0.9863 -0.1592 -0.0440
vn 0.9810 -0.1786 -0.0756
vn 0.9810 -0.1783 -0.0763
vn 0.9865 -0.1579 -0.0432
vn 0.9897 -0.1312 -0.0572
vn 0.9883 -0.1497 -0.0272
vn 0.9807 -0.1934 -0.0268
vn 0.9791 -0.2033 -0.0099
vn 0.9788 -0.2047 -0.0108
vn 0.9861 -0.1583 -0.0509
vn 0.9853 -0.1621 -0.0546
vn 0.9861 -0.1598 -0.0455
vn 0.9687 -0.2362 0.0763
vn 0.9559 -0.2812 0.0848
vn 0.9663 -0.2251 0.1251
vn 0.9987 -0.0378 -0.0352
vn 0.9995 -0.0219 -0.0209
vn 0.9999 -0.0143 0.0010
vn 0.9999 -0.0131 0.0004
vn 0.9972 -0.0722 -0.0189
vn 0.9973 -0.0572 0.0471
vn 0.9781 -0.2014 0.0535
vn 0.9781 -0.2005 0.0559
vn 0.9832 -0.1753 0.0500
vn 0.9911 -0.1219 0.0542
vn 0.9794 -0.1952 -0.0513
vn 0.9936 -0.1112 -0.0190
vn 0.9978 -0.0545 -0.0376
vn 0.9995 -0.0240 -0.0189
vn 0.9997 -0.0236 -0.0043
vn 0.9695 -0.2294 -0.0862
vn 0.9682 -0.2153 -0.1272
vn 0.9897 -0.1302 -0.0594
vn 0.9913 -0.1124 -0.0686
vn 0.9943 -0.0961 -0.0459
vn 0.9951 -0.0880 -0.0453
vn 0.9967 -0.0316 -0.0753
vn 0.9952 -0.0971 -0.0091
vn 0.9973 -0.0724 0.0147
vn 0.9776 -0.1898 0.0912
vn 0.9765 -0.2076 0.0579
vn 0.9968 -0.0508 -0.0612
vn 0.9963 -0.0603 -0.0608
vn 0.9953 -0.0688 -0.0677
vn 0.9969 -0.0781 0.0120
usemtl None
s off
f 1/1/1 2/2/1 3/3/1
f 4/4/2 5/5/2 6/6/2
f 4/4/3 7/7/3 5/5/3
f 8/8/4 9/9/4 10/10/4
f 9/9/5 8/8/5 11/11/5
f 9/9/6 11/11/6 12/12/6
f 13/13/7 11/11/7 14/14/7
f 15/15/8 16/16/8 17/17/8
f 18/18/9 19/19/9 20/20/9
f 1/1/10 3/3/10 21/21/10
f 13/13/11 14/14/11 22/22/11
f 23/23/12 24/24/12 3/3/12
f 13/13/13 22/22/13 25/25/13
f 26/26/14 28/27/14 27/28/14
f 8/8/15 10/10/15 29/29/15
f 30/30/16 19/19/16 18/18/16
f 1/1/17 31/31/17 2/2/17
f 29/29/18 11/11/18 8/8/18
f 5/5/19 7/7/19 32/32/19
f 33/33/20 35/34/20 34/35/20
f 33/33/21 26/26/21 35/34/21
f 35/34/22 36/36/22 34/35/22
f 35/34/23 26/26/23 36/36/23
f 26/26/24 27/28/24 32/32/24
f 26/26/25 32/32/25 7/7/25
f 37/37/26 33/33/26 38/38/26
f 34/35/27 39/39/27 38/38/27
f 34/35/28 38/38/28 33/33/28
f 40/40/29 41/41/29 38/38/29
f 42/42/30 43/43/30 44/44/30
f 42/42/31 45/45/31 43/43/31
f 45/45/32 46/46/32 43/43/32
f 45/45/33 47/47/33 46/46/33
f 48/48/34 50/49/34 49/50/34
f 49/50/35 27/28/35 48/48/35
f 48/48/36 51/51/36 50/49/36
f 52/52/37 54/53/37 53/54/37
f 51/51/38 48/48/38 27/28/38
f 51/51/39 27/28/39 28/27/39
f 55/55/40 32/32/40 27/28/40
f 56/56/41 32/32/41 55/55/41
f 49/50/42 50/49/42 57/57/42
f 57/57/43 50/49/43 17/17/43
f 58/58/44 59/59/44 17/17/44
f 59/59/45 53/54/45 60/60/45
f 60/60/46 17/17/46 59/59/46
f 57/57/47 60/60/47 53/54/47
f 60/60/48 57/57/48 17/17/48
f 15/15/49 17/17/49 50/49/49
f 61/61/50 62/62/50 63/63/50
f 58/58/51 17/17/51 64/64/51
f 43/43/52 46/46/52 65/65/52
f 61/61/53 66/66/53 62/62/53
f 67/67/54 6/6/54 5/5/54
f 67/67/55 5/5/55 18/18/55
f 68/68/56 69/69/56 32/32/56
f 69/69/57 5/5/57 32/32/57
f 64/64/58 17/17/58 16/16/58
f 69/69/59 68/68/59 54/53/59
f 55/55/60 53/54/60 56/56/60
f 59/59/61 58/58/61 52/52/61
f 59/59/62 52/52/62 53/54/62
f 36/36/63 26/26/63 7/7/63
f 61/61/64 63/63/64 70/70/64
f 71/71/65 70/70/65 63/63/65
f 71/71/66 63/63/66 72/72/66
f 73/73/67 65/65/67 74/74/67
f 75/75/68 15/15/68 50/49/68
f 76/76/69 77/77/69 78/78/69
f 77/77/70 79/79/70 78/78/70
f 79/79/71 77/77/71 65/65/71
f 80/80/72 75/75/72 50/49/72
f 81/81/73 82/82/73 28/27/73
f 65/65/74 46/46/74 74/74/74
f 83/83/75 84/84/75 3/3/75
f 85/85/76 84/84/76 83/83/76
f 47/47/77 45/45/77 86/86/77
f 34/35/78 84/84/78 39/39/78
f 42/42/79 44/44/79 87/87/79
f 45/45/80 42/42/80 87/87/80
f 87/87/81 86/86/81 45/45/81
f 88/88/82 89/89/82 90/90/82
f 83/83/83 3/3/83 89/89/83
f 89/89/84 87/87/84 83/83/84
f 89/89/85 88/88/85 87/87/85
f 63/63/86 86/86/86 87/87/86
f 88/88/87 63/63/87 87/87/87
f 88/88/88 90/90/88 63/63/88
f 63/63/89 90/90/89 72/72/89
f 63/63/90 47/47/90 86/86/90
f 91/91/91 21/21/91 3/3/91
f 13/13/92 21/21/92 11/11/92
f 21/21/93 12/12/93 11/11/93
f 91/91/94 3/3/94 4/4/94
f 91/91/95 4/4/95 6/6/95
f 9/9/96 12/12/96 21/21/96
f 9/9/97 21/21/97 91/91/97
f 9/9/98 91/91/98 6/6/98
f 67/67/99 9/9/99 6/6/99
f 92/92/100 74/74/100 46/46/100
f 92/92/101 62/62/101 66/66/101
f 92/92/102 66/66/102 93/93/102
f 94/94/103 92/92/103 46/46/103
f 94/94/104 62/62/104 92/92/104
f 95/95/105 96/96/105 76/76/105
f 97/97/106 87/87/106 44/44/106
f 87/87/107 97/97/107 98/98/107
f 99/99/108 54/53/108 52/52/108
f 49/50/109 55/55/109 27/28/109
f 55/55/110 49/50/110 53/54/110
f 57/57/111 53/54/111 49/50/111
f 2/2/112 23/23/112 3/3/112
f 43/43/113 65/65/113 77/77/113
f 73/73/114 79/79/114 65/65/114
f 44/44/115 43/43/115 77/77/115
f 44/44/116 100/100/116 97/97/116
f 44/44/117 77/77/117 100/100/117
f 84/84/118 85/85/118 98/98/118
f 83/83/119 98/98/119 85/85/119
f 83/83/120 87/87/120 98/98/120
f 98/98/121 39/39/121 84/84/121
f 39/39/122 98/98/122 38/38/122
f 34/35/123 36/36/123 84/84/123
f 84/84/124 36/36/124 3/3/124
f 36/36/125 4/4/125 3/3/125
f 36/36/126 7/7/126 4/4/126
f 94/94/127 47/47/127 63/63/127
f 94/94/128 46/46/128 47/47/128
f 94/94/129 63/63/129 62/62/129
f 9/9/130 67/67/130 10/10/130
f 18/18/131 20/20/131 67/67/131
f 67/67/132 20/20/132 10/10/132
f 40/40/133 76/76/133 41/41/133
f 41/41/134 76/76/134 96/96/134
f 81/81/135 28/27/135 96/96/135
f 96/96/136 95/95/136 81/81/136
f 80/80/137 50/49/137 51/51/137
f 51/51/138 28/27/138 82/82/138
f 69/69/139 18/18/139 5/5/139
f 69/69/140 30/30/140 18/18/140
f 30/30/141 99/99/141 19/19/141
f 68/68/142 32/32/142 56/56/142
f 56/56/143 54/53/143 68/68/143
f 56/56/144 53/54/144 54/53/144
f 37/37/145 38/38/145 41/41/145
f 41/41/146 96/96/146 37/37/146
f 37/37/147 96/96/147 28/27/147
f 89/89/148 3/3/148 24/24/148
f 89/89/149 24/24/149 90/90/149
f 98/98/150 97/97/150 38/38/150
f 97/97/151 100/100/151 38/38/151
f 1/1/152 21/21/152 13/13/152
f 31/31/153 1/1/153 13/13/153
f 13/13/154 25/25/154 31/31/154
f 33/33/155 37/37/155 26/26/155
f 37/37/156 28/27/156 26/26/156
f 99/99/157 30/30/157 54/53/157
f 69/69/158 54/53/158 30/30/158
f 40/40/159 77/77/159 76/76/159
f 77/77/160 40/40/160 38/38/160
f 77/77/161 38/38/161 100/100/161
f 51/51/162 82/82/162 80/80/162
