# Blender v2.79 (sub 0) OBJ File: ''
# www.blender.org
mtllib crack_only_145.mtl
o crack_only_145
v 2.759509 1.765106 -4.347151
v 2.912883 2.428921 -3.922305
v 2.874729 1.992956 -3.669774
v 2.798058 2.131647 -4.642907
v 3.170771 5.027289 -3.809757
v 3.153766 4.584377 -3.972713
v 3.169876 4.991522 -4.166503
v 3.139733 4.478065 -4.385434
v 2.802639 1.397765 -3.315484
v 2.760550 1.255420 -3.624334
v 3.213693 4.544224 -1.346627
v 3.216216 4.609549 -1.710384
v 3.146302 5.021446 -1.397837
v 3.088620 3.263731 -2.125875
v 3.194978 3.986141 -2.676395
v 3.197800 4.192687 -2.031571
v 3.172570 4.977557 -1.927036
v 3.191408 4.569796 -2.255251
v 3.190153 4.932794 -2.462414
v 2.817784 1.683616 -1.945610
v 2.851042 1.923253 -2.064226
v 2.821330 1.945054 -1.560814
v 2.806839 1.359787 -2.204507
v 3.032626 5.561772 -1.769236
v 3.009491 5.582161 -1.399404
v 2.870350 2.076213 -1.920577
v 2.825145 1.394807 -2.877458
v 2.804157 1.174641 -2.655151
v 3.149971 3.715942 -2.962517
v 3.111424 3.377959 -2.594522
v 2.992070 2.696731 -3.334325
v 2.960337 2.600793 -1.532813
v 2.979239 2.689195 -1.260511
v 2.875553 2.302528 -1.372547
v 2.866353 1.745994 -2.828665
v 2.802226 1.163646 -2.796301
v 2.978461 2.963647 -4.536009
v 2.879784 2.534457 -4.883839
v 3.030608 3.162246 -5.066554
v 3.035292 3.334019 -4.691044
v 2.748556 1.459064 -4.014238
v 2.793104 1.137070 -3.113136
v 2.804520 1.617723 -1.824269
v 3.114832 3.547588 -3.413721
v 3.148107 3.920882 -3.548812
v 2.784008 1.164243 -3.276931
v 3.200070 4.663819 -2.510762
v 3.202350 4.390570 -2.422851
v 3.200116 4.680898 -2.675214
v 3.177319 4.431047 -3.379578
v 3.161855 4.258963 -3.733984
v 3.178579 4.105010 -3.072246
v 3.193831 4.796666 -2.845165
v 3.191214 4.440292 -3.025251
v 3.197431 4.354723 -2.815108
v 3.200172 4.497561 -2.755614
v 3.155896 5.282773 -2.671994
v 3.172555 4.722523 -3.572384
v 3.187403 4.913076 -3.150145
v 3.089895 5.480312 -2.185607
v 3.194936 4.910659 -4.553442
v 3.127147 4.417934 -4.764075
v 3.101747 3.401706 -1.843331
v 3.187831 4.102841 -1.319688
v 3.146181 4.056633 -3.851928
v 3.164470 5.419628 -3.563093
v 3.163094 5.507023 -3.763863
v 3.156831 5.561177 -4.029994
v 3.129837 4.068613 -4.187197
v 2.874483 1.993322 -2.350696
v 3.071424 3.619742 -4.558469
v 3.044796 2.911979 -2.509578
v 3.001681 2.759823 -2.026836
v 3.158172 5.303711 -3.219594
v 3.066024 3.193538 -1.739135
v 3.146855 5.561006 -4.360478
v 3.100950 3.762974 -4.203290
v 3.064021 3.327403 -3.898149
v 3.061606 3.699149 -5.009155
v 3.064189 3.232017 -1.259710
v 3.025084 3.093942 -4.019704
vt 0.812901 0.141591
vt 0.700379 0.292663
vt 0.634521 0.193950
vt 0.890172 0.224758
vt 0.667955 0.880041
vt 0.711180 0.780464
vt 0.761687 0.872310
vt 0.819706 0.756737
vt 0.542153 0.058866
vt 0.623495 0.026520
vt 0.021337 0.770064
vt 0.116815 0.785093
vt 0.034532 0.876221
vt 0.227412 0.481270
vt 0.371127 0.645629
vt 0.201579 0.691484
vt 0.173501 0.867241
vt 0.260016 0.776261
vt 0.314115 0.857935
vt 0.182075 0.122081
vt 0.212943 0.176514
vt 0.080773 0.180503
vt 0.250380 0.049423
vt 0.131877 0.996108
vt 0.034778 1.000000
vt 0.175035 0.211035
vt 0.427056 0.058166
vt 0.368908 0.008205
vt 0.446617 0.584507
vt 0.350348 0.507689
vt 0.545528 0.353514
vt 0.072522 0.329888
vt 0.000882 0.349793
vt 0.030887 0.261452
vt 0.413839 0.137623
vt 0.405995 0.005830
vt 0.860949 0.414298
vt 0.952910 0.316694
vt 1.000000 0.460173
vt 0.901213 0.498486
vt 0.725754 0.072405
vt 0.489256 0.000000
vt 0.150293 0.106971
vt 0.565354 0.546554
vt 0.600433 0.631015
vt 0.532274 0.006104
vt 0.327023 0.797734
vt 0.304166 0.736334
vt 0.370201 0.801715
vt 0.555472 0.745878
vt 0.475032 0.672414
vt 0.648742 0.707308
vt 0.414753 0.827763
vt 0.462368 0.747857
vt 0.391477 0.760619
vt 0.407234 0.728554
vt 0.368937 0.936175
vt 0.605870 0.811424
vt 0.494769 0.854072
vt 0.241172 0.979075
vt 0.919237 0.743373
vt 0.863327 0.854883
vt 0.153051 0.512208
vt 0.014706 0.670526
vt 0.679932 0.661735
vt 0.602843 0.967824
vt 0.655503 0.987605
vt 0.725369 0.999902
vt 0.768018 0.664466
vt 0.288067 0.192865
vt 0.866059 0.563090
vt 0.328599 0.401941
vt 0.202041 0.366677
vt 0.512739 0.941394
vt 0.125949 0.464816
vt 0.812194 1.000000
vt 0.772578 0.595399
vt 0.692899 0.496748
vt 0.984385 0.581166
vt 0.000000 0.473005
vt 0.725119 0.443826
vn 0.9815 -0.1528 -0.1155
vn 0.9814 -0.1721 -0.0854
vn 0.9992 -0.0389 0.0014
vn 0.9985 -0.0496 -0.0212
vn 0.9857 -0.1564 -0.0622
vn 0.9892 0.1432 0.0326
vn 0.9922 -0.1201 0.0341
vn 0.9895 0.1395 0.0376
vn 0.9993 0.0212 0.0310
vn 0.9948 0.0876 -0.0517
vn 0.9923 -0.1064 0.0632
vn 0.9919 -0.0978 0.0805
vn 0.9738 0.2253 0.0297
vn 0.9704 0.2369 0.0476
vn 0.9990 -0.0096 -0.0448
vn 0.9804 -0.1857 0.0659
vn 0.9972 -0.0714 0.0234
vn 0.9893 -0.1431 -0.0278
vn 0.9643 -0.2640 0.0188
vn 0.9899 -0.1382 -0.0307
vn 0.9949 -0.1007 -0.0058
vn 0.9729 -0.2311 0.0091
vn 0.9901 -0.1318 0.0480
vn 0.9808 -0.1586 -0.1135
vn 0.9942 -0.1055 -0.0198
vn 0.9938 -0.0964 0.0563
vn 0.9939 -0.1027 -0.0391
vn 0.9913 -0.0942 -0.0917
vn 0.9945 -0.0840 0.0631
vn 0.9986 0.0288 0.0445
vn 0.9990 0.0340 0.0288
vn 0.9993 0.0361 0.0040
vn 0.9992 -0.0255 -0.0312
vn 0.9990 0.0449 -0.0064
vn 0.9995 -0.0059 -0.0320
vn 0.9962 0.0851 -0.0207
vn 0.9990 -0.0242 -0.0385
vn 0.9995 -0.0159 -0.0280
vn 0.9869 0.1422 0.0762
vn 0.9913 -0.1312 -0.0121
vn 0.9920 -0.0940 0.0839
vn 0.9985 -0.0250 -0.0489
vn 0.9930 -0.1179 0.0114
vn 0.9983 -0.0587 -0.0036
vn 0.9987 -0.0500 0.0077
vn 0.9978 -0.0551 -0.0380
vn 0.9900 -0.1393 -0.0242
vn 0.9920 -0.1182 -0.0445
vn 0.9999 0.0160 0.0001
vn 0.9996 0.0179 -0.0199
vn 0.9997 0.0241 -0.0049
vn 0.9998 -0.0194 0.0018
vn 0.9926 -0.1194 0.0208
vn 0.9979 -0.0206 -0.0619
vn 0.9851 0.1713 0.0180
vn 0.9737 0.2081 0.0932
vn 0.9990 -0.0120 -0.0428
vn 0.9994 -0.0053 -0.0327
vn 0.9991 -0.0053 -0.0410
vn 0.9858 -0.1628 0.0408
vn 0.9950 -0.0837 -0.0553
vn 0.9989 -0.0373 -0.0273
vn 0.9990 -0.0361 -0.0247
vn 0.9837 -0.1768 0.0321
vn 0.9823 -0.1818 0.0445
vn 0.9998 0.0037 0.0196
vn 0.9973 0.0724 -0.0126
vn 0.9992 -0.0023 -0.0391
vn 0.9986 -0.0317 -0.0424
vn 0.9987 -0.0323 -0.0383
vn 0.9875 -0.1546 0.0296
vn 0.9860 -0.1643 0.0296
vn 0.9857 -0.1662 0.0274
vn 0.9909 -0.1340 0.0155
vn 0.9991 0.0301 -0.0302
vn 0.9969 0.0582 0.0524
vn 0.9969 -0.0688 -0.0372
vn 0.9982 -0.0327 -0.0512
vn 0.9976 -0.0479 -0.0503
vn 0.9945 -0.0913 -0.0517
vn 0.9971 0.0753 0.0070
vn 0.9971 0.0760 0.0080
vn 0.9926 -0.1083 -0.0549
vn 0.9869 -0.1512 0.0568
vn 0.9980 -0.0543 -0.0313
vn 0.9963 -0.0787 -0.0356
vn 0.9808 -0.1588 -0.1131
vn 0.9947 -0.0916 -0.0458
vn 0.9931 -0.1107 -0.0379
vn 0.9927 -0.1093 -0.0517
vn 0.9948 -0.0879 -0.0517
vn 0.9958 -0.0636 -0.0659
vn 0.9868 -0.1610 0.0167
vn 0.9900 -0.1408 -0.0039
vn 0.9931 -0.1132 0.0310
vn 0.9854 -0.1696 0.0174
vn 0.9878 -0.1546 -0.0184
vn 0.9943 -0.0948 -0.0488
vn 0.9924 -0.1148 -0.0438
vn 0.9886 -0.1457 -0.0368
vn 0.9886 -0.1461 -0.0373
vn 0.9834 -0.1737 -0.0533
vn 0.9888 -0.1295 -0.0742
vn 0.9931 -0.1100 0.0400
vn 0.9883 -0.1487 -0.0338
vn 0.9827 -0.1847 -0.0146
vn 0.9892 -0.1449 -0.0230
vn 0.9606 -0.2779 -0.0091
vn 0.9807 -0.1838 0.0666
vn 0.9818 -0.1786 0.0644
vn 0.9946 -0.0984 0.0340
vn 0.9940 -0.0926 0.0587
vn 0.9891 -0.1364 -0.0549
vn 0.9839 -0.1726 -0.0453
vn 0.9885 -0.1418 -0.0517
vn 0.9898 -0.1392 0.0303
vn 0.9766 -0.2025 -0.0721
vn 0.9776 -0.2096 -0.0188
vn 0.9993 0.0106 -0.0354
vn 0.9995 0.0127 -0.0283
vn 0.9998 0.0028 -0.0200
vn 0.9999 -0.0110 -0.0115
vn 0.9989 0.0218 0.0419
vn 0.9998 -0.0145 -0.0112
vn 1.0000 0.0087 0.0012
vn 1.0000 0.0028 -0.0056
vn 0.9860 -0.1629 0.0367
vn 0.9902 -0.1390 0.0143
vn 0.9890 -0.1460 -0.0251
usemtl None
s off
f 1/1/1 2/2/1 3/3/1
f 1/1/2 4/4/2 2/2/2
f 5/5/3 6/6/3 7/7/3
f 8/8/4 7/7/4 6/6/4
f 9/9/5 10/10/5 3/3/5
f 11/11/6 12/12/6 13/13/6
f 14/14/7 15/15/7 16/16/7
f 12/12/8 17/17/8 13/13/8
f 17/17/9 18/18/9 19/19/9
f 18/18/10 17/17/10 12/12/10
f 20/20/11 21/21/11 22/22/11
f 21/21/12 20/20/12 23/23/12
f 24/24/13 13/13/13 17/17/13
f 24/24/14 25/25/14 13/13/14
f 18/18/15 12/12/15 16/16/15
f 26/26/16 22/22/16 21/21/16
f 27/27/17 23/23/17 28/28/17
f 29/29/18 30/30/18 31/31/18
f 32/32/19 33/33/19 34/34/19
f 9/9/20 3/3/20 35/35/20
f 27/27/21 28/28/21 36/36/21
f 37/37/22 38/38/22 39/39/22
f 40/40/23 37/37/23 39/39/23
f 41/41/24 1/1/24 3/3/24
f 27/27/25 36/36/25 42/42/25
f 20/20/26 22/22/26 43/43/26
f 29/29/27 44/44/27 45/45/27
f 9/9/28 46/46/28 10/10/28
f 43/43/29 23/23/29 20/20/29
f 47/47/30 19/19/30 18/18/30
f 48/48/31 18/18/31 16/16/31
f 47/47/32 49/49/32 19/19/32
f 50/50/33 52/51/33 51/52/33
f 53/53/34 19/19/34 49/49/34
f 54/54/35 56/55/35 55/56/35
f 53/53/36 57/57/36 19/19/36
f 58/58/37 6/6/37 5/5/37
f 58/58/38 5/5/38 59/59/38
f 60/60/39 19/19/39 57/57/39
f 8/8/40 62/61/40 61/62/40
f 7/7/41 8/8/41 61/62/41
f 55/56/42 15/15/42 52/51/42
f 63/63/43 14/14/43 16/16/43
f 64/64/44 12/12/44 11/11/44
f 64/64/45 16/16/45 12/12/45
f 65/65/46 51/52/46 52/51/46
f 29/29/47 15/15/47 30/30/47
f 29/29/48 45/45/48 15/15/48
f 66/66/49 5/5/49 67/67/49
f 67/67/50 5/5/50 68/68/50
f 5/5/51 7/7/51 68/68/51
f 48/48/52 16/16/52 15/15/52
f 27/27/53 35/35/53 23/23/53
f 69/69/54 6/6/54 51/52/54
f 60/60/55 17/17/55 19/19/55
f 60/60/56 24/24/56 17/17/56
f 50/50/57 6/6/57 58/58/57
f 58/58/58 59/59/58 50/50/58
f 50/50/59 51/52/59 6/6/59
f 26/26/60 21/21/60 70/70/60
f 69/69/61 71/71/61 62/61/61
f 69/69/62 62/61/62 8/8/62
f 8/8/63 6/6/63 69/69/63
f 70/70/64 72/72/64 73/73/64
f 26/26/65 70/70/65 73/73/65
f 66/66/66 74/74/66 5/5/66
f 74/74/67 59/59/67 5/5/67
f 54/54/68 50/50/68 59/59/68
f 55/56/69 52/51/69 54/54/69
f 50/50/70 54/54/70 52/51/70
f 14/14/71 63/63/71 75/75/71
f 14/14/72 32/32/72 73/73/72
f 14/14/73 75/75/73 32/32/73
f 14/14/74 30/30/74 15/15/74
f 76/76/75 68/68/75 7/7/75
f 76/76/76 7/7/76 61/62/76
f 65/65/77 52/51/77 45/45/77
f 45/45/78 52/51/78 15/15/78
f 65/65/79 69/69/79 51/52/79
f 65/65/80 77/77/80 69/69/80
f 53/53/81 74/74/81 57/57/81
f 74/74/82 53/53/82 59/59/82
f 78/78/83 45/45/83 44/44/83
f 40/40/84 39/39/84 71/71/84
f 79/79/85 71/71/85 39/39/85
f 71/71/86 79/79/86 62/61/86
f 10/10/87 41/41/87 3/3/87
f 71/71/88 69/69/88 77/77/88
f 71/71/89 77/77/89 78/78/89
f 9/9/90 35/35/90 27/27/90
f 46/46/91 9/9/91 27/27/91
f 27/27/92 42/42/92 46/46/92
f 75/75/93 63/63/93 80/80/93
f 64/64/94 80/80/94 16/16/94
f 63/63/95 16/16/95 80/80/95
f 80/80/96 32/32/96 75/75/96
f 80/80/97 33/33/97 32/32/97
f 65/65/98 45/45/98 77/77/98
f 77/77/99 45/45/99 78/78/99
f 81/81/100 78/78/100 31/31/100
f 78/78/101 44/44/101 31/31/101
f 2/2/102 81/81/102 31/31/102
f 2/2/103 31/31/103 3/3/103
f 70/70/104 35/35/104 31/31/104
f 35/35/105 3/3/105 31/31/105
f 72/72/106 70/70/106 31/31/106
f 29/29/107 31/31/107 44/44/107
f 34/34/108 73/73/108 32/32/108
f 26/26/109 34/34/109 22/22/109
f 26/26/110 73/73/110 34/34/110
f 70/70/111 23/23/111 35/35/111
f 21/21/112 23/23/112 70/70/112
f 37/37/113 78/78/113 81/81/113
f 37/37/114 81/81/114 2/2/114
f 37/37/115 71/71/115 78/78/115
f 37/37/116 40/40/116 71/71/116
f 37/37/117 2/2/117 4/4/117
f 37/37/118 4/4/118 38/38/118
f 56/55/119 54/54/119 53/53/119
f 49/49/120 56/55/120 53/53/120
f 53/53/121 54/54/121 59/59/121
f 15/15/122 55/56/122 48/48/122
f 48/48/123 47/47/123 18/18/123
f 55/56/124 56/55/124 48/48/124
f 49/49/125 47/47/125 48/48/125
f 49/49/126 48/48/126 56/55/126
f 72/72/127 14/14/127 73/73/127
f 30/30/128 14/14/128 72/72/128
f 30/30/129 72/72/129 31/31/129
