# Blender v2.79 (sub 0) OBJ File: ''
# www.blender.org
mtllib crack_only_10.mtl
o crack_only_10
v 2.825067 1.202156 -3.503046
v 2.841994 1.167686 -3.368293
v 2.828391 1.410336 -3.303093
v 2.904540 1.139787 -2.803087
v 2.894980 1.134497 -2.891215
v 2.868357 1.339358 -3.003025
v 2.865086 1.122431 -3.153190
vt 0.009829 0.000000
vt 1.000000 0.208432
vt 0.000000 0.200140
vt 0.410591 1.000000
vt 0.309335 0.878468
vt 1.000000 0.652608
vt 0.022710 0.515746
vn 0.9912 0.0833 -0.1032
vn 0.9914 0.0679 -0.1116
vn 0.9911 0.0654 -0.1161
vn 0.9910 0.0657 -0.1165
vn 0.9928 0.0798 -0.0898
usemtl None
s off
f 1/1/1 3/2/1 2/3/1
f 4/4/2 5/5/2 6/6/2
f 7/7/3 6/6/3 5/5/3
f 7/7/4 3/2/4 6/6/4
f 3/2/5 7/7/5 2/3/5
