# Blender v2.79 (sub 0) OBJ File: ''
# www.blender.org
mtllib crack_only_178.mtl
o crack_only_178
v 2.766556 1.764441 -4.351598
v 2.896192 2.428977 -3.923720
v 2.868737 1.995152 -3.670652
v 2.800550 2.129650 -4.643187
v 3.134992 4.998785 -1.396203
v 3.148511 4.190552 -2.024627
v 3.141105 4.927678 -2.466707
v 3.137769 4.544990 -4.006628
v 3.154007 5.323312 -4.388161
v 3.153418 5.462167 -3.637698
v 3.125784 4.411762 -4.766867
v 2.666517 6.273166 -1.696810
v 2.733952 6.276999 -1.950436
v 2.854960 5.995644 -1.770572
v 2.400823 6.686754 -1.790697
v 2.563458 6.366220 -1.491082
v 2.793442 1.393611 -3.319499
v 2.754631 1.266456 -3.639863
v 3.117608 5.921757 -3.994049
v 3.001147 2.928914 -2.501044
v 2.973563 2.788162 -2.070292
v 2.886079 2.111672 -2.313481
v 3.062904 5.448009 -2.184182
v 3.041204 5.467893 -1.732269
v 2.954773 2.881403 -4.553678
v 2.991065 3.144219 -4.479778
v 2.964658 2.937124 -4.673620
v 3.018173 3.325971 -4.693944
v 3.001688 5.524428 -1.400509
v 2.818346 1.683305 -1.945188
v 2.855494 1.923411 -2.062337
v 2.826218 1.942931 -1.561538
v 3.053787 6.424370 -3.815844
v 3.095432 5.988690 -3.497829
v 2.803508 1.360138 -2.204439
v 2.870871 2.075872 -1.920677
v 2.924248 2.507847 -1.685918
v 2.846294 1.743371 -2.482913
v 3.067420 3.747768 -4.204198
v 3.077818 3.794345 -3.884741
v 3.030624 3.355240 -3.933765
v 3.141452 5.597188 -3.289570
v 3.033056 6.109449 -3.140483
v 3.045657 3.318838 -2.569288
v 3.131451 4.214966 -2.763412
v 3.106620 3.858697 -2.343171
v 3.039700 3.208096 -2.051899
v 3.124866 5.368655 -2.734621
v 2.837494 1.600125 -2.850880
v 2.793783 1.177049 -2.653358
v 2.878308 2.301353 -1.371961
v 3.086451 3.725401 -3.015648
v 2.962665 2.687276 -3.365235
v 2.988314 2.848273 -2.940908
v 3.006316 3.051055 -3.369177
v 3.070935 3.453931 -1.937601
v 3.099476 3.928835 -3.460010
v 3.066569 3.571013 -3.414632
v 3.084848 3.530071 -1.677896
v 2.790694 1.165592 -2.803356
v 2.884398 2.529150 -4.884905
v 3.024933 3.163448 -5.065407
v 3.143025 4.036294 -1.327214
v 2.749083 1.458988 -4.014608
v 2.781699 1.139979 -3.109221
v 2.805040 1.617637 -1.824237
v 2.773564 1.168393 -3.283329
v 2.882304 6.911072 -3.885071
v 2.954550 6.824115 -4.286186
v 2.825208 7.077467 -3.969951
v 2.821924 5.915585 -1.408629
v 2.773429 6.020899 -1.430302
v 3.096143 5.639505 -2.894925
v 3.153109 5.182382 -3.059482
v 3.088380 5.749069 -2.986832
v 3.053223 6.302157 -4.277607
v 3.102560 5.924453 -4.322038
v 2.940478 5.911674 -2.109919
v 2.984805 6.417830 -3.379217
v 2.979722 5.891829 -2.424798
v 2.929683 5.983259 -2.262561
v 2.754402 6.360691 -2.416657
v 2.841490 6.296406 -2.773885
v 2.831440 6.129826 -2.118308
v 2.813346 6.629303 -3.123288
v 2.804012 7.119564 -4.290106
v 3.009519 5.870312 -2.617205
v 3.051812 5.797792 -2.819674
v 2.619624 6.632606 -2.635872
v 2.461519 6.726616 -2.311160
v 2.739058 6.572216 -2.887193
v 2.995202 3.091146 -4.042799
v 3.053994 3.219373 -1.261060
v 2.849641 6.791440 -3.498622
v 3.053025 3.641924 -4.597107
v 2.974449 2.689827 -1.261541
v 2.291236 6.807153 -1.777987
v 2.226072 6.787496 -1.588262
v 3.065813 3.699503 -5.011142
vt 0.769054 0.082501
vt 0.679481 0.203851
vt 0.600836 0.134759
vt 0.855645 0.139050
vt 0.105427 0.691959
vt 0.243655 0.541169
vt 0.379973 0.658666
vt 0.766389 0.562860
vt 0.888486 0.688452
vt 0.698722 0.727002
vt 0.958747 0.525159
vt 0.217627 0.907079
vt 0.229863 0.856949
vt 0.283822 0.902317
vt 0.252181 0.977677
vt 0.166433 0.927702
vt 0.491425 0.039194
vt 0.570082 0.011364
vt 0.804324 0.798865
vt 0.327698 0.316780
vt 0.211938 0.301347
vt 0.253764 0.181324
vt 0.321964 0.753774
vt 0.205607 0.766214
vt 0.856327 0.268509
vt 0.845414 0.314718
vt 0.889074 0.275621
vt 0.906432 0.341437
vt 0.121258 0.782672
vt 0.145185 0.115688
vt 0.182966 0.154241
vt 0.053905 0.167629
vt 0.772856 0.888796
vt 0.677926 0.820233
vt 0.202355 0.055364
vt 0.151061 0.183029
vt 0.103797 0.261251
vt 0.286168 0.115202
vt 0.792938 0.422965
vt 0.711868 0.437164
vt 0.710971 0.361341
vt 0.612721 0.757042
vt 0.588710 0.848330
vt 0.357400 0.381892
vt 0.435164 0.530903
vt 0.315670 0.478360
vt 0.220326 0.373167
vt 0.462318 0.728963
vt 0.376883 0.083493
vt 0.312785 0.015248
vt 0.016097 0.232381
vt 0.485281 0.442428
vt 0.543451 0.258643
vt 0.555744 0.320553
vt 0.438840 0.294395
vt 0.198423 0.417297
vt 0.606324 0.468412
vt 0.583588 0.408271
vt 0.133710 0.435356
vt 0.351177 0.010352
vt 0.930778 0.202138
vt 0.997597 0.306262
vt 0.058758 0.528539
vt 0.672659 0.036969
vt 0.429376 0.000000
vt 0.111851 0.106914
vt 0.475156 0.001485
vt 0.803988 0.971804
vt 0.905609 0.948569
vt 0.830462 0.998968
vt 0.133663 0.850583
vt 0.142038 0.868484
vt 0.511647 0.772341
vt 0.540899 0.690508
vt 0.538625 0.789331
vt 0.888507 0.858788
vt 0.889040 0.792961
vt 0.315718 0.835359
vt 0.659277 0.896709
vt 0.396805 0.825515
vt 0.406977 0.907330
vt 0.357226 0.844672
vt 0.498056 0.888747
vt 0.323564 0.873212
vt 0.598119 0.939016
vt 0.914289 1.000000
vt 0.446118 0.817856
vt 0.496600 0.801192
vt 0.470712 0.950394
vt 0.388359 0.973869
vt 0.534799 0.934361
vt 0.730932 0.314216
vt 0.016416 0.390584
vt 0.700270 0.959145
vt 0.891176 0.397201
vt 0.000000 0.300441
vt 0.251634 0.999220
vt 0.201494 1.000000
vt 1.000000 0.398821
vn 0.9866 -0.1242 -0.1059
vn 0.9866 -0.1475 -0.0698
vn 0.9999 0.0130 0.0048
vn 0.9998 -0.0188 0.0043
vn 0.9996 -0.0263 -0.0111
vn 0.8325 0.5044 0.2290
vn 0.7971 0.5621 0.2204
vn 0.8352 0.5182 0.1840
vn 0.9860 -0.1568 -0.0572
vn 0.9976 0.0685 -0.0119
vn 0.9907 -0.1351 0.0193
vn 0.9745 0.2214 0.0371
vn 0.9885 0.1509 -0.0044
vn 0.9796 -0.1951 -0.0490
vn 0.9907 -0.1358 0.0101
vn 0.9666 0.2457 0.0733
vn 0.9905 -0.1227 0.0627
vn 0.9928 0.1159 0.0287
vn 0.9901 -0.1124 0.0835
vn 0.9403 0.3358 0.0548
vn 0.9855 -0.1568 0.0645
vn 0.9951 -0.0968 0.0197
vn 0.9943 -0.1050 -0.0171
vn 0.9937 0.1119 -0.0092
vn 0.9783 0.1745 0.1118
vn 0.9945 -0.1010 -0.0269
vn 0.9941 -0.1074 -0.0115
vn 0.9853 -0.1586 0.0638
vn 0.9906 0.0958 0.0977
vn 0.9953 -0.0948 0.0171
vn 0.9944 0.1013 0.0308
vn 0.9902 -0.1371 0.0271
vn 0.9859 -0.1629 0.0371
vn 0.9877 -0.1561 0.0122
vn 0.9955 -0.0942 0.0052
vn 0.9928 -0.1193 -0.0147
vn 0.9941 -0.1070 -0.0193
vn 0.9936 -0.1121 -0.0113
vn 0.9962 -0.0863 -0.0103
vn 0.9962 -0.0835 -0.0244
vn 0.9933 -0.1155 -0.0048
vn 0.9946 -0.1003 -0.0263
vn 0.9940 -0.1073 -0.0218
vn 0.9940 -0.1084 -0.0122
vn 0.9964 -0.0829 -0.0203
vn 0.9777 -0.2080 0.0303
vn 0.9883 -0.1321 0.0758
vn 0.9931 -0.1139 -0.0263
vn 0.9999 0.0091 0.0099
vn 0.9828 -0.1594 -0.0935
vn 0.9938 -0.1092 -0.0201
vn 0.9932 -0.1157 -0.0133
vn 0.9930 -0.1063 0.0515
vn 0.9934 -0.1148 -0.0079
vn 0.9819 -0.1895 -0.0071
vn 0.9901 -0.1401 -0.0032
vn 0.9955 -0.0933 -0.0135
vn 0.9917 -0.1004 -0.0803
vn 0.9794 -0.2017 0.0064
vn 0.9939 -0.0929 0.0589
vn 0.9347 0.3427 0.0941
vn 0.9275 0.3633 0.0883
vn 0.8794 0.4416 0.1779
vn 0.9908 0.0858 0.1046
vn 0.9838 0.1509 0.0968
vn 0.9797 0.1842 0.0793
vn 0.9899 0.1345 -0.0443
vn 0.9895 0.1391 -0.0380
vn 0.9288 0.3387 0.1503
vn 0.9700 0.2242 0.0936
vn 0.9661 0.2060 0.1557
vn 0.9815 0.1847 -0.0501
vn 0.9010 0.4324 0.0342
vn 0.8933 0.4268 0.1410
vn 0.8308 0.5332 0.1595
vn 0.8836 0.4538 0.1153
vn 0.8780 0.4607 0.1298
vn 0.8851 0.4499 0.1196
vn 0.8882 0.3662 0.2774
vn 0.8910 0.4540 0.0007
vn 0.9676 0.2498 0.0355
vn 0.9930 0.1168 0.0194
vn 0.8935 0.4142 0.1732
vn 0.9721 0.1921 0.1343
vn 0.9754 0.2055 0.0802
vn 0.9678 0.1960 0.1578
vn 0.7915 0.5700 0.2204
vn 0.8136 0.4523 0.3654
vn 0.8501 0.5139 0.1148
vn 0.9912 -0.1309 -0.0212
vn 0.9922 -0.1212 -0.0288
vn 0.9884 -0.1507 -0.0163
vn 0.9899 -0.1412 0.0160
vn 0.9997 -0.0039 -0.0232
vn 0.9971 -0.0752 -0.0149
vn 0.9924 -0.1219 -0.0174
vn 0.7941 0.5919 0.1379
vn 0.7924 0.5935 0.1413
vn 0.9949 0.0901 -0.0449
vn 0.8792 0.4005 0.2580
vn 0.9134 0.3784 0.1500
vn 0.8845 0.3642 0.2917
vn 0.9922 -0.1210 0.0301
vn 0.9918 -0.1251 0.0270
vn 0.9902 -0.1373 0.0258
vn 0.9181 0.3499 0.1859
vn 0.8903 0.4083 0.2017
vn 0.9956 -0.0939 0.0008
vn 0.9991 0.0388 0.0193
vn 0.9966 0.0663 0.0487
vn 0.9941 -0.0960 -0.0512
vn 0.9944 -0.0866 -0.0606
vn 0.9926 -0.1194 -0.0235
vn 0.9928 -0.1186 -0.0163
vn 0.9949 -0.1001 0.0152
vn 0.9928 -0.1173 0.0219
vn 0.9894 -0.1417 -0.0306
vn 0.9999 -0.0141 0.0013
vn 0.9999 -0.0145 -0.0065
vn 0.9994 -0.0330 0.0060
vn 0.9919 -0.1248 -0.0223
vn 0.9940 -0.1082 0.0132
vn 0.9898 -0.1423 -0.0058
vn 0.9868 -0.1557 -0.0454
vn 0.9921 -0.1037 -0.0701
vn 0.9852 -0.1705 -0.0154
vn 0.9715 -0.2366 -0.0135
vn 0.9877 -0.1561 0.0129
vn 0.9875 -0.1483 -0.0532
vn 0.9945 -0.1038 -0.0151
vn 0.9940 -0.1090 -0.0076
vn 0.8484 0.4375 0.2980
vn 0.8870 0.4477 0.1128
vn 0.9345 0.3431 0.0948
vn 0.8825 0.4467 0.1471
vn 0.8916 0.3497 0.2876
vn 0.9658 0.2120 0.1495
vn 0.9680 0.1979 0.1541
vn 0.9218 0.3838 0.0551
vn 0.9132 0.3958 0.0972
vn 0.9828 -0.1579 -0.0957
vn 0.7397 0.6589 0.1367
vn 0.7110 0.6377 0.2964
vn 0.8147 0.5587 0.1554
vn 0.9883 -0.1323 0.0759
vn 0.9968 -0.0780 0.0199
vn 0.9958 -0.0901 0.0182
vn 0.9963 -0.0845 -0.0137
vn 0.9914 -0.1286 -0.0221
vn 0.9927 -0.1175 0.0260
vn 0.9950 -0.0999 -0.0096
vn 0.9655 0.2381 0.1053
vn 0.9616 0.2461 0.1214
vn 0.7189 0.6215 0.3113
vn 0.9921 -0.1233 -0.0237
vn 0.9943 -0.1049 -0.0175
vn 0.9929 -0.1168 -0.0202
vn 0.9950 -0.0952 -0.0293
usemtl None
s off
f 1/1/1 2/2/1 3/3/1
f 1/1/2 4/4/2 2/2/2
f 5/5/3 6/6/3 7/7/3
f 8/8/4 9/9/4 10/10/4
f 11/11/5 9/9/5 8/8/5
f 12/12/6 14/13/6 13/14/6
f 13/14/7 15/15/7 12/12/7
f 16/16/8 14/13/8 12/12/8
f 17/17/9 18/18/9 3/3/9
f 19/19/10 10/10/10 9/9/10
f 20/20/11 21/21/11 22/22/11
f 23/23/12 24/24/12 5/5/12
f 23/23/13 5/5/13 7/7/13
f 25/25/14 2/2/14 4/4/14
f 26/26/15 27/27/15 28/28/15
f 24/24/16 29/29/16 5/5/16
f 30/30/17 31/31/17 32/32/17
f 33/33/18 34/34/18 19/19/18
f 31/31/19 30/30/19 35/35/19
f 24/24/20 14/13/20 29/29/20
f 36/36/21 37/37/21 32/32/21
f 31/31/22 35/35/22 38/38/22
f 39/39/23 40/40/23 41/41/23
f 42/42/24 10/10/24 34/34/24
f 43/43/25 42/42/25 34/34/25
f 44/44/26 45/45/26 46/46/26
f 47/47/27 44/44/27 46/46/27
f 36/36/28 32/32/28 31/31/28
f 23/23/29 7/7/29 48/48/29
f 49/49/30 35/35/30 50/50/30
f 34/34/31 10/10/31 19/19/31
f 36/36/32 21/21/32 37/37/32
f 37/37/33 51/51/33 32/32/33
f 20/20/34 47/47/34 21/21/34
f 45/45/35 44/44/35 52/52/35
f 53/53/36 55/54/36 54/55/36
f 46/46/37 6/6/37 56/56/37
f 52/52/38 44/44/38 54/55/38
f 52/52/38 54/55/38 55/54/38
f 45/45/39 52/52/39 57/57/39
f 40/40/40 8/8/40 57/57/40
f 52/52/41 55/54/41 58/58/41
f 46/46/42 45/45/42 6/6/42
f 56/56/43 6/6/43 59/59/43
f 49/49/44 50/50/44 60/60/44
f 40/40/45 39/39/45 8/8/45
f 27/27/46 61/61/46 62/62/46
f 28/28/47 27/27/47 62/62/47
f 46/46/48 56/56/48 47/47/48
f 63/63/49 6/6/49 5/5/49
f 64/64/50 1/1/50 3/3/50
f 49/49/51 60/60/51 65/65/51
f 44/44/52 47/47/52 20/20/52
f 30/30/53 32/32/53 66/66/53
f 44/44/54 20/20/54 54/55/54
f 25/25/55 61/61/55 27/27/55
f 20/20/56 22/22/56 54/55/56
f 52/52/57 58/58/57 57/57/57
f 17/17/58 67/67/58 18/18/58
f 25/25/59 4/4/59 61/61/59
f 66/66/60 35/35/60 30/30/60
f 68/68/61 33/33/61 69/69/61
f 70/70/62 68/68/62 69/69/62
f 71/71/63 14/13/63 72/72/63
f 73/73/64 74/74/64 42/42/64
f 75/75/65 73/73/65 42/42/65
f 75/75/66 42/42/66 43/43/66
f 76/76/67 19/19/67 77/77/67
f 76/76/68 33/33/68 19/19/68
f 78/78/69 14/13/69 24/24/69
f 79/79/70 43/43/70 34/34/70
f 79/79/71 34/34/71 33/33/71
f 76/76/72 69/69/72 33/33/72
f 80/80/73 82/81/73 81/82/73
f 80/80/74 83/83/74 82/81/74
f 72/72/75 14/13/75 16/16/75
f 84/84/76 13/14/76 14/13/76
f 84/84/77 81/82/77 82/81/77
f 84/84/78 82/81/78 13/14/78
f 85/85/79 83/83/79 43/43/79
f 70/70/80 69/69/80 86/86/80
f 78/78/81 24/24/81 23/23/81
f 74/74/82 73/73/82 48/48/82
f 71/71/83 29/29/83 14/13/83
f 87/87/84 48/48/84 88/88/84
f 87/87/85 23/23/85 48/48/85
f 73/73/86 88/88/86 48/48/86
f 89/89/87 90/90/87 82/81/87
f 91/91/88 83/83/88 85/85/88
f 89/89/89 82/81/89 83/83/89
f 25/25/90 26/26/90 41/41/90
f 25/25/91 41/41/91 92/92/91
f 25/25/92 92/92/92 2/2/92
f 25/25/93 27/27/93 26/26/93
f 45/45/94 7/7/94 6/6/94
f 57/57/95 8/8/95 45/45/95
f 59/59/96 93/93/96 56/56/96
f 15/15/97 13/14/97 90/90/97
f 90/90/98 13/14/98 82/81/98
f 77/77/99 19/19/99 9/9/99
f 94/94/100 85/85/100 79/79/100
f 94/94/101 79/79/101 33/33/101
f 79/79/102 85/85/102 43/43/102
f 22/22/103 31/31/103 38/38/103
f 36/36/104 31/31/104 22/22/104
f 36/36/105 22/22/105 21/21/105
f 94/94/106 33/33/106 68/68/106
f 94/94/107 68/68/107 70/70/107
f 8/8/108 95/95/108 11/11/108
f 74/74/109 10/10/109 42/42/109
f 74/74/110 48/48/110 7/7/110
f 67/67/111 17/17/111 49/49/111
f 49/49/112 65/65/112 67/67/112
f 92/92/113 55/54/113 53/53/113
f 56/56/114 93/93/114 47/47/114
f 38/38/115 35/35/115 49/49/115
f 49/49/116 22/22/116 38/38/116
f 17/17/117 3/3/117 49/49/117
f 8/8/118 7/7/118 45/45/118
f 74/74/119 8/8/119 10/10/119
f 8/8/120 74/74/120 7/7/120
f 49/49/121 3/3/121 53/53/121
f 22/22/122 49/49/122 53/53/122
f 22/22/123 53/53/123 54/55/123
f 2/2/124 92/92/124 53/53/124
f 2/2/125 53/53/125 3/3/125
f 37/37/126 47/47/126 93/93/126
f 37/37/127 96/96/127 51/51/127
f 47/47/128 37/37/128 21/21/128
f 37/37/129 93/93/129 96/96/129
f 63/63/130 59/59/130 6/6/130
f 59/59/131 63/63/131 93/93/131
f 89/89/132 83/83/132 91/91/132
f 78/78/133 84/84/133 14/13/133
f 81/82/134 78/78/134 80/80/134
f 78/78/135 81/82/135 84/84/135
f 88/88/136 43/43/136 83/83/136
f 88/88/137 75/75/137 43/43/137
f 75/75/138 88/88/138 73/73/138
f 88/88/139 83/83/139 87/87/139
f 80/80/140 87/87/140 83/83/140
f 18/18/141 64/64/141 3/3/141
f 97/97/142 15/15/142 90/90/142
f 15/15/143 98/98/143 16/16/143
f 15/15/144 16/16/144 12/12/144
f 28/28/145 62/62/145 95/95/145
f 99/99/146 95/95/146 62/62/146
f 95/95/147 99/99/147 11/11/147
f 95/95/148 8/8/148 39/39/148
f 26/26/149 95/95/149 41/41/149
f 26/26/150 28/28/150 95/95/150
f 95/95/151 39/39/151 41/41/151
f 78/78/152 23/23/152 80/80/152
f 87/87/153 80/80/153 23/23/153
f 97/97/154 98/98/154 15/15/154
f 92/92/155 41/41/155 55/54/155
f 41/41/156 40/40/156 57/57/156
f 41/41/157 58/58/157 55/54/157
f 41/41/158 57/57/158 58/58/158
