# Blender v2.79 (sub 0) OBJ File: ''
# www.blender.org
mtllib crack_only_36.mtl
o crack_only_36
v 2.849091 1.369349 -2.180135
v 2.868109 1.486295 -2.472913
v 2.881254 1.262950 -2.419887
v 2.872226 1.409353 -2.728592
v 2.855989 1.372252 -2.976807
v 2.884008 1.600163 -2.995348
v 2.889420 1.159016 -2.658978
v 2.889456 1.148979 -2.734804
v 2.885458 1.136384 -2.891785
v 2.799156 1.521884 -1.973606
v 2.824860 1.599013 -2.133611
v 2.871285 1.704428 -2.400060
v 2.908798 1.782190 -2.800683
v 2.832241 1.628325 -2.208719
v 2.776421 1.332734 -3.782446
v 2.787507 1.506176 -3.643639
v 2.789682 1.246582 -3.637069
v 2.888996 1.710421 -3.206161
v 2.844684 1.327264 -3.299882
v 2.797159 1.212190 -3.526587
v 2.822962 1.170787 -3.359453
v 2.861191 1.130230 -3.113167
vt 0.771443 0.123043
vt 0.887476 0.261066
vt 0.528777 0.274014
vt 0.595874 0.418904
vt 0.602617 0.557074
vt 0.243585 0.550442
vt 1.000000 0.398814
vt 1.000000 0.440875
vt 0.987286 0.527407
vt 0.423516 0.081386
vt 0.576844 0.000000
vt 0.204018 0.218534
vt 0.000000 0.430921
vt 0.362316 0.120137
vt 0.498715 1.000000
vt 0.257097 0.911700
vt 0.662767 0.926813
vt 0.028347 0.657365
vt 0.606173 0.736571
vt 0.739051 0.868980
vt 0.837787 0.780567
vt 0.951425 0.648806
vn 0.9920 0.0814 0.0969
vn 0.9983 0.0584 -0.0015
vn 0.9910 -0.1256 -0.0461
vn 0.9976 0.0696 0.0038
vn 0.9978 0.0662 -0.0083
vn 0.9973 0.0667 -0.0308
vn 0.9923 0.0954 -0.0792
vn 0.9799 0.0651 0.1888
vn 0.9955 -0.0428 0.0849
vn 0.9927 0.0750 0.0944
vn 0.9825 -0.0717 0.1719
vn 0.9993 -0.0276 0.0244
vn 0.9908 -0.1356 0.0006
vn 0.9962 0.0061 -0.0872
vn 0.9942 -0.1030 -0.0303
vn 0.9922 -0.1234 -0.0175
vn 0.9829 -0.0719 -0.1696
vn 0.9937 -0.1070 -0.0324
vn 0.9819 -0.0414 -0.1848
vn 0.9978 0.0067 -0.0654
vn 0.9783 -0.0651 -0.1966
vn 0.9887 0.0784 0.1278
vn 0.9982 0.0446 -0.0411
vn 0.9836 -0.0738 -0.1648
vn 0.9903 0.0838 -0.1109
usemtl None
s off
f 1/1/1 3/2/1 2/3/1
f 3/2/2 4/4/2 2/3/2
f 5/5/3 6/6/3 4/4/3
f 7/7/4 4/4/4 3/2/4
f 8/8/5 4/4/5 7/7/5
f 8/8/6 9/9/6 4/4/6
f 9/9/7 5/5/7 4/4/7
f 11/10/8 10/11/8 1/1/8
f 12/12/9 2/3/9 13/13/9
f 14/14/10 1/1/10 2/3/10
f 2/3/11 12/12/11 14/14/11
f 6/6/12 2/3/12 4/4/12
f 6/6/13 13/13/13 2/3/13
f 15/15/14 16/16/14 17/17/14
f 6/6/15 18/18/15 13/13/15
f 19/19/16 6/6/16 5/5/16
f 20/20/17 19/19/17 21/21/17
f 18/18/18 6/6/18 19/19/18
f 20/20/19 16/16/19 19/19/19
f 16/16/20 20/20/20 17/17/20
f 19/19/21 16/16/21 18/18/21
f 11/10/22 1/1/22 14/14/22
f 22/22/23 19/19/23 5/5/23
f 19/19/24 22/22/24 21/21/24
f 22/22/25 5/5/25 9/9/25
