# Blender v2.79 (sub 0) OBJ File: ''
# www.blender.org
mtllib crack_only_6.mtl
o crack_only_6
v 2.829391 1.200451 -3.500771
v 2.844091 1.168045 -3.370511
v 2.819160 1.394612 -3.311097
v 2.888082 1.128947 -2.968725
v 2.874098 1.270139 -2.924717
v 2.900109 1.137574 -2.840031
v 2.868492 1.124419 -3.179987
vt 1.000000 1.000000
vt 0.000000 0.795168
vt 1.000000 0.795498
vt 0.750741 0.186918
vt 0.120802 0.176234
vt 0.583580 0.000000
vt 0.985856 0.497205
vn 0.9884 0.1296 -0.0793
vn 0.9865 0.1291 -0.1008
vn 0.9874 0.1272 -0.0943
vn 0.9863 0.1328 -0.0975
vn 0.9864 0.1336 -0.0957
usemtl None
s off
f 1/1/1 3/2/1 2/3/1
f 4/4/2 5/5/2 6/6/2
f 4/4/3 7/7/3 5/5/3
f 7/7/4 3/2/4 5/5/4
f 7/7/5 2/3/5 3/2/5
