# Blender v2.79 (sub 0) OBJ File: ''
# www.blender.org
mtllib crack_only_213.mtl
o crack_only_213
v 3.131348 4.929804 -2.468651
v 2.880833 5.902308 -2.127379
v 2.963727 5.728558 -2.900849
v 2.773995 1.763738 -4.356291
v 2.902996 2.533278 -3.823635
v 2.861407 1.997838 -3.671726
v 2.806371 2.124983 -4.643841
v 3.134992 4.998785 -1.396203
v 3.108737 4.188829 -2.019023
v 3.125714 4.411784 -4.766821
v 3.108955 4.574704 -3.965968
v 3.149114 5.323664 -4.388357
v 2.762660 1.172725 -3.290011
v 2.781713 1.388313 -3.324620
v 2.815491 1.594669 -2.770253
v 2.750004 1.276835 -3.655291
v 2.916175 2.463815 -2.196763
v 2.980744 2.925378 -2.495795
v 2.964363 2.797435 -2.084512
v 1.963197 7.503900 -3.843486
v 1.696121 7.581638 -3.695374
v 1.686034 7.625104 -3.988647
v 2.952864 2.881402 -4.552833
v 2.516280 6.186991 -1.509214
v 2.508687 6.427359 -1.914942
v 1.386141 7.623282 -3.110124
v 1.251319 7.670572 -3.315933
v 1.452477 7.618468 -3.367942
v 1.226453 7.748304 -3.132907
v 2.986705 3.152145 -4.475135
v 2.964144 2.937291 -4.673740
v 3.014784 3.324377 -4.694518
v 2.975948 3.041686 -3.887203
v 2.979673 3.097380 -4.082297
v 2.741488 5.783642 -1.413477
v 2.657804 5.957695 -1.444296
v 1.305947 7.633232 -3.570247
v 3.094197 3.918547 -1.333697
v 3.058502 3.545563 -1.652778
v 3.049729 3.739745 -4.204678
v 3.055645 3.781537 -3.906328
v 3.012115 3.356528 -4.119047
v 3.015188 3.377984 -3.834565
v 3.071184 3.921441 -3.457944
v 3.098585 4.217645 -2.746853
v 3.032025 3.333349 -2.063068
v 3.019235 3.295087 -2.559150
v 3.082352 3.967641 -2.503131
v 1.380542 7.627744 -3.697139
v 1.553233 7.568793 -3.094449
v 2.785130 1.179059 -2.651863
v 2.801517 1.360347 -2.204399
v 2.439693 6.915268 -3.250753
v 2.176188 7.143037 -3.016917
v 2.396430 6.741646 -2.563473
v 2.909891 2.401098 -1.744110
v 2.829998 1.941289 -1.562099
v 2.880937 2.300231 -1.371401
v 2.926138 2.540122 -3.184394
v 3.058663 3.729539 -3.038890
v 2.951535 2.769038 -3.302774
v 1.951756 7.448473 -3.502188
v 2.780708 1.167277 -2.809465
v 2.732183 6.447788 -3.168788
v 2.874182 6.226958 -3.406723
v 2.399257 7.080097 -3.595236
v 2.962357 6.321926 -4.270996
v 2.455455 7.266529 -4.264591
v 3.040005 3.583906 -3.415134
v 2.886176 2.527105 -4.885315
v 3.018612 3.164787 -5.064130
v 3.110084 4.119872 -1.337785
v 3.028924 3.214565 -1.267529
v 2.750901 1.458725 -4.015885
v 2.769709 1.143036 -3.105106
v 2.817973 1.683511 -1.945469
v 2.806519 1.617390 -1.824147
v 2.236436 7.280893 -3.808848
v 2.782100 6.445970 -3.420146
v 1.607803 7.457599 -2.646418
v 1.630159 7.419230 -2.448821
v 1.442973 7.518848 -2.501709
v 1.496502 7.556048 -2.782900
v 1.605865 7.486696 -2.778209
v 1.724610 7.364841 -2.511505
v 1.738771 7.427103 -2.862981
v 1.917251 7.271352 -2.647662
v 1.681331 7.326847 -2.137502
v 1.791642 7.307868 -2.405223
v 1.790538 7.196437 -1.977288
v 1.838889 7.419319 -3.050545
v 1.609323 7.605594 -3.522135
v 1.563995 7.452036 -2.300352
v 1.803339 7.489725 -3.363782
v 3.033411 5.458797 -3.623207
v 3.045493 3.610388 -4.610283
v 2.074485 7.299307 -3.258417
v 1.339103 7.600436 -2.710524
v 3.014781 3.154540 -1.706028
v 2.968161 2.690658 -1.262893
v 2.106472 6.824395 -1.680021
v 3.067069 3.699609 -5.011735
v 2.856058 2.003295 -2.254410
vt 0.446857 0.324815
vt 0.382873 0.177487
vt 0.513347 0.153927
vt 0.106065 0.876360
vt 0.201002 0.742918
vt 0.221610 0.840702
vt 0.061381 0.808590
vt 0.515030 0.462367
vt 0.625736 0.322771
vt 0.060196 0.395716
vt 0.131210 0.235449
vt 0.194855 0.374214
vt 0.278048 0.992895
vt 0.274155 0.953774
vt 0.368026 0.921969
vt 0.218314 0.970686
vt 0.470761 0.771087
vt 0.424939 0.685104
vt 0.492224 0.712107
vt 0.765303 0.446167
vt 0.716050 0.474446
vt 0.718344 0.421113
vt 0.082714 0.673199
vt 0.631519 0.781263
vt 0.697548 0.680281
vt 0.709985 0.781263
vt 0.664058 0.317137
vt 0.676379 0.363145
vt 0.641883 0.354755
vt 0.631519 0.323842
vt 0.097925 0.625217
vt 0.063071 0.661961
vt 0.062891 0.592082
vt 0.194709 0.650772
vt 0.162764 0.638870
vt 0.631519 0.182471
vt 0.628301 0.151088
vt 0.654584 0.399369
vt 0.626583 0.517592
vt 0.570334 0.581619
vt 0.147909 0.522090
vt 0.197856 0.517449
vt 0.158852 0.591870
vt 0.206322 0.590756
vt 0.273586 0.496603
vt 0.394343 0.450181
vt 0.500331 0.615852
vt 0.417575 0.617965
vt 0.432676 0.497499
vt 0.667240 0.422006
vt 0.693031 0.313339
vt 0.384094 0.997870
vt 0.460039 0.969576
vt 0.873027 0.327526
vt 0.815885 0.290638
vt 0.873051 0.200783
vt 0.545468 0.786745
vt 0.606635 0.808539
vt 0.571916 0.871318
vt 0.307232 0.747810
vt 0.341572 0.535166
vt 0.289508 0.705471
vt 0.764772 0.383953
vt 0.357807 0.998474
vt 0.345739 0.046184
vt 0.303625 0.083242
vt 0.631519 0.680281
vt 0.708538 0.516611
vt 0.747437 0.680281
vt 0.277795 0.557745
vt 0.024531 0.733809
vt 0.000000 0.617182
vt 0.627648 0.481337
vt 0.631519 0.644891
vt 0.160004 0.934514
vt 0.308489 1.000000
vt 0.505919 0.913966
vt 0.525539 0.927047
vt 0.858329 0.392752
vt 0.859279 0.516611
vt 0.821624 0.435261
vt 0.303737 0.043967
vt 0.160451 0.057622
vt 0.749562 0.680281
vt 0.749562 0.809773
vt 0.709985 0.681793
vt 0.705507 0.230890
vt 0.675239 0.206221
vt 0.710031 0.194771
vt 0.682957 0.257350
vt 0.704228 0.255082
vt 0.728523 0.204850
vt 0.729084 0.269042
vt 0.765129 0.227292
vt 0.721733 0.137152
vt 0.741771 0.184669
vt 0.745940 0.105715
vt 0.746226 0.302494
vt 0.702247 0.390611
vt 0.696661 0.168926
vt 0.738393 0.359973
vt 0.260087 0.218824
vt 0.079340 0.541428
vt 0.791680 0.337191
vt 0.655488 0.245214
vt 0.558145 0.651474
vt 0.948374 0.302562
vt 0.957947 0.347461
vt 1.000000 0.496743
vt 0.627827 0.739224
vt 0.816844 0.044560
vt 0.920817 0.000000
vt 0.906486 0.077951
vt 1.000000 0.104328
vt 0.450368 0.000000
vt 0.013320 0.521466
vt 0.457283 0.853427
vn 0.9713 0.2320 0.0520
vn 0.9905 -0.1028 -0.0913
vn 0.9901 -0.1301 -0.0519
vn 0.9995 -0.0313 -0.0014
vn 0.9989 -0.0375 0.0285
vn 0.9665 0.2559 -0.0197
vn 0.9954 -0.0922 -0.0263
vn 0.9872 -0.1535 -0.0429
vn 0.9899 -0.1414 -0.0046
vn 0.3412 0.9315 0.1263
vn 0.9820 -0.1875 -0.0224
vn 0.8337 0.4818 0.2698
vn 0.2624 0.9637 0.0495
vn 0.6198 0.7491 -0.2339
vn 0.9914 -0.1283 0.0262
vn 0.9892 -0.1448 -0.0224
vn 0.8568 0.4549 0.2429
vn 0.2269 0.9694 -0.0936
vn 0.9963 -0.0848 -0.0123
vn 0.9951 -0.0990 -0.0059
vn 0.9950 -0.1003 -0.0032
vn 0.9977 -0.0662 -0.0109
vn 0.9956 -0.0919 -0.0186
vn 0.0882 0.9961 0.0088
vn 0.3043 0.9506 0.0606
vn 0.9972 -0.0746 -0.0063
vn 0.7389 0.6408 0.2084
vn 0.9868 -0.1581 0.0339
vn 0.9931 -0.1170 -0.0017
vn 0.9942 -0.1068 -0.0150
vn 0.9918 -0.1266 -0.0172
vn 0.9976 -0.0681 -0.0133
vn 0.3573 0.9200 0.1614
vn 0.9908 -0.1352 -0.0100
vn 0.9966 -0.0791 -0.0220
vn 0.9081 0.3673 0.2011
vn 0.8637 0.4621 0.2012
vn 0.9976 -0.0678 -0.0103
vn 0.9955 -0.0936 -0.0129
vn 0.9801 -0.1975 0.0217
vn 0.9899 -0.1260 0.0647
vn 0.9968 -0.0789 -0.0100
vn 0.9957 -0.0926 -0.0031
vn 0.9996 -0.0287 -0.0049
vn 0.9852 -0.1556 -0.0726
vn 0.9965 -0.0783 -0.0307
vn 0.9940 -0.1027 0.0379
vn 0.5944 0.7604 0.2617
vn 0.9820 -0.1889 0.0043
vn 0.9930 -0.1170 -0.0133
vn 0.9967 -0.0651 -0.0485
vn 0.8652 0.4391 0.2419
vn 0.9034 0.3907 0.1766
vn 0.9103 0.3911 0.1358
vn 0.9955 -0.0936 -0.0131
vn 0.9933 -0.0978 -0.0623
vn 0.9933 -0.1156 -0.0020
vn 0.9816 -0.1909 0.0065
vn 0.8021 0.5564 0.2168
vn 0.5906 0.7640 0.2598
vn 0.9951 -0.0877 0.0462
vn 0.4135 0.9100 -0.0296
vn 0.4389 0.8901 0.1232
vn 0.4945 0.8444 0.2059
vn 0.5217 0.8346 0.1766
vn 0.5455 0.8322 0.0999
vn 0.4802 0.8651 0.1447
vn 0.5110 0.8480 0.1407
vn 0.5079 0.8427 0.1786
vn 0.5017 0.8430 0.1939
vn 0.5654 0.8115 0.1479
vn 0.5083 0.8505 0.1353
vn 0.4978 0.8552 0.1445
vn 0.6107 0.7660 0.2010
vn 0.6163 0.7617 0.1999
vn 0.4775 0.8507 0.2196
vn 0.0900 0.9959 0.0084
vn 0.4670 0.8842 0.0127
vn 0.3777 0.9165 0.1319
vn 0.6425 0.7570 0.1190
vn 0.9991 -0.0399 -0.0155
vn 0.9891 0.0285 0.1445
vn 0.9785 0.1692 0.1181
vn 0.9784 0.1694 0.1184
vn 0.9801 0.1973 0.0209
vn 0.7084 0.6741 0.2092
vn 0.6965 0.6706 0.2554
vn 0.9950 -0.0919 0.0395
vn 0.3437 0.9381 0.0438
vn 0.3299 0.9075 0.2598
vn 0.9923 -0.1242 0.0005
vn 0.9911 -0.1327 0.0044
vn 0.9907 -0.1327 0.0311
vn 0.9965 -0.0814 -0.0171
vn 0.9956 -0.0932 -0.0026
vn 0.9966 -0.0818 -0.0077
vn 0.9973 -0.0727 -0.0081
vn 0.9990 -0.0442 -0.0045
vn 0.9956 0.0559 0.0752
vn 0.9828 0.1757 -0.0564
vn 0.4818 0.8343 0.2680
vn 0.5367 0.8342 0.1266
vn 0.4477 0.8884 0.1015
vn 0.1446 0.9874 -0.0641
vn 0.1424 0.9798 0.1403
vn 0.5698 0.8010 0.1834
vn 0.6497 0.7332 0.2008
vn 0.3007 0.9491 0.0936
vn 0.3455 0.9195 0.1874
vn 0.5270 0.8398 0.1303
vn 0.9947 -0.1021 -0.0114
vn 0.9920 -0.1253 -0.0148
vn 0.9960 -0.0886 -0.0138
vn 0.9959 -0.0883 -0.0186
vn 0.8232 0.5437 0.1635
vn 0.8249 0.5422 0.1599
vn 0.8393 0.5343 0.0999
vn 0.6724 0.7177 0.1812
vn 0.7414 0.6351 0.2168
vn 0.6466 0.7493 0.1433
vn 0.5884 0.7627 0.2684
vn 0.6463 0.7512 0.1343
vn 0.9749 -0.2221 0.0156
vn 0.9920 -0.1257 0.0123
vn 0.9904 -0.1368 -0.0207
vn 0.9905 -0.1372 -0.0132
vn 0.9920 -0.1155 -0.0506
vn 0.9921 -0.1253 0.0005
vn 0.9942 -0.1065 -0.0174
vn 0.9942 -0.1062 -0.0154
vn 0.7537 0.5715 0.3245
vn 0.9971 -0.0745 0.0134
vn 0.9919 -0.1267 0.0019
vn 0.9925 -0.1169 0.0352
vn 0.9954 -0.0934 0.0194
vn 0.6864 0.7097 0.1588
vn 0.8321 0.5418 0.1185
vn 0.7428 0.6439 0.1835
vn 0.8172 0.5445 0.1890
vn 0.8723 0.3905 0.2943
vn 0.8699 0.4929 -0.0175
vn 0.9900 -0.1252 0.0643
vn 0.9951 -0.0934 0.0327
vn 0.9951 -0.0932 0.0328
vn 0.9955 -0.0902 0.0294
vn 0.9959 -0.0815 0.0384
vn 0.9963 -0.0853 -0.0107
vn 0.9852 -0.1539 -0.0752
vn 0.9937 -0.1117 0.0104
vn 0.9913 -0.1309 0.0120
vn 0.9909 -0.1348 -0.0032
vn 0.9941 -0.1087 -0.0055
vn 0.9940 -0.1089 -0.0071
vn 0.9934 -0.1141 -0.0117
vn 0.9890 -0.1452 -0.0264
vn 0.9945 -0.0918 -0.0511
vn 0.9935 -0.1133 -0.0059
vn 0.4404 0.8854 0.1490
vn 0.4313 0.8812 0.1937
vn 0.9865 -0.1625 0.0226
vn 0.9916 -0.1289 -0.0041
vn 0.9900 -0.1410 -0.0058
usemtl None
s off
f 1/1/1 3/2/1 2/3/1
f 4/4/2 5/5/2 6/6/2
f 4/4/3 7/7/3 5/5/3
f 9/8/4 1/1/4 8/9/4
f 10/10/5 12/11/5 11/12/5
f 2/3/6 8/9/6 1/1/6
f 13/13/7 14/14/7 15/15/7
f 14/14/8 16/16/8 6/6/8
f 17/17/9 18/18/9 19/19/9
f 20/20/10 22/21/10 21/22/10
f 23/23/11 5/5/11 7/7/11
f 24/24/12 2/25/12 25/26/12
f 26/27/13 28/28/13 27/29/13
f 27/29/14 29/30/14 26/27/14
f 30/31/15 31/32/15 32/33/15
f 33/34/16 5/5/16 34/35/16
f 35/36/17 2/3/17 36/37/17
f 27/29/18 28/28/18 37/38/18
f 38/39/19 39/40/19 9/8/19
f 40/41/20 41/42/20 42/43/20
f 43/44/21 41/42/21 44/45/21
f 43/44/21 42/43/21 41/42/21
f 44/45/22 11/12/22 45/46/22
f 46/47/23 47/48/23 48/49/23
f 37/38/24 28/28/24 49/50/24
f 26/27/25 50/51/25 28/28/25
f 51/52/26 15/15/26 52/53/26
f 53/54/27 54/55/27 55/56/27
f 56/57/28 58/58/28 57/59/28
f 59/60/29 15/15/29 6/6/29
f 60/61/30 47/48/30 61/62/30
f 33/34/31 34/35/31 42/43/31
f 41/42/32 11/12/32 44/45/32
f 62/63/33 20/20/33 21/22/33
f 14/14/34 6/6/34 15/15/34
f 63/64/35 15/15/35 51/52/35
f 64/65/36 3/2/36 65/66/36
f 66/67/37 67/68/37 68/69/37
f 41/42/38 40/41/38 11/12/38
f 43/44/39 44/45/39 69/70/39
f 31/32/40 70/71/40 71/72/40
f 32/33/41 31/32/41 71/72/41
f 38/39/42 9/8/42 72/73/42
f 39/40/43 38/39/43 73/74/43
f 72/73/44 9/8/44 8/9/44
f 74/75/45 4/4/45 6/6/45
f 63/64/46 75/76/46 15/15/46
f 76/77/47 57/59/47 77/78/47
f 66/79/48 68/80/48 78/81/48
f 23/23/49 70/71/49 31/32/49
f 18/18/50 59/60/50 61/62/50
f 13/13/51 15/15/51 75/76/51
f 35/36/52 8/9/52 2/3/52
f 64/65/53 65/66/53 79/82/53
f 65/66/54 67/83/54 79/82/54
f 60/61/55 69/70/55 44/45/55
f 14/14/56 13/13/56 16/16/56
f 33/34/57 42/43/57 43/44/57
f 23/23/58 7/7/58 70/71/58
f 36/84/59 2/85/59 24/86/59
f 20/20/60 78/81/60 68/80/60
f 77/78/61 52/53/61 76/77/61
f 20/20/62 68/80/62 22/21/62
f 80/87/63 82/88/63 81/89/63
f 80/87/64 83/90/64 82/88/64
f 83/90/65 80/87/65 84/91/65
f 80/87/66 81/89/66 85/92/66
f 86/93/67 50/51/67 84/91/67
f 85/92/68 87/94/68 80/87/68
f 84/91/69 80/87/69 87/94/69
f 84/91/70 87/94/70 86/93/70
f 81/89/71 88/95/71 85/92/71
f 85/92/72 89/96/72 87/94/72
f 89/96/73 85/92/73 88/95/73
f 89/96/74 90/97/74 87/94/74
f 89/96/75 88/95/75 90/97/75
f 86/93/76 87/94/76 91/98/76
f 92/99/77 49/50/77 28/28/77
f 81/89/78 82/88/78 93/100/78
f 94/101/79 62/63/79 21/22/79
f 81/89/80 93/100/80 88/95/80
f 9/8/81 45/46/81 1/1/81
f 95/102/82 11/12/82 12/11/82
f 95/102/83 12/11/83 67/83/83
f 65/66/84 95/102/84 67/83/84
f 95/102/85 65/66/85 3/2/85
f 55/56/86 87/94/86 90/97/86
f 54/55/87 87/94/87 55/56/87
f 11/12/88 96/103/88 10/10/88
f 94/101/89 28/28/89 50/51/89
f 94/101/90 92/99/90 28/28/90
f 23/23/91 30/31/91 42/43/91
f 23/23/91 42/43/91 34/35/91
f 23/23/92 34/35/92 5/5/92
f 23/23/93 31/32/93 30/31/93
f 48/49/94 45/46/94 9/8/94
f 48/49/95 47/48/95 60/61/95
f 48/49/96 60/61/96 44/45/96
f 48/49/97 44/45/97 45/46/97
f 45/46/98 11/12/98 1/1/98
f 11/12/99 95/102/99 3/2/99
f 3/2/100 1/1/100 11/12/100
f 94/101/101 97/104/101 62/63/101
f 97/104/102 94/101/102 91/98/102
f 94/101/103 21/22/103 92/99/103
f 21/22/104 49/50/104 92/99/104
f 21/22/105 22/21/105 49/50/105
f 97/104/106 91/98/106 87/94/106
f 97/104/107 87/94/107 54/55/107
f 50/51/108 26/27/108 83/90/108
f 98/105/109 82/88/109 83/90/109
f 84/91/110 50/51/110 83/90/110
f 39/40/111 73/74/111 46/47/111
f 46/47/112 73/74/112 99/106/112
f 48/49/113 9/8/113 46/47/113
f 46/47/114 9/8/114 39/40/114
f 66/79/115 53/54/115 64/107/115
f 79/108/116 66/79/116 64/107/116
f 66/79/117 79/108/117 67/109/117
f 97/104/118 54/55/118 66/79/118
f 53/54/119 66/79/119 54/55/119
f 20/20/120 62/63/120 66/79/120
f 78/81/121 20/20/121 66/79/121
f 97/104/122 66/79/122 62/63/122
f 56/57/123 100/110/123 58/58/123
f 46/47/124 56/57/124 19/19/124
f 46/47/125 99/106/125 56/57/125
f 56/57/126 99/106/126 73/74/126
f 56/57/127 73/74/127 100/110/127
f 18/18/128 46/47/128 19/19/128
f 47/48/129 46/47/129 18/18/129
f 47/48/130 18/18/130 61/62/130
f 101/111/131 24/112/131 25/113/131
f 96/103/132 11/12/132 40/41/132
f 30/31/133 96/103/133 42/43/133
f 30/31/134 32/33/134 96/103/134
f 96/103/135 40/41/135 42/43/135
f 55/56/136 90/97/136 101/111/136
f 55/56/137 25/113/137 2/114/137
f 101/111/138 25/113/138 55/56/138
f 53/54/139 55/56/139 64/107/139
f 64/65/140 55/115/140 3/2/140
f 55/115/141 2/3/141 3/2/141
f 32/33/142 71/72/142 96/103/142
f 102/116/143 96/103/143 71/72/143
f 96/103/144 102/116/144 10/10/144
f 76/77/145 103/117/145 57/59/145
f 103/117/146 76/77/146 52/53/146
f 103/117/147 52/53/147 15/15/147
f 16/16/148 74/75/148 6/6/148
f 59/60/149 103/117/149 15/15/149
f 17/17/150 103/117/150 18/18/150
f 18/18/151 103/117/151 59/60/151
f 43/44/152 69/70/152 61/62/152
f 60/61/153 61/62/153 69/70/153
f 33/34/154 43/44/154 61/62/154
f 5/5/155 33/34/155 61/62/155
f 5/5/156 61/62/156 6/6/156
f 59/60/157 6/6/157 61/62/157
f 91/98/158 94/101/158 50/51/158
f 91/98/159 50/51/159 86/93/159
f 56/57/160 57/59/160 103/117/160
f 56/57/161 103/117/161 17/17/161
f 56/57/162 17/17/162 19/19/162
