# Blender v2.79 (sub 0) OBJ File: ''
# www.blender.org
mtllib crack_only_93.mtl
o crack_only_93
v 2.912802 2.565872 -4.641482
v 2.841920 2.125235 -4.355190
v 2.795617 2.133603 -4.642632
v 2.933227 2.555533 -4.416547
v 2.827884 1.409166 -3.304461
v 2.774445 1.236730 -3.601420
v 2.897720 1.984531 -3.666404
v 2.819240 1.682812 -1.944516
v 2.886152 2.006327 -2.202544
v 2.810435 1.949787 -1.559199
v 2.824675 1.357910 -2.204867
v 2.866877 1.759253 -2.439054
v 3.023258 2.496043 -2.489557
v 3.041316 2.752851 -2.051167
v 2.983496 2.405083 -2.245833
v 3.103737 2.893111 -2.522016
v 2.863082 1.541707 -2.938221
v 2.829359 1.168789 -2.659506
v 2.973341 2.596570 -1.537410
v 2.988711 2.687943 -1.258475
v 2.872029 2.304032 -1.373297
v 2.830086 1.158945 -2.779257
v 2.748197 1.459116 -4.013986
v 2.751055 1.765904 -4.341817
v 2.824110 1.129163 -3.123779
v 2.799068 1.618633 -1.824602
v 2.812578 1.152890 -3.259425
v 2.903079 1.828841 -2.691068
v 3.131730 3.192432 -2.202040
v 3.085760 2.758114 -3.075734
v 3.170933 3.342882 -2.605538
v 3.032019 2.654979 -3.847468
v 3.068068 2.879196 -3.911412
v 3.008233 2.689350 -4.142807
v 2.977619 2.426510 -3.944405
v 3.095984 2.953696 -3.737628
v 3.062221 2.766589 -3.733428
v 3.111660 3.126098 -3.714328
v 3.107150 3.014252 -3.600961
v 3.117841 3.223695 -1.243724
v 3.035317 2.875568 -1.446998
v 3.123452 3.310945 -1.597996
v 2.987267 2.897093 -4.573847
v 3.157209 3.348849 -2.230096
v 3.137441 3.301722 -1.989353
v 3.052989 2.953257 -1.253472
v 3.129623 3.146337 -3.382792
v 3.011359 2.426948 -3.490872
v 3.136177 3.423378 -3.745245
v 3.112718 3.297503 -3.936614
v 3.162014 3.482623 -3.447464
v 2.948906 2.777781 -4.763445
v 3.204369 3.706250 -2.277009
v 3.152200 3.246731 -3.073166
v 2.834978 2.367838 -4.778939
v 3.185024 3.724481 -1.284800
v 3.167306 3.524769 -1.818308
v 2.872923 2.568190 -4.888926
v 2.918019 2.754427 -4.980847
v 2.962588 2.882846 -4.923831
v 3.005324 3.110988 -4.689394
v 2.996015 2.964318 -5.057250
v 2.835795 2.025415 -4.226488
v 2.985491 2.279170 -2.817879
v 2.958576 2.507590 -1.680793
v 2.936443 2.306685 -4.081775
v 3.047774 2.926771 -1.659453
v 3.195490 3.633466 -2.661078
v 3.190947 3.714845 -1.848675
v 3.192215 3.555345 -3.068511
v 3.118296 3.368691 -3.966758
v 3.105719 3.343119 -4.089860
v 2.973102 2.139183 -3.039727
v 3.061351 3.247688 -4.324725
v 3.051455 3.085645 -4.276833
v 3.083058 3.140372 -4.078310
vt 0.718145 0.084670
vt 0.516159 0.134520
vt 0.539698 0.061102
vt 0.697176 0.141684
vt 0.147159 0.366027
vt 0.099577 0.281118
vt 0.408429 0.303596
vt 0.144384 0.725282
vt 0.297549 0.676754
vt 0.218006 0.836354
vt 0.037521 0.643065
vt 0.217853 0.604063
vt 0.523382 0.630204
vt 0.590470 0.754696
vt 0.465043 0.687046
vt 0.688210 0.642898
vt 0.172151 0.466287
vt 0.000000 0.518156
vt 0.482553 0.876523
vt 0.497046 0.952228
vt 0.346953 0.902156
vt 0.005872 0.487227
vt 0.219135 0.186802
vt 0.367096 0.118677
vt 0.021651 0.398044
vt 0.107967 0.752276
vt 0.041258 0.364541
vt 0.268186 0.543998
vt 0.782354 0.739541
vt 0.678597 0.495114
vt 0.877113 0.645007
vt 0.696873 0.292897
vt 0.732821 0.219117
vt 0.793023 0.288317
vt 0.610871 0.256064
vt 0.810213 0.336644
vt 0.733719 0.327907
vt 0.877465 0.351359
vt 0.823791 0.374576
vt 0.716060 0.984570
vt 0.589547 0.914321
vt 0.779629 0.898890
vt 0.848444 0.119461
vt 0.848109 0.740560
vt 0.808655 0.799133
vt 0.605714 0.967664
vt 0.859766 0.436957
vt 0.576505 0.371956
vt 0.999030 0.358613
vt 0.963269 0.303339
vt 1.000000 0.437684
vt 0.814142 0.064726
vt 0.996225 0.747084
vt 0.875812 0.521027
vt 0.645894 0.038668
vt 0.921671 1.000000
vt 0.884874 0.854153
vt 0.736477 0.021226
vt 0.820495 0.007792
vt 0.869560 0.029362
vt 0.914785 0.000000
vt 0.943506 0.100960
vt 0.465885 0.162207
vt 0.461832 0.535367
vt 0.458052 0.835418
vt 0.571943 0.214541
vt 0.627831 0.863028
vt 0.998033 0.645668
vt 0.963990 0.856223
vt 1.000000 0.538135
vt 0.994205 0.299288
vt 0.993251 0.266517
vt 0.423705 0.471820
vt 0.971653 0.201358
vt 0.903103 0.205353
vt 0.910721 0.259050
vn 0.9527 -0.2578 -0.1610
vn 0.9706 -0.2200 -0.0982
vn 0.9825 -0.1688 -0.0788
vn 0.9871 -0.1199 0.1056
vn 0.9860 -0.0940 0.1379
vn 0.9954 -0.0944 0.0175
vn 0.9748 -0.2077 0.0815
vn 0.9786 -0.1924 0.0724
vn 0.9974 -0.0629 0.0365
vn 0.9517 -0.3033 0.0469
vn 0.9967 -0.0806 0.0127
vn 0.9724 -0.1744 -0.1547
vn 0.9959 -0.0898 -0.0095
vn 0.9877 -0.1169 0.1036
vn 0.9881 -0.0819 -0.1303
vn 0.9905 -0.0252 0.1353
vn 0.9891 -0.0817 0.1226
vn 0.9815 -0.1751 0.0779
vn 0.9891 -0.1471 0.0037
vn 0.9775 -0.1858 -0.1003
vn 0.9766 -0.1898 -0.1007
vn 0.9803 -0.1805 -0.0801
vn 0.9802 -0.1788 -0.0846
vn 0.9955 -0.0846 -0.0439
vn 0.9769 -0.2104 -0.0363
vn 0.9751 -0.1993 -0.0977
vn 0.9871 -0.1516 0.0514
vn 0.9873 -0.1539 0.0385
vn 0.9892 -0.1396 0.0441
vn 0.9718 -0.2356 0.0058
vn 0.9868 -0.1617 -0.0038
vn 0.9940 -0.0886 -0.0636
vn 0.9938 -0.1034 -0.0398
vn 0.9936 -0.0977 -0.0569
vn 0.9937 -0.0891 -0.0685
vn 0.9763 -0.2056 -0.0682
vn 0.9907 -0.1232 0.0572
vn 0.9913 -0.1258 0.0382
vn 0.9870 -0.1592 -0.0204
vn 0.9516 -0.2575 -0.1678
vn 0.9939 -0.1032 -0.0390
vn 0.9908 -0.1343 -0.0174
vn 0.9849 -0.1701 0.0310
vn 0.9548 -0.2599 -0.1440
vn 0.9516 -0.2582 -0.1668
vn 0.9534 -0.2827 -0.1051
vn 0.9615 -0.2628 0.0804
vn 0.9865 -0.1621 -0.0221
vn 0.9403 -0.3390 0.0286
vn 0.9530 -0.2842 -0.1049
vn 0.9582 -0.2575 -0.1247
vn 0.9639 -0.2594 0.0605
vn 0.9750 -0.2072 0.0806
vn 0.9724 -0.2334 0.0049
vn 0.9678 -0.2462 0.0531
vn 0.9528 -0.2764 -0.1255
vn 0.9808 -0.1949 0.0105
vn 0.9747 -0.2228 0.0193
vn 0.9689 -0.2311 -0.0889
vn 0.9963 -0.0855 -0.0068
vn 0.9925 -0.1214 0.0125
vn 0.9903 -0.1276 -0.0544
vn 0.9887 -0.1486 0.0211
vn 0.9908 -0.1108 -0.0782
vn 0.9813 -0.1673 0.0948
vn 0.9701 -0.2277 0.0841
vn 0.9848 -0.1662 0.0499
vn 0.9816 -0.1793 0.0658
vn 0.9818 -0.1791 0.0633
vn 0.9855 -0.1372 -0.1000
vn 0.9838 -0.1422 -0.1095
vn 0.9933 -0.1012 -0.0552
vn 0.9646 -0.2070 -0.1631
vn 0.9569 -0.2286 -0.1791
vn 0.9727 -0.2010 -0.1162
vn 0.9678 -0.2238 0.1148
vn 0.9848 -0.1688 0.0406
vn 0.9860 -0.1620 0.0391
vn 0.9791 -0.1992 0.0397
vn 0.9671 -0.2366 0.0930
vn 0.9549 -0.2862 0.0793
vn 0.9657 -0.2305 0.1192
vn 0.9886 -0.1499 0.0142
vn 0.9883 -0.1464 -0.0420
vn 0.9838 -0.1739 0.0428
vn 0.9950 -0.0717 -0.0697
vn 0.9943 -0.0518 -0.0936
vn 0.9824 -0.1464 -0.1160
vn 0.9853 -0.1172 -0.1245
vn 0.9837 -0.1035 -0.1469
vn 0.9769 -0.1948 -0.0874
vn 0.9686 -0.1677 -0.1834
vn 0.9527 -0.2604 -0.1566
vn 0.9505 -0.2657 -0.1609
vn 0.9573 -0.2434 -0.1557
vn 0.9724 -0.1738 -0.1556
vn 0.9784 -0.1946 0.0703
vn 0.9759 -0.2183 0.0046
vn 0.9842 -0.1027 -0.1442
vn 0.9804 -0.1962 0.0168
vn 0.9885 -0.1340 -0.0702
vn 0.9802 -0.1973 0.0163
vn 0.9902 -0.1152 -0.0795
vn 0.9803 -0.1432 -0.1360
vn 0.9867 -0.1240 -0.1054
vn 0.9935 -0.0794 -0.0812
vn 0.9902 -0.1128 -0.0822
vn 0.9916 -0.1284 -0.0133
vn 0.9908 -0.1347 -0.0120
vn 0.9965 -0.0827 0.0079
vn 0.9841 -0.1776 -0.0017
vn 0.9924 -0.1181 0.0335
vn 0.9938 -0.1102 0.0140
vn 0.9767 -0.2018 -0.0725
vn 0.9726 -0.2212 -0.0721
vn 0.9784 -0.1952 -0.0681
vn 0.9727 -0.2161 -0.0851
vn 0.9817 -0.1869 -0.0360
vn 0.9778 -0.2092 -0.0084
vn 0.9859 -0.1655 -0.0250
usemtl None
s off
f 1/1/1 2/2/1 3/3/1
f 1/1/2 4/4/2 2/2/2
f 5/5/3 6/6/3 7/7/3
f 8/8/4 9/9/4 10/10/4
f 9/9/5 8/8/5 11/11/5
f 9/9/6 11/11/6 12/12/6
f 13/13/7 14/14/7 15/15/7
f 13/13/8 16/16/8 14/14/8
f 17/17/9 11/11/9 18/18/9
f 19/19/10 20/20/10 21/21/10
f 17/17/11 18/18/11 22/22/11
f 23/23/12 24/24/12 7/7/12
f 17/17/13 22/22/13 25/25/13
f 8/8/14 10/10/14 26/26/14
f 5/5/15 27/27/15 6/6/15
f 28/28/16 12/12/16 11/11/16
f 26/26/17 11/11/17 8/8/17
f 29/29/18 14/14/18 16/16/18
f 30/30/19 31/31/19 16/16/19
f 32/32/20 34/33/20 33/34/20
f 32/32/21 35/35/21 34/33/21
f 32/32/22 33/34/22 36/36/22
f 37/37/23 32/32/23 36/36/23
f 38/38/24 39/39/24 36/36/24
f 40/40/25 41/41/25 42/42/25
f 43/43/26 4/4/26 1/1/26
f 44/44/27 45/45/27 29/29/27
f 44/44/28 29/29/28 31/31/28
f 29/29/29 16/16/29 31/31/29
f 46/46/30 20/20/30 41/41/30
f 39/39/31 47/47/31 48/48/31
f 49/49/32 38/38/32 50/50/32
f 47/47/33 39/39/33 51/51/33
f 38/38/34 51/51/34 39/39/34
f 38/38/35 49/49/35 51/51/35
f 43/43/36 1/1/36 52/52/36
f 45/45/37 44/44/37 53/53/37
f 44/44/38 31/31/38 53/53/38
f 54/54/39 48/48/39 47/47/39
f 1/1/40 3/3/40 55/55/40
f 54/54/41 47/47/41 51/51/41
f 40/40/42 42/42/42 56/56/42
f 56/56/43 42/42/43 57/57/43
f 58/58/44 52/52/44 55/55/44
f 1/1/45 55/55/45 52/52/45
f 59/59/46 52/52/46 58/58/46
f 60/60/47 62/61/47 61/62/47
f 60/60/48 61/62/48 52/52/48
f 60/60/49 59/59/49 62/61/49
f 59/59/50 60/60/50 52/52/50
f 63/63/51 7/7/51 24/24/51
f 64/64/52 13/13/52 15/15/52
f 65/65/53 15/15/53 14/14/53
f 40/40/54 46/46/54 41/41/54
f 65/65/55 14/14/55 19/19/55
f 63/63/56 66/66/56 7/7/56
f 67/67/57 42/42/57 41/41/57
f 19/19/58 41/41/58 20/20/58
f 35/35/59 7/7/59 66/66/59
f 68/68/60 53/53/60 31/31/60
f 69/69/61 56/56/61 57/57/61
f 54/54/62 51/51/62 70/70/62
f 45/45/63 53/53/63 57/57/63
f 71/71/64 50/50/64 72/72/64
f 9/9/65 12/12/65 28/28/65
f 65/65/66 9/9/66 15/15/66
f 73/73/67 64/64/67 28/28/67
f 29/29/68 45/45/68 14/14/68
f 67/67/69 14/14/69 45/45/69
f 61/62/70 74/74/70 43/43/70
f 43/43/71 52/52/71 61/62/71
f 71/71/72 49/49/72 50/50/72
f 66/66/73 4/4/73 34/33/73
f 66/66/74 2/2/74 4/4/74
f 66/66/75 34/33/75 35/35/75
f 9/9/76 28/28/76 15/15/76
f 64/64/77 15/15/77 28/28/77
f 45/45/78 57/57/78 42/42/78
f 67/67/79 45/45/79 42/42/79
f 9/9/80 65/65/80 10/10/80
f 19/19/81 21/21/81 65/65/81
f 65/65/82 21/21/82 10/10/82
f 17/17/83 28/28/83 11/11/83
f 5/5/84 7/7/84 17/17/84
f 73/73/85 28/28/85 17/17/85
f 27/27/86 5/5/86 17/17/86
f 17/17/87 25/25/87 27/27/87
f 75/75/88 76/76/88 34/33/88
f 75/75/89 72/72/89 76/76/89
f 74/74/90 75/75/90 43/43/90
f 43/43/91 75/75/91 4/4/91
f 75/75/92 34/33/92 4/4/92
f 66/66/93 63/63/93 2/2/93
f 2/2/94 63/63/94 3/3/94
f 63/63/95 24/24/95 3/3/95
f 6/6/96 23/23/96 7/7/96
f 67/67/97 19/19/97 14/14/97
f 19/19/98 67/67/98 41/41/98
f 74/74/99 72/72/99 75/75/99
f 30/30/100 13/13/100 64/64/100
f 54/54/101 30/30/101 48/48/101
f 30/30/102 16/16/102 13/13/102
f 50/50/103 76/76/103 72/72/103
f 76/76/104 33/34/104 34/33/104
f 33/34/105 76/76/105 36/36/105
f 38/38/106 36/36/106 76/76/106
f 38/38/107 76/76/107 50/50/107
f 70/70/108 31/31/108 54/54/108
f 54/54/109 31/31/109 30/30/109
f 68/68/110 31/31/110 70/70/110
f 36/36/111 39/39/111 37/37/111
f 69/69/112 57/57/112 53/53/112
f 48/48/113 64/64/113 73/73/113
f 35/35/114 32/32/114 48/48/114
f 35/35/115 48/48/115 7/7/115
f 32/32/116 37/37/116 48/48/116
f 17/17/117 7/7/117 48/48/117
f 73/73/118 17/17/118 48/48/118
f 64/64/119 48/48/119 30/30/119
f 48/48/120 37/37/120 39/39/120
