# Blender v2.79 (sub 0) OBJ File: ''
# www.blender.org
mtllib crack_only_69.mtl
o crack_only_69
v 2.840760 1.414982 -3.298839
v 2.826018 1.147550 -3.251190
v 2.784616 1.235056 -3.607183
v 2.903818 1.792402 -3.355318
v 3.023154 2.355381 -3.513314
v 3.024502 2.288186 -3.022595
v 2.878167 1.572364 -2.995060
v 2.907908 1.754819 -2.697092
v 2.954268 2.051134 -2.644545
v 3.095289 2.634806 -3.286840
v 2.874323 1.396617 -2.734786
v 2.831962 1.357143 -2.205014
v 2.865927 1.516759 -2.470415
v 2.908769 2.019063 -2.342633
v 2.887338 2.005908 -2.200096
v 2.884567 1.782802 -2.378407
v 2.989818 2.446854 -2.181722
v 3.034876 2.497519 -2.484510
v 2.826664 2.025988 -1.736500
v 2.814249 1.927498 -1.828987
v 2.792286 1.957671 -1.556509
v 2.856084 1.313626 -3.013078
v 2.841163 2.048469 -1.808869
v 2.845963 1.897293 -2.052032
v 2.867430 2.079755 -1.918723
v 2.822656 1.996502 -4.247630
v 2.844556 1.891233 -3.982933
v 2.746641 1.753218 -4.326355
v 2.888484 2.041833 -3.941751
v 2.918061 1.978059 -3.664891
v 2.879363 2.073600 -4.039672
v 2.870057 2.227617 -1.625234
v 2.908953 2.360417 -1.651396
v 2.926336 2.390140 -1.754163
v 2.926068 2.453923 -1.550868
v 2.891648 2.225893 -1.840237
v 2.880451 2.227721 -1.716738
v 2.835098 2.136640 -1.470842
v 2.853288 1.155029 -2.765063
v 2.854282 1.163002 -2.663812
v 2.838247 1.125558 -3.128631
v 3.120939 2.848299 -2.934226
v 3.097068 2.871239 -2.517330
v 2.926348 2.160686 -3.884453
v 2.867564 2.126905 -4.212877
v 2.959882 2.351832 -4.053523
v 2.968635 2.265256 -3.767105
v 3.086310 2.636351 -3.569537
v 3.060316 2.586629 -3.723185
v 3.001477 2.397177 -3.798489
v 2.772843 1.941822 -4.486782
v 2.836753 2.138338 -4.429211
v 2.924520 2.472230 -1.476744
v 2.874900 2.319440 -1.367084
v 2.924768 2.528952 -1.312249
v 2.948395 2.545513 -1.502822
v 2.972593 2.664297 -1.370113
v 2.792451 1.830755 -1.784820
v 2.771864 1.732697 -1.739176
v 2.894799 2.363084 -4.485140
v 2.997186 2.516614 -4.148201
v 3.105202 2.726742 -3.613104
v 3.044343 2.782276 -1.838898
v 3.121077 2.784238 -3.314584
v 3.070217 2.646336 -3.811401
v 2.959732 2.649976 -1.273379
v 2.795776 1.732470 -1.912567
v 2.763391 1.624587 -1.826783
v 2.819554 2.249292 -4.714307
v 2.820547 1.625563 -3.754433
v 2.773490 1.321284 -3.759265
v 2.748479 1.459075 -4.014184
vt 0.827359 0.613156
vt 0.982931 0.606036
vt 0.920690 0.706464
vt 0.603208 0.619929
vt 0.262110 0.651134
vt 0.324426 0.511633
vt 0.748840 0.521791
vt 0.656767 0.431518
vt 0.485991 0.408982
vt 0.106427 0.578878
vt 0.861768 0.451236
vt 0.807933 0.372307
vt 0.915643 0.300013
vt 0.524709 0.323126
vt 0.541858 0.282543
vt 0.659629 0.339279
vt 0.280680 0.266071
vt 0.231445 0.351727
vt 0.560945 0.148978
vt 0.612762 0.099024
vt 0.613608 0.178033
vt 0.897111 0.533376
vt 0.542852 0.169182
vt 0.615750 0.242783
vt 0.516478 0.199902
vt 0.453079 0.871932
vt 0.523199 0.798277
vt 0.596129 0.900829
vt 0.434651 0.782574
vt 0.480951 0.704376
vt 0.412897 0.810001
vt 0.447061 0.111876
vt 0.365848 0.115997
vt 0.341791 0.144755
vt 0.315835 0.084732
vt 0.434708 0.173663
vt 0.441183 0.138147
vt 0.510503 0.069839
vt 0.999592 0.465925
vt 1.000000 0.436606
vt 1.000000 0.571272
vt 0.000000 0.472149
vt 0.010672 0.351790
vt 0.365615 0.763035
vt 0.375526 0.858566
vt 0.244904 0.806857
vt 0.307119 0.726555
vt 0.092566 0.660185
vt 0.116223 0.705697
vt 0.226879 0.732225
vt 0.478178 0.942259
vt 0.362023 0.920637
vt 0.309350 0.062973
vt 0.407341 0.035371
vt 0.285397 0.014279
vt 0.263662 0.068585
vt 0.200081 0.027418
vt 0.673227 0.167781
vt 0.733517 0.157133
vt 0.224945 0.930995
vt 0.142365 0.829911
vt 0.036926 0.670430
vt 0.101227 0.159061
vt 0.017311 0.583104
vt 0.076823 0.729571
vt 0.214568 0.000000
vt 0.722107 0.206905
vt 0.791391 0.185001
vt 0.287098 1.000000
vt 0.687905 0.739139
vt 0.865650 0.748149
vt 0.777982 0.818211
vn 0.9879 -0.0784 -0.1341
vn 0.9759 -0.2159 -0.0322
vn 0.9779 -0.2020 -0.0537
vn 0.9828 -0.1675 0.0775
vn 0.9739 -0.2244 -0.0334
vn 0.9932 -0.0905 0.0727
vn 0.9832 -0.1214 0.1366
vn 0.9834 -0.1212 0.1353
vn 0.9818 -0.1690 0.0867
vn 0.9654 -0.2295 0.1240
vn 0.9680 -0.2188 0.1226
vn 0.9688 -0.2237 0.1067
vn 0.9704 -0.2185 0.1024
vn 0.9958 -0.0822 -0.0408
vn 0.9646 -0.2346 0.1204
vn 0.9559 -0.2407 0.1685
vn 0.9648 -0.2296 0.1285
vn 0.9545 -0.2416 -0.1750
vn 0.9588 -0.2368 -0.1570
vn 0.9580 -0.2343 -0.1652
vn 0.9629 -0.2553 0.0870
vn 0.9599 -0.2672 0.0851
vn 0.9566 -0.2440 0.1592
vn 0.9578 -0.2660 0.1085
vn 0.9577 -0.2661 0.1092
vn 0.9619 -0.2576 0.0910
vn 0.9596 -0.2596 0.1087
vn 0.9638 -0.2509 0.0904
vn 0.9635 -0.2518 0.0911
vn 0.9648 -0.2292 0.1291
vn 0.9597 -0.2593 0.1081
vn 0.9632 -0.2611 0.0642
vn 0.9611 -0.2700 0.0585
vn 0.9963 -0.0864 -0.0030
vn 0.9967 -0.0666 -0.0455
vn 0.9960 -0.0824 -0.0345
vn 0.9853 -0.1582 0.0651
vn 0.9604 -0.2309 -0.1558
vn 0.9475 -0.2817 -0.1512
vn 0.9601 -0.2272 -0.1631
vn 0.9507 -0.2816 -0.1298
vn 0.9674 -0.2169 -0.1308
vn 0.9680 -0.2351 -0.0877
vn 0.9608 -0.2545 -0.1103
vn 0.9578 -0.2650 -0.1116
vn 0.9570 -0.2533 -0.1414
vn 0.9474 -0.2827 -0.1499
vn 0.9635 -0.2226 -0.1488
vn 0.9581 -0.2646 -0.1095
vn 0.9581 -0.2647 -0.1092
vn 0.9635 -0.2553 0.0802
vn 0.9640 -0.2518 0.0854
vn 0.9941 -0.0300 -0.1046
vn 0.9952 -0.0626 0.0749
vn 0.9506 -0.2965 0.0921
vn 0.9795 -0.1758 0.0984
vn 0.9823 -0.1636 0.0916
vn 0.9944 -0.0800 -0.0698
vn 0.9938 -0.0701 -0.0861
vn 0.9475 -0.2821 -0.1502
vn 0.9423 -0.2994 -0.1499
vn 0.9663 -0.2429 -0.0849
vn 0.9581 -0.2753 0.0796
vn 0.9570 -0.2799 0.0760
vn 0.9777 -0.2099 -0.0116
vn 0.9792 -0.1846 -0.0841
vn 0.9754 -0.2203 -0.0052
vn 0.9641 -0.2571 -0.0658
vn 0.9754 -0.1450 0.1662
vn 0.9714 -0.2035 0.1221
vn 0.9589 -0.2320 0.1632
vn 0.9795 -0.1237 0.1592
vn 0.9940 -0.0528 0.0955
vn 0.9603 -0.2688 -0.0741
vn 0.9569 -0.2696 -0.1081
vn 0.9502 -0.3008 0.0818
vn 0.9667 -0.0926 0.2385
vn 0.9652 -0.0964 0.2431
vn 0.9560 -0.2779 0.0944
vn 0.9609 -0.2582 0.0998
vn 0.9857 -0.1591 0.0557
vn 0.9590 -0.2700 0.0860
vn 0.9582 -0.2652 0.1071
vn 0.9633 -0.2552 0.0832
vn 0.9559 -0.2797 0.0891
vn 0.9634 -0.2572 0.0753
vn 0.9463 -0.2853 -0.1523
vn 0.9561 -0.2363 -0.1731
vn 0.9464 -0.2860 -0.1499
vn 0.9531 -0.2699 -0.1368
vn 0.9516 -0.2627 -0.1596
vn 0.9796 -0.1993 0.0243
vn 0.9919 -0.0976 0.0812
vn 0.9786 -0.1975 0.0580
vn 0.9435 -0.2855 -0.1680
vn 0.9804 -0.1428 0.1354
vn 0.9734 -0.1853 0.1345
vn 0.9734 -0.1477 -0.1754
vn 0.9766 -0.1486 -0.1557
vn 0.9682 -0.2317 -0.0944
vn 0.9790 -0.1443 -0.1439
vn 0.9652 -0.2415 -0.1004
vn 0.9815 -0.1754 -0.0764
vn 0.9850 -0.1696 -0.0334
vn 0.9740 -0.1666 0.1536
vn 0.9762 -0.1475 0.1588
vn 0.9840 -0.1748 0.0343
vn 0.9829 -0.1771 0.0500
vn 0.9859 -0.1649 0.0281
vn 0.9919 -0.1011 0.0775
vn 0.9951 -0.0886 -0.0451
vn 0.9724 -0.1668 -0.1629
vn 0.9610 -0.2250 -0.1607
vn 0.9550 -0.2382 -0.1766
vn 0.9561 -0.2748 -0.1015
usemtl None
s off
f 1/1/1 2/2/1 3/3/1
f 4/4/2 5/5/2 6/6/2
f 4/4/3 6/6/3 7/7/3
f 8/8/4 6/6/4 9/9/4
f 10/10/5 6/6/5 5/5/5
f 11/11/6 13/12/6 12/13/6
f 14/14/7 15/15/7 16/16/7
f 14/14/8 16/16/8 9/9/8
f 8/8/9 9/9/9 16/16/9
f 15/15/10 14/14/10 17/17/10
f 14/14/11 9/9/11 18/18/11
f 14/14/12 18/18/12 17/17/12
f 19/19/13 21/20/13 20/21/13
f 22/22/14 7/7/14 11/11/14
f 19/19/15 20/21/15 23/23/15
f 20/21/16 24/24/16 23/23/16
f 15/15/17 17/17/17 25/25/17
f 26/26/18 27/27/18 28/28/18
f 29/29/19 30/30/19 27/27/19
f 31/31/20 29/29/20 27/27/20
f 19/19/21 32/32/21 21/20/21
f 33/33/22 34/34/22 35/35/22
f 23/23/23 25/25/23 36/36/23
f 19/19/24 37/37/24 32/32/24
f 23/23/25 37/37/25 19/19/25
f 37/37/26 23/23/26 36/36/26
f 33/33/27 32/32/27 37/37/27
f 36/36/28 34/34/28 33/33/28
f 37/37/29 36/36/29 33/33/29
f 36/36/30 25/25/30 17/17/30
f 36/36/31 17/17/31 34/34/31
f 32/32/32 38/38/32 21/20/32
f 33/33/33 38/38/33 32/32/33
f 39/39/34 11/11/34 40/40/34
f 41/41/35 22/22/35 11/11/35
f 39/39/36 41/41/36 11/11/36
f 42/42/37 43/43/37 18/18/37
f 29/29/38 44/44/38 30/30/38
f 45/45/39 46/46/39 31/31/39
f 31/31/40 44/44/40 29/29/40
f 44/44/41 31/31/41 46/46/41
f 47/47/42 5/5/42 30/30/42
f 48/48/43 5/5/43 49/49/43
f 50/50/44 49/49/44 5/5/44
f 50/50/45 5/5/45 47/47/45
f 26/26/46 28/28/46 51/51/46
f 45/45/47 52/52/47 46/46/47
f 47/47/48 30/30/48 44/44/48
f 50/50/49 47/47/49 44/44/49
f 44/44/50 46/46/50 50/50/50
f 53/53/51 54/54/51 38/38/51
f 54/54/52 53/53/52 55/55/52
f 2/2/53 22/22/53 41/41/53
f 40/40/54 11/11/54 12/13/54
f 56/56/55 57/57/55 55/55/55
f 58/58/56 20/21/56 21/20/56
f 58/58/57 21/20/57 59/59/57
f 2/2/58 7/7/58 22/22/58
f 2/2/59 1/1/59 7/7/59
f 60/60/60 46/46/60 52/52/60
f 61/61/61 46/46/61 60/60/61
f 62/62/62 48/48/62 49/49/62
f 63/63/63 56/56/63 35/35/63
f 57/57/64 56/56/64 63/63/64
f 62/62/65 64/64/65 48/48/65
f 10/10/66 5/5/66 64/64/66
f 48/48/67 64/64/67 5/5/67
f 65/65/68 62/62/68 49/49/68
f 24/24/69 16/16/69 15/15/69
f 24/24/70 15/15/70 25/25/70
f 25/25/71 23/23/71 24/24/71
f 24/24/72 13/12/72 16/16/72
f 24/24/73 12/13/73 13/12/73
f 49/49/74 50/50/74 65/65/74
f 65/65/75 50/50/75 46/46/75
f 66/66/76 55/55/76 57/57/76
f 24/24/77 67/67/77 12/13/77
f 68/68/78 12/13/78 67/67/78
f 56/56/79 55/55/79 53/53/79
f 18/18/80 63/63/80 17/17/80
f 18/18/81 43/43/81 63/63/81
f 35/35/82 34/34/82 63/63/82
f 34/34/83 17/17/83 63/63/83
f 53/53/84 38/38/84 35/35/84
f 53/53/85 35/35/85 56/56/85
f 33/33/86 35/35/86 38/38/86
f 26/26/87 45/45/87 31/31/87
f 31/31/88 27/27/88 26/26/88
f 26/26/89 52/52/89 45/45/89
f 26/26/90 51/51/90 52/52/90
f 69/69/91 52/52/91 51/51/91
f 8/8/92 7/7/92 6/6/92
f 8/8/93 16/16/93 13/12/93
f 6/6/94 18/18/94 9/9/94
f 60/60/95 52/52/95 69/69/95
f 59/59/96 67/67/96 58/58/96
f 67/67/97 59/59/97 68/68/97
f 70/70/98 71/71/98 72/72/98
f 70/70/99 3/3/99 71/71/99
f 30/30/100 5/5/100 4/4/100
f 70/70/101 4/4/101 3/3/101
f 4/4/102 70/70/102 30/30/102
f 1/1/103 3/3/103 4/4/103
f 1/1/104 4/4/104 7/7/104
f 24/24/105 58/58/105 67/67/105
f 20/21/106 58/58/106 24/24/106
f 42/42/107 6/6/107 10/10/107
f 42/42/108 18/18/108 6/6/108
f 42/42/109 10/10/109 64/64/109
f 11/11/110 8/8/110 13/12/110
f 8/8/111 11/11/111 7/7/111
f 72/72/112 28/28/112 70/70/112
f 70/70/113 27/27/113 30/30/113
f 70/70/114 28/28/114 27/27/114
f 46/46/115 61/61/115 65/65/115
