# Blender v2.79 (sub 0) OBJ File: ''
# www.blender.org
mtllib crack_only_170.mtl
o crack_only_170
v 3.098551 4.071246 -4.418457
v 3.061215 3.707543 -4.635720
v 3.125624 4.411812 -4.766763
v 2.764457 1.764639 -4.350273
v 2.902847 2.427116 -3.923967
v 2.870616 1.994464 -3.670377
v 2.799704 2.130328 -4.643092
v 3.134992 4.998785 -1.396203
v 3.150146 4.190623 -2.024857
v 3.174106 4.920485 -2.460133
v 3.143477 4.577344 -3.979147
v 3.154709 5.323261 -4.388133
v 3.046682 3.527803 -4.442952
v 3.071235 3.749498 -4.204095
v 2.795459 1.394522 -3.318619
v 2.755851 1.263137 -3.634703
v 2.647554 6.321736 -1.672430
v 2.715859 6.330213 -1.923831
v 2.849833 6.044259 -1.769209
v 2.546619 6.375073 -1.498044
v 2.965556 2.968668 -4.528579
v 3.169605 4.994400 -3.825459
v 3.164321 5.371549 -4.015775
v 3.157934 5.466007 -3.642897
v 3.087786 5.452129 -2.287441
v 3.037840 5.501672 -1.731635
v 3.087927 3.800184 -3.874901
v 3.038416 3.348782 -3.925017
v 2.991498 5.572267 -1.400175
v 3.063401 3.334790 -2.576096
v 3.148897 4.222182 -2.773614
v 3.118682 3.832632 -2.318857
v 3.052331 3.216054 -2.044288
v 3.044702 6.520962 -3.803336
v 3.121876 5.906453 -3.957477
v 3.112797 6.006825 -3.508755
v 2.818436 1.408121 -2.873019
v 2.796100 1.176511 -2.653758
v 2.804296 1.360055 -2.204455
v 3.104544 3.722707 -3.000514
v 3.151664 5.576698 -3.289680
v 2.981755 6.281714 -3.101740
v 2.996862 2.842131 -2.957177
v 2.980763 2.773680 -3.364155
v 3.087149 3.634849 -3.423328
v 2.857923 1.751179 -2.836891
v 2.793816 1.165065 -2.801445
v 2.961975 2.937998 -4.674247
v 2.883039 2.530714 -4.884591
v 3.027287 3.162949 -5.065883
v 3.018523 3.326135 -4.693884
v 3.163715 4.063309 -1.323597
v 2.748836 1.459024 -4.014434
v 2.785056 1.139122 -3.110374
v 2.994210 2.835038 -2.257145
v 2.818858 1.683023 -1.944803
v 2.804859 1.617667 -1.824248
v 2.825040 1.943443 -1.561364
v 3.127846 5.384896 -2.728616
v 2.924073 2.320391 -2.415902
v 2.776316 1.167299 -3.281643
v 3.019118 5.857744 -2.521772
v 2.989609 5.886395 -2.356512
v 3.099092 5.785802 -2.989209
v 3.102422 5.662652 -2.892328
v 3.117013 5.820173 -4.334692
v 3.067125 6.314643 -4.278516
v 3.097034 5.994595 -4.312688
v 2.943520 6.907170 -4.289066
v 3.063694 5.832057 -2.779143
v 2.768446 6.065420 -1.432988
v 2.926220 5.970863 -2.070607
v 3.162455 5.109848 -3.320784
v 3.157269 5.202550 -3.076811
v 3.000454 6.547023 -3.511140
v 2.578739 6.455099 -1.800067
v 2.706228 6.419973 -2.158628
v 2.991481 6.754465 -3.833851
v 2.918394 6.229017 -2.781689
v 2.840814 6.298377 -2.497452
v 2.538997 6.455727 -1.626059
v 2.870425 1.977845 -2.249815
v 3.001050 3.091636 -4.038074
v 2.487719 6.460254 -1.501516
v 3.158054 4.923366 -3.155031
v 3.090332 3.489079 -1.778914
v 3.058664 3.220269 -1.259854
v 2.873789 2.073957 -1.921234
v 3.064444 3.699388 -5.010496
v 2.975528 2.689685 -1.261309
v 2.878196 2.301401 -1.371985
vt 0.864253 0.488153
vt 0.904569 0.416599
vt 0.967433 0.539143
vt 0.750023 0.076134
vt 0.669108 0.207468
vt 0.586301 0.137218
vt 0.840101 0.133248
vt 0.130561 0.742121
vt 0.257876 0.579050
vt 0.399337 0.697294
vt 0.908468 0.713548
vt 0.773122 0.591684
vt 0.796072 0.436653
vt 0.847828 0.389947
vt 0.471304 0.039758
vt 0.546451 0.006977
vt 0.253486 0.970470
vt 0.267700 0.918249
vt 0.318387 0.964808
vt 0.210663 0.984926
vt 0.846238 0.287108
vt 0.751199 0.670941
vt 0.815373 0.733018
vt 0.723976 0.760753
vt 0.376766 0.797462
vt 0.236574 0.822381
vt 0.714136 0.455312
vt 0.708069 0.372865
vt 0.154586 0.844573
vt 0.362968 0.409516
vt 0.450476 0.562991
vt 0.318061 0.506303
vt 0.222140 0.403637
vt 0.808000 0.945020
vt 0.711825 0.861513
vt 0.822368 0.830522
vt 0.358125 0.055155
vt 0.185261 0.065905
vt 0.292437 0.019962
vt 0.487615 0.466808
vt 0.638273 0.790827
vt 0.618574 0.922381
vt 0.439677 0.310048
vt 0.540755 0.285950
vt 0.591931 0.438770
vt 0.363246 0.117760
vt 0.329687 0.013623
vt 0.882172 0.277381
vt 0.918725 0.198148
vt 0.991826 0.306450
vt 0.903481 0.346476
vt 0.073516 0.576588
vt 0.651526 0.031066
vt 0.407504 0.000000
vt 0.260519 0.329074
vt 0.132327 0.131351
vt 0.045143 0.189161
vt 0.098762 0.123110
vt 0.486894 0.772680
vt 0.279500 0.232106
vt 0.452385 0.000070
vt 0.453064 0.863263
vt 0.411886 0.873144
vt 0.569894 0.836939
vt 0.540071 0.817680
vt 0.915158 0.804109
vt 0.920991 0.894293
vt 0.916645 0.835981
vt 0.947576 1.000000
vt 0.517968 0.851266
vt 0.182291 0.931663
vt 0.342031 0.896475
vt 0.626992 0.706259
vt 0.568463 0.729944
vt 0.734216 0.958095
vt 0.291282 0.990564
vt 0.382037 0.974073
vt 0.825190 0.985906
vt 0.534331 0.922115
vt 0.464212 0.942666
vt 0.246664 0.995659
vt 0.222671 0.175435
vt 0.726161 0.323432
vt 0.214792 1.000000
vt 0.576922 0.677632
vt 0.165791 0.460334
vt 0.021927 0.427152
vt 0.142705 0.202198
vt 1.000000 0.404273
vt 0.000000 0.331869
vt 0.011788 0.258903
vn 0.9955 -0.0937 -0.0142
vn 0.9848 -0.1365 -0.1076
vn 0.9847 -0.1563 -0.0767
vn 0.9992 -0.0104 0.0375
vn 0.9995 -0.0246 -0.0175
vn 0.9954 -0.0943 -0.0148
vn 0.9954 -0.0944 -0.0130
vn 0.9858 -0.1575 -0.0581
vn 0.8224 0.5155 0.2408
vn 0.8146 0.4807 0.3245
vn 0.9806 -0.1852 -0.0642
vn 0.9997 0.0009 -0.0259
vn 0.9977 -0.0434 -0.0518
vn 0.9997 0.0201 0.0120
vn 0.9705 0.2319 0.0665
vn 0.9880 0.1523 0.0251
vn 0.9939 -0.1052 -0.0342
vn 0.9963 -0.0863 -0.0025
vn 0.9666 0.2424 0.0835
vn 0.9948 -0.1002 -0.0198
vn 0.9941 -0.1086 -0.0035
vn 0.9919 0.1266 -0.0083
vn 0.9965 -0.0817 0.0152
vn 0.9418 0.3306 0.0613
vn 0.9956 -0.0934 0.0111
vn 0.9963 0.0854 -0.0091
vn 0.9652 0.1827 0.1874
vn 0.9924 -0.1221 -0.0154
vn 0.9923 -0.1223 -0.0187
vn 0.9967 -0.0772 -0.0250
vn 0.9969 -0.0747 -0.0256
vn 0.9965 -0.0833 -0.0052
vn 0.9900 -0.1390 -0.0255
vn 0.9947 -0.1029 -0.0074
vn 0.9964 -0.0842 -0.0049
vn 0.9963 -0.0764 -0.0388
vn 0.9766 -0.2108 0.0418
vn 0.9968 0.0794 -0.0030
vn 0.9866 -0.1395 0.0844
vn 0.9995 0.0296 -0.0140
vn 0.9822 -0.1595 -0.0994
vn 0.9941 -0.1064 -0.0193
vn 0.9894 -0.1444 -0.0116
vn 0.9926 -0.1075 0.0570
vn 0.9880 0.1381 0.0687
vn 0.9908 -0.1357 0.0024
vn 0.9798 -0.1991 0.0178
vn 0.9907 -0.1358 0.0024
vn 0.9917 -0.0972 -0.0839
vn 0.9805 -0.1958 0.0137
vn 0.9966 0.0828 0.0017
vn 0.9956 -0.0928 -0.0162
vn 0.9934 -0.0958 0.0634
vn 0.9782 0.1994 0.0584
vn 0.9624 0.2383 0.1305
vn 0.9894 0.1053 0.0998
vn 0.9962 0.0794 -0.0360
vn 0.9942 0.0977 -0.0453
vn 0.9961 0.0825 -0.0317
vn 0.9921 0.1187 -0.0399
vn 0.9919 0.1266 -0.0082
vn 0.9727 0.2321 0.0087
vn 0.9782 0.2033 -0.0421
vn 0.9619 0.2518 0.1066
vn 0.9817 0.1335 0.1360
vn 0.7878 0.5966 0.1532
vn 0.8766 0.4690 0.1079
vn 0.9997 0.0224 0.0107
vn 0.9997 0.0211 0.0093
vn 0.9914 0.0755 0.1065
vn 0.9938 0.1073 0.0278
vn 0.9708 0.2025 0.1289
vn 0.7598 0.6093 0.2270
vn 0.7544 0.6229 0.2072
vn 0.9754 0.2185 -0.0295
vn 0.9121 0.3354 0.2358
vn 0.9242 0.3684 0.1012
vn 0.7900 0.5388 0.2925
vn 0.8690 0.4609 0.1798
vn 0.8783 0.4575 0.1388
vn 0.7938 0.5811 0.1792
vn 0.9932 -0.1157 0.0127
vn 0.9943 -0.1050 0.0194
vn 0.9912 -0.1264 -0.0400
vn 0.9879 -0.1517 -0.0334
vn 0.7787 0.5507 0.3006
vn 0.9639 0.2012 0.1744
vn 0.9637 0.2360 0.1249
vn 0.9994 -0.0347 -0.0031
vn 0.9994 -0.0257 -0.0232
vn 0.9998 -0.0185 -0.0099
vn 0.9968 -0.0753 -0.0267
vn 0.9756 0.1573 0.1533
vn 0.9824 0.1530 0.1071
vn 0.9997 0.0093 -0.0231
vn 0.9997 0.0223 0.0128
vn 0.9933 0.1132 0.0247
vn 0.9945 -0.0978 -0.0370
vn 0.9923 -0.1239 -0.0036
vn 0.9251 0.3672 0.0966
vn 0.9604 0.2397 0.1421
vn 0.9929 -0.1092 -0.0479
vn 0.9946 -0.0917 -0.0485
vn 0.9957 -0.0687 -0.0621
vn 0.9897 -0.1392 0.0327
vn 0.9897 -0.1400 0.0308
vn 0.9919 -0.1116 0.0598
vn 0.9924 -0.1011 0.0701
vn 0.9748 -0.2168 0.0534
vn 0.9914 -0.1309 -0.0073
vn 0.9963 -0.0857 -0.0022
vn 0.9929 -0.1167 -0.0221
vn 0.9939 -0.1074 -0.0252
vn 0.9895 -0.1225 0.0771
vn 0.9975 -0.0701 0.0101
vn 0.9960 -0.0891 0.0105
vn 0.9822 -0.1590 -0.1002
vn 0.9178 0.3624 0.1621
vn 0.9312 0.3417 0.1272
vn 0.9910 -0.1301 -0.0316
vn 0.9938 -0.1049 -0.0367
vn 0.9302 0.3330 0.1546
vn 0.9600 0.2731 0.0619
vn 0.9997 -0.0035 0.0226
vn 0.9968 -0.0739 0.0310
vn 0.9996 -0.0286 -0.0057
vn 0.9892 -0.1437 0.0289
vn 0.9891 -0.1469 -0.0072
vn 0.9710 -0.2387 -0.0166
vn 0.9879 -0.1548 -0.0041
vn 0.9890 -0.1159 0.0919
vn 0.9862 -0.1629 0.0311
vn 0.9911 -0.1310 -0.0231
vn 0.9930 -0.1177 0.0031
vn 0.9883 -0.1519 -0.0135
vn 0.9873 -0.1532 -0.0426
vn 0.9912 -0.1135 -0.0677
vn 0.9919 -0.1243 -0.0255
vn 0.9922 -0.1236 -0.0151
vn 0.9898 -0.1387 -0.0321
vn 0.9896 -0.1439 0.0060
vn 0.9895 -0.1443 0.0050
vn 0.8899 0.4151 0.1893
usemtl None
s off
f 1/1/1 2/2/1 3/3/1
f 4/4/2 5/5/2 6/6/2
f 4/4/3 7/7/3 5/5/3
f 8/8/4 9/9/4 10/10/4
f 3/3/5 12/11/5 11/12/5
f 14/13/6 13/14/6 1/1/6
f 13/14/7 2/2/7 1/1/7
f 15/15/8 16/16/8 6/6/8
f 17/17/9 19/18/9 18/19/9
f 20/20/10 19/18/10 17/17/10
f 21/21/11 5/5/11 7/7/11
f 22/22/12 12/11/12 23/23/12
f 22/22/13 11/12/13 12/11/13
f 22/22/14 23/23/14 24/24/14
f 25/25/15 26/26/15 8/8/15
f 25/25/16 8/8/16 10/10/16
f 14/13/17 27/27/17 28/28/17
f 1/1/18 11/12/18 14/13/18
f 26/26/19 29/29/19 8/8/19
f 30/30/20 31/31/20 32/32/20
f 33/33/21 30/30/21 32/32/21
f 34/34/22 36/35/22 35/36/22
f 37/37/23 39/38/23 38/39/23
f 26/26/24 19/18/24 29/29/24
f 31/31/25 30/30/25 40/40/25
f 41/41/26 24/24/26 36/35/26
f 42/42/27 41/41/27 36/35/27
f 40/40/28 30/30/28 43/43/28
f 40/40/29 43/43/29 44/44/29
f 31/31/30 40/40/30 45/45/30
f 27/27/31 11/12/31 45/45/31
f 32/32/32 31/31/32 9/9/32
f 15/15/33 6/6/33 46/46/33
f 37/37/34 38/39/34 47/47/34
f 1/1/35 3/3/35 11/12/35
f 27/27/36 14/13/36 11/12/36
f 48/48/37 49/49/37 50/50/37
f 23/23/38 35/36/38 24/24/38
f 51/51/39 48/48/39 50/50/39
f 52/52/40 9/9/40 8/8/40
f 53/53/41 4/4/41 6/6/41
f 37/37/42 47/47/42 54/54/42
f 30/30/43 33/33/43 55/55/43
f 56/56/44 58/57/44 57/58/44
f 25/25/45 10/10/45 59/59/45
f 30/30/46 55/55/46 43/43/46
f 21/21/47 49/49/47 48/48/47
f 55/55/48 60/60/48 43/43/48
f 15/15/49 61/61/49 16/16/49
f 21/21/50 7/7/50 49/49/50
f 36/35/51 24/24/51 35/36/51
f 13/14/52 14/13/52 28/28/52
f 57/58/53 39/38/53 56/56/53
f 62/62/54 25/25/54 59/59/54
f 62/62/55 63/63/55 25/25/55
f 64/64/56 65/65/56 41/41/56
f 66/66/57 23/23/57 12/11/57
f 67/67/58 35/36/58 68/68/58
f 66/66/59 35/36/59 23/23/59
f 66/66/60 68/68/60 35/36/60
f 67/67/61 34/34/61 35/36/61
f 64/64/62 41/41/62 42/42/62
f 67/67/63 69/69/63 34/34/63
f 70/70/64 64/64/64 42/42/64
f 64/64/65 70/70/65 65/65/65
f 71/71/66 19/18/66 20/20/66
f 72/72/67 18/19/67 19/18/67
f 73/73/68 24/24/68 41/41/68
f 73/73/69 22/22/69 24/24/69
f 65/65/70 74/74/70 41/41/70
f 74/74/71 65/65/71 59/59/71
f 75/75/72 36/35/72 34/34/72
f 76/76/73 17/17/73 18/19/73
f 18/19/74 77/77/74 76/76/74
f 78/78/75 34/34/75 69/69/75
f 79/79/76 70/70/76 42/42/76
f 63/63/77 62/62/77 80/80/77
f 81/81/78 20/20/78 17/17/78
f 77/77/79 72/72/79 80/80/79
f 77/77/80 18/19/80 72/72/80
f 17/17/81 76/76/81 81/81/81
f 37/37/82 46/46/82 39/38/82
f 46/46/83 82/82/83 39/38/83
f 21/21/84 28/28/84 83/83/84
f 21/21/85 83/83/85 5/5/85
f 84/84/86 20/20/86 81/81/86
f 75/75/87 42/42/87 36/35/87
f 34/34/88 78/78/88 75/75/88
f 31/31/89 10/10/89 9/9/89
f 85/85/90 10/10/90 31/31/90
f 31/31/91 11/12/91 85/85/91
f 45/45/92 11/12/92 31/31/92
f 62/62/93 59/59/93 70/70/93
f 65/65/94 70/70/94 59/59/94
f 85/85/95 74/74/95 10/10/95
f 74/74/96 73/73/96 41/41/96
f 74/74/97 59/59/97 10/10/97
f 52/52/98 86/86/98 9/9/98
f 86/86/99 52/52/99 87/87/99
f 72/72/100 63/63/100 80/80/100
f 72/72/101 25/25/101 63/63/101
f 15/15/102 46/46/102 37/37/102
f 61/61/103 15/15/103 37/37/103
f 37/37/104 54/54/104 61/61/104
f 46/46/105 60/60/105 82/82/105
f 88/88/106 82/82/106 60/60/106
f 56/56/107 82/82/107 58/57/107
f 82/82/108 56/56/108 39/38/108
f 88/88/109 58/57/109 82/82/109
f 86/86/110 87/87/110 33/33/110
f 32/32/111 9/9/111 86/86/111
f 32/32/112 86/86/112 33/33/112
f 13/14/113 51/51/113 2/2/113
f 51/51/114 50/50/114 2/2/114
f 89/89/115 2/2/115 50/50/115
f 2/2/116 89/89/116 3/3/116
f 16/16/117 53/53/117 6/6/117
f 80/80/118 62/62/118 79/79/118
f 70/70/119 79/79/119 62/62/119
f 83/83/120 28/28/120 44/44/120
f 28/28/121 27/27/121 45/45/121
f 72/72/122 19/18/122 26/26/122
f 72/72/123 26/26/123 25/25/123
f 74/74/124 85/85/124 73/73/124
f 73/73/125 11/12/125 22/22/125
f 73/73/126 85/85/126 11/12/126
f 88/88/127 60/60/127 55/55/127
f 55/55/128 33/33/128 87/87/128
f 55/55/129 90/90/129 91/91/129
f 55/55/130 87/87/130 90/90/130
f 88/88/131 55/55/131 58/57/131
f 55/55/132 91/91/132 58/57/132
f 46/46/133 6/6/133 44/44/133
f 60/60/134 46/46/134 44/44/134
f 60/60/135 44/44/135 43/43/135
f 5/5/136 83/83/136 44/44/136
f 5/5/137 44/44/137 6/6/137
f 28/28/138 45/45/138 44/44/138
f 40/40/139 44/44/139 45/45/139
f 21/21/140 13/14/140 28/28/140
f 21/21/141 48/48/141 51/51/141
f 21/21/142 51/51/142 13/14/142
f 71/71/143 29/29/143 19/18/143
