# Blender v2.79 (sub 0) OBJ File: ''
# www.blender.org
mtllib crack_only_76.mtl
o crack_only_76
v 2.910312 2.547931 -4.641348
v 2.841057 2.136614 -4.426111
v 2.800103 2.158148 -4.661184
v 2.967047 2.679027 -4.420882
v 2.903492 1.791360 -3.355661
v 3.024104 2.360765 -3.509414
v 2.916193 1.977761 -3.663697
v 2.817008 1.548450 -3.722101
v 3.030729 2.500071 -2.484399
v 3.051328 2.785305 -2.055817
v 2.989517 2.444918 -2.179775
v 2.836326 1.126048 -3.127972
v 2.842024 1.415553 -3.298287
v 2.855745 1.314349 -3.012559
v 2.905845 1.735837 -2.763533
v 2.995457 2.181051 -3.036735
v 2.953678 2.050279 -2.645728
v 2.885444 1.789863 -2.376902
v 3.041174 2.794692 -4.176198
v 2.966551 2.345268 -4.052336
v 2.773039 1.947810 -4.490702
v 2.840898 2.443187 -4.814047
v 2.866553 2.127029 -4.209773
v 2.877698 2.072531 -4.038858
v 2.906642 2.104373 -3.912676
v 3.001446 2.402871 -3.805300
v 3.086096 3.045014 -1.738587
v 3.108868 3.100599 -2.029680
v 2.982054 2.675936 -1.402861
v 2.950533 2.528670 -1.558263
v 3.038370 2.943382 -1.438122
v 2.848240 1.809626 -2.097920
v 2.800632 1.693078 -1.958497
v 2.828317 1.357527 -2.204940
v 2.825054 1.997409 -4.242095
v 2.748391 1.766156 -4.340137
v 2.864253 1.347439 -2.727326
v 2.885089 1.582871 -2.846209
v 2.932332 2.554911 -1.307034
v 3.143286 3.088497 -2.535474
v 3.052098 2.882183 -1.248062
v 2.834588 2.031363 -1.761568
v 2.850748 2.213773 -1.424727
v 2.781774 1.800713 -1.683264
v 2.880955 2.230197 -1.712216
v 2.926159 2.389939 -1.735398
v 3.097132 2.736412 -3.041401
v 2.781887 1.235411 -3.605459
v 2.748896 1.459015 -4.014477
v 2.865483 2.049499 -1.933964
v 3.099877 2.883244 -3.756534
v 3.060128 2.595220 -3.736631
v 3.144950 2.999780 -3.010046
v 2.843380 1.887703 -3.980225
v 2.845896 1.158009 -2.748172
v 3.137886 2.971198 -3.335108
vt 0.859145 0.052410
vt 0.625782 0.095038
vt 0.650302 0.030659
vt 0.915262 0.118778
vt 0.375126 0.377121
vt 0.494857 0.299671
vt 0.689842 0.358099
vt 0.269894 0.265969
vt 0.684169 0.645294
vt 0.799495 0.774229
vt 0.628737 0.726389
vt 0.011399 0.413571
vt 0.172622 0.377799
vt 0.100794 0.452710
vt 0.302284 0.537850
vt 0.559433 0.480850
vt 0.458819 0.582821
vt 0.298532 0.645919
vt 0.963472 0.191459
vt 0.717009 0.207446
vt 0.527264 0.069184
vt 0.811557 0.000000
vt 0.607178 0.154507
vt 0.567598 0.199586
vt 0.577308 0.235885
vt 0.731349 0.278032
vt 0.911673 0.871776
vt 0.964396 0.794163
vt 0.687167 0.948654
vt 0.620486 0.899909
vt 0.832158 0.949875
vt 0.283689 0.722860
vt 0.208745 0.756119
vt 0.058965 0.676019
vt 0.539171 0.140134
vt 0.420621 0.103353
vt 0.097008 0.532505
vt 0.228311 0.509033
vt 0.613012 0.969727
vt 1.000000 0.655113
vt 0.787980 1.000000
vt 0.370035 0.823558
vt 0.439353 0.923309
vt 0.240932 0.835614
vt 0.472585 0.845305
vt 0.560543 0.845611
vt 0.853756 0.502026
vt 0.097673 0.285685
vt 0.239298 0.181252
vt 0.395514 0.777272
vt 0.983025 0.311010
vt 0.830403 0.305013
vt 0.990754 0.521292
vt 0.465282 0.208226
vt 0.000000 0.519338
vt 1.000000 0.430737
vn 0.9475 -0.2583 -0.1887
vn 0.9677 -0.2237 -0.1160
vn 0.9675 -0.2321 -0.1005
vn 0.9731 -0.2128 -0.0886
vn 0.9731 -0.2107 0.0935
vn 0.9958 -0.0603 -0.0692
vn 0.9846 -0.1681 0.0490
vn 0.9811 -0.1779 0.0766
vn 0.9586 -0.2116 -0.1904
vn 0.9427 -0.2748 -0.1894
vn 0.9552 -0.2200 -0.1979
vn 0.9408 -0.2546 -0.2237
vn 0.9361 -0.3129 -0.1608
vn 0.9399 -0.3130 -0.1366
vn 0.9674 -0.2296 -0.1068
vn 0.9330 -0.3374 -0.1249
vn 0.9559 -0.2455 -0.1615
vn 0.9823 -0.1827 0.0419
vn 0.9785 -0.2064 -0.0029
vn 0.9642 -0.1005 0.2452
vn 0.9876 -0.0760 0.1371
vn 0.9459 -0.2931 -0.1394
vn 0.9557 -0.2535 -0.1494
vn 0.9962 -0.0530 0.0696
vn 0.9954 -0.0649 -0.0708
vn 0.9951 -0.0974 -0.0184
vn 0.9856 -0.1661 -0.0324
vn 0.9458 -0.3088 0.1008
vn 0.9802 -0.1848 0.0711
vn 0.9648 -0.2218 -0.1411
vn 0.9357 -0.3502 0.0432
vn 0.9820 -0.1838 0.0435
vn 0.9773 -0.2025 0.0628
vn 0.9651 -0.2467 0.0873
vn 0.9618 -0.2597 0.0862
vn 0.9706 -0.2271 0.0795
vn 0.9706 -0.2279 0.0771
vn 0.9769 -0.2128 -0.0217
vn 0.9829 -0.1796 0.0410
vn 0.9696 -0.1732 -0.1729
vn 0.9668 -0.1878 0.1731
vn 0.9725 -0.1866 0.1396
vn 0.9730 -0.1697 0.1565
vn 0.9757 -0.1672 0.1420
vn 0.9740 -0.1464 -0.1728
vn 0.9772 -0.1889 -0.0968
vn 0.9595 -0.2703 0.0796
vn 0.9599 -0.2630 0.0970
vn 0.9807 -0.1812 0.0735
vn 0.9824 -0.1829 0.0376
vn 0.9821 -0.1845 0.0388
vn 0.9520 -0.2680 -0.1475
vn 0.9594 -0.2300 -0.1635
vn 0.9547 -0.2447 -0.1693
vn 0.9536 -0.2742 -0.1245
vn 0.9837 -0.1321 0.1218
vn 0.9705 -0.2093 0.1200
vn 0.9646 -0.2495 0.0853
vn 0.9977 0.0450 0.0507
vn 0.9921 -0.1039 0.0703
vn 0.9957 -0.0909 -0.0191
vn 0.9954 -0.0946 -0.0171
vn 0.9919 -0.1261 -0.0158
vn 0.9877 -0.1524 0.0339
vn 0.9923 -0.1045 0.0670
vn 0.9772 -0.2112 -0.0237
vn 0.9603 -0.2321 -0.1549
vn 0.9597 -0.2296 -0.1622
vn 0.9610 -0.2540 -0.1097
vn 0.9609 -0.2669 -0.0735
vn 0.9577 -0.2789 -0.0702
vn 0.9794 -0.1572 -0.1270
vn 0.9859 -0.0989 -0.1350
vn 0.9806 -0.1741 -0.0899
vn 0.9552 -0.2585 0.1440
vn 0.9581 -0.2511 0.1378
vn 0.9743 -0.2213 -0.0417
vn 0.9836 -0.1802 -0.0089
vn 0.9840 -0.1780 -0.0057
vn 0.9901 -0.1383 -0.0246
vn 0.9855 -0.1690 -0.0181
vn 0.9688 -0.1795 -0.1708
vn 0.9657 -0.2006 -0.1651
vn 0.9601 -0.2128 -0.1815
vn 0.9653 -0.2528 0.0652
vn 0.9658 -0.2355 0.1086
vn 0.9699 -0.2167 0.1115
usemtl None
s off
f 1/1/1 2/2/1 3/3/1
f 1/1/2 4/4/2 2/2/2
f 5/5/3 7/6/3 6/7/3
f 7/6/4 5/5/4 8/8/4
f 9/9/5 10/10/5 11/11/5
f 12/12/6 13/13/6 14/14/6
f 15/15/7 16/16/7 17/17/7
f 15/15/8 17/17/8 18/18/8
f 4/4/9 19/19/9 20/20/9
f 3/3/10 2/2/10 21/21/10
f 2/2/11 4/4/11 20/20/11
f 1/1/12 3/3/12 22/22/12
f 23/23/13 20/20/13 24/24/13
f 25/25/14 24/24/14 20/20/14
f 26/26/15 6/7/15 7/6/15
f 23/23/16 2/2/16 20/20/16
f 26/26/17 7/6/17 25/25/17
f 27/27/18 10/10/18 28/28/18
f 29/29/19 30/30/19 31/31/19
f 32/32/20 33/33/20 34/34/20
f 32/32/21 34/34/21 18/18/21
f 35/35/22 21/21/22 2/2/22
f 35/35/23 36/36/23 21/21/23
f 37/37/24 38/38/24 34/34/24
f 13/13/25 38/38/25 14/14/25
f 38/38/26 37/37/26 14/14/26
f 13/13/27 5/5/27 38/38/27
f 30/30/28 29/29/28 39/39/28
f 40/40/29 28/28/29 10/10/29
f 41/41/30 29/29/30 31/31/30
f 29/29/31 41/41/31 39/39/31
f 16/16/32 9/9/32 17/17/32
f 42/42/33 43/43/33 44/44/33
f 45/45/34 43/43/34 42/42/34
f 46/46/35 43/43/35 45/45/35
f 30/30/36 10/10/36 27/27/36
f 27/27/37 31/31/37 30/30/37
f 5/5/38 6/7/38 16/16/38
f 47/47/39 9/9/39 16/16/39
f 8/8/40 48/48/40 49/49/40
f 50/50/41 33/33/41 32/32/41
f 33/33/42 50/50/42 44/44/42
f 50/50/43 42/42/43 44/44/43
f 50/50/44 32/32/44 18/18/44
f 51/51/45 52/52/45 20/20/45
f 51/51/46 20/20/46 19/19/46
f 46/46/47 30/30/47 43/43/47
f 43/43/48 30/30/48 39/39/48
f 9/9/49 40/40/49 10/10/49
f 47/47/50 53/53/50 40/40/50
f 47/47/51 40/40/51 9/9/51
f 35/35/52 23/23/52 24/24/52
f 24/24/53 54/54/53 35/35/53
f 35/35/54 54/54/54 36/36/54
f 35/35/55 2/2/55 23/23/55
f 50/50/56 18/18/56 17/17/56
f 50/50/57 17/17/57 9/9/57
f 50/50/58 9/9/58 11/11/58
f 44/44/59 34/34/59 33/33/59
f 37/37/60 34/34/60 55/55/60
f 37/37/61 12/12/61 14/14/61
f 37/37/62 55/55/62 12/12/62
f 15/15/63 38/38/63 5/5/63
f 38/38/64 15/15/64 34/34/64
f 15/15/65 18/18/65 34/34/65
f 5/5/66 16/16/66 15/15/66
f 25/25/67 7/6/67 54/54/67
f 24/24/68 25/25/68 54/54/68
f 26/26/69 52/52/69 6/7/69
f 52/52/70 26/26/70 20/20/70
f 25/25/71 20/20/71 26/26/71
f 8/8/72 5/5/72 48/48/72
f 13/13/73 12/12/73 48/48/73
f 13/13/74 48/48/74 5/5/74
f 45/45/75 42/42/75 50/50/75
f 45/45/76 50/50/76 46/46/76
f 56/56/77 47/47/77 51/51/77
f 47/47/78 16/16/78 6/7/78
f 56/56/79 53/53/79 47/47/79
f 51/51/80 47/47/80 52/52/80
f 47/47/81 6/7/81 52/52/81
f 49/49/82 36/36/82 8/8/82
f 54/54/83 7/6/83 8/8/83
f 54/54/84 8/8/84 36/36/84
f 30/30/85 46/46/85 10/10/85
f 50/50/86 11/11/86 46/46/86
f 46/46/87 11/11/87 10/10/87
