# Blender v2.79 (sub 0) OBJ File: ''
# www.blender.org
mtllib crack_only_86.mtl
o crack_only_86
v 3.026178 2.498367 -2.487341
v 3.041687 2.759219 -2.054614
v 2.986085 2.436321 -2.180675
v 3.111248 2.906737 -2.500291
v 2.923051 2.454945 -1.481964
v 2.923964 2.509603 -1.317164
v 2.871496 2.304259 -1.373410
v 2.972069 2.620496 -1.484714
v 2.819216 1.682825 -1.944534
v 2.797887 1.618830 -1.824674
v 2.807583 1.951026 -1.558776
v 2.835128 1.412438 -3.301298
v 2.828503 1.131004 -3.145171
v 2.777975 1.235920 -3.602989
v 2.892883 1.710253 -2.708490
v 2.883384 1.936536 -2.265387
v 2.826475 1.357721 -2.204903
v 2.955923 2.507610 -1.681189
v 3.142081 3.235397 -2.167860
v 3.142431 3.056167 -2.953902
v 3.179820 3.409791 -2.605196
v 3.098432 2.785170 -3.079081
v 3.074563 2.787345 -3.757318
v 2.993948 2.399203 -3.794315
v 2.958779 2.340003 -4.047641
v 3.139385 3.218643 -3.673053
v 3.104553 2.980665 -3.745006
v 3.115321 2.987376 -3.624235
v 2.980212 2.660582 -1.374624
v 2.993852 2.694994 -1.256531
v 2.936382 2.574484 -4.421248
v 3.016311 2.716759 -4.152225
v 3.086015 3.076234 -1.706542
v 3.135830 3.372801 -1.251651
v 3.047693 2.915932 -1.445997
v 3.125052 3.387060 -1.583333
v 2.994430 2.910141 -4.573979
v 2.920264 2.588327 -4.654542
v 3.058985 2.980200 -1.253171
v 2.845368 2.438416 -4.817307
v 2.796881 2.141579 -4.647290
v 3.023814 2.989349 -4.381853
v 3.182161 3.448743 -2.148863
v 2.878482 2.618133 -4.923699
v 2.960762 2.833363 -4.778003
v 2.913336 2.776447 -4.993418
v 2.814313 1.984005 -4.301855
v 2.897762 2.013336 -3.803504
v 2.992950 2.279098 -2.809941
v 2.945897 2.051891 -2.650037
v 2.930321 2.377357 -1.753432
v 3.149715 3.415248 -1.803350
v 3.155368 3.265331 -3.428619
v 2.976443 2.123235 -3.033746
v 3.087107 2.722609 -3.346044
v 3.167243 3.297423 -3.189395
v 3.079744 3.106111 -4.112958
v 3.077045 2.899919 -3.924473
v 3.005484 2.401434 -3.641885
v 2.871154 1.540208 -2.927176
v 2.748808 1.459028 -4.014415
v 2.749537 1.766048 -4.340860
v 2.771781 1.944171 -4.487043
v 2.838305 1.157558 -2.774229
vt 0.579284 0.639208
vt 0.660375 0.763228
vt 0.524516 0.715447
vt 0.765988 0.655129
vt 0.472060 0.896635
vt 0.482985 0.941816
vt 0.393264 0.917401
vt 0.548764 0.903937
vt 0.162387 0.740985
vt 0.248144 0.852778
vt 0.123129 0.768942
vt 0.152932 0.377304
vt 0.016947 0.405223
vt 0.094863 0.290442
vt 0.241036 0.545063
vt 0.304100 0.669899
vt 0.041451 0.659130
vt 0.513613 0.847748
vt 0.885953 0.756353
vt 0.869860 0.544531
vt 1.000000 0.651174
vt 0.757596 0.499440
vt 0.810268 0.323296
vt 0.636738 0.295378
vt 0.627976 0.226566
vt 0.997608 0.365172
vt 0.890603 0.367245
vt 0.896333 0.335475
vt 0.558254 0.934380
vt 0.565089 0.966723
vt 0.758228 0.139759
vt 0.805813 0.216941
vt 0.775135 0.868177
vt 0.872954 1.000000
vt 0.681203 0.928119
vt 0.904557 0.914457
vt 0.921950 0.115830
vt 0.781412 0.079644
vt 0.694978 0.981138
vt 0.575177 0.060018
vt 0.722494 0.029753
vt 0.943824 0.169577
vt 0.981088 0.771293
vt 0.812272 0.010583
vt 0.901722 0.059046
vt 0.889933 0.000000
vt 0.480371 0.142861
vt 0.460698 0.274561
vt 0.506174 0.545353
vt 0.390227 0.576104
vt 0.460239 0.822882
vt 0.936368 0.858979
vt 1.000000 0.430860
vt 0.454364 0.480165
vt 0.750436 0.427267
vt 0.996079 0.494494
vt 0.978258 0.245266
vt 0.872940 0.284969
vt 0.626605 0.335171
vt 0.182183 0.480501
vt 0.222572 0.193229
vt 0.382741 0.122190
vt 0.474066 0.092480
vt 0.000000 0.502746
vn 0.9756 -0.2018 0.0867
vn 0.9759 -0.2006 0.0859
vn 0.9597 -0.2681 0.0836
vn 0.9555 -0.2815 0.0881
vn 0.9866 -0.1186 0.1122
vn 0.9868 -0.0958 -0.1309
vn 0.9936 -0.0906 0.0676
vn 0.9878 -0.0832 0.1314
vn 0.9685 -0.2419 0.0594
vn 0.9785 -0.1845 0.0917
vn 0.9912 -0.1298 0.0254
vn 0.9860 -0.1661 0.0131
vn 0.9789 -0.2033 0.0210
vn 0.9768 -0.1943 -0.0902
vn 0.9894 -0.1202 -0.0815
vn 0.9363 -0.3511 -0.0058
vn 0.9633 -0.1975 -0.1817
vn 0.9421 -0.3315 0.0510
vn 0.9752 -0.2108 0.0678
vn 0.9841 -0.1731 -0.0394
vn 0.9755 -0.2049 -0.0796
vn 0.9814 -0.1921 0.0066
vn 0.9452 -0.2642 -0.1916
vn 0.9644 -0.1853 -0.1885
vn 0.9826 -0.1855 0.0108
vn 0.9912 -0.1279 0.0345
vn 0.9690 -0.2468 -0.0093
vn 0.9877 -0.1460 0.0554
vn 0.9739 -0.2218 -0.0478
vn 0.9683 -0.2486 0.0261
vn 0.9680 -0.2503 0.0195
vn 0.9531 -0.2637 -0.1487
vn 0.9458 -0.2566 -0.1989
vn 0.9754 -0.2037 -0.0843
vn 0.9527 -0.2706 -0.1382
vn 0.9484 -0.2834 -0.1421
vn 0.9640 -0.2555 0.0743
vn 0.9846 -0.1670 0.0525
vn 0.9559 -0.2817 0.0833
vn 0.9655 -0.2426 0.0952
vn 0.9612 -0.2573 0.0993
vn 0.9674 -0.2304 0.1054
vn 0.9832 -0.1591 0.0898
vn 0.9849 -0.1628 0.0585
vn 0.9840 -0.1672 0.0619
vn 0.9796 -0.1941 0.0521
vn 0.9927 -0.1125 -0.0434
vn 0.9853 -0.1657 0.0427
vn 0.9916 -0.1279 -0.0212
vn 0.9911 -0.1295 -0.0318
vn 0.9814 -0.1897 0.0279
vn 0.9788 -0.1449 -0.1445
vn 0.9888 -0.1073 -0.1033
vn 0.9880 -0.1128 -0.1051
vn 0.9780 -0.1963 -0.0711
vn 0.9877 -0.1546 0.0220
vn 0.9846 -0.1713 0.0354
vn 0.9822 -0.1842 -0.0374
vn 0.9952 -0.0644 -0.0738
vn 0.9861 -0.1614 0.0397
vn 0.9776 -0.2050 -0.0471
vn 0.9795 -0.2012 0.0056
vn 0.9813 -0.1730 -0.0847
vn 0.9683 -0.2397 -0.0698
vn 0.9678 -0.2394 -0.0784
vn 0.9687 -0.2295 -0.0945
vn 0.9888 -0.1421 -0.0467
vn 0.9657 -0.1935 -0.1734
vn 0.9652 -0.1916 -0.1781
vn 0.9891 -0.1417 -0.0409
vn 0.9907 -0.1353 -0.0103
vn 0.9806 -0.1816 -0.0734
vn 0.9793 -0.1454 -0.1406
vn 0.9552 -0.2580 -0.1448
vn 0.9532 -0.2539 -0.1643
vn 0.9763 -0.1860 -0.1108
vn 0.9772 -0.1803 -0.1119
vn 0.9854 -0.1475 -0.0847
vn 0.9710 -0.2290 0.0687
vn 0.9735 -0.2061 0.0986
vn 0.9794 -0.1705 0.1081
vn 0.9720 -0.2156 0.0933
vn 0.9674 -0.2290 0.1085
vn 0.9715 -0.2161 0.0970
vn 0.9877 -0.1129 0.1083
vn 0.9878 -0.0834 0.1316
vn 0.9946 -0.1037 -0.0015
vn 0.9789 -0.1904 0.0735
vn 0.9954 -0.0933 -0.0196
vn 0.9494 -0.2649 -0.1688
vn 0.9491 -0.2379 -0.2062
vn 0.9728 -0.2173 -0.0801
vn 0.9531 -0.2544 -0.1642
vn 0.9967 -0.0678 0.0445
vn 0.9827 -0.1835 -0.0252
vn 0.9858 -0.1479 -0.0797
vn 0.9776 -0.1996 -0.0672
usemtl None
s off
f 1/1/1 2/2/1 3/3/1
f 1/1/2 4/4/2 2/2/2
f 5/5/3 6/6/3 7/7/3
f 6/6/4 5/5/4 8/8/4
f 9/9/5 11/10/5 10/11/5
f 12/12/6 13/13/6 14/14/6
f 15/15/7 16/16/7 17/17/7
f 10/11/8 17/17/8 9/9/8
f 18/18/9 2/2/9 8/8/9
f 19/19/10 2/2/10 4/4/10
f 20/20/11 21/21/11 4/4/11
f 22/22/12 20/20/12 4/4/12
f 22/22/13 4/4/13 1/1/13
f 23/23/14 24/24/14 25/25/14
f 26/26/15 28/27/15 27/28/15
f 29/29/16 30/30/16 6/6/16
f 31/31/17 32/32/17 25/25/17
f 29/29/18 6/6/18 8/8/18
f 33/33/19 8/8/19 2/2/19
f 34/34/20 35/35/20 36/36/20
f 37/37/21 31/31/21 38/38/21
f 34/34/22 39/39/22 35/35/22
f 38/38/23 41/40/23 40/41/23
f 42/42/24 32/32/24 31/31/24
f 43/43/25 19/19/25 21/21/25
f 19/19/26 4/4/26 21/21/26
f 33/33/27 35/35/27 8/8/27
f 33/33/28 36/36/28 35/35/28
f 29/29/29 39/39/29 30/30/29
f 29/29/30 35/35/30 39/39/30
f 29/29/31 8/8/31 35/35/31
f 44/44/32 45/45/32 40/41/32
f 38/38/33 40/41/33 45/45/33
f 37/37/34 38/38/34 45/45/34
f 44/44/35 46/46/35 45/45/35
f 47/47/36 25/25/36 48/48/36
f 49/49/37 1/1/37 3/3/37
f 49/49/38 3/3/38 50/50/38
f 18/18/39 8/8/39 5/5/39
f 51/51/40 18/18/40 5/5/40
f 51/51/41 5/5/41 7/7/41
f 51/51/42 7/7/42 11/10/42
f 33/33/43 52/52/43 36/36/43
f 49/49/44 50/50/44 15/15/44
f 33/33/45 19/19/45 52/52/45
f 33/33/46 2/2/46 19/19/46
f 53/53/47 28/27/47 26/26/47
f 54/54/48 49/49/48 15/15/48
f 28/27/49 53/53/49 55/55/49
f 56/56/50 55/55/50 53/53/50
f 49/49/51 22/22/51 1/1/51
f 57/57/52 58/58/52 32/32/52
f 58/58/53 57/57/53 27/28/53
f 26/26/54 27/28/54 57/57/54
f 59/59/55 24/24/55 23/23/55
f 60/60/56 15/15/56 17/17/56
f 54/54/57 15/15/57 60/60/57
f 54/54/58 60/60/58 59/59/58
f 13/13/59 12/12/59 60/60/59
f 55/55/60 49/49/60 54/54/60
f 55/55/61 54/54/61 59/59/61
f 49/49/62 55/55/62 22/22/62
f 12/12/63 14/14/63 48/48/63
f 24/24/64 59/59/64 48/48/64
f 48/48/65 25/25/65 24/24/65
f 60/60/66 48/48/66 59/59/66
f 12/12/67 48/48/67 60/60/67
f 14/14/68 61/61/68 48/48/68
f 61/61/69 62/62/69 48/48/69
f 56/56/70 20/20/70 22/22/70
f 56/56/71 22/22/71 55/55/71
f 28/27/72 55/55/72 59/59/72
f 57/57/73 32/32/73 42/42/73
f 48/48/74 62/62/74 47/47/74
f 63/63/75 47/47/75 62/62/75
f 23/23/76 32/32/76 58/58/76
f 23/23/77 25/25/77 32/32/77
f 23/23/78 58/58/78 27/28/78
f 18/18/79 51/51/79 2/2/79
f 51/51/80 3/3/80 2/2/80
f 16/16/81 15/15/81 50/50/81
f 16/16/82 50/50/82 3/3/82
f 16/16/83 51/51/83 11/10/83
f 51/51/84 16/16/84 3/3/84
f 9/9/85 16/16/85 11/10/85
f 16/16/86 9/9/86 17/17/86
f 56/56/87 21/21/87 20/20/87
f 19/19/88 43/43/88 52/52/88
f 60/60/89 64/64/89 13/13/89
f 41/40/90 38/38/90 47/47/90
f 31/31/91 25/25/91 47/47/91
f 31/31/92 47/47/92 38/38/92
f 63/63/93 41/40/93 47/47/93
f 60/60/94 17/17/94 64/64/94
f 59/59/95 23/23/95 28/27/95
f 27/28/96 28/27/96 23/23/96
f 37/37/97 42/42/97 31/31/97
