# Blender v2.79 (sub 0) OBJ File: ''
# www.blender.org
mtllib crack_only_15.mtl
o crack_only_15
v 2.856845 1.135642 -3.234316
v 2.847995 1.237653 -3.257360
v 2.867787 1.405203 -2.969913
v 2.885679 1.129684 -2.973111
v 2.867861 1.118050 -3.136422
v 2.893316 1.134662 -2.889977
v 2.830765 1.186512 -3.439836
v 2.887289 1.208844 -2.720545
v 2.895465 1.149019 -2.720972
v 2.892941 1.160791 -2.661722
v 2.880772 1.281947 -2.794974
v 2.812498 1.216977 -3.546570
v 2.827838 1.391225 -3.349995
vt 0.075228 0.351799
vt 0.441234 0.329050
vt 1.000000 0.660468
vt 0.019724 0.647798
vt 0.000000 0.462165
vt 0.026854 0.742147
vt 0.283378 0.120392
vt 0.274497 0.935182
vt 0.096909 1.000000
vt 0.060339 0.933067
vt 0.542556 0.853685
vt 0.407214 0.000000
vt 1.000000 0.229054
vn 0.9925 0.0624 -0.1047
vn 0.9914 0.0657 -0.1129
vn 0.9933 0.0656 -0.0952
vn 0.9931 0.0589 -0.1012
vn 0.9920 0.0610 -0.1108
vn 0.9907 0.1353 0.0153
vn 0.9949 0.0983 -0.0210
vn 0.9898 0.1349 0.0459
vn 0.9958 0.0911 -0.0097
vn 0.9861 0.0784 -0.1464
vn 0.9921 0.0659 -0.1067
vn 0.9918 0.0630 -0.1113
usemtl None
s off
f 1/1/1 2/2/1 3/3/1
f 4/4/2 5/5/2 3/3/2
f 4/4/3 3/3/3 6/6/3
f 1/1/4 3/3/4 5/5/4
f 2/2/5 1/1/5 7/7/5
f 8/8/6 10/9/6 9/10/6
f 11/11/7 9/10/7 6/6/7
f 8/8/8 9/10/8 11/11/8
f 11/11/9 6/6/9 3/3/9
f 7/7/10 12/12/10 13/13/10
f 2/2/11 13/13/11 3/3/11
f 2/2/12 7/7/12 13/13/12
