# Blender v2.79 (sub 0) OBJ File: ''
# www.blender.org
mtllib crack_only_97.mtl
o crack_only_97
v 2.912122 2.568643 -4.644285
v 2.933550 2.560207 -4.422357
v 2.795686 2.133548 -4.642640
v 2.826269 1.408437 -3.305166
v 2.773380 1.237931 -3.602741
v 2.897713 1.984533 -3.666405
v 3.022356 2.496273 -2.489846
v 3.041163 2.750649 -2.052543
v 2.983978 2.404573 -2.246099
v 3.101147 2.889909 -2.516364
v 2.820506 1.682114 -1.943565
v 2.884726 2.006847 -2.204220
v 2.811233 1.949440 -1.559317
v 2.824130 1.357967 -2.204856
v 2.865337 1.758065 -2.442336
v 2.861408 1.540027 -2.933609
v 2.828529 1.168981 -2.659362
v 2.959712 2.507581 -1.680623
v 2.988643 2.687952 -1.258489
v 2.872323 2.303906 -1.373234
v 2.828726 1.159174 -2.780089
v 2.748243 1.459109 -4.014019
v 2.751404 1.765871 -4.342038
v 2.822443 1.129588 -3.123207
v 2.799467 1.618567 -1.824578
v 2.810859 1.153573 -3.260478
v 2.903876 1.827678 -2.690926
v 2.966703 2.826319 -4.641634
v 3.019805 2.594803 -3.831831
v 3.068635 2.893931 -3.907357
v 3.008748 2.698691 -4.142185
v 3.051757 2.947521 -1.253511
v 3.033104 2.868154 -1.445773
v 3.061019 2.719384 -3.387034
v 3.043484 2.607099 -3.252572
v 3.080586 2.783543 -3.113627
v 3.119458 3.005035 -2.948455
v 3.069606 2.700351 -2.902515
v 3.169453 3.328940 -2.636106
v 3.129952 3.194528 -2.163749
v 3.090613 2.905798 -3.352753
v 3.115791 3.224504 -1.244559
v 3.126940 3.308540 -1.599075
v 2.987718 2.901077 -4.574905
v 3.043293 3.044673 -4.278595
v 2.984324 2.952317 -4.680083
v 3.037727 3.160213 -4.423235
v 2.835244 2.370126 -4.780483
v 3.143752 3.213904 -3.171611
v 2.875624 2.574376 -4.892012
v 2.948671 2.780629 -4.767581
v 3.164844 3.684529 -1.285672
v 2.921483 2.755326 -4.983617
v 2.964213 2.891118 -4.932467
v 2.997310 2.957316 -5.064340
v 3.163267 3.505578 -1.761034
v 3.180572 3.894907 -1.665114
v 3.194697 3.857587 -2.016133
v 2.977815 2.175678 -3.053123
v 2.993864 2.358501 -3.518960
v 2.983104 2.281084 -2.821432
v 3.042771 2.899128 -1.649239
v 3.080077 3.365988 -4.290172
v 3.138119 3.531027 -3.851891
v 3.080986 3.144034 -4.069225
v 3.193269 3.829376 -2.387545
v 3.043778 3.284665 -4.499838
v 2.897514 2.241620 -4.173625
v 3.170390 3.506097 -2.001780
v 3.033324 3.089173 -5.062072
v 3.018894 3.151308 -4.868077
v 3.184003 3.621001 -3.408644
v 3.186340 3.741066 -2.725768
v 3.102424 3.022062 -3.630069
v 3.197418 3.909761 -1.300399
v 3.016546 3.215468 -4.694710
vt 0.683637 0.085554
vt 0.664664 0.141444
vt 0.513047 0.062772
vt 0.139566 0.364780
vt 0.095278 0.280484
vt 0.388061 0.303179
vt 0.497020 0.627244
vt 0.559914 0.750495
vt 0.441437 0.683682
vt 0.651655 0.641171
vt 0.136883 0.721932
vt 0.282825 0.673146
vt 0.207007 0.832047
vt 0.035598 0.639952
vt 0.206626 0.600436
vt 0.162449 0.465571
vt 0.000000 0.515924
vt 0.434982 0.831177
vt 0.471891 0.947068
vt 0.329449 0.897444
vt 0.005646 0.484970
vt 0.208484 0.187309
vt 0.349129 0.119785
vt 0.020627 0.396816
vt 0.102558 0.748519
vt 0.039510 0.363200
vt 0.254302 0.541682
vt 0.783502 0.099763
vt 0.637386 0.293396
vt 0.699646 0.220067
vt 0.758489 0.289851
vt 0.572812 0.962076
vt 0.556710 0.909356
vt 0.652360 0.412409
vt 0.656550 0.484867
vt 0.598763 0.440531
vt 0.729330 0.538082
vt 0.608361 0.533870
vt 0.829878 0.633678
vt 0.740556 0.745680
vt 0.721503 0.430719
vt 0.680019 0.978964
vt 0.739598 0.893812
vt 0.807705 0.120605
vt 0.842155 0.203283
vt 0.834844 0.096554
vt 0.896340 0.172433
vt 0.614911 0.040267
vt 0.826437 0.492459
vt 0.702660 0.022811
vt 0.774963 0.065459
vt 0.858872 0.992091
vt 0.780463 0.009303
vt 0.830111 0.029541
vt 0.867165 0.000000
vt 0.828283 0.863214
vt 0.982020 0.816731
vt 0.968078 0.906980
vt 0.417409 0.468556
vt 0.522958 0.360277
vt 0.439422 0.532335
vt 0.584628 0.859674
vt 0.965912 0.216813
vt 0.997609 0.336421
vt 0.865611 0.261577
vt 1.000000 0.721571
vt 0.949335 0.159358
vt 0.523679 0.187916
vt 0.847489 0.802577
vt 0.918694 0.007613
vt 0.926162 0.059458
vt 1.000000 0.453390
vt 0.992523 0.631730
vt 0.787263 0.366660
vt 0.946549 1.000000
vt 0.936725 0.106365
vn 0.9608 -0.2575 -0.1026
vn 0.9824 -0.1702 -0.0771
vn 0.9759 -0.2042 0.0768
vn 0.9791 -0.1913 0.0692
vn 0.9883 -0.1131 0.1026
vn 0.9874 -0.0923 0.1282
vn 0.9955 -0.0930 0.0161
vn 0.9974 -0.0621 0.0355
vn 0.9493 -0.3073 0.0663
vn 0.9966 -0.0822 0.0083
vn 0.9725 -0.1747 -0.1540
vn 0.9959 -0.0897 -0.0105
vn 0.9865 -0.1225 0.1090
vn 0.9883 -0.0823 -0.1285
vn 0.9887 -0.0130 0.1496
vn 0.9878 -0.0907 0.1262
vn 0.9734 -0.2051 -0.1018
vn 0.9782 -0.1840 -0.0965
vn 0.9717 -0.2363 0.0033
vn 0.9823 -0.1855 -0.0268
vn 0.9865 -0.1634 -0.0131
vn 0.9882 -0.1535 0.0010
vn 0.9868 -0.1617 -0.0013
vn 0.9806 -0.1952 0.0157
vn 0.9813 -0.1779 0.0735
vn 0.9880 -0.1503 -0.0354
vn 0.9889 -0.1424 0.0422
vn 0.9764 -0.2151 -0.0203
vn 0.9768 -0.1949 -0.0887
vn 0.9698 -0.1669 -0.1778
vn 0.9767 -0.1951 -0.0891
vn 0.9783 -0.1720 -0.1154
vn 0.9850 -0.1144 -0.1293
vn 0.9526 -0.2555 -0.1652
vn 0.9883 -0.1494 -0.0322
vn 0.9881 -0.1498 -0.0351
vn 0.9567 -0.2603 -0.1302
vn 0.9525 -0.2581 -0.1614
vn 0.9764 -0.2061 -0.0650
vn 0.9944 -0.1055 0.0063
vn 0.9833 -0.1625 -0.0818
vn 0.9544 -0.2857 -0.0866
vn 0.9430 -0.3245 0.0738
vn 0.9592 -0.2682 -0.0893
vn 0.9887 -0.1413 0.0499
vn 0.9974 -0.0557 0.0461
vn 0.9860 -0.1642 -0.0305
vn 0.9842 -0.1763 -0.0188
vn 0.9642 -0.2594 0.0542
vn 0.9743 -0.2252 -0.0016
vn 0.9816 -0.1807 0.0626
vn 0.9790 -0.2032 0.0156
vn 0.9763 -0.2150 0.0249
vn 0.9911 -0.0921 -0.0966
vn 0.9951 -0.0777 0.0611
vn 0.9904 -0.1332 0.0380
vn 0.9848 -0.1234 -0.1226
vn 0.9792 -0.1748 0.1029
vn 0.9862 -0.1581 0.0494
vn 0.9677 -0.2246 -0.1142
vn 0.9726 -0.2172 -0.0834
vn 0.9932 -0.1111 -0.0342
vn 0.9976 -0.0689 0.0014
vn 0.9523 -0.2628 0.1550
vn 0.9811 -0.1921 -0.0229
vn 0.9643 -0.2335 0.1248
vn 0.9798 -0.1962 -0.0391
vn 0.9773 -0.2067 0.0469
vn 0.9907 -0.1350 -0.0185
vn 0.9659 -0.2282 0.1220
vn 0.9861 -0.1627 0.0334
vn 0.9934 -0.1120 -0.0236
vn 0.9785 -0.2054 -0.0183
vn 0.9798 -0.1995 0.0135
vn 0.9818 -0.1883 -0.0231
vn 0.9992 -0.0401 0.0036
vn 0.9917 -0.1031 -0.0771
vn 0.9911 -0.1049 -0.0813
vn 0.9844 -0.1710 -0.0409
vn 0.9849 -0.1681 -0.0415
vn 0.9846 -0.1688 -0.0458
vn 0.9880 -0.1528 -0.0220
vn 0.9877 -0.1557 0.0116
vn 0.9881 -0.1482 -0.0410
vn 0.9726 -0.2171 -0.0835
vn 0.9842 -0.1739 0.0339
vn 0.9815 -0.1872 -0.0397
vn 0.9950 -0.0722 -0.0685
vn 0.9943 -0.0515 -0.0929
vn 0.9743 -0.2126 0.0744
vn 0.9779 -0.2086 0.0147
vn 0.9990 -0.0429 -0.0093
vn 0.9725 -0.1750 -0.1536
vn 0.9874 -0.1565 -0.0235
vn 0.9919 -0.1207 -0.0389
vn 0.9923 -0.0980 -0.0757
vn 0.9812 -0.1368 -0.1365
vn 0.9689 -0.2329 0.0840
vn 0.9672 -0.2379 0.0890
vn 0.9654 -0.2304 0.1218
vn 0.9754 -0.2055 0.0793
vn 0.9892 -0.1434 0.0290
vn 0.9877 -0.1525 0.0361
vn 0.9973 -0.0678 0.0294
vn 0.9889 -0.1398 0.0493
vn 0.9984 -0.0334 -0.0448
vn 0.9674 -0.2278 -0.1107
vn 0.9633 -0.2243 -0.1477
vn 0.9607 -0.2301 -0.1555
vn 0.9913 -0.1182 0.0572
vn 0.9863 -0.1336 -0.0969
vn 0.9890 -0.1093 -0.0994
vn 0.9866 -0.1265 -0.1027
vn 0.9599 -0.2498 -0.1270
vn 0.9586 -0.2403 -0.1527
vn 0.9856 -0.1172 -0.1218
vn 0.9843 -0.1174 -0.1317
vn 0.9838 -0.1416 -0.1099
usemtl None
s off
f 1/1/1 2/2/1 3/3/1
f 4/4/2 5/5/2 6/6/2
f 7/7/3 8/8/3 9/9/3
f 7/7/4 10/10/4 8/8/4
f 11/11/5 12/12/5 13/13/5
f 12/12/6 11/11/6 14/14/6
f 12/12/7 14/14/7 15/15/7
f 16/16/8 14/14/8 17/17/8
f 18/18/9 19/19/9 20/20/9
f 16/16/10 17/17/10 21/21/10
f 22/22/11 23/23/11 6/6/11
f 16/16/12 21/21/12 24/24/12
f 11/11/13 13/13/13 25/25/13
f 4/4/14 26/26/14 5/5/14
f 27/27/15 15/15/15 14/14/15
f 25/25/16 14/14/16 11/11/16
f 2/2/17 1/1/17 28/28/17
f 29/29/18 31/30/18 30/31/18
f 32/32/19 19/19/19 33/33/19
f 34/34/20 36/35/20 35/36/20
f 37/37/21 38/38/21 36/35/21
f 37/37/22 39/39/22 10/10/22
f 38/38/23 37/37/23 10/10/23
f 38/38/24 10/10/24 7/7/24
f 8/8/25 10/10/25 40/40/25
f 41/41/26 36/35/26 34/34/26
f 39/39/27 40/40/27 10/10/27
f 42/42/28 33/33/28 43/43/28
f 44/44/29 45/45/29 2/2/29
f 45/45/30 31/30/30 2/2/30
f 44/44/31 2/2/31 28/28/31
f 46/46/32 44/44/32 28/28/32
f 44/44/33 47/47/33 45/45/33
f 1/1/34 3/3/34 48/48/34
f 49/49/35 37/37/35 36/35/35
f 49/49/36 36/35/36 41/41/36
f 50/50/37 51/51/37 48/48/37
f 1/1/38 48/48/38 51/51/38
f 28/28/39 1/1/39 51/51/39
f 42/42/40 43/43/40 52/52/40
f 28/28/41 51/51/41 46/46/41
f 53/53/42 51/51/42 50/50/42
f 54/54/43 53/53/43 55/55/43
f 53/53/44 54/54/44 51/51/44
f 56/56/45 52/52/45 43/43/45
f 56/56/46 58/57/46 57/58/46
f 35/36/47 59/59/47 60/60/47
f 35/36/48 60/60/48 34/34/48
f 61/61/49 7/7/49 9/9/49
f 42/42/50 32/32/50 33/33/50
f 62/62/51 8/8/51 40/40/51
f 62/62/52 43/43/52 33/33/52
f 18/18/53 33/33/53 19/19/53
f 63/63/54 64/64/54 65/65/54
f 66/66/55 40/40/55 39/39/55
f 35/36/56 61/61/56 59/59/56
f 67/67/57 63/63/57 47/47/57
f 12/12/58 15/15/58 27/27/58
f 59/59/59 61/61/59 27/27/59
f 29/29/60 6/6/60 68/68/60
f 29/29/61 60/60/61 6/6/61
f 66/66/62 69/69/62 40/40/62
f 69/69/63 66/66/63 58/57/63
f 70/70/64 71/71/64 55/55/64
f 46/46/65 51/51/65 71/71/65
f 54/54/66 55/55/66 71/71/66
f 54/54/67 71/71/67 51/51/67
f 62/62/68 40/40/68 43/43/68
f 39/39/69 37/37/69 49/49/69
f 12/12/70 27/27/70 9/9/70
f 61/61/71 9/9/71 27/27/71
f 49/49/72 72/72/72 39/39/72
f 61/61/73 35/36/73 38/38/73
f 38/38/74 7/7/74 61/61/74
f 35/36/75 36/35/75 38/38/75
f 72/72/76 73/73/76 39/39/76
f 64/64/77 74/74/77 65/65/77
f 74/74/78 64/64/78 72/72/78
f 30/31/79 74/74/79 29/29/79
f 74/74/80 34/34/80 60/60/80
f 60/60/81 29/29/81 74/74/81
f 74/74/82 41/41/82 34/34/82
f 16/16/83 27/27/83 14/14/83
f 4/4/84 6/6/84 16/16/84
f 16/16/85 6/6/85 60/60/85
f 59/59/86 27/27/86 16/16/86
f 59/59/87 16/16/87 60/60/87
f 26/26/88 4/4/88 16/16/88
f 16/16/89 24/24/89 26/26/89
f 62/62/90 18/18/90 8/8/90
f 18/18/91 62/62/91 33/33/91
f 73/73/92 66/66/92 39/39/92
f 5/5/93 22/22/93 6/6/93
f 49/49/94 41/41/94 74/74/94
f 49/49/95 74/74/95 72/72/95
f 30/31/96 65/65/96 74/74/96
f 65/65/97 30/31/97 31/30/97
f 18/18/98 12/12/98 9/9/98
f 12/12/99 18/18/99 13/13/99
f 18/18/100 20/20/100 13/13/100
f 18/18/101 9/9/101 8/8/101
f 40/40/102 69/69/102 56/56/102
f 56/56/103 43/43/103 40/40/103
f 69/69/104 58/57/104 56/56/104
f 75/75/105 52/52/105 56/56/105
f 57/58/106 75/75/106 56/56/106
f 68/68/107 31/30/107 29/29/107
f 68/68/108 2/2/108 31/30/108
f 68/68/109 3/3/109 2/2/109
f 76/76/110 46/46/110 71/71/110
f 46/46/111 47/47/111 44/44/111
f 76/76/112 67/67/112 47/47/112
f 76/76/113 47/47/113 46/46/113
f 68/68/114 6/6/114 23/23/114
f 68/68/115 23/23/115 3/3/115
f 45/45/116 63/63/116 65/65/116
f 47/47/117 63/63/117 45/45/117
f 45/45/118 65/65/118 31/30/118
