# Blender v2.79 (sub 0) OBJ File: ''
# www.blender.org
mtllib crack_only_137.mtl
o crack_only_137
v 2.805449 1.399034 -3.314256
v 2.763042 1.249663 -3.615710
v 2.875739 1.992586 -3.669626
v 2.941322 2.387055 -2.162980
v 3.053299 2.908680 -2.511241
v 3.006274 2.755194 -2.019738
v 3.219673 4.539015 -1.344651
v 3.223892 4.600930 -1.714907
v 3.150548 5.021155 -1.398240
v 3.197657 4.152518 -1.682784
v 3.180152 4.981884 -1.911234
v 3.222720 4.586262 -2.229175
v 3.203108 4.265925 -2.305865
v 3.198042 4.195668 -2.028033
v 3.172253 3.799344 -2.025898
v 2.828078 1.390354 -2.871443
v 2.807264 1.173919 -2.655687
v 2.807494 1.359718 -2.204520
v 2.871760 2.075288 -1.920847
v 3.082944 3.265789 -1.536103
v 3.067250 3.221915 -1.257639
v 2.980369 2.689045 -1.260268
v 2.961643 2.600369 -1.533275
v 2.874825 2.302839 -1.372702
v 2.869241 1.749025 -2.829906
v 2.806296 1.162959 -2.793811
v 2.971711 2.934829 -4.671972
v 2.877313 2.537300 -4.883267
v 3.032981 3.161743 -5.067033
v 3.037681 3.335142 -4.690639
v 3.064661 3.566811 -4.758895
v 3.062904 3.699258 -5.009768
v 2.748680 1.459046 -4.014325
v 2.757551 1.765291 -4.345917
v 2.798927 1.135585 -3.115135
v 2.820541 1.682095 -1.943539
v 2.804342 1.617753 -1.824280
v 2.819741 1.945744 -1.560578
v 3.076537 3.201539 -1.745927
v 2.956158 2.567703 -3.789456
v 2.906241 2.479265 -4.230723
v 2.789232 1.162167 -3.273729
v 3.141900 4.530898 -4.379385
v 3.203871 4.785056 -4.605858
v 3.128897 4.415779 -4.766894
v 3.117150 4.244035 -4.599547
v 3.118951 4.072119 -4.406378
v 3.202018 4.348277 -2.570367
v 3.195116 3.944204 -2.693542
v 3.208702 4.555576 -2.526594
v 3.202506 4.381772 -2.822564
v 3.203213 4.524852 -2.751892
v 3.198161 4.461215 -3.020046
v 3.198973 4.755490 -2.742035
v 3.188468 4.962647 -2.819756
v 3.193417 4.965189 -3.148142
v 3.173484 3.820343 -2.301172
v 3.110299 3.386530 -1.815778
v 3.098854 3.255274 -2.110709
v 3.191916 4.101946 -1.318737
v 3.177691 5.036951 -4.248517
v 3.202874 5.072843 -4.486130
v 3.118503 3.786412 -4.198810
v 3.102713 3.917440 -4.498904
v 3.082155 3.820340 -4.712434
v 3.076659 3.315963 -3.895269
v 3.017907 2.797612 -3.229321
v 3.123773 3.491207 -3.130169
v 3.119400 3.385129 -2.597583
v 3.128103 3.541147 -3.413470
v 3.171145 3.953093 -3.465686
v 3.155308 4.197303 -3.962094
v 2.797647 2.131976 -4.642860
v 2.880795 2.023994 -2.329577
v 3.083440 4.051504 -4.884548
v 3.073929 3.908109 -4.934943
v 3.128920 3.651964 -1.291875
v 3.143485 3.793076 -3.630893
v 2.980847 2.965234 -4.536523
v 3.133329 5.275023 -1.919456
v 3.189358 4.303966 -3.233488
v 3.160440 5.024139 -3.781319
v 3.151136 4.647794 -3.986486
v 3.177166 5.066079 -2.531633
v 3.099319 5.321747 -1.398016
vt 0.578865 0.068503
vt 0.660637 0.036692
vt 0.659456 0.222290
vt 0.258409 0.291765
vt 0.338384 0.428704
vt 0.213458 0.380702
vt 0.001060 0.809781
vt 0.096374 0.832091
vt 0.005787 0.927455
vt 0.097007 0.720995
vt 0.140219 0.928236
vt 0.230790 0.838250
vt 0.257231 0.760761
vt 0.186190 0.738146
vt 0.193609 0.640397
vt 0.463450 0.058452
vt 0.290220 0.037806
vt 0.411568 0.000841
vt 0.201758 0.209215
vt 0.076856 0.498340
vt 0.005174 0.481946
vt 0.016820 0.349476
vt 0.089862 0.332521
vt 0.054278 0.254631
vt 0.445319 0.146479
vt 0.447812 0.000761
vt 0.901746 0.474412
vt 0.965161 0.378918
vt 1.000000 0.538891
vt 0.898378 0.574337
vt 0.911463 0.633011
vt 0.974271 0.670207
vt 0.760507 0.095278
vt 0.840872 0.176841
vt 0.532188 0.000000
vt 0.215705 0.112146
vt 0.110606 0.169467
vt 0.185952 0.093751
vt 0.132880 0.486442
vt 0.678939 0.367302
vt 0.796000 0.352919
vt 0.573066 0.009318
vt 0.793021 0.863796
vt 0.896424 0.842663
vt 0.846764 0.931761
vt 0.856239 0.797127
vt 0.809262 0.751355
vt 0.324585 0.785952
vt 0.364752 0.689102
vt 0.309028 0.836077
vt 0.389690 0.798969
vt 0.368419 0.832710
vt 0.439637 0.822101
vt 0.361294 0.888960
vt 0.463072 0.947959
vt 0.377503 0.940982
vt 0.264977 0.650806
vt 0.147276 0.533855
vt 0.226848 0.507041
vt 0.003094 0.701550
vt 0.809837 1.000000
vt 0.748694 0.986130
vt 0.760796 0.677369
vt 0.836533 0.714845
vt 0.894239 0.694654
vt 0.691152 0.555367
vt 0.528020 0.414359
vt 0.487928 0.584806
vt 0.351155 0.548580
vt 0.560803 0.602529
vt 0.566057 0.705439
vt 0.690747 0.774388
vt 0.910861 0.273247
vt 0.309330 0.204614
vt 0.934537 0.754615
vt 0.950566 0.720217
vt 0.005296 0.589360
vt 0.612440 0.668751
vt 0.865777 0.479489
vt 0.136763 0.999213
vt 0.498460 0.787424
vt 0.688195 0.885178
vt 0.627183 0.973725
vt 0.300361 0.960606
vt 0.000000 1.000000
vn 0.9861 -0.1541 -0.0624
vn 0.9817 -0.1870 0.0355
vn 0.9887 0.1457 0.0356
vn 0.9983 -0.0583 0.0016
vn 0.9894 0.1376 0.0466
vn 0.9938 0.1113 -0.0054
vn 0.9981 -0.0617 0.0026
vn 0.9980 -0.0633 -0.0005
vn 0.9979 -0.0650 -0.0070
vn 0.9973 -0.0684 0.0276
vn 0.9813 -0.1884 0.0393
vn 0.9865 -0.1610 0.0302
vn 0.9628 -0.2694 0.0215
vn 0.9901 -0.1363 -0.0319
vn 0.9955 -0.0952 0.0006
vn 0.9712 -0.2380 0.0139
vn 0.9938 -0.1051 0.0360
vn 0.9853 -0.1595 0.0612
vn 0.9981 -0.0519 -0.0344
vn 0.9805 -0.1568 -0.1186
vn 0.9949 -0.1002 -0.0143
vn 0.9912 -0.1080 0.0764
vn 0.9835 -0.1792 0.0248
vn 0.9837 -0.1794 -0.0092
vn 0.9847 -0.1545 -0.0804
vn 0.9916 -0.0846 -0.0976
vn 0.9915 -0.1038 0.0787
vn 0.9769 -0.2114 0.0300
vn 0.9969 -0.0782 -0.0102
vn 0.9976 -0.0469 -0.0510
vn 0.9999 -0.0145 -0.0086
vn 0.9995 -0.0294 -0.0133
vn 0.9978 -0.0511 -0.0418
vn 0.9999 -0.0170 -0.0003
vn 0.9996 0.0076 -0.0254
vn 0.9995 -0.0317 -0.0023
vn 0.9998 0.0049 -0.0200
vn 0.9995 0.0194 -0.0234
vn 0.9983 0.0564 0.0155
vn 0.9999 0.0068 -0.0102
vn 0.9979 -0.0649 0.0018
vn 0.9982 -0.0589 -0.0062
vn 0.9978 -0.0663 -0.0006
vn 0.9972 -0.0659 0.0342
vn 0.9884 -0.1520 -0.0072
vn 0.9920 -0.1252 0.0172
vn 0.9919 -0.1260 0.0149
vn 0.9980 -0.0630 0.0070
vn 0.9943 -0.0380 0.0996
vn 0.9831 -0.1078 0.1480
vn 0.9953 -0.0580 -0.0777
vn 0.9961 -0.0488 -0.0737
vn 0.9855 -0.1645 -0.0411
vn 0.9878 -0.1481 -0.0481
vn 0.9907 -0.1286 -0.0448
vn 0.9957 -0.0551 -0.0741
vn 0.9903 -0.1374 -0.0192
vn 0.9945 -0.1043 -0.0032
vn 0.9965 -0.0505 -0.0673
vn 0.9854 -0.1663 0.0358
vn 0.9838 -0.1759 0.0343
vn 0.9911 -0.1331 0.0063
vn 0.9970 -0.0767 0.0051
vn 0.9766 -0.1859 -0.1082
vn 0.9772 -0.1875 -0.0995
vn 0.9928 -0.1169 0.0253
vn 0.9941 -0.1033 0.0338
vn 0.9968 -0.0793 -0.0114
vn 0.9957 -0.0645 -0.0667
vn 0.9900 -0.0878 -0.1106
vn 0.9957 -0.0648 -0.0664
vn 0.9974 -0.0467 -0.0553
vn 0.9981 -0.0346 -0.0505
vn 0.9973 -0.0616 -0.0395
vn 0.9850 -0.1713 0.0224
vn 0.9901 -0.1368 0.0300
vn 0.9901 -0.1371 0.0311
vn 0.9910 -0.1274 0.0419
vn 0.9897 -0.1392 0.0338
vn 0.9926 -0.1084 -0.0553
vn 0.9921 -0.1111 -0.0585
vn 0.9823 -0.1809 -0.0478
vn 0.9826 -0.1692 -0.0772
vn 0.9863 0.1588 0.0448
vn 0.9988 0.0024 -0.0496
vn 0.9986 0.0006 -0.0520
vn 0.9988 0.0067 -0.0477
vn 0.9992 -0.0009 -0.0405
vn 0.9753 -0.2035 -0.0855
vn 0.9747 -0.2231 -0.0157
vn 0.9770 -0.2108 -0.0316
vn 0.9928 -0.0921 -0.0770
vn 0.9923 -0.0946 -0.0801
vn 0.9960 -0.0889 -0.0005
vn 0.9949 0.1000 0.0088
vn 0.9967 0.0610 -0.0533
vn 0.9887 -0.1493 -0.0112
vn 0.9874 -0.1546 -0.0332
vn 0.9976 -0.0699 -0.0027
vn 0.9984 -0.0441 0.0357
vn 0.9888 -0.1479 -0.0213
vn 0.9874 -0.1541 -0.0371
vn 0.9965 -0.0758 0.0364
vn 0.9936 -0.0891 -0.0699
vn 0.9988 -0.0232 -0.0433
vn 0.9994 -0.0169 -0.0288
vn 0.9993 -0.0249 -0.0273
vn 0.9996 0.0079 -0.0258
vn 0.9966 -0.0458 -0.0686
vn 0.9873 0.1582 0.0167
vn 0.9846 0.1678 0.0492
vn 0.9872 -0.1586 -0.0167
vn 0.9881 -0.1354 -0.0736
vn 0.9860 -0.1639 -0.0297
vn 0.9805 -0.1573 -0.1180
vn 0.9838 -0.1749 0.0395
vn 0.9906 -0.1365 0.0054
vn 0.9895 -0.1421 -0.0268
vn 0.9928 -0.1078 -0.0528
vn 0.9956 -0.0771 -0.0524
vn 0.9965 -0.0480 -0.0690
vn 0.9982 0.0576 0.0185
vn 0.9980 0.0618 0.0123
vn 0.9994 0.0195 -0.0270
vn 0.9819 -0.1843 0.0448
vn 0.9806 -0.1949 -0.0182
vn 0.9913 -0.1234 0.0449
vn 0.9822 -0.1829 0.0418
vn 0.9929 -0.0971 0.0689
vn 0.9929 -0.0965 0.0695
vn 0.9683 -0.2441 0.0520
vn 0.9598 -0.2808 -0.0013
vn 0.9791 -0.1896 0.0732
vn 0.9804 -0.1837 0.0708
usemtl None
s off
f 1/1/1 2/2/1 3/3/1
f 4/4/2 5/5/2 6/6/2
f 7/7/3 8/8/3 9/9/3
f 8/8/4 7/7/4 10/10/4
f 8/8/5 11/11/5 9/9/5
f 12/12/6 11/11/6 8/8/6
f 13/13/7 12/12/7 14/14/7
f 12/12/8 8/8/8 14/14/8
f 14/14/9 10/10/9 15/15/9
f 16/16/10 18/17/10 17/18/10
f 19/19/11 4/4/11 6/6/11
f 20/20/12 21/21/12 22/22/12
f 23/23/13 22/22/13 24/24/13
f 1/1/14 3/3/14 25/25/14
f 16/16/15 17/18/15 26/26/15
f 27/27/16 28/28/16 29/29/16
f 30/30/17 29/29/17 31/31/17
f 30/30/18 27/27/18 29/29/18
f 32/32/19 31/31/19 29/29/19
f 33/33/20 34/34/20 3/3/20
f 16/16/21 26/26/21 35/35/21
f 36/36/22 38/37/22 37/38/22
f 20/20/23 23/23/23 39/39/23
f 20/20/24 22/22/24 23/23/24
f 40/40/25 3/3/25 41/41/25
f 1/1/26 42/42/26 2/2/26
f 37/38/27 18/17/27 36/36/27
f 43/43/28 45/44/28 44/45/28
f 46/46/29 45/44/29 43/43/29
f 46/46/30 43/43/30 47/47/30
f 48/48/31 13/13/31 49/49/31
f 50/50/32 13/13/32 48/48/32
f 50/50/33 12/12/33 13/13/33
f 51/51/34 48/48/34 49/49/34
f 51/51/35 52/52/35 50/50/35
f 48/48/36 51/51/36 50/50/36
f 53/53/37 52/52/37 51/51/37
f 52/52/38 53/53/38 54/54/38
f 54/54/39 56/55/39 55/56/39
f 54/54/40 53/53/40 56/55/40
f 14/14/41 15/15/41 13/13/41
f 8/8/42 10/10/42 14/14/42
f 57/57/43 13/13/43 15/15/43
f 57/57/44 49/49/44 13/13/44
f 58/58/45 57/57/45 15/15/45
f 59/59/46 57/57/46 58/58/46
f 59/59/47 49/49/47 57/57/47
f 60/60/48 10/10/48 7/7/48
f 44/45/49 62/61/49 61/62/49
f 61/62/50 43/43/50 44/45/50
f 63/63/51 64/64/51 47/47/51
f 64/64/52 63/63/52 65/65/52
f 40/40/53 66/66/53 67/67/53
f 40/40/54 67/67/54 3/3/54
f 63/63/55 30/30/55 31/31/55
f 63/63/56 31/31/56 65/65/56
f 68/68/57 49/49/57 69/69/57
f 68/68/58 70/70/58 71/71/58
f 72/72/59 63/63/59 47/47/59
f 59/59/60 58/58/60 39/39/60
f 59/59/61 23/23/61 6/6/61
f 59/59/61 39/39/61 23/23/61
f 59/59/62 69/69/62 49/49/62
f 60/60/63 15/15/63 10/10/63
f 41/41/64 3/3/64 34/34/64
f 41/41/65 34/34/65 73/73/65
f 16/16/66 25/25/66 18/17/66
f 25/25/67 74/74/67 18/17/67
f 46/46/68 65/65/68 45/44/68
f 65/65/69 46/46/69 47/47/69
f 65/65/70 75/75/70 45/44/70
f 64/64/71 65/65/71 47/47/71
f 76/76/72 75/75/72 65/65/72
f 76/76/73 65/65/73 32/32/73
f 65/65/74 31/31/74 32/32/74
f 39/39/75 58/58/75 20/20/75
f 20/20/76 60/60/76 77/77/76
f 60/60/77 20/20/77 15/15/77
f 58/58/78 15/15/78 20/20/78
f 20/20/79 77/77/79 21/21/79
f 66/66/80 78/78/80 70/70/80
f 70/70/81 78/78/81 71/71/81
f 41/41/82 79/79/82 66/66/82
f 40/40/83 41/41/83 66/66/83
f 80/80/84 9/9/84 11/11/84
f 81/81/85 83/82/85 82/83/85
f 82/83/86 56/55/86 81/81/86
f 81/81/87 72/72/87 83/82/87
f 53/53/88 81/81/88 56/55/88
f 41/41/89 73/73/89 79/79/89
f 79/79/90 28/28/90 27/27/90
f 79/79/91 73/73/91 28/28/91
f 72/72/92 71/71/92 78/78/92
f 66/66/93 72/72/93 78/78/93
f 63/63/94 72/72/94 66/66/94
f 84/84/95 11/11/95 12/12/95
f 50/50/96 84/84/96 12/12/96
f 67/67/97 70/70/97 68/68/97
f 66/66/98 70/70/98 67/67/98
f 61/62/99 83/82/99 43/43/99
f 83/82/100 61/62/100 82/83/100
f 69/69/101 67/67/101 68/68/101
f 25/25/102 3/3/102 67/67/102
f 68/68/103 71/71/103 81/81/103
f 68/68/104 81/81/104 49/49/104
f 72/72/105 81/81/105 71/71/105
f 51/51/106 81/81/106 53/53/106
f 51/51/107 49/49/107 81/81/107
f 72/72/108 43/43/108 83/82/108
f 72/72/109 47/47/109 43/43/109
f 80/80/110 11/11/110 84/84/110
f 80/80/111 85/85/111 9/9/111
f 79/79/112 30/30/112 63/63/112
f 79/79/113 63/63/113 66/66/113
f 79/79/114 27/27/114 30/30/114
f 2/2/115 33/33/115 3/3/115
f 5/5/116 59/59/116 6/6/116
f 69/69/117 59/59/117 5/5/117
f 69/69/118 5/5/118 67/67/118
f 1/1/119 25/25/119 16/16/119
f 42/42/120 1/1/120 16/16/120
f 16/16/121 35/35/121 42/42/121
f 55/56/122 84/84/122 54/54/122
f 54/54/123 84/84/123 50/50/123
f 54/54/124 50/50/124 52/52/124
f 19/19/125 74/74/125 4/4/125
f 67/67/126 5/5/126 74/74/126
f 74/74/127 25/25/127 67/67/127
f 4/4/128 74/74/128 5/5/128
f 36/36/129 74/74/129 38/37/129
f 74/74/130 36/36/130 18/17/130
f 19/19/131 38/37/131 74/74/131
f 24/24/132 6/6/132 23/23/132
f 19/19/133 24/24/133 38/37/133
f 19/19/134 6/6/134 24/24/134
