# Blender v2.79 (sub 0) OBJ File: ''
# www.blender.org
mtllib crack_only_85.mtl
o crack_only_85
v 3.025938 2.497383 -2.487728
v 3.041058 2.756022 -2.053574
v 2.986085 2.436321 -2.180675
v 3.110076 2.899473 -2.507345
v 2.923051 2.454945 -1.481964
v 2.923964 2.509603 -1.317164
v 2.871496 2.304259 -1.373410
v 2.971582 2.619243 -1.482132
v 2.819216 1.682825 -1.944534
v 2.797887 1.618830 -1.824674
v 2.807583 1.951026 -1.558776
v 2.835128 1.412438 -3.301298
v 2.828503 1.131004 -3.145171
v 2.777975 1.235920 -3.602989
v 2.892883 1.710253 -2.708490
v 2.883384 1.936536 -2.265387
v 2.826475 1.357721 -2.204903
v 2.955923 2.507610 -1.681189
v 3.137322 3.211406 -2.167557
v 3.139831 3.042845 -2.956597
v 3.178847 3.380625 -2.604206
v 3.096123 2.772758 -3.082420
v 3.073100 2.778313 -3.752366
v 2.993922 2.398586 -3.793357
v 2.958510 2.338722 -4.047173
v 3.136554 3.199019 -3.667852
v 3.104307 2.967837 -3.739717
v 3.113358 2.973461 -3.620304
v 2.979317 2.656992 -1.374660
v 2.992710 2.691149 -1.257163
v 2.934809 2.566862 -4.420207
v 3.014691 2.704622 -4.150878
v 3.081363 3.056152 -1.701898
v 3.131143 3.335921 -1.249719
v 3.042948 2.899305 -1.445554
v 3.124044 3.354857 -1.586148
v 2.990785 2.889882 -4.567812
v 2.918340 2.577974 -4.650023
v 3.056319 2.968852 -1.253214
v 2.842680 2.423048 -4.808499
v 2.796461 2.139153 -4.645832
v 3.020406 2.969817 -4.378247
v 3.175354 3.419885 -2.146865
v 2.874132 2.596205 -4.909807
v 2.955713 2.808100 -4.771743
v 2.905144 2.743969 -4.977540
v 2.814312 1.983689 -4.301155
v 2.897762 2.013336 -3.803504
v 2.992641 2.277314 -2.810107
v 2.945897 2.051891 -2.650037
v 2.930321 2.377357 -1.753432
v 3.147169 3.386839 -1.802070
v 3.153542 3.244800 -3.427365
v 2.976103 2.121151 -3.032929
v 3.084858 2.711056 -3.348470
v 3.165568 3.276083 -3.190202
v 3.077130 3.083905 -4.101437
v 3.076442 2.890889 -3.919933
v 3.004693 2.398168 -3.642282
v 2.871154 1.540208 -2.927176
v 2.748808 1.459028 -4.014415
v 2.749537 1.766048 -4.340860
v 2.771781 1.944171 -4.487043
v 2.838305 1.157558 -2.774229
vt 0.587274 0.640533
vt 0.670189 0.764814
vt 0.533633 0.717507
vt 0.773873 0.653430
vt 0.483661 0.899654
vt 0.495464 0.944937
vt 0.404374 0.920944
vt 0.560518 0.907159
vt 0.168092 0.745209
vt 0.256624 0.856915
vt 0.128888 0.773492
vt 0.152406 0.380255
vt 0.015473 0.409059
vt 0.092241 0.293404
vt 0.244284 0.548125
vt 0.310108 0.673052
vt 0.044517 0.663752
vt 0.524836 0.850352
vt 0.888545 0.755504
vt 0.873841 0.542696
vt 1.000000 0.649300
vt 0.760105 0.497956
vt 0.811282 0.323178
vt 0.639588 0.295481
vt 0.629280 0.226306
vt 0.996485 0.363736
vt 0.891086 0.366351
vt 0.896861 0.334854
vt 0.569753 0.936874
vt 0.577121 0.969128
vt 0.756454 0.138295
vt 0.803845 0.215381
vt 0.779848 0.869667
vt 0.873699 1.000000
vt 0.687772 0.929414
vt 0.906925 0.912969
vt 0.915344 0.114118
vt 0.777356 0.078611
vt 0.705140 0.982671
vt 0.572457 0.059645
vt 0.714341 0.029767
vt 0.938902 0.167305
vt 0.982484 0.770165
vt 0.801315 0.011042
vt 0.891592 0.057035
vt 0.874475 0.000000
vt 0.479096 0.143236
vt 0.461670 0.275369
vt 0.511428 0.546776
vt 0.395576 0.578426
vt 0.470475 0.825700
vt 0.939380 0.858314
vt 1.000000 0.428598
vt 0.457762 0.481890
vt 0.751964 0.425835
vt 0.996929 0.491919
vt 0.973281 0.245039
vt 0.874066 0.284254
vt 0.628891 0.335004
vt 0.183719 0.483664
vt 0.219627 0.195097
vt 0.380266 0.122875
vt 0.472050 0.092533
vt 0.000000 0.507037
vn 0.9755 -0.2021 0.0864
vn 0.9761 -0.2001 0.0852
vn 0.9597 -0.2681 0.0836
vn 0.9553 -0.2821 0.0883
vn 0.9866 -0.1186 0.1122
vn 0.9868 -0.0958 -0.1309
vn 0.9936 -0.0906 0.0676
vn 0.9878 -0.0832 0.1314
vn 0.9684 -0.2423 0.0597
vn 0.9787 -0.1842 0.0906
vn 0.9903 -0.1372 0.0218
vn 0.9861 -0.1654 0.0125
vn 0.9788 -0.2038 0.0212
vn 0.9768 -0.1939 -0.0905
vn 0.9907 -0.1166 -0.0696
vn 0.9356 -0.3530 -0.0040
vn 0.9625 -0.1997 -0.1833
vn 0.9412 -0.3341 0.0496
vn 0.9752 -0.2108 0.0681
vn 0.9823 -0.1845 -0.0311
vn 0.9754 -0.2055 -0.0798
vn 0.9798 -0.1998 0.0041
vn 0.9450 -0.2643 -0.1928
vn 0.9640 -0.1848 -0.1914
vn 0.9831 -0.1816 0.0231
vn 0.9902 -0.1329 0.0426
vn 0.9692 -0.2463 -0.0054
vn 0.9858 -0.1601 0.0497
vn 0.9739 -0.2224 -0.0463
vn 0.9685 -0.2478 0.0223
vn 0.9683 -0.2491 0.0178
vn 0.9516 -0.2644 -0.1565
vn 0.9454 -0.2586 -0.1986
vn 0.9752 -0.2038 -0.0860
vn 0.9515 -0.2685 -0.1501
vn 0.9484 -0.2835 -0.1421
vn 0.9641 -0.2549 0.0744
vn 0.9846 -0.1669 0.0524
vn 0.9557 -0.2822 0.0831
vn 0.9655 -0.2426 0.0952
vn 0.9612 -0.2573 0.0993
vn 0.9674 -0.2304 0.1054
vn 0.9820 -0.1712 0.0798
vn 0.9849 -0.1628 0.0583
vn 0.9823 -0.1777 0.0588
vn 0.9796 -0.1938 0.0531
vn 0.9925 -0.1123 -0.0487
vn 0.9853 -0.1656 0.0430
vn 0.9911 -0.1309 -0.0224
vn 0.9907 -0.1323 -0.0328
vn 0.9815 -0.1896 0.0280
vn 0.9789 -0.1419 -0.1472
vn 0.9886 -0.1051 -0.1080
vn 0.9887 -0.1044 -0.1078
vn 0.9780 -0.1963 -0.0703
vn 0.9877 -0.1546 0.0220
vn 0.9846 -0.1714 0.0355
vn 0.9821 -0.1843 -0.0377
vn 0.9952 -0.0644 -0.0738
vn 0.9862 -0.1607 0.0394
vn 0.9775 -0.2057 -0.0476
vn 0.9794 -0.2017 0.0053
vn 0.9813 -0.1730 -0.0847
vn 0.9683 -0.2399 -0.0697
vn 0.9677 -0.2395 -0.0785
vn 0.9687 -0.2296 -0.0945
vn 0.9888 -0.1421 -0.0467
vn 0.9657 -0.1935 -0.1734
vn 0.9652 -0.1916 -0.1781
vn 0.9890 -0.1439 -0.0347
vn 0.9903 -0.1387 -0.0098
vn 0.9805 -0.1824 -0.0733
vn 0.9795 -0.1428 -0.1419
vn 0.9553 -0.2579 -0.1448
vn 0.9532 -0.2538 -0.1641
vn 0.9759 -0.1897 -0.1080
vn 0.9773 -0.1812 -0.1097
vn 0.9840 -0.1563 -0.0854
vn 0.9709 -0.2292 0.0691
vn 0.9735 -0.2066 0.0985
vn 0.9794 -0.1705 0.1081
vn 0.9720 -0.2156 0.0933
vn 0.9674 -0.2290 0.1085
vn 0.9715 -0.2161 0.0970
vn 0.9877 -0.1129 0.1083
vn 0.9878 -0.0834 0.1316
vn 0.9937 -0.1122 -0.0025
vn 0.9807 -0.1851 0.0624
vn 0.9954 -0.0933 -0.0196
vn 0.9493 -0.2653 -0.1688
vn 0.9491 -0.2382 -0.2060
vn 0.9728 -0.2174 -0.0802
vn 0.9531 -0.2542 -0.1640
vn 0.9967 -0.0678 0.0445
vn 0.9825 -0.1846 -0.0268
vn 0.9852 -0.1577 -0.0672
vn 0.9773 -0.2005 -0.0682
usemtl None
s off
f 1/1/1 2/2/1 3/3/1
f 1/1/2 4/4/2 2/2/2
f 5/5/3 6/6/3 7/7/3
f 6/6/4 5/5/4 8/8/4
f 9/9/5 11/10/5 10/11/5
f 12/12/6 13/13/6 14/14/6
f 15/15/7 16/16/7 17/17/7
f 10/11/8 17/17/8 9/9/8
f 18/18/9 2/2/9 8/8/9
f 19/19/10 2/2/10 4/4/10
f 20/20/11 21/21/11 4/4/11
f 22/22/12 20/20/12 4/4/12
f 22/22/13 4/4/13 1/1/13
f 23/23/14 24/24/14 25/25/14
f 26/26/15 28/27/15 27/28/15
f 29/29/16 30/30/16 6/6/16
f 31/31/17 32/32/17 25/25/17
f 29/29/18 6/6/18 8/8/18
f 33/33/19 8/8/19 2/2/19
f 34/34/20 35/35/20 36/36/20
f 37/37/21 31/31/21 38/38/21
f 34/34/22 39/39/22 35/35/22
f 38/38/23 41/40/23 40/41/23
f 42/42/24 32/32/24 31/31/24
f 43/43/25 19/19/25 21/21/25
f 19/19/26 4/4/26 21/21/26
f 33/33/27 35/35/27 8/8/27
f 33/33/28 36/36/28 35/35/28
f 29/29/29 39/39/29 30/30/29
f 29/29/30 35/35/30 39/39/30
f 29/29/31 8/8/31 35/35/31
f 44/44/32 45/45/32 40/41/32
f 38/38/33 40/41/33 45/45/33
f 37/37/34 38/38/34 45/45/34
f 44/44/35 46/46/35 45/45/35
f 47/47/36 25/25/36 48/48/36
f 49/49/37 1/1/37 3/3/37
f 49/49/38 3/3/38 50/50/38
f 18/18/39 8/8/39 5/5/39
f 51/51/40 18/18/40 5/5/40
f 51/51/41 5/5/41 7/7/41
f 51/51/42 7/7/42 11/10/42
f 33/33/43 52/52/43 36/36/43
f 49/49/44 50/50/44 15/15/44
f 33/33/45 19/19/45 52/52/45
f 33/33/46 2/2/46 19/19/46
f 53/53/47 28/27/47 26/26/47
f 54/54/48 49/49/48 15/15/48
f 28/27/49 53/53/49 55/55/49
f 56/56/50 55/55/50 53/53/50
f 49/49/51 22/22/51 1/1/51
f 57/57/52 58/58/52 32/32/52
f 58/58/53 57/57/53 27/28/53
f 26/26/54 27/28/54 57/57/54
f 59/59/55 24/24/55 23/23/55
f 60/60/56 15/15/56 17/17/56
f 54/54/57 15/15/57 60/60/57
f 54/54/58 60/60/58 59/59/58
f 13/13/59 12/12/59 60/60/59
f 55/55/60 49/49/60 54/54/60
f 55/55/61 54/54/61 59/59/61
f 49/49/62 55/55/62 22/22/62
f 12/12/63 14/14/63 48/48/63
f 24/24/64 59/59/64 48/48/64
f 48/48/65 25/25/65 24/24/65
f 60/60/66 48/48/66 59/59/66
f 12/12/67 48/48/67 60/60/67
f 14/14/68 61/61/68 48/48/68
f 61/61/69 62/62/69 48/48/69
f 56/56/70 20/20/70 22/22/70
f 56/56/71 22/22/71 55/55/71
f 28/27/72 55/55/72 59/59/72
f 57/57/73 32/32/73 42/42/73
f 48/48/74 62/62/74 47/47/74
f 63/63/75 47/47/75 62/62/75
f 23/23/76 32/32/76 58/58/76
f 23/23/77 25/25/77 32/32/77
f 23/23/78 58/58/78 27/28/78
f 18/18/79 51/51/79 2/2/79
f 51/51/80 3/3/80 2/2/80
f 16/16/81 15/15/81 50/50/81
f 16/16/82 50/50/82 3/3/82
f 16/16/83 51/51/83 11/10/83
f 51/51/84 16/16/84 3/3/84
f 9/9/85 16/16/85 11/10/85
f 16/16/86 9/9/86 17/17/86
f 56/56/87 21/21/87 20/20/87
f 19/19/88 43/43/88 52/52/88
f 60/60/89 64/64/89 13/13/89
f 41/40/90 38/38/90 47/47/90
f 31/31/91 25/25/91 47/47/91
f 31/31/92 47/47/92 38/38/92
f 63/63/93 41/40/93 47/47/93
f 60/60/94 17/17/94 64/64/94
f 59/59/95 23/23/95 28/27/95
f 27/28/96 28/27/96 23/23/96
f 37/37/97 42/42/97 31/31/97
