# Blender v2.79 (sub 0) OBJ File: ''
# www.blender.org
mtllib crack_only_196.mtl
o crack_only_196
v 3.138206 4.928310 -2.467285
v 2.909758 5.905077 -2.124077
v 3.048944 5.655230 -2.899985
v 2.770467 1.764071 -4.354065
v 2.834248 2.144166 -4.198634
v 2.865019 1.996515 -3.671197
v 2.802980 2.127702 -4.643460
v 3.134992 4.998785 -1.396203
v 3.111113 4.188932 -2.019358
v 3.126525 4.570797 -3.983186
v 3.151872 5.323465 -4.388247
v 3.133357 5.466833 -3.634709
v 3.125965 4.411705 -4.766985
v 2.765247 1.171697 -3.288426
v 2.788052 1.391176 -3.321853
v 2.823933 1.591588 -2.769290
v 2.751700 1.274334 -3.652083
v 2.841238 6.275620 -2.779574
v 3.039793 6.083905 -3.137815
v 2.918251 2.457478 -2.193974
v 2.987416 2.918579 -2.496636
v 2.964775 2.797020 -2.083874
v 2.861030 2.082329 -1.918798
v 2.856267 2.003124 -2.254315
v 2.952661 2.881402 -4.552742
v 2.558206 6.177411 -1.498760
v 2.552720 6.457706 -1.872914
v 2.988052 3.149695 -4.476570
v 2.963005 2.937662 -4.674006
v 3.015674 3.324795 -4.694367
v 2.744492 5.787900 -1.413284
v 2.666019 5.961258 -1.443065
v 2.917963 2.507894 -1.686856
v 2.828259 1.942044 -1.561841
v 3.101992 3.923976 -1.332153
v 3.065188 3.541632 -1.659152
v 3.058389 3.743673 -4.204443
v 3.068122 3.788744 -3.894181
v 3.018389 3.350913 -4.116875
v 2.791668 6.524493 -3.098958
v 2.128881 7.016930 -2.250302
v 1.927920 7.061272 -1.837065
v 2.342421 6.809431 -2.202698
v 3.023098 3.370004 -3.842376
v 3.087175 3.925620 -3.459111
v 3.115037 4.219144 -2.757049
v 1.745313 7.240115 -2.023010
v 3.025316 3.211329 -2.177794
v 3.032201 3.306742 -2.564124
v 3.095807 3.946410 -2.491422
v 3.103196 5.914195 -3.987018
v 3.096622 5.883911 -4.326283
v 2.954127 2.732047 -3.423013
v 2.933818 2.544505 -3.188856
v 2.976558 2.856719 -2.918535
v 2.565568 6.565066 -2.231455
v 2.758213 6.358836 -2.397505
v 3.094356 5.922847 -3.507964
v 2.788779 1.178212 -2.652493
v 2.802416 1.360253 -2.204417
v 3.053101 3.577550 -3.414886
v 2.995235 3.071371 -3.370653
v 2.920176 2.585310 -3.773427
v 2.878572 2.301240 -1.371905
v 3.055725 3.457700 -1.939322
v 2.316812 6.693983 -1.743905
v 3.026396 6.401955 -3.815149
v 3.074155 3.727232 -3.025933
v 2.784700 1.166604 -2.807023
v 2.288143 6.639120 -1.551402
v 2.886112 2.527179 -4.885301
v 3.020571 3.164372 -5.064526
v 3.116261 4.118519 -1.336347
v 3.041417 3.216961 -1.264305
v 2.749985 1.458858 -4.015242
v 2.772905 1.142221 -3.106203
v 2.817045 1.684023 -1.946165
v 2.805699 1.617527 -1.824197
v 2.978644 6.563045 -4.278375
v 2.779405 6.975498 -3.908534
v 3.033898 6.311807 -4.276088
v 2.964521 6.309059 -3.392287
v 2.586835 6.706665 -2.741007
v 2.903026 6.455316 -3.401251
v 2.756535 6.742868 -3.454947
v 2.642809 6.923139 -3.454435
v 2.563643 6.825657 -2.927697
v 2.673983 6.632292 -2.889098
v 2.641680 6.800621 -3.148798
v 2.419057 7.245085 -3.676293
v 2.445140 7.339456 -3.960630
v 2.911657 6.787327 -4.282875
v 2.797127 7.042221 -4.285980
v 2.451384 7.373729 -4.275466
v 2.316024 7.362051 -3.710894
v 2.219948 6.810304 -1.826149
v 2.084519 7.189566 -2.705625
v 1.942222 7.222159 -2.461629
v 1.852028 7.342114 -2.697262
v 2.369601 7.237326 -3.518986
v 2.528406 6.997374 -3.190874
v 2.185611 7.215344 -3.078597
v 2.277405 7.020624 -2.667541
v 2.410702 6.872906 -2.641507
v 2.393303 6.959115 -2.777874
v 2.184841 7.324370 -3.336753
v 2.208944 7.445810 -3.713191
v 2.118425 7.526792 -3.964776
v 2.113678 7.570594 -4.157868
v 2.186119 6.824352 -1.634391
v 2.572160 6.651687 -2.534125
v 2.013433 7.338502 -3.069470
v 2.104427 7.411371 -3.402479
v 2.118789 7.482441 -3.633344
v 2.117482 7.509680 -3.829678
v 2.986068 3.090185 -4.049478
v 3.047573 3.614637 -4.588927
v 3.018753 3.157564 -1.708595
v 1.793153 7.288252 -2.317529
v 1.649765 7.354447 -2.175823
v 2.970213 2.690387 -1.262452
v 3.067041 3.699606 -5.011723
vt 0.373450 0.604434
vt 0.503880 0.712640
vt 0.307733 0.765084
vt 0.775007 0.078258
vt 0.745455 0.140223
vt 0.605121 0.125118
vt 0.860024 0.130781
vt 0.237452 0.495188
vt 0.097528 0.632487
vt 0.756970 0.524216
vt 0.882185 0.636243
vt 0.690364 0.670850
vt 0.956011 0.486766
vt 0.482953 0.001808
vt 0.497676 0.035724
vt 0.360082 0.075822
vt 0.579818 0.012309
vt 0.486749 0.813501
vt 0.576783 0.776470
vt 0.234827 0.220779
vt 0.326267 0.288232
vt 0.215767 0.275739
vt 0.152918 0.166361
vt 0.237777 0.148607
vt 0.858082 0.250078
vt 0.148875 0.819936
vt 0.253247 0.858213
vt 0.845814 0.293343
vt 0.891130 0.256964
vt 0.907227 0.317324
vt 0.118481 0.758829
vt 0.129915 0.786130
vt 0.104652 0.236739
vt 0.056281 0.150095
vt 0.052143 0.464362
vt 0.126425 0.399173
vt 0.791727 0.390809
vt 0.712571 0.402757
vt 0.758194 0.330551
vt 0.575598 0.847952
vt 0.361187 0.942837
vt 0.252970 0.957534
vt 0.345728 0.909646
vt 0.687569 0.337870
vt 0.603579 0.431087
vt 0.429590 0.488264
vt 0.303889 0.983842
vt 0.251745 0.339171
vt 0.354525 0.348056
vt 0.353286 0.449608
vt 0.793214 0.735937
vt 0.880317 0.725842
vt 0.561193 0.244397
vt 0.433918 0.271881
vt 0.495290 0.218672
vt 0.349203 0.869384
vt 0.388949 0.833138
vt 0.669117 0.744925
vt 0.318478 0.012749
vt 0.207248 0.048431
vt 0.582532 0.377149
vt 0.557040 0.298442
vt 0.647806 0.215940
vt 0.017080 0.209391
vt 0.196755 0.381577
vt 0.223420 0.898861
vt 0.760685 0.815949
vt 0.485860 0.406756
vt 0.358198 0.008501
vt 0.171732 0.893428
vt 0.934219 0.189406
vt 0.999030 0.286170
vt 0.058531 0.494861
vt 0.015189 0.354404
vt 0.678850 0.035650
vt 0.435006 0.000000
vt 0.148999 0.103436
vt 0.115487 0.094954
vt 0.884535 0.834286
vt 0.797320 0.906281
vt 0.877915 0.794416
vt 0.647887 0.808361
vt 0.485317 0.883513
vt 0.653395 0.831622
vt 0.673294 0.876935
vt 0.676664 0.906011
vt 0.536617 0.899444
vt 0.522721 0.868943
vt 0.594157 0.891547
vt 0.740222 0.954538
vt 0.816740 0.964758
vt 0.890887 0.869942
vt 0.897158 0.910722
vt 0.899357 0.965144
vt 0.751143 0.973023
vt 0.246747 0.916455
vt 0.483331 0.963098
vt 0.482615 0.988628
vt 0.419341 0.972925
vt 0.698676 0.956093
vt 0.581853 0.960670
vt 0.609011 0.922544
vt 0.471131 0.935952
vt 0.461955 0.912309
vt 0.499402 0.923838
vt 0.651670 0.973771
vt 0.752764 0.986811
vt 0.819141 0.996124
vt 0.870318 1.000000
vt 0.197016 0.921898
vt 0.430053 0.878208
vt 0.580830 0.981228
vt 0.670121 0.986910
vt 0.732026 0.994373
vt 0.783644 0.995569
vt 0.733467 0.290730
vt 0.887900 0.364466
vt 0.128580 0.338156
vt 0.382066 0.986490
vt 0.345478 1.000000
vt 0.000000 0.271892
vt 1.000000 0.371055
vn 0.9755 0.1879 0.1145
vn 0.9874 -0.1275 -0.0933
vn 0.9881 -0.1395 -0.0643
vn 0.9994 -0.0335 0.0052
vn 0.9994 -0.0185 0.0281
vn 0.9995 -0.0307 0.0055
vn 0.9727 0.2318 -0.0123
vn 0.9939 -0.1072 -0.0257
vn 0.9863 -0.1562 -0.0533
vn 0.8982 0.2278 0.3760
vn 0.9901 -0.1399 0.0131
vn 0.9903 -0.1375 0.0184
vn 0.9804 -0.1872 -0.0620
vn 0.8576 0.4176 0.3003
vn 0.9908 -0.1339 0.0180
vn 0.8585 0.4352 0.2713
vn 0.9882 -0.1496 0.0319
vn 0.9966 -0.0806 -0.0179
vn 0.9944 -0.1048 -0.0160
vn 0.8569 0.4625 0.2274
vn 0.6490 0.7225 0.2381
vn 0.9941 -0.1081 -0.0095
vn 0.9975 -0.0694 -0.0106
vn 0.5772 0.7928 0.1956
vn 0.9951 -0.0982 -0.0065
vn 0.9945 0.1012 -0.0283
vn 0.9971 0.0752 0.0102
vn 0.9922 -0.1242 -0.0134
vn 0.8613 0.4775 0.1738
vn 0.8082 0.4776 0.3446
vn 0.9905 0.0823 0.1102
vn 0.9934 0.0573 0.0994
vn 0.9965 -0.0837 0.0037
vn 0.9933 -0.1148 -0.0140
vn 0.9933 -0.1023 -0.0534
vn 0.9185 0.3775 0.1174
vn 0.9499 0.3040 0.0725
vn 0.9900 -0.1404 0.0145
vn 0.9882 -0.1513 0.0243
vn 0.9929 -0.1180 -0.0150
vn 0.9972 -0.0749 0.0061
vn 0.7473 0.6287 0.2150
vn 0.7348 0.6470 0.2038
vn 0.9930 -0.1179 -0.0077
vn 0.9885 0.1502 0.0155
vn 0.9935 -0.1129 -0.0126
vn 0.9969 -0.0767 -0.0195
vn 0.9934 -0.1144 -0.0097
vn 0.9907 -0.1349 -0.0154
vn 0.9970 -0.0767 -0.0107
vn 0.9957 -0.0902 -0.0195
vn 0.7854 0.5009 0.3637
vn 0.9930 -0.1176 -0.0081
vn 0.9968 -0.0767 -0.0201
vn 0.9948 -0.1001 -0.0212
vn 0.9797 -0.1985 0.0292
vn 0.9889 -0.1309 0.0698
vn 0.9944 -0.1037 -0.0196
vn 0.9972 -0.0735 -0.0151
vn 0.9962 -0.0864 -0.0111
vn 0.9997 -0.0219 -0.0098
vn 0.9840 -0.1577 -0.0826
vn 0.9955 -0.0891 -0.0320
vn 0.9943 -0.0999 0.0380
vn 0.9830 -0.1835 -0.0013
vn 0.9915 -0.1302 -0.0064
vn 0.9959 -0.0729 -0.0536
vn 0.8603 0.4316 0.2712
vn 0.9949 -0.0994 -0.0156
vn 0.9902 -0.1080 -0.0880
vn 0.9911 -0.1135 -0.0690
vn 0.9805 -0.1963 0.0128
vn 0.8359 0.4837 0.2593
vn 0.9966 0.0805 0.0169
vn 0.9954 -0.0828 0.0474
vn 0.9148 0.4013 0.0453
vn 0.9884 0.1487 -0.0324
vn 0.9869 0.1608 -0.0154
vn 0.8658 0.4732 0.1626
vn 0.9480 0.3183 0.0012
vn 0.8616 0.5015 0.0780
vn 0.8951 0.3896 0.2166
vn 0.8557 0.4745 0.2066
vn 0.8588 0.4739 0.1949
vn 0.8068 0.5082 0.3013
vn 0.8714 0.4173 0.2579
vn 0.8258 0.5165 0.2266
vn 0.8409 0.4959 0.2168
vn 0.8421 0.4739 0.2575
vn 0.8503 0.4709 0.2350
vn 0.6852 0.6701 0.2853
vn 0.9399 0.2845 0.1890
vn 0.6906 0.7174 0.0918
vn 0.9056 0.4083 0.1147
vn 0.7167 0.6802 0.1539
vn 0.8898 0.3888 0.2388
vn 0.6749 0.6796 0.2875
vn 0.6336 0.7462 0.2044
vn 0.5419 0.8145 0.2072
vn 0.5787 0.7659 0.2800
vn 0.6083 0.7519 0.2543
vn 0.6955 0.6723 0.2535
vn 0.5983 0.7705 0.2198
vn 0.6179 0.7550 0.2197
vn 0.6135 0.7578 0.2220
vn 0.6698 0.6633 0.3338
vn 0.5422 0.8153 0.2033
vn 0.6323 0.7144 0.2998
vn 0.6887 0.6806 0.2501
vn 0.5784 0.7483 0.3249
vn 0.5952 0.7674 0.2383
vn 0.4937 0.8634 0.1038
vn 0.9458 0.2594 0.1954
vn 0.5404 0.8233 0.1735
vn 0.7371 0.6710 0.0809
vn 0.6494 0.7582 0.0590
vn 0.7768 0.5927 0.2126
vn 0.7847 0.5555 0.2752
vn 0.7515 0.5964 0.2819
vn 0.7350 0.6475 0.2013
vn 0.6697 0.7105 0.2162
vn 0.9764 0.2145 -0.0261
vn 0.7881 0.5871 0.1852
vn 0.5731 0.7833 0.2409
vn 0.5628 0.7621 0.3202
vn 0.5623 0.7623 0.3205
vn 0.4623 0.8787 0.1188
vn 0.9994 -0.0343 0.0039
vn 0.9918 -0.1273 -0.0124
vn 0.9919 -0.1264 -0.0134
vn 0.9874 -0.1585 0.0002
vn 0.9904 -0.1366 0.0211
vn 0.7387 0.6063 0.2947
vn 0.7358 0.6109 0.2923
vn 0.7328 0.6430 0.2228
vn 0.7394 0.6405 0.2077
vn 0.6576 0.7243 0.2071
vn 0.9954 -0.0938 0.0183
vn 0.9925 -0.1224 -0.0001
vn 0.9965 -0.0835 -0.0086
vn 0.9889 -0.1456 -0.0310
vn 0.9995 -0.0327 -0.0000
vn 0.9900 -0.0575 0.1285
vn 0.9942 0.1031 -0.0320
vn 0.9977 -0.0679 0.0025
vn 0.9951 -0.0990 0.0003
vn 0.9967 -0.0810 -0.0071
vn 0.9970 -0.0773 -0.0072
vn 0.5525 0.8091 0.2004
vn 0.5855 0.7796 0.2225
vn 0.5798 0.7777 0.2431
vn 0.4932 0.8626 0.1127
vn 0.4880 0.8679 0.0927
vn 0.5675 0.7984 0.2012
vn 0.5811 0.7828 0.2224
vn 0.9875 -0.1519 -0.0420
vn 0.9885 -0.1476 -0.0340
vn 0.9929 -0.1177 -0.0167
vn 0.9928 -0.1190 -0.0167
vn 0.9921 -0.1251 -0.0083
vn 0.9746 -0.2227 -0.0242
vn 0.9898 -0.1415 0.0136
vn 0.9882 -0.1534 -0.0038
vn 0.9876 -0.1542 -0.0298
vn 0.9889 -0.1339 -0.0642
vn 0.9898 -0.1418 0.0125
vn 0.9931 -0.1165 -0.0111
vn 0.9932 -0.1161 -0.0085
vn 0.9966 -0.0820 -0.0005
vn 0.9915 -0.1296 -0.0111
vn 0.9923 -0.1199 0.0294
vn 0.9950 -0.1001 0.0056
vn 0.8221 0.5179 0.2366
vn 0.8449 0.4954 0.2017
vn 0.8266 0.5213 0.2120
vn 0.5774 0.7738 0.2606
vn 0.7370 0.6069 0.2973
vn 0.8259 0.5164 0.2264
vn 0.8193 0.5223 0.2366
vn 0.9883 -0.1348 0.0715
vn 0.9956 -0.0892 0.0279
vn 0.9954 -0.0918 0.0274
vn 0.5610 0.7807 0.2752
vn 0.6106 0.7380 0.2872
vn 0.6064 0.7532 0.2551
vn 0.9953 -0.0912 0.0322
vn 0.9958 -0.0800 0.0439
vn 0.9965 -0.0832 0.0039
vn 0.9858 -0.1661 0.0252
vn 0.9942 -0.1051 0.0216
vn 0.9904 -0.1374 0.0170
vn 0.9899 -0.1418 -0.0000
vn 0.9841 -0.1566 -0.0842
vn 0.7345 0.6657 0.1313
vn 0.6936 0.6616 0.2849
vn 0.6775 0.6927 0.2472
usemtl None
s off
f 1/1/1 3/2/1 2/3/1
f 4/4/2 5/5/2 6/6/2
f 4/4/3 7/7/3 5/5/3
f 9/8/4 1/1/4 8/9/4
f 10/10/5 11/11/5 12/12/5
f 13/13/6 11/11/6 10/10/6
f 2/3/7 8/9/7 1/1/7
f 14/14/8 15/15/8 16/16/8
f 15/15/9 17/17/9 6/6/9
f 18/18/10 3/2/10 19/19/10
f 20/20/11 21/21/11 22/22/11
f 23/23/12 24/24/12 20/20/12
f 25/25/13 5/5/13 7/7/13
f 26/26/14 2/3/14 27/27/14
f 28/28/15 29/29/15 30/30/15
f 31/31/16 2/3/16 32/32/16
f 23/23/17 33/33/17 34/34/17
f 35/35/18 36/36/18 9/8/18
f 37/37/19 38/38/19 39/39/19
f 40/40/20 18/18/20 19/19/20
f 41/41/21 42/42/21 43/43/21
f 44/44/22 38/38/22 45/45/22
f 44/44/22 39/39/22 38/38/22
f 45/45/23 10/10/23 46/46/23
f 41/41/24 47/47/24 42/42/24
f 48/48/25 49/49/25 50/50/25
f 51/51/26 11/11/26 52/52/26
f 51/51/27 12/12/27 11/11/27
f 53/53/28 55/54/28 54/55/28
f 2/3/29 56/56/29 27/27/29
f 56/56/30 2/3/30 57/57/30
f 19/19/31 3/2/31 58/58/31
f 58/58/32 3/2/32 12/12/32
f 59/59/33 16/16/33 60/60/33
f 44/44/34 61/61/34 62/62/34
f 63/63/35 53/53/35 6/6/35
f 18/18/36 57/57/36 2/3/36
f 18/18/37 2/3/37 3/2/37
f 23/23/38 22/22/38 33/33/38
f 23/23/38 20/20/38 22/22/38
f 33/33/39 64/64/39 34/34/39
f 53/53/40 62/62/40 55/54/40
f 50/50/41 9/8/41 65/65/41
f 27/27/42 56/56/42 66/66/42
f 43/43/43 66/66/43 56/56/43
f 54/55/44 16/16/44 6/6/44
f 67/67/45 58/58/45 51/51/45
f 68/68/46 49/49/46 55/54/46
f 68/68/46 55/54/46 62/62/46
f 38/38/47 10/10/47 45/45/47
f 68/68/48 62/62/48 61/61/48
f 15/15/49 6/6/49 16/16/49
f 65/65/50 9/8/50 36/36/50
f 69/69/51 16/16/51 59/59/51
f 70/70/52 26/26/52 27/27/52
f 54/55/53 6/6/53 53/53/53
f 38/38/54 37/37/54 10/10/54
f 44/44/55 45/45/55 61/61/55
f 29/29/56 71/71/56 72/72/56
f 30/30/57 29/29/57 72/72/57
f 50/50/58 65/65/58 48/48/58
f 35/35/59 9/8/59 73/73/59
f 36/36/60 35/35/60 74/74/60
f 73/73/61 9/8/61 8/9/61
f 75/75/62 4/4/62 6/6/62
f 69/69/63 76/76/63 16/16/63
f 77/77/64 34/34/64 78/78/64
f 25/25/65 71/71/65 29/29/65
f 21/21/66 54/55/66 55/54/66
f 14/14/67 16/16/67 76/76/67
f 31/31/68 8/9/68 2/3/68
f 68/68/69 61/61/69 45/45/69
f 63/63/70 6/6/70 5/5/70
f 15/15/71 14/14/71 17/17/71
f 25/25/72 7/7/72 71/71/72
f 32/32/73 2/3/73 26/26/73
f 58/58/74 12/12/74 51/51/74
f 78/78/75 60/60/75 77/77/75
f 79/79/76 80/80/76 67/67/76
f 81/81/77 51/51/77 52/52/77
f 81/81/78 67/67/78 51/51/78
f 82/82/79 40/40/79 19/19/79
f 82/82/80 19/19/80 58/58/80
f 83/83/81 57/57/81 18/18/81
f 82/82/82 67/67/82 84/84/82
f 84/84/83 85/85/83 40/40/83
f 85/85/84 84/84/84 67/67/84
f 85/85/85 80/80/85 86/86/85
f 85/85/86 67/67/86 80/80/86
f 87/87/87 83/83/87 88/88/87
f 88/88/88 40/40/88 89/89/88
f 88/88/89 83/83/89 18/18/89
f 88/88/90 18/18/90 40/40/90
f 90/90/91 80/80/91 91/91/91
f 92/92/92 80/80/92 79/79/92
f 93/93/93 94/94/93 91/91/93
f 92/92/94 93/93/94 80/80/94
f 93/93/95 91/91/95 80/80/95
f 84/84/96 40/40/96 82/82/96
f 90/90/97 91/91/97 95/95/97
f 96/96/98 43/43/98 42/42/98
f 97/97/99 99/98/99 98/99/99
f 100/100/100 102/101/100 101/102/100
f 98/99/101 103/103/101 97/97/101
f 104/104/102 103/103/102 41/41/102
f 98/99/103 41/41/103 103/103/103
f 103/103/104 102/101/104 97/97/104
f 103/103/105 105/105/105 102/101/105
f 103/103/106 104/104/106 105/105/106
f 97/97/107 102/101/107 99/98/107
f 100/100/108 106/106/108 102/101/108
f 95/95/109 100/100/109 90/90/109
f 107/107/110 100/100/110 95/95/110
f 107/107/111 95/95/111 91/91/111
f 108/108/112 91/91/112 94/94/112
f 82/82/113 58/58/113 67/67/113
f 108/108/114 94/94/114 109/109/114
f 96/96/115 110/110/115 66/66/115
f 96/96/116 42/42/116 110/110/116
f 111/111/117 57/57/117 83/83/117
f 70/70/118 66/66/118 110/110/118
f 70/70/119 27/27/119 66/66/119
f 111/111/120 43/43/120 56/56/120
f 96/96/121 66/66/121 43/43/121
f 81/81/122 79/79/122 67/67/122
f 111/111/123 56/56/123 57/57/123
f 112/112/124 99/98/124 102/101/124
f 113/113/125 102/101/125 106/106/125
f 113/113/126 112/112/126 102/101/126
f 114/114/127 107/107/127 115/115/127
f 9/8/128 46/46/128 1/1/128
f 25/25/129 28/28/129 39/39/129
f 25/25/130 39/39/130 116/116/130
f 25/25/131 116/116/131 5/5/131
f 25/25/132 29/29/132 28/28/132
f 87/87/133 104/104/133 83/83/133
f 87/87/134 105/105/134 104/104/134
f 111/111/135 83/83/135 104/104/135
f 104/104/136 43/43/136 111/111/136
f 104/104/137 41/41/137 43/43/137
f 10/10/138 117/117/138 13/13/138
f 48/48/139 65/65/139 118/118/139
f 36/36/140 74/74/140 65/65/140
f 65/65/141 74/74/141 118/118/141
f 46/46/142 10/10/142 1/1/142
f 10/10/143 12/12/143 3/2/143
f 3/2/144 1/1/144 10/10/144
f 50/50/145 46/46/145 9/8/145
f 50/50/146 49/49/146 68/68/146
f 50/50/147 68/68/147 45/45/147
f 50/50/148 45/45/148 46/46/148
f 119/119/149 98/99/149 99/98/149
f 119/119/150 47/47/150 41/41/150
f 98/99/151 119/119/151 41/41/151
f 115/115/152 91/91/152 108/108/152
f 115/115/153 107/107/153 91/91/153
f 120/120/154 119/119/154 99/98/154
f 120/120/155 47/47/155 119/119/155
f 116/116/156 63/63/156 5/5/156
f 63/63/157 116/116/157 53/53/157
f 116/116/158 62/62/158 53/53/158
f 116/116/159 44/44/159 62/62/159
f 116/116/160 39/39/160 44/44/160
f 33/33/161 121/121/161 64/64/161
f 48/48/162 33/33/162 22/22/162
f 48/48/163 118/118/163 33/33/163
f 33/33/164 118/118/164 74/74/164
f 33/33/165 74/74/165 121/121/165
f 21/21/166 48/48/166 22/22/166
f 49/49/167 48/48/167 21/21/167
f 49/49/168 21/21/168 55/54/168
f 117/117/169 10/10/169 37/37/169
f 28/28/170 117/117/170 39/39/170
f 28/28/171 30/30/171 117/117/171
f 117/117/172 37/37/172 39/39/172
f 86/86/173 40/40/173 85/85/173
f 86/86/174 89/89/174 40/40/174
f 101/102/175 89/89/175 86/86/175
f 101/102/176 102/101/176 105/105/176
f 87/87/177 101/102/177 105/105/177
f 101/102/178 87/87/178 88/88/178
f 89/89/179 101/102/179 88/88/179
f 30/30/180 72/72/180 117/117/180
f 122/122/181 117/117/181 72/72/181
f 117/117/182 122/122/182 13/13/182
f 114/114/183 113/113/183 107/107/183
f 107/107/184 113/113/184 100/100/184
f 113/113/185 106/106/185 100/100/185
f 77/77/186 24/24/186 34/34/186
f 24/24/187 77/77/187 60/60/187
f 24/24/188 60/60/188 16/16/188
f 23/23/189 34/34/189 24/24/189
f 54/55/190 24/24/190 16/16/190
f 20/20/191 24/24/191 21/21/191
f 21/21/192 24/24/192 54/55/192
f 17/17/193 75/75/193 6/6/193
f 86/86/194 100/100/194 101/102/194
f 100/100/195 86/86/195 80/80/195
f 100/100/196 80/80/196 90/90/196
