# Blender v2.79 (sub 0) OBJ File: ''
# www.blender.org
mtllib crack_only_96.mtl
o crack_only_96
v 2.911516 2.564425 -4.640219
v 2.932899 2.555674 -4.419168
v 2.795686 2.133548 -4.642640
v 2.826269 1.408437 -3.305166
v 2.773380 1.237931 -3.602741
v 2.897713 1.984533 -3.666405
v 3.022356 2.496273 -2.489846
v 3.041133 2.750641 -2.052219
v 2.983978 2.404573 -2.246099
v 3.101403 2.889872 -2.518709
v 2.820506 1.682114 -1.943565
v 2.884726 2.006847 -2.204220
v 2.811233 1.949440 -1.559317
v 2.824130 1.357967 -2.204856
v 2.865337 1.758065 -2.442336
v 2.861408 1.540027 -2.933609
v 2.828529 1.168981 -2.659362
v 2.959712 2.507581 -1.680623
v 2.988643 2.687952 -1.258489
v 2.872323 2.303906 -1.373234
v 2.828726 1.159174 -2.780089
v 2.748243 1.459109 -4.014019
v 2.751404 1.765871 -4.342038
v 2.822443 1.129588 -3.123207
v 2.799467 1.618567 -1.824578
v 2.810859 1.153573 -3.260478
v 2.903876 1.827678 -2.690926
v 2.965463 2.817997 -4.637206
v 3.019702 2.593865 -3.829979
v 3.067517 2.885778 -3.906436
v 3.007581 2.692091 -4.141298
v 3.051757 2.947521 -1.253511
v 3.033104 2.868154 -1.445773
v 3.060710 2.717854 -3.387879
v 3.043484 2.607099 -3.252572
v 3.080406 2.782868 -3.114846
v 3.119534 3.004956 -2.951991
v 3.069606 2.700351 -2.902515
v 3.167711 3.321813 -2.640213
v 3.127834 3.186088 -2.155555
v 3.089959 2.902122 -3.355660
v 3.115995 3.225273 -1.244562
v 3.125535 3.300433 -1.599356
v 2.986248 2.891053 -4.571091
v 3.041711 3.033458 -4.277558
v 2.983233 2.941672 -4.674925
v 3.036750 3.146967 -4.420869
v 2.834728 2.366169 -4.777605
v 3.143377 3.212334 -3.175957
v 2.872237 2.560460 -4.886597
v 2.947186 2.771199 -4.760956
v 3.162606 3.664695 -1.283920
v 2.916313 2.738714 -4.975524
v 2.959411 2.872152 -4.924781
v 2.990788 2.939785 -5.059528
v 3.161420 3.495359 -1.755987
v 3.185010 3.852433 -1.657284
v 3.195652 3.826009 -2.015301
v 2.977815 2.175678 -3.053123
v 2.993590 2.356903 -3.518060
v 2.983104 2.281084 -2.821432
v 3.041840 2.895241 -1.647874
v 3.078285 3.348236 -4.288382
v 3.135342 3.501864 -3.850022
v 3.080177 3.134004 -4.068212
v 3.196089 3.800766 -2.385536
v 3.042453 3.268253 -4.496626
v 2.897514 2.241620 -4.173625
v 3.167140 3.493998 -1.998318
v 3.026330 3.068354 -5.062682
v 3.016136 3.137759 -4.861229
v 3.182330 3.598264 -3.402784
v 3.189065 3.721913 -2.721440
v 3.101333 3.014574 -3.629453
v 3.190020 3.866976 -1.298821
v 3.014193 3.200175 -4.689398
vt 0.685510 0.086785
vt 0.666656 0.142621
vt 0.515074 0.063590
vt 0.139949 0.367335
vt 0.094704 0.282964
vt 0.390433 0.304912
vt 0.502462 0.629424
vt 0.566684 0.752859
vt 0.446687 0.686136
vt 0.658852 0.642372
vt 0.139433 0.725293
vt 0.286475 0.676001
vt 0.210889 0.835454
vt 0.036693 0.643416
vt 0.209105 0.603339
vt 0.163682 0.468296
vt 0.000000 0.519212
vt 0.441067 0.833974
vt 0.479047 0.950027
vt 0.334911 0.900667
vt 0.005509 0.488173
vt 0.208391 0.189255
vt 0.349945 0.121184
vt 0.020087 0.399778
vt 0.104939 0.752031
vt 0.038935 0.366031
vt 0.256885 0.544327
vt 0.784802 0.100640
vt 0.641592 0.294853
vt 0.701842 0.220648
vt 0.761105 0.290369
vt 0.581036 0.964798
vt 0.564451 0.912001
vt 0.657424 0.413386
vt 0.662468 0.485948
vt 0.604024 0.442011
vt 0.736695 0.538531
vt 0.614297 0.535538
vt 0.836055 0.633556
vt 0.745104 0.749097
vt 0.726665 0.430917
vt 0.689687 0.981476
vt 0.745864 0.895443
vt 0.808757 0.121223
vt 0.843816 0.203240
vt 0.835688 0.097357
vt 0.897485 0.172413
vt 0.616022 0.041286
vt 0.833914 0.492254
vt 0.700357 0.023670
vt 0.775361 0.066778
vt 0.862226 0.993546
vt 0.777491 0.010445
vt 0.826909 0.030386
vt 0.864801 0.000000
vt 0.833975 0.865775
vt 0.981284 0.816693
vt 0.963312 0.908470
vt 0.421108 0.470595
vt 0.526299 0.361926
vt 0.443722 0.534456
vt 0.590694 0.862275
vt 0.966287 0.216329
vt 0.994647 0.335579
vt 0.868367 0.261669
vt 1.000000 0.721737
vt 0.949614 0.159216
vt 0.526619 0.189008
vt 0.852313 0.804437
vt 0.916014 0.005954
vt 0.926318 0.060192
vt 1.000000 0.454153
vt 0.995300 0.632761
vt 0.790914 0.367232
vt 0.941778 1.000000
vt 0.936747 0.106705
vn 0.9607 -0.2577 -0.1031
vn 0.9824 -0.1702 -0.0771
vn 0.9759 -0.2042 0.0768
vn 0.9790 -0.1915 0.0693
vn 0.9883 -0.1131 0.1026
vn 0.9874 -0.0923 0.1282
vn 0.9955 -0.0930 0.0161
vn 0.9974 -0.0621 0.0355
vn 0.9493 -0.3073 0.0663
vn 0.9966 -0.0822 0.0083
vn 0.9725 -0.1747 -0.1540
vn 0.9959 -0.0897 -0.0105
vn 0.9865 -0.1225 0.1090
vn 0.9883 -0.0823 -0.1285
vn 0.9887 -0.0130 0.1496
vn 0.9878 -0.0907 0.1262
vn 0.9732 -0.2058 -0.1023
vn 0.9779 -0.1855 -0.0966
vn 0.9717 -0.2363 0.0033
vn 0.9823 -0.1854 -0.0267
vn 0.9864 -0.1639 -0.0135
vn 0.9885 -0.1514 0.0011
vn 0.9868 -0.1620 -0.0017
vn 0.9805 -0.1958 0.0154
vn 0.9813 -0.1779 0.0737
vn 0.9880 -0.1506 -0.0354
vn 0.9893 -0.1400 0.0422
vn 0.9763 -0.2157 -0.0194
vn 0.9765 -0.1959 -0.0895
vn 0.9696 -0.1680 -0.1781
vn 0.9764 -0.1962 -0.0902
vn 0.9779 -0.1752 -0.1138
vn 0.9846 -0.1190 -0.1283
vn 0.9528 -0.2552 -0.1643
vn 0.9882 -0.1496 -0.0334
vn 0.9881 -0.1499 -0.0350
vn 0.9562 -0.2600 -0.1344
vn 0.9528 -0.2580 -0.1603
vn 0.9761 -0.2069 -0.0659
vn 0.9945 -0.1051 0.0045
vn 0.9826 -0.1663 -0.0822
vn 0.9544 -0.2831 -0.0945
vn 0.9437 -0.3261 0.0561
vn 0.9573 -0.2725 -0.0965
vn 0.9885 -0.1428 0.0487
vn 0.9965 -0.0756 0.0352
vn 0.9860 -0.1642 -0.0306
vn 0.9842 -0.1762 -0.0189
vn 0.9642 -0.2594 0.0542
vn 0.9743 -0.2253 -0.0015
vn 0.9816 -0.1805 0.0628
vn 0.9789 -0.2040 0.0150
vn 0.9763 -0.2150 0.0249
vn 0.9911 -0.0910 -0.0971
vn 0.9944 -0.0891 0.0569
vn 0.9904 -0.1332 0.0380
vn 0.9849 -0.1227 -0.1223
vn 0.9792 -0.1748 0.1029
vn 0.9862 -0.1581 0.0494
vn 0.9678 -0.2244 -0.1141
vn 0.9726 -0.2171 -0.0835
vn 0.9929 -0.1172 -0.0186
vn 0.9963 -0.0852 0.0070
vn 0.9555 -0.2607 0.1382
vn 0.9808 -0.1925 -0.0294
vn 0.9666 -0.2324 0.1084
vn 0.9791 -0.1975 -0.0486
vn 0.9771 -0.2074 0.0467
vn 0.9909 -0.1332 -0.0178
vn 0.9659 -0.2282 0.1220
vn 0.9861 -0.1627 0.0334
vn 0.9933 -0.1132 -0.0220
vn 0.9785 -0.2054 -0.0183
vn 0.9798 -0.1995 0.0135
vn 0.9819 -0.1881 -0.0232
vn 0.9986 -0.0533 -0.0002
vn 0.9917 -0.1036 -0.0760
vn 0.9910 -0.1060 -0.0813
vn 0.9843 -0.1718 -0.0403
vn 0.9849 -0.1683 -0.0411
vn 0.9845 -0.1691 -0.0460
vn 0.9880 -0.1530 -0.0218
vn 0.9877 -0.1557 0.0116
vn 0.9881 -0.1482 -0.0410
vn 0.9842 -0.1739 0.0339
vn 0.9815 -0.1872 -0.0397
vn 0.9950 -0.0722 -0.0685
vn 0.9943 -0.0515 -0.0929
vn 0.9743 -0.2127 0.0744
vn 0.9779 -0.2084 0.0143
vn 0.9985 -0.0549 -0.0080
vn 0.9725 -0.1750 -0.1536
vn 0.9874 -0.1565 -0.0233
vn 0.9917 -0.1227 -0.0384
vn 0.9922 -0.0994 -0.0749
vn 0.9810 -0.1387 -0.1360
vn 0.9689 -0.2329 0.0840
vn 0.9672 -0.2379 0.0890
vn 0.9654 -0.2304 0.1218
vn 0.9754 -0.2055 0.0793
vn 0.9900 -0.1387 0.0242
vn 0.9876 -0.1532 0.0356
vn 0.9962 -0.0843 0.0240
vn 0.9904 -0.1309 0.0445
vn 0.9980 -0.0628 -0.0114
vn 0.9673 -0.2285 -0.1098
vn 0.9631 -0.2247 -0.1485
vn 0.9607 -0.2299 -0.1556
vn 0.9918 -0.1158 0.0533
vn 0.9857 -0.1382 -0.0960
vn 0.9881 -0.1122 -0.1052
vn 0.9864 -0.1242 -0.1075
vn 0.9599 -0.2498 -0.1270
vn 0.9586 -0.2403 -0.1527
vn 0.9852 -0.1187 -0.1240
vn 0.9846 -0.1188 -0.1282
vn 0.9834 -0.1430 -0.1120
usemtl None
s off
f 1/1/1 2/2/1 3/3/1
f 4/4/2 5/5/2 6/6/2
f 7/7/3 8/8/3 9/9/3
f 7/7/4 10/10/4 8/8/4
f 11/11/5 12/12/5 13/13/5
f 12/12/6 11/11/6 14/14/6
f 12/12/7 14/14/7 15/15/7
f 16/16/8 14/14/8 17/17/8
f 18/18/9 19/19/9 20/20/9
f 16/16/10 17/17/10 21/21/10
f 22/22/11 23/23/11 6/6/11
f 16/16/12 21/21/12 24/24/12
f 11/11/13 13/13/13 25/25/13
f 4/4/14 26/26/14 5/5/14
f 27/27/15 15/15/15 14/14/15
f 25/25/16 14/14/16 11/11/16
f 2/2/17 1/1/17 28/28/17
f 29/29/18 31/30/18 30/31/18
f 32/32/19 19/19/19 33/33/19
f 34/34/20 36/35/20 35/36/20
f 37/37/21 38/38/21 36/35/21
f 37/37/22 39/39/22 10/10/22
f 38/38/23 37/37/23 10/10/23
f 38/38/24 10/10/24 7/7/24
f 8/8/25 10/10/25 40/40/25
f 41/41/26 36/35/26 34/34/26
f 39/39/27 40/40/27 10/10/27
f 42/42/28 33/33/28 43/43/28
f 44/44/29 45/45/29 2/2/29
f 45/45/30 31/30/30 2/2/30
f 44/44/31 2/2/31 28/28/31
f 46/46/32 44/44/32 28/28/32
f 44/44/33 47/47/33 45/45/33
f 1/1/34 3/3/34 48/48/34
f 49/49/35 37/37/35 36/35/35
f 49/49/36 36/35/36 41/41/36
f 50/50/37 51/51/37 48/48/37
f 1/1/38 48/48/38 51/51/38
f 28/28/39 1/1/39 51/51/39
f 42/42/40 43/43/40 52/52/40
f 28/28/41 51/51/41 46/46/41
f 53/53/42 51/51/42 50/50/42
f 54/54/43 53/53/43 55/55/43
f 53/53/44 54/54/44 51/51/44
f 56/56/45 52/52/45 43/43/45
f 56/56/46 58/57/46 57/58/46
f 35/36/47 59/59/47 60/60/47
f 35/36/48 60/60/48 34/34/48
f 61/61/49 7/7/49 9/9/49
f 42/42/50 32/32/50 33/33/50
f 62/62/51 8/8/51 40/40/51
f 62/62/52 43/43/52 33/33/52
f 18/18/53 33/33/53 19/19/53
f 63/63/54 64/64/54 65/65/54
f 66/66/55 40/40/55 39/39/55
f 35/36/56 61/61/56 59/59/56
f 67/67/57 63/63/57 47/47/57
f 12/12/58 15/15/58 27/27/58
f 59/59/59 61/61/59 27/27/59
f 29/29/60 6/6/60 68/68/60
f 29/29/61 60/60/61 6/6/61
f 66/66/62 69/69/62 40/40/62
f 69/69/63 66/66/63 58/57/63
f 70/70/64 71/71/64 55/55/64
f 46/46/65 51/51/65 71/71/65
f 54/54/66 55/55/66 71/71/66
f 54/54/67 71/71/67 51/51/67
f 62/62/68 40/40/68 43/43/68
f 39/39/69 37/37/69 49/49/69
f 12/12/70 27/27/70 9/9/70
f 61/61/71 9/9/71 27/27/71
f 49/49/72 72/72/72 39/39/72
f 61/61/73 35/36/73 38/38/73
f 38/38/74 7/7/74 61/61/74
f 35/36/75 36/35/75 38/38/75
f 72/72/76 73/73/76 39/39/76
f 64/64/77 74/74/77 65/65/77
f 74/74/78 64/64/78 72/72/78
f 30/31/79 74/74/79 29/29/79
f 74/74/80 34/34/80 60/60/80
f 60/60/81 29/29/81 74/74/81
f 74/74/82 41/41/82 34/34/82
f 16/16/83 27/27/83 14/14/83
f 4/4/84 6/6/84 16/16/84
f 16/16/61 6/6/61 60/60/61
f 59/59/85 27/27/85 16/16/85
f 59/59/86 16/16/86 60/60/86
f 26/26/87 4/4/87 16/16/87
f 16/16/88 24/24/88 26/26/88
f 62/62/89 18/18/89 8/8/89
f 18/18/90 62/62/90 33/33/90
f 73/73/91 66/66/91 39/39/91
f 5/5/92 22/22/92 6/6/92
f 49/49/93 41/41/93 74/74/93
f 49/49/94 74/74/94 72/72/94
f 30/31/95 65/65/95 74/74/95
f 65/65/96 30/31/96 31/30/96
f 18/18/97 12/12/97 9/9/97
f 12/12/98 18/18/98 13/13/98
f 18/18/99 20/20/99 13/13/99
f 18/18/100 9/9/100 8/8/100
f 40/40/101 69/69/101 56/56/101
f 56/56/102 43/43/102 40/40/102
f 69/69/103 58/57/103 56/56/103
f 75/75/104 52/52/104 56/56/104
f 57/58/105 75/75/105 56/56/105
f 68/68/106 31/30/106 29/29/106
f 68/68/107 2/2/107 31/30/107
f 68/68/108 3/3/108 2/2/108
f 76/76/109 46/46/109 71/71/109
f 46/46/110 47/47/110 44/44/110
f 76/76/111 67/67/111 47/47/111
f 76/76/112 47/47/112 46/46/112
f 68/68/113 6/6/113 23/23/113
f 68/68/114 23/23/114 3/3/114
f 45/45/115 63/63/115 65/65/115
f 47/47/116 63/63/116 45/45/116
f 45/45/117 65/65/117 31/30/117
