# Blender v2.79 (sub 0) OBJ File: ''
# www.blender.org
mtllib crack_only_111.mtl
o crack_only_111
v 2.822124 1.406565 -3.306976
v 2.767960 1.264854 -3.648523
v 2.954346 2.222198 -3.427592
v 2.896312 2.517112 -4.636520
v 2.932282 2.551113 -4.415786
v 2.796297 2.133059 -4.642709
v 2.994504 2.405498 -2.527390
v 3.046850 2.801520 -2.067919
v 2.983658 2.404913 -2.245922
v 3.094288 2.892777 -2.519255
v 2.822060 1.681256 -1.942398
v 2.882617 2.007617 -2.206696
v 2.814684 1.947941 -1.559829
v 2.809480 1.359509 -2.204560
v 2.861876 1.755395 -2.449709
v 2.863267 1.578029 -2.833220
v 2.817142 1.171626 -2.657394
v 3.066085 3.057217 -1.472018
v 3.087818 3.225860 -1.252331
v 2.986452 2.688242 -1.258960
v 2.975024 2.596023 -1.538005
v 2.873631 2.303348 -1.372956
v 2.818139 1.160961 -2.786566
v 2.748106 1.459129 -4.013922
v 2.753847 1.765641 -4.343580
v 2.804405 1.617743 -1.824276
v 2.989620 2.551330 -3.804363
v 2.884295 2.251984 -4.216416
v 3.080700 3.664013 -4.770123
v 3.044052 3.362094 -4.881007
v 3.077145 3.448177 -5.065664
v 2.811641 1.136986 -3.150680
v 2.944869 2.762182 -4.754412
v 2.872370 2.542986 -4.882125
v 3.150689 3.328043 -2.596009
v 3.180177 3.752441 -2.287703
v 3.194740 3.935846 -2.683389
v 3.199919 4.218430 -2.033189
v 3.206026 4.170372 -1.687938
v 3.185296 3.847632 -2.022341
v 3.160305 3.477354 -3.052124
v 3.128726 3.213006 -3.191568
v 3.137122 3.249376 -3.004668
v 3.072550 2.826848 -3.270388
v 3.119990 3.176440 -2.194737
v 3.191942 3.779685 -3.081188
v 3.162830 3.526619 -3.412456
v 3.115173 3.142411 -3.379354
v 3.170849 3.788080 -3.583472
v 3.140883 3.504065 -3.745378
v 3.187828 3.949893 -3.471354
v 3.157431 3.848366 -3.853981
v 3.142410 3.472904 -2.001076
v 3.190956 3.893012 -3.330948
v 3.206381 4.138153 -3.081867
v 2.983072 2.931131 -4.669317
v 3.002507 3.042367 -4.848077
v 3.131139 3.403141 -1.892204
v 3.135480 3.502640 -1.272316
v 3.161648 3.624970 -1.629098
v 3.123978 3.292062 -1.600070
v 2.963779 2.850193 -4.913730
v 2.991175 2.924890 -5.059446
v 2.899728 2.643252 -4.947328
v 3.181740 3.825360 -1.468099
v 3.182172 3.838399 -1.658232
v 3.200851 4.318091 -2.349236
v 3.045341 3.274774 -4.687968
v 3.098535 3.527287 -4.491636
v 3.062944 3.157997 -5.073162
v 3.007596 3.072227 -4.678205
v 2.961424 2.507569 -1.680368
v 3.101760 3.220735 -1.762222
v 3.063015 2.985737 -1.681816
v 3.203838 4.077999 -1.315601
v 3.222502 4.561133 -1.345782
v 3.128029 3.790218 -4.552045
v 2.959190 2.807710 -4.632447
v 3.075340 3.703128 -5.014555
v 2.981409 2.881416 -4.565463
v 3.210951 4.193220 -2.773671
v 3.210511 4.365899 -2.122753
v 3.216060 4.450547 -1.792532
v 3.187126 4.055812 -3.555753
v 3.169271 4.017230 -3.808796
v 3.205734 4.242636 -2.598912
v 3.030365 2.874510 -4.106906
v 3.081964 3.001018 -3.657779
v 3.059296 2.812345 -3.532941
v 3.093966 3.346554 -4.158018
v 3.135971 3.900856 -4.223676
v 3.112128 3.384547 -3.961644
v 3.043342 3.220271 -4.508328
v 3.037436 3.079942 -4.348670
vt 0.120871 0.346693
vt 0.097775 0.254826
vt 0.394015 0.362084
vt 0.570842 0.080864
vt 0.567545 0.137176
vt 0.445031 0.057762
vt 0.390016 0.592936
vt 0.485331 0.727244
vt 0.369365 0.661770
vt 0.548423 0.622016
vt 0.111112 0.695788
vt 0.236083 0.649082
vt 0.168219 0.803690
vt 0.027107 0.614240
vt 0.172413 0.575843
vt 0.143442 0.472406
vt 0.000000 0.493320
vt 0.524980 0.887142
vt 0.563838 0.950218
vt 0.389285 0.918806
vt 0.379341 0.845370
vt 0.270297 0.869094
vt 0.005833 0.461103
vt 0.184471 0.175407
vt 0.305363 0.111016
vt 0.081797 0.721157
vt 0.526733 0.287679
vt 0.456377 0.169559
vt 0.952298 0.111311
vt 0.862777 0.067631
vt 0.904658 0.027329
vt 0.023795 0.370511
vt 0.595431 0.021781
vt 0.659100 0.065574
vt 0.694441 0.627036
vt 0.895399 0.638514
vt 0.808480 0.725554
vt 0.939100 0.812998
vt 0.899610 0.895123
vt 0.820060 0.795725
vt 0.774617 0.523313
vt 0.697904 0.522532
vt 0.699267 0.474692
vt 0.579884 0.434162
vt 0.616500 0.716962
vt 0.873984 0.532659
vt 0.815942 0.437652
vt 0.689608 0.424752
vt 0.911380 0.409766
vt 0.831457 0.354609
vt 0.955500 0.446061
vt 0.949119 0.346532
vt 0.697784 0.780482
vt 0.927624 0.477476
vt 0.988383 0.551765
vt 0.708340 0.095861
vt 0.757179 0.058194
vt 0.667425 0.803322
vt 0.655164 0.960606
vt 0.611129 0.868920
vt 0.720460 0.879973
vt 0.699167 0.031428
vt 0.734421 0.000000
vt 0.633076 0.011450
vt 0.773483 0.930340
vt 0.791139 0.884439
vt 0.993197 0.740861
vt 0.821427 0.110302
vt 0.889940 0.172475
vt 0.812513 0.009863
vt 0.754814 0.101477
vt 0.360788 0.805611
vt 0.599034 0.825128
vt 0.517066 0.831877
vt 0.843773 0.981431
vt 1.000000 1.000000
vt 0.978940 0.172014
vt 0.665516 0.098053
vt 0.981825 0.053429
vt 0.685122 0.118646
vt 0.984170 0.630289
vt 0.992708 0.799027
vt 0.996357 0.884537
vt 0.995061 0.431015
vt 1.000000 0.366741
vt 0.987206 0.675698
vt 0.652535 0.231210
vt 0.663057 0.348605
vt 0.593340 0.368891
vt 0.808717 0.244556
vt 0.991071 0.258483
vt 0.807629 0.294913
vt 0.791294 0.151403
vt 0.735182 0.182986
vn 0.9815 -0.1716 -0.0845
vn 0.9614 -0.2485 -0.1184
vn 0.9841 -0.1737 0.0376
vn 0.9776 -0.2012 0.0621
vn 0.9897 -0.1075 0.0940
vn 0.9898 -0.1114 0.0892
vn 0.9932 -0.1120 0.0315
vn 0.9945 -0.0895 0.0540
vn 0.9816 -0.1856 0.0454
vn 0.9531 -0.2969 0.0591
vn 0.9943 -0.1057 0.0164
vn 0.9778 -0.1618 -0.1334
vn 0.9903 -0.1044 0.0919
vn 0.9801 -0.1971 0.0250
vn 0.9726 -0.2123 -0.0944
vn 0.9822 -0.1570 0.1028
vn 0.9881 -0.1042 -0.1135
vn 0.9899 -0.1107 0.0884
vn 0.9613 -0.2481 -0.1198
vn 0.9612 -0.2484 -0.1199
vn 0.9974 -0.0718 0.0034
vn 0.9989 -0.0401 -0.0232
vn 0.9941 -0.1061 -0.0240
vn 0.9945 -0.1038 -0.0130
vn 0.9899 -0.1405 -0.0171
vn 0.9889 -0.1485 -0.0043
vn 0.9833 -0.1684 0.0693
vn 0.9945 -0.1048 -0.0074
vn 0.9918 -0.1251 -0.0245
vn 0.9945 -0.0976 0.0392
vn 0.9919 -0.1234 0.0293
vn 0.9934 -0.1141 -0.0086
vn 0.9957 -0.0704 -0.0609
vn 0.9962 -0.0609 -0.0630
vn 0.9956 -0.0682 -0.0646
vn 0.9934 -0.1125 0.0212
vn 0.9990 -0.0285 -0.0338
vn 0.9776 -0.2091 -0.0238
vn 0.9945 -0.0982 0.0352
vn 0.9942 -0.1004 0.0386
vn 0.9934 -0.1093 0.0354
vn 0.9935 -0.1140 -0.0048
vn 0.9730 -0.2200 0.0701
vn 0.9799 -0.1995 0.0061
vn 0.9538 -0.2994 0.0258
vn 0.9564 -0.2886 -0.0459
vn 0.9953 -0.0963 -0.0043
vn 0.9974 -0.0719 -0.0027
vn 0.9955 -0.0949 0.0061
vn 0.9974 -0.0711 0.0068
vn 0.9992 -0.0397 -0.0096
vn 0.9862 -0.1148 -0.1195
vn 0.9726 -0.1050 0.2072
vn 0.9519 -0.2867 0.1083
vn 0.9935 -0.1013 -0.0525
vn 0.9852 -0.1712 0.0006
vn 0.9560 -0.2900 -0.0449
vn 0.9993 -0.0372 -0.0059
vn 0.9869 -0.0522 0.1525
vn 0.9793 -0.1887 0.0728
vn 0.9738 -0.2230 0.0455
vn 0.9992 -0.0342 0.0209
vn 0.9880 -0.1436 0.0564
vn 0.9832 -0.1771 0.0434
vn 0.9992 -0.0388 -0.0038
vn 0.9813 -0.1403 -0.1317
vn 0.9700 -0.2081 -0.1260
vn 0.9997 0.0111 -0.0201
vn 0.9820 -0.1807 -0.0550
vn 0.9787 -0.2013 -0.0398
vn 0.9769 -0.2109 -0.0360
vn 0.9748 -0.1945 -0.1093
vn 0.9729 -0.2142 -0.0870
vn 0.9892 -0.1463 0.0087
vn 0.9918 -0.1238 0.0303
vn 0.9912 -0.1315 -0.0171
vn 0.9979 -0.0640 -0.0034
vn 0.9960 -0.0863 -0.0243
vn 0.9987 -0.0447 -0.0239
vn 0.9993 -0.0377 -0.0051
vn 0.9991 -0.0226 -0.0367
vn 0.9967 -0.0466 -0.0668
vn 0.9966 -0.0532 -0.0622
vn 0.9984 -0.0449 0.0331
vn 0.9979 -0.0477 0.0433
vn 0.9727 -0.2115 -0.0950
vn 0.9732 -0.2133 -0.0857
vn 0.9615 -0.2416 -0.1311
vn 0.9674 -0.2347 -0.0948
vn 0.9651 -0.2230 -0.1370
vn 0.9678 -0.2381 0.0813
vn 0.9817 -0.1906 -0.0050
vn 0.9796 -0.2004 -0.0108
vn 0.9761 -0.2095 0.0571
vn 0.9811 -0.1739 -0.0846
vn 0.9904 -0.1274 -0.0534
vn 0.9941 -0.0836 -0.0696
vn 0.9965 -0.0790 -0.0291
vn 0.9965 -0.0524 -0.0653
vn 0.9815 -0.1815 -0.0616
vn 0.9877 -0.1370 -0.0749
vn 0.9939 -0.0793 -0.0766
vn 0.9930 -0.0761 -0.0900
vn 0.9773 -0.1923 0.0892
vn 0.9854 -0.1674 0.0311
vn 0.9683 -0.2367 0.0799
vn 0.9553 -0.2832 0.0847
vn 0.9659 -0.2262 0.1256
vn 0.9777 -0.1586 -0.1375
vn 0.9968 -0.0789 -0.0137
vn 0.9924 -0.1145 0.0458
vn 0.9818 -0.1722 -0.0798
vn 0.9854 -0.1443 -0.0904
vn 0.9881 -0.1401 -0.0643
vn 0.9825 -0.1760 -0.0618
vn 0.9744 -0.2217 -0.0369
vn 0.9899 -0.1402 -0.0187
vn 0.9883 -0.1464 -0.0418
vn 0.9880 -0.1482 -0.0426
vn 0.9912 -0.1210 0.0542
vn 0.9800 -0.1930 -0.0494
vn 0.9933 -0.1141 -0.0190
vn 0.9970 -0.0687 -0.0351
vn 0.9989 -0.0403 -0.0222
vn 0.9992 -0.0402 0.0088
vn 0.9781 -0.2006 0.0548
vn 0.9781 -0.2009 0.0541
vn 0.9865 -0.1394 -0.0861
vn 0.9808 -0.1758 -0.0847
vn 0.9783 -0.1925 -0.0765
vn 0.9943 -0.1054 -0.0135
vn 0.9974 -0.0694 0.0202
vn 0.9900 -0.1267 -0.0616
vn 0.9904 -0.1259 -0.0568
vn 0.9937 -0.1005 0.0501
vn 0.9855 -0.1524 0.0741
vn 0.9861 -0.1638 -0.0264
vn 0.9955 -0.0734 -0.0599
vn 0.9940 -0.1087 -0.0106
vn 0.9694 -0.2429 0.0369
vn 0.9883 -0.1519 -0.0132
vn 0.9760 -0.1924 0.1018
vn 0.9963 -0.0696 -0.0504
vn 0.9965 -0.0648 -0.0524
vn 0.9940 -0.1086 0.0126
vn 0.9817 -0.1851 -0.0452
vn 0.9837 -0.1746 -0.0420
vn 0.9885 -0.1354 -0.0679
vn 0.9831 -0.1831 0.0027
vn 0.9854 -0.1428 -0.0925
vn 0.9793 -0.1840 -0.0846
vn 0.9762 -0.1785 -0.1231
vn 0.9975 -0.0708 0.0014
usemtl None
s off
f 1/1/1 2/2/1 3/3/1
f 4/4/2 5/5/2 6/6/2
f 7/7/3 8/8/3 9/9/3
f 7/7/4 10/10/4 8/8/4
f 11/11/5 12/12/5 13/13/5
f 12/12/6 11/11/6 14/14/6
f 12/12/7 14/14/7 15/15/7
f 16/16/8 14/14/8 17/17/8
f 18/18/9 19/19/9 20/20/9
f 21/21/10 20/20/10 22/22/10
f 16/16/11 17/17/11 23/23/11
f 24/24/12 25/25/12 3/3/12
f 11/11/13 13/13/13 26/26/13
f 18/18/14 20/20/14 21/21/14
f 27/27/15 3/3/15 28/28/15
f 29/29/16 30/30/16 31/31/16
f 1/1/17 32/32/17 2/2/17
f 26/26/18 14/14/18 11/11/18
f 4/4/19 34/33/19 33/34/19
f 4/4/20 6/6/20 34/33/20
f 35/35/21 37/36/21 36/37/21
f 38/38/22 39/39/22 40/40/22
f 41/41/23 43/42/23 42/43/23
f 41/41/24 35/35/24 43/42/24
f 43/42/25 44/44/25 42/43/25
f 43/42/26 35/35/26 44/44/26
f 8/8/27 10/10/27 45/45/27
f 46/46/28 41/41/28 47/47/28
f 42/43/29 48/48/29 47/47/29
f 35/35/30 36/37/30 45/45/30
f 35/35/31 45/45/31 10/10/31
f 42/43/32 47/47/32 41/41/32
f 49/49/33 47/47/33 50/50/33
f 51/51/34 49/49/34 52/52/34
f 50/50/35 52/52/35 49/49/35
f 53/53/36 36/37/36 40/40/36
f 54/54/37 51/51/37 55/55/37
f 56/56/38 33/34/38 57/57/38
f 53/53/39 45/45/39 36/37/39
f 58/58/40 45/45/40 53/53/40
f 59/59/41 61/60/41 60/61/41
f 53/53/42 40/40/42 60/61/42
f 62/62/43 63/63/43 57/57/43
f 62/62/44 57/57/44 33/34/44
f 62/62/45 64/64/45 63/63/45
f 62/62/46 33/34/46 64/64/46
f 65/65/47 60/61/47 66/66/47
f 66/66/48 39/39/48 65/65/48
f 66/66/49 60/61/49 40/40/49
f 66/66/50 40/40/50 39/39/50
f 38/38/51 40/40/51 67/67/51
f 68/68/52 29/29/52 69/69/52
f 70/70/53 30/30/53 57/57/53
f 70/70/54 57/57/54 63/63/54
f 68/68/55 30/30/55 29/29/55
f 71/71/56 56/56/56 57/57/56
f 34/33/57 64/64/57 33/34/57
f 36/37/58 67/67/58 40/40/58
f 70/70/59 31/31/59 30/30/59
f 72/72/60 9/9/60 8/8/60
f 72/72/61 8/8/61 21/21/61
f 36/37/62 37/36/62 67/67/62
f 73/73/63 74/74/63 45/45/63
f 74/74/64 8/8/64 45/45/64
f 75/75/65 39/39/65 76/76/65
f 77/77/66 69/69/66 29/29/66
f 78/78/67 5/5/67 4/4/67
f 29/29/68 31/31/68 79/79/68
f 74/74/69 73/73/69 61/60/69
f 78/78/70 33/34/70 56/56/70
f 78/78/71 4/4/71 33/34/71
f 80/80/72 5/5/72 78/78/72
f 56/56/73 80/80/73 78/78/73
f 53/53/74 60/61/74 58/58/74
f 65/65/75 59/59/75 60/61/75
f 44/44/76 35/35/76 10/10/76
f 81/81/77 37/36/77 55/55/77
f 82/82/78 38/38/78 67/67/78
f 83/83/79 39/39/79 38/38/79
f 83/83/80 76/76/80 39/39/80
f 84/84/81 55/55/81 51/51/81
f 84/84/82 51/51/82 52/52/82
f 84/84/83 52/52/83 85/85/83
f 86/86/84 67/67/84 37/36/84
f 37/36/85 81/81/85 86/86/85
f 28/28/86 87/87/86 27/27/86
f 28/28/87 5/5/87 87/87/87
f 28/28/88 6/6/88 5/5/88
f 28/28/89 3/3/89 25/25/89
f 28/28/90 25/25/90 6/6/90
f 72/72/91 12/12/91 9/9/91
f 44/44/92 7/7/92 3/3/92
f 44/44/93 10/10/93 7/7/93
f 74/74/94 61/60/94 18/18/94
f 27/27/95 88/88/95 89/89/95
f 48/48/96 88/88/96 47/47/96
f 90/90/97 91/91/97 52/52/97
f 90/90/98 69/69/98 91/91/98
f 85/85/99 52/52/99 91/91/99
f 27/27/100 87/87/100 88/88/100
f 87/87/101 92/92/101 88/88/101
f 92/92/102 90/90/102 52/52/102
f 92/92/103 52/52/103 50/50/103
f 59/59/104 18/18/104 61/60/104
f 59/59/105 19/19/105 18/18/105
f 12/12/106 72/72/106 13/13/106
f 21/21/107 22/22/107 72/72/107
f 72/72/108 22/22/108 13/13/108
f 2/2/109 24/24/109 3/3/109
f 75/75/110 65/65/110 39/39/110
f 65/65/111 75/75/111 59/59/111
f 93/93/112 69/69/112 90/90/112
f 90/90/113 94/94/113 93/93/113
f 92/92/114 87/87/114 90/90/114
f 27/27/115 44/44/115 3/3/115
f 89/89/116 44/44/116 27/27/116
f 42/43/117 44/44/117 48/48/117
f 44/44/118 89/89/118 88/88/118
f 88/88/119 48/48/119 44/44/119
f 73/73/120 45/45/120 58/58/120
f 58/58/121 61/60/121 73/73/121
f 58/58/122 60/61/122 61/60/122
f 46/46/123 47/47/123 54/54/123
f 54/54/124 55/55/124 46/46/124
f 46/46/125 55/55/125 37/36/125
f 74/74/126 21/21/126 8/8/126
f 74/74/127 18/18/127 21/21/127
f 71/71/128 93/93/128 94/94/128
f 71/71/129 94/94/129 56/56/129
f 56/56/130 94/94/130 80/80/130
f 41/41/131 46/46/131 35/35/131
f 46/46/132 37/36/132 35/35/132
f 50/50/133 88/88/133 92/92/133
f 88/88/134 50/50/134 47/47/134
f 15/15/135 14/14/135 16/16/135
f 16/16/136 12/12/136 15/15/136
f 1/1/137 3/3/137 16/16/137
f 32/32/138 1/1/138 16/16/138
f 16/16/139 23/23/139 32/32/139
f 12/12/140 7/7/140 9/9/140
f 7/7/141 16/16/141 3/3/141
f 16/16/142 7/7/142 12/12/142
f 54/54/143 49/49/143 51/51/143
f 49/49/144 54/54/144 47/47/144
f 77/77/145 91/91/145 69/69/145
f 68/68/146 93/93/146 71/71/146
f 68/68/147 69/69/147 93/93/147
f 68/68/148 57/57/148 30/30/148
f 71/71/149 57/57/149 68/68/149
f 94/94/150 90/90/150 87/87/150
f 80/80/151 94/94/151 5/5/151
f 94/94/152 87/87/152 5/5/152
f 38/38/153 82/82/153 83/83/153
