# Blender v2.79 (sub 0) OBJ File: ''
# www.blender.org
mtllib crack_only_1.mtl
o crack_only_1
v 2.844748 1.230742 -3.257790
v 2.849027 1.338833 -3.002643
v 2.811490 1.391939 -3.314611
v 2.846082 1.168136 -3.372368
v 2.829976 1.199289 -3.496407
v 2.873622 1.118912 -3.154939
v 2.892463 1.133666 -2.905935
vt 0.383683 0.385844
vt 1.000000 0.240952
vt 1.000000 0.775327
vt 0.049195 0.215509
vt 0.089670 0.000000
vt 0.000000 0.591636
vt 0.233144 1.000000
vn 0.9812 0.1711 -0.0889
vn 0.9814 0.1732 -0.0832
vn 0.9813 0.1733 -0.0839
vn 0.9812 0.1714 -0.0891
vn 0.9808 0.1755 -0.0845
vn 0.9821 0.1682 -0.0843
usemtl None
s off
f 1/1/1 3/2/1 2/3/1
f 1/1/2 4/4/2 3/2/2
f 5/5/3 3/2/3 4/4/3
f 6/6/4 1/1/4 2/3/4
f 1/1/5 6/6/5 4/4/5
f 7/7/6 6/6/6 2/3/6
