# Blender v2.79 (sub 0) OBJ File: ''
# www.blender.org
mtllib crack_only_174.mtl
o crack_only_174
v 3.096489 4.071443 -4.419301
v 3.059022 3.709677 -4.635622
v 3.125705 4.411787 -4.766816
v 2.765837 1.764509 -4.351144
v 2.897458 2.428772 -3.923726
v 2.869382 1.994916 -3.670557
v 2.800225 2.129910 -4.643150
v 3.134992 4.998785 -1.396203
v 3.149342 4.190588 -2.024744
v 3.141293 4.927637 -2.466670
v 3.044270 3.528369 -4.441140
v 3.068959 3.748466 -4.204156
v 2.795025 1.394326 -3.318808
v 2.755109 1.265406 -3.638311
v 2.669023 6.276520 -1.686142
v 2.731715 6.281823 -1.930060
v 2.856030 6.001714 -1.768678
v 2.545918 6.514116 -1.865025
v 2.566633 6.359293 -1.490741
v 3.169605 4.994400 -3.825459
v 3.154244 5.323295 -4.388151
v 3.162979 5.371119 -4.015530
v 3.080742 3.796034 -3.881895
v 3.033214 3.353621 -3.924674
v 3.155201 5.461752 -3.637964
v 3.058748 5.456972 -2.187710
v 3.040797 5.477705 -1.731735
v 2.794478 1.176888 -2.653478
v 2.803842 1.360103 -2.204446
v 2.836324 1.587067 -2.767877
v 3.000206 5.534081 -1.400241
v 3.059189 6.413069 -3.807785
v 3.123761 5.878399 -3.962486
v 3.100457 5.984808 -3.498371
v 3.147716 5.551496 -3.278465
v 3.039137 6.098171 -3.144019
v 3.091231 3.724689 -3.011649
v 2.989029 2.847759 -2.942270
v 2.964440 2.685936 -3.363293
v 3.127697 5.376416 -2.735334
v 3.136652 4.218564 -2.767652
v 3.075253 3.619086 -3.420903
v 2.948670 2.604582 -1.528689
v 2.974449 2.689827 -1.261541
v 2.879075 2.301025 -1.371798
v 2.792100 1.165355 -2.802496
v 2.966476 2.967550 -4.529369
v 2.883927 2.529692 -4.884796
v 3.026140 3.163192 -5.065651
v 3.018206 3.325986 -4.693938
v 3.150489 4.047469 -1.325964
v 2.748962 1.459005 -4.014524
v 2.780850 1.147660 -3.159064
v 3.055731 3.219706 -1.260611
v 2.906514 6.880901 -3.810678
v 2.971949 6.783449 -4.285799
v 2.988325 6.430369 -3.362899
v 2.773394 6.030917 -1.428910
v 2.830295 6.148577 -2.102014
v 2.431579 6.631772 -1.756754
v 3.155985 5.206048 -3.134933
v 3.141402 4.576498 -3.979741
v 3.014684 5.888821 -2.634342
v 3.053586 5.832164 -2.851542
v 3.091770 5.757810 -2.989849
v 3.109081 5.888949 -4.326427
v 2.924014 6.699087 -3.527217
v 2.896075 6.976261 -4.061514
v 2.886726 7.040357 -4.291207
v 3.087107 6.075062 -4.304894
v 2.655951 6.542254 -2.433373
v 2.945210 5.978785 -2.310190
v 2.789017 6.428124 -2.767740
v 3.149786 4.926990 -3.155316
v 2.874775 6.532356 -3.111767
v 3.020919 3.061208 -2.269126
v 2.867721 2.077939 -1.920075
v 3.065378 3.699466 -5.010937
v 2.997074 3.091186 -4.040869
v 2.825857 1.943088 -1.561485
v 2.940253 2.521693 -2.289298
v 2.805021 1.617640 -1.824238
v 2.362344 6.668509 -1.543534
vt 0.860709 0.479442
vt 0.903736 0.411484
vt 0.961987 0.530610
vt 0.762036 0.079839
vt 0.675629 0.205194
vt 0.595425 0.135546
vt 0.849922 0.136649
vt 0.114850 0.711000
vt 0.248934 0.555614
vt 0.387902 0.673772
vt 0.794099 0.428226
vt 0.847381 0.384441
vt 0.483859 0.039235
vt 0.561414 0.009450
vt 0.230560 0.927792
vt 0.243472 0.877630
vt 0.293879 0.922933
vt 0.284019 0.965280
vt 0.182515 0.946948
vt 0.740010 0.653836
vt 0.896002 0.698111
vt 0.801810 0.715064
vt 0.712876 0.443961
vt 0.708418 0.366000
vt 0.707719 0.739623
vt 0.333800 0.772613
vt 0.217072 0.786835
vt 0.305187 0.016787
vt 0.348950 0.085500
vt 0.195984 0.059095
vt 0.133466 0.804424
vt 0.783502 0.901592
vt 0.689427 0.834083
vt 0.805341 0.804738
vt 0.618247 0.763607
vt 0.601773 0.862171
vt 0.486554 0.451691
vt 0.437999 0.300751
vt 0.540639 0.262850
vt 0.472359 0.745743
vt 0.440987 0.543286
vt 0.588146 0.423838
vt 0.065665 0.291251
vt 0.000000 0.312243
vt 0.014463 0.242153
vt 0.343123 0.011328
vt 0.850376 0.284862
vt 0.926319 0.200515
vt 0.995441 0.306386
vt 0.905331 0.343378
vt 0.064216 0.546885
vt 0.664831 0.034462
vt 0.434203 0.000000
vt 0.018428 0.404401
vt 0.799402 0.983326
vt 0.918704 0.955201
vt 0.669197 0.915065
vt 0.156555 0.890763
vt 0.334136 0.895535
vt 0.259521 0.988517
vt 0.569505 0.706743
vt 0.765200 0.577520
vt 0.463291 0.837571
vt 0.517466 0.822587
vt 0.550730 0.806351
vt 0.899267 0.798167
vt 0.720324 0.958193
vt 0.867159 0.994142
vt 0.928409 1.000000
vt 0.899984 0.831130
vt 0.431884 0.956780
vt 0.382556 0.860899
vt 0.514794 0.928877
vt 0.565135 0.657673
vt 0.607404 0.938883
vt 0.272297 0.353477
vt 0.147824 0.190602
vt 1.000000 0.400990
vt 0.729097 0.317664
vt 0.050675 0.175512
vt 0.258494 0.259193
vt 0.106994 0.112770
vt 0.205506 1.000000
vn 0.9953 -0.0966 -0.0109
vn 0.9862 -0.1264 -0.1072
vn 0.9862 -0.1496 -0.0711
vn 0.9999 0.0139 0.0050
vn 0.9954 -0.0951 -0.0154
vn 0.9954 -0.0952 -0.0132
vn 0.9858 -0.1571 -0.0598
vn 0.8356 0.5009 0.2257
vn 0.7911 0.5723 0.2158
vn 0.8356 0.5008 0.2257
vn 0.9997 0.0054 -0.0241
vn 0.9943 -0.1048 -0.0209
vn 0.9996 0.0250 0.0146
vn 0.9768 0.2123 0.0288
vn 0.9877 0.1564 -0.0046
vn 0.9952 -0.0963 0.0186
vn 0.9667 0.2440 0.0769
vn 0.9933 0.1130 0.0240
vn 0.9402 0.3356 0.0581
vn 0.9944 0.1056 -0.0057
vn 0.9793 0.1659 0.1164
vn 0.9931 -0.1168 -0.0131
vn 0.9970 0.0769 0.0021
vn 0.9892 0.0961 0.1104
vn 0.9949 0.0967 0.0278
vn 0.9964 -0.0830 -0.0175
vn 0.9723 -0.2330 -0.0195
vn 0.9901 -0.1378 -0.0260
vn 0.9946 -0.1037 -0.0079
vn 0.9771 -0.2102 0.0320
vn 0.9914 -0.1110 0.0698
vn 0.9999 0.0164 0.0017
vn 0.9826 -0.1595 -0.0955
vn 0.9944 -0.1021 -0.0263
vn 0.9874 -0.1514 -0.0470
vn 0.9951 -0.0986 -0.0121
vn 0.9484 0.3099 0.0670
vn 0.9717 0.2143 0.0996
vn 0.9689 0.1993 0.1466
vn 0.8230 0.5470 0.1531
vn 0.8732 0.4673 0.1385
vn 0.7918 0.5719 0.2147
vn 0.9995 0.0295 0.0134
vn 0.9996 0.0261 0.0117
vn 0.9954 -0.0839 0.0454
vn 0.9738 0.1902 0.1248
vn 0.9759 0.1967 0.0939
vn 0.9670 0.1982 0.1604
vn 0.9959 0.0832 -0.0340
vn 0.9411 0.3080 0.1394
vn 0.9537 0.2922 0.0714
vn 0.9477 0.3154 0.0494
vn 0.9919 0.1213 -0.0365
vn 0.9960 0.0810 -0.0378
vn 0.8661 0.4851 0.1206
vn 0.7921 0.5826 0.1822
vn 0.9911 0.1290 -0.0320
vn 0.9853 0.1617 -0.0546
vn 0.8591 0.4799 0.1781
vn 0.9999 0.0007 -0.0171
vn 0.9999 -0.0118 0.0123
vn 0.8942 0.3148 0.3183
vn 0.9049 0.3219 0.2784
vn 0.9996 -0.0252 -0.0147
vn 0.9998 -0.0196 -0.0019
vn 0.9966 -0.0804 -0.0198
vn 0.9974 -0.0471 -0.0548
vn 0.9962 -0.0865 -0.0024
vn 0.9966 -0.0798 -0.0188
vn 0.9962 -0.0872 -0.0016
vn 0.9965 -0.0805 -0.0245
vn 0.9939 -0.1079 -0.0237
vn 0.9932 -0.1150 -0.0162
vn 0.8939 0.3693 0.2542
vn 0.9409 0.3095 0.1378
vn 0.7833 0.5946 0.1811
vn 0.9952 -0.0960 0.0187
vn 0.9945 -0.1027 -0.0203
vn 0.9906 -0.1163 0.0721
vn 0.9970 -0.0749 0.0189
vn 0.9957 -0.0910 0.0193
vn 0.9866 -0.1565 -0.0461
vn 0.9920 -0.1052 -0.0703
vn 0.9917 -0.1270 -0.0211
vn 0.8914 0.3563 0.2801
vn 0.9826 -0.1582 -0.0975
vn 0.9117 0.4022 0.0838
vn 0.9154 0.3979 0.0602
vn 0.9837 -0.1727 0.0499
vn 0.9908 -0.1299 0.0385
vn 0.9918 -0.1247 -0.0268
vn 0.9942 -0.1041 -0.0281
vn 0.9909 -0.1087 -0.0799
vn 0.9953 -0.0860 -0.0445
vn 0.9604 0.2415 0.1388
vn 0.9902 -0.1202 0.0704
vn 0.9899 -0.1187 0.0774
vn 0.9646 0.2170 0.1497
vn 0.9818 0.1798 0.0618
vn 0.9888 -0.1489 -0.0005
vn 0.9936 -0.1131 0.0051
vn 0.8095 0.5632 0.1658
vn 0.8014 0.5710 0.1780
vn 0.9919 -0.1229 -0.0310
vn 0.9880 -0.1527 -0.0232
vn 0.9907 -0.1337 -0.0240
vn 0.9903 -0.1388 0.0090
vn 0.9808 -0.1872 -0.0548
vn 0.9804 -0.1965 0.0144
vn 0.9857 -0.1683 -0.0076
vn 0.9890 -0.1479 0.0000
vn 0.9888 -0.1484 0.0158
vn 0.9893 -0.1410 0.0369
vn 0.9654 -0.2534 -0.0621
vn 0.9927 -0.1191 -0.0201
vn 0.9929 -0.1184 -0.0082
vn 0.8763 0.4715 0.0991
vn 0.8868 0.4442 0.1272
vn 0.9308 0.3380 0.1390
vn 0.9753 0.2189 0.0284
vn 0.8907 0.4171 0.1808
vn 0.9939 -0.1085 -0.0211
vn 0.9954 -0.0958 0.0086
vn 0.9931 -0.1165 -0.0101
vn 0.9998 -0.0222 -0.0007
vn 0.9997 -0.0231 0.0123
vn 0.9973 0.0577 0.0460
vn 0.9877 0.0796 0.1346
vn 0.9937 0.1094 0.0237
usemtl None
s off
f 1/1/1 2/2/1 3/3/1
f 4/4/2 5/5/2 6/6/2
f 4/4/3 7/7/3 5/5/3
f 8/8/4 9/9/4 10/10/4
f 12/11/5 11/12/5 1/1/5
f 11/12/6 2/2/6 1/1/6
f 13/13/7 14/14/7 6/6/7
f 15/15/8 17/16/8 16/17/8
f 16/17/9 18/18/9 15/15/9
f 19/19/10 17/16/10 15/15/10
f 20/20/11 21/21/11 22/22/11
f 12/11/12 23/23/12 24/24/12
f 20/20/13 22/22/13 25/25/13
f 26/26/14 27/27/14 8/8/14
f 26/26/15 8/8/15 10/10/15
f 28/28/16 30/29/16 29/30/16
f 27/27/17 31/31/17 8/8/17
f 32/32/18 34/33/18 33/34/18
f 27/27/19 17/16/19 31/31/19
f 35/35/20 25/25/20 34/33/20
f 36/36/21 35/35/21 34/33/21
f 37/37/22 38/38/22 39/39/22
f 22/22/23 33/34/23 25/25/23
f 26/26/24 10/10/24 40/40/24
f 34/33/25 25/25/25 33/34/25
f 41/41/26 37/37/26 42/42/26
f 43/43/27 44/44/27 45/45/27
f 13/13/28 6/6/28 30/29/28
f 46/46/29 30/29/29 28/28/29
f 47/47/30 48/48/30 49/49/30
f 50/50/31 47/47/31 49/49/31
f 51/51/32 9/9/32 8/8/32
f 52/52/33 4/4/33 6/6/33
f 46/46/34 53/53/34 30/29/34
f 43/43/35 54/54/35 44/44/35
f 11/12/36 12/11/36 24/24/36
f 55/55/37 32/32/37 56/56/37
f 57/57/38 36/36/38 34/33/38
f 57/57/39 34/33/39 32/32/39
f 58/58/40 17/16/40 19/19/40
f 59/59/41 16/17/41 17/16/41
f 60/60/42 15/15/42 18/18/42
f 61/61/43 25/25/43 35/35/43
f 61/61/44 20/20/44 25/25/44
f 62/62/45 20/20/45 61/61/45
f 63/63/46 40/40/46 64/64/46
f 63/63/47 26/26/47 40/40/47
f 65/65/48 64/64/48 40/40/48
f 66/66/49 22/22/49 21/21/49
f 67/67/50 32/32/50 55/55/50
f 68/68/51 55/55/51 56/56/51
f 56/56/52 69/69/52 68/68/52
f 66/66/53 70/70/53 33/34/53
f 66/66/54 33/34/54 22/22/54
f 59/59/55 71/71/55 16/17/55
f 18/18/56 16/17/56 71/71/56
f 70/70/57 32/32/57 33/34/57
f 70/70/58 56/56/58 32/32/58
f 72/72/59 73/73/59 71/71/59
f 41/41/60 10/10/60 9/9/60
f 74/74/61 10/10/61 41/41/61
f 73/73/62 36/36/62 75/75/62
f 57/57/63 75/75/63 36/36/63
f 3/3/64 21/21/64 62/62/64
f 41/41/65 62/62/65 74/74/65
f 42/42/66 62/62/66 41/41/66
f 20/20/67 62/62/67 21/21/67
f 1/1/68 62/62/68 12/11/68
f 23/23/69 62/62/69 42/42/69
f 1/1/70 3/3/70 62/62/70
f 23/23/71 12/11/71 62/62/71
f 51/51/72 76/76/72 9/9/72
f 76/76/73 51/51/73 54/54/73
f 67/67/74 75/75/74 57/57/74
f 67/67/75 57/57/75 32/32/75
f 60/60/76 18/18/76 71/71/76
f 77/77/77 29/30/77 30/29/77
f 11/12/78 50/50/78 2/2/78
f 50/50/79 49/49/79 2/2/79
f 78/78/80 2/2/80 49/49/80
f 2/2/81 78/78/81 3/3/81
f 5/5/82 79/79/82 39/39/82
f 5/5/83 39/39/83 6/6/83
f 39/39/84 30/29/84 6/6/84
f 64/64/85 36/36/85 73/73/85
f 14/14/86 52/52/86 6/6/86
f 72/72/87 63/63/87 73/73/87
f 64/64/88 73/73/88 63/63/88
f 77/77/89 45/45/89 80/80/89
f 81/81/90 77/77/90 30/29/90
f 79/79/91 24/24/91 39/39/91
f 24/24/92 23/23/92 42/42/92
f 13/13/93 53/53/93 14/14/93
f 53/53/94 13/13/94 30/29/94
f 63/63/95 72/72/95 26/26/95
f 82/82/96 77/77/96 80/80/96
f 77/77/97 82/82/97 29/30/97
f 64/64/98 65/65/98 36/36/98
f 65/65/99 35/35/99 36/36/99
f 81/81/100 39/39/100 38/38/100
f 81/81/101 30/29/101 39/39/101
f 83/83/102 19/19/102 60/60/102
f 60/60/103 19/19/103 15/15/103
f 47/47/104 24/24/104 79/79/104
f 47/47/105 79/79/105 5/5/105
f 47/47/106 11/12/106 24/24/106
f 47/47/107 50/50/107 11/12/107
f 47/47/108 5/5/108 7/7/108
f 47/47/109 7/7/109 48/48/109
f 43/43/110 76/76/110 54/54/110
f 76/76/111 81/81/111 38/38/111
f 77/77/112 81/81/112 76/76/112
f 77/77/113 76/76/113 45/45/113
f 45/45/114 76/76/114 43/43/114
f 24/24/115 42/42/115 39/39/115
f 37/37/116 39/39/116 42/42/116
f 59/59/117 72/72/117 71/71/117
f 72/72/118 59/59/118 17/16/118
f 72/72/119 17/16/119 27/27/119
f 72/72/120 27/27/120 26/26/120
f 58/58/121 31/31/121 17/16/121
f 76/76/122 41/41/122 9/9/122
f 41/41/123 76/76/123 37/37/123
f 37/37/124 76/76/124 38/38/124
f 61/61/125 74/74/125 62/62/125
f 74/74/126 61/61/126 10/10/126
f 61/61/127 40/40/127 10/10/127
f 65/65/128 61/61/128 35/35/128
f 65/65/129 40/40/129 61/61/129
