# Blender v2.79 (sub 0) OBJ File: ''
# www.blender.org
mtllib crack_only_189.mtl
o crack_only_189
v 3.092256 4.071848 -4.421031
v 3.057607 3.710922 -4.635676
v 3.125910 4.411722 -4.766949
v 3.040451 3.529264 -4.438272
v 3.061676 3.745163 -4.204354
v 3.140018 4.927915 -2.466924
v 2.924881 5.906524 -2.122351
v 3.077188 5.645820 -2.896957
v 2.769187 1.764192 -4.353258
v 2.892082 2.428056 -3.924419
v 2.866254 1.996062 -3.671016
v 2.802120 2.128390 -4.643363
v 3.134992 4.998785 -1.396203
v 3.144270 4.190368 -2.024029
v 3.131805 4.583643 -3.956735
v 3.152560 5.323416 -4.388219
v 3.140725 5.465119 -3.635807
v 2.790430 1.392250 -3.320814
v 2.752913 1.270782 -3.646478
v 2.843688 6.278440 -2.778642
v 3.039793 6.083905 -3.137815
v 2.794763 7.008976 -3.908056
v 2.712643 6.939758 -3.479248
v 3.035423 6.410872 -3.810930
v 2.665032 5.965026 -1.443478
v 2.560591 6.468216 -1.865667
v 3.071579 3.790741 -3.890816
v 3.024623 3.360575 -3.936256
v 3.107923 5.915935 -3.989181
v 3.099157 5.884936 -4.326312
v 3.092052 3.926895 -3.459468
v 3.122384 4.220263 -2.760592
v 2.562231 6.605594 -2.330964
v 2.758213 6.358836 -2.397505
v 3.097600 5.923832 -3.507977
v 2.790617 1.177785 -2.652811
v 2.802746 1.360218 -2.204424
v 2.835310 1.587437 -2.767993
v 3.102490 3.932940 -2.479861
v 3.064037 3.455649 -1.938399
v 3.074754 3.536007 -1.668272
v 2.965096 2.967854 -4.528655
v 2.885505 2.527877 -4.885160
v 3.022630 3.163936 -5.064942
v 3.017235 3.325529 -4.694103
v 3.117357 4.023336 -1.332482
v 2.749707 1.458898 -4.015047
v 2.817073 1.684008 -1.946144
v 2.805442 1.617569 -1.824212
v 2.827614 1.942324 -1.561745
v 2.966832 6.613843 -4.279552
v 3.040958 6.310808 -4.276590
v 2.503929 6.770226 -2.590240
v 2.804560 6.555642 -3.093040
v 2.921937 6.429739 -3.402411
v 2.691704 6.648644 -2.902999
v 2.588424 6.909534 -3.163003
v 2.507292 7.214333 -3.563853
v 2.459590 7.348998 -3.888509
v 2.816408 7.064117 -4.287745
v 2.297449 7.009735 -2.658488
v 2.137833 7.114545 -2.569608
v 2.347677 7.085437 -2.987387
v 2.142461 7.020317 -2.269998
v 2.022220 7.136299 -2.332785
v 2.332085 6.827859 -2.203486
v 1.832278 7.156583 -1.931835
v 2.370702 6.642089 -1.703922
v 2.183645 6.830238 -1.636468
v 3.044828 3.217615 -1.263425
v 2.386414 7.425110 -4.251488
v 3.017072 3.110867 -2.155646
v 2.528479 6.875196 -2.917692
v 3.066679 3.699576 -5.011551
v 2.351583 6.574917 -1.537286
v 2.863670 2.030856 -2.285960
v 2.879075 2.301026 -1.371798
v 2.988424 3.090736 -4.048841
v 2.952668 2.685509 -3.364406
v 3.068070 3.650867 -3.218790
v 2.972751 2.690052 -1.261906
v 2.776208 1.150605 -3.110878
v 2.978093 2.855616 -2.921458
vt 0.858075 0.449666
vt 0.902982 0.387379
vt 0.957610 0.498546
vt 0.792387 0.400611
vt 0.846550 0.361473
vt 0.377344 0.623301
vt 0.508626 0.732451
vt 0.314319 0.789207
vt 0.771653 0.077506
vt 0.680762 0.192439
vt 0.602597 0.126921
vt 0.857436 0.131333
vt 0.102263 0.653915
vt 0.241660 0.511428
vt 0.752928 0.540879
vt 0.885941 0.653216
vt 0.695196 0.689684
vt 0.494029 0.035434
vt 0.574495 0.010059
vt 0.494083 0.838223
vt 0.583167 0.799439
vt 0.806823 0.936900
vt 0.693164 0.933639
vt 0.766668 0.840545
vt 0.138056 0.811861
vt 0.260798 0.886459
vt 0.712645 0.413560
vt 0.711679 0.343097
vt 0.799257 0.756713
vt 0.885531 0.745706
vt 0.605103 0.443273
vt 0.432922 0.503241
vt 0.385148 0.900463
vt 0.397013 0.858417
vt 0.674874 0.766616
vt 0.315034 0.012520
vt 0.356957 0.076798
vt 0.204336 0.050085
vt 0.351879 0.461675
vt 0.197768 0.393988
vt 0.130262 0.411807
vt 0.853208 0.269015
vt 0.932169 0.191547
vt 0.998096 0.291058
vt 0.906715 0.323928
vt 0.057695 0.496745
vt 0.675225 0.034045
vt 0.146897 0.107202
vt 0.054915 0.155953
vt 0.113342 0.098636
vt 0.893144 0.865424
vt 0.884349 0.815975
vt 0.456444 0.922807
vt 0.583033 0.877784
vt 0.660507 0.851351
vt 0.535534 0.896730
vt 0.609382 0.934873
vt 0.721126 0.977545
vt 0.808574 0.993816
vt 0.906841 0.938997
vt 0.479159 0.961316
vt 0.566873 0.967541
vt 0.457768 0.980566
vt 0.377582 0.970589
vt 0.396100 0.988788
vt 0.356516 0.939757
vt 0.291270 1.000000
vt 0.222265 0.918343
vt 0.208564 0.950853
vt 0.016125 0.367450
vt 0.904041 1.000000
vt 0.243703 0.334326
vt 0.544397 0.933914
vt 1.000000 0.378800
vt 0.177055 0.910485
vt 0.245166 0.157271
vt 0.016481 0.217370
vt 0.732770 0.297425
vt 0.543749 0.243977
vt 0.534713 0.402844
vt 0.000000 0.282113
vt 0.432663 0.000000
vt 0.434221 0.279389
vn 0.9953 -0.0967 0.0019
vn 0.9955 -0.0950 -0.0027
vn 0.9766 0.1669 0.1359
vn 0.9879 -0.1180 -0.1005
vn 0.9879 -0.1410 -0.0648
vn 1.0000 0.0083 0.0041
vn 0.9997 -0.0170 0.0189
vn 0.9996 -0.0287 -0.0012
vn 0.9759 0.2180 -0.0098
vn 0.9955 -0.0950 -0.0009
vn 0.9862 -0.1560 -0.0554
vn 0.8993 0.2672 0.3463
vn 0.8882 0.3954 0.2339
vn 0.8578 0.4230 0.2919
vn 0.9941 -0.1068 -0.0159
vn 0.9945 0.0984 -0.0349
vn 0.9973 0.0739 0.0018
vn 0.9962 -0.0864 0.0104
vn 0.9974 -0.0707 -0.0136
vn 0.8592 0.4898 0.1476
vn 0.7726 0.5126 0.3746
vn 0.9861 0.1364 0.0950
vn 0.9949 0.0748 0.0673
vn 0.9064 0.4056 0.1177
vn 0.9400 0.3334 0.0726
vn 0.9944 -0.1041 0.0155
vn 0.9902 0.1382 0.0190
vn 0.9933 -0.1117 -0.0279
vn 0.9967 -0.0776 -0.0228
vn 0.9959 0.0881 0.0199
vn 0.9894 -0.1418 -0.0303
vn 0.9940 -0.1093 -0.0069
vn 0.9961 -0.0872 0.0113
vn 0.9968 -0.0774 -0.0202
vn 0.9788 -0.2022 0.0311
vn 0.9913 -0.1147 0.0644
vn 0.9993 -0.0158 0.0351
vn 0.9836 -0.1582 -0.0862
vn 0.9941 -0.1003 0.0402
vn 0.9953 -0.0967 -0.0011
vn 0.9953 -0.0835 0.0494
vn 0.9258 0.3770 0.0278
vn 0.9894 0.1397 -0.0386
vn 0.9881 0.1523 -0.0210
vn 0.8332 0.5484 0.0712
vn 0.9707 0.2371 -0.0394
vn 0.9002 0.3965 0.1802
vn 0.8130 0.5397 0.2186
vn 0.7661 0.5375 0.3523
vn 0.8318 0.4504 0.3243
vn 0.8890 0.4278 0.1632
vn 0.8487 0.4446 0.2864
vn 0.8749 0.4121 0.2545
vn 0.7056 0.6852 0.1805
vn 0.7091 0.6909 0.1408
vn 0.6279 0.7320 0.2644
vn 0.6197 0.7514 0.2267
vn 0.6113 0.7576 0.2288
vn 0.9995 -0.0124 -0.0302
vn 0.6305 0.7208 0.2879
vn 0.7002 0.7125 -0.0457
vn 0.6192 0.7504 0.2312
vn 0.9945 -0.1042 -0.0085
vn 0.7394 0.6279 0.2430
vn 0.6442 0.7643 0.0304
vn 0.9997 -0.0250 0.0003
vn 0.9943 -0.0452 0.0966
vn 0.9970 0.0738 -0.0225
vn 0.9942 -0.1017 -0.0337
vn 0.9968 -0.0789 -0.0101
vn 0.9928 -0.1155 -0.0313
vn 0.6028 0.7587 0.2472
vn 0.7730 0.5744 0.2693
vn 0.7794 0.5773 0.2435
vn 0.6875 0.6777 0.2610
vn 0.6868 0.6777 0.2627
vn 0.8549 0.4300 0.2902
vn 0.9947 -0.1029 -0.0083
vn 0.9915 -0.1136 0.0639
vn 0.9961 -0.0846 0.0266
vn 0.9954 -0.0920 0.0268
vn 0.7801 0.4892 0.3900
vn 0.8336 0.4724 0.2861
vn 0.7464 0.6376 0.1909
vn 0.7339 0.6532 0.1862
vn 0.7262 0.6047 0.3271
vn 0.9837 -0.1567 -0.0885
vn 0.9871 -0.1574 0.0299
vn 0.9879 -0.1507 -0.0376
vn 0.9933 -0.0964 -0.0631
vn 0.9931 -0.1162 -0.0186
vn 0.9920 -0.1241 -0.0216
vn 0.9942 -0.1071 -0.0134
vn 0.9931 -0.1168 -0.0129
vn 0.9945 -0.1027 -0.0187
vn 0.6940 0.6720 0.2586
vn 0.6909 0.6718 0.2671
vn 0.6662 0.7215 0.1885
vn 0.7931 0.5789 0.1892
vn 0.7394 0.6311 0.2345
vn 0.9742 -0.2191 -0.0548
vn 0.9893 -0.1436 0.0258
vn 0.9451 0.3268 0.0062
vn 0.9304 0.2717 0.2459
vn 0.8881 0.3989 0.2283
vn 0.9951 -0.0975 0.0152
vn 0.9960 -0.0894 0.0033
vn 0.9905 -0.1189 -0.0698
vn 0.9941 -0.0984 -0.0460
vn 0.9432 0.3169 0.0998
vn 0.7018 0.6283 0.3357
vn 0.7028 0.6276 0.3349
vn 0.9954 -0.0952 -0.0100
vn 0.9944 -0.1057 -0.0060
vn 0.9931 -0.1167 -0.0116
vn 0.9931 -0.1169 -0.0121
vn 0.9930 -0.1152 -0.0244
vn 0.9920 -0.1251 -0.0159
vn 0.9907 -0.1354 -0.0146
vn 0.9902 -0.1398 -0.0031
vn 0.9901 -0.1402 -0.0037
vn 0.9946 -0.0967 0.0377
vn 0.9952 -0.0843 0.0504
vn 0.9959 -0.0878 0.0222
vn 0.9954 -0.0922 0.0262
vn 0.9918 -0.1265 -0.0158
vn 0.9893 -0.1458 -0.0107
vn 0.9913 -0.1310 -0.0128
vn 0.9906 -0.1359 0.0183
vn 0.9818 -0.1843 -0.0460
vn 0.9810 -0.1931 0.0193
usemtl None
s off
f 1/1/1 2/2/1 3/3/1
f 5/4/2 4/5/2 1/1/2
f 6/6/3 8/7/3 7/8/3
f 9/9/4 10/10/4 11/11/4
f 9/9/5 12/12/5 10/10/5
f 13/13/6 14/14/6 6/6/6
f 15/15/7 16/16/7 17/17/7
f 3/3/8 16/16/8 15/15/8
f 13/13/9 6/6/9 7/8/9
f 4/5/10 2/2/10 1/1/10
f 18/18/11 19/19/11 11/11/11
f 20/20/12 8/7/12 21/21/12
f 22/22/13 23/23/13 24/24/13
f 25/25/14 7/8/14 26/26/14
f 5/4/15 27/27/15 28/28/15
f 29/29/16 16/16/16 30/30/16
f 29/29/17 17/17/17 16/16/17
f 1/1/18 15/15/18 5/4/18
f 31/31/19 15/15/19 32/32/19
f 7/8/20 33/33/20 26/26/20
f 33/33/21 7/8/21 34/34/21
f 21/21/22 8/7/22 35/35/22
f 35/35/23 8/7/23 17/17/23
f 20/20/24 34/34/24 7/8/24
f 20/20/25 7/8/25 8/7/25
f 36/36/26 38/37/26 37/38/26
f 24/24/27 35/35/27 29/29/27
f 39/39/28 14/14/28 40/40/28
f 27/27/29 15/15/29 31/31/29
f 35/35/30 17/17/30 29/29/30
f 18/18/31 11/11/31 38/37/31
f 40/40/32 14/14/32 41/41/32
f 1/1/33 3/3/33 15/15/33
f 27/27/34 5/4/34 15/15/34
f 42/42/35 43/43/35 44/44/35
f 45/45/36 42/42/36 44/44/36
f 46/46/37 14/14/37 13/13/37
f 47/47/38 9/9/38 11/11/38
f 48/48/39 50/49/39 49/50/39
f 4/5/40 5/4/40 28/28/40
f 49/50/41 37/38/41 48/48/41
f 51/51/42 22/22/42 24/24/42
f 52/52/43 29/29/43 30/30/43
f 52/52/44 24/24/44 29/29/44
f 53/53/45 34/34/45 20/20/45
f 52/52/46 51/51/46 24/24/46
f 54/54/47 55/55/47 23/23/47
f 56/56/48 54/54/48 57/57/48
f 54/54/49 23/23/49 57/57/49
f 56/56/50 53/53/50 20/20/50
f 55/55/51 54/54/51 21/21/51
f 56/56/52 20/20/52 54/54/52
f 54/54/53 20/20/53 21/21/53
f 58/58/54 22/22/54 59/59/54
f 60/60/55 59/59/55 22/22/55
f 61/61/56 63/62/56 62/63/56
f 62/63/57 64/64/57 61/61/57
f 62/63/58 65/65/58 64/64/58
f 32/32/59 6/6/59 14/14/59
f 66/66/60 64/64/60 67/67/60
f 68/68/61 67/67/61 69/69/61
f 68/68/62 66/66/62 67/67/62
f 41/41/63 70/70/63 40/40/63
f 58/58/64 23/23/64 22/22/64
f 60/60/65 71/71/65 59/59/65
f 15/15/66 6/6/66 32/32/66
f 15/15/67 17/17/67 8/7/67
f 15/15/68 8/7/68 6/6/68
f 39/39/69 32/32/69 14/14/69
f 39/39/70 31/31/70 32/32/70
f 39/39/71 40/40/71 72/72/71
f 65/65/72 67/67/72 64/64/72
f 57/57/73 73/73/73 56/56/73
f 73/73/74 53/53/74 56/56/74
f 63/62/75 61/61/75 73/73/75
f 63/62/76 73/73/76 57/57/76
f 25/25/77 13/13/77 7/8/77
f 4/5/78 45/45/78 2/2/78
f 45/45/79 44/44/79 2/2/79
f 74/74/80 2/2/80 44/44/80
f 2/2/81 74/74/81 3/3/81
f 68/68/82 25/25/82 26/26/82
f 68/68/83 75/75/83 25/25/83
f 26/26/84 33/33/84 68/68/84
f 66/66/85 68/68/85 33/33/85
f 68/68/86 69/69/86 75/75/86
f 19/19/87 47/47/87 11/11/87
f 76/76/88 77/77/88 50/49/88
f 10/10/89 78/78/89 79/79/89
f 10/10/90 79/79/90 11/11/90
f 79/79/91 38/37/91 11/11/91
f 78/78/92 28/28/92 79/79/92
f 28/28/93 27/27/93 31/31/93
f 28/28/94 80/80/94 79/79/94
f 28/28/95 31/31/95 80/80/95
f 53/53/96 61/61/96 64/64/96
f 73/73/97 61/61/97 53/53/97
f 53/53/98 64/64/98 66/66/98
f 53/53/99 33/33/99 34/34/99
f 53/53/100 66/66/100 33/33/100
f 77/77/101 72/72/101 81/81/101
f 76/76/102 72/72/102 77/77/102
f 55/55/103 21/21/103 35/35/103
f 55/55/104 35/35/104 24/24/104
f 55/55/105 24/24/105 23/23/105
f 46/46/106 41/41/106 14/14/106
f 41/41/107 46/46/107 70/70/107
f 18/18/108 82/82/108 19/19/108
f 82/82/109 18/18/109 38/37/109
f 51/51/110 60/60/110 22/22/110
f 58/58/111 57/57/111 23/23/111
f 63/62/112 57/57/112 58/58/112
f 39/39/113 80/80/113 31/31/113
f 39/39/114 72/72/114 80/80/114
f 80/80/115 72/72/115 83/83/115
f 80/80/116 83/83/116 79/79/116
f 82/82/117 38/37/117 36/36/117
f 40/40/118 70/70/118 72/72/118
f 81/81/119 72/72/119 70/70/119
f 76/76/120 79/79/120 83/83/120
f 72/72/121 76/76/121 83/83/121
f 48/48/122 76/76/122 50/49/122
f 76/76/123 48/48/123 37/38/123
f 76/76/124 37/38/124 38/37/124
f 79/79/125 76/76/125 38/37/125
f 42/42/126 28/28/126 78/78/126
f 42/42/127 78/78/127 10/10/127
f 42/42/128 4/5/128 28/28/128
f 42/42/129 45/45/129 4/5/129
f 42/42/130 10/10/130 12/12/130
f 42/42/131 12/12/131 43/43/131
