# Blender v2.79 (sub 0) OBJ File: ''
# www.blender.org
mtllib crack_only_48.mtl
o crack_only_48
v 2.985359 2.061526 -3.324081
v 2.871666 1.577498 -2.965168
v 2.910185 1.808194 -3.367558
v 2.827785 1.760957 -3.899294
v 2.830338 1.630742 -3.661449
v 2.748950 1.493998 -4.058033
v 2.897846 1.723353 -2.705514
v 2.872161 1.802790 -2.380668
v 2.873273 1.471466 -2.483178
v 2.842867 1.361527 -2.195419
v 2.872269 1.244284 -2.465935
v 2.877766 1.402574 -2.734090
v 2.863989 1.365873 -2.966948
v 2.823771 1.700003 -2.067173
v 2.838777 1.841985 -2.092360
v 2.769298 1.353505 -3.824980
v 2.810324 1.635587 -2.009469
v 2.797771 1.502142 -2.004734
v 2.869904 1.159527 -2.665508
v 2.850996 1.122307 -3.133007
v 2.985735 2.103971 -2.846415
v 2.935120 2.066984 -2.465428
v 2.951626 2.001803 -2.655524
v 2.902094 1.906134 -3.661044
v 2.809571 1.932617 -1.946219
v 2.851311 1.983159 -2.067358
v 2.832587 1.357490 -3.297244
v 2.823589 1.170592 -3.356149
v 2.808189 1.755739 -1.966318
v 2.746160 1.639026 -1.814363
v 2.741047 1.587577 -4.141909
v 2.735947 1.799612 -1.694308
v 2.790833 1.232411 -3.600405
vt 0.002438 0.655003
vt 0.543970 0.525094
vt 0.267623 0.680580
vt 0.279431 0.896689
vt 0.433640 0.804924
vt 0.549084 0.969433
vt 0.413459 0.414998
vt 0.362663 0.280099
vt 0.694499 0.333465
vt 0.835826 0.220274
vt 0.929792 0.334542
vt 0.743190 0.437713
vt 0.762358 0.533236
vt 0.500853 0.155964
vt 0.350959 0.161337
vt 0.711474 0.880228
vt 0.573593 0.134670
vt 0.712665 0.137320
vt 1.000000 0.418442
vt 1.000000 0.609047
vt 0.000000 0.459827
vt 0.076583 0.305955
vt 0.125375 0.385583
vt 0.142422 0.795976
vt 0.273600 0.098447
vt 0.206509 0.146355
vt 0.745935 0.667009
vt 0.934098 0.697415
vt 0.453963 0.112869
vt 0.594038 0.054534
vt 0.446455 1.000000
vt 0.440358 0.000000
vt 0.853046 0.793786
vn 0.9596 -0.2736 -0.0650
vn 0.9693 -0.2113 -0.1261
vn 0.9962 -0.0227 0.0843
vn 0.9943 0.0037 0.1065
vn 0.9998 -0.0030 0.0187
vn 0.9979 -0.0357 -0.0534
vn 0.9938 0.0142 0.1104
vn 0.9894 -0.0399 0.1396
vn 0.9887 -0.0822 0.1257
vn 0.9797 -0.1219 -0.1590
vn 0.9788 -0.0219 0.2036
vn 0.9553 -0.0798 0.2847
vn 0.9995 -0.0319 0.0017
vn 0.9983 -0.0146 -0.0568
vn 0.9873 -0.1033 0.1211
vn 0.9717 -0.1842 0.1475
vn 0.9763 -0.2157 0.0184
vn 0.9760 -0.2167 0.0233
vn 0.9773 -0.2008 0.0672
vn 0.9692 -0.2102 0.1280
vn 0.9618 -0.2505 -0.1101
vn 0.9573 -0.2492 -0.1467
vn 0.9576 -0.2645 -0.1147
vn 0.9528 -0.1329 0.2729
vn 0.9855 -0.1104 0.1291
vn 0.9954 0.0116 -0.0949
vn 0.9923 -0.0088 -0.1238
vn 0.9699 -0.1776 0.1668
vn 0.9451 -0.0954 0.3125
vn 0.9466 -0.0780 0.3127
vn 0.9708 -0.0614 0.2321
vn 0.9856 -0.0267 0.1670
vn 0.9830 -0.0463 0.1774
vn 0.9598 -0.1381 -0.2445
vn 0.9984 -0.0427 -0.0370
vn 0.9681 -0.1075 0.2262
vn 0.9369 -0.0467 0.3466
vn 0.9797 -0.1216 -0.1595
vn 0.9950 -0.0353 -0.0937
vn 0.9704 -0.1903 -0.1488
vn 0.9854 -0.1702 -0.0032
vn 0.9896 -0.1120 -0.0901
vn 0.9909 -0.0054 -0.1343
vn 0.9919 -0.1237 -0.0305
vn 0.9991 0.0429 0.0061
usemtl None
s off
f 1/1/1 2/2/1 3/3/1
f 4/4/2 5/5/2 6/6/2
f 7/7/3 8/8/3 9/9/3
f 10/10/4 11/11/4 9/9/4
f 11/11/5 12/12/5 9/9/5
f 13/13/6 2/2/6 12/12/6
f 14/14/7 10/10/7 9/9/7
f 14/14/8 9/9/8 8/8/8
f 14/14/9 8/8/9 15/15/9
f 5/5/10 16/16/10 6/6/10
f 14/14/11 17/17/11 10/10/11
f 18/18/12 10/10/12 17/17/12
f 19/19/13 12/12/13 11/11/13
f 20/20/14 13/13/14 12/12/14
f 21/21/15 22/22/15 23/23/15
f 23/23/16 22/22/16 8/8/16
f 1/1/17 21/21/17 2/2/17
f 7/7/18 2/2/18 21/21/18
f 7/7/19 21/21/19 23/23/19
f 23/23/20 8/8/20 7/7/20
f 24/24/21 3/3/21 5/5/21
f 24/24/22 5/5/22 4/4/22
f 24/24/23 1/1/23 3/3/23
f 25/25/24 15/15/24 26/26/24
f 26/26/25 15/15/25 8/8/25
f 20/20/26 27/27/26 13/13/26
f 27/27/27 20/20/27 28/28/27
f 22/22/28 26/26/28 8/8/28
f 17/17/29 29/29/29 30/30/29
f 17/17/30 30/30/30 18/18/30
f 15/15/31 25/25/31 14/14/31
f 25/25/32 29/29/32 14/14/32
f 29/29/33 17/17/33 14/14/33
f 31/31/34 4/4/34 6/6/34
f 19/19/35 20/20/35 12/12/35
f 25/25/36 32/32/36 30/30/36
f 25/25/37 30/30/37 29/29/37
f 33/33/38 16/16/38 5/5/38
f 27/27/39 2/2/39 13/13/39
f 5/5/40 3/3/40 27/27/40
f 2/2/41 27/27/41 3/3/41
f 33/33/42 5/5/42 27/27/42
f 28/28/43 33/33/43 27/27/43
f 2/2/44 7/7/44 9/9/44
f 2/2/45 9/9/45 12/12/45
