# Blender v2.79 (sub 0) OBJ File: ''
# www.blender.org
mtllib crack_only_191.mtl
o crack_only_191
v 3.092256 4.071848 -4.421031
v 3.057607 3.710922 -4.635676
v 3.125910 4.411722 -4.766949
v 3.040451 3.529264 -4.438272
v 3.061676 3.745163 -4.204354
v 3.140018 4.927915 -2.466924
v 2.924881 5.906524 -2.122351
v 3.077188 5.645820 -2.896957
v 2.769187 1.764192 -4.353258
v 2.892082 2.428056 -3.924419
v 2.866254 1.996062 -3.671016
v 2.802120 2.128390 -4.643363
v 3.134992 4.998785 -1.396203
v 3.144270 4.190368 -2.024029
v 3.131805 4.583643 -3.956735
v 3.152560 5.323416 -4.388219
v 3.140725 5.465119 -3.635807
v 2.790430 1.392250 -3.320814
v 2.752913 1.270782 -3.646478
v 2.843688 6.278440 -2.778642
v 3.039793 6.083905 -3.137815
v 2.775613 7.045026 -3.890935
v 2.699245 6.964504 -3.477908
v 3.028022 6.433195 -3.805752
v 2.662878 5.970130 -1.443978
v 2.557404 6.476606 -1.869432
v 3.071579 3.790741 -3.890816
v 3.024623 3.360575 -3.936256
v 3.107923 5.915935 -3.989181
v 3.099157 5.884936 -4.326312
v 3.092052 3.926895 -3.459468
v 3.122384 4.220263 -2.760592
v 2.547271 6.627791 -2.334217
v 2.758213 6.358836 -2.397505
v 3.097600 5.923832 -3.507977
v 2.790617 1.177785 -2.652811
v 2.802746 1.360218 -2.204424
v 2.835310 1.587437 -2.767993
v 3.102490 3.932940 -2.479861
v 3.064037 3.455649 -1.938399
v 3.074754 3.536007 -1.668272
v 2.965096 2.967854 -4.528655
v 2.885505 2.527877 -4.885160
v 3.022630 3.163936 -5.064942
v 3.017235 3.325529 -4.694103
v 3.117357 4.023336 -1.332482
v 2.749707 1.458898 -4.015047
v 2.817073 1.684008 -1.946144
v 2.805442 1.617569 -1.824212
v 2.827614 1.942324 -1.561745
v 2.964514 6.626331 -4.279827
v 3.040958 6.310808 -4.276590
v 2.490942 6.787635 -2.588569
v 2.793183 6.585023 -3.108294
v 2.928308 6.417448 -3.409887
v 2.675550 6.677554 -2.907481
v 2.567042 6.947689 -3.170628
v 2.417165 7.252949 -3.564214
v 2.383082 7.386789 -3.897315
v 2.802196 7.091695 -4.287521
v 2.245373 7.064619 -2.677256
v 2.080641 7.166289 -2.591462
v 2.292354 7.146612 -3.007798
v 2.097900 7.063579 -2.285931
v 1.970089 7.180951 -2.356544
v 2.309926 6.850541 -2.214426
v 1.802247 7.194044 -1.962989
v 2.365186 6.648073 -1.708529
v 2.172714 6.838821 -1.643845
v 3.044828 3.217615 -1.263425
v 2.342666 7.445489 -4.243781
v 3.017072 3.110867 -2.155646
v 2.487007 6.919830 -2.921363
v 3.066679 3.699576 -5.011551
v 2.353885 6.574554 -1.536369
v 2.863670 2.030856 -2.285960
v 2.879075 2.301026 -1.371798
v 2.988424 3.090736 -4.048841
v 2.952668 2.685509 -3.364406
v 3.068070 3.650867 -3.218790
v 2.972751 2.690052 -1.261906
v 2.776208 1.150605 -3.110878
v 2.978093 2.855616 -2.921458
vt 0.857337 0.448736
vt 0.902825 0.386932
vt 0.956530 0.497697
vt 0.792021 0.399716
vt 0.846572 0.360970
vt 0.374687 0.619812
vt 0.505128 0.728843
vt 0.310163 0.784649
vt 0.774088 0.078259
vt 0.682118 0.192268
vt 0.604459 0.126829
vt 0.859474 0.132095
vt 0.099107 0.649325
vt 0.239864 0.508061
vt 0.751306 0.539107
vt 0.883452 0.651308
vt 0.692228 0.686933
vt 0.496597 0.035457
vt 0.577352 0.010493
vt 0.489651 0.834029
vt 0.579148 0.795738
vt 0.798173 0.939456
vt 0.688279 0.933713
vt 0.761647 0.840981
vt 0.133805 0.807429
vt 0.256927 0.882544
vt 0.712100 0.412324
vt 0.711747 0.342231
vt 0.795793 0.753970
vt 0.882236 0.743316
vt 0.604208 0.441511
vt 0.431359 0.500573
vt 0.381400 0.899187
vt 0.392324 0.853793
vt 0.671219 0.763395
vt 0.317651 0.012051
vt 0.359049 0.076131
vt 0.206532 0.049039
vt 0.350610 0.458949
vt 0.196959 0.391094
vt 0.129241 0.408588
vt 0.854042 0.269026
vt 0.933745 0.192241
vt 0.998860 0.291444
vt 0.907115 0.323829
vt 0.055872 0.492828
vt 0.677958 0.034698
vt 0.148546 0.105659
vt 0.056062 0.153839
vt 0.115037 0.097024
vt 0.889202 0.864466
vt 0.880440 0.813217
vt 0.451172 0.920965
vt 0.582985 0.878229
vt 0.657760 0.845513
vt 0.532435 0.897047
vt 0.607033 0.936713
vt 0.716027 0.980028
vt 0.805693 0.996185
vt 0.902448 0.940207
vt 0.479545 0.965238
vt 0.567847 0.972728
vt 0.458638 0.983788
vt 0.376816 0.972266
vt 0.397191 0.990567
vt 0.354343 0.938175
vt 0.294091 1.000000
vt 0.218215 0.913751
vt 0.204961 0.946455
vt 0.015395 0.364076
vt 0.896720 1.000000
vt 0.243453 0.331906
vt 0.540978 0.936738
vt 1.000000 0.378728
vt 0.171501 0.904817
vt 0.246461 0.155797
vt 0.017060 0.214798
vt 0.733255 0.296874
vt 0.544540 0.243062
vt 0.534111 0.401055
vt 0.000000 0.279137
vt 0.435488 0.000000
vt 0.434611 0.277912
vn 0.9953 -0.0967 0.0019
vn 0.9955 -0.0950 -0.0027
vn 0.9766 0.1669 0.1359
vn 0.9879 -0.1180 -0.1005
vn 0.9879 -0.1410 -0.0648
vn 1.0000 0.0083 0.0041
vn 0.9997 -0.0170 0.0189
vn 0.9996 -0.0287 -0.0012
vn 0.9759 0.2180 -0.0098
vn 0.9955 -0.0950 -0.0009
vn 0.9862 -0.1560 -0.0554
vn 0.8993 0.2672 0.3463
vn 0.8848 0.3986 0.2413
vn 0.8577 0.4235 0.2915
vn 0.9941 -0.1068 -0.0159
vn 0.9945 0.0984 -0.0349
vn 0.9973 0.0739 0.0018
vn 0.9962 -0.0864 0.0104
vn 0.9974 -0.0707 -0.0136
vn 0.8594 0.4914 0.1411
vn 0.7693 0.5142 0.3792
vn 0.9861 0.1364 0.0950
vn 0.9949 0.0748 0.0673
vn 0.9064 0.4056 0.1177
vn 0.9400 0.3334 0.0726
vn 0.9944 -0.1041 0.0155
vn 0.9891 0.1461 0.0188
vn 0.9933 -0.1117 -0.0279
vn 0.9967 -0.0776 -0.0228
vn 0.9959 0.0881 0.0199
vn 0.9894 -0.1418 -0.0303
vn 0.9940 -0.1093 -0.0069
vn 0.9961 -0.0872 0.0113
vn 0.9968 -0.0774 -0.0202
vn 0.9788 -0.2022 0.0311
vn 0.9913 -0.1147 0.0644
vn 0.9993 -0.0158 0.0351
vn 0.9836 -0.1582 -0.0862
vn 0.9941 -0.1003 0.0402
vn 0.9953 -0.0967 -0.0011
vn 0.9953 -0.0835 0.0494
vn 0.9223 0.3851 0.0333
vn 0.9894 0.1397 -0.0386
vn 0.9874 0.1574 -0.0138
vn 0.8321 0.5501 0.0706
vn 0.9714 0.2350 -0.0344
vn 0.8989 0.3989 0.1811
vn 0.8093 0.5431 0.2238
vn 0.7635 0.5376 0.3579
vn 0.8300 0.4542 0.3237
vn 0.8893 0.4282 0.1605
vn 0.8456 0.4493 0.2883
vn 0.8740 0.4153 0.2523
vn 0.6368 0.7357 0.2305
vn 0.6497 0.7487 0.1317
vn 0.6040 0.7493 0.2717
vn 0.5941 0.7720 0.2259
vn 0.5873 0.7766 0.2279
vn 0.9995 -0.0124 -0.0302
vn 0.6299 0.7225 0.2848
vn 0.7005 0.7134 -0.0192
vn 0.6213 0.7486 0.2317
vn 0.9945 -0.1042 -0.0085
vn 0.6505 0.7138 0.2594
vn 0.6126 0.7880 0.0620
vn 0.9997 -0.0250 0.0003
vn 0.9943 -0.0452 0.0966
vn 0.9970 0.0738 -0.0225
vn 0.9942 -0.1017 -0.0337
vn 0.9968 -0.0789 -0.0101
vn 0.9928 -0.1155 -0.0313
vn 0.5886 0.7764 0.2252
vn 0.7430 0.5957 0.3051
vn 0.7613 0.6057 0.2316
vn 0.6789 0.6842 0.2662
vn 0.6683 0.6846 0.2911
vn 0.8551 0.4299 0.2899
vn 0.9947 -0.1029 -0.0083
vn 0.9915 -0.1136 0.0639
vn 0.9961 -0.0846 0.0266
vn 0.9954 -0.0920 0.0268
vn 0.7733 0.4944 0.3969
vn 0.8442 0.4708 0.2564
vn 0.7385 0.6458 0.1940
vn 0.7209 0.6670 0.1882
vn 0.7196 0.6203 0.3121
vn 0.9837 -0.1567 -0.0885
vn 0.9871 -0.1574 0.0299
vn 0.9879 -0.1507 -0.0376
vn 0.9933 -0.0964 -0.0631
vn 0.9931 -0.1162 -0.0186
vn 0.9920 -0.1241 -0.0216
vn 0.9942 -0.1071 -0.0134
vn 0.9931 -0.1168 -0.0129
vn 0.9945 -0.1027 -0.0187
vn 0.6804 0.6859 0.2582
vn 0.6781 0.6858 0.2644
vn 0.6607 0.7240 0.1979
vn 0.7938 0.5784 0.1877
vn 0.7262 0.6430 0.2432
vn 0.9742 -0.2191 -0.0548
vn 0.9893 -0.1436 0.0258
vn 0.9464 0.3230 0.0081
vn 0.9309 0.2705 0.2453
vn 0.8848 0.4002 0.2388
vn 0.9951 -0.0975 0.0152
vn 0.9960 -0.0894 0.0033
vn 0.9905 -0.1189 -0.0698
vn 0.9941 -0.0984 -0.0460
vn 0.9388 0.3291 0.1017
vn 0.6315 0.7105 0.3106
vn 0.6667 0.6902 0.2814
vn 0.9954 -0.0952 -0.0100
vn 0.9944 -0.1057 -0.0060
vn 0.9931 -0.1167 -0.0116
vn 0.9931 -0.1169 -0.0121
vn 0.9930 -0.1152 -0.0244
vn 0.9920 -0.1251 -0.0159
vn 0.9907 -0.1354 -0.0146
vn 0.9902 -0.1398 -0.0031
vn 0.9901 -0.1402 -0.0037
vn 0.9946 -0.0967 0.0377
vn 0.9952 -0.0843 0.0504
vn 0.9959 -0.0878 0.0222
vn 0.9954 -0.0922 0.0262
vn 0.9918 -0.1265 -0.0158
vn 0.9893 -0.1458 -0.0107
vn 0.9913 -0.1310 -0.0128
vn 0.9906 -0.1359 0.0183
vn 0.9818 -0.1843 -0.0460
vn 0.9810 -0.1931 0.0193
usemtl None
s off
f 1/1/1 2/2/1 3/3/1
f 5/4/2 4/5/2 1/1/2
f 6/6/3 8/7/3 7/8/3
f 9/9/4 10/10/4 11/11/4
f 9/9/5 12/12/5 10/10/5
f 13/13/6 14/14/6 6/6/6
f 15/15/7 16/16/7 17/17/7
f 3/3/8 16/16/8 15/15/8
f 13/13/9 6/6/9 7/8/9
f 4/5/10 2/2/10 1/1/10
f 18/18/11 19/19/11 11/11/11
f 20/20/12 8/7/12 21/21/12
f 22/22/13 23/23/13 24/24/13
f 25/25/14 7/8/14 26/26/14
f 5/4/15 27/27/15 28/28/15
f 29/29/16 16/16/16 30/30/16
f 29/29/17 17/17/17 16/16/17
f 1/1/18 15/15/18 5/4/18
f 31/31/19 15/15/19 32/32/19
f 7/8/20 33/33/20 26/26/20
f 33/33/21 7/8/21 34/34/21
f 21/21/22 8/7/22 35/35/22
f 35/35/23 8/7/23 17/17/23
f 20/20/24 34/34/24 7/8/24
f 20/20/25 7/8/25 8/7/25
f 36/36/26 38/37/26 37/38/26
f 24/24/27 35/35/27 29/29/27
f 39/39/28 14/14/28 40/40/28
f 27/27/29 15/15/29 31/31/29
f 35/35/30 17/17/30 29/29/30
f 18/18/31 11/11/31 38/37/31
f 40/40/32 14/14/32 41/41/32
f 1/1/33 3/3/33 15/15/33
f 27/27/34 5/4/34 15/15/34
f 42/42/35 43/43/35 44/44/35
f 45/45/36 42/42/36 44/44/36
f 46/46/37 14/14/37 13/13/37
f 47/47/38 9/9/38 11/11/38
f 48/48/39 50/49/39 49/50/39
f 4/5/40 5/4/40 28/28/40
f 49/50/41 37/38/41 48/48/41
f 51/51/42 22/22/42 24/24/42
f 52/52/43 29/29/43 30/30/43
f 52/52/44 24/24/44 29/29/44
f 53/53/45 34/34/45 20/20/45
f 52/52/46 51/51/46 24/24/46
f 54/54/47 55/55/47 23/23/47
f 56/56/48 54/54/48 57/57/48
f 54/54/49 23/23/49 57/57/49
f 56/56/50 53/53/50 20/20/50
f 55/55/51 54/54/51 21/21/51
f 56/56/52 20/20/52 54/54/52
f 54/54/53 20/20/53 21/21/53
f 58/58/54 22/22/54 59/59/54
f 60/60/55 59/59/55 22/22/55
f 61/61/56 63/62/56 62/63/56
f 62/63/57 64/64/57 61/61/57
f 62/63/58 65/65/58 64/64/58
f 32/32/59 6/6/59 14/14/59
f 66/66/60 64/64/60 67/67/60
f 68/68/61 67/67/61 69/69/61
f 68/68/62 66/66/62 67/67/62
f 41/41/63 70/70/63 40/40/63
f 58/58/64 23/23/64 22/22/64
f 60/60/65 71/71/65 59/59/65
f 15/15/66 6/6/66 32/32/66
f 15/15/67 17/17/67 8/7/67
f 15/15/68 8/7/68 6/6/68
f 39/39/69 32/32/69 14/14/69
f 39/39/70 31/31/70 32/32/70
f 39/39/71 40/40/71 72/72/71
f 65/65/72 67/67/72 64/64/72
f 57/57/73 73/73/73 56/56/73
f 73/73/74 53/53/74 56/56/74
f 63/62/75 61/61/75 73/73/75
f 63/62/76 73/73/76 57/57/76
f 25/25/77 13/13/77 7/8/77
f 4/5/78 45/45/78 2/2/78
f 45/45/79 44/44/79 2/2/79
f 74/74/80 2/2/80 44/44/80
f 2/2/81 74/74/81 3/3/81
f 68/68/82 25/25/82 26/26/82
f 68/68/83 75/75/83 25/25/83
f 26/26/84 33/33/84 68/68/84
f 66/66/85 68/68/85 33/33/85
f 68/68/86 69/69/86 75/75/86
f 19/19/87 47/47/87 11/11/87
f 76/76/88 77/77/88 50/49/88
f 10/10/89 78/78/89 79/79/89
f 10/10/90 79/79/90 11/11/90
f 79/79/91 38/37/91 11/11/91
f 78/78/92 28/28/92 79/79/92
f 28/28/93 27/27/93 31/31/93
f 28/28/94 80/80/94 79/79/94
f 28/28/95 31/31/95 80/80/95
f 53/53/96 61/61/96 64/64/96
f 73/73/97 61/61/97 53/53/97
f 53/53/98 64/64/98 66/66/98
f 53/53/99 33/33/99 34/34/99
f 53/53/100 66/66/100 33/33/100
f 77/77/101 72/72/101 81/81/101
f 76/76/102 72/72/102 77/77/102
f 55/55/103 21/21/103 35/35/103
f 55/55/104 35/35/104 24/24/104
f 55/55/105 24/24/105 23/23/105
f 46/46/106 41/41/106 14/14/106
f 41/41/107 46/46/107 70/70/107
f 18/18/108 82/82/108 19/19/108
f 82/82/109 18/18/109 38/37/109
f 51/51/110 60/60/110 22/22/110
f 58/58/111 57/57/111 23/23/111
f 63/62/112 57/57/112 58/58/112
f 39/39/113 80/80/113 31/31/113
f 39/39/114 72/72/114 80/80/114
f 80/80/115 72/72/115 83/83/115
f 80/80/116 83/83/116 79/79/116
f 82/82/117 38/37/117 36/36/117
f 40/40/118 70/70/118 72/72/118
f 81/81/119 72/72/119 70/70/119
f 76/76/120 79/79/120 83/83/120
f 72/72/121 76/76/121 83/83/121
f 48/48/122 76/76/122 50/49/122
f 76/76/123 48/48/123 37/38/123
f 76/76/124 37/38/124 38/37/124
f 79/79/125 76/76/125 38/37/125
f 42/42/126 28/28/126 78/78/126
f 42/42/127 78/78/127 10/10/127
f 42/42/128 4/5/128 28/28/128
f 42/42/129 45/45/129 4/5/129
f 42/42/130 10/10/130 12/12/130
f 42/42/131 12/12/131 43/43/131
