# Blender v2.79 (sub 0) OBJ File: ''
# www.blender.org
mtllib crack_only_79.mtl
o crack_only_79
v 2.928100 2.637608 -4.688094
v 2.839190 2.132977 -4.427835
v 2.798876 2.156965 -4.659656
v 2.875057 1.529859 -2.948349
v 2.840610 1.166176 -2.661450
v 2.827766 1.357585 -2.204929
v 2.841578 1.157006 -2.772227
v 2.833473 1.126775 -3.126993
v 3.028441 2.501658 -2.487471
v 3.046277 2.768841 -2.065068
v 2.987808 2.438359 -2.180339
v 2.839648 1.414479 -3.299324
v 2.821400 1.149385 -3.254019
v 2.780565 1.235583 -3.604625
v 2.845613 1.977991 -1.875191
v 2.911026 2.017668 -2.334758
v 2.953956 2.055328 -2.643523
v 2.907566 2.348459 -1.651454
v 2.930002 2.391783 -1.748814
v 2.956923 2.520713 -1.669319
v 3.138639 3.204509 -2.202509
v 3.100278 3.157377 -1.710609
v 3.052445 2.666188 -3.864738
v 3.002149 2.397915 -3.799654
v 2.964735 2.347061 -4.054978
v 3.101653 2.974850 -3.846753
v 3.089223 2.819954 -3.733044
v 3.109174 2.919761 -3.627763
v 3.090311 2.724135 -3.336146
v 3.141264 3.067750 -3.489968
v 2.979968 2.647763 -1.456059
v 2.924260 2.523274 -1.313594
v 2.921108 2.433347 -1.526234
v 2.772243 1.944945 -4.488002
v 2.847721 2.451168 -4.820577
v 2.813830 1.988142 -4.303149
v 2.748787 1.766118 -4.340386
v 2.868788 1.795623 -2.237647
v 2.870522 2.304674 -1.373617
v 2.884230 2.576524 -4.802857
v 2.861404 2.543038 -4.874907
v 3.074974 3.096284 -1.505920
v 3.024138 2.859094 -1.507796
v 3.027186 2.849062 -4.256841
v 3.021460 2.720611 -4.164372
v 2.978502 2.775161 -4.416227
v 2.898651 1.712577 -2.706202
v 2.982445 2.131320 -3.013832
v 2.821450 1.681593 -1.942856
v 2.797176 1.618949 -1.824718
v 2.805095 1.952107 -1.558408
v 3.074101 3.015458 -1.251090
v 3.148880 3.084764 -3.078778
v 3.168618 3.166935 -2.598782
v 3.089343 2.714485 -2.893352
v 2.902487 2.017523 -3.801638
v 2.995464 2.316763 -3.641108
v 2.748942 1.459542 -4.015278
v 3.002478 2.705126 -1.254781
v 2.871207 2.221127 -1.627320
vt 0.838753 0.054198
vt 0.570190 0.108881
vt 0.591157 0.046271
vt 0.196346 0.492828
vt 0.065689 0.689032
vt 0.000000 0.559494
vt 0.001957 0.529155
vt 0.006722 0.431861
vt 0.656937 0.648528
vt 0.764349 0.771371
vt 0.604739 0.729616
vt 0.156890 0.393747
vt 0.023778 0.397935
vt 0.081685 0.304934
vt 0.349952 0.797290
vt 0.401771 0.674354
vt 0.441832 0.592078
vt 0.523135 0.869722
vt 0.551905 0.844806
vt 0.612602 0.870509
vt 0.992745 0.748000
vt 0.938082 0.879754
vt 0.817725 0.279790
vt 0.678836 0.288939
vt 0.665073 0.217737
vt 0.971388 0.294391
vt 0.932870 0.352267
vt 0.888463 0.320503
vt 1.000000 0.394417
vt 0.819393 0.425395
vt 0.664382 0.932432
vt 0.590394 0.966838
vt 0.558537 0.906389
vt 0.475805 0.086266
vt 0.747965 0.011866
vt 0.490274 0.138148
vt 0.378256 0.120759
vt 0.284290 0.693660
vt 0.482434 0.943476
vt 0.797012 0.000000
vt 0.811379 0.020785
vt 0.894283 0.933247
vt 0.774258 0.925143
vt 0.926464 0.178569
vt 0.858245 0.199772
vt 0.894943 0.132612
vt 0.273570 0.564264
vt 0.502622 0.494100
vt 0.207506 0.769814
vt 0.315387 0.882118
vt 0.167989 0.799774
vt 0.840407 1.000000
vt 0.985551 0.506629
vt 1.000000 0.639589
vt 0.789358 0.545305
vt 0.484532 0.276042
vt 0.629730 0.329486
vt 0.210822 0.199845
vt 0.682946 0.989011
vt 0.456389 0.872107
vn 0.9449 -0.2654 -0.1918
vn 0.9972 -0.0543 0.0508
vn 0.9965 -0.0821 0.0155
vn 0.9953 -0.0962 -0.0145
vn 0.9753 -0.2030 0.0872
vn 0.9863 -0.0914 -0.1373
vn 0.9682 -0.2203 0.1188
vn 0.9733 -0.2012 0.1108
vn 0.9741 -0.2093 0.0857
vn 0.9589 -0.2640 0.1035
vn 0.9678 -0.2429 0.0662
vn 0.9719 -0.2095 0.1076
vn 0.9802 -0.1894 0.0583
vn 0.9731 -0.2070 -0.1014
vn 0.9896 -0.1280 -0.0662
vn 0.9846 -0.1679 -0.0490
vn 0.9865 -0.1477 -0.0710
vn 0.9484 -0.2968 0.1115
vn 0.9423 -0.2740 -0.1922
vn 0.9434 -0.2654 -0.1989
vn 0.9459 -0.2904 -0.1449
vn 0.9547 -0.2536 -0.1555
vn 0.9830 -0.1307 0.1286
vn 0.9836 -0.1345 0.1204
vn 0.9605 -0.2672 0.0773
vn 0.9600 -0.2626 0.0968
vn 0.9503 -0.2507 -0.1846
vn 0.9423 -0.2417 -0.2316
vn 0.9760 -0.2097 0.0581
vn 0.9601 -0.1904 -0.2050
vn 0.9572 -0.2039 -0.2052
vn 0.9748 -0.2101 -0.0744
vn 0.9562 -0.2060 -0.2077
vn 0.9931 -0.0871 0.0787
vn 0.9852 -0.1666 0.0416
vn 0.9801 -0.1752 0.0935
vn 0.9826 -0.1297 0.1331
vn 0.9837 -0.1010 0.1486
vn 0.9760 -0.2087 -0.0628
vn 0.9883 -0.1519 -0.0120
vn 0.9780 -0.1926 0.0805
vn 0.9796 -0.1790 0.0911
vn 0.9863 -0.1648 -0.0123
vn 0.9790 -0.1992 0.0425
vn 0.9770 -0.2009 0.0713
vn 0.9798 -0.1878 0.0693
vn 0.9634 -0.2630 0.0526
vn 0.9565 -0.2841 0.0659
vn 0.9549 -0.2539 -0.1539
vn 0.9833 -0.1778 0.0392
vn 0.9807 -0.1896 0.0477
vn 0.9784 -0.1980 -0.0601
vn 0.9866 -0.1611 0.0254
vn 0.9940 -0.0810 -0.0737
vn 0.9930 -0.0562 -0.1044
vn 0.9873 -0.1073 0.1175
vn 0.9792 -0.1991 -0.0385
vn 0.9837 -0.1799 -0.0018
vn 0.9885 -0.0831 0.1266
vn 0.9873 -0.1072 0.1171
vn 0.9812 -0.1837 -0.0598
vn 0.9827 -0.1851 -0.0108
vn 0.9440 -0.2941 -0.1496
vn 0.9443 -0.2933 -0.1495
vn 0.9833 -0.1791 -0.0325
vn 0.9845 -0.1721 0.0339
vn 0.9807 -0.1749 -0.0873
vn 0.9637 -0.2520 -0.0884
vn 0.9635 -0.2519 -0.0910
vn 0.9643 -0.2420 -0.1073
vn 0.9879 -0.1460 -0.0517
vn 0.9638 -0.1959 -0.1810
vn 0.9635 -0.1947 -0.1840
vn 0.9173 -0.3981 0.0109
vn 0.9735 -0.2241 -0.0450
vn 0.9744 -0.2176 -0.0571
vn 0.9808 -0.1408 -0.1349
vn 0.9872 -0.1594 -0.0013
vn 0.9727 -0.2198 0.0750
vn 0.9589 -0.2689 0.0911
vn 0.9626 -0.2610 0.0729
vn 0.9802 -0.1917 -0.0499
vn 0.9805 -0.1488 -0.1284
vn 0.9731 -0.1872 -0.1346
vn 0.9836 -0.1511 -0.0983
vn 0.9715 -0.2113 0.1070
vn 0.9652 -0.2331 0.1187
vn 0.9585 -0.2466 0.1429
vn 0.9677 -0.2294 0.1049
usemtl None
s off
f 1/1/1 2/2/1 3/3/1
f 4/4/2 6/5/2 5/6/2
f 4/4/3 5/6/3 7/7/3
f 4/4/4 7/7/4 8/8/4
f 9/9/5 10/10/5 11/11/5
f 12/12/6 13/13/6 14/14/6
f 15/15/7 16/16/7 11/11/7
f 16/16/8 17/17/8 9/9/8
f 16/16/9 9/9/9 11/11/9
f 18/18/10 19/19/10 20/20/10
f 20/20/11 19/19/11 10/10/11
f 19/19/12 11/11/12 10/10/12
f 21/21/13 22/22/13 10/10/13
f 23/23/14 24/24/14 25/25/14
f 26/26/15 28/27/15 27/28/15
f 28/27/16 30/29/16 29/30/16
f 26/26/17 30/29/17 28/27/17
f 31/31/18 32/32/18 33/33/18
f 3/3/19 2/2/19 34/34/19
f 1/1/20 3/3/20 35/35/20
f 36/36/21 34/34/21 2/2/21
f 36/36/22 37/37/22 34/34/22
f 16/16/23 15/15/23 38/38/23
f 16/16/24 38/38/24 17/17/24
f 18/18/25 20/20/25 33/33/25
f 39/39/26 33/33/26 32/32/26
f 35/35/27 41/40/27 40/41/27
f 35/35/28 40/41/28 1/1/28
f 42/42/29 43/43/29 22/22/29
f 44/44/30 45/45/30 46/46/30
f 46/46/31 25/25/31 2/2/31
f 46/46/32 2/2/32 1/1/32
f 45/45/33 25/25/33 46/46/33
f 47/47/34 38/38/34 6/5/34
f 47/47/35 48/48/35 17/17/35
f 47/47/36 17/17/36 38/38/36
f 49/49/37 51/50/37 50/51/37
f 50/51/38 6/5/38 49/49/38
f 42/42/39 52/52/39 43/43/39
f 29/30/40 30/29/40 53/53/40
f 9/9/41 54/54/41 10/10/41
f 21/21/42 10/10/42 54/54/42
f 55/55/43 53/53/43 54/54/43
f 55/55/44 54/54/44 9/9/44
f 22/22/45 43/43/45 10/10/45
f 43/43/46 31/31/46 10/10/46
f 20/20/47 10/10/47 31/31/47
f 31/31/48 33/33/48 20/20/48
f 56/56/49 37/37/49 36/36/49
f 48/48/50 9/9/50 17/17/50
f 55/55/51 9/9/51 48/48/51
f 57/57/52 24/24/52 23/23/52
f 4/4/53 47/47/53 6/5/53
f 13/13/54 12/12/54 4/4/54
f 4/4/55 8/8/55 13/13/55
f 49/49/56 15/15/56 51/50/56
f 29/30/57 48/48/57 57/57/57
f 55/55/58 48/48/58 29/30/58
f 38/38/59 49/49/59 6/5/59
f 38/38/60 15/15/60 49/49/60
f 28/27/61 29/30/61 57/57/61
f 57/57/62 27/28/62 28/27/62
f 36/36/63 2/2/63 56/56/63
f 56/56/64 2/2/64 25/25/64
f 48/48/65 4/4/65 57/57/65
f 47/47/66 4/4/66 48/48/66
f 12/12/67 14/14/67 56/56/67
f 24/24/68 57/57/68 56/56/68
f 56/56/69 25/25/69 24/24/69
f 4/4/70 56/56/70 57/57/70
f 12/12/71 56/56/71 4/4/71
f 14/14/72 58/58/72 56/56/72
f 58/58/73 37/37/73 56/56/73
f 31/31/74 59/59/74 32/32/74
f 31/31/75 52/52/75 59/59/75
f 31/31/76 43/43/76 52/52/76
f 45/45/77 44/44/77 26/26/77
f 53/53/78 55/55/78 29/30/78
f 39/39/79 51/50/79 60/60/79
f 60/60/80 33/33/80 39/39/80
f 18/18/81 33/33/81 60/60/81
f 23/23/82 27/28/82 57/57/82
f 23/23/83 45/45/83 26/26/83
f 23/23/84 25/25/84 45/45/84
f 27/28/85 23/23/85 26/26/85
f 15/15/86 60/60/86 51/50/86
f 15/15/87 19/19/87 18/18/87
f 60/60/88 15/15/88 18/18/88
f 15/15/89 11/11/89 19/19/89
