# Blender v2.79 (sub 0) OBJ File: ''
# www.blender.org
mtllib crack_only_187.mtl
o crack_only_187
v 3.092999 4.071777 -4.420728
v 3.058134 3.710567 -4.635559
v 3.125871 4.411734 -4.766924
v 2.768610 1.764247 -4.352894
v 2.834784 2.143776 -4.198637
v 2.866838 1.995848 -3.670930
v 2.801738 2.128697 -4.643320
v 3.134992 4.998785 -1.396203
v 3.145473 4.190420 -2.024199
v 3.140346 4.927843 -2.466859
v 3.133799 4.584421 -3.956176
v 3.152915 5.323390 -4.388205
v 3.143972 5.464364 -3.636291
v 3.041400 3.529041 -4.438985
v 3.062990 3.745759 -4.204318
v 2.791108 1.392557 -3.320518
v 2.753366 1.269713 -3.644868
v 2.862538 2.081339 -1.919086
v 2.984996 2.881049 -2.470063
v 2.859415 2.002234 -2.251601
v 2.858670 5.982905 -1.770965
v 2.740628 6.235668 -1.941112
v 2.929828 5.906998 -2.121786
v 2.141606 7.067303 -2.398051
v 1.899807 7.095486 -1.871178
v 2.328992 6.829365 -2.193142
v 3.110529 5.916894 -3.990373
v 3.100115 5.885324 -4.326323
v 2.754770 6.365212 -2.399183
v 3.073341 3.791759 -3.889101
v 3.025808 3.358854 -3.943580
v 3.094141 3.927441 -3.459620
v 3.124203 4.220410 -2.761762
v 3.062930 5.448017 -2.184153
v 3.036543 5.466568 -1.734395
v 2.791428 1.177596 -2.652951
v 2.802923 1.360199 -2.204427
v 2.835284 1.587446 -2.767996
v 3.039975 6.411191 -3.806449
v 3.094522 5.927778 -3.509193
v 3.135064 5.589367 -3.285615
v 3.036801 6.089487 -3.134005
v 2.998173 2.967803 -1.833509
v 3.116534 5.364064 -2.731081
v 3.104120 3.930082 -2.477880
v 3.065972 3.455146 -1.938134
v 2.561591 6.472736 -1.865429
v 2.557621 6.606782 -2.330925
v 3.079586 3.726424 -3.021390
v 2.968451 2.776609 -3.249446
v 3.060222 3.574094 -3.414752
v 3.077470 3.534410 -1.670862
v 2.787749 1.166089 -2.805157
v 2.966211 2.967471 -4.529278
v 2.885144 2.528293 -4.885077
v 3.023731 3.163702 -5.065164
v 3.017844 3.325816 -4.694000
v 3.034001 3.216519 -2.169871
v 3.123205 4.025960 -1.331270
v 2.749547 1.458921 -4.014934
v 2.775881 1.148586 -3.155065
v 2.817590 1.683722 -1.945756
v 2.805325 1.617589 -1.824220
v 2.827273 1.942472 -1.561695
v 2.924888 2.583004 -3.775526
v 2.972718 6.596113 -4.278854
v 2.801747 7.019423 -3.926391
v 3.149210 5.182307 -3.060281
v 3.099701 5.537627 -2.941428
v 3.046649 6.310003 -4.276996
v 3.046530 5.780303 -2.815417
v 2.843298 6.282460 -2.778977
v 2.979538 5.850584 -2.388407
v 2.779989 6.816262 -3.459885
v 2.566766 6.702573 -2.572610
v 2.666835 6.677018 -2.877733
v 3.000952 5.865346 -2.623392
v 2.339990 6.705954 -1.740741
v 2.183731 6.831897 -1.635614
v 2.614566 7.208718 -3.717503
v 2.608570 7.049995 -3.371679
v 2.849093 7.040205 -4.290520
v 2.581369 7.289999 -3.932027
v 2.517594 7.351181 -4.271600
v 2.716828 6.902318 -3.373203
v 2.446854 6.983022 -2.971988
v 3.046971 3.218026 -1.262872
v 2.990653 3.090607 -4.045908
v 2.472600 6.410788 -1.504359
v 3.066406 3.699553 -5.011423
v 2.819959 6.598783 -3.205958
v 2.973853 2.689906 -1.261669
v 2.879075 2.301026 -1.371798
vt 0.856771 0.457545
vt 0.902735 0.394819
vt 0.955770 0.507459
vt 0.776140 0.081118
vt 0.746573 0.145740
vt 0.605974 0.130140
vt 0.861321 0.135978
vt 0.096932 0.659818
vt 0.238549 0.516702
vt 0.372834 0.630352
vt 0.750065 0.549253
vt 0.881787 0.663254
vt 0.690399 0.698921
vt 0.791826 0.407750
vt 0.846838 0.368359
vt 0.498650 0.037229
vt 0.579305 0.011802
vt 0.153755 0.173320
vt 0.237903 0.154820
vt 0.318594 0.294970
vt 0.218401 0.815967
vt 0.307855 0.797443
vt 0.268469 0.854998
vt 0.405178 0.985818
vt 0.267710 1.000000
vt 0.346924 0.949571
vt 0.793998 0.767393
vt 0.880248 0.756659
vt 0.390811 0.868587
vt 0.711336 0.420507
vt 0.713728 0.348726
vt 0.603641 0.449845
vt 0.430540 0.509424
vt 0.312750 0.720659
vt 0.196400 0.731270
vt 0.319797 0.013061
vt 0.360749 0.078252
vt 0.208342 0.050445
vt 0.758900 0.851788
vt 0.669360 0.777235
vt 0.602676 0.725294
vt 0.575938 0.810198
vt 0.155840 0.319749
vt 0.452752 0.697611
vt 0.349098 0.466575
vt 0.196289 0.397750
vt 0.253964 0.895742
vt 0.378236 0.910007
vt 0.484554 0.424199
vt 0.517911 0.264925
vt 0.582449 0.392725
vt 0.129123 0.415164
vt 0.358954 0.008653
vt 0.854945 0.274961
vt 0.935124 0.197249
vt 0.999511 0.298056
vt 0.907473 0.330849
vt 0.249896 0.354847
vt 0.054307 0.501316
vt 0.680280 0.036704
vt 0.449186 0.000000
vt 0.149881 0.107783
vt 0.057150 0.156595
vt 0.116528 0.098994
vt 0.648991 0.224550
vt 0.885907 0.874493
vt 0.804574 0.950374
vt 0.533555 0.662205
vt 0.511798 0.722646
vt 0.878334 0.827337
vt 0.485184 0.764734
vt 0.487710 0.848402
vt 0.375844 0.783589
vt 0.678050 0.924870
vt 0.443522 0.921674
vt 0.522635 0.912077
vt 0.437328 0.782032
vt 0.226374 0.936810
vt 0.201439 0.959736
vt 0.754199 0.985523
vt 0.660256 0.965251
vt 0.899883 0.947572
vt 0.901088 1.000000
vt 0.811787 0.995400
vt 0.657436 0.940640
vt 0.553775 0.961441
vt 0.014731 0.370137
vt 0.732962 0.303125
vt 0.158096 0.891876
vt 1.000000 0.386733
vt 0.606685 0.893279
vt 0.000000 0.283744
vt 0.017691 0.218415
vn 0.9954 -0.0961 0.0001
vn 0.9864 -0.1325 -0.0971
vn 0.9872 -0.1443 -0.0685
vn 0.9999 0.0096 0.0044
vn 0.9997 -0.0170 0.0151
vn 0.9996 -0.0281 -0.0038
vn 0.9955 -0.0945 -0.0043
vn 0.9955 -0.0946 -0.0026
vn 0.9862 -0.1561 -0.0556
vn 0.9905 -0.1358 0.0230
vn 0.8820 0.4647 0.0784
vn 0.6406 0.7243 0.2552
vn 0.9944 0.0978 -0.0400
vn 0.9974 0.0724 -0.0017
vn 0.8902 0.4304 0.1492
vn 0.9941 -0.1070 -0.0170
vn 0.9962 -0.0865 0.0079
vn 0.9974 -0.0704 -0.0134
vn 0.9701 0.2382 0.0471
vn 0.9887 0.1499 -0.0050
vn 0.9947 -0.1019 0.0160
vn 0.9240 0.3318 0.1899
vn 0.9910 0.1303 0.0300
vn 0.9362 0.3309 0.1183
vn 0.9938 0.1099 -0.0139
vn 0.9825 0.1693 0.0782
vn 0.9885 -0.1513 0.0002
vn 0.9913 0.1034 0.0813
vn 0.9947 0.0977 0.0309
vn 0.9935 -0.1106 -0.0271
vn 0.8115 0.5633 0.1553
vn 0.7862 0.5878 0.1905
vn 0.9967 -0.0780 -0.0236
vn 0.9933 -0.1152 -0.0043
vn 0.9611 0.2726 0.0451
vn 0.9895 -0.1412 -0.0293
vn 0.9940 -0.1087 -0.0105
vn 0.9937 -0.1107 -0.0157
vn 0.9961 -0.0873 0.0089
vn 0.9967 -0.0778 -0.0214
vn 0.9783 -0.2049 0.0300
vn 0.9915 -0.1130 0.0651
vn 0.9938 -0.1086 -0.0253
vn 0.9995 -0.0101 0.0297
vn 0.9834 -0.1586 -0.0878
vn 0.9936 -0.1096 -0.0282
vn 0.9937 -0.1029 0.0443
vn 0.9952 -0.0970 -0.0114
vn 0.9892 -0.1142 -0.0921
vn 0.9953 -0.0970 -0.0020
vn 0.9948 -0.0874 0.0529
vn 0.9303 0.3666 0.0110
vn 0.9883 0.0988 0.1164
vn 0.9906 0.1297 -0.0429
vn 0.9889 0.1477 -0.0177
vn 0.9675 0.2497 -0.0400
vn 0.8912 0.3388 0.3016
vn 0.9124 0.4003 0.0854
vn 0.9083 0.3993 0.1247
vn 0.8949 0.3924 0.2126
vn 0.8014 0.5577 0.2161
vn 0.8957 0.4294 0.1152
vn 0.7501 0.6046 0.2680
vn 0.7832 0.5673 0.2545
vn 0.9913 0.1290 0.0271
vn 0.9950 0.0855 0.0515
vn 0.9754 0.2113 0.0632
vn 0.6511 0.7564 0.0616
vn 0.6176 0.7625 0.1930
vn 0.8132 0.5235 0.2543
vn 0.6843 0.7292 0.0029
vn 0.7668 0.6274 0.1355
vn 0.7838 0.5721 0.2414
vn 0.8795 0.4200 0.2239
vn 0.7686 0.6285 0.1192
vn 0.9995 -0.0106 -0.0293
vn 0.7654 0.6118 0.1998
vn 0.7241 0.6476 0.2373
vn 0.6511 0.7199 0.2406
vn 0.9940 -0.1092 -0.0104
vn 0.9991 0.0407 0.0109
vn 0.9997 -0.0232 0.0010
vn 0.9999 -0.0070 -0.0125
vn 0.9996 -0.0293 0.0024
vn 0.9868 -0.1544 -0.0499
vn 0.7587 0.6277 0.1743
vn 0.7366 0.6568 0.1613
vn 0.7190 0.6017 0.3479
vn 0.9705 0.1926 0.1450
vn 0.9269 0.3711 0.0557
vn 0.9160 0.3864 0.1077
vn 0.9575 0.2609 0.1233
vn 0.9622 0.2518 0.1035
vn 0.9947 -0.1026 -0.0101
vn 0.9914 -0.1137 0.0654
vn 0.9964 -0.0818 0.0243
vn 0.9955 -0.0916 0.0246
vn 0.9948 -0.0939 0.0382
vn 0.9953 -0.0840 0.0486
vn 0.9960 -0.0860 0.0225
vn 0.9850 -0.1699 0.0312
vn 0.9835 -0.1569 -0.0904
vn 0.9944 -0.1008 -0.0328
vn 0.9956 -0.0936 -0.0099
vn 0.9969 -0.0787 -0.0099
vn 0.9951 -0.0985 0.0086
vn 0.9956 -0.0938 0.0017
vn 0.9892 -0.1436 -0.0291
vn 0.9934 -0.1059 -0.0433
vn 0.8456 0.4501 0.2872
vn 0.9294 0.2636 0.2582
vn 0.9211 0.3885 -0.0258
vn 0.8937 0.4005 0.2023
vn 0.8792 0.4213 0.2224
vn 0.8761 0.4091 0.2552
vn 0.9923 -0.1222 -0.0205
vn 0.9941 -0.1074 -0.0142
vn 0.9929 -0.1177 -0.0167
vn 0.9948 -0.0986 -0.0246
vn 0.9736 -0.2189 -0.0650
vn 0.9902 -0.1372 -0.0245
vn 0.9873 -0.1547 0.0373
vn 0.9872 -0.1572 0.0276
vn 0.9911 -0.1114 -0.0731
vn 0.9945 -0.0936 -0.0465
vn 0.9530 0.2690 0.1393
vn 0.7785 0.4021 0.4819
vn 0.7664 0.5745 0.2874
vn 0.7923 0.5491 0.2660
vn 0.8062 0.5171 0.2874
vn 0.7658 0.4898 0.4168
vn 0.7622 0.6125 0.2096
vn 0.7440 0.5413 0.3917
vn 0.9946 -0.0982 0.0324
vn 0.9927 -0.1189 -0.0191
vn 0.9922 -0.1228 -0.0189
vn 0.9869 -0.1610 -0.0089
vn 0.9913 -0.1305 -0.0136
vn 0.9907 -0.1353 0.0163
vn 0.9808 -0.1833 -0.0667
vn 0.9807 -0.1946 0.0167
vn 0.9814 0.1791 0.0692
vn 0.9801 0.1550 0.1240
vn 0.9810 0.1533 0.1188
vn 0.9906 -0.1369 0.0043
vn 0.9896 -0.1424 -0.0222
vn 0.9896 -0.1438 -0.0009
vn 0.9936 -0.1128 -0.0026
vn 0.9929 -0.1130 -0.0358
vn 0.9899 -0.1419 -0.0020
vn 0.9934 -0.1149 -0.0057
usemtl None
s off
f 1/1/1 2/2/1 3/3/1
f 4/4/2 5/5/2 6/6/2
f 4/4/3 7/7/3 5/5/3
f 8/8/4 9/9/4 10/10/4
f 11/11/5 12/12/5 13/13/5
f 3/3/6 12/12/6 11/11/6
f 15/14/7 14/15/7 1/1/7
f 14/15/8 2/2/8 1/1/8
f 16/16/9 17/17/9 6/6/9
f 18/18/10 20/19/10 19/20/10
f 21/21/11 23/22/11 22/23/11
f 24/24/12 25/25/12 26/26/12
f 27/27/13 12/12/13 28/28/13
f 27/27/14 13/13/14 12/12/14
f 22/23/15 23/22/15 29/29/15
f 15/14/16 30/30/16 31/31/16
f 1/1/17 11/11/17 15/14/17
f 32/32/18 11/11/18 33/33/18
f 34/34/19 35/35/19 8/8/19
f 34/34/20 8/8/20 10/10/20
f 36/36/21 38/37/21 37/38/21
f 21/21/22 8/8/22 35/35/22
f 39/39/23 40/40/23 27/27/23
f 23/22/24 21/21/24 35/35/24
f 41/41/25 13/13/25 40/40/25
f 42/42/26 41/41/26 40/40/26
f 18/18/27 19/20/27 43/43/27
f 34/34/28 10/10/28 44/44/28
f 40/40/29 13/13/29 27/27/29
f 45/45/30 9/9/30 46/46/30
f 47/47/31 22/23/31 48/48/31
f 48/48/32 22/23/32 29/29/32
f 30/30/33 11/11/33 32/32/33
f 49/49/34 50/50/34 51/51/34
f 34/34/35 23/22/35 35/35/35
f 16/16/36 6/6/36 38/37/36
f 46/46/37 9/9/37 52/52/37
f 53/53/38 38/37/38 36/36/38
f 1/1/39 3/3/39 11/11/39
f 30/30/40 15/14/40 11/11/40
f 54/54/41 55/55/41 56/56/41
f 57/57/42 54/54/42 56/56/42
f 45/45/43 46/46/43 58/58/43
f 59/59/44 9/9/44 8/8/44
f 60/60/45 4/4/45 6/6/45
f 53/53/46 61/61/46 38/37/46
f 62/62/47 64/63/47 63/64/47
f 49/49/48 51/51/48 32/32/48
f 65/65/49 6/6/49 5/5/49
f 14/15/50 15/14/50 31/31/50
f 63/64/51 37/38/51 62/62/51
f 66/66/52 67/67/52 39/39/52
f 68/68/53 41/41/53 69/69/53
f 70/70/54 27/27/54 28/28/54
f 70/70/55 39/39/55 27/27/55
f 70/70/56 66/66/56 39/39/56
f 71/71/57 42/42/57 72/72/57
f 73/73/58 29/29/58 23/22/58
f 73/73/59 72/72/59 29/29/59
f 74/74/60 39/39/60 67/67/60
f 75/75/61 29/29/61 76/76/61
f 76/76/62 29/29/62 72/72/62
f 75/75/63 26/26/63 48/48/63
f 75/75/64 48/48/64 29/29/64
f 69/69/65 44/44/65 68/68/65
f 68/68/66 44/44/66 10/10/66
f 77/77/67 34/34/67 44/44/67
f 78/78/68 25/25/68 79/79/68
f 78/78/69 26/26/69 25/25/69
f 80/80/70 81/81/70 67/67/70
f 82/82/71 84/83/71 83/84/71
f 83/84/72 67/67/72 82/82/72
f 81/81/73 85/85/73 67/67/73
f 74/74/74 67/67/74 85/85/74
f 67/67/75 83/84/75 80/80/75
f 33/33/76 10/10/76 9/9/76
f 75/75/77 76/76/77 86/86/77
f 86/86/78 26/26/78 75/75/78
f 86/86/79 24/24/79 26/26/79
f 52/52/80 87/87/80 46/46/80
f 68/68/81 13/13/81 41/41/81
f 11/11/82 10/10/82 33/33/82
f 68/68/83 11/11/83 13/13/83
f 11/11/84 68/68/84 10/10/84
f 88/88/85 65/65/85 5/5/85
f 47/47/86 48/48/86 78/78/86
f 26/26/87 78/78/87 48/48/87
f 78/78/88 79/79/88 89/89/88
f 77/77/89 44/44/89 71/71/89
f 71/71/90 72/72/90 77/77/90
f 73/73/91 77/77/91 72/72/91
f 73/73/92 23/22/92 34/34/92
f 77/77/93 73/73/93 34/34/93
f 14/15/94 57/57/94 2/2/94
f 57/57/95 56/56/95 2/2/95
f 90/90/96 2/2/96 56/56/96
f 2/2/97 90/90/97 3/3/97
f 62/62/98 20/19/98 64/63/98
f 20/19/99 62/62/99 37/38/99
f 20/19/100 37/38/100 38/37/100
f 18/18/101 64/63/101 20/19/101
f 17/17/102 60/60/102 6/6/102
f 45/45/103 33/33/103 9/9/103
f 45/45/104 49/49/104 32/32/104
f 45/45/105 32/32/105 33/33/105
f 59/59/106 52/52/106 9/9/106
f 52/52/107 59/59/107 87/87/107
f 65/65/108 88/88/108 50/50/108
f 65/65/109 50/50/109 6/6/109
f 76/76/110 72/72/110 91/91/110
f 91/91/111 40/40/111 39/39/111
f 91/91/112 42/42/112 40/40/112
f 74/74/113 91/91/113 39/39/113
f 85/85/114 91/91/114 74/74/114
f 91/91/115 72/72/115 42/42/115
f 88/88/116 31/31/116 50/50/116
f 31/31/117 30/30/117 32/32/117
f 31/31/118 51/51/118 50/50/118
f 31/31/119 32/32/119 51/51/119
f 43/43/120 92/92/120 93/93/120
f 43/43/121 87/87/121 92/92/121
f 18/18/122 43/43/122 64/63/122
f 43/43/123 93/93/123 64/63/123
f 16/16/124 61/61/124 17/17/124
f 61/61/125 16/16/125 38/37/125
f 66/66/126 82/82/126 67/67/126
f 89/89/127 8/8/127 21/21/127
f 78/78/128 89/89/128 47/47/128
f 89/89/129 21/21/129 22/23/129
f 89/89/130 22/23/130 47/47/130
f 86/86/131 91/91/131 85/85/131
f 86/86/132 76/76/132 91/91/132
f 86/86/133 85/85/133 81/81/133
f 50/50/134 20/19/134 38/37/134
f 50/50/135 38/37/135 6/6/135
f 54/54/136 31/31/136 88/88/136
f 54/54/137 88/88/137 5/5/137
f 54/54/138 14/15/138 31/31/138
f 54/54/139 57/57/139 14/15/139
f 54/54/140 5/5/140 7/7/140
f 54/54/141 7/7/141 55/55/141
f 69/69/142 71/71/142 44/44/142
f 69/69/143 41/41/143 42/42/143
f 71/71/144 69/69/144 42/42/144
f 58/58/145 46/46/145 43/43/145
f 46/46/146 87/87/146 43/43/146
f 19/20/147 58/58/147 43/43/147
f 45/45/148 19/20/148 49/49/148
f 58/58/149 19/20/149 45/45/149
f 50/50/150 19/20/150 20/19/150
f 49/49/151 19/20/151 50/50/151
