# Blender v2.79 (sub 0) OBJ File: ''
# www.blender.org
mtllib crack_only_50.mtl
o crack_only_50
v 3.021578 2.128292 -3.325778
v 2.873110 1.600862 -2.967780
v 2.912799 1.831397 -3.380468
v 2.844664 1.814314 -3.960143
v 2.828807 1.637240 -3.675585
v 2.744440 1.559803 -4.133964
v 2.903534 1.751381 -2.699799
v 2.876460 1.845800 -2.375357
v 2.872143 1.481534 -2.477198
v 2.840295 1.372636 -2.176446
v 2.872269 1.244284 -2.465935
v 2.877935 1.413638 -2.731422
v 2.863976 1.376241 -2.962778
v 2.820976 1.726986 -2.044914
v 2.840494 1.886536 -2.075916
v 2.767724 1.358513 -3.838878
v 2.804420 1.660449 -1.984258
v 2.789325 1.523658 -1.975162
v 2.870109 1.159724 -2.663930
v 2.850996 1.122307 -3.133007
v 2.998888 2.169040 -2.856457
v 2.948346 2.134758 -2.457761
v 2.962634 2.061418 -2.649189
v 2.919365 1.967435 -3.716345
v 2.808345 1.995440 -1.918839
v 2.858970 2.036370 -2.040854
v 2.834213 1.364959 -3.295778
v 2.823033 1.170269 -3.355040
v 2.801600 1.786282 -1.941645
v 2.740812 1.661545 -1.790985
v 2.739765 1.656525 -4.203651
v 2.747982 1.851323 -1.654439
v 2.790626 1.233623 -3.603091
vt 1.000000 0.353794
vt 0.448847 0.477921
vt 0.706687 0.324168
vt 0.727315 0.098645
vt 0.533499 0.203891
vt 0.484912 0.023872
vt 0.576003 0.586947
vt 0.638222 0.716948
vt 0.296178 0.665178
vt 0.164634 0.779240
vt 0.067724 0.661662
vt 0.251459 0.563741
vt 0.231908 0.472520
vt 0.492091 0.842596
vt 0.649843 0.835544
vt 0.271633 0.131845
vt 0.421613 0.864263
vt 0.287914 0.863470
vt 0.001721 0.581701
vt 0.000000 0.397897
vt 1.000000 0.538413
vt 0.930242 0.693410
vt 0.876420 0.616144
vt 0.864032 0.197687
vt 0.738355 0.900865
vt 0.793022 0.853934
vt 0.243447 0.342781
vt 0.059970 0.313358
vt 0.538688 0.885106
vt 0.400209 0.940558
vt 0.582559 0.000000
vt 0.572506 1.000000
vt 0.136205 0.219255
vn 0.9403 -0.3275 -0.0925
vn 0.9494 -0.2877 -0.1261
vn 0.9948 -0.0381 0.0941
vn 0.9942 0.0056 0.1073
vn 0.9997 0.0016 0.0224
vn 0.9977 -0.0418 -0.0534
vn 0.9938 0.0133 0.1101
vn 0.9877 -0.0528 0.1469
vn 0.9867 -0.0952 0.1315
vn 0.9797 -0.1210 -0.1599
vn 0.9727 -0.0323 0.2300
vn 0.9490 -0.0845 0.3037
vn 0.9995 -0.0303 0.0020
vn 0.9982 -0.0119 -0.0583
vn 0.9872 -0.1097 0.1157
vn 0.9688 -0.1987 0.1484
vn 0.9713 -0.2281 0.0668
vn 0.9758 -0.2183 0.0119
vn 0.9779 -0.1976 0.0685
vn 0.9680 -0.2076 0.1412
vn 0.9573 -0.2739 -0.0922
vn 0.9537 -0.2762 -0.1187
vn 0.9395 -0.3235 -0.1126
vn 0.9278 -0.1896 0.3213
vn 0.9785 -0.1530 0.1383
vn 0.9960 0.0090 -0.0893
vn 0.9915 -0.0178 -0.1287
vn 0.9675 -0.1946 0.1615
vn 0.9463 -0.0844 0.3119
vn 0.9464 -0.0837 0.3119
vn 0.9666 -0.0703 0.2466
vn 0.9752 -0.0548 0.2145
vn 0.9761 -0.0498 0.2117
vn 0.9402 -0.1680 -0.2962
vn 0.9985 -0.0407 -0.0374
vn 0.9790 -0.1421 0.1461
vn 0.9431 -0.0659 0.3259
vn 0.9797 -0.1213 -0.1594
vn 0.9953 -0.0424 -0.0875
vn 0.9700 -0.1908 -0.1506
vn 0.9862 -0.1657 0.0023
vn 0.9895 -0.1103 -0.0932
vn 0.9909 -0.0162 -0.1336
vn 0.9893 -0.1420 -0.0326
vn 0.9991 0.0407 0.0119
usemtl None
s off
f 1/1/1 2/2/1 3/3/1
f 4/4/2 5/5/2 6/6/2
f 7/7/3 8/8/3 9/9/3
f 10/10/4 11/11/4 9/9/4
f 11/11/5 12/12/5 9/9/5
f 13/13/6 2/2/6 12/12/6
f 14/14/7 10/10/7 9/9/7
f 14/14/8 9/9/8 8/8/8
f 14/14/9 8/8/9 15/15/9
f 5/5/10 16/16/10 6/6/10
f 14/14/11 17/17/11 10/10/11
f 18/18/12 10/10/12 17/17/12
f 19/19/13 12/12/13 11/11/13
f 20/20/14 13/13/14 12/12/14
f 21/21/15 22/22/15 23/23/15
f 23/23/16 22/22/16 8/8/16
f 1/1/17 21/21/17 2/2/17
f 7/7/18 2/2/18 21/21/18
f 7/7/19 21/21/19 23/23/19
f 23/23/20 8/8/20 7/7/20
f 24/24/21 3/3/21 5/5/21
f 24/24/22 5/5/22 4/4/22
f 24/24/23 1/1/23 3/3/23
f 25/25/24 15/15/24 26/26/24
f 26/26/25 15/15/25 8/8/25
f 20/20/26 27/27/26 13/13/26
f 27/27/27 20/20/27 28/28/27
f 22/22/28 26/26/28 8/8/28
f 17/17/29 29/29/29 30/30/29
f 17/17/30 30/30/30 18/18/30
f 15/15/31 25/25/31 14/14/31
f 25/25/32 29/29/32 14/14/32
f 29/29/33 17/17/33 14/14/33
f 31/31/34 4/4/34 6/6/34
f 19/19/35 20/20/35 12/12/35
f 25/25/36 32/32/36 30/30/36
f 25/25/37 30/30/37 29/29/37
f 33/33/38 16/16/38 5/5/38
f 27/27/39 2/2/39 13/13/39
f 5/5/40 3/3/40 27/27/40
f 2/2/41 27/27/41 3/3/41
f 33/33/42 5/5/42 27/27/42
f 28/28/43 33/33/43 27/27/43
f 2/2/44 7/7/44 9/9/44
f 2/2/45 9/9/45 12/12/45
