# Blender v2.79 (sub 0) OBJ File: ''
# www.blender.org
mtllib crack_only_130.mtl
o crack_only_130
v 2.810176 1.401169 -3.312192
v 2.764433 1.252057 -3.621421
v 2.876271 1.992391 -3.669548
v 2.943017 2.381882 -2.160704
v 3.003449 2.603808 -2.465826
v 2.993157 2.691665 -1.932896
v 3.094640 3.805029 -4.560809
v 3.124770 3.827502 -4.228737
v 3.075448 3.439975 -4.460139
v 3.063656 2.936660 -2.517945
v 3.059314 3.447135 -5.058090
v 3.048684 3.310146 -4.826568
v 3.034158 3.161494 -5.067271
v 3.062874 3.580653 -4.757572
v 3.220289 4.551813 -1.348277
v 3.217791 4.624351 -1.715105
v 3.179352 5.083312 -1.402654
v 3.200161 4.154716 -1.682226
v 3.209993 5.009589 -1.926607
v 3.218610 4.596917 -2.266375
v 3.125787 4.091393 -4.371357
v 3.202322 4.267252 -2.314607
v 3.200910 4.204805 -2.032816
v 2.834187 1.381679 -2.855407
v 2.809654 1.173364 -2.656101
v 2.807829 1.359683 -2.204527
v 2.873723 2.074000 -1.921221
v 3.174243 3.799214 -2.024923
v 2.808660 1.162560 -2.792365
v 2.748771 1.459033 -4.014390
v 2.756231 1.765416 -4.345083
v 2.800359 1.135220 -3.115626
v 3.050018 3.107285 -3.875768
v 2.938426 2.579046 -4.160474
v 2.790532 1.161650 -3.272933
v 3.102369 4.282299 -4.588990
v 3.091744 4.115437 -4.685936
v 3.130340 4.462348 -4.742631
v 3.140194 4.348318 -4.187100
v 3.151225 4.235098 -4.090202
v 3.155076 4.700006 -3.959067
v 3.136578 4.605365 -4.422910
v 3.077611 4.085398 -4.866253
v 3.206884 4.379288 -2.823552
v 3.194587 3.944406 -2.692631
v 3.186624 3.947628 -3.082530
v 3.204693 4.352713 -2.575182
v 3.184403 4.311703 -3.732851
v 3.155703 3.770551 -3.596545
v 3.206694 4.553705 -2.538046
v 3.203676 4.449836 -3.085483
v 3.200299 4.404962 -3.330958
v 3.190130 4.047794 -1.316341
v 3.172024 3.837869 -1.655174
v 3.168030 3.821813 -1.451877
v 3.089114 3.343480 -1.266071
v 3.109240 3.445233 -1.435872
v 3.141812 3.638401 -1.286625
v 3.170378 3.758167 -2.287840
v 3.067961 3.707743 -5.010054
v 3.103884 3.258280 -2.106120
v 3.216787 4.854761 -2.422730
v 3.205851 4.770476 -2.762612
v 3.190007 4.729177 -3.145723
v 2.797263 2.132284 -4.642817
v 3.081711 3.205476 -1.749269
v 3.087542 3.274261 -1.544328
v 3.117483 3.405132 -1.809627
v 3.179319 4.740899 -3.565582
v 3.094081 3.196095 -3.009246
v 2.868840 1.754369 -2.596188
v 2.969049 2.378954 -3.144190
v 3.012202 3.055070 -4.471053
v 2.876879 2.537799 -4.883167
v 2.981447 2.688903 -1.260036
v 2.874088 2.303153 -1.372859
v 2.818525 1.946272 -1.560398
v 2.804178 1.617780 -1.824290
vt 0.083881 0.386163
vt 0.054339 0.301980
vt 0.254943 0.315555
vt 0.305686 0.713754
vt 0.376900 0.643931
vt 0.380821 0.782651
vt 0.772465 0.151274
vt 0.767255 0.236884
vt 0.671672 0.164449
vt 0.468426 0.642338
vt 0.694606 0.012180
vt 0.649754 0.066477
vt 0.618643 0.000000
vt 0.719294 0.093310
vt 0.858245 0.996185
vt 0.890549 0.905129
vt 1.000000 1.000000
vt 0.764518 0.897502
vt 1.000000 0.864194
vt 0.903060 0.763709
vt 0.842304 0.209466
vt 0.817052 0.740153
vt 0.790373 0.809849
vt 0.062934 0.502095
vt 0.033131 0.667046
vt 0.000000 0.545670
vt 0.213836 0.763878
vt 0.681983 0.797954
vt 0.001998 0.510569
vt 0.122874 0.208712
vt 0.216080 0.134844
vt 0.006137 0.427198
vt 0.561964 0.301951
vt 0.429486 0.210722
vt 0.018537 0.387929
vt 0.900107 0.160284
vt 0.859115 0.129858
vt 0.954001 0.127417
vt 0.904120 0.265217
vt 0.989485 0.335332
vt 0.870923 0.286164
vt 0.980583 0.213782
vt 0.857273 0.082784
vt 0.865088 0.614263
vt 0.744880 0.632837
vt 0.759514 0.533518
vt 0.849091 0.676649
vt 0.879223 0.380070
vt 0.730266 0.396304
vt 0.901058 0.692924
vt 0.893087 0.549869
vt 0.889915 0.485765
vt 0.722831 0.987065
vt 0.678917 0.893480
vt 0.667279 0.944721
vt 0.531959 0.975332
vt 0.565496 0.935642
vt 0.612121 0.980446
vt 0.680437 0.729531
vt 0.762139 0.033296
vt 0.539859 0.758462
vt 0.976931 0.732565
vt 0.966515 0.643013
vt 0.968917 0.543862
vt 0.324952 0.071664
vt 0.512535 0.847463
vt 0.568470 0.839090
vt 0.523556 0.902063
vt 0.986809 0.437175
vt 0.555514 0.526116
vt 0.153229 0.581012
vt 0.340800 0.463191
vt 0.568540 0.148196
vt 0.442952 0.024695
vt 0.355685 0.953959
vt 0.254900 0.911385
vt 0.165711 0.851120
vt 0.087790 0.772653
vn 0.9855 -0.1535 -0.0717
vn 0.9792 -0.1962 0.0513
vn 0.9935 -0.0757 -0.0850
vn 0.9842 -0.1706 0.0471
vn 0.9961 -0.0875 -0.0061
vn 0.9984 -0.0557 0.0129
vn 0.9969 0.0777 0.0086
vn 0.9992 -0.0385 -0.0144
vn 0.9943 -0.0734 -0.0768
vn 0.9975 0.0485 0.0515
vn 0.9998 0.0205 0.0005
vn 0.9949 -0.0508 -0.0868
vn 0.9988 -0.0485 -0.0057
vn 0.9960 -0.0813 0.0376
vn 0.9811 -0.1889 0.0410
vn 0.9991 -0.0429 0.0036
vn 0.9978 -0.0657 -0.0073
vn 0.9933 -0.1152 0.0019
vn 0.9803 -0.1555 -0.1219
vn 0.9926 -0.1201 -0.0153
vn 0.9831 -0.1671 -0.0752
vn 0.9903 -0.0975 -0.0995
vn 0.9930 -0.1001 0.0635
vn 0.9933 -0.0351 -0.1102
vn 0.9942 -0.0008 -0.1076
vn 0.9956 0.0178 -0.0925
vn 0.9952 0.0138 -0.0971
vn 0.9968 -0.0412 -0.0691
vn 0.9917 -0.1235 0.0359
vn 0.9992 -0.0190 -0.0360
vn 0.9900 -0.0345 -0.1368
vn 0.9988 -0.0253 -0.0429
vn 0.9911 -0.1197 -0.0577
vn 0.9970 -0.0208 -0.0747
vn 0.9992 -0.0345 -0.0207
vn 0.9997 -0.0250 0.0009
vn 0.9952 0.0190 -0.0965
vn 0.9944 -0.0721 -0.0769
vn 0.9975 -0.0467 -0.0530
vn 0.9999 -0.0110 0.0055
vn 0.9984 -0.0439 -0.0368
vn 0.9996 -0.0265 0.0060
vn 0.9999 -0.0114 0.0076
vn 0.9992 -0.0341 -0.0214
vn 0.9985 -0.0456 -0.0289
vn 0.9994 -0.0340 -0.0075
vn 0.9982 -0.0591 0.0101
vn 0.9961 -0.0872 0.0151
vn 0.9961 -0.0874 0.0127
vn 0.9845 -0.1751 0.0118
vn 0.9978 -0.0658 -0.0096
vn 0.9993 -0.0377 -0.0033
vn 0.9980 -0.0629 -0.0049
vn 0.9976 -0.0609 0.0316
vn 0.9935 -0.0510 -0.1022
vn 0.9994 -0.0337 0.0032
vn 0.9996 -0.0279 0.0061
vn 0.9829 -0.1788 0.0436
vn 0.9999 0.0129 0.0097
vn 0.9994 -0.0234 -0.0264
vn 0.9990 -0.0178 -0.0410
vn 1.0000 0.0028 -0.0010
vn 0.9988 0.0491 0.0010
vn 0.9991 0.0092 -0.0423
vn 0.9751 -0.1938 -0.1081
vn 0.9752 -0.1945 -0.1053
vn 0.9854 -0.1680 0.0283
vn 0.9855 -0.1655 0.0368
vn 0.9903 -0.1388 0.0071
vn 0.9919 -0.1258 0.0168
vn 0.9917 -0.1283 0.0093
vn 0.9911 -0.1320 0.0197
vn 0.9913 -0.1307 0.0122
vn 0.9792 -0.1982 0.0429
vn 0.9881 -0.1494 0.0378
vn 0.9988 0.0442 -0.0218
vn 0.9987 0.0455 -0.0242
vn 0.9978 0.0181 -0.0634
vn 0.9977 0.0461 -0.0502
vn 0.9975 -0.0371 -0.0597
vn 0.9890 -0.1448 0.0304
vn 0.9920 -0.1242 -0.0213
vn 0.9973 -0.0626 -0.0384
vn 0.9922 -0.1238 -0.0170
vn 0.9943 -0.0907 -0.0561
vn 0.9956 -0.0603 -0.0723
vn 0.9924 -0.1175 0.0362
vn 0.9815 -0.1881 -0.0349
vn 0.9970 -0.0546 -0.0547
vn 0.9922 -0.1233 -0.0205
vn 0.9748 -0.2185 -0.0458
vn 0.9690 -0.2468 -0.0084
vn 0.9925 -0.1212 0.0149
vn 0.9867 -0.1617 -0.0148
vn 0.9735 -0.2099 -0.0905
vn 0.9842 -0.1767 0.0086
vn 0.9894 -0.1323 -0.0603
vn 0.9933 -0.1136 -0.0215
vn 0.9821 -0.1825 -0.0464
vn 0.9858 -0.1606 -0.0485
vn 0.9803 -0.1560 -0.1212
vn 0.9865 -0.1600 -0.0338
vn 0.9876 -0.1392 -0.0720
vn 0.9891 -0.1426 -0.0357
vn 0.9926 -0.1210 -0.0024
vn 0.9888 -0.1485 -0.0172
vn 0.9912 -0.1324 -0.0016
vn 0.9953 -0.0967 -0.0010
vn 0.9929 -0.1150 0.0299
vn 0.9862 -0.1619 0.0347
vn 0.9859 -0.1654 0.0274
vn 0.9828 -0.1816 0.0342
vn 0.9621 -0.2723 0.0156
vn 0.9843 -0.1755 0.0164
vn 0.9787 -0.1877 0.0833
vn 0.9786 -0.1918 0.0750
vn 0.9836 -0.1658 0.0714
vn 0.9832 -0.1670 0.0732
vn 0.9876 -0.1568 0.0019
vn 0.9931 -0.0965 0.0661
vn 0.9940 -0.0861 0.0680
vn 0.9784 -0.1894 0.0826
usemtl None
s off
f 1/1/1 2/2/1 3/3/1
f 4/4/2 5/5/2 6/6/2
f 7/7/3 8/8/3 9/9/3
f 10/10/4 6/6/4 5/5/4
f 11/11/5 12/12/5 13/13/5
f 14/14/6 12/12/6 11/11/6
f 15/15/7 16/16/7 17/17/7
f 16/16/8 15/15/8 18/18/8
f 7/7/9 9/9/9 14/14/9
f 16/16/10 19/19/10 17/17/10
f 20/20/11 19/19/11 16/16/11
f 8/8/12 7/7/12 21/21/12
f 22/22/13 20/20/13 23/23/13
f 24/24/14 26/25/14 25/26/14
f 27/27/15 4/4/15 6/6/15
f 20/20/16 16/16/16 23/23/16
f 23/23/17 18/18/17 28/28/17
f 24/24/18 25/26/18 29/29/18
f 30/30/19 31/31/19 3/3/19
f 24/24/20 29/29/20 32/32/20
f 33/33/21 3/3/21 34/34/21
f 1/1/22 35/35/22 2/2/22
f 36/36/23 37/37/23 38/38/23
f 37/37/24 21/21/24 7/7/24
f 37/37/25 36/36/25 21/21/25
f 39/39/26 41/40/26 40/41/26
f 40/41/27 21/21/27 39/39/27
f 40/41/28 8/8/28 21/21/28
f 36/36/29 38/38/29 42/42/29
f 39/39/30 42/42/30 41/40/30
f 36/36/31 42/42/31 21/21/31
f 39/39/32 21/21/32 42/42/32
f 37/37/33 43/43/33 38/38/33
f 37/37/34 7/7/34 43/43/34
f 44/44/35 45/45/35 46/46/35
f 47/47/36 22/22/36 45/45/36
f 40/41/37 41/40/37 48/48/37
f 40/41/38 48/48/38 49/49/38
f 40/41/39 49/49/39 8/8/39
f 50/50/40 22/22/40 47/47/40
f 50/50/41 20/20/41 22/22/41
f 44/44/42 47/47/42 45/45/42
f 47/47/43 44/44/43 50/50/43
f 44/44/44 46/46/44 51/51/44
f 52/52/45 46/46/45 48/48/45
f 52/52/46 51/51/46 46/46/46
f 53/53/47 18/18/47 15/15/47
f 54/54/48 28/28/48 18/18/48
f 54/54/49 18/18/49 55/55/49
f 56/56/50 57/57/50 58/58/50
f 23/23/51 28/28/51 22/22/51
f 16/16/52 18/18/52 23/23/52
f 59/59/53 22/22/53 28/28/53
f 59/59/54 45/45/54 22/22/54
f 7/7/55 14/14/55 43/43/55
f 14/14/56 11/11/56 60/60/56
f 60/60/57 43/43/57 14/14/57
f 10/10/58 61/61/58 6/6/58
f 62/62/59 19/19/59 20/20/59
f 63/63/60 62/62/60 50/50/60
f 50/50/61 62/62/61 20/20/61
f 63/63/62 50/50/62 44/44/62
f 64/64/63 44/44/63 51/51/63
f 44/44/64 64/64/64 63/63/64
f 34/34/65 3/3/65 31/31/65
f 34/34/66 31/31/66 65/65/66
f 66/66/67 68/67/67 67/68/67
f 61/61/68 68/67/68 66/66/68
f 68/67/69 59/59/69 28/28/69
f 61/61/70 59/59/70 68/67/70
f 54/54/71 55/55/71 68/67/71
f 68/67/72 28/28/72 54/54/72
f 55/55/73 58/58/73 68/67/73
f 68/67/74 58/58/74 57/57/74
f 68/67/75 57/57/75 67/68/75
f 64/64/76 51/51/76 52/52/76
f 64/64/77 52/52/77 69/69/77
f 52/52/78 41/40/78 69/69/78
f 52/52/79 48/48/79 41/40/79
f 12/12/80 14/14/80 9/9/80
f 57/57/81 56/56/81 67/68/81
f 70/70/82 46/46/82 45/45/82
f 46/46/83 49/49/83 48/48/83
f 49/49/84 46/46/84 70/70/84
f 35/35/85 1/1/85 24/24/85
f 24/24/86 32/32/86 35/35/86
f 71/71/87 26/25/87 24/24/87
f 71/71/88 3/3/88 72/72/88
f 1/1/89 71/71/89 24/24/89
f 1/1/90 3/3/90 71/71/90
f 73/73/91 65/65/91 74/74/91
f 73/73/92 74/74/92 13/13/92
f 12/12/93 73/73/93 13/13/93
f 12/12/94 9/9/94 73/73/94
f 34/34/95 65/65/95 73/73/95
f 10/10/96 5/5/96 72/72/96
f 33/33/97 8/8/97 49/49/97
f 33/33/98 9/9/98 8/8/98
f 33/33/99 34/34/99 73/73/99
f 9/9/100 33/33/100 73/73/100
f 2/2/101 30/30/101 3/3/101
f 33/33/102 70/70/102 3/3/102
f 72/72/103 3/3/103 70/70/103
f 33/33/104 49/49/104 70/70/104
f 61/61/105 10/10/105 70/70/105
f 10/10/106 72/72/106 70/70/106
f 70/70/107 45/45/107 59/59/107
f 61/61/107 70/70/107 59/59/107
f 53/53/108 55/55/108 18/18/108
f 55/55/109 53/53/109 58/58/109
f 67/68/110 56/56/110 75/75/110
f 67/68/111 75/75/111 66/66/111
f 61/61/112 66/66/112 6/6/112
f 6/6/113 75/75/113 76/76/113
f 75/75/114 6/6/114 66/66/114
f 27/27/115 6/6/115 77/77/115
f 6/6/116 76/76/116 77/77/116
f 27/27/117 71/71/117 4/4/117
f 4/4/118 71/71/118 5/5/118
f 5/5/119 71/71/119 72/72/119
f 78/78/120 71/71/120 77/77/120
f 71/71/121 78/78/121 26/25/121
f 27/27/122 77/77/122 71/71/122
