# Blender v2.79 (sub 0) OBJ File: ''
# www.blender.org
mtllib crack_only_32.mtl
o crack_only_32
v 2.840383 1.503031 -3.342228
v 2.857275 1.378631 -2.973407
v 2.868363 1.609645 -3.011264
v 2.848894 1.386305 -2.164490
v 2.866679 1.553016 -2.489076
v 2.884107 1.268963 -2.398785
v 2.872482 1.425451 -2.718095
v 2.873876 1.593762 -2.744313
v 2.888726 1.158509 -2.680392
v 2.885645 1.137232 -2.879691
v 2.799701 1.212322 -3.528204
v 2.827516 1.173033 -3.369689
v 2.794172 1.345654 -3.585170
v 2.790551 1.248697 -3.634042
v 2.868004 1.120176 -3.127546
vt 0.173802 0.789586
vt 0.000000 0.560351
vt 0.484221 0.545857
vt 0.580100 0.000000
vt 0.793188 0.162229
vt 0.189954 0.210684
vt 0.423327 0.370883
vt 0.070344 0.380764
vt 0.983670 0.357165
vt 1.000000 0.492731
vt 0.854351 0.823790
vt 0.749199 0.929936
vt 0.464173 0.962425
vt 0.658471 1.000000
vt 1.000000 0.661388
vn 0.9961 -0.0585 -0.0654
vn 0.9904 0.0932 0.1022
vn 0.9982 0.0589 -0.0075
vn 0.9972 -0.0559 -0.0491
vn 0.9997 -0.0116 -0.0213
vn 0.9996 -0.0040 0.0275
vn 0.9982 0.0597 -0.0071
vn 0.9933 0.0875 -0.0752
vn 0.9837 -0.0235 -0.1784
vn 0.9964 0.0053 -0.0843
vn 0.9854 -0.0307 -0.1675
vn 0.9933 0.0870 -0.0767
vn 0.9829 0.1228 -0.1375
vn 0.9978 -0.0341 -0.0572
vn 0.9981 0.0577 -0.0216
usemtl None
s off
f 1/1/1 3/2/1 2/3/1
f 4/4/2 6/5/2 5/6/2
f 6/5/3 7/7/3 5/6/3
f 2/3/4 3/2/4 7/7/4
f 8/8/5 7/7/5 3/2/5
f 8/8/6 5/6/6 7/7/6
f 9/9/7 7/7/7 6/5/7
f 10/10/8 2/3/8 7/7/8
f 12/11/9 11/12/9 1/1/9
f 13/13/10 11/12/10 14/14/10
f 13/13/11 1/1/11 11/12/11
f 15/15/12 2/3/12 10/10/12
f 15/15/13 12/11/13 2/3/13
f 2/3/14 12/11/14 1/1/14
f 9/9/15 10/10/15 7/7/15
