# Blender v2.79 (sub 0) OBJ File: ''
# www.blender.org
mtllib crack_only_102.mtl
o crack_only_102
v 2.823890 1.407363 -3.306205
v 2.771329 1.240794 -3.606320
v 2.897211 1.984717 -3.666479
v 2.897913 2.516989 -4.636545
v 2.932282 2.551113 -4.415786
v 2.795854 2.133414 -4.642659
v 3.020460 2.496753 -2.490452
v 3.051200 2.804015 -2.069942
v 2.983794 2.404768 -2.245997
v 3.098384 2.891387 -2.519329
v 2.820327 1.682212 -1.943699
v 2.883646 2.007241 -2.205488
v 2.812680 1.948812 -1.559532
v 2.820518 1.323647 -2.288541
v 2.864366 1.757316 -2.444404
v 2.974956 2.596045 -1.537981
v 2.988574 2.687961 -1.258504
v 2.872643 2.303769 -1.373166
v 2.748144 1.459124 -4.013949
v 2.752223 1.765794 -4.342555
v 2.859948 1.542684 -2.943563
v 2.819204 1.130414 -3.122095
v 2.824936 1.159814 -2.782408
v 2.800046 1.618470 -1.824542
v 2.807623 1.154859 -3.262461
v 2.899232 1.820210 -2.693422
v 3.156522 3.338706 -2.600751
v 3.192797 3.851225 -2.305868
v 3.201606 3.943735 -2.688465
v 3.111916 2.998808 -2.950750
v 3.073040 2.766175 -3.056365
v 3.063459 3.013351 -1.252395
v 3.033669 2.867970 -1.445973
v 3.122143 3.179672 -2.195118
v 2.982937 2.884372 -4.566602
v 3.040265 3.031188 -4.279255
v 2.834183 2.362587 -4.774775
v 3.004010 2.686158 -4.138639
v 2.982035 2.934978 -4.670024
v 2.960745 2.808361 -4.632458
v 3.042416 3.158469 -4.392342
v 3.020159 3.101874 -4.513728
v 3.171129 3.721822 -1.288362
v 3.171613 3.642910 -1.631389
v 3.124571 3.295130 -1.599257
v 2.871122 2.549419 -4.883069
v 2.945999 2.766057 -4.755856
v 3.079569 2.892792 -3.602421
v 3.120608 3.142179 -3.382419
v 3.086457 2.904129 -3.358498
v 3.169694 3.536536 -3.422844
v 3.105892 3.140878 -3.709725
v 3.164650 3.483664 -3.057966
v 3.137436 3.217585 -3.185817
v 3.145923 3.256324 -3.006880
v 3.181416 3.675375 -3.074445
v 3.108150 3.230567 -1.247193
v 3.200420 3.851070 -3.087410
v 3.130149 3.401174 -1.872336
v 3.027746 3.233904 -4.639651
v 3.187078 3.813243 -1.974199
v 3.147843 3.478408 -1.996729
v 3.001486 3.051824 -4.851742
v 2.914920 2.723127 -4.971078
v 2.959242 2.861487 -4.919816
v 2.990664 2.931581 -5.058887
v 3.042134 2.606329 -3.251788
v 2.975084 2.174578 -3.054206
v 2.992353 2.355633 -3.517556
v 3.058551 2.716862 -3.389172
v 2.979949 2.283556 -2.823720
v 3.079332 3.224038 -5.076309
v 2.960783 2.507573 -1.680464
v 3.049249 2.920394 -1.658139
v 3.202459 4.030865 -2.228259
v 3.070254 3.234590 -4.225015
v 3.082938 3.470040 -4.442577
v 3.197813 4.086048 -1.844612
v 3.189111 3.783179 -3.476077
v 3.124224 3.598187 -4.185958
v 3.095621 3.316215 -4.084010
v 3.148412 3.674873 -3.954819
v 3.150279 3.559340 -3.758204
v 3.014270 2.589790 -3.824634
v 2.923113 2.378241 -4.171084
v 3.105843 3.297396 -3.927982
v 3.061484 3.413198 -4.576612
v 3.041776 3.320222 -4.802461
v 3.074122 3.130768 -4.071238
v 3.215731 4.171377 -1.321777
vt 0.125892 0.361012
vt 0.085914 0.276918
vt 0.360766 0.300411
vt 0.620205 0.083935
vt 0.618066 0.141357
vt 0.479140 0.062020
vt 0.463010 0.621849
vt 0.542807 0.742753
vt 0.410533 0.677991
vt 0.609209 0.635224
vt 0.123468 0.715661
vt 0.261226 0.667083
vt 0.189389 0.824931
vt 0.021688 0.611580
vt 0.189101 0.594634
vt 0.426046 0.864587
vt 0.438932 0.939287
vt 0.304810 0.889980
vt 0.191739 0.185369
vt 0.324590 0.118349
vt 0.149318 0.458987
vt 0.000000 0.479894
vt 0.014093 0.393323
vt 0.091059 0.742058
vt 0.032365 0.359237
vt 0.231508 0.535885
vt 0.776810 0.637784
vt 1.000000 0.646401
vt 0.938788 0.737478
vt 0.679532 0.532726
vt 0.602702 0.494237
vt 0.557882 0.957950
vt 0.518887 0.901885
vt 0.688935 0.730985
vt 0.749926 0.120794
vt 0.784106 0.200779
vt 0.572086 0.040817
vt 0.649621 0.218401
vt 0.775356 0.097398
vt 0.726586 0.100242
vt 0.837567 0.178802
vt 0.825159 0.145308
vt 0.817400 0.985496
vt 0.686417 0.885903
vt 0.814546 0.895722
vt 0.648219 0.023462
vt 0.719803 0.067055
vt 0.687811 0.363898
vt 0.762336 0.431881
vt 0.674384 0.425616
vt 0.907680 0.441958
vt 0.784977 0.349680
vt 0.862011 0.530614
vt 0.776723 0.531890
vt 0.775609 0.485062
vt 0.932042 0.536211
vt 0.636912 0.970617
vt 0.996269 0.541925
vt 0.744239 0.822868
vt 0.881542 0.120427
vt 0.900782 0.818549
vt 0.781665 0.795793
vt 0.831098 0.057958
vt 0.718602 0.010628
vt 0.766317 0.030916
vt 0.803049 0.000000
vt 0.558656 0.436979
vt 0.387586 0.464148
vt 0.486528 0.357355
vt 0.608754 0.408284
vt 0.409609 0.527310
vt 0.912820 0.011328
vt 0.404338 0.824344
vt 0.553822 0.851580
vt 0.997275 0.765934
vt 0.853844 0.224838
vt 0.953834 0.182207
vt 0.988525 0.864645
vt 1.000000 0.441111
vt 0.982757 0.253356
vt 0.873856 0.264525
vt 0.994368 0.315346
vt 0.939186 0.358870
vt 0.593114 0.292376
vt 0.538450 0.193929
vt 0.856356 0.302792
vt 0.942307 0.145546
vt 0.924789 0.084135
vt 0.806051 0.258246
vt 0.981533 1.000000
vn 0.9821 -0.1724 -0.0763
vn 0.9609 -0.2539 -0.1103
vn 0.9777 -0.1970 0.0725
vn 0.9798 -0.1886 0.0662
vn 0.9887 -0.1134 0.0984
vn 0.9885 -0.1046 0.1093
vn 0.9954 -0.0941 0.0181
vn 0.9515 -0.3030 0.0533
vn 0.9727 -0.1755 -0.1518
vn 0.9955 -0.0947 -0.0086
vn 0.9873 -0.1207 0.1034
vn 0.9884 -0.0854 -0.1257
vn 0.9906 -0.0553 0.1247
vn 0.9881 -0.1065 0.1112
vn 0.9973 -0.0736 0.0052
vn 0.9916 -0.1291 -0.0010
vn 0.9869 -0.1608 -0.0091
vn 0.9743 -0.2246 0.0187
vn 0.9842 -0.1619 0.0719
vn 0.9942 -0.0970 0.0462
vn 0.9918 -0.1223 0.0361
vn 0.9766 -0.1922 -0.0966
vn 0.9547 -0.2515 -0.1593
vn 0.9709 -0.1706 -0.1682
vn 0.9753 -0.1948 -0.1038
vn 0.9829 -0.1313 -0.1290
vn 0.9834 -0.1404 -0.1149
vn 0.9909 -0.1311 0.0316
vn 0.9580 -0.2598 -0.1214
vn 0.9542 -0.2573 -0.1525
vn 0.9893 -0.1441 -0.0212
vn 0.9910 -0.1275 -0.0403
vn 0.9910 -0.1256 -0.0472
vn 0.9957 -0.0883 -0.0281
vn 0.9964 -0.0841 -0.0089
vn 0.9907 -0.1347 -0.0178
vn 0.9914 -0.1308 0.0007
vn 0.9890 -0.1448 -0.0291
vn 0.9962 -0.0870 0.0012
vn 0.9912 -0.1271 -0.0361
vn 0.9949 -0.1013 -0.0009
vn 0.9919 -0.1252 0.0233
vn 0.9819 -0.1814 -0.0551
vn 0.9942 -0.1069 0.0091
vn 0.9900 -0.1370 -0.0330
vn 0.9859 -0.1417 -0.0892
vn 0.9932 -0.1166 0.0038
vn 0.9855 -0.1489 -0.0814
vn 0.9800 -0.1978 -0.0223
vn 0.9946 -0.1009 0.0230
vn 0.9932 -0.1155 -0.0126
vn 0.9558 -0.2824 -0.0817
vn 0.9644 -0.2474 0.0932
vn 0.9784 -0.2031 -0.0392
vn 0.9454 -0.3219 0.0514
vn 0.9576 -0.2759 -0.0832
vn 0.9857 -0.1659 -0.0281
vn 0.9847 -0.1729 -0.0214
vn 0.9650 -0.2579 0.0477
vn 0.9526 -0.2820 0.1139
vn 0.9884 -0.1520 0.0081
vn 0.9772 -0.1984 0.0758
vn 0.9713 -0.2331 0.0481
vn 0.9843 -0.1685 0.0523
vn 0.9795 -0.2004 0.0224
vn 0.9754 -0.2189 0.0245
vn 0.9753 -0.1951 -0.1035
vn 0.9709 -0.2077 -0.1191
vn 0.9767 -0.2100 -0.0447
vn 0.9786 -0.2054 0.0080
vn 0.9795 -0.2015 0.0006
vn 0.9810 -0.1938 -0.0011
vn 0.9983 -0.0576 0.0091
vn 0.9847 -0.1439 -0.0983
vn 0.9900 -0.1343 0.0426
vn 0.9982 -0.0582 0.0105
vn 0.9986 -0.0483 0.0190
vn 0.9814 -0.1668 0.0953
vn 0.9862 -0.1568 0.0533
vn 0.9684 -0.2356 0.0822
vn 0.9966 -0.0816 -0.0147
vn 0.9865 -0.1367 -0.0904
vn 0.9858 -0.1357 -0.0988
vn 0.9937 -0.0922 -0.0636
vn 0.9937 -0.0920 -0.0638
vn 0.9682 -0.2190 -0.1211
vn 0.9728 -0.2124 -0.0925
vn 0.9656 -0.2311 0.1194
vn 0.9861 -0.1640 0.0278
vn 0.9819 -0.1895 -0.0003
vn 0.9820 -0.1888 0.0014
vn 0.9900 -0.1175 -0.0784
vn 0.9904 -0.1232 -0.0628
vn 0.9900 -0.1168 -0.0789
vn 0.9839 -0.1525 -0.0928
vn 0.9842 -0.1445 -0.1025
vn 0.9834 -0.1811 -0.0113
vn 0.9887 -0.1495 0.0059
vn 0.9817 -0.1579 -0.1064
vn 0.9855 -0.1686 -0.0179
vn 0.9894 -0.1439 -0.0218
vn 0.9881 -0.1503 -0.0326
vn 0.9887 -0.1478 -0.0236
vn 0.9652 -0.2243 -0.1344
vn 0.9617 -0.2378 -0.1361
vn 0.9866 -0.1440 -0.0764
vn 0.9897 -0.1164 -0.0837
vn 0.9896 -0.1202 -0.0793
vn 0.9986 -0.0491 0.0206
vn 0.9948 -0.1000 -0.0178
vn 0.9985 -0.0525 0.0135
vn 0.9888 -0.1488 0.0098
vn 0.9876 -0.1514 -0.0417
vn 0.9728 -0.2165 -0.0822
vn 0.9843 -0.1728 0.0372
vn 0.9821 -0.1852 -0.0358
vn 0.9946 -0.0763 -0.0704
vn 0.9940 -0.0583 -0.0922
vn 0.9776 -0.2012 0.0615
vn 0.9760 -0.2169 0.0181
vn 0.9728 -0.1767 -0.1500
vn 0.9675 -0.2381 0.0848
vn 0.9543 -0.2871 0.0833
vn 0.9654 -0.2288 0.1252
vn 0.9965 -0.0767 0.0343
vn 0.9639 -0.1806 0.1956
vn 0.9884 -0.1357 0.0686
vn 0.9806 -0.1887 -0.0533
vn 0.9856 -0.1414 -0.0927
vn 0.9871 -0.1161 -0.1104
vn 0.9873 -0.1215 -0.1025
vn 0.9870 -0.1158 -0.1115
vn 0.9900 -0.1146 -0.0824
vn 0.9915 -0.1127 -0.0651
vn 0.9857 -0.1467 -0.0825
vn 0.9961 -0.0880 -0.0102
vn 0.9972 -0.0744 -0.0005
vn 0.9941 -0.1059 0.0216
vn 0.9644 -0.2422 -0.1059
vn 0.9620 -0.2388 -0.1326
vn 0.9612 -0.2410 -0.1343
vn 0.9853 -0.1663 -0.0401
vn 0.9839 -0.1690 -0.0587
vn 0.9852 -0.1445 -0.0924
vn 0.9894 -0.1439 -0.0212
vn 0.9816 -0.1900 0.0217
vn 0.9900 -0.1265 0.0623
usemtl None
s off
f 1/1/1 2/2/1 3/3/1
f 4/4/2 5/5/2 6/6/2
f 7/7/3 8/8/3 9/9/3
f 7/7/4 10/10/4 8/8/4
f 11/11/5 12/12/5 13/13/5
f 12/12/6 11/11/6 14/14/6
f 12/12/7 14/14/7 15/15/7
f 16/16/8 17/17/8 18/18/8
f 19/19/9 20/20/9 3/3/9
f 21/21/10 23/22/10 22/23/10
f 11/11/11 13/13/11 24/24/11
f 1/1/12 25/25/12 2/2/12
f 26/26/13 15/15/13 14/14/13
f 24/24/14 14/14/14 11/11/14
f 27/27/15 29/28/15 28/29/15
f 30/30/16 27/27/16 10/10/16
f 31/31/17 30/30/17 10/10/17
f 32/32/18 17/17/18 33/33/18
f 8/8/19 10/10/19 34/34/19
f 27/27/20 28/29/20 34/34/20
f 27/27/21 34/34/21 10/10/21
f 35/35/22 36/36/22 5/5/22
f 4/4/23 6/6/23 37/37/23
f 36/36/24 38/38/24 5/5/24
f 39/39/25 35/35/25 40/40/25
f 35/35/26 41/41/26 36/36/26
f 42/42/27 41/41/27 35/35/27
f 43/43/28 45/44/28 44/45/28
f 46/46/29 47/47/29 37/37/29
f 4/4/30 37/37/30 47/47/30
f 48/48/31 49/49/31 50/50/31
f 49/49/32 48/48/32 51/51/32
f 52/52/33 51/51/33 48/48/33
f 53/53/34 55/54/34 54/55/34
f 53/53/35 27/27/35 55/54/35
f 55/54/36 30/30/36 54/55/36
f 55/54/37 27/27/37 30/30/37
f 54/55/38 50/50/38 49/49/38
f 56/56/39 53/53/39 51/51/39
f 54/55/40 49/49/40 51/51/40
f 54/55/41 51/51/41 53/53/41
f 57/57/42 45/44/42 43/43/42
f 40/40/43 47/47/43 39/39/43
f 58/58/44 56/56/44 51/51/44
f 59/59/45 44/45/45 45/44/45
f 60/60/46 42/42/46 39/39/46
f 61/61/47 62/62/47 28/29/47
f 39/39/48 42/42/48 35/35/48
f 39/39/49 47/47/49 63/63/49
f 62/62/50 34/34/50 28/29/50
f 62/62/51 61/61/51 44/45/51
f 64/64/52 47/47/52 46/46/52
f 65/65/53 66/66/53 63/63/53
f 65/65/54 63/63/54 47/47/54
f 65/65/55 64/64/55 66/66/55
f 64/64/56 65/65/56 47/47/56
f 67/67/57 68/68/57 69/69/57
f 67/67/58 69/69/58 70/70/58
f 71/71/59 7/7/59 9/9/59
f 72/72/60 63/63/60 66/66/60
f 60/60/61 39/39/61 63/63/61
f 73/73/62 9/9/62 8/8/62
f 73/73/63 8/8/63 16/16/63
f 74/74/64 8/8/64 34/34/64
f 74/74/65 45/44/65 33/33/65
f 16/16/66 33/33/66 17/17/66
f 35/35/67 5/5/67 40/40/67
f 40/40/68 5/5/68 4/4/68
f 40/40/69 4/4/69 47/47/69
f 57/57/70 33/33/70 45/44/70
f 57/57/71 32/32/71 33/33/71
f 31/31/72 10/10/72 7/7/72
f 75/75/73 28/29/73 29/28/73
f 76/76/74 41/41/74 77/77/74
f 67/67/75 71/71/75 68/68/75
f 61/61/76 28/29/76 75/75/76
f 75/75/77 78/78/77 61/61/77
f 12/12/78 15/15/78 26/26/78
f 68/68/79 71/71/79 26/26/79
f 73/73/80 12/12/80 9/9/80
f 79/79/81 58/58/81 51/51/81
f 76/76/82 77/77/82 80/80/82
f 76/76/83 80/80/83 81/81/83
f 82/82/84 79/79/84 83/83/84
f 79/79/85 51/51/85 83/83/85
f 84/84/86 3/3/86 85/85/86
f 84/84/87 69/69/87 3/3/87
f 12/12/88 26/26/88 9/9/88
f 71/71/89 9/9/89 26/26/89
f 71/71/90 67/67/90 31/31/90
f 31/31/91 7/7/91 71/71/91
f 82/82/92 83/83/92 81/81/92
f 82/82/93 81/81/93 80/80/93
f 81/81/94 83/83/94 86/86/94
f 87/87/95 77/77/95 60/60/95
f 60/60/96 77/77/96 41/41/96
f 87/87/97 60/60/97 88/88/97
f 88/88/98 60/60/98 63/63/98
f 60/60/99 41/41/99 42/42/99
f 70/70/100 31/31/100 67/67/100
f 50/50/101 31/31/101 70/70/101
f 54/55/102 30/30/102 31/31/102
f 54/55/103 31/31/103 50/50/103
f 3/3/104 20/20/104 6/6/104
f 85/85/105 3/3/105 6/6/105
f 89/89/106 84/84/106 38/38/106
f 52/52/107 89/89/107 86/86/107
f 86/86/108 89/89/108 81/81/108
f 61/61/109 78/78/109 44/45/109
f 90/90/110 43/43/110 78/78/110
f 43/43/111 44/45/111 78/78/111
f 21/21/112 26/26/112 14/14/112
f 1/1/113 3/3/113 21/21/113
f 21/21/114 3/3/114 69/69/114
f 68/68/115 26/26/115 21/21/115
f 68/68/116 21/21/116 69/69/116
f 25/25/117 1/1/117 21/21/117
f 21/21/118 22/23/118 25/25/118
f 74/74/119 16/16/119 8/8/119
f 16/16/120 74/74/120 33/33/120
f 2/2/121 19/19/121 3/3/121
f 12/12/122 73/73/122 13/13/122
f 16/16/123 18/18/123 73/73/123
f 73/73/124 18/18/124 13/13/124
f 21/21/125 14/14/125 23/22/125
f 88/88/126 63/63/126 72/72/126
f 74/74/127 34/34/127 59/59/127
f 59/59/128 45/44/128 74/74/128
f 36/36/129 89/89/129 38/38/129
f 36/36/130 76/76/130 81/81/130
f 36/36/131 81/81/131 89/89/131
f 41/41/132 76/76/132 36/36/132
f 83/83/133 52/52/133 86/86/133
f 52/52/134 83/83/134 51/51/134
f 84/84/135 89/89/135 52/52/135
f 53/53/136 56/56/136 27/27/136
f 56/56/137 29/28/137 27/27/137
f 56/56/138 58/58/138 29/28/138
f 85/85/139 38/38/139 84/84/139
f 85/85/140 5/5/140 38/38/140
f 85/85/141 6/6/141 5/5/141
f 48/48/142 70/70/142 69/69/142
f 69/69/143 84/84/143 48/48/143
f 52/52/144 48/48/144 84/84/144
f 48/48/145 50/50/145 70/70/145
f 62/62/146 44/45/146 59/59/146
f 59/59/147 34/34/147 62/62/147
