# Blender v2.79 (sub 0) OBJ File: ''
# www.blender.org
mtllib crack_only_68.mtl
o crack_only_68
v 2.953492 1.967673 -3.240363
v 3.026447 2.369712 -3.514001
v 3.044675 2.368738 -2.996860
v 2.906803 1.800159 -3.357985
v 2.874367 1.396635 -2.734787
v 2.834032 1.356925 -2.205056
v 2.866159 1.516853 -2.470322
v 2.877451 1.572047 -2.995882
v 2.861599 1.361148 -2.970299
v 2.908119 1.758173 -2.696095
v 2.956132 2.059449 -2.640760
v 2.884812 1.782811 -2.378303
v 2.824516 2.031010 -1.738582
v 2.813213 1.929247 -1.830832
v 2.792117 1.965405 -1.551993
v 2.841048 2.055235 -1.812141
v 2.841482 1.911616 -2.016141
v 2.809722 2.212320 -4.695991
v 2.777274 1.972897 -4.515594
v 2.844377 2.181053 -4.455481
v 2.804644 1.945640 -4.273164
v 2.844545 1.887679 -3.980038
v 2.747626 1.781429 -4.352914
v 2.922507 2.428865 -1.584911
v 2.844320 2.172961 -1.452585
v 2.855187 1.154709 -2.763901
v 2.856169 1.162563 -2.664138
v 2.840391 1.125011 -3.129367
v 2.874353 2.153577 -4.226971
v 2.881965 2.085652 -4.046471
v 2.964474 2.371913 -4.067291
v 2.911439 2.116575 -3.913395
v 3.073269 2.638620 -3.732198
v 3.006839 2.416491 -3.803547
v 3.036300 2.560639 -3.914140
v 2.973052 2.282687 -3.768647
v 2.924470 2.011420 -3.682966
v 2.888060 1.568187 -2.761979
v 2.825608 2.012446 -4.251451
v 2.806442 1.469667 -3.728580
v 2.805892 1.400483 -3.628626
v 2.833666 1.618262 -3.656705
v 2.774279 1.320669 -3.758802
v 2.785534 1.234937 -3.607762
v 2.790747 1.831695 -1.786100
v 2.808668 1.850532 -1.898918
v 2.794801 1.733304 -1.912901
v 2.846476 1.811625 -2.098078
v 2.872918 1.869062 -3.797376
v 2.802474 1.649026 -3.911542
v 2.748507 1.459071 -4.014204
v 2.769834 1.734033 -1.738507
v 2.889334 2.326976 -4.450567
v 2.977521 2.461169 -4.185140
v 2.881230 2.216651 -1.785845
v 3.021090 2.502209 -2.314293
v 2.904517 2.011612 -2.311060
v 3.051979 2.760148 -2.009372
v 3.087826 2.797347 -2.247809
v 3.113343 2.728100 -3.519279
v 2.761118 1.624966 -1.826922
v 2.744457 1.592126 -4.154646
v 3.111844 2.799622 -2.833007
v 3.042149 2.750441 -1.895224
v 2.977230 2.635957 -1.518281
v 2.939436 2.605168 -1.288669
v 2.836169 1.403544 -3.318039
vt 0.486205 0.581550
vt 0.227488 0.650875
vt 0.252486 0.500534
vt 0.584019 0.620098
vt 0.856792 0.448885
vt 0.800768 0.369354
vt 0.912087 0.296384
vt 0.740021 0.520574
vt 0.867030 0.518237
vt 0.642530 0.428851
vt 0.462822 0.405249
vt 0.647145 0.336222
vt 0.541407 0.145247
vt 0.593335 0.092922
vt 0.597747 0.174531
vt 0.521453 0.165875
vt 0.595241 0.228473
vt 0.284714 1.000000
vt 0.311345 0.930536
vt 0.438385 0.953540
vt 0.463618 0.883498
vt 0.508007 0.799326
vt 0.562658 0.911075
vt 0.304154 0.090325
vt 0.470425 0.058672
vt 0.999600 0.463192
vt 1.000000 0.434027
vt 1.000000 0.570169
vt 0.335685 0.864516
vt 0.205070 0.812127
vt 0.383944 0.813610
vt 0.369151 0.773943
vt 0.052868 0.707478
vt 0.187455 0.734065
vt 0.093663 0.762512
vt 0.271794 0.727400
vt 0.441196 0.709354
vt 0.753056 0.452630
vt 0.423038 0.875418
vt 0.770852 0.736464
vt 0.684090 0.711840
vt 0.816673 0.709061
vt 0.860573 0.749050
vt 0.917344 0.707079
vt 0.659971 0.164050
vt 0.641000 0.196191
vt 0.710745 0.203134
vt 0.649149 0.254556
vt 0.524979 0.746429
vt 0.656610 0.785442
vt 0.769227 0.820243
vt 0.722224 0.152724
vt 0.220619 0.925242
vt 0.145071 0.844132
vt 0.423293 0.154057
vt 0.513940 0.311143
vt 0.211981 0.299430
vt 0.072564 0.204534
vt 0.034242 0.272545
vt 0.006548 0.643148
vt 0.782744 0.181039
vt 0.684367 0.857957
vt 0.000000 0.442193
vt 0.085289 0.171711
vt 0.179534 0.065578
vt 0.213868 0.000000
vt 0.827267 0.618488
vn 0.9789 -0.2014 -0.0349
vn 0.9724 -0.2230 -0.0684
vn 0.9940 -0.0847 0.0693
vn 0.9783 -0.2054 -0.0281
vn 0.9720 -0.2262 -0.0637
vn 0.9959 -0.0799 -0.0419
vn 0.9804 -0.1734 0.0932
vn 0.9814 -0.1721 0.0853
vn 0.9750 -0.1985 0.0995
vn 0.9624 -0.2333 0.1395
vn 0.9569 -0.2364 0.1685
vn 0.9511 -0.2574 -0.1705
vn 0.9532 -0.2445 -0.1781
vn 0.9614 -0.2652 0.0737
vn 0.9623 -0.2670 0.0522
vn 0.9969 -0.0786 -0.0036
vn 0.9972 -0.0592 -0.0452
vn 0.9966 -0.0749 -0.0343
vn 0.9476 -0.2838 -0.1468
vn 0.9480 -0.2837 -0.1440
vn 0.9618 -0.2608 -0.0837
vn 0.9681 -0.2144 -0.1297
vn 0.9615 -0.2535 -0.1061
vn 0.9568 -0.2699 -0.1084
vn 0.9951 -0.0868 -0.0466
vn 0.9545 -0.2646 -0.1375
vn 0.9570 -0.2559 -0.1368
vn 0.9538 -0.2687 -0.1343
vn 0.9481 -0.2761 -0.1576
vn 0.9627 -0.2215 -0.1555
vn 0.9550 -0.2769 -0.1066
vn 0.9582 -0.2681 -0.1002
vn 0.9581 -0.2648 -0.1091
vn 0.9956 -0.0696 0.0625
vn 0.9959 -0.0558 0.0716
vn 0.9865 -0.1374 -0.0897
vn 0.9749 -0.1855 -0.1230
vn 0.9785 -0.1395 -0.1521
vn 0.9787 -0.1807 0.0975
vn 0.9657 -0.1996 0.1663
vn 0.9777 -0.1667 0.1275
vn 0.9821 -0.1322 0.1339
vn 0.9819 -0.1196 0.1466
vn 0.9946 -0.0487 0.0911
vn 0.9617 -0.2323 -0.1457
vn 0.9670 -0.1702 -0.1898
vn 0.9606 -0.2186 -0.1715
vn 0.9819 -0.1667 0.0894
vn 0.9460 -0.2863 -0.1519
vn 0.9337 -0.3275 -0.1447
vn 0.9646 -0.2283 0.1319
vn 0.9643 -0.2422 0.1072
vn 0.9775 -0.1324 0.1640
vn 0.9658 -0.2243 0.1304
vn 0.9452 -0.2661 0.1894
vn 0.9876 -0.0670 0.1420
vn 0.9701 -0.1385 0.1994
vn 0.9711 -0.2360 -0.0347
vn 0.9680 -0.1285 0.2158
vn 0.9622 -0.0972 0.2544
vn 0.9684 -0.0819 0.2356
vn 0.9682 -0.2360 -0.0831
vn 0.9548 -0.2782 -0.1050
vn 0.9420 -0.2990 -0.1522
vn 0.9540 -0.2416 -0.1776
vn 0.9546 -0.2398 -0.1768
vn 0.9413 -0.2975 -0.1593
vn 0.9950 -0.0889 -0.0466
vn 0.9783 -0.2053 0.0274
vn 0.9920 -0.0974 0.0803
vn 0.9910 -0.1229 0.0528
vn 0.9829 -0.1246 0.1358
vn 0.9663 -0.2288 0.1181
vn 0.9842 -0.1153 -0.1344
vn 0.9666 -0.1721 -0.1897
vn 0.9666 -0.1717 -0.1905
vn 0.9814 -0.1792 0.0690
vn 0.9868 -0.1610 0.0189
vn 0.9778 -0.1967 0.0723
vn 0.9602 -0.2535 0.1172
vn 0.9587 -0.2703 0.0886
vn 0.9570 -0.2594 0.1297
vn 0.9799 -0.1412 0.1409
vn 0.9716 -0.1910 0.1399
vn 0.9429 -0.2847 -0.1729
vn 0.9570 -0.2787 0.0802
vn 0.9523 -0.2998 0.0565
vn 0.9600 -0.2668 0.0846
vn 0.9501 -0.2889 0.1176
vn 0.9727 -0.2287 0.0390
vn 0.9963 -0.0373 -0.0774
vn 0.9888 -0.0732 -0.1302
vn 0.9646 -0.2472 0.0920
vn 0.9834 -0.1784 -0.0327
vn 0.9929 -0.0847 -0.0829
vn 0.9745 -0.1862 -0.1252
vn 0.9865 -0.1333 -0.0949
vn 0.9859 -0.1379 -0.0947
vn 0.9624 -0.2111 -0.1710
vn 0.9619 -0.2318 -0.1449
vn 0.9683 -0.2301 -0.0970
vn 0.9684 -0.2300 -0.0968
vn 0.9590 -0.2335 -0.1608
vn 0.9592 -0.2343 -0.1580
vn 0.9592 -0.2200 -0.1774
vn 0.9586 -0.2133 -0.1884
usemtl None
s off
f 1/1/1 2/2/1 3/3/1
f 1/1/2 4/4/2 2/2/2
f 5/5/3 7/6/3 6/7/3
f 1/1/4 3/3/4 8/8/4
f 1/1/5 8/8/5 4/4/5
f 9/9/6 8/8/6 5/5/6
f 10/10/7 3/3/7 11/11/7
f 10/10/8 11/11/8 12/12/8
f 13/13/9 15/14/9 14/15/9
f 13/13/10 14/15/10 16/16/10
f 14/15/11 17/17/11 16/16/11
f 18/18/12 20/19/12 19/20/12
f 21/21/13 22/22/13 23/23/13
f 13/13/14 24/24/14 15/14/14
f 24/24/15 25/25/15 15/14/15
f 26/26/16 5/5/16 27/27/16
f 28/28/17 9/9/17 5/5/17
f 26/26/18 28/28/18 5/5/18
f 29/29/19 31/30/19 30/31/19
f 32/32/20 30/31/20 31/30/20
f 33/33/21 34/34/21 35/35/21
f 36/36/22 2/2/22 37/37/22
f 34/34/23 33/33/23 2/2/23
f 34/34/24 2/2/24 36/36/24
f 38/38/25 5/5/25 8/8/25
f 21/21/26 23/23/26 19/20/26
f 39/39/27 21/21/27 19/20/27
f 39/39/28 19/20/28 20/19/28
f 29/29/29 20/19/29 31/30/29
f 36/36/30 37/37/30 32/32/30
f 35/35/31 34/34/31 31/30/31
f 34/34/32 36/36/32 32/32/32
f 32/32/33 31/30/33 34/34/33
f 38/38/34 7/6/34 5/5/34
f 27/27/35 5/5/35 6/7/35
f 40/40/36 42/41/36 41/42/36
f 40/40/37 41/42/37 43/43/37
f 41/42/38 44/44/38 43/43/38
f 45/45/39 14/15/39 15/14/39
f 17/17/40 14/15/40 46/46/40
f 45/45/41 46/46/41 14/15/41
f 45/45/42 47/47/42 46/46/42
f 48/48/43 7/6/43 12/12/43
f 48/48/44 6/7/44 7/6/44
f 49/49/45 42/41/45 50/50/45
f 40/40/46 43/43/46 51/51/46
f 50/50/47 22/22/47 49/49/47
f 45/45/48 15/14/48 52/52/48
f 53/53/49 31/30/49 20/19/49
f 54/54/50 31/30/50 53/53/50
f 55/55/51 57/56/51 56/57/51
f 58/58/52 56/57/52 59/59/52
f 17/17/53 12/12/53 57/56/53
f 17/17/54 57/56/54 55/55/54
f 55/55/55 16/16/55 17/17/55
f 17/17/56 48/48/56 12/12/56
f 47/47/57 17/17/57 46/46/57
f 60/60/58 3/3/58 2/2/58
f 17/17/59 47/47/59 48/48/59
f 61/61/60 6/7/60 47/47/60
f 48/48/61 47/47/61 6/7/61
f 60/60/62 2/2/62 33/33/62
f 31/30/63 54/54/63 35/35/63
f 39/39/64 29/29/64 30/31/64
f 21/21/65 39/39/65 22/22/65
f 30/31/66 22/22/66 39/39/66
f 39/39/67 20/19/67 29/29/67
f 10/10/68 38/38/68 8/8/68
f 10/10/69 8/8/69 3/3/69
f 10/10/70 12/12/70 7/6/70
f 38/38/71 10/10/71 7/6/71
f 57/56/72 12/12/72 11/11/72
f 57/56/73 11/11/73 56/57/73
f 40/40/74 50/50/74 42/41/74
f 40/40/75 51/51/75 50/50/75
f 50/50/76 51/51/76 62/62/76
f 63/63/77 56/57/77 3/3/77
f 63/63/78 3/3/78 60/60/78
f 3/3/79 56/57/79 11/11/79
f 58/58/80 55/55/80 56/57/80
f 13/13/81 55/55/81 24/24/81
f 16/16/82 55/55/82 13/13/82
f 52/52/83 47/47/83 45/45/83
f 47/47/84 52/52/84 61/61/84
f 53/53/85 20/19/85 18/18/85
f 64/64/86 65/65/86 24/24/86
f 24/24/87 58/58/87 64/64/87
f 55/55/88 58/58/88 24/24/88
f 65/65/89 66/66/89 24/24/89
f 56/57/90 63/63/90 59/59/90
f 28/28/91 67/67/91 9/9/91
f 67/67/92 28/28/92 44/44/92
f 25/25/93 24/24/93 66/66/93
f 8/8/94 67/67/94 4/4/94
f 67/67/95 8/8/95 9/9/95
f 67/67/96 42/41/96 4/4/96
f 41/42/97 67/67/97 44/44/97
f 41/42/98 42/41/98 67/67/98
f 37/37/99 49/49/99 22/22/99
f 49/49/100 37/37/100 42/41/100
f 37/37/101 4/4/101 42/41/101
f 37/37/102 2/2/102 4/4/102
f 37/37/103 22/22/103 32/32/103
f 30/31/104 32/32/104 22/22/104
f 50/50/105 62/62/105 22/22/105
f 62/62/106 23/23/106 22/22/106
