# Blender v2.79 (sub 0) OBJ File: ''
# www.blender.org
mtllib crack_only_109.mtl
o crack_only_109
v 2.805253 1.155801 -3.263913
v 2.824427 1.407605 -3.305970
v 2.857577 1.537053 -2.946153
v 2.770475 1.244337 -3.612223
v 2.897629 1.984564 -3.666418
v 2.896708 2.517082 -4.636526
v 2.932282 2.551113 -4.415786
v 2.796146 2.133180 -4.642692
v 2.819732 1.682541 -1.944147
v 2.883143 2.007425 -2.206078
v 2.813958 1.948257 -1.559721
v 3.010081 2.499386 -2.493773
v 3.047935 2.802142 -2.068423
v 2.983812 2.404749 -2.246007
v 3.095810 2.892187 -2.519553
v 2.809754 1.392480 -2.155972
v 2.862749 1.756068 -2.447850
v 2.843317 1.385349 -2.734643
v 2.818321 1.171352 -2.657598
v 2.975197 2.595967 -1.538066
v 2.987321 2.688127 -1.258773
v 2.873297 2.303490 -1.373027
v 2.819613 1.160712 -2.785664
v 2.748150 1.459123 -4.013953
v 2.753299 1.765692 -4.343234
v 2.815637 1.131324 -3.120871
v 3.066977 3.046122 -1.471179
v 2.945125 2.763424 -4.754484
v 2.871175 2.544360 -4.881849
v 3.017229 2.605766 -3.664616
v 2.903543 2.316835 -4.181830
v 2.899216 1.814425 -2.694103
v 3.120449 3.175556 -2.195117
v 3.102318 3.221159 -1.762583
v 3.131367 3.403125 -1.892220
v 3.154059 3.342745 -2.606028
v 3.189532 3.843522 -2.312636
v 3.105134 2.991762 -2.949590
v 3.070007 2.768974 -3.051931
v 3.162358 3.649843 -1.282666
v 3.162411 3.621676 -1.628861
v 3.123978 3.292062 -1.600070
v 2.981668 2.881416 -4.565577
v 3.038964 3.031118 -4.273530
v 3.040130 3.145650 -4.418976
v 3.095229 3.061030 -3.595741
v 3.125158 3.178315 -3.280325
v 3.063623 2.768545 -3.381602
v 3.163768 3.540564 -3.419916
v 3.162885 3.484100 -3.055745
v 3.195338 3.953385 -2.724569
v 2.897400 2.642918 -4.945443
v 3.196203 3.814576 -3.089658
v 3.042704 3.261876 -4.680770
v 3.003977 3.080218 -4.677291
v 3.045031 3.238163 -4.503781
v 3.086735 3.411697 -4.334503
v 3.180066 3.771381 -2.021426
v 3.143564 3.471555 -2.001908
v 2.982442 2.938474 -4.665820
v 3.005800 3.053443 -4.842114
v 3.187237 3.863347 -1.875494
v 2.963936 2.859148 -4.914339
v 2.993912 2.934536 -5.062089
v 3.183406 3.825657 -1.462665
v 3.199347 4.006477 -1.313472
v 3.194242 4.120583 -2.101053
v 3.208190 4.194192 -1.702461
v 3.182972 3.836249 -1.652744
v 2.980978 2.282807 -2.825297
v 3.072782 3.168816 -5.075310
v 2.961342 2.507569 -1.680380
v 3.062421 2.983681 -1.681000
v 2.959961 2.808033 -4.632452
v 3.001813 2.686671 -4.137143
v 3.075657 3.435815 -4.941494
v 3.094170 3.352209 -5.080411
v 3.122866 3.686416 -4.535820
v 3.088579 3.583578 -4.724386
v 3.040693 2.805606 -3.826453
v 3.130356 3.803623 -4.250492
v 3.070977 3.237889 -4.220905
v 2.989789 2.316514 -3.329542
v 3.174693 3.831342 -3.570323
v 3.189415 4.021254 -3.494118
v 3.207449 4.049216 -3.168381
v 3.203226 4.306154 -2.076046
v 3.200673 4.225302 -2.474072
v 3.209990 4.110095 -2.877832
v 3.115491 3.367319 -1.261516
v 3.071723 3.133846 -4.065696
v 3.070258 2.921944 -3.696905
v 3.102121 3.327481 -4.055833
v 3.147392 3.545732 -3.755780
v 3.161206 3.935673 -3.901771
v 3.222821 4.458211 -1.342095
vt 0.034795 0.356097
vt 0.120378 0.358292
vt 0.140020 0.454256
vt 0.085177 0.273710
vt 0.335491 0.298167
vt 0.573329 0.083862
vt 0.571349 0.140668
vt 0.444154 0.062294
vt 0.118638 0.709448
vt 0.244758 0.661220
vt 0.179092 0.817795
vt 0.429932 0.615545
vt 0.501768 0.736351
vt 0.381379 0.672022
vt 0.563429 0.629466
vt 0.038002 0.642522
vt 0.178208 0.588659
vt 0.075903 0.499065
vt 0.000000 0.507344
vt 0.395882 0.856881
vt 0.407778 0.930807
vt 0.284939 0.882253
vt 0.005151 0.475080
vt 0.180762 0.184437
vt 0.302656 0.117957
vt 0.017782 0.390474
vt 0.542127 0.896671
vt 0.597361 0.024094
vt 0.663591 0.067294
vt 0.543011 0.330559
vt 0.478201 0.186811
vt 0.215350 0.530884
vt 0.635070 0.724147
vt 0.620163 0.833438
vt 0.689356 0.810586
vt 0.718449 0.630876
vt 0.863359 0.728695
vt 0.624950 0.527850
vt 0.557681 0.491104
vt 0.730351 0.974226
vt 0.633396 0.877468
vt 0.744304 0.887001
vt 0.691078 0.120355
vt 0.769975 0.170377
vt 0.722975 0.200783
vt 0.690129 0.370941
vt 0.708628 0.455261
vt 0.579244 0.409271
vt 0.837551 0.438931
vt 0.794843 0.526434
vt 0.926849 0.632036
vt 0.634893 0.013475
vt 0.906131 0.534682
vt 0.825358 0.111222
vt 0.805945 0.153963
vt 0.764227 0.102701
vt 0.853045 0.204952
vt 0.820017 0.797239
vt 0.719504 0.786897
vt 0.716356 0.098320
vt 0.766611 0.060534
vt 0.840516 0.838035
vt 0.706276 0.032585
vt 0.742072 0.000000
vt 0.800525 0.938495
vt 0.850110 0.984575
vt 0.939535 0.794862
vt 0.937523 0.897475
vt 0.816636 0.891882
vt 0.380267 0.522348
vt 0.822867 0.009146
vt 0.375984 0.817084
vt 0.535616 0.841519
vt 0.670653 0.099915
vt 0.600123 0.217212
vt 0.900876 0.055515
vt 0.883847 0.017157
vt 0.935037 0.116772
vt 0.957513 0.168976
vt 0.619898 0.300541
vt 0.976929 0.245582
vt 0.788206 0.224378
vt 0.425302 0.399081
vt 0.942645 0.416089
vt 1.000000 0.444506
vt 0.988205 0.526851
vt 0.998625 0.810307
vt 0.998785 0.707605
vt 0.988723 0.601920
vt 0.634861 0.965026
vt 0.744056 0.257743
vt 0.650478 0.338725
vt 0.807794 0.270069
vt 0.998048 0.338898
vt 0.860872 0.355726
vt 1.000000 1.000000
vn 0.9945 -0.0859 -0.0607
vn 0.9814 -0.1744 -0.0799
vn 0.9612 -0.2499 -0.1164
vn 0.9887 -0.1162 0.0952
vn 0.9838 -0.1754 0.0373
vn 0.9760 -0.2089 0.0619
vn 0.9886 -0.1096 0.1034
vn 0.9926 -0.1155 0.0363
vn 0.9937 -0.0949 0.0588
vn 0.9524 -0.2994 0.0575
vn 0.9938 -0.1092 0.0191
vn 0.9726 -0.1775 -0.1500
vn 0.9949 -0.1006 -0.0051
vn 0.9945 -0.1043 -0.0027
vn 0.9788 -0.2032 0.0246
vn 0.9943 -0.0668 -0.0836
vn 0.9598 -0.2498 -0.1277
vn 0.9600 -0.2494 -0.1276
vn 0.9761 -0.1876 -0.1097
vn 0.9878 -0.0958 -0.1230
vn 0.9898 -0.0328 0.1388
vn 0.9834 -0.1669 0.0711
vn 0.9913 -0.1197 0.0542
vn 0.9945 -0.0954 0.0425
vn 0.9920 -0.1222 0.0314
vn 0.9915 -0.1298 -0.0086
vn 0.9886 -0.1498 -0.0132
vn 0.9933 -0.1150 0.0095
vn 0.9815 -0.1542 -0.1135
vn 0.9895 -0.1381 -0.0425
vn 0.9911 -0.1241 -0.0479
vn 0.9977 -0.0678 -0.0017
vn 0.9554 -0.2901 -0.0557
vn 0.9946 -0.0963 0.0390
vn 0.9947 -0.1017 -0.0133
vn 0.9770 -0.2091 -0.0409
vn 0.9796 -0.1971 -0.0393
vn 0.9927 -0.1207 0.0024
vn 0.9785 -0.2062 -0.0048
vn 0.9948 -0.0975 0.0304
vn 0.9927 -0.1209 -0.0015
vn 0.9957 -0.0926 0.0095
vn 0.9686 -0.2368 0.0757
vn 0.9782 -0.2074 -0.0091
vn 0.9533 -0.2992 0.0408
vn 0.9565 -0.2859 -0.0586
vn 0.9947 -0.1017 0.0170
vn 0.9939 -0.1097 0.0091
vn 0.9984 -0.0498 -0.0257
vn 0.9970 -0.0762 -0.0141
vn 0.9953 -0.0962 -0.0076
vn 0.9974 -0.0711 -0.0062
vn 0.9955 -0.0946 0.0076
vn 0.9976 -0.0688 0.0107
vn 0.9824 -0.1839 0.0339
vn 0.9432 -0.3109 0.1171
vn 0.9885 -0.1474 0.0349
vn 0.9772 -0.2075 0.0445
vn 0.9789 -0.1908 0.0736
vn 0.9731 -0.2260 0.0456
vn 0.9876 -0.1464 0.0568
vn 0.9834 -0.1755 0.0455
vn 0.9700 -0.2091 -0.1241
vn 0.9770 -0.2131 0.0020
vn 0.9929 -0.1175 -0.0195
vn 0.9819 -0.1826 -0.0512
vn 0.9818 -0.1827 -0.0526
vn 0.9805 -0.1904 -0.0476
vn 0.9765 -0.2117 -0.0413
vn 0.9756 -0.1933 -0.1046
vn 0.9755 -0.1945 -0.1032
vn 0.9774 -0.1891 -0.0948
vn 0.9725 -0.1685 -0.1607
vn 0.9748 -0.1083 0.1951
vn 0.9797 -0.1853 -0.0771
vn 0.9747 -0.1982 -0.1035
vn 0.9870 -0.1490 -0.0610
vn 0.9991 -0.0351 0.0238
vn 0.9988 -0.0452 -0.0206
vn 0.9982 -0.0129 0.0581
vn 0.9845 -0.1731 0.0279
vn 0.9882 -0.1488 -0.0375
vn 0.9931 -0.1151 0.0212
vn 0.9900 -0.1366 0.0340
vn 0.9684 -0.1201 0.2187
vn 0.9839 -0.1784 0.0054
vn 0.9856 -0.1454 -0.0858
vn 0.9851 -0.1416 -0.0975
vn 0.9854 -0.1704 0.0058
vn 0.9869 -0.1606 0.0137
vn 0.9786 -0.1782 0.1027
vn 0.9669 -0.2540 -0.0237
vn 0.9627 -0.2409 -0.1230
vn 0.9614 -0.2444 -0.1266
vn 0.9681 -0.2371 0.0816
vn 0.9654 -0.2241 -0.1334
vn 0.9652 -0.2233 -0.1359
vn 0.9971 -0.0571 -0.0503
vn 0.9969 -0.0621 -0.0476
vn 0.9853 -0.1692 0.0241
vn 0.9988 -0.0488 0.0035
vn 0.9648 -0.2320 0.1235
vn 0.9860 -0.1638 0.0297
vn 0.9996 -0.0282 0.0093
vn 0.9997 -0.0231 0.0079
vn 0.9964 -0.0844 0.0090
vn 0.9977 -0.0553 0.0388
vn 0.9977 -0.0682 -0.0041
vn 0.9855 -0.1590 0.0600
vn 0.9772 -0.2002 -0.0701
vn 0.9841 -0.1777 0.0053
vn 0.9791 -0.1917 0.0672
vn 0.9778 -0.2057 0.0400
vn 0.9873 -0.1434 -0.0687
vn 0.9842 -0.1552 -0.0853
vn 0.9787 -0.1882 -0.0823
vn 0.9826 -0.1719 -0.0698
vn 0.9827 -0.1552 -0.1012
vn 0.9922 -0.0927 -0.0828
vn 0.9926 -0.0717 -0.0976
vn 0.9950 -0.0823 -0.0569
vn 0.9680 -0.2374 0.0819
vn 0.9548 -0.2852 0.0842
vn 0.9657 -0.2274 0.1257
vn 0.9726 -0.1780 -0.1492
vn 0.9928 -0.0910 0.0778
vn 0.9986 -0.0520 -0.0024
vn 0.9994 -0.0102 -0.0331
vn 0.9988 -0.0460 -0.0171
vn 0.9877 -0.1556 0.0127
vn 0.9933 -0.1064 0.0441
vn 0.9970 -0.0631 -0.0456
vn 0.9990 -0.0418 0.0182
vn 0.9843 -0.1448 -0.1011
vn 0.9827 -0.1572 -0.0977
vn 0.9818 -0.1683 -0.0882
vn 0.9886 -0.1423 -0.0484
vn 0.9783 -0.1992 0.0567
vn 0.9779 -0.2053 0.0399
vn 0.9811 -0.1849 0.0563
vn 0.9853 -0.1221 -0.1196
vn 0.9853 -0.1506 -0.0809
vn 0.9872 -0.1290 -0.0937
vn 0.9863 -0.1405 -0.0860
vn 0.9894 -0.1273 -0.0692
vn 0.9858 -0.1511 -0.0727
vn 0.9904 -0.1257 -0.0580
vn 0.9911 -0.1232 -0.0502
vn 0.9864 -0.1633 -0.0189
vn 0.9837 -0.1681 -0.0646
vn 0.9832 -0.1713 -0.0627
vn 0.9968 -0.0631 -0.0496
vn 0.9969 -0.0542 -0.0576
vn 0.9966 -0.0572 -0.0586
vn 0.9891 -0.1457 -0.0223
vn 0.9894 -0.1439 -0.0190
vn 0.9937 -0.1112 -0.0155
vn 0.9918 -0.1269 -0.0116
vn 0.9936 -0.1116 -0.0149
usemtl None
s off
f 1/1/1 2/2/1 3/3/1
f 2/2/2 4/4/2 5/5/2
f 6/6/3 7/7/3 8/8/3
f 9/9/4 10/10/4 11/11/4
f 12/12/5 13/13/5 14/14/5
f 12/12/6 15/15/6 13/13/6
f 10/10/7 9/9/7 16/16/7
f 10/10/8 16/16/8 17/17/8
f 18/18/9 16/16/9 19/19/9
f 20/20/10 21/21/10 22/22/10
f 18/18/11 19/19/11 23/23/11
f 24/24/12 25/25/12 5/5/12
f 18/18/13 26/26/13 3/3/13
f 18/18/14 23/23/14 26/26/14
f 27/27/15 21/21/15 20/20/15
f 3/3/16 26/26/16 1/1/16
f 6/6/17 29/28/17 28/29/17
f 6/6/18 8/8/18 29/28/18
f 30/30/19 5/5/19 31/31/19
f 2/2/20 1/1/20 4/4/20
f 32/32/21 17/17/21 16/16/21
f 13/13/22 15/15/22 33/33/22
f 34/34/23 33/33/23 35/35/23
f 36/36/24 37/37/24 33/33/24
f 36/36/25 33/33/25 15/15/25
f 38/38/26 36/36/26 15/15/26
f 39/39/27 38/38/27 15/15/27
f 40/40/28 42/41/28 41/42/28
f 43/43/29 45/44/29 44/45/29
f 46/46/30 47/47/30 48/48/30
f 47/47/31 46/46/31 49/49/31
f 50/50/32 51/51/32 36/36/32
f 29/28/33 52/52/33 28/29/33
f 53/53/34 51/51/34 50/50/34
f 53/53/35 50/50/35 49/49/35
f 54/54/36 56/55/36 55/56/36
f 54/54/37 57/57/37 56/55/37
f 58/58/38 59/59/38 37/37/38
f 60/60/39 28/29/39 61/61/39
f 59/59/40 33/33/40 37/37/40
f 59/59/41 58/58/41 41/42/41
f 62/62/42 41/42/42 58/58/42
f 63/63/43 64/64/43 61/61/43
f 63/63/44 61/61/44 28/29/44
f 63/63/45 52/52/45 64/64/45
f 63/63/46 28/29/46 52/52/46
f 65/65/47 66/66/47 40/40/47
f 65/65/48 40/40/48 41/42/48
f 62/62/49 67/67/49 68/68/49
f 66/66/50 65/65/50 68/68/50
f 65/65/51 41/42/51 69/69/51
f 69/69/52 68/68/52 65/65/52
f 62/62/53 69/69/53 41/42/53
f 69/69/54 62/62/54 68/68/54
f 70/70/55 12/12/55 14/14/55
f 71/71/56 61/61/56 64/64/56
f 55/56/57 60/60/57 61/61/57
f 55/56/58 61/61/58 54/54/58
f 72/72/59 14/14/59 13/13/59
f 72/72/60 13/13/60 20/20/60
f 34/34/61 73/73/61 33/33/61
f 73/73/62 13/13/62 33/33/62
f 74/74/63 7/7/63 6/6/63
f 39/39/64 15/15/64 12/12/64
f 35/35/65 41/42/65 42/41/65
f 73/73/66 34/34/66 42/41/66
f 74/74/67 28/29/67 60/60/67
f 35/35/68 42/41/68 34/34/68
f 74/74/69 6/6/69 28/29/69
f 43/43/70 7/7/70 74/74/70
f 60/60/71 43/43/71 74/74/71
f 43/43/72 44/45/72 7/7/72
f 44/45/73 75/75/73 7/7/73
f 76/76/74 71/71/74 77/77/74
f 57/57/75 79/78/75 78/79/75
f 80/80/76 30/30/76 31/31/76
f 54/54/77 79/78/77 57/57/77
f 58/58/78 37/37/78 67/67/78
f 62/62/79 58/58/79 67/67/79
f 18/18/80 3/3/80 16/16/80
f 3/3/81 32/32/81 16/16/81
f 2/2/82 5/5/82 3/3/82
f 78/79/83 81/81/83 57/57/83
f 79/78/84 54/54/84 76/76/84
f 71/71/85 76/76/85 61/61/85
f 54/54/86 61/61/86 76/76/86
f 82/82/87 45/44/87 57/57/87
f 56/55/88 57/57/88 45/44/88
f 83/83/89 70/70/89 32/32/89
f 83/83/90 32/32/90 3/3/90
f 10/10/91 17/17/91 32/32/91
f 31/31/92 75/75/92 80/80/92
f 31/31/93 7/7/93 75/75/93
f 31/31/94 8/8/94 7/7/94
f 72/72/95 10/10/95 14/14/95
f 31/31/96 5/5/96 25/25/96
f 31/31/97 25/25/97 8/8/97
f 84/84/98 85/85/98 86/86/98
f 84/84/99 86/86/99 49/49/99
f 39/39/100 12/12/100 70/70/100
f 87/87/101 67/67/101 88/88/101
f 10/10/102 32/32/102 14/14/102
f 70/70/103 14/14/103 32/32/103
f 88/88/104 67/67/104 51/51/104
f 67/67/105 37/37/105 51/51/105
f 89/89/106 51/51/106 86/86/106
f 51/51/107 89/89/107 88/88/107
f 36/36/108 51/51/108 37/37/108
f 90/90/109 42/41/109 40/40/109
f 3/3/110 5/5/110 83/83/110
f 70/70/111 83/83/111 39/39/111
f 90/90/112 27/27/112 42/41/112
f 73/73/113 42/41/113 27/27/113
f 91/91/114 80/80/114 75/75/114
f 80/80/115 91/91/115 92/92/115
f 30/30/116 83/83/116 5/5/116
f 92/92/117 30/30/117 80/80/117
f 82/82/118 57/57/118 93/93/118
f 93/93/119 57/57/119 81/81/119
f 93/93/120 95/94/120 94/95/120
f 93/93/121 81/81/121 95/94/121
f 10/10/122 72/72/122 11/11/122
f 20/20/123 22/22/123 72/72/123
f 72/72/124 22/22/124 11/11/124
f 4/4/125 24/24/125 5/5/125
f 9/9/126 11/11/126 16/16/126
f 66/66/127 68/68/127 96/96/127
f 96/96/128 68/68/128 67/67/128
f 96/96/129 67/67/129 87/87/129
f 59/59/130 41/42/130 35/35/130
f 35/35/131 33/33/131 59/59/131
f 53/53/132 49/49/132 86/86/132
f 86/86/133 51/51/133 53/53/133
f 55/56/134 56/55/134 45/44/134
f 55/56/135 45/44/135 60/60/135
f 60/60/136 45/44/136 43/43/136
f 92/92/137 46/46/137 48/48/137
f 73/73/138 20/20/138 13/13/138
f 73/73/139 27/27/139 20/20/139
f 27/27/140 90/90/140 21/21/140
f 44/45/141 82/82/141 93/93/141
f 44/45/142 93/93/142 91/91/142
f 45/44/143 82/82/143 44/45/143
f 44/45/144 91/91/144 75/75/144
f 46/46/145 92/92/145 91/91/145
f 46/46/146 91/91/146 93/93/146
f 94/95/147 46/46/147 93/93/147
f 46/46/148 94/95/148 49/49/148
f 48/48/149 39/39/149 83/83/149
f 30/30/150 48/48/150 83/83/150
f 92/92/151 48/48/151 30/30/151
f 84/84/152 49/49/152 94/95/152
f 85/85/153 84/84/153 95/94/153
f 94/95/154 95/94/154 84/84/154
f 47/47/155 38/38/155 39/39/155
f 47/47/156 39/39/156 48/48/156
f 50/50/157 36/36/157 47/47/157
f 47/47/158 36/36/158 38/38/158
f 47/47/159 49/49/159 50/50/159
