# Blender v2.79 (sub 0) OBJ File: ''
# www.blender.org
mtllib crack_only_180.mtl
o crack_only_180
v 2.767258 1.764374 -4.352041
v 2.895159 2.429030 -3.923747
v 2.868094 1.995388 -3.670746
v 2.800966 2.129316 -4.643233
v 3.134992 4.998785 -1.396203
v 3.147591 4.190512 -2.024497
v 3.140887 4.927725 -2.466751
v 3.134649 4.535077 -4.011650
v 3.153659 5.323337 -4.388175
v 3.150501 5.462846 -3.637264
v 3.125826 4.411748 -4.766895
v 2.793310 1.393551 -3.319557
v 2.754309 1.267406 -3.641364
v 2.870529 2.076096 -1.920611
v 2.940697 2.520102 -2.288477
v 2.870043 2.011879 -2.309043
v 2.967870 2.967092 -4.530142
v 2.684837 6.242285 -1.687208
v 2.741624 6.250219 -1.941306
v 2.858981 5.983040 -1.770918
v 2.560673 6.484649 -1.864574
v 2.587561 6.324064 -1.485758
v 2.927578 2.507822 -1.685421
v 2.826580 1.942774 -1.561592
v 3.065606 3.746946 -4.204247
v 3.076554 3.793614 -3.885973
v 3.028926 3.357322 -3.927763
v 3.114996 5.919918 -3.992966
v 2.792937 1.177246 -2.653212
v 2.803308 1.360159 -2.204435
v 2.835079 1.587521 -2.768019
v 3.065245 5.448762 -2.181540
v 3.040216 5.467612 -1.732719
v 2.878755 2.301162 -1.371866
v 3.001544 5.524368 -1.400517
v 2.368548 6.702530 -1.744898
v 2.144157 6.881844 -1.668526
v 2.291640 6.685561 -1.550366
v 3.052729 6.411831 -3.808939
v 3.090853 5.985216 -3.497972
v 3.139291 5.594365 -3.287933
v 3.037345 6.094092 -3.138537
v 3.121461 5.366779 -2.733175
v 3.127929 4.209204 -2.759633
v 3.083235 3.725880 -3.018338
v 3.098059 3.928465 -3.459906
v 3.067359 3.436699 -1.961569
v 3.082990 3.531164 -1.676125
v 2.790105 1.165692 -2.803716
v 2.965509 2.936847 -4.673421
v 2.884397 2.529151 -4.884904
v 3.023723 3.163704 -5.065163
v 3.018196 3.325981 -4.693940
v 3.136158 4.035190 -1.328713
v 2.749219 1.458968 -4.014704
v 2.778401 1.148397 -3.158982
v 2.818644 1.683141 -1.944964
v 2.805140 1.617620 -1.824231
v 3.064290 3.572119 -3.414675
v 2.896229 6.887078 -4.067901
v 2.793487 6.870519 -3.523492
v 2.825721 5.903059 -1.408069
v 2.777714 6.009697 -1.426338
v 3.084952 5.734469 -2.972273
v 3.151840 5.182358 -3.059741
v 3.050470 6.313086 -4.276990
v 3.098197 5.936995 -4.320486
v 2.999588 6.359925 -3.397963
v 2.916852 6.498761 -3.276336
v 2.994390 6.599638 -4.280707
v 2.979073 5.875344 -2.416385
v 2.930370 5.946795 -2.196507
v 2.755558 6.363706 -2.401834
v 2.843904 6.290810 -2.778177
v 2.836926 6.119353 -2.111164
v 2.740855 6.663508 -3.009585
v 2.597096 6.702479 -2.704910
v 2.442915 6.588232 -1.687694
v 2.512529 6.468723 -1.599227
v 2.553674 6.559347 -2.161768
v 2.545092 6.619858 -2.352695
v 3.005662 5.868168 -2.621526
v 3.050592 5.787789 -2.814684
v 2.993522 3.090758 -4.043270
v 2.284157 6.857506 -2.056736
v 3.051499 3.218895 -1.261703
v 3.053191 3.641775 -4.597027
v 2.974449 2.689827 -1.261541
v 2.789129 7.104575 -3.857976
v 2.850056 7.004329 -4.287472
v 3.065992 3.699518 -5.011227
v 2.998533 2.969791 -2.268753
v 2.960590 2.685734 -3.363577
v 2.755291 7.184245 -4.178471
v 2.739759 7.202940 -4.288524
vt 0.768862 0.080367
vt 0.679278 0.200615
vt 0.600529 0.132519
vt 0.855422 0.136081
vt 0.106194 0.683775
vt 0.243924 0.534786
vt 0.380614 0.650507
vt 0.767688 0.553573
vt 0.889113 0.679122
vt 0.699369 0.717592
vt 0.958972 0.517793
vt 0.490993 0.038150
vt 0.570038 0.010610
vt 0.150900 0.180872
vt 0.249280 0.162322
vt 0.259901 0.248277
vt 0.852783 0.279158
vt 0.216538 0.889632
vt 0.231322 0.843550
vt 0.282768 0.885717
vt 0.268988 0.927495
vt 0.166396 0.907800
vt 0.103661 0.258222
vt 0.053820 0.165650
vt 0.792980 0.416936
vt 0.712252 0.431092
vt 0.709448 0.356774
vt 0.804979 0.787839
vt 0.312259 0.014855
vt 0.354689 0.081692
vt 0.201971 0.054607
vt 0.322365 0.744424
vt 0.206844 0.756607
vt 0.016059 0.229733
vt 0.122522 0.772927
vt 0.243540 0.967373
vt 0.227906 1.000000
vt 0.192299 0.968655
vt 0.772063 0.874780
vt 0.678953 0.808778
vt 0.613070 0.746773
vt 0.589094 0.834494
vt 0.462711 0.719424
vt 0.434279 0.523425
vt 0.486094 0.436850
vt 0.606432 0.462236
vt 0.204185 0.409056
vt 0.133424 0.430613
vt 0.350768 0.009927
vt 0.888858 0.271216
vt 0.930558 0.198484
vt 0.997331 0.301528
vt 0.906350 0.336316
vt 0.059377 0.522412
vt 0.672293 0.035563
vt 0.441944 0.000000
vt 0.144887 0.114233
vt 0.111618 0.105617
vt 0.583672 0.403093
vt 0.852495 0.950465
vt 0.710725 0.958856
vt 0.134945 0.837371
vt 0.142623 0.855192
vt 0.535467 0.776896
vt 0.541633 0.681691
vt 0.889947 0.848826
vt 0.890004 0.784284
vt 0.663988 0.874370
vt 0.636296 0.900533
vt 0.899303 0.897344
vt 0.395514 0.812109
vt 0.405281 0.895686
vt 0.340595 0.828718
vt 0.500818 0.875580
vt 0.323239 0.859895
vt 0.571333 0.934299
vt 0.492936 0.947461
vt 0.225733 0.948933
vt 0.199661 0.930252
vt 0.347996 0.934235
vt 0.399111 0.940695
vt 0.448452 0.806727
vt 0.496173 0.789155
vt 0.730940 0.309605
vt 0.328306 0.987665
vt 0.016651 0.386230
vt 0.891161 0.391429
vt 0.000000 0.297191
vt 0.804244 0.991753
vt 0.912510 0.966076
vt 1.000000 0.392910
vt 0.268876 0.324381
vt 0.542802 0.254832
vt 0.889259 0.998970
vt 0.918163 1.000000
vn 0.9869 -0.1226 -0.1045
vn 0.9869 -0.1458 -0.0685
vn 0.9999 0.0119 0.0047
vn 0.9998 -0.0203 0.0080
vn 0.9996 -0.0275 -0.0072
vn 0.9860 -0.1565 -0.0582
vn 0.9901 -0.1385 0.0217
vn 0.9808 -0.1887 -0.0498
vn 0.8419 0.4997 0.2038
vn 0.8062 0.5576 0.1976
vn 0.8419 0.4998 0.2036
vn 0.9848 -0.1629 0.0601
vn 0.9941 -0.1067 -0.0185
vn 0.9975 0.0705 -0.0089
vn 0.9951 -0.0975 0.0168
vn 0.9725 0.2286 0.0446
vn 0.9893 0.1459 -0.0042
vn 0.9851 -0.1665 0.0436
vn 0.9667 0.2460 0.0705
vn 0.6555 0.6845 0.3189
vn 0.9930 0.1132 0.0335
vn 0.9409 0.3347 0.0523
vn 0.9931 0.1166 -0.0120
vn 0.9806 0.1720 0.0939
vn 0.9916 0.0965 0.0867
vn 0.9939 0.1042 0.0347
vn 0.9961 -0.0883 -0.0071
vn 0.9963 -0.0822 -0.0243
vn 0.9900 -0.1384 -0.0263
vn 0.9940 -0.1074 -0.0189
vn 0.9944 -0.1051 -0.0106
vn 0.9964 -0.0818 -0.0223
vn 0.9779 -0.2076 0.0251
vn 0.9889 -0.1301 0.0716
vn 0.9999 0.0024 0.0170
vn 0.9830 -0.1592 -0.0915
vn 0.9942 -0.1037 -0.0277
vn 0.9928 -0.1079 0.0525
vn 0.9775 -0.2090 0.0280
vn 0.9954 -0.0957 -0.0105
vn 0.9803 -0.1970 0.0125
vn 0.9937 -0.0950 0.0596
vn 0.9002 0.3956 0.1819
vn 0.8860 0.4290 0.1758
vn 0.9871 0.0997 0.1257
vn 0.9904 0.1308 -0.0440
vn 0.9899 0.1380 -0.0339
vn 0.9732 0.2158 0.0795
vn 0.9691 0.1960 0.1501
vn 0.9108 0.3472 0.2232
vn 0.9805 0.1913 -0.0451
vn 0.9080 0.4136 0.0667
vn 0.9027 0.4092 0.1327
vn 0.8321 0.5326 0.1550
vn 0.8744 0.4673 0.1305
vn 0.8959 0.4303 0.1109
vn 0.8778 0.4582 0.1395
vn 0.8328 0.4394 0.3368
vn 0.8610 0.4974 0.1058
vn 0.7839 0.5964 0.1726
vn 0.7052 0.6257 0.3334
vn 0.8019 0.5611 0.2053
vn 0.6993 0.6412 0.3159
vn 0.8126 0.5685 0.1285
vn 0.6954 0.6308 0.3443
vn 0.8149 0.5547 0.1683
vn 0.7789 0.6123 0.1356
vn 0.8049 0.5798 0.1268
vn 0.7830 0.5981 0.1711
vn 0.7776 0.6086 0.1579
vn 0.9929 0.1160 0.0268
vn 0.8919 0.4176 0.1738
vn 0.9705 0.1916 0.1460
vn 0.9753 0.2101 0.0682
vn 0.9704 0.1918 0.1467
vn 0.7710 0.5853 0.2511
vn 0.9922 -0.1226 -0.0211
vn 0.9887 -0.1495 -0.0141
vn 0.6515 0.7348 0.1889
vn 0.9996 -0.0071 -0.0269
vn 0.9973 -0.0724 -0.0135
vn 0.9927 -0.1197 -0.0148
vn 0.9944 0.0950 -0.0461
vn 0.8445 0.4613 0.2723
vn 0.8636 0.3728 0.3395
vn 0.8803 0.4009 0.2537
vn 0.9956 -0.0931 0.0036
vn 0.7909 0.5595 0.2480
vn 0.7567 0.6435 0.1150
vn 0.7599 0.6287 0.1651
vn 0.9991 0.0399 0.0170
vn 0.9959 0.0747 0.0505
vn 0.9998 -0.0183 0.0006
vn 0.9999 -0.0135 -0.0089
vn 0.9994 -0.0329 0.0043
vn 0.8993 0.4041 0.1673
vn 0.9024 0.4023 0.1547
vn 0.9713 -0.2376 -0.0054
vn 0.9884 -0.1440 -0.0475
vn 0.9407 0.2835 0.1862
vn 0.9873 -0.1564 -0.0263
vn 0.9937 -0.1082 -0.0293
vn 0.8923 0.3456 0.2904
vn 0.9936 -0.1018 0.0484
vn 0.9941 -0.0927 0.0566
vn 0.9949 -0.0993 0.0160
vn 0.9738 -0.2244 0.0359
vn 0.9249 0.3758 0.0588
vn 0.9152 0.3892 0.1050
vn 0.9949 -0.1007 -0.0061
vn 0.9946 -0.1033 -0.0023
vn 0.9483 0.3172 0.0090
vn 0.9418 0.3356 -0.0189
vn 0.9886 -0.1318 0.0723
vn 0.9966 -0.0806 0.0196
vn 0.9958 -0.0899 0.0182
vn 0.9830 -0.1575 -0.0942
vn 0.9918 -0.1275 -0.0013
vn 0.9594 0.2573 0.1154
vn 0.9963 -0.0852 -0.0087
vn 0.9952 -0.0975 -0.0054
vn 0.9920 -0.1196 -0.0405
vn 0.9950 -0.0988 0.0127
vn 0.9933 -0.1157 -0.0044
vn 0.8961 0.4290 0.1138
vn 0.9565 0.2628 0.1265
vn 0.9327 0.3374 0.1277
vn 0.9640 0.2624 0.0427
vn 0.9890 -0.1479 0.0032
vn 0.9905 -0.1373 0.0118
vn 0.9911 -0.1289 0.0334
vn 0.9017 0.4322 0.0122
vn 0.9941 -0.1070 -0.0163
vn 0.9948 -0.0978 -0.0276
vn 0.9909 -0.1105 -0.0768
vn 0.9950 -0.0893 -0.0439
vn 0.9699 0.1956 0.1453
vn 0.9807 0.1725 0.0923
vn 0.8736 0.4849 -0.0409
vn 0.8955 0.4426 0.0480
vn 0.9917 -0.1272 -0.0181
vn 0.9918 -0.1216 0.0382
vn 0.9910 -0.1335 0.0119
vn 0.9870 -0.1547 -0.0444
vn 0.9924 -0.1022 -0.0691
vn 0.9921 -0.1241 -0.0198
vn 0.9945 -0.1031 0.0195
vn 0.9905 -0.1376 -0.0029
vn 0.9923 -0.1213 -0.0242
vn 0.9929 -0.1173 -0.0193
vn 0.9932 -0.1163 -0.0023
usemtl None
s off
f 1/1/1 2/2/1 3/3/1
f 1/1/2 4/4/2 2/2/2
f 5/5/3 6/6/3 7/7/3
f 8/8/4 9/9/4 10/10/4
f 11/11/5 9/9/5 8/8/5
f 12/12/6 13/13/6 3/3/6
f 14/14/7 16/15/7 15/16/7
f 17/17/8 2/2/8 4/4/8
f 18/18/9 20/19/9 19/20/9
f 19/20/10 21/21/10 18/18/10
f 22/22/11 20/19/11 18/18/11
f 14/14/12 23/23/12 24/24/12
f 25/25/13 26/26/13 27/27/13
f 28/28/14 10/10/14 9/9/14
f 29/29/15 31/30/15 30/31/15
f 32/32/16 33/33/16 5/5/16
f 32/32/17 5/5/17 7/7/17
f 23/23/18 34/34/18 24/24/18
f 33/33/19 35/35/19 5/5/19
f 36/36/20 37/37/20 38/38/20
f 39/39/21 40/40/21 28/28/21
f 33/33/22 20/19/22 35/35/22
f 41/41/23 10/10/23 40/40/23
f 42/42/24 41/41/24 40/40/24
f 32/32/25 7/7/25 43/43/25
f 40/40/26 10/10/26 28/28/26
f 44/44/27 45/45/27 46/46/27
f 26/26/28 8/8/28 46/46/28
f 12/12/29 3/3/29 31/30/29
f 47/47/30 6/6/30 48/48/30
f 49/49/31 31/30/31 29/29/31
f 26/26/32 25/25/32 8/8/32
f 50/50/33 51/51/33 52/52/33
f 53/53/34 50/50/34 52/52/34
f 54/54/35 6/6/35 5/5/35
f 55/55/36 1/1/36 3/3/36
f 49/49/37 56/56/37 31/30/37
f 57/57/38 24/24/38 58/58/38
f 17/17/39 51/51/39 50/50/39
f 45/45/40 59/59/40 46/46/40
f 17/17/41 4/4/41 51/51/41
f 58/58/42 30/31/42 57/57/42
f 60/60/43 61/61/43 39/39/43
f 62/62/44 20/19/44 63/63/44
f 64/64/45 65/65/45 41/41/45
f 66/66/46 28/28/46 67/67/46
f 66/66/47 39/39/47 28/28/47
f 68/68/48 42/42/48 40/40/48
f 68/68/49 40/40/49 39/39/49
f 69/69/50 42/42/50 68/68/50
f 66/66/51 70/70/51 39/39/51
f 71/71/52 73/72/52 72/73/52
f 71/71/53 74/74/53 73/72/53
f 63/63/54 20/19/54 22/22/54
f 75/75/55 19/20/55 20/19/55
f 75/75/56 72/73/56 73/72/56
f 75/75/57 73/72/57 19/20/57
f 76/76/58 77/77/58 74/74/58
f 77/77/59 73/72/59 74/74/59
f 78/78/60 21/21/60 36/36/60
f 78/78/61 36/36/61 38/38/61
f 78/78/62 18/18/62 21/21/62
f 79/79/63 78/78/63 38/38/63
f 78/78/64 79/79/64 18/18/64
f 79/79/65 38/38/65 22/22/65
f 79/79/66 22/22/66 18/18/66
f 80/80/67 36/36/67 21/21/67
f 80/80/68 21/21/68 19/20/68
f 80/80/69 19/20/69 73/72/69
f 80/80/70 73/72/70 81/81/70
f 65/65/71 64/64/71 43/43/71
f 62/62/72 35/35/72 20/19/72
f 82/82/73 43/43/73 83/83/73
f 82/82/74 32/32/74 43/43/74
f 64/64/75 83/83/75 43/43/75
f 77/77/76 81/81/76 73/72/76
f 17/17/77 27/27/77 84/84/77
f 17/17/78 84/84/78 2/2/78
f 85/85/79 37/37/79 36/36/79
f 44/44/80 7/7/80 6/6/80
f 46/46/81 8/8/81 44/44/81
f 48/48/82 86/86/82 47/47/82
f 67/67/83 28/28/83 9/9/83
f 76/76/84 69/69/84 61/61/84
f 69/69/85 76/76/85 42/42/85
f 76/76/86 74/74/86 42/42/86
f 8/8/87 87/87/87 11/11/87
f 81/81/88 77/77/88 85/85/88
f 80/80/89 85/85/89 36/36/89
f 81/81/90 85/85/90 80/80/90
f 65/65/91 10/10/91 41/41/91
f 65/65/92 43/43/92 7/7/92
f 8/8/93 7/7/93 44/44/93
f 65/65/94 8/8/94 10/10/94
f 8/8/95 65/65/95 7/7/95
f 68/68/96 39/39/96 61/61/96
f 61/61/97 69/69/97 68/68/97
f 23/23/98 88/88/98 34/34/98
f 23/23/99 86/86/99 88/88/99
f 60/60/100 89/89/100 61/61/100
f 23/23/101 47/47/101 86/86/101
f 47/47/102 44/44/102 6/6/102
f 83/83/103 42/42/103 74/74/103
f 57/57/104 16/15/104 24/24/104
f 16/15/105 57/57/105 30/31/105
f 16/15/106 30/31/106 31/30/106
f 14/14/107 24/24/107 16/15/107
f 83/83/108 74/74/108 82/82/108
f 71/71/109 82/82/109 74/74/109
f 54/54/110 48/48/110 6/6/110
f 48/48/111 54/54/111 86/86/111
f 60/60/112 39/39/112 70/70/112
f 60/60/113 70/70/113 90/90/113
f 53/53/114 52/52/114 87/87/114
f 91/91/115 87/87/115 52/52/115
f 87/87/116 91/91/116 11/11/116
f 13/13/117 55/55/117 3/3/117
f 92/92/118 15/16/118 93/93/118
f 82/82/119 71/71/119 32/32/119
f 87/87/120 8/8/120 25/25/120
f 87/87/121 25/25/121 27/27/121
f 92/92/122 44/44/122 47/47/122
f 44/44/123 92/92/123 45/45/123
f 45/45/124 92/92/124 93/93/124
f 72/73/125 75/75/125 20/19/125
f 72/73/126 32/32/126 71/71/126
f 72/73/127 20/19/127 33/33/127
f 72/73/128 33/33/128 32/32/128
f 47/47/129 23/23/129 92/92/129
f 14/14/130 92/92/130 23/23/130
f 14/14/131 15/16/131 92/92/131
f 94/94/132 89/89/132 60/60/132
f 27/27/133 26/26/133 46/46/133
f 27/27/134 46/46/134 59/59/134
f 12/12/135 56/56/135 13/13/135
f 56/56/136 12/12/136 31/30/136
f 83/83/137 64/64/137 42/42/137
f 64/64/138 41/41/138 42/42/138
f 90/90/139 95/95/139 94/94/139
f 94/94/140 60/60/140 90/90/140
f 17/17/141 87/87/141 27/27/141
f 17/17/142 53/53/142 87/87/142
f 17/17/143 50/50/143 53/53/143
f 2/2/144 84/84/144 93/93/144
f 2/2/145 93/93/145 3/3/145
f 93/93/146 31/30/146 3/3/146
f 93/93/147 16/15/147 31/30/147
f 15/16/148 16/15/148 93/93/148
f 84/84/149 27/27/149 93/93/149
f 27/27/150 59/59/150 93/93/150
f 45/45/151 93/93/151 59/59/151
