# Blender v2.79 (sub 0) OBJ File: ''
# www.blender.org
mtllib crack_only_192.mtl
o crack_only_192
v 3.139272 4.928077 -2.467072
v 2.916893 5.905760 -2.123263
v 3.061405 5.651078 -2.898649
v 2.769830 1.764132 -4.353663
v 2.891002 2.428751 -3.924246
v 2.865649 1.996284 -3.671104
v 2.802541 2.128053 -4.643410
v 3.134992 4.998785 -1.396203
v 3.101021 3.935529 -2.481671
v 3.128336 4.575096 -3.964627
v 3.152215 5.323441 -4.388233
v 3.137137 5.465954 -3.635272
v 3.125946 4.411711 -4.766973
v 2.842319 6.276864 -2.779163
v 3.039793 6.083905 -3.137815
v 2.664145 5.968282 -1.444525
v 2.557926 6.461294 -1.867945
v 2.150841 7.005562 -2.261804
v 1.932478 7.050672 -1.830581
v 2.340696 6.814063 -2.207524
v 1.756281 7.234525 -2.014402
v 3.105529 5.915054 -3.988085
v 3.097949 5.884448 -4.326298
v 2.569764 6.594868 -2.328748
v 2.758213 6.358836 -2.397505
v 3.096132 5.923387 -3.507972
v 3.089612 3.926257 -3.459290
v 3.120695 4.220129 -2.759502
v 2.789622 1.178016 -2.652639
v 2.802580 1.360235 -2.204421
v 2.816683 1.508589 -2.991143
v 3.032140 6.405459 -3.815136
v 2.785527 1.166464 -2.806517
v 2.964638 2.968074 -4.528376
v 2.885828 2.527505 -4.885235
v 3.021589 3.164156 -5.064732
v 3.016448 3.325159 -4.694236
v 3.115082 4.063999 -1.334539
v 2.749855 1.458876 -4.015150
v 2.773800 1.141993 -3.106510
v 2.817195 1.683940 -1.946053
v 2.805572 1.617548 -1.824204
v 2.827945 1.942181 -1.561794
v 2.979425 6.560229 -4.278347
v 2.842030 6.875865 -3.880913
v 3.036694 6.311411 -4.276287
v 2.419872 6.866216 -2.636955
v 2.386981 6.971716 -2.782555
v 2.553576 6.988377 -3.241360
v 2.227180 7.218281 -3.102815
v 2.908365 6.795918 -4.283165
v 2.814822 7.050096 -4.287261
v 2.481910 7.321214 -3.962551
v 2.476323 7.354909 -4.278305
v 2.361441 6.641046 -1.714697
v 2.186991 6.827047 -1.634440
v 2.337180 7.306484 -3.545558
v 1.955064 7.220072 -2.457752
v 2.278524 7.028890 -2.665052
v 2.313009 7.453706 -4.015404
v 2.295996 7.490958 -4.215457
v 2.325852 7.390169 -3.764502
v 2.645136 6.689753 -2.872696
v 3.049337 3.630302 -4.328292
v 3.057117 3.711400 -4.635653
v 3.066889 3.699593 -5.011650
v 2.326211 6.599841 -1.542998
v 2.752342 1.273119 -3.650364
v 2.862516 2.030250 -2.286788
v 2.878739 2.301169 -1.371869
v 3.022820 3.362086 -3.938092
v 3.065639 3.651731 -3.219603
v 3.031425 3.217450 -1.969090
v 3.042890 3.217244 -1.263925
v 2.920979 6.424469 -3.396623
v 2.987436 3.090516 -4.049145
v 2.955084 2.710614 -3.298555
v 2.971674 2.690194 -1.262138
vt 0.382083 0.624382
vt 0.515907 0.732157
vt 0.323178 0.787954
vt 0.768089 0.075724
vt 0.678631 0.191790
vt 0.599585 0.126956
vt 0.854458 0.128812
vt 0.354485 0.463925
vt 0.107862 0.656861
vt 0.757508 0.537930
vt 0.890483 0.650329
vt 0.700539 0.688082
vt 0.959472 0.495774
vt 0.503855 0.834587
vt 0.591167 0.797149
vt 0.148916 0.810461
vt 0.273288 0.881211
vt 0.390424 0.959684
vt 0.279646 0.974636
vt 0.371159 0.930587
vt 0.332164 1.000000
vt 0.805606 0.753421
vt 0.891917 0.741796
vt 0.396485 0.893714
vt 0.407574 0.855008
vt 0.681897 0.764188
vt 0.606504 0.443130
vt 0.435232 0.504411
vt 0.310647 0.014808
vt 0.408531 0.061538
vt 0.200729 0.053064
vt 0.776086 0.835621
vt 0.349988 0.009899
vt 0.851834 0.267118
vt 0.929779 0.188762
vt 0.996682 0.288379
vt 0.906087 0.321616
vt 0.062469 0.507288
vt 0.671027 0.033102
vt 0.426610 0.000000
vt 0.144274 0.110399
vt 0.053248 0.159644
vt 0.110686 0.102051
vt 0.900310 0.851253
vt 0.807088 0.909458
vt 0.892186 0.811391
vt 0.483969 0.930831
vt 0.524738 0.944850
vt 0.644369 0.939120
vt 0.614514 0.977698
vt 0.908677 0.888892
vt 0.917349 0.929443
vt 0.923252 0.977500
vt 0.840708 0.978308
vt 0.238587 0.912477
vt 0.223013 0.943396
vt 0.732020 0.983608
vt 0.446957 0.989678
vt 0.495766 0.955978
vt 0.910577 1.000000
vt 0.857834 0.997998
vt 0.791122 0.992745
vt 0.540185 0.898578
vt 0.821353 0.378145
vt 0.903274 0.385194
vt 1.000000 0.375921
vt 0.192828 0.909085
vt 0.571033 0.010348
vt 0.243303 0.159690
vt 0.015716 0.221453
vt 0.712088 0.342489
vt 0.535903 0.403501
vt 0.199309 0.357989
vt 0.017323 0.371889
vt 0.668202 0.846516
vt 0.732071 0.296384
vt 0.526242 0.249799
vt 0.000000 0.286684
vn 0.9762 0.1787 0.1232
vn 0.9883 -0.1160 -0.0993
vn 0.9882 -0.1393 -0.0633
vn 0.9992 -0.0386 0.0065
vn 0.9996 -0.0186 0.0235
vn 0.9995 -0.0301 0.0032
vn 0.9742 0.2255 -0.0110
vn 0.8989 0.2454 0.3629
vn 0.8598 0.4265 0.2809
vn 0.6499 0.7163 0.2541
vn 0.5879 0.7795 0.2162
vn 0.9945 0.0997 -0.0313
vn 0.9972 0.0748 0.0058
vn 0.8611 0.4820 0.1618
vn 0.7724 0.5042 0.3861
vn 0.9888 0.1069 0.1041
vn 0.9974 -0.0709 -0.0145
vn 0.9942 0.0652 0.0858
vn 0.9130 0.3907 0.1173
vn 0.9456 0.3173 0.0720
vn 0.9969 -0.0785 0.0031
vn 0.9897 0.1421 0.0169
vn 0.9947 -0.1008 -0.0189
vn 0.9793 -0.2001 0.0308
vn 0.9914 -0.1144 0.0635
vn 0.9997 -0.0219 -0.0098
vn 0.9838 -0.1580 -0.0844
vn 0.9938 -0.1068 -0.0301
vn 0.9941 -0.1008 0.0399
vn 0.9952 -0.0841 0.0491
vn 0.9259 0.3771 0.0206
vn 0.9887 0.1460 -0.0354
vn 0.9876 0.1555 -0.0220
vn 0.9963 0.0843 0.0180
vn 0.7932 0.5934 0.1367
vn 0.9740 0.2239 -0.0360
vn 0.6268 0.7365 0.2543
vn 0.9521 0.2891 0.0996
vn 0.6686 0.7405 0.0672
vn 0.9346 0.3453 0.0855
vn 0.7374 0.6373 0.2239
vn 0.7320 0.6469 0.2135
vn 0.7016 0.7044 -0.1074
vn 0.6386 0.7341 0.2308
vn 0.6311 0.7156 0.2994
vn 0.6017 0.7635 0.2347
vn 0.6429 0.7276 0.2394
vn 0.6200 0.7791 0.0924
vn 0.9988 -0.0389 0.0308
vn 0.9997 -0.0257 -0.0012
vn 0.9920 -0.0524 0.1151
vn 0.9955 0.0902 -0.0285
vn 0.5961 0.7654 0.2423
vn 0.6077 0.7524 0.2542
vn 0.6010 0.7958 0.0743
vn 0.5737 0.8005 0.1733
vn 0.8889 0.4471 0.0999
vn 0.7462 0.6163 0.2517
vn 0.7499 0.5927 0.2938
vn 0.8580 0.4307 0.2798
vn 0.9945 -0.1044 -0.0024
vn 0.9915 -0.1140 0.0633
vn 0.9958 -0.0871 0.0286
vn 0.9953 -0.0924 0.0288
vn 0.7685 0.5041 0.3941
vn 0.8256 0.4864 0.2861
vn 0.7426 0.6379 0.2040
vn 0.7304 0.6535 0.1987
vn 0.7571 0.5827 0.2952
vn 0.9839 -0.1566 -0.0865
vn 0.9876 -0.1547 0.0283
vn 0.9946 -0.1025 -0.0179
vn 0.7229 0.6346 0.2733
vn 0.6360 0.7312 0.2466
vn 0.9938 -0.1105 -0.0084
vn 0.9969 -0.0755 -0.0205
vn 0.9870 -0.1558 -0.0407
vn 0.9934 -0.0965 -0.0625
vn 0.9952 -0.0974 -0.0013
vn 0.9961 -0.0863 -0.0162
vn 0.8451 0.4950 0.2020
vn 0.8621 0.3931 0.3197
vn 0.7096 0.6752 0.2013
vn 0.8586 0.4644 0.2169
vn 0.8456 0.4977 0.1932
vn 0.8585 0.4609 0.2247
vn 0.9881 -0.1503 -0.0335
vn 0.9938 -0.0933 -0.0598
vn 0.9930 -0.1176 -0.0129
vn 0.9924 -0.1216 -0.0188
vn 0.9932 -0.1156 -0.0126
vn 0.6640 0.7177 0.2096
vn 0.7518 0.6029 0.2670
vn 0.7058 0.6584 0.2616
vn 0.6880 0.6526 0.3175
vn 0.9954 -0.0948 0.0163
vn 0.9964 -0.0844 0.0029
vn 0.9948 -0.0949 0.0359
vn 0.9954 -0.0832 0.0479
vn 0.9960 -0.0890 0.0011
vn 0.9938 -0.1101 0.0169
vn 0.9440 0.3298 0.0006
vn 0.9326 0.2737 0.2353
vn 0.9923 -0.1228 -0.0158
vn 0.9892 -0.1460 -0.0098
vn 0.9924 -0.1220 -0.0164
vn 0.9908 -0.1334 0.0222
vn 0.9820 -0.1835 -0.0441
vn 0.9812 -0.1921 0.0205
vn 0.9932 -0.1156 -0.0130
vn 0.9902 -0.1399 -0.0035
vn 0.9745 -0.2115 -0.0754
vn 0.9887 -0.1477 0.0262
vn 0.9909 -0.1339 -0.0161
vn 0.9968 -0.0795 -0.0109
vn 0.9953 -0.0963 -0.0107
vn 0.9947 -0.1024 -0.0083
usemtl None
s off
f 1/1/1 3/2/1 2/3/1
f 4/4/2 5/5/2 6/6/2
f 4/4/3 7/7/3 5/5/3
f 9/8/4 1/1/4 8/9/4
f 10/10/5 11/11/5 12/12/5
f 13/13/6 11/11/6 10/10/6
f 2/3/7 8/9/7 1/1/7
f 14/14/8 3/2/8 15/15/8
f 16/16/9 2/3/9 17/17/9
f 18/18/10 19/19/10 20/20/10
f 18/18/11 21/21/11 19/19/11
f 22/22/12 11/11/12 23/23/12
f 22/22/13 12/12/13 11/11/13
f 2/3/14 24/24/14 17/17/14
f 24/24/15 2/3/15 25/25/15
f 15/15/16 3/2/16 26/26/16
f 27/27/17 10/10/17 28/28/17
f 26/26/18 3/2/18 12/12/18
f 14/14/19 25/25/19 2/3/19
f 14/14/20 2/3/20 3/2/20
f 29/29/21 31/30/21 30/31/21
f 32/32/22 26/26/22 22/22/22
f 33/33/23 31/30/23 29/29/23
f 34/34/24 35/35/24 36/36/24
f 37/37/25 34/34/25 36/36/25
f 38/38/26 9/8/26 8/9/26
f 39/39/27 4/4/27 6/6/27
f 33/33/28 40/40/28 31/30/28
f 41/41/29 43/42/29 42/43/29
f 42/43/30 30/31/30 41/41/30
f 44/44/31 45/45/31 32/32/31
f 46/46/32 22/22/32 23/23/32
f 46/46/33 32/32/33 22/22/33
f 26/26/34 12/12/34 22/22/34
f 47/47/35 24/24/35 25/25/35
f 46/46/36 44/44/36 32/32/36
f 48/48/37 49/49/37 50/50/37
f 51/51/38 45/45/38 44/44/38
f 52/52/39 54/53/39 53/54/39
f 51/51/40 52/52/40 45/45/40
f 52/52/41 53/54/41 45/45/41
f 47/47/42 20/20/42 24/24/42
f 55/55/43 19/19/43 56/56/43
f 55/55/44 20/20/44 19/19/44
f 57/57/45 50/50/45 49/49/45
f 58/58/46 18/18/46 59/59/46
f 59/59/47 48/48/47 50/50/47
f 54/53/48 61/60/48 60/61/48
f 9/8/49 28/28/49 1/1/49
f 28/28/50 10/10/50 1/1/50
f 10/10/51 12/12/51 3/2/51
f 3/2/52 1/1/52 10/10/52
f 58/58/53 21/21/53 18/18/53
f 59/59/54 50/50/54 58/58/54
f 60/61/55 53/54/55 54/53/55
f 53/54/56 60/61/56 62/62/56
f 63/63/57 25/25/57 14/14/57
f 47/47/58 25/25/58 63/63/58
f 63/63/59 49/49/59 48/48/59
f 16/16/60 8/9/60 2/3/60
f 64/64/61 37/37/61 65/65/61
f 37/37/62 36/36/62 65/65/62
f 66/66/63 65/65/63 36/36/63
f 65/65/64 66/66/64 13/13/64
f 55/55/65 16/16/65 17/17/65
f 55/55/66 67/67/66 16/16/66
f 17/17/67 24/24/67 55/55/67
f 20/20/68 55/55/68 24/24/68
f 55/55/69 56/56/69 67/67/69
f 68/68/70 39/39/70 6/6/70
f 69/69/71 70/70/71 43/42/71
f 71/71/72 27/27/72 72/72/72
f 57/57/73 45/45/73 53/54/73
f 57/57/74 53/54/74 62/62/74
f 71/71/75 64/64/75 27/27/75
f 64/64/76 10/10/76 27/27/76
f 31/30/77 68/68/77 6/6/77
f 31/30/78 40/40/78 68/68/78
f 38/38/79 73/73/79 9/8/79
f 73/73/80 38/38/80 74/74/80
f 49/49/81 75/75/81 32/32/81
f 49/49/82 32/32/82 45/45/82
f 57/57/83 49/49/83 45/45/83
f 75/75/84 63/63/84 15/15/84
f 49/49/85 63/63/85 75/75/85
f 63/63/86 14/14/86 15/15/86
f 5/5/87 76/76/87 77/77/87
f 5/5/88 77/77/88 6/6/88
f 77/77/89 31/30/89 6/6/89
f 76/76/90 71/71/90 77/77/90
f 71/71/91 72/72/91 77/77/91
f 47/47/92 18/18/92 20/20/92
f 63/63/93 48/48/93 47/47/93
f 47/47/94 59/59/94 18/18/94
f 59/59/95 47/47/95 48/48/95
f 10/10/96 65/65/96 13/13/96
f 64/64/97 65/65/97 10/10/97
f 41/41/98 69/69/98 43/42/98
f 69/69/99 41/41/99 30/31/99
f 69/69/100 30/31/100 31/30/100
f 77/77/101 69/69/101 31/30/101
f 75/75/102 15/15/102 26/26/102
f 75/75/103 26/26/103 32/32/103
f 34/34/104 71/71/104 76/76/104
f 34/34/105 76/76/105 5/5/105
f 34/34/106 64/64/106 71/71/106
f 34/34/107 37/37/107 64/64/107
f 34/34/108 5/5/108 7/7/108
f 34/34/109 7/7/109 35/35/109
f 72/72/110 73/73/110 77/77/110
f 73/73/111 69/69/111 77/77/111
f 70/70/112 73/73/112 78/78/112
f 69/69/113 73/73/113 70/70/113
f 78/78/114 73/73/114 74/74/114
f 9/8/115 27/27/115 28/28/115
f 9/8/116 72/72/116 27/27/116
f 9/8/117 73/73/117 72/72/117
