# Blender v2.79 (sub 0) OBJ File: ''
# www.blender.org
mtllib crack_only_61.mtl
o crack_only_61
v 2.874072 1.396512 -2.734783
v 2.838108 1.356496 -2.205138
v 2.867440 1.518227 -2.468152
v 2.861974 1.361101 -2.970222
v 2.876452 1.574978 -2.997473
v 2.839489 1.877110 -2.052487
v 2.934861 1.958793 -2.622276
v 2.742585 1.625727 -4.187452
v 2.847905 1.919094 -3.994210
v 2.745970 1.805329 -4.372338
v 2.829912 1.745293 -3.882747
v 2.793422 1.690794 -4.015492
v 2.751738 1.458605 -4.016472
v 2.830788 2.048977 -4.276413
v 2.817049 2.042286 -1.726997
v 2.871299 2.256234 -1.598339
v 2.790832 1.965037 -1.552134
v 2.843871 2.178582 -1.452159
v 2.914188 2.396764 -1.642556
v 2.844717 1.123908 -3.130852
v 2.886347 1.571605 -2.763781
v 2.777066 1.997268 -4.531367
v 2.859877 1.160823 -2.675648
v 2.806003 1.417866 -3.653653
v 2.774626 1.320400 -3.758599
v 2.787840 1.234637 -3.609218
v 2.834623 1.629552 -3.659324
v 2.786358 1.834116 -1.789398
v 2.766182 1.755235 -1.722355
v 3.052748 2.497094 -3.538735
v 2.987884 2.168538 -3.470150
v 3.081644 2.517311 -3.191544
v 3.078793 2.530838 -2.952073
v 3.023531 2.220634 -3.039416
v 3.062952 2.584375 -2.494960
v 2.893757 2.343749 -1.505133
v 2.867752 2.300393 -1.383652
v 2.996256 2.384264 -3.811613
v 2.949954 2.217819 -3.859996
v 2.918532 2.003081 -3.764599
v 2.940095 2.286024 -4.047431
v 2.856987 2.149498 -4.313967
v 2.985555 2.422532 -2.198634
v 2.977894 2.525791 -1.995341
v 2.875602 2.234570 -1.776780
v 2.909771 1.794755 -3.370025
v 2.789853 1.672958 -1.945896
v 2.756709 1.625702 -1.827192
v 2.811153 1.966448 -1.828195
v 2.798320 1.772210 -1.898929
v 2.836380 1.403516 -3.318172
vt 0.168796 0.551573
vt 0.236294 0.638586
vt 0.105194 0.717092
vt 0.307939 0.473359
vt 0.156658 0.476408
vt 0.456104 0.778361
vt 0.558591 0.601763
vt 0.395878 0.098639
vt 0.531342 0.044971
vt 0.600873 0.167841
vt 0.471856 0.198400
vt 0.271490 0.148350
vt 0.437293 0.154892
vt 0.705063 0.082084
vt 0.548104 0.884877
vt 0.695396 0.931286
vt 0.480991 0.937780
vt 0.629541 0.975132
vt 0.800688 0.921282
vt 0.000000 0.419659
vt 0.293094 0.546974
vt 0.677405 0.000000
vt 0.000598 0.564116
vt 0.228966 0.262077
vt 0.097370 0.271282
vt 0.163736 0.226282
vt 0.379297 0.265893
vt 0.403954 0.859690
vt 0.342866 0.878639
vt 1.000000 0.327707
vt 0.997223 0.437835
vt 0.760486 0.340441
vt 0.992059 0.513587
vt 1.000000 0.658799
vt 0.775682 0.477750
vt 0.753284 0.963054
vt 0.712771 1.000000
vt 0.930806 0.238407
vt 0.812631 0.218557
vt 0.654529 0.242903
vt 0.869548 0.161154
vt 0.780146 0.073023
vt 0.860607 0.747381
vt 0.918959 0.813966
vt 0.691522 0.874565
vt 0.486136 0.361851
vt 0.302289 0.806345
vt 0.258318 0.842256
vt 0.500910 0.851030
vt 0.369199 0.823724
vt 0.203188 0.367654
vn 0.9949 -0.0805 0.0615
vn 0.9965 -0.0726 -0.0403
vn 0.9953 -0.0298 0.0927
vn 0.9837 -0.0978 0.1506
vn 0.9570 -0.2166 -0.1928
vn 0.9656 -0.1725 -0.1946
vn 0.9610 -0.2129 -0.1768
vn 0.9605 -0.1715 -0.2191
vn 0.9564 -0.2093 -0.2036
vn 0.9490 -0.2605 -0.1775
vn 0.9646 -0.2620 0.0289
vn 0.9647 -0.2598 0.0430
vn 0.9586 -0.2833 0.0294
vn 0.9981 -0.0422 -0.0449
vn 0.9961 -0.0770 -0.0433
vn 0.9508 -0.2740 -0.1448
vn 0.9967 -0.0612 0.0527
vn 0.9970 -0.0439 0.0644
vn 0.9768 -0.1368 -0.1650
vn 0.9704 -0.2054 -0.1269
vn 0.9800 -0.1813 0.0816
vn 0.9759 -0.2071 -0.0692
vn 0.9801 -0.1904 0.0563
vn 0.9605 -0.2531 0.1153
vn 0.9647 -0.2325 -0.1233
vn 0.9598 -0.2786 0.0352
vn 0.9504 -0.2314 -0.2077
vn 0.9641 -0.2292 -0.1341
vn 0.9445 -0.2979 -0.1386
vn 0.9544 -0.2608 -0.1451
vn 0.9477 -0.2641 -0.1790
vn 0.9734 -0.1955 -0.1194
vn 0.9626 -0.2251 0.1506
vn 0.9685 -0.2054 0.1408
vn 0.9653 -0.2332 -0.1176
vn 0.9658 -0.2426 -0.0911
vn 0.9759 -0.2145 -0.0392
vn 0.9592 -0.2170 0.1814
vn 0.9591 -0.2774 0.0568
vn 0.9570 -0.2562 0.1362
vn 0.9597 -0.2751 0.0565
vn 0.9563 -0.2843 0.0687
vn 0.9557 -0.0852 0.2819
vn 0.9672 -0.0556 0.2479
vn 0.9738 -0.1597 0.1619
vn 0.9799 -0.1079 0.1680
vn 0.9729 -0.2251 -0.0533
vn 0.9743 -0.2186 -0.0542
vn 0.9755 -0.1564 0.1547
vn 0.9366 -0.2683 0.2252
vn 0.9704 -0.2011 0.1336
vn 0.9606 -0.2372 0.1447
vn 0.9763 -0.1280 0.1743
vn 0.9840 -0.1634 0.0716
vn 0.9751 -0.1299 0.1799
vn 0.9826 -0.1717 0.0714
vn 0.9768 -0.1402 -0.1618
vn 0.9774 -0.1365 -0.1615
vn 0.9969 -0.0211 -0.0759
vn 0.9896 -0.0584 -0.1312
vn 0.9931 -0.1085 -0.0436
vn 0.9897 -0.1380 0.0384
vn 0.9736 -0.2172 0.0706
vn 0.9659 -0.2242 0.1298
vn 0.9741 -0.2142 0.0726
vn 0.9832 -0.1813 0.0219
vn 0.9702 -0.2149 -0.1120
vn 0.9821 -0.1872 -0.0226
vn 0.9935 -0.0778 -0.0826
vn 0.9700 -0.2002 -0.1376
vn 0.9881 -0.1209 -0.0946
vn 0.9862 -0.1359 -0.0951
vn 0.9504 -0.2316 -0.2076
vn 0.9540 -0.2576 -0.1535
vn 0.9974 -0.0670 -0.0278
vn 0.9438 -0.2988 -0.1413
usemtl None
s off
f 1/1/1 3/2/1 2/3/1
f 5/4/2 1/1/2 4/5/2
f 6/6/3 2/3/3 3/2/3
f 6/6/4 3/2/4 7/7/4
f 8/8/5 10/9/5 9/10/5
f 11/11/6 13/12/6 12/13/6
f 12/13/7 9/10/7 11/11/7
f 8/8/8 12/13/8 13/12/8
f 12/13/9 8/8/9 9/10/9
f 14/14/10 9/10/10 10/9/10
f 15/15/11 16/16/11 17/17/11
f 16/16/12 18/18/12 17/17/12
f 19/19/13 18/18/13 16/16/13
f 20/20/14 4/5/14 1/1/14
f 5/4/15 21/21/15 1/1/15
f 14/14/16 10/9/16 22/22/16
f 21/21/17 3/2/17 1/1/17
f 2/3/18 23/23/18 1/1/18
f 24/24/19 26/25/19 25/26/19
f 11/11/20 27/27/20 13/12/20
f 28/28/21 17/17/21 29/29/21
f 30/30/22 32/31/22 31/32/22
f 33/33/23 35/34/23 34/35/23
f 18/18/24 36/36/24 37/37/24
f 38/38/25 31/32/25 39/39/25
f 36/36/26 18/18/26 19/19/26
f 40/40/27 9/10/27 39/39/27
f 38/38/28 39/39/28 41/41/28
f 42/42/29 14/14/29 22/22/29
f 41/41/30 39/39/30 9/10/30
f 41/41/31 9/10/31 14/14/31
f 31/32/32 40/40/32 39/39/32
f 43/43/33 44/44/33 45/45/33
f 44/44/34 43/43/34 35/34/34
f 31/32/35 46/46/35 27/27/35
f 40/40/36 31/32/36 27/27/36
f 31/32/37 5/4/37 46/46/37
f 47/47/38 29/29/38 48/48/38
f 15/15/39 45/45/39 16/16/39
f 49/49/40 45/45/40 15/15/40
f 19/19/41 16/16/41 45/45/41
f 45/45/42 44/44/42 19/19/42
f 6/6/43 47/47/43 2/3/43
f 48/48/44 2/3/44 47/47/44
f 29/29/45 47/47/45 50/50/45
f 50/50/46 28/28/46 29/29/46
f 31/32/47 34/35/47 5/4/47
f 32/31/48 34/35/48 31/32/48
f 50/50/49 47/47/49 6/6/49
f 45/45/50 49/49/50 6/6/50
f 6/6/51 7/7/51 45/45/51
f 43/43/52 45/45/52 7/7/52
f 50/50/53 6/6/53 49/49/53
f 28/28/54 49/49/54 17/17/54
f 49/49/55 28/28/55 50/50/55
f 15/15/56 17/17/56 49/49/56
f 25/26/57 13/12/57 24/24/57
f 24/24/58 13/12/58 27/27/58
f 20/20/59 51/51/59 4/5/59
f 51/51/60 20/20/60 26/25/60
f 7/7/61 21/21/61 5/4/61
f 21/21/62 7/7/62 3/2/62
f 7/7/63 5/4/63 34/35/63
f 43/43/64 7/7/64 35/34/64
f 34/35/65 35/34/65 7/7/65
f 34/35/66 32/31/66 33/33/66
f 31/32/67 38/38/67 30/30/67
f 5/4/68 51/51/68 46/46/68
f 51/51/69 5/4/69 4/5/69
f 51/51/70 27/27/70 46/46/70
f 24/24/71 51/51/71 26/25/71
f 24/24/72 27/27/72 51/51/72
f 11/11/73 9/10/73 40/40/73
f 40/40/74 27/27/74 11/11/74
f 23/23/75 20/20/75 1/1/75
f 14/14/76 42/42/76 41/41/76
