# Blender v2.79 (sub 0) OBJ File: ''
# www.blender.org
mtllib crack_only_70.mtl
o crack_only_70
v 2.840760 1.414982 -3.298839
v 2.826018 1.147550 -3.251190
v 2.784616 1.235056 -3.607183
v 2.904172 1.793790 -3.354667
v 3.025290 2.365620 -3.515886
v 3.025921 2.294007 -3.018507
v 2.878191 1.572658 -2.995040
v 2.908063 1.756689 -2.695438
v 2.954208 2.054736 -2.641373
v 3.098821 2.648736 -3.293442
v 2.874323 1.396617 -2.734786
v 2.831962 1.357143 -2.205014
v 2.865927 1.516759 -2.470415
v 2.908562 2.019189 -2.342901
v 2.887349 2.006033 -2.199095
v 2.884567 1.782802 -2.378407
v 2.991748 2.455217 -2.183636
v 3.036794 2.500837 -2.483553
v 2.826664 2.025988 -1.736500
v 2.814249 1.927498 -1.828987
v 2.792286 1.957671 -1.556509
v 2.856084 1.313626 -3.013078
v 2.841254 2.048934 -1.808867
v 2.845963 1.897293 -2.052032
v 2.867620 2.081030 -1.917661
v 2.822015 2.000705 -4.258270
v 2.844950 1.894948 -3.985673
v 2.746788 1.756168 -4.329276
v 2.889124 2.047071 -3.945152
v 2.918157 1.979421 -3.666418
v 2.879870 2.078749 -4.045290
v 2.871538 2.233761 -1.622762
v 2.911672 2.370558 -1.651113
v 2.928495 2.397838 -1.756722
v 2.930030 2.469626 -1.548931
v 2.892848 2.230378 -1.839257
v 2.881943 2.234009 -1.715067
v 2.836668 2.143403 -1.467302
v 2.853288 1.155029 -2.765063
v 2.854282 1.163002 -2.663812
v 2.838247 1.125558 -3.128631
v 3.122760 2.879699 -2.934867
v 3.093320 2.909036 -2.517924
v 2.928053 2.169691 -3.889064
v 2.867796 2.134784 -4.225471
v 2.963031 2.366250 -4.063582
v 2.971701 2.279714 -3.770266
v 3.090049 2.651555 -3.573696
v 3.064589 2.605442 -3.730284
v 3.004955 2.411940 -3.804897
v 2.774115 1.949800 -4.494155
v 2.839562 2.150513 -4.437338
v 2.928608 2.488556 -1.473035
v 2.878146 2.334301 -1.361055
v 2.929416 2.547029 -1.306519
v 2.953001 2.563776 -1.498567
v 2.979821 2.683538 -1.365369
v 2.792451 1.830755 -1.784820
v 2.771864 1.732697 -1.739176
v 2.896667 2.383833 -4.499908
v 3.001205 2.536717 -4.159660
v 3.107619 2.742814 -3.617829
v 3.054677 2.815799 -1.834150
v 3.125017 2.806844 -3.319373
v 3.075466 2.667449 -3.820856
v 2.967364 2.666628 -1.267066
v 2.795776 1.732470 -1.912567
v 2.763391 1.624587 -1.826783
v 2.820548 2.265826 -4.724152
v 2.820547 1.625563 -3.754433
v 2.773490 1.321284 -3.759265
v 2.748479 1.459075 -4.014184
vt 0.830413 0.612536
vt 0.983232 0.605447
vt 0.922088 0.705409
vt 0.609449 0.619056
vt 0.269104 0.650817
vt 0.333184 0.510169
vt 0.753119 0.521583
vt 0.661864 0.431224
vt 0.493249 0.408320
vt 0.113764 0.579956
vt 0.864215 0.451368
vt 0.811329 0.372809
vt 0.917130 0.300851
vt 0.533059 0.323934
vt 0.549938 0.283178
vt 0.665649 0.339936
vt 0.288437 0.267408
vt 0.243026 0.351965
vt 0.568700 0.150527
vt 0.619597 0.100806
vt 0.620431 0.179446
vt 0.898932 0.533125
vt 0.550660 0.170624
vt 0.622540 0.243893
vt 0.524346 0.200877
vt 0.459969 0.873059
vt 0.529386 0.797491
vt 0.601462 0.899640
vt 0.441499 0.782012
vt 0.489295 0.703737
vt 0.420086 0.809950
vt 0.453362 0.112735
vt 0.371112 0.117361
vt 0.348769 0.146859
vt 0.318825 0.085628
vt 0.442113 0.174702
vt 0.447469 0.139109
vt 0.515375 0.070573
vt 0.999599 0.465987
vt 1.000000 0.436804
vt 1.000000 0.570843
vt 0.000000 0.471602
vt 0.007587 0.351660
vt 0.371407 0.762815
vt 0.381548 0.860222
vt 0.249385 0.807855
vt 0.310826 0.725951
vt 0.099534 0.660152
vt 0.120556 0.706206
vt 0.231630 0.732515
vt 0.482452 0.942025
vt 0.365804 0.920611
vt 0.312179 0.063448
vt 0.409460 0.035350
vt 0.287707 0.014358
vt 0.266189 0.068828
vt 0.202901 0.027678
vt 0.678994 0.169242
vt 0.738215 0.158643
vt 0.226175 0.932618
vt 0.145331 0.831061
vt 0.044528 0.670497
vt 0.097492 0.158345
vt 0.021442 0.583432
vt 0.080344 0.730583
vt 0.218599 0.000000
vt 0.727010 0.208182
vt 0.795065 0.186381
vt 0.289910 1.000000
vt 0.693423 0.737935
vt 0.868020 0.746901
vt 0.781900 0.816640
vn 0.9879 -0.0784 -0.1341
vn 0.9759 -0.2158 -0.0323
vn 0.9779 -0.2020 -0.0536
vn 0.9827 -0.1668 0.0810
vn 0.9735 -0.2263 -0.0338
vn 0.9932 -0.0905 0.0727
vn 0.9837 -0.1200 0.1341
vn 0.9834 -0.1203 0.1361
vn 0.9820 -0.1677 0.0866
vn 0.9659 -0.2287 0.1216
vn 0.9674 -0.2221 0.1215
vn 0.9679 -0.2253 0.1111
vn 0.9704 -0.2185 0.1024
vn 0.9958 -0.0821 -0.0408
vn 0.9647 -0.2344 0.1202
vn 0.9559 -0.2405 0.1685
vn 0.9650 -0.2287 0.1286
vn 0.9542 -0.2429 -0.1745
vn 0.9588 -0.2365 -0.1573
vn 0.9583 -0.2349 -0.1629
vn 0.9629 -0.2555 0.0869
vn 0.9605 -0.2651 0.0845
vn 0.9563 -0.2452 0.1594
vn 0.9581 -0.2657 0.1073
vn 0.9579 -0.2658 0.1089
vn 0.9617 -0.2581 0.0920
vn 0.9598 -0.2593 0.1075
vn 0.9643 -0.2493 0.0892
vn 0.9632 -0.2528 0.0920
vn 0.9649 -0.2297 0.1271
vn 0.9603 -0.2575 0.1077
vn 0.9632 -0.2610 0.0643
vn 0.9611 -0.2698 0.0588
vn 0.9963 -0.0864 -0.0030
vn 0.9967 -0.0666 -0.0455
vn 0.9960 -0.0824 -0.0345
vn 0.9883 -0.1302 0.0789
vn 0.9598 -0.2331 -0.1565
vn 0.9469 -0.2835 -0.1516
vn 0.9595 -0.2307 -0.1616
vn 0.9505 -0.2831 -0.1283
vn 0.9673 -0.2175 -0.1303
vn 0.9676 -0.2368 -0.0876
vn 0.9610 -0.2544 -0.1084
vn 0.9566 -0.2695 -0.1105
vn 0.9571 -0.2539 -0.1396
vn 0.9467 -0.2864 -0.1474
vn 0.9636 -0.2229 -0.1476
vn 0.9578 -0.2680 -0.1037
vn 0.9578 -0.2665 -0.1082
vn 0.9634 -0.2552 0.0825
vn 0.9635 -0.2539 0.0845
vn 0.9941 -0.0300 -0.1046
vn 0.9952 -0.0626 0.0749
vn 0.9462 -0.3110 0.0891
vn 0.9795 -0.1758 0.0984
vn 0.9823 -0.1636 0.0916
vn 0.9944 -0.0800 -0.0698
vn 0.9938 -0.0701 -0.0861
vn 0.9491 -0.2740 -0.1554
vn 0.9417 -0.2984 -0.1553
vn 0.9690 -0.2300 -0.0898
vn 0.9573 -0.2773 0.0818
vn 0.9540 -0.2916 0.0701
vn 0.9805 -0.1961 -0.0151
vn 0.9792 -0.1781 -0.0970
vn 0.9753 -0.2208 0.0007
vn 0.9653 -0.2546 -0.0584
vn 0.9752 -0.1459 0.1665
vn 0.9713 -0.2040 0.1225
vn 0.9587 -0.2327 0.1637
vn 0.9795 -0.1237 0.1592
vn 0.9940 -0.0528 0.0955
vn 0.9606 -0.2694 -0.0691
vn 0.9567 -0.2707 -0.1072
vn 0.9449 -0.3211 0.0645
vn 0.9667 -0.0926 0.2385
vn 0.9652 -0.0964 0.2431
vn 0.9559 -0.2784 0.0931
vn 0.9581 -0.2673 0.1032
vn 0.9903 -0.1340 0.0377
vn 0.9580 -0.2731 0.0873
vn 0.9572 -0.2694 0.1056
vn 0.9634 -0.2553 0.0817
vn 0.9559 -0.2802 0.0878
vn 0.9635 -0.2568 0.0758
vn 0.9461 -0.2858 -0.1523
vn 0.9559 -0.2376 -0.1726
vn 0.9465 -0.2871 -0.1474
vn 0.9527 -0.2725 -0.1346
vn 0.9502 -0.2622 -0.1684
vn 0.9795 -0.1998 0.0251
vn 0.9919 -0.0977 0.0816
vn 0.9778 -0.2015 0.0581
vn 0.9446 -0.2780 -0.1744
vn 0.9804 -0.1428 0.1354
vn 0.9734 -0.1853 0.1345
vn 0.9734 -0.1477 -0.1754
vn 0.9766 -0.1486 -0.1557
vn 0.9682 -0.2317 -0.0945
vn 0.9790 -0.1444 -0.1440
vn 0.9652 -0.2413 -0.1004
vn 0.9815 -0.1755 -0.0763
vn 0.9849 -0.1698 -0.0332
vn 0.9740 -0.1666 0.1536
vn 0.9762 -0.1475 0.1588
vn 0.9847 -0.1690 0.0431
vn 0.9845 -0.1693 0.0454
vn 0.9868 -0.1577 0.0357
vn 0.9918 -0.1014 0.0776
vn 0.9951 -0.0883 -0.0450
vn 0.9724 -0.1671 -0.1627
vn 0.9610 -0.2251 -0.1608
vn 0.9550 -0.2382 -0.1766
vn 0.9564 -0.2730 -0.1043
usemtl None
s off
f 1/1/1 2/2/1 3/3/1
f 4/4/2 5/5/2 6/6/2
f 4/4/3 6/6/3 7/7/3
f 8/8/4 6/6/4 9/9/4
f 10/10/5 6/6/5 5/5/5
f 11/11/6 13/12/6 12/13/6
f 14/14/7 15/15/7 16/16/7
f 14/14/8 16/16/8 9/9/8
f 8/8/9 9/9/9 16/16/9
f 15/15/10 14/14/10 17/17/10
f 14/14/11 9/9/11 18/18/11
f 14/14/12 18/18/12 17/17/12
f 19/19/13 21/20/13 20/21/13
f 22/22/14 7/7/14 11/11/14
f 19/19/15 20/21/15 23/23/15
f 20/21/16 24/24/16 23/23/16
f 15/15/17 17/17/17 25/25/17
f 26/26/18 27/27/18 28/28/18
f 29/29/19 30/30/19 27/27/19
f 31/31/20 29/29/20 27/27/20
f 19/19/21 32/32/21 21/20/21
f 33/33/22 34/34/22 35/35/22
f 23/23/23 25/25/23 36/36/23
f 19/19/24 37/37/24 32/32/24
f 23/23/25 37/37/25 19/19/25
f 37/37/26 23/23/26 36/36/26
f 33/33/27 32/32/27 37/37/27
f 36/36/28 34/34/28 33/33/28
f 37/37/29 36/36/29 33/33/29
f 36/36/30 25/25/30 17/17/30
f 36/36/31 17/17/31 34/34/31
f 32/32/32 38/38/32 21/20/32
f 33/33/33 38/38/33 32/32/33
f 39/39/34 11/11/34 40/40/34
f 41/41/35 22/22/35 11/11/35
f 39/39/36 41/41/36 11/11/36
f 42/42/37 43/43/37 18/18/37
f 29/29/38 44/44/38 30/30/38
f 45/45/39 46/46/39 31/31/39
f 31/31/40 44/44/40 29/29/40
f 44/44/41 31/31/41 46/46/41
f 47/47/42 5/5/42 30/30/42
f 48/48/43 5/5/43 49/49/43
f 50/50/44 49/49/44 5/5/44
f 50/50/45 5/5/45 47/47/45
f 26/26/46 28/28/46 51/51/46
f 45/45/47 52/52/47 46/46/47
f 47/47/48 30/30/48 44/44/48
f 50/50/49 47/47/49 44/44/49
f 44/44/50 46/46/50 50/50/50
f 53/53/51 54/54/51 38/38/51
f 54/54/52 53/53/52 55/55/52
f 2/2/53 22/22/53 41/41/53
f 40/40/54 11/11/54 12/13/54
f 56/56/55 57/57/55 55/55/55
f 58/58/56 20/21/56 21/20/56
f 58/58/57 21/20/57 59/59/57
f 2/2/58 7/7/58 22/22/58
f 2/2/59 1/1/59 7/7/59
f 60/60/60 46/46/60 52/52/60
f 61/61/61 46/46/61 60/60/61
f 62/62/62 48/48/62 49/49/62
f 63/63/63 56/56/63 35/35/63
f 57/57/64 56/56/64 63/63/64
f 62/62/65 64/64/65 48/48/65
f 10/10/66 5/5/66 64/64/66
f 48/48/67 64/64/67 5/5/67
f 65/65/68 62/62/68 49/49/68
f 24/24/69 16/16/69 15/15/69
f 24/24/70 15/15/70 25/25/70
f 25/25/71 23/23/71 24/24/71
f 24/24/72 13/12/72 16/16/72
f 24/24/73 12/13/73 13/12/73
f 49/49/74 50/50/74 65/65/74
f 65/65/75 50/50/75 46/46/75
f 66/66/76 55/55/76 57/57/76
f 24/24/77 67/67/77 12/13/77
f 68/68/78 12/13/78 67/67/78
f 56/56/79 55/55/79 53/53/79
f 18/18/80 63/63/80 17/17/80
f 18/18/81 43/43/81 63/63/81
f 35/35/82 34/34/82 63/63/82
f 34/34/83 17/17/83 63/63/83
f 53/53/84 38/38/84 35/35/84
f 53/53/85 35/35/85 56/56/85
f 33/33/86 35/35/86 38/38/86
f 26/26/87 45/45/87 31/31/87
f 31/31/88 27/27/88 26/26/88
f 26/26/89 52/52/89 45/45/89
f 26/26/90 51/51/90 52/52/90
f 69/69/91 52/52/91 51/51/91
f 8/8/92 7/7/92 6/6/92
f 8/8/93 16/16/93 13/12/93
f 6/6/94 18/18/94 9/9/94
f 60/60/95 52/52/95 69/69/95
f 59/59/96 67/67/96 58/58/96
f 67/67/97 59/59/97 68/68/97
f 70/70/98 71/71/98 72/72/98
f 70/70/99 3/3/99 71/71/99
f 30/30/100 5/5/100 4/4/100
f 70/70/101 4/4/101 3/3/101
f 4/4/102 70/70/102 30/30/102
f 1/1/103 3/3/103 4/4/103
f 1/1/104 4/4/104 7/7/104
f 24/24/105 58/58/105 67/67/105
f 20/21/106 58/58/106 24/24/106
f 42/42/107 6/6/107 10/10/107
f 42/42/108 18/18/108 6/6/108
f 42/42/109 10/10/109 64/64/109
f 11/11/110 8/8/110 13/12/110
f 8/8/111 11/11/111 7/7/111
f 72/72/112 28/28/112 70/70/112
f 70/70/113 27/27/113 30/30/113
f 70/70/114 28/28/114 27/27/114
f 46/46/115 61/61/115 65/65/115
