# Blender v2.79 (sub 0) OBJ File: ''
# www.blender.org
mtllib crack_only_34.mtl
o crack_only_34
v 2.847290 1.385882 -2.153753
v 2.861015 1.608752 -2.426309
v 2.883175 1.260890 -2.418971
v 2.871197 1.413950 -2.729902
v 2.855249 1.377574 -2.970945
v 2.886712 1.680768 -3.011327
v 2.889235 1.154662 -2.692240
v 2.886730 1.137089 -2.884703
v 2.882903 1.665565 -2.745530
v 2.835507 1.439691 -2.092545
v 2.796504 1.438235 -3.577093
v 2.799981 1.215853 -3.536658
v 2.785175 1.281335 -3.701422
v 2.844930 1.538388 -3.376115
v 2.818725 1.179774 -3.389224
v 2.865012 1.119947 -3.132378
vt 0.639185 0.039710
vt 0.833373 0.207587
vt 0.202235 0.197950
vt 0.517583 0.393121
vt 0.553337 0.543699
vt 0.000000 0.554920
vt 0.992030 0.380416
vt 1.000000 0.499891
vt 0.060318 0.391786
vt 0.549109 0.000000
vt 0.367445 0.916397
vt 0.775138 0.900800
vt 0.635929 1.000000
vt 0.211885 0.786965
vt 0.859046 0.810935
vt 1.000000 0.653894
vn 0.9925 0.0654 0.1035
vn 0.9980 0.0634 -0.0072
vn 0.9928 -0.1096 -0.0491
vn 0.9976 0.0687 -0.0046
vn 0.9916 0.1008 -0.0808
vn 0.9989 -0.0457 0.0117
vn 0.9972 -0.0426 0.0608
vn 0.9896 0.0829 0.1176
vn 0.9960 -0.0008 -0.0898
vn 0.9912 -0.1122 -0.0698
vn 0.9876 -0.0670 -0.1420
vn 0.9747 -0.0252 -0.2223
vn 0.9990 0.0431 -0.0083
vn 0.9794 -0.0646 -0.1915
vn 0.9910 0.0962 -0.0936
vn 0.9976 0.0666 -0.0191
usemtl None
s off
f 1/1/1 3/2/1 2/3/1
f 3/2/2 4/4/2 2/3/2
f 5/5/3 6/6/3 4/4/3
f 7/7/4 4/4/4 3/2/4
f 8/8/5 5/5/5 4/4/5
f 9/9/6 4/4/6 6/6/6
f 9/9/7 2/3/7 4/4/7
f 10/10/8 1/1/8 2/3/8
f 11/11/9 12/12/9 13/13/9
f 14/14/10 6/6/10 5/5/10
f 12/12/11 14/14/11 15/15/11
f 12/12/12 11/11/12 14/14/12
f 16/16/13 14/14/13 5/5/13
f 14/14/14 16/16/14 15/15/14
f 16/16/15 5/5/15 8/8/15
f 7/7/16 8/8/16 4/4/16
