# Blender v2.79 (sub 0) OBJ File: ''
# www.blender.org
mtllib crack_only_26.mtl
o crack_only_26
v 2.835069 1.483378 -3.312177
v 2.861471 1.357458 -2.967546
v 2.859401 1.550039 -2.982336
v 2.872902 1.394340 -2.725530
v 2.886620 1.150439 -2.735373
v 2.884704 1.137379 -2.888761
v 2.811404 1.204725 -3.500672
v 2.834506 1.169899 -3.366133
v 2.869472 1.515417 -2.754399
v 2.890857 1.219314 -2.518374
v 2.883050 1.453242 -2.587422
v 2.888704 1.296070 -2.349007
v 2.797666 1.324070 -3.548868
v 2.793743 1.230627 -3.594023
v 2.870932 1.120257 -3.112119
vt 0.097910 0.757736
vt 0.000000 0.489822
vt 0.460552 0.489787
vt 0.416605 0.294351
vt 0.996084 0.316339
vt 1.000000 0.439239
vt 0.833467 0.819977
vt 0.724566 0.926260
vt 0.123385 0.310067
vt 0.870919 0.139274
vt 0.301944 0.180267
vt 0.717968 0.000000
vt 0.430948 0.958095
vt 0.644696 1.000000
vt 1.000000 0.618768
vn 0.9972 0.0050 -0.0746
vn 0.9988 0.0070 -0.0482
vn 0.9982 0.0568 -0.0173
vn 0.9947 0.0836 -0.0597
vn 0.9863 0.0262 -0.1626
vn 0.9990 0.0184 -0.0413
vn 0.9995 0.0327 -0.0021
vn 0.9970 0.0098 -0.0774
vn 0.9969 0.0103 -0.0777
vn 0.9976 0.0576 -0.0378
vn 0.9838 0.0429 -0.1742
vn 0.9825 0.0396 -0.1819
vn 0.9944 0.0808 -0.0675
vn 0.9865 0.1122 -0.1195
vn 0.9973 0.0107 -0.0725
usemtl None
s off
f 1/1/1 3/2/1 2/3/1
f 2/3/2 3/2/2 4/4/2
f 5/5/3 6/6/3 4/4/3
f 6/6/4 2/3/4 4/4/4
f 8/7/5 7/8/5 1/1/5
f 9/9/6 4/4/6 3/2/6
f 10/10/7 11/11/7 12/12/7
f 4/4/8 9/9/8 11/11/8
f 11/11/9 10/10/9 4/4/9
f 5/5/10 4/4/10 10/10/10
f 13/13/11 7/8/11 14/14/11
f 13/13/12 1/1/12 7/8/12
f 15/15/13 2/3/13 6/6/13
f 15/15/14 8/7/14 2/3/14
f 2/3/15 8/7/15 1/1/15
