# Blender v2.79 (sub 0) OBJ File: ''
# www.blender.org
mtllib crack_only_131.mtl
o crack_only_131
v 2.810176 1.401169 -3.312192
v 2.764433 1.252057 -3.621421
v 2.876271 1.992391 -3.669548
v 2.943017 2.381882 -2.160704
v 3.003449 2.603808 -2.465826
v 2.993157 2.691665 -1.932896
v 3.096190 3.816246 -4.552049
v 3.125360 3.832011 -4.225726
v 3.075448 3.439975 -4.460139
v 3.063656 2.936660 -2.517945
v 3.059314 3.447135 -5.058090
v 3.048684 3.310146 -4.826568
v 3.034158 3.161494 -5.067271
v 3.063287 3.585325 -4.752930
v 3.221257 4.559815 -1.349985
v 3.220921 4.640805 -1.715845
v 3.163831 5.119542 -1.403484
v 3.199846 4.156617 -1.682301
v 3.198569 5.044671 -1.932691
v 3.220258 4.617774 -2.272720
v 3.127037 4.117211 -4.361706
v 3.202701 4.274853 -2.315780
v 3.200588 4.211418 -2.033709
v 2.834187 1.381679 -2.855407
v 2.809654 1.173364 -2.656101
v 2.807829 1.359683 -2.204527
v 2.873723 2.074000 -1.921221
v 3.174243 3.799214 -2.024923
v 2.808660 1.162560 -2.792365
v 2.748771 1.459033 -4.014390
v 2.756231 1.765416 -4.345083
v 2.800359 1.135220 -3.115626
v 3.050018 3.107285 -3.875768
v 2.938426 2.579046 -4.160474
v 2.790532 1.161650 -3.272933
v 3.103554 4.298910 -4.579595
v 3.093011 4.131010 -4.678546
v 3.133782 4.487911 -4.731886
v 3.140120 4.366779 -4.183440
v 3.152733 4.259078 -4.081779
v 3.152446 4.730692 -3.958349
v 3.140192 4.636924 -4.422032
v 3.078822 4.100042 -4.860088
v 3.207660 4.388920 -2.825788
v 3.194948 3.948878 -2.693901
v 3.186821 3.950236 -3.084833
v 3.204574 4.361494 -2.577781
v 3.185335 4.335168 -3.727649
v 3.156086 3.772536 -3.596090
v 3.207188 4.566628 -2.541976
v 3.203875 4.469215 -3.090780
v 3.200860 4.424681 -3.334840
v 3.190156 4.047431 -1.315966
v 3.172024 3.837869 -1.655174
v 3.168030 3.821813 -1.451877
v 3.089114 3.343480 -1.266071
v 3.109240 3.445233 -1.435872
v 3.141812 3.638401 -1.286625
v 3.170378 3.758167 -2.287840
v 3.067722 3.712618 -5.008645
v 3.103884 3.258280 -2.106120
v 3.214785 4.884411 -2.429343
v 3.204022 4.796212 -2.770299
v 3.184443 4.749914 -3.145858
v 2.797263 2.132284 -4.642817
v 3.081711 3.205476 -1.749269
v 3.087542 3.274261 -1.544328
v 3.117483 3.405132 -1.809627
v 3.175219 4.766955 -3.565004
v 3.094081 3.196095 -3.009246
v 2.868840 1.754369 -2.596188
v 2.969049 2.378954 -3.144190
v 3.012202 3.055070 -4.471053
v 2.876879 2.537799 -4.883167
v 2.981447 2.688903 -1.260036
v 2.874088 2.303153 -1.372859
v 2.818525 1.946272 -1.560398
v 2.804178 1.617780 -1.824290
vt 0.083173 0.385639
vt 0.053935 0.301537
vt 0.252699 0.315146
vt 0.302866 0.712953
vt 0.373433 0.643215
vt 0.377293 0.781798
vt 0.768224 0.153783
vt 0.761447 0.237605
vt 0.665663 0.164296
vt 0.464118 0.641645
vt 0.688436 0.012188
vt 0.643976 0.066418
vt 0.613164 0.000000
vt 0.713956 0.094587
vt 0.852498 0.995080
vt 0.886775 0.904673
vt 1.000000 1.000000
vt 0.757947 0.896670
vt 1.000000 0.862979
vt 0.900527 0.762111
vt 0.841209 0.212653
vt 0.811601 0.739413
vt 0.784858 0.809064
vt 0.062373 0.501446
vt 0.032809 0.666224
vt 0.000000 0.544961
vt 0.211854 0.763007
vt 0.675687 0.797157
vt 0.001988 0.509895
vt 0.121890 0.208384
vt 0.214281 0.134618
vt 0.006115 0.426610
vt 0.556910 0.301629
vt 0.425684 0.210464
vt 0.018418 0.387385
vt 0.896111 0.163164
vt 0.855296 0.132212
vt 0.951876 0.131005
vt 0.900706 0.266582
vt 0.988541 0.336297
vt 0.869110 0.288907
vt 0.980128 0.214984
vt 0.853287 0.084842
vt 0.859818 0.613464
vt 0.739281 0.632053
vt 0.753355 0.532512
vt 0.843718 0.675655
vt 0.877264 0.381876
vt 0.724158 0.396113
vt 0.896368 0.691735
vt 0.890240 0.548690
vt 0.887160 0.485024
vt 0.716012 0.986171
vt 0.672626 0.892586
vt 0.661081 0.943773
vt 0.526995 0.974321
vt 0.560234 0.934679
vt 0.606419 0.979449
vt 0.674173 0.728803
vt 0.756584 0.033825
vt 0.534869 0.757669
vt 0.975980 0.731224
vt 0.964698 0.641355
vt 0.965439 0.544033
vt 0.322180 0.071529
vt 0.507778 0.846576
vt 0.563201 0.838224
vt 0.518685 0.901123
vt 0.984609 0.437831
vt 0.550444 0.525562
vt 0.151831 0.580307
vt 0.337713 0.462649
vt 0.563481 0.148035
vt 0.439104 0.024634
vt 0.352346 0.952928
vt 0.252518 0.910378
vt 0.164162 0.850152
vt 0.086960 0.771743
vn 0.9855 -0.1535 -0.0717
vn 0.9792 -0.1962 0.0513
vn 0.9935 -0.0756 -0.0852
vn 0.9842 -0.1706 0.0471
vn 0.9961 -0.0875 -0.0061
vn 0.9983 -0.0563 0.0125
vn 0.9943 0.1041 0.0221
vn 0.9990 -0.0442 -0.0107
vn 0.9942 -0.0738 -0.0780
vn 0.9950 0.0838 0.0535
vn 0.9986 0.0534 -0.0034
vn 0.9951 -0.0472 -0.0867
vn 0.9987 -0.0506 -0.0039
vn 0.9960 -0.0813 0.0376
vn 0.9811 -0.1889 0.0410
vn 0.9989 -0.0479 0.0008
vn 0.9979 -0.0639 -0.0079
vn 0.9933 -0.1152 0.0019
vn 0.9803 -0.1555 -0.1219
vn 0.9926 -0.1201 -0.0153
vn 0.9831 -0.1671 -0.0752
vn 0.9903 -0.0975 -0.0995
vn 0.9923 -0.1030 0.0691
vn 0.9936 -0.0334 -0.1082
vn 0.9943 0.0005 -0.1068
vn 0.9950 0.0258 -0.0962
vn 0.9946 0.0205 -0.1017
vn 0.9967 -0.0399 -0.0713
vn 0.9912 -0.1262 0.0402
vn 0.9995 -0.0200 -0.0224
vn 0.9891 -0.0414 -0.1411
vn 0.9990 -0.0291 -0.0326
vn 0.9909 -0.1217 -0.0567
vn 0.9970 -0.0199 -0.0745
vn 0.9992 -0.0351 -0.0209
vn 0.9997 -0.0232 -0.0005
vn 0.9949 0.0260 -0.0972
vn 0.9946 -0.0696 -0.0766
vn 0.9975 -0.0461 -0.0530
vn 0.9999 -0.0132 0.0028
vn 0.9981 -0.0461 -0.0397
vn 0.9996 -0.0260 0.0096
vn 0.9998 -0.0146 0.0108
vn 0.9992 -0.0331 -0.0243
vn 0.9986 -0.0449 -0.0292
vn 0.9994 -0.0329 -0.0063
vn 0.9982 -0.0600 0.0085
vn 0.9962 -0.0857 0.0149
vn 0.9962 -0.0859 0.0128
vn 0.9845 -0.1751 0.0118
vn 0.9979 -0.0639 -0.0069
vn 0.9990 -0.0438 -0.0047
vn 0.9980 -0.0627 -0.0049
vn 0.9976 -0.0607 0.0319
vn 0.9933 -0.0515 -0.1035
vn 0.9995 -0.0319 0.0014
vn 0.9996 -0.0296 0.0026
vn 0.9829 -0.1788 0.0436
vn 0.9992 0.0334 0.0219
vn 0.9995 -0.0140 -0.0279
vn 0.9989 -0.0072 -0.0471
vn 0.9999 0.0095 -0.0043
vn 0.9975 0.0704 0.0071
vn 0.9984 0.0163 -0.0541
vn 0.9751 -0.1938 -0.1081
vn 0.9752 -0.1945 -0.1053
vn 0.9854 -0.1680 0.0283
vn 0.9855 -0.1655 0.0368
vn 0.9903 -0.1388 0.0071
vn 0.9919 -0.1258 0.0168
vn 0.9917 -0.1283 0.0093
vn 0.9911 -0.1320 0.0197
vn 0.9913 -0.1307 0.0122
vn 0.9792 -0.1982 0.0429
vn 0.9881 -0.1494 0.0378
vn 0.9976 0.0643 -0.0241
vn 0.9979 0.0617 -0.0195
vn 0.9976 0.0338 -0.0609
vn 0.9973 0.0529 -0.0515
vn 0.9975 -0.0369 -0.0598
vn 0.9890 -0.1448 0.0304
vn 0.9920 -0.1241 -0.0211
vn 0.9974 -0.0609 -0.0388
vn 0.9922 -0.1237 -0.0167
vn 0.9943 -0.0907 -0.0561
vn 0.9956 -0.0603 -0.0723
vn 0.9924 -0.1175 0.0362
vn 0.9815 -0.1881 -0.0349
vn 0.9970 -0.0546 -0.0547
vn 0.9922 -0.1233 -0.0205
vn 0.9748 -0.2185 -0.0458
vn 0.9690 -0.2468 -0.0084
vn 0.9925 -0.1212 0.0149
vn 0.9867 -0.1617 -0.0148
vn 0.9735 -0.2099 -0.0905
vn 0.9842 -0.1767 0.0086
vn 0.9894 -0.1322 -0.0608
vn 0.9933 -0.1136 -0.0215
vn 0.9821 -0.1825 -0.0464
vn 0.9858 -0.1606 -0.0485
vn 0.9803 -0.1560 -0.1212
vn 0.9865 -0.1600 -0.0338
vn 0.9876 -0.1392 -0.0720
vn 0.9891 -0.1427 -0.0357
vn 0.9926 -0.1210 -0.0024
vn 0.9888 -0.1485 -0.0172
vn 0.9913 -0.1320 -0.0020
vn 0.9912 -0.1324 -0.0016
vn 0.9954 -0.0962 -0.0023
vn 0.9929 -0.1152 0.0296
vn 0.9862 -0.1619 0.0347
vn 0.9859 -0.1654 0.0274
vn 0.9828 -0.1816 0.0342
vn 0.9621 -0.2723 0.0156
vn 0.9843 -0.1755 0.0164
vn 0.9787 -0.1877 0.0833
vn 0.9786 -0.1918 0.0750
vn 0.9836 -0.1658 0.0714
vn 0.9832 -0.1670 0.0732
vn 0.9876 -0.1568 0.0019
vn 0.9931 -0.0965 0.0661
vn 0.9940 -0.0861 0.0680
vn 0.9784 -0.1894 0.0826
usemtl None
s off
f 1/1/1 2/2/1 3/3/1
f 4/4/2 5/5/2 6/6/2
f 7/7/3 8/8/3 9/9/3
f 10/10/4 6/6/4 5/5/4
f 11/11/5 12/12/5 13/13/5
f 14/14/6 12/12/6 11/11/6
f 15/15/7 16/16/7 17/17/7
f 16/16/8 15/15/8 18/18/8
f 7/7/9 9/9/9 14/14/9
f 16/16/10 19/19/10 17/17/10
f 20/20/11 19/19/11 16/16/11
f 8/8/12 7/7/12 21/21/12
f 22/22/13 20/20/13 23/23/13
f 24/24/14 26/25/14 25/26/14
f 27/27/15 4/4/15 6/6/15
f 20/20/16 16/16/16 23/23/16
f 23/23/17 18/18/17 28/28/17
f 24/24/18 25/26/18 29/29/18
f 30/30/19 31/31/19 3/3/19
f 24/24/20 29/29/20 32/32/20
f 33/33/21 3/3/21 34/34/21
f 1/1/22 35/35/22 2/2/22
f 36/36/23 37/37/23 38/38/23
f 37/37/24 21/21/24 7/7/24
f 37/37/25 36/36/25 21/21/25
f 39/39/26 41/40/26 40/41/26
f 40/41/27 21/21/27 39/39/27
f 40/41/28 8/8/28 21/21/28
f 36/36/29 38/38/29 42/42/29
f 39/39/30 42/42/30 41/40/30
f 36/36/31 42/42/31 21/21/31
f 39/39/32 21/21/32 42/42/32
f 37/37/33 43/43/33 38/38/33
f 37/37/34 7/7/34 43/43/34
f 44/44/35 45/45/35 46/46/35
f 47/47/36 22/22/36 45/45/36
f 40/41/37 41/40/37 48/48/37
f 40/41/38 48/48/38 49/49/38
f 40/41/39 49/49/39 8/8/39
f 50/50/40 22/22/40 47/47/40
f 50/50/41 20/20/41 22/22/41
f 44/44/42 47/47/42 45/45/42
f 47/47/43 44/44/43 50/50/43
f 44/44/44 46/46/44 51/51/44
f 52/52/45 46/46/45 48/48/45
f 52/52/46 51/51/46 46/46/46
f 53/53/47 18/18/47 15/15/47
f 54/54/48 28/28/48 18/18/48
f 54/54/49 18/18/49 55/55/49
f 56/56/50 57/57/50 58/58/50
f 23/23/51 28/28/51 22/22/51
f 16/16/52 18/18/52 23/23/52
f 59/59/53 22/22/53 28/28/53
f 59/59/54 45/45/54 22/22/54
f 7/7/55 14/14/55 43/43/55
f 14/14/56 11/11/56 60/60/56
f 60/60/57 43/43/57 14/14/57
f 10/10/58 61/61/58 6/6/58
f 62/62/59 19/19/59 20/20/59
f 63/63/60 62/62/60 50/50/60
f 50/50/61 62/62/61 20/20/61
f 63/63/62 50/50/62 44/44/62
f 64/64/63 44/44/63 51/51/63
f 44/44/64 64/64/64 63/63/64
f 34/34/65 3/3/65 31/31/65
f 34/34/66 31/31/66 65/65/66
f 66/66/67 68/67/67 67/68/67
f 61/61/68 68/67/68 66/66/68
f 68/67/69 59/59/69 28/28/69
f 61/61/70 59/59/70 68/67/70
f 54/54/71 55/55/71 68/67/71
f 68/67/72 28/28/72 54/54/72
f 55/55/73 58/58/73 68/67/73
f 68/67/74 58/58/74 57/57/74
f 68/67/75 57/57/75 67/68/75
f 64/64/76 51/51/76 52/52/76
f 64/64/77 52/52/77 69/69/77
f 52/52/78 41/40/78 69/69/78
f 52/52/79 48/48/79 41/40/79
f 12/12/80 14/14/80 9/9/80
f 57/57/81 56/56/81 67/68/81
f 70/70/82 46/46/82 45/45/82
f 46/46/83 49/49/83 48/48/83
f 49/49/84 46/46/84 70/70/84
f 35/35/85 1/1/85 24/24/85
f 24/24/86 32/32/86 35/35/86
f 71/71/87 26/25/87 24/24/87
f 71/71/88 3/3/88 72/72/88
f 1/1/89 71/71/89 24/24/89
f 1/1/90 3/3/90 71/71/90
f 73/73/91 65/65/91 74/74/91
f 73/73/92 74/74/92 13/13/92
f 12/12/93 73/73/93 13/13/93
f 12/12/94 9/9/94 73/73/94
f 34/34/95 65/65/95 73/73/95
f 10/10/96 5/5/96 72/72/96
f 33/33/97 8/8/97 49/49/97
f 33/33/98 9/9/98 8/8/98
f 33/33/99 34/34/99 73/73/99
f 9/9/100 33/33/100 73/73/100
f 2/2/101 30/30/101 3/3/101
f 33/33/102 70/70/102 3/3/102
f 72/72/103 3/3/103 70/70/103
f 33/33/104 49/49/104 70/70/104
f 61/61/105 10/10/105 70/70/105
f 10/10/106 72/72/106 70/70/106
f 70/70/107 45/45/107 59/59/107
f 61/61/108 70/70/108 59/59/108
f 53/53/109 55/55/109 18/18/109
f 55/55/110 53/53/110 58/58/110
f 67/68/111 56/56/111 75/75/111
f 67/68/112 75/75/112 66/66/112
f 61/61/113 66/66/113 6/6/113
f 6/6/114 75/75/114 76/76/114
f 75/75/115 6/6/115 66/66/115
f 27/27/116 6/6/116 77/77/116
f 6/6/117 76/76/117 77/77/117
f 27/27/118 71/71/118 4/4/118
f 4/4/119 71/71/119 5/5/119
f 5/5/120 71/71/120 72/72/120
f 78/78/121 71/71/121 77/77/121
f 71/71/122 78/78/122 26/25/122
f 27/27/123 77/77/123 71/71/123
