# Blender v2.79 (sub 0) OBJ File: ''
# www.blender.org
mtllib crack_only_47.mtl
o crack_only_47
v 2.841126 1.374886 -2.175021
v 2.873338 1.484970 -2.481321
v 2.873733 1.244225 -2.465529
v 2.822469 1.387021 -3.378511
v 2.777630 1.300620 -3.736101
v 2.831544 1.661636 -3.692380
v 2.799154 1.215019 -3.519676
v 2.828395 1.728620 -3.815510
v 2.742309 1.524034 -4.096535
v 2.954642 2.018417 -2.650671
v 2.855435 1.804904 -2.226028
v 2.900704 1.774235 -2.685613
v 2.852453 1.931665 -2.157247
v 2.836280 1.904936 -2.045950
v 2.760105 1.610122 -1.856801
v 2.734066 1.740628 -1.740390
v 2.775999 1.805218 -1.857831
v 2.997624 2.075260 -2.919003
v 2.919466 1.996651 -2.434294
v 2.809874 1.593908 -2.053130
v 2.807522 1.835603 -1.927395
v 2.871632 1.604359 -2.992370
v 2.877699 1.408482 -2.735294
v 2.851636 1.122144 -3.133227
v 2.834792 1.229477 -3.264038
v 2.864573 1.369838 -2.968678
v 2.823631 1.173071 -3.367787
v 2.878357 1.835734 -3.649573
v 2.942271 1.961035 -3.424488
v 2.869214 1.153303 -2.743441
vt 0.086403 0.783308
vt 0.026224 0.649731
vt 0.276674 0.666870
vt 0.388770 0.284639
vt 0.382469 0.127668
vt 0.747140 0.181287
vt 0.244441 0.209106
vt 0.845308 0.136741
vt 0.695235 0.000000
vt 0.872407 0.648920
vt 0.540781 0.804430
vt 0.625311 0.610448
vt 0.653683 0.845482
vt 0.597696 0.889104
vt 0.242171 0.938761
vt 0.443897 0.957515
vt 0.345057 1.000000
vt 1.000000 0.542996
vt 0.794131 0.736705
vt 0.278130 0.855544
vt 0.495044 0.931565
vt 0.522735 0.466352
vt 0.260320 0.553842
vt 0.060827 0.360405
vt 0.200832 0.316661
vt 0.276002 0.453117
vt 0.167080 0.268031
vt 0.919810 0.216137
vt 1.000000 0.321871
vt 0.000000 0.525351
vn 0.9941 0.0087 0.1077
vn 0.9865 -0.1363 -0.0908
vn 0.9926 -0.0404 -0.1147
vn 0.9668 -0.2134 -0.1408
vn 0.9670 -0.2294 0.1106
vn 0.9900 -0.0484 0.1322
vn 0.9515 -0.0759 0.2980
vn 0.9676 -0.2290 0.1065
vn 0.9725 -0.0929 0.2134
vn 0.9694 0.0016 0.2456
vn 0.9200 -0.0729 0.3851
vn 0.9596 -0.1225 0.2534
vn 0.9749 -0.1722 0.1412
vn 0.9787 -0.1169 0.1690
vn 0.9832 -0.0766 0.1656
vn 0.9951 -0.0216 0.0969
vn 0.9677 -0.0023 0.2522
vn 0.9623 -0.2662 0.0562
vn 0.9965 -0.0539 -0.0646
vn 0.9970 -0.0678 0.0375
vn 0.9947 -0.0238 0.0996
vn 0.9937 0.0214 -0.1104
vn 0.9932 0.0154 -0.1152
vn 0.9638 -0.2232 -0.1461
vn 0.9634 -0.2222 -0.1499
vn 0.9667 -0.2510 -0.0491
vn 0.9769 -0.1249 -0.1732
vn 0.9999 0.0027 0.0164
vn 0.9986 -0.0318 -0.0425
vn 0.9981 -0.0351 -0.0503
vn 0.9984 -0.0167 -0.0534
vn 0.9994 -0.0331 -0.0054
vn 0.9938 -0.0404 -0.1038
vn 0.9638 -0.2139 -0.1593
vn 0.9948 0.0037 -0.1020
vn 0.9787 -0.2050 -0.0092
vn 0.9943 0.0000 -0.1070
vn 0.9871 -0.0027 -0.1598
usemtl None
s off
f 1/1/1 3/2/1 2/3/1
f 4/4/2 5/5/2 6/6/2
f 4/4/3 7/7/3 5/5/3
f 8/8/4 6/6/4 9/9/4
f 10/10/5 11/11/5 12/12/5
f 13/13/6 14/14/6 11/11/6
f 15/15/7 17/16/7 16/17/7
f 12/12/8 18/18/8 10/10/8
f 11/11/9 19/19/9 13/13/9
f 20/20/10 15/15/10 1/1/10
f 17/16/11 15/15/11 21/21/11
f 21/21/12 15/15/12 20/20/12
f 19/19/13 11/11/13 10/10/13
f 21/21/14 11/11/14 14/14/14
f 11/11/15 21/21/15 20/20/15
f 11/11/16 1/1/16 2/3/16
f 20/20/17 1/1/17 11/11/17
f 18/18/18 12/12/18 22/22/18
f 12/12/19 23/23/19 22/22/19
f 23/23/20 12/12/20 2/3/20
f 12/12/21 11/11/21 2/3/21
f 24/24/22 25/25/22 26/26/22
f 25/25/23 24/24/23 27/27/23
f 6/6/24 8/8/24 28/28/24
f 28/28/25 29/29/25 6/6/25
f 18/18/26 22/22/26 29/29/26
f 6/6/27 5/5/27 9/9/27
f 3/2/28 23/23/28 2/3/28
f 30/30/29 24/24/29 23/23/29
f 23/23/30 26/26/30 22/22/30
f 23/23/31 24/24/31 26/26/31
f 30/30/32 23/23/32 3/2/32
f 4/4/33 22/22/33 26/26/33
f 29/29/34 4/4/34 6/6/34
f 25/25/35 4/4/35 26/26/35
f 29/29/36 22/22/36 4/4/36
f 25/25/37 27/27/37 4/4/37
f 7/7/38 4/4/38 27/27/38
