# Blender v2.79 (sub 0) OBJ File: ''
# www.blender.org
mtllib crack_only_119.mtl
o crack_only_119
v 2.817695 1.404565 -3.308909
v 2.768469 1.246545 -3.614610
v 2.876540 1.992293 -3.669508
v 3.091711 2.923522 -2.523100
v 3.026672 2.734634 -1.988212
v 2.943255 2.246210 -2.381547
v 2.961186 2.507570 -1.680403
v 3.062215 3.058719 -1.701128
v 2.821529 1.681549 -1.942796
v 2.922576 2.251379 -2.064651
v 2.815989 1.947374 -1.560022
v 2.951130 2.801939 -5.010403
v 3.009085 3.040070 -4.844848
v 2.873571 2.541605 -4.882403
v 2.808995 1.359560 -2.204550
v 2.860694 1.754483 -2.452228
v 2.837246 1.370140 -2.889259
v 2.814705 1.172191 -2.656973
v 2.874305 2.303061 -1.372812
v 3.058016 3.585442 -4.774858
v 3.051813 3.356209 -4.877185
v 3.081543 3.449926 -5.068177
v 3.205844 4.156641 -1.681616
v 3.220417 4.561415 -1.346223
v 3.205796 4.099820 -1.315551
v 3.207915 4.646032 -1.731922
v 3.144714 3.317948 -2.775770
v 3.176065 3.757473 -2.291414
v 3.195114 3.960868 -2.691628
v 2.984973 2.688437 -1.259278
v 2.888481 1.769508 -2.839385
v 2.815153 1.161465 -2.788393
v 3.129223 3.857202 -4.253948
v 3.153856 3.855245 -3.863008
v 3.103503 3.439160 -4.128420
v 3.203922 4.227298 -2.029396
v 3.174211 3.757018 -2.019731
v 2.748593 1.459059 -4.014264
v 2.754308 1.765597 -4.343870
v 2.804307 1.617759 -1.824282
v 3.037780 2.957357 -1.412271
v 2.806467 1.141844 -3.172668
v 3.112903 3.143513 -3.379397
v 3.089644 3.055165 -3.571351
v 3.162688 3.524360 -3.412817
v 3.093442 3.150513 -3.709934
v 3.182388 3.722766 -2.942271
v 3.170804 3.817146 -3.579210
v 3.140743 3.546242 -3.749010
v 3.043141 3.148182 -4.387021
v 3.103748 3.574997 -4.434996
v 3.045452 3.213420 -4.508893
v 3.185503 3.995214 -3.444878
v 3.098403 3.294025 -3.916742
v 3.188273 3.925985 -3.333299
v 3.196855 4.146196 -3.074808
v 3.183046 4.298117 -3.763065
v 3.208000 4.433311 -2.852657
v 3.045720 3.291759 -4.686824
v 2.992581 2.925092 -5.060585
v 3.164615 4.233414 -4.096758
v 3.060270 3.154952 -5.072704
v 3.063658 2.951778 -3.742544
v 3.203569 4.302138 -2.318228
v 3.176103 3.817066 -1.459574
v 3.179557 3.832508 -1.652254
v 3.167878 3.724229 -1.539276
v 3.112015 3.415808 -1.268308
v 3.123343 3.464351 -1.446648
v 3.105299 3.303812 -1.612306
v 3.220384 4.531982 -2.237876
v 3.073120 3.850325 -4.834532
v 3.072977 3.807131 -4.973330
v 3.232819 4.758463 -1.373709
v 3.209472 4.737973 -1.645673
v 3.213744 4.661664 -1.916116
v 3.205097 4.364667 -3.201286
v 3.144761 3.473431 -2.131316
v 3.004964 3.022290 -4.632329
v 3.064303 2.829238 -3.163238
v 3.018695 2.912174 -4.149093
v 3.050134 2.795960 -3.465591
v 3.015273 2.746982 -3.854074
v 2.939566 2.584811 -4.310029
v 2.894620 2.298385 -4.148127
v 2.796567 2.132842 -4.642739
v 3.102137 4.016181 -4.604933
v 3.210748 4.489538 -2.480260
v 3.183600 3.737577 -3.086548
vt 0.108258 0.352808
vt 0.078778 0.269316
vt 0.305103 0.294130
vt 0.516254 0.624457
vt 0.425751 0.745850
vt 0.303325 0.623978
vt 0.337898 0.809524
vt 0.504694 0.832941
vt 0.106271 0.702422
vt 0.284741 0.701920
vt 0.160797 0.809729
vt 0.627658 0.005784
vt 0.689558 0.058923
vt 0.540596 0.023491
vt 0.027204 0.621878
vt 0.160229 0.581243
vt 0.073170 0.454403
vt 0.000000 0.501379
vt 0.255933 0.874070
vt 0.847279 0.103853
vt 0.785947 0.067185
vt 0.826213 0.025215
vt 0.831221 0.893986
vt 0.930187 0.996786
vt 0.792138 0.981107
vt 0.978198 0.906111
vt 0.649484 0.582583
vt 0.835061 0.635882
vt 0.750145 0.723887
vt 0.366141 0.922285
vt 0.189293 0.487111
vt 0.004898 0.468549
vt 0.897801 0.246128
vt 0.874189 0.342338
vt 0.766362 0.255834
vt 0.873183 0.812032
vt 0.733336 0.790614
vt 0.164971 0.181536
vt 0.275414 0.115914
vt 0.079672 0.728195
vt 0.456385 0.898631
vt 0.022322 0.373049
vt 0.634008 0.425217
vt 0.618962 0.373406
vt 0.749729 0.436515
vt 0.655591 0.344152
vt 0.779962 0.562260
vt 0.846236 0.410339
vt 0.775944 0.354781
vt 0.694536 0.177163
vt 0.825037 0.187285
vt 0.721241 0.150496
vt 0.890872 0.452393
vt 0.710587 0.300550
vt 0.863801 0.476379
vt 0.913017 0.550995
vt 0.999261 0.389318
vt 0.984207 0.620050
vt 0.755153 0.110688
vt 0.668377 0.000000
vt 1.000000 0.303903
vt 0.739051 0.009153
vt 0.598131 0.325920
vt 0.912825 0.744789
vt 0.716801 0.931295
vt 0.733241 0.884748
vt 0.694101 0.906989
vt 0.584927 0.957633
vt 0.610496 0.916339
vt 0.572809 0.867431
vt 0.976053 0.776186
vt 0.929306 0.102573
vt 0.925093 0.066302
vt 0.990214 1.000000
vt 1.000000 0.931919
vt 0.994259 0.861681
vt 0.985246 0.530914
vt 0.655779 0.748735
vt 0.671194 0.110223
vt 0.526720 0.462167
vt 0.609769 0.223604
vt 0.534929 0.386065
vt 0.543061 0.287815
vt 0.520618 0.166939
vt 0.424960 0.191982
vt 0.403104 0.061226
vt 0.965032 0.167565
vt 0.978059 0.714406
vt 0.793179 0.527555
vn 0.9855 -0.1488 -0.0818
vn 0.9777 -0.2046 0.0467
vn 0.9811 -0.1769 0.0782
vn 0.9818 -0.1489 0.1176
vn 0.9632 -0.2652 0.0443
vn 0.9805 -0.1456 0.1322
vn 0.9919 -0.1270 0.0045
vn 0.9970 -0.0665 0.0401
vn 0.9720 -0.1722 0.1601
vn 0.9902 -0.0784 0.1157
vn 0.9667 -0.2239 0.1242
vn 0.9995 -0.0320 -0.0048
vn 0.9994 -0.0077 -0.0341
vn 0.9968 -0.0791 0.0073
vn 0.9638 -0.2618 -0.0509
vn 0.9904 -0.1292 -0.0489
vn 0.9949 -0.0998 0.0115
vn 0.9948 -0.0801 -0.0631
vn 0.9978 -0.0634 -0.0184
vn 0.9801 -0.1537 -0.1260
vn 0.9906 -0.1051 0.0874
vn 0.9831 -0.1821 0.0193
vn 0.9892 -0.0985 -0.1084
vn 0.9904 -0.1082 0.0857
vn 0.9892 -0.1344 -0.0580
vn 0.9891 -0.1324 -0.0640
vn 0.9963 -0.0816 0.0270
vn 0.9953 -0.0670 -0.0693
vn 0.9870 -0.1474 -0.0645
vn 0.9873 -0.1469 -0.0599
vn 0.9974 -0.0340 -0.0641
vn 0.9902 -0.1251 -0.0619
vn 0.9954 -0.0675 -0.0685
vn 0.9945 -0.0708 -0.0776
vn 0.9996 -0.0057 -0.0283
vn 0.9996 -0.0169 -0.0238
vn 0.9995 -0.0308 -0.0103
vn 0.9969 -0.0527 -0.0578
vn 0.9874 -0.0819 -0.1354
vn 0.9992 -0.0359 0.0198
vn 0.9541 -0.2883 0.0806
vn 0.9975 -0.0558 -0.0443
vn 0.9957 -0.0673 -0.0631
vn 0.9903 -0.0732 0.1182
vn 0.9883 -0.1371 -0.0672
vn 0.9978 -0.0634 -0.0176
vn 1.0000 -0.0049 -0.0065
vn 0.9952 -0.0969 -0.0149
vn 0.9967 -0.0806 0.0021
vn 0.9967 -0.0798 0.0115
vn 0.9952 -0.0968 0.0101
vn 0.9949 -0.1008 0.0062
vn 0.9987 -0.0501 0.0067
vn 0.9800 -0.1159 0.1617
vn 0.9576 -0.2781 0.0749
vn 0.9985 -0.0493 0.0225
vn 0.9897 -0.1319 0.0549
vn 0.9897 -0.1329 0.0527
vn 0.9865 -0.1625 0.0184
vn 0.9871 -0.1542 0.0419
vn 0.9970 -0.0705 -0.0304
vn 0.9976 -0.0665 -0.0185
vn 0.9985 -0.0534 0.0156
vn 0.9965 -0.0693 -0.0475
vn 0.9936 0.0680 -0.0904
vn 0.9987 -0.0431 0.0279
vn 0.9979 -0.0564 -0.0325
vn 0.9944 -0.1059 0.0066
vn 0.9841 -0.1639 -0.0691
vn 0.9951 -0.0966 0.0232
vn 0.9763 -0.2161 -0.0100
vn 0.9862 -0.1566 -0.0540
vn 0.9834 -0.1688 -0.0664
vn 0.9850 -0.1674 -0.0423
vn 0.9844 -0.1693 -0.0472
vn 0.9787 -0.1954 -0.0632
vn 0.9784 -0.2054 -0.0232
vn 0.9685 -0.2191 -0.1187
vn 0.9751 -0.2018 -0.0922
vn 0.9771 -0.1976 -0.0784
vn 0.9753 -0.1973 -0.0992
vn 0.9784 -0.1969 -0.0630
vn 0.9770 -0.2001 -0.0734
vn 0.9680 -0.2255 -0.1097
vn 0.9711 -0.2267 -0.0746
vn 0.9650 -0.2621 -0.0032
vn 0.9947 -0.0731 -0.0729
vn 0.9953 -0.0314 -0.0911
vn 0.9897 -0.0483 -0.1347
vn 0.9905 -0.1319 0.0388
vn 0.9938 -0.0875 0.0679
vn 0.9995 -0.0323 0.0069
vn 0.9996 -0.0283 -0.0031
vn 0.9924 -0.1176 0.0370
vn 0.9890 -0.1477 0.0030
vn 0.9993 -0.0382 -0.0008
vn 0.9936 -0.0517 -0.1001
vn 0.9890 -0.1462 -0.0208
vn 0.9868 -0.1572 0.0378
vn 0.9834 -0.1801 0.0200
vn 0.9837 -0.1789 0.0163
vn 0.9936 -0.1001 0.0521
vn 0.9847 -0.1630 0.0622
vn 0.9791 -0.1820 -0.0906
vn 0.9844 -0.1552 -0.0827
vn 0.9844 -0.1546 -0.0837
vn 0.9866 -0.1321 -0.0962
vn 0.9827 -0.1742 0.0638
vn 0.9824 -0.1746 0.0670
vn 0.9876 -0.1517 0.0398
vn 0.9813 -0.1820 -0.0630
vn 0.9976 -0.0630 -0.0286
vn 0.9957 -0.0932 -0.0012
vn 0.9956 -0.0940 -0.0024
vn 0.9991 -0.0302 0.0291
vn 0.9990 -0.0312 0.0332
vn 0.9693 -0.2381 0.0613
vn 0.9749 -0.2174 0.0470
vn 0.9841 -0.1631 -0.0703
vn 0.9889 -0.1482 0.0068
vn 0.9872 -0.1463 -0.0629
vn 0.9907 -0.1353 -0.0141
vn 0.9800 -0.1515 -0.1293
vn 0.9846 -0.1709 0.0364
vn 0.9844 -0.1715 0.0384
vn 0.9902 -0.1376 0.0255
vn 0.9706 -0.2179 -0.1027
vn 0.9699 -0.2107 -0.1218
vn 0.9980 -0.0585 -0.0257
vn 0.9984 -0.0561 0.0026
vn 0.9995 -0.0323 -0.0057
vn 0.9994 -0.0321 -0.0110
vn 0.9731 -0.2202 0.0671
vn 0.9902 -0.1245 -0.0627
vn 0.9894 -0.1254 -0.0728
vn 0.9969 0.0030 0.0786
vn 0.9977 -0.0434 -0.0517
vn 0.9974 -0.0543 -0.0468
vn 0.9912 -0.1202 -0.0560
vn 0.9962 -0.0696 -0.0521
vn 0.9849 -0.1711 -0.0273
vn 0.9875 -0.1573 -0.0066
vn 0.9913 -0.1309 -0.0144
vn 0.9934 -0.1132 -0.0167
usemtl None
s off
f 1/1/1 2/2/1 3/3/1
f 4/4/2 5/5/2 6/6/2
f 7/7/3 5/5/3 8/8/3
f 9/9/4 10/10/4 11/11/4
f 12/12/5 13/13/5 14/14/5
f 10/10/6 9/9/6 15/15/6
f 10/10/7 15/15/7 16/16/7
f 17/17/8 15/15/8 18/18/8
f 8/8/9 19/19/9 7/7/9
f 20/20/10 21/21/10 22/22/10
f 7/7/11 19/19/11 11/11/11
f 23/23/12 24/24/12 25/25/12
f 26/26/13 24/24/13 23/23/13
f 27/27/14 29/28/14 28/29/14
f 8/8/15 30/30/15 19/19/15
f 1/1/16 3/3/16 31/31/16
f 17/17/17 18/18/17 32/32/17
f 33/33/18 34/34/18 35/35/18
f 36/36/19 23/23/19 37/37/19
f 38/38/20 39/39/20 3/3/20
f 9/9/21 11/11/21 40/40/21
f 41/41/22 30/30/22 8/8/22
f 1/1/23 42/42/23 2/2/23
f 40/40/24 15/15/24 9/9/24
f 43/43/25 44/44/25 45/45/25
f 46/46/26 45/45/26 44/44/26
f 47/47/27 29/28/27 27/27/27
f 48/48/28 45/45/28 49/49/28
f 50/50/29 51/51/29 35/35/29
f 50/50/30 52/52/30 51/51/30
f 53/53/31 48/48/31 34/34/31
f 49/49/32 54/54/32 35/35/32
f 49/49/33 34/34/33 48/48/33
f 49/49/34 35/35/34 34/34/34
f 55/55/35 53/53/35 56/56/35
f 53/53/36 57/57/36 56/56/36
f 58/58/37 29/28/37 56/56/37
f 53/53/38 34/34/38 57/57/38
f 59/59/39 20/20/39 51/51/39
f 59/59/40 21/21/40 20/20/40
f 60/60/41 13/13/41 12/12/41
f 61/61/42 57/57/42 34/34/42
f 61/61/43 34/34/43 33/33/43
f 62/62/44 22/22/44 21/21/44
f 46/46/45 44/44/45 63/63/45
f 36/36/46 37/37/46 64/64/46
f 26/26/47 23/23/47 36/36/47
f 65/65/48 23/23/48 25/25/48
f 66/66/49 37/37/49 23/23/49
f 66/66/50 23/23/50 65/65/50
f 66/66/51 65/65/51 67/67/51
f 67/67/52 37/37/52 66/66/52
f 28/29/53 64/64/53 37/37/53
f 62/62/54 21/21/54 13/13/54
f 62/62/55 13/13/55 60/60/55
f 28/29/56 29/28/56 64/64/56
f 65/65/57 25/25/57 68/68/57
f 65/65/58 68/68/58 67/67/58
f 67/67/59 68/68/59 69/69/59
f 67/67/60 69/69/60 70/70/60
f 51/51/61 33/33/61 35/35/61
f 71/71/62 36/36/62 64/64/62
f 72/72/63 20/20/63 73/73/63
f 74/74/64 24/24/64 26/26/64
f 74/74/65 26/26/65 75/75/65
f 26/26/66 76/76/66 75/75/66
f 77/77/67 56/56/67 57/57/67
f 78/78/68 28/29/68 37/37/68
f 52/52/69 50/50/69 79/79/69
f 78/78/70 27/27/70 28/29/70
f 4/4/71 6/6/71 80/80/71
f 50/50/72 35/35/72 81/81/72
f 81/81/73 79/79/73 50/50/73
f 44/44/74 43/43/74 82/82/74
f 44/44/75 82/82/75 63/63/75
f 83/83/76 82/82/76 3/3/76
f 80/80/77 3/3/77 82/82/77
f 84/84/78 85/85/78 86/86/78
f 83/83/79 3/3/79 85/85/79
f 85/85/80 84/84/80 81/81/80
f 85/85/81 81/81/81 83/83/81
f 83/83/82 63/63/82 82/82/82
f 84/84/83 79/79/83 81/81/83
f 84/84/84 86/86/84 79/79/84
f 79/79/85 86/86/85 14/14/85
f 79/79/86 14/14/86 13/13/86
f 72/72/87 87/87/87 20/20/87
f 33/33/88 51/51/88 87/87/88
f 20/20/89 87/87/89 51/51/89
f 17/17/90 31/31/90 15/15/90
f 31/31/91 16/16/91 15/15/91
f 88/88/92 64/64/92 29/28/92
f 58/58/93 88/88/93 29/28/93
f 78/78/94 37/37/94 70/70/94
f 67/67/95 70/70/95 37/37/95
f 77/77/96 58/58/96 56/56/96
f 61/61/97 33/33/97 87/87/97
f 4/4/98 80/80/98 27/27/98
f 8/8/99 27/27/99 78/78/99
f 70/70/100 41/41/100 8/8/100
f 78/78/101 70/70/101 8/8/101
f 8/8/102 4/4/102 27/27/102
f 4/4/103 8/8/103 5/5/103
f 83/83/104 81/81/104 63/63/104
f 81/81/105 35/35/105 54/54/105
f 81/81/106 54/54/106 46/46/106
f 63/63/107 81/81/107 46/46/107
f 6/6/108 16/16/108 31/31/108
f 6/6/109 10/10/109 16/16/109
f 6/6/110 31/31/110 80/80/110
f 31/31/111 3/3/111 80/80/111
f 64/64/112 88/88/112 71/71/112
f 89/89/113 47/47/113 27/27/113
f 89/89/114 27/27/114 45/45/114
f 76/76/115 26/26/115 36/36/115
f 71/71/116 76/76/116 36/36/116
f 10/10/117 7/7/117 11/11/117
f 10/10/118 5/5/118 7/7/118
f 59/59/119 52/52/119 79/79/119
f 79/79/120 13/13/120 59/59/120
f 59/59/121 51/51/121 52/52/121
f 59/59/122 13/13/122 21/21/122
f 2/2/123 38/38/123 3/3/123
f 70/70/124 68/68/124 41/41/124
f 41/41/125 68/68/125 30/30/125
f 69/69/126 68/68/126 70/70/126
f 85/85/127 3/3/127 39/39/127
f 85/85/128 39/39/128 86/86/128
f 89/89/129 45/45/129 55/55/129
f 47/47/130 89/89/130 29/28/130
f 55/55/131 56/56/131 89/89/131
f 89/89/132 56/56/132 29/28/132
f 10/10/133 6/6/133 5/5/133
f 49/49/134 46/46/134 54/54/134
f 46/46/135 49/49/135 45/45/135
f 20/20/136 22/22/136 73/73/136
f 55/55/137 48/48/137 53/53/137
f 48/48/138 55/55/138 45/45/138
f 1/1/139 31/31/139 17/17/139
f 42/42/140 1/1/140 17/17/140
f 80/80/141 82/82/141 43/43/141
f 80/80/142 43/43/142 27/27/142
f 43/43/143 45/45/143 27/27/143
f 17/17/144 32/32/144 42/42/144
