# Blender v2.79 (sub 0) OBJ File: ''
# www.blender.org
mtllib crack_only_195.mtl
o crack_only_195
v 3.138206 4.928310 -2.467285
v 2.909758 5.905077 -2.124077
v 3.048944 5.655230 -2.899985
v 2.770467 1.764071 -4.354065
v 2.834248 2.144166 -4.198634
v 2.865019 1.996515 -3.671197
v 2.802980 2.127702 -4.643460
v 3.134992 4.998785 -1.396203
v 3.111113 4.188932 -2.019358
v 3.126525 4.570797 -3.983186
v 3.151872 5.323465 -4.388247
v 3.133357 5.466833 -3.634709
v 3.125965 4.411705 -4.766985
v 2.765247 1.171697 -3.288426
v 2.788052 1.391176 -3.321853
v 2.823933 1.591588 -2.769290
v 2.751700 1.274334 -3.652083
v 2.841238 6.275620 -2.779574
v 3.039793 6.083905 -3.137815
v 2.918251 2.457478 -2.193974
v 2.987416 2.918579 -2.496636
v 2.964775 2.797020 -2.083874
v 2.861030 2.082329 -1.918798
v 2.856267 2.003124 -2.254315
v 2.952661 2.881402 -4.552742
v 2.558206 6.177411 -1.498760
v 2.552720 6.457706 -1.872914
v 2.988052 3.149695 -4.476570
v 2.963005 2.937662 -4.674006
v 3.015674 3.324795 -4.694367
v 2.744492 5.787900 -1.413284
v 2.666019 5.961258 -1.443065
v 2.917963 2.507894 -1.686856
v 2.828259 1.942044 -1.561841
v 3.101992 3.923976 -1.332153
v 3.065188 3.541632 -1.659152
v 3.058389 3.743673 -4.204443
v 3.068122 3.788744 -3.894181
v 3.018389 3.350913 -4.116875
v 2.791668 6.524493 -3.098958
v 2.144198 7.004846 -2.253500
v 1.935506 7.053283 -1.829278
v 2.342421 6.809431 -2.202698
v 3.023098 3.370004 -3.842376
v 3.087175 3.925620 -3.459111
v 3.115037 4.219144 -2.757049
v 1.769936 7.215512 -1.997621
v 3.025316 3.211329 -2.177794
v 3.032201 3.306742 -2.564124
v 3.095807 3.946410 -2.491422
v 3.103196 5.914195 -3.987018
v 3.096622 5.883911 -4.326283
v 2.954127 2.732047 -3.423013
v 2.933818 2.544505 -3.188856
v 2.976558 2.856719 -2.918535
v 2.565568 6.565066 -2.231455
v 2.758213 6.358836 -2.397505
v 3.094356 5.922847 -3.507964
v 2.788779 1.178212 -2.652493
v 2.802416 1.360253 -2.204417
v 3.053101 3.577550 -3.414886
v 2.995235 3.071371 -3.370653
v 2.920176 2.585310 -3.773427
v 2.878572 2.301240 -1.371905
v 3.055725 3.457700 -1.939322
v 2.316812 6.693983 -1.743905
v 3.026396 6.401955 -3.815149
v 3.074155 3.727232 -3.025933
v 2.784700 1.166604 -2.807023
v 2.288143 6.639120 -1.551402
v 2.886112 2.527179 -4.885301
v 3.020571 3.164372 -5.064526
v 3.116261 4.118519 -1.336347
v 3.041417 3.216961 -1.264305
v 2.749985 1.458858 -4.015242
v 2.772905 1.142221 -3.106203
v 2.817045 1.684023 -1.946165
v 2.805699 1.617527 -1.824197
v 2.978644 6.563045 -4.278375
v 2.783304 6.969574 -3.910769
v 3.033898 6.311807 -4.276088
v 2.964521 6.309059 -3.392287
v 2.586835 6.706665 -2.741007
v 2.903026 6.455316 -3.401251
v 2.756535 6.742868 -3.454947
v 2.643333 6.921217 -3.452331
v 2.563643 6.825657 -2.927697
v 2.673983 6.632292 -2.889098
v 2.641680 6.800621 -3.148798
v 2.442134 7.224730 -3.685894
v 2.477283 7.312451 -3.963579
v 2.911879 6.782923 -4.282744
v 2.805614 7.030036 -4.285917
v 2.483346 7.346210 -4.278365
v 2.345958 7.339131 -3.721244
v 2.219948 6.810304 -1.826149
v 2.093710 7.174627 -2.673855
v 1.970256 7.195173 -2.436745
v 1.886428 7.308595 -2.670511
v 2.390496 7.221629 -3.528322
v 2.529400 6.995728 -3.189452
v 2.189771 7.215920 -3.086446
v 2.277409 7.016032 -2.657251
v 2.410702 6.872906 -2.641507
v 2.395141 6.957218 -2.777748
v 2.211344 7.316231 -3.370433
v 2.249835 7.421767 -3.727199
v 2.176694 7.507181 -3.981787
v 2.178618 7.549366 -4.182269
v 2.186119 6.824352 -1.634391
v 2.572160 6.651687 -2.534125
v 2.013433 7.338502 -3.069470
v 2.138856 7.396834 -3.437410
v 2.161569 7.460922 -3.661528
v 2.163085 7.494296 -3.843830
v 2.986068 3.090185 -4.049478
v 3.047573 3.614637 -4.588927
v 3.018753 3.157564 -1.708595
v 1.830148 7.256179 -2.296413
v 1.679344 7.320541 -2.135809
v 2.970213 2.690387 -1.262452
v 3.067041 3.699606 -5.011723
vt 0.374599 0.607419
vt 0.505401 0.715952
vt 0.309535 0.768928
vt 0.773958 0.078140
vt 0.744658 0.140445
vt 0.604318 0.125472
vt 0.859146 0.130792
vt 0.238227 0.497847
vt 0.098891 0.636005
vt 0.757659 0.526263
vt 0.883261 0.638645
vt 0.691649 0.673694
vt 0.956478 0.488345
vt 0.481719 0.001747
vt 0.496568 0.035804
vt 0.359183 0.076293
vt 0.578588 0.012158
vt 0.488671 0.817317
vt 0.578524 0.779982
vt 0.234538 0.222126
vt 0.326205 0.289771
vt 0.215699 0.277378
vt 0.152450 0.167566
vt 0.237207 0.149605
vt 0.857668 0.250665
vt 0.150956 0.824266
vt 0.255437 0.862575
vt 0.845572 0.294154
vt 0.890730 0.257536
vt 0.907054 0.318162
vt 0.120334 0.762914
vt 0.131871 0.790328
vt 0.104475 0.238351
vt 0.055787 0.151362
vt 0.052871 0.467142
vt 0.126871 0.401533
vt 0.791885 0.392167
vt 0.712805 0.404287
vt 0.758130 0.331668
vt 0.577621 0.851803
vt 0.364342 0.945385
vt 0.253405 0.961178
vt 0.348086 0.914116
vt 0.687560 0.339125
vt 0.603965 0.432910
vt 0.430265 0.490612
vt 0.299587 0.985091
vt 0.251909 0.341062
vt 0.354684 0.349841
vt 0.353840 0.451882
vt 0.794713 0.738943
vt 0.881744 0.728674
vt 0.560870 0.245386
vt 0.433751 0.273186
vt 0.494892 0.219633
vt 0.351400 0.873661
vt 0.390987 0.837188
vt 0.670699 0.748153
vt 0.317350 0.012979
vt 0.206300 0.048993
vt 0.582717 0.378744
vt 0.556929 0.299697
vt 0.647340 0.216667
vt 0.016831 0.210999
vt 0.197105 0.383751
vt 0.225783 0.903456
vt 0.762509 0.819383
vt 0.486197 0.408632
vt 0.357038 0.008653
vt 0.174094 0.898072
vt 0.933540 0.189591
vt 0.998701 0.286727
vt 0.059375 0.497778
vt 0.015503 0.356710
vt 0.677672 0.035467
vt 0.433783 0.000000
vt 0.148288 0.104345
vt 0.114756 0.095871
vt 0.886384 0.837627
vt 0.799947 0.909092
vt 0.879610 0.797578
vt 0.649726 0.811921
vt 0.487516 0.887660
vt 0.655323 0.835284
vt 0.675393 0.880782
vt 0.678285 0.909717
vt 0.538858 0.903594
vt 0.524848 0.872969
vt 0.596344 0.895577
vt 0.744795 0.955140
vt 0.819519 0.964301
vt 0.892722 0.872748
vt 0.899050 0.912430
vt 0.902077 0.964490
vt 0.755985 0.973237
vt 0.249170 0.921098
vt 0.477312 0.965718
vt 0.477775 0.988196
vt 0.415054 0.973552
vt 0.703304 0.957515
vt 0.586416 0.964979
vt 0.610913 0.926455
vt 0.470752 0.939806
vt 0.464277 0.916625
vt 0.501692 0.927845
vt 0.662963 0.976110
vt 0.758699 0.986785
vt 0.826178 0.996594
vt 0.879296 1.000000
vt 0.199481 0.926639
vt 0.432253 0.882410
vt 0.583380 0.985694
vt 0.681698 0.988204
vt 0.741763 0.994569
vt 0.789927 0.996878
vt 0.733258 0.291692
vt 0.887918 0.365558
vt 0.128787 0.340220
vt 0.378786 0.986314
vt 0.337236 1.000000
vt 0.000000 0.273825
vt 1.000000 0.372017
vn 0.9755 0.1879 0.1145
vn 0.9874 -0.1275 -0.0933
vn 0.9881 -0.1395 -0.0643
vn 0.9994 -0.0335 0.0052
vn 0.9994 -0.0185 0.0281
vn 0.9995 -0.0307 0.0055
vn 0.9727 0.2318 -0.0123
vn 0.9939 -0.1072 -0.0257
vn 0.9863 -0.1562 -0.0533
vn 0.8982 0.2278 0.3760
vn 0.9901 -0.1399 0.0131
vn 0.9903 -0.1375 0.0184
vn 0.9804 -0.1872 -0.0620
vn 0.8576 0.4176 0.3003
vn 0.9908 -0.1339 0.0180
vn 0.8585 0.4352 0.2713
vn 0.9882 -0.1496 0.0319
vn 0.9966 -0.0806 -0.0179
vn 0.9944 -0.1048 -0.0160
vn 0.8569 0.4625 0.2274
vn 0.6504 0.7215 0.2376
vn 0.9941 -0.1081 -0.0095
vn 0.9975 -0.0694 -0.0106
vn 0.5787 0.7921 0.1942
vn 0.9951 -0.0982 -0.0065
vn 0.9945 0.1012 -0.0283
vn 0.9971 0.0752 0.0102
vn 0.9922 -0.1242 -0.0134
vn 0.8613 0.4775 0.1738
vn 0.8082 0.4776 0.3446
vn 0.9905 0.0823 0.1102
vn 0.9934 0.0573 0.0994
vn 0.9965 -0.0837 0.0037
vn 0.9933 -0.1148 -0.0140
vn 0.9933 -0.1023 -0.0534
vn 0.9185 0.3775 0.1174
vn 0.9499 0.3040 0.0725
vn 0.9900 -0.1404 0.0145
vn 0.9882 -0.1513 0.0243
vn 0.9929 -0.1180 -0.0150
vn 0.9972 -0.0749 0.0061
vn 0.7473 0.6287 0.2150
vn 0.7348 0.6470 0.2038
vn 0.9930 -0.1179 -0.0077
vn 0.9885 0.1502 0.0155
vn 0.9935 -0.1129 -0.0126
vn 0.9969 -0.0767 -0.0195
vn 0.9934 -0.1144 -0.0097
vn 0.9907 -0.1349 -0.0154
vn 0.9970 -0.0767 -0.0107
vn 0.9957 -0.0902 -0.0195
vn 0.7854 0.5009 0.3637
vn 0.9930 -0.1176 -0.0081
vn 0.9968 -0.0767 -0.0201
vn 0.9948 -0.1001 -0.0212
vn 0.9797 -0.1985 0.0292
vn 0.9889 -0.1309 0.0698
vn 0.9944 -0.1037 -0.0196
vn 0.9972 -0.0735 -0.0151
vn 0.9962 -0.0864 -0.0111
vn 0.9997 -0.0219 -0.0098
vn 0.9840 -0.1577 -0.0826
vn 0.9955 -0.0891 -0.0320
vn 0.9943 -0.0999 0.0380
vn 0.9830 -0.1835 -0.0013
vn 0.9915 -0.1302 -0.0064
vn 0.9959 -0.0729 -0.0536
vn 0.8603 0.4316 0.2712
vn 0.9949 -0.0994 -0.0156
vn 0.9902 -0.1080 -0.0880
vn 0.9911 -0.1135 -0.0690
vn 0.9805 -0.1963 0.0128
vn 0.8359 0.4837 0.2593
vn 0.9966 0.0805 0.0169
vn 0.9954 -0.0828 0.0474
vn 0.9156 0.3996 0.0446
vn 0.9884 0.1487 -0.0324
vn 0.9869 0.1608 -0.0154
vn 0.8658 0.4732 0.1626
vn 0.9480 0.3183 0.0012
vn 0.8616 0.5015 0.0780
vn 0.8951 0.3896 0.2166
vn 0.8557 0.4745 0.2066
vn 0.8588 0.4739 0.1949
vn 0.8074 0.5081 0.3001
vn 0.8715 0.4168 0.2585
vn 0.8258 0.5165 0.2266
vn 0.8409 0.4959 0.2168
vn 0.8421 0.4739 0.2575
vn 0.8503 0.4709 0.2350
vn 0.6895 0.6610 0.2961
vn 0.9402 0.2891 0.1799
vn 0.6986 0.7099 0.0896
vn 0.9117 0.3936 0.1177
vn 0.7258 0.6711 0.1513
vn 0.8898 0.3888 0.2388
vn 0.6837 0.6666 0.2971
vn 0.6345 0.7454 0.2046
vn 0.5334 0.8202 0.2067
vn 0.5803 0.7671 0.2735
vn 0.6180 0.7428 0.2574
vn 0.6952 0.6747 0.2480
vn 0.6048 0.7652 0.2207
vn 0.6259 0.7481 0.2206
vn 0.6117 0.7575 0.2279
vn 0.6715 0.6620 0.3330
vn 0.5335 0.8203 0.2063
vn 0.6382 0.7094 0.2991
vn 0.7039 0.6671 0.2438
vn 0.6100 0.7315 0.3047
vn 0.6212 0.7410 0.2551
vn 0.5367 0.8378 0.1002
vn 0.9458 0.2594 0.1954
vn 0.5835 0.7936 0.1726
vn 0.7371 0.6710 0.0809
vn 0.6480 0.7594 0.0587
vn 0.7768 0.5927 0.2126
vn 0.7847 0.5555 0.2752
vn 0.7515 0.5964 0.2819
vn 0.7350 0.6475 0.2013
vn 0.6697 0.7105 0.2162
vn 0.9764 0.2145 -0.0261
vn 0.7881 0.5871 0.1852
vn 0.5696 0.7861 0.2402
vn 0.5620 0.7656 0.3131
vn 0.5622 0.7655 0.3130
vn 0.4974 0.8526 0.1602
vn 0.9994 -0.0343 0.0039
vn 0.9918 -0.1273 -0.0124
vn 0.9919 -0.1264 -0.0134
vn 0.9874 -0.1585 0.0002
vn 0.9904 -0.1366 0.0211
vn 0.7387 0.6063 0.2947
vn 0.7366 0.6095 0.2930
vn 0.7328 0.6430 0.2228
vn 0.7394 0.6405 0.2077
vn 0.6594 0.7227 0.2071
vn 0.9954 -0.0938 0.0183
vn 0.9925 -0.1224 -0.0001
vn 0.9965 -0.0835 -0.0086
vn 0.9889 -0.1456 -0.0310
vn 0.9995 -0.0327 -0.0000
vn 0.9900 -0.0575 0.1285
vn 0.9942 0.1031 -0.0320
vn 0.9977 -0.0679 0.0025
vn 0.9951 -0.0990 0.0003
vn 0.9967 -0.0810 -0.0071
vn 0.9970 -0.0773 -0.0072
vn 0.5502 0.8116 0.1965
vn 0.5900 0.7756 0.2245
vn 0.5845 0.7727 0.2477
vn 0.5335 0.8357 0.1307
vn 0.5322 0.8374 0.1249
vn 0.5546 0.8085 0.1967
vn 0.5737 0.7881 0.2229
vn 0.9875 -0.1519 -0.0420
vn 0.9885 -0.1476 -0.0340
vn 0.9929 -0.1177 -0.0167
vn 0.9928 -0.1190 -0.0167
vn 0.9921 -0.1251 -0.0083
vn 0.9746 -0.2227 -0.0242
vn 0.9898 -0.1415 0.0136
vn 0.9882 -0.1534 -0.0038
vn 0.9876 -0.1542 -0.0298
vn 0.9889 -0.1339 -0.0642
vn 0.9898 -0.1418 0.0125
vn 0.9931 -0.1165 -0.0111
vn 0.9932 -0.1161 -0.0085
vn 0.9966 -0.0820 -0.0005
vn 0.9915 -0.1296 -0.0111
vn 0.9923 -0.1199 0.0294
vn 0.9950 -0.1001 0.0056
vn 0.8218 0.5182 0.2368
vn 0.8450 0.4954 0.2014
vn 0.8275 0.5202 0.2112
vn 0.5796 0.7719 0.2612
vn 0.7378 0.6061 0.2973
vn 0.8255 0.5165 0.2276
vn 0.8202 0.5212 0.2358
vn 0.9883 -0.1348 0.0715
vn 0.9956 -0.0892 0.0279
vn 0.9954 -0.0918 0.0274
vn 0.5557 0.7828 0.2802
vn 0.6156 0.7293 0.2985
vn 0.6119 0.7526 0.2434
vn 0.9953 -0.0912 0.0322
vn 0.9958 -0.0800 0.0439
vn 0.9965 -0.0832 0.0039
vn 0.9858 -0.1661 0.0252
vn 0.9942 -0.1051 0.0216
vn 0.9904 -0.1374 0.0170
vn 0.9899 -0.1418 -0.0000
vn 0.9841 -0.1566 -0.0842
vn 0.7411 0.6578 0.1347
vn 0.6975 0.6585 0.2824
vn 0.6768 0.6974 0.2355
usemtl None
s off
f 1/1/1 3/2/1 2/3/1
f 4/4/2 5/5/2 6/6/2
f 4/4/3 7/7/3 5/5/3
f 9/8/4 1/1/4 8/9/4
f 10/10/5 11/11/5 12/12/5
f 13/13/6 11/11/6 10/10/6
f 2/3/7 8/9/7 1/1/7
f 14/14/8 15/15/8 16/16/8
f 15/15/9 17/17/9 6/6/9
f 18/18/10 3/2/10 19/19/10
f 20/20/11 21/21/11 22/22/11
f 23/23/12 24/24/12 20/20/12
f 25/25/13 5/5/13 7/7/13
f 26/26/14 2/3/14 27/27/14
f 28/28/15 29/29/15 30/30/15
f 31/31/16 2/3/16 32/32/16
f 23/23/17 33/33/17 34/34/17
f 35/35/18 36/36/18 9/8/18
f 37/37/19 38/38/19 39/39/19
f 40/40/20 18/18/20 19/19/20
f 41/41/21 42/42/21 43/43/21
f 44/44/22 38/38/22 45/45/22
f 44/44/22 39/39/22 38/38/22
f 45/45/23 10/10/23 46/46/23
f 41/41/24 47/47/24 42/42/24
f 48/48/25 49/49/25 50/50/25
f 51/51/26 11/11/26 52/52/26
f 51/51/27 12/12/27 11/11/27
f 53/53/28 55/54/28 54/55/28
f 2/3/29 56/56/29 27/27/29
f 56/56/30 2/3/30 57/57/30
f 19/19/31 3/2/31 58/58/31
f 58/58/32 3/2/32 12/12/32
f 59/59/33 16/16/33 60/60/33
f 44/44/34 61/61/34 62/62/34
f 63/63/35 53/53/35 6/6/35
f 18/18/36 57/57/36 2/3/36
f 18/18/37 2/3/37 3/2/37
f 23/23/38 22/22/38 33/33/38
f 23/23/38 20/20/38 22/22/38
f 33/33/39 64/64/39 34/34/39
f 53/53/40 62/62/40 55/54/40
f 50/50/41 9/8/41 65/65/41
f 27/27/42 56/56/42 66/66/42
f 43/43/43 66/66/43 56/56/43
f 54/55/44 16/16/44 6/6/44
f 67/67/45 58/58/45 51/51/45
f 68/68/46 49/49/46 55/54/46
f 68/68/46 55/54/46 62/62/46
f 38/38/47 10/10/47 45/45/47
f 68/68/48 62/62/48 61/61/48
f 15/15/49 6/6/49 16/16/49
f 65/65/50 9/8/50 36/36/50
f 69/69/51 16/16/51 59/59/51
f 70/70/52 26/26/52 27/27/52
f 54/55/53 6/6/53 53/53/53
f 38/38/54 37/37/54 10/10/54
f 44/44/55 45/45/55 61/61/55
f 29/29/56 71/71/56 72/72/56
f 30/30/57 29/29/57 72/72/57
f 50/50/58 65/65/58 48/48/58
f 35/35/59 9/8/59 73/73/59
f 36/36/60 35/35/60 74/74/60
f 73/73/61 9/8/61 8/9/61
f 75/75/62 4/4/62 6/6/62
f 69/69/63 76/76/63 16/16/63
f 77/77/64 34/34/64 78/78/64
f 25/25/65 71/71/65 29/29/65
f 21/21/66 54/55/66 55/54/66
f 14/14/67 16/16/67 76/76/67
f 31/31/68 8/9/68 2/3/68
f 68/68/69 61/61/69 45/45/69
f 63/63/70 6/6/70 5/5/70
f 15/15/71 14/14/71 17/17/71
f 25/25/72 7/7/72 71/71/72
f 32/32/73 2/3/73 26/26/73
f 58/58/74 12/12/74 51/51/74
f 78/78/75 60/60/75 77/77/75
f 79/79/76 80/80/76 67/67/76
f 81/81/77 51/51/77 52/52/77
f 81/81/78 67/67/78 51/51/78
f 82/82/79 40/40/79 19/19/79
f 82/82/80 19/19/80 58/58/80
f 83/83/81 57/57/81 18/18/81
f 82/82/82 67/67/82 84/84/82
f 84/84/83 85/85/83 40/40/83
f 85/85/84 84/84/84 67/67/84
f 85/85/85 80/80/85 86/86/85
f 85/85/86 67/67/86 80/80/86
f 87/87/87 83/83/87 88/88/87
f 88/88/88 40/40/88 89/89/88
f 88/88/89 83/83/89 18/18/89
f 88/88/90 18/18/90 40/40/90
f 90/90/91 80/80/91 91/91/91
f 92/92/92 80/80/92 79/79/92
f 93/93/93 94/94/93 91/91/93
f 92/92/94 93/93/94 80/80/94
f 93/93/95 91/91/95 80/80/95
f 84/84/96 40/40/96 82/82/96
f 90/90/97 91/91/97 95/95/97
f 96/96/98 43/43/98 42/42/98
f 97/97/99 99/98/99 98/99/99
f 100/100/100 102/101/100 101/102/100
f 98/99/101 103/103/101 97/97/101
f 104/104/102 103/103/102 41/41/102
f 98/99/103 41/41/103 103/103/103
f 103/103/104 102/101/104 97/97/104
f 103/103/105 105/105/105 102/101/105
f 103/103/106 104/104/106 105/105/106
f 97/97/107 102/101/107 99/98/107
f 100/100/108 106/106/108 102/101/108
f 95/95/109 100/100/109 90/90/109
f 107/107/110 100/100/110 95/95/110
f 107/107/111 95/95/111 91/91/111
f 108/108/112 91/91/112 94/94/112
f 82/82/113 58/58/113 67/67/113
f 108/108/114 94/94/114 109/109/114
f 96/96/115 110/110/115 66/66/115
f 96/96/116 42/42/116 110/110/116
f 111/111/117 57/57/117 83/83/117
f 70/70/118 66/66/118 110/110/118
f 70/70/119 27/27/119 66/66/119
f 111/111/120 43/43/120 56/56/120
f 96/96/121 66/66/121 43/43/121
f 81/81/122 79/79/122 67/67/122
f 111/111/123 56/56/123 57/57/123
f 112/112/124 99/98/124 102/101/124
f 113/113/125 102/101/125 106/106/125
f 113/113/126 112/112/126 102/101/126
f 114/114/127 107/107/127 115/115/127
f 9/8/128 46/46/128 1/1/128
f 25/25/129 28/28/129 39/39/129
f 25/25/130 39/39/130 116/116/130
f 25/25/131 116/116/131 5/5/131
f 25/25/132 29/29/132 28/28/132
f 87/87/133 104/104/133 83/83/133
f 87/87/134 105/105/134 104/104/134
f 111/111/135 83/83/135 104/104/135
f 104/104/136 43/43/136 111/111/136
f 104/104/137 41/41/137 43/43/137
f 10/10/138 117/117/138 13/13/138
f 48/48/139 65/65/139 118/118/139
f 36/36/140 74/74/140 65/65/140
f 65/65/141 74/74/141 118/118/141
f 46/46/142 10/10/142 1/1/142
f 10/10/143 12/12/143 3/2/143
f 3/2/144 1/1/144 10/10/144
f 50/50/145 46/46/145 9/8/145
f 50/50/146 49/49/146 68/68/146
f 50/50/147 68/68/147 45/45/147
f 50/50/148 45/45/148 46/46/148
f 119/119/149 98/99/149 99/98/149
f 119/119/150 47/47/150 41/41/150
f 98/99/151 119/119/151 41/41/151
f 115/115/152 91/91/152 108/108/152
f 115/115/153 107/107/153 91/91/153
f 120/120/154 119/119/154 99/98/154
f 120/120/155 47/47/155 119/119/155
f 116/116/156 63/63/156 5/5/156
f 63/63/157 116/116/157 53/53/157
f 116/116/158 62/62/158 53/53/158
f 116/116/159 44/44/159 62/62/159
f 116/116/160 39/39/160 44/44/160
f 33/33/161 121/121/161 64/64/161
f 48/48/162 33/33/162 22/22/162
f 48/48/163 118/118/163 33/33/163
f 33/33/164 118/118/164 74/74/164
f 33/33/165 74/74/165 121/121/165
f 21/21/166 48/48/166 22/22/166
f 49/49/167 48/48/167 21/21/167
f 49/49/168 21/21/168 55/54/168
f 117/117/169 10/10/169 37/37/169
f 28/28/170 117/117/170 39/39/170
f 28/28/171 30/30/171 117/117/171
f 117/117/172 37/37/172 39/39/172
f 86/86/173 40/40/173 85/85/173
f 86/86/174 89/89/174 40/40/174
f 101/102/175 89/89/175 86/86/175
f 101/102/176 102/101/176 105/105/176
f 87/87/177 101/102/177 105/105/177
f 101/102/178 87/87/178 88/88/178
f 89/89/179 101/102/179 88/88/179
f 30/30/180 72/72/180 117/117/180
f 122/122/181 117/117/181 72/72/181
f 117/117/182 122/122/182 13/13/182
f 114/114/183 113/113/183 107/107/183
f 107/107/184 113/113/184 100/100/184
f 113/113/185 106/106/185 100/100/185
f 77/77/186 24/24/186 34/34/186
f 24/24/187 77/77/187 60/60/187
f 24/24/188 60/60/188 16/16/188
f 23/23/189 34/34/189 24/24/189
f 54/55/190 24/24/190 16/16/190
f 20/20/191 24/24/191 21/21/191
f 21/21/192 24/24/192 54/55/192
f 17/17/193 75/75/193 6/6/193
f 86/86/194 100/100/194 101/102/194
f 100/100/195 86/86/195 80/80/195
f 100/100/196 80/80/196 90/90/196
