# Blender v2.79 (sub 0) OBJ File: ''
# www.blender.org
mtllib crack_only_140.mtl
o crack_only_140
v 2.804818 1.398749 -3.314532
v 2.762291 1.250915 -3.617403
v 2.875491 1.992677 -3.669662
v 3.142640 4.532937 -4.378510
v 3.153577 4.608042 -3.965234
v 3.178439 5.099089 -4.127408
v 3.082604 3.271849 -1.536773
v 3.066265 3.221727 -1.257893
v 3.026315 2.981308 -1.400379
v 2.939550 2.392465 -2.165361
v 2.971869 2.472526 -2.516695
v 3.004012 2.757473 -2.023234
v 3.049937 2.909985 -2.510583
v 3.162009 3.739009 -2.231520
v 3.194902 3.944676 -2.691923
v 3.200847 4.222530 -2.030662
v 2.868586 2.077371 -1.920241
v 2.941699 2.507716 -1.683313
v 2.820314 1.945496 -1.560663
v 2.851282 1.620337 -2.770881
v 2.806185 1.174170 -2.655501
v 2.807250 1.359744 -2.204515
v 2.874705 2.302890 -1.372727
v 2.979579 2.689150 -1.260438
v 2.805277 1.163131 -2.794434
v 3.127245 3.648221 -1.291896
v 2.972621 2.934532 -4.671760
v 2.878088 2.536409 -4.883447
v 3.032797 3.161782 -5.066996
v 3.037290 3.334959 -4.690706
v 3.062330 3.567761 -4.759970
v 3.063029 3.699269 -5.009828
v 2.748641 1.459052 -4.014297
v 2.758169 1.765233 -4.346306
v 3.210296 4.909028 -4.552797
v 3.128339 4.415792 -4.766020
v 2.819488 1.682675 -1.944330
v 2.804376 1.617747 -1.824278
v 3.074537 3.200017 -1.744635
v 3.117725 3.383623 -2.596940
v 3.027731 2.850153 -3.071083
v 2.795928 1.141934 -3.151609
v 3.119102 4.239143 -4.598026
v 3.144503 4.307456 -4.183471
v 3.118582 4.069328 -4.410264
v 3.200120 4.379979 -2.828043
v 3.203979 4.368518 -2.573446
v 3.203550 4.531521 -2.763675
v 3.206489 4.571000 -2.542685
v 3.200512 4.728993 -2.701723
v 3.188306 4.984200 -2.467597
v 3.095993 3.253564 -2.113319
v 3.152866 4.056101 -3.844754
v 3.154965 4.223104 -3.917609
v 3.168042 3.946755 -3.465015
v 3.191544 4.105508 -1.319496
v 3.221825 4.623989 -1.718763
v 3.218512 4.567311 -1.347356
v 3.187709 5.227528 -4.418472
v 3.174927 5.243975 -4.193662
v 3.182208 5.065498 -3.048300
v 3.187558 4.975814 -2.832680
v 3.192150 4.773253 -3.133439
v 3.117312 3.804781 -4.193949
v 3.104264 3.916730 -4.498569
v 3.082475 3.815326 -4.709268
v 3.173886 5.175384 -3.491033
v 3.116730 3.499734 -3.127156
v 3.125399 3.532547 -3.432575
v 3.207000 4.364069 -2.291019
v 3.001040 2.744721 -3.424037
v 3.138850 3.790364 -3.632807
v 3.072975 3.319680 -3.891631
v 3.112214 3.414517 -1.829198
v 2.906320 2.477695 -4.232351
v 2.797758 2.131887 -4.642873
v 3.083440 4.051504 -4.884548
v 3.072473 3.906901 -4.934673
v 2.867405 1.979211 -2.253139
v 2.979135 2.964772 -4.535923
v 3.173996 5.145558 -2.581021
v 3.121869 5.340178 -1.998363
v 3.184400 4.344321 -3.269282
v 3.078844 5.392128 -1.399440
vt 0.563684 0.063455
vt 0.645168 0.030859
vt 0.648990 0.211016
vt 0.801496 0.831734
vt 0.728269 0.964689
vt 0.692096 0.844973
vt 0.072450 0.495442
vt 0.000000 0.479799
vt 0.040589 0.423238
vt 0.249078 0.289905
vt 0.340093 0.313902
vt 0.206903 0.376743
vt 0.332619 0.419952
vt 0.248425 0.616970
vt 0.366440 0.672273
vt 0.189422 0.730859
vt 0.189065 0.210229
vt 0.121158 0.311722
vt 0.096608 0.173420
vt 0.418088 0.110874
vt 0.273021 0.040955
vt 0.393688 0.002000
vt 0.042551 0.257679
vt 0.007785 0.350810
vt 0.430274 0.001001
vt 0.003250 0.583344
vt 0.899451 0.449936
vt 0.960403 0.355379
vt 1.000000 0.510197
vt 0.899072 0.547156
vt 0.914174 0.604105
vt 0.978028 0.638501
vt 0.746661 0.084999
vt 0.829799 0.162272
vt 0.904687 0.808078
vt 0.842162 0.925060
vt 0.200604 0.115222
vt 0.169999 0.097965
vt 0.127918 0.480596
vt 0.348974 0.535524
vt 0.480480 0.411876
vt 0.524264 0.000000
vt 0.862913 0.763698
vt 0.753213 0.775608
vt 0.815836 0.720899
vt 0.396562 0.777948
vt 0.329915 0.772258
vt 0.377730 0.813439
vt 0.319250 0.820293
vt 0.358967 0.859787
vt 0.294339 0.917672
vt 0.223862 0.498237
vt 0.667551 0.711729
vt 0.684518 0.752519
vt 0.569289 0.681415
vt 0.004414 0.694237
vt 0.102406 0.823447
vt 0.005723 0.805413
vt 0.802940 0.999027
vt 0.743808 1.000000
vt 0.445639 0.943879
vt 0.390209 0.920008
vt 0.471669 0.875326
vt 0.762482 0.655124
vt 0.840999 0.685210
vt 0.897639 0.663044
vt 0.560392 0.975220
vt 0.486567 0.569551
vt 0.566227 0.581213
vt 0.255882 0.767892
vt 0.574502 0.390340
vt 0.615404 0.645450
vt 0.689544 0.534741
vt 0.147223 0.533627
vt 0.790272 0.334197
vt 0.902759 0.254203
vt 0.940593 0.721549
vt 0.955628 0.687385
vt 0.277642 0.190735
vt 0.863412 0.455676
vt 0.322080 0.957248
vt 0.166951 0.995657
vt 0.512810 0.774360
vt 0.009346 1.000000
vn 0.9859 -0.1549 -0.0628
vn 0.9983 -0.0559 -0.0163
vn 0.9836 -0.1786 0.0255
vn 0.9804 -0.1913 0.0466
vn 0.9837 -0.1761 0.0376
vn 0.9953 -0.0923 0.0299
vn 0.9784 -0.1985 0.0586
vn 0.9952 -0.0915 0.0353
vn 0.9811 -0.1892 0.0409
vn 0.9777 -0.1928 0.0837
vn 0.9870 -0.1606 -0.0057
vn 0.9950 -0.1002 0.0015
vn 0.9898 -0.1389 0.0330
vn 0.9715 -0.2369 0.0117
vn 0.9947 -0.0972 0.0329
vn 0.9859 -0.1564 0.0602
vn 0.9982 -0.0535 -0.0253
vn 0.9806 -0.1575 -0.1171
vn 0.9853 -0.1702 0.0151
vn 0.9922 -0.1036 0.0689
vn 0.9848 -0.1185 0.1267
vn 0.9835 -0.1794 0.0238
vn 0.9890 -0.1459 -0.0236
vn 0.9843 -0.1754 -0.0203
vn 0.9912 -0.0936 -0.0935
vn 0.9927 -0.0963 0.0729
vn 0.9976 -0.0677 -0.0163
vn 0.9996 -0.0126 -0.0242
vn 0.9979 -0.0489 -0.0415
vn 0.9968 -0.0473 -0.0642
vn 0.9997 -0.0170 -0.0159
vn 0.9998 -0.0184 -0.0100
vn 0.9998 -0.0100 -0.0156
vn 0.9991 0.0430 0.0052
vn 0.9996 0.0207 -0.0170
vn 0.9912 -0.1319 0.0119
vn 0.9982 -0.0343 -0.0498
vn 0.9983 -0.0583 0.0000
vn 0.9985 -0.0553 0.0040
vn 0.9974 0.0483 0.0531
vn 0.9974 0.0485 0.0532
vn 0.9993 0.0368 -0.0095
vn 0.9989 0.0446 -0.0148
vn 0.9996 0.0208 -0.0172
vn 0.9993 -0.0075 -0.0357
vn 0.9964 -0.0567 -0.0635
vn 0.9951 -0.0710 -0.0687
vn 0.9966 -0.0432 -0.0704
vn 0.9993 0.0368 -0.0096
vn 0.9894 -0.1417 -0.0329
vn 0.9899 -0.1384 -0.0322
vn 0.9947 -0.1010 0.0174
vn 0.9999 -0.0107 -0.0109
vn 0.9998 -0.0183 -0.0110
vn 0.9994 -0.0338 0.0052
vn 0.9917 -0.1203 -0.0459
vn 0.9954 -0.0669 -0.0687
vn 0.9873 -0.1562 -0.0280
vn 0.9908 -0.1346 0.0137
vn 0.9970 -0.0518 -0.0575
vn 0.9992 -0.0013 -0.0397
vn 0.9969 -0.0546 -0.0566
vn 0.9915 -0.1089 -0.0710
vn 0.9989 0.0035 -0.0470
vn 0.9988 -0.0464 0.0127
vn 0.9837 -0.1755 0.0378
vn 0.9901 -0.1405 0.0067
vn 0.9908 -0.1349 0.0082
vn 0.9925 -0.1036 -0.0642
vn 0.9987 0.0507 -0.0032
vn 0.9939 -0.1103 -0.0051
vn 0.9899 -0.1379 0.0329
vn 0.9900 -0.1374 0.0306
vn 0.9988 -0.0496 -0.0034
vn 0.9988 0.0386 0.0297
vn 0.9767 -0.1860 -0.1068
vn 0.9772 -0.1871 -0.1008
vn 0.9940 -0.1063 -0.0247
vn 0.9965 -0.0788 -0.0280
vn 0.9957 -0.0701 -0.0607
vn 0.9901 -0.0861 -0.1105
vn 0.9957 -0.0469 -0.0804
vn 0.9964 -0.0528 -0.0657
vn 0.9982 -0.0256 -0.0547
vn 0.9966 -0.0737 -0.0360
vn 0.9950 -0.0939 0.0341
vn 0.9903 -0.1354 -0.0294
vn 0.9959 -0.0703 -0.0565
vn 0.9833 -0.1759 -0.0463
vn 0.9756 -0.2011 -0.0886
vn 0.9723 -0.2337 0.0054
vn 0.9775 -0.2095 -0.0259
vn 0.9876 -0.1529 -0.0367
vn 0.9905 -0.1374 -0.0094
vn 0.9840 -0.1771 -0.0215
vn 0.9820 -0.1821 0.0502
vn 0.9821 -0.1818 0.0489
vn 0.9830 -0.1638 0.0830
vn 0.9935 -0.0950 0.0629
vn 0.9936 -0.0913 0.0665
vn 0.9774 -0.2036 0.0566
vn 0.9914 0.1217 0.0480
vn 0.9990 -0.0036 -0.0456
vn 0.9990 -0.0020 -0.0450
vn 0.9936 0.0576 0.0970
vn 0.9912 0.1090 -0.0752
vn 0.9860 -0.1657 0.0190
vn 0.9866 -0.1598 0.0342
vn 0.9913 -0.1306 0.0174
vn 0.9942 -0.0981 0.0439
vn 0.9835 -0.1709 -0.0588
vn 0.9874 -0.1424 -0.0687
vn 0.9835 -0.1727 0.0534
vn 0.9821 -0.1858 0.0302
vn 0.9624 -0.2699 0.0296
vn 0.9822 -0.1868 0.0189
vn 0.9860 -0.1659 -0.0171
vn 0.9855 0.1598 0.0569
vn 0.9850 0.1690 0.0346
vn 0.9873 -0.1588 -0.0088
vn 0.9885 -0.1341 -0.0701
vn 0.9871 -0.1600 -0.0117
vn 0.9806 -0.1579 -0.1165
vn 0.9869 -0.1562 -0.0403
vn 0.9925 -0.1028 -0.0657
vn 0.9916 -0.1077 -0.0721
vn 0.9963 0.0855 -0.0040
vn 0.9974 0.0720 0.0052
vn 0.9994 -0.0070 -0.0350
vn 0.9958 -0.0699 0.0588
vn 0.9922 -0.0934 -0.0827
vn 0.9989 -0.0207 -0.0415
vn 0.9992 -0.0225 -0.0338
vn 0.9949 -0.0991 -0.0202
vn 0.9997 0.0261 0.0040
usemtl None
s off
f 1/1/1 2/2/1 3/3/1
f 4/4/2 6/5/2 5/6/2
f 7/7/3 8/8/3 9/9/3
f 10/10/4 11/11/4 12/12/4
f 13/13/5 12/12/5 11/11/5
f 14/14/6 15/15/6 16/16/6
f 17/17/7 18/18/7 19/19/7
f 20/20/8 22/21/8 21/22/8
f 17/17/9 12/12/9 18/18/9
f 17/17/9 10/10/9 12/12/9
f 18/18/10 23/23/10 19/19/10
f 9/9/11 8/8/11 24/24/11
f 20/20/12 21/22/12 25/25/12
f 7/7/13 26/26/13 8/8/13
f 27/27/14 28/28/14 29/29/14
f 30/30/15 29/29/15 31/31/15
f 30/30/16 27/27/16 29/29/16
f 32/32/17 31/31/17 29/29/17
f 33/33/18 34/34/18 3/3/18
f 4/4/19 36/35/19 35/36/19
f 37/37/20 19/19/20 38/38/20
f 6/5/21 4/4/21 35/36/21
f 7/7/22 9/9/22 39/39/22
f 40/40/23 13/13/23 41/41/23
f 13/13/24 11/11/24 41/41/24
f 1/1/25 42/42/25 2/2/25
f 38/38/26 22/21/26 37/37/26
f 43/43/27 36/35/27 4/4/27
f 44/44/28 4/4/28 5/6/28
f 43/43/29 4/4/29 45/45/29
f 44/44/30 45/45/30 4/4/30
f 46/46/31 47/47/31 15/15/31
f 46/46/32 48/48/32 49/49/32
f 47/47/33 46/46/33 49/49/33
f 50/50/34 51/51/34 49/49/34
f 50/50/35 49/49/35 48/48/35
f 52/52/36 15/15/36 14/14/36
f 53/53/37 54/54/37 55/55/37
f 56/56/38 57/57/38 58/58/38
f 56/56/39 16/16/39 57/57/39
f 59/59/40 6/5/40 35/36/40
f 59/59/41 60/60/41 6/5/41
f 61/61/42 62/62/42 63/63/42
f 62/62/43 50/50/43 63/63/43
f 50/50/44 48/48/44 63/63/44
f 63/63/45 48/48/45 46/46/45
f 64/64/46 65/65/46 45/45/46
f 65/65/47 64/64/47 66/66/47
f 53/53/48 64/64/48 54/54/48
f 63/63/49 67/67/49 61/61/49
f 68/68/50 15/15/50 40/40/50
f 40/40/51 41/41/51 68/68/51
f 68/68/52 69/69/52 55/55/52
f 70/70/53 47/47/53 49/49/53
f 70/70/54 15/15/54 47/47/54
f 70/70/55 16/16/55 15/15/55
f 64/64/56 30/30/56 31/31/56
f 64/64/57 31/31/57 66/66/57
f 71/71/58 69/69/58 41/41/58
f 41/41/59 69/69/59 68/68/59
f 54/54/60 64/64/60 45/45/60
f 44/44/61 5/6/61 54/54/61
f 54/54/62 45/45/62 44/44/62
f 53/53/63 55/55/63 72/72/63
f 63/63/64 5/6/64 67/67/64
f 5/6/65 6/5/65 67/67/65
f 13/13/66 52/52/66 12/12/66
f 40/40/67 52/52/67 13/13/67
f 52/52/68 40/40/68 15/15/68
f 73/73/69 53/53/69 72/72/69
f 62/62/70 51/51/70 50/50/70
f 56/56/71 74/74/71 16/16/71
f 7/7/72 74/74/72 56/56/72
f 7/7/73 56/56/73 26/26/73
f 16/16/74 70/70/74 57/57/74
f 49/49/75 51/51/75 70/70/75
f 75/75/76 3/3/76 34/34/76
f 75/75/77 34/34/77 76/76/77
f 64/64/78 53/53/78 73/73/78
f 43/43/79 66/66/79 36/35/79
f 66/66/80 43/43/80 45/45/80
f 66/66/81 77/77/81 36/35/81
f 65/65/82 66/66/82 45/45/82
f 78/78/83 77/77/83 66/66/83
f 78/78/84 66/66/84 32/32/84
f 66/66/85 31/31/85 32/32/85
f 20/20/86 79/79/86 22/21/86
f 1/1/87 3/3/87 20/20/87
f 42/42/88 1/1/88 20/20/88
f 75/75/89 80/80/89 73/73/89
f 75/75/90 76/76/90 80/80/90
f 80/80/91 28/28/91 27/27/91
f 80/80/92 76/76/92 28/28/92
f 71/71/93 20/20/93 3/3/93
f 11/11/94 20/20/94 71/71/94
f 11/11/95 71/71/95 41/41/95
f 17/17/96 79/79/96 10/10/96
f 10/10/97 79/79/97 11/11/97
f 79/79/98 20/20/98 11/11/98
f 37/37/99 79/79/99 19/19/99
f 79/79/100 37/37/100 22/21/100
f 17/17/101 19/19/101 79/79/101
f 81/81/102 82/82/102 51/51/102
f 83/83/103 5/6/103 63/63/103
f 83/83/104 54/54/104 5/6/104
f 51/51/105 82/82/105 70/70/105
f 70/70/106 82/82/106 57/57/106
f 39/39/107 74/74/107 7/7/107
f 52/52/108 74/74/108 39/39/108
f 52/52/109 14/14/109 74/74/109
f 74/74/110 14/14/110 16/16/110
f 71/71/111 75/75/111 73/73/111
f 71/71/112 3/3/112 75/75/112
f 52/52/113 18/18/113 12/12/113
f 52/52/114 39/39/114 18/18/114
f 18/18/115 24/24/115 23/23/115
f 9/9/116 18/18/116 39/39/116
f 9/9/117 24/24/117 18/18/117
f 84/84/118 57/57/118 82/82/118
f 57/57/119 84/84/119 58/58/119
f 80/80/120 30/30/120 64/64/120
f 80/80/121 64/64/121 73/73/121
f 80/80/122 27/27/122 30/30/122
f 2/2/123 33/33/123 3/3/123
f 73/73/124 69/69/124 71/71/124
f 73/73/125 72/72/125 69/69/125
f 69/69/126 72/72/126 55/55/126
f 81/81/127 51/51/127 62/62/127
f 62/62/128 61/61/128 81/81/128
f 46/46/129 83/83/129 63/63/129
f 68/68/130 55/55/130 83/83/130
f 68/68/131 83/83/131 15/15/131
f 54/54/132 83/83/132 55/55/132
f 46/46/133 15/15/133 83/83/133
f 20/20/134 25/25/134 42/42/134
f 60/60/135 67/67/135 6/5/135
