# Blender v2.79 (sub 0) OBJ File: ''
# www.blender.org
mtllib crack_only_38.mtl
o crack_only_38
v 2.835950 1.403742 -2.124319
v 2.864757 1.531704 -2.445759
v 2.878962 1.275548 -2.393146
v 2.871891 1.440305 -2.711917
v 2.857175 1.388232 -2.989317
v 2.893351 1.665852 -3.000884
v 2.888056 1.170404 -2.632169
v 2.889641 1.150255 -2.714030
v 2.884935 1.137478 -2.876207
v 2.770899 1.585204 -1.890360
v 2.814626 1.678594 -2.072932
v 2.876806 1.782876 -2.355982
v 2.936783 1.872023 -2.788332
v 2.828324 1.704393 -2.153675
v 2.767527 1.370344 -3.841244
v 2.787393 1.542816 -3.700796
v 2.784716 1.282320 -3.696965
v 2.902044 1.790280 -3.241123
v 2.840912 1.357484 -3.318280
v 2.788863 1.223834 -3.575850
v 2.823528 1.168559 -3.362477
v 2.860040 1.130904 -3.122427
vt 0.196095 0.866297
vt 0.090202 0.719790
vt 0.450506 0.716697
vt 0.392633 0.574639
vt 0.390160 0.430374
vt 0.771223 0.450236
vt 0.007011 0.590123
vt 0.000000 0.547155
vt 0.022677 0.464459
vt 0.555755 0.917124
vt 0.382166 1.000000
vt 0.769690 0.784887
vt 1.000000 0.576228
vt 0.611278 0.879011
vt 0.573820 0.000000
vt 0.773875 0.086505
vt 0.419167 0.064567
vt 1.000000 0.340969
vt 0.429362 0.262140
vt 0.309895 0.120102
vt 0.183204 0.222512
vt 0.073887 0.339953
vn 0.9895 0.0796 0.1204
vn 0.9984 0.0569 0.0072
vn 0.9911 -0.1303 -0.0281
vn 0.9980 0.0628 0.0103
vn 0.9981 0.0610 0.0043
vn 0.9975 0.0613 -0.0338
vn 0.9945 0.0796 -0.0677
vn 0.9686 0.0290 0.2468
vn 0.9889 -0.0898 0.1187
vn 0.9940 0.0353 0.1031
vn 0.9752 -0.1144 0.1893
vn 0.9983 -0.0422 0.0412
vn 0.9784 -0.2066 0.0005
vn 0.9920 -0.0120 -0.1255
vn 0.9861 -0.1594 -0.0469
vn 0.9907 -0.1306 -0.0368
vn 0.9837 -0.0501 -0.1728
vn 0.9904 -0.1339 -0.0335
vn 0.9840 -0.0610 -0.1672
vn 0.9992 -0.0108 -0.0394
vn 0.9767 -0.1046 -0.1873
vn 0.9827 0.0425 0.1803
vn 0.9979 0.0385 -0.0529
vn 0.9859 -0.0537 -0.1584
vn 0.9927 0.0639 -0.1021
usemtl None
s off
f 1/1/1 3/2/1 2/3/1
f 3/2/2 4/4/2 2/3/2
f 5/5/3 6/6/3 4/4/3
f 7/7/4 4/4/4 3/2/4
f 8/8/5 4/4/5 7/7/5
f 8/8/6 9/9/6 4/4/6
f 9/9/7 5/5/7 4/4/7
f 11/10/8 10/11/8 1/1/8
f 12/12/9 2/3/9 13/13/9
f 14/14/10 1/1/10 2/3/10
f 2/3/11 12/12/11 14/14/11
f 6/6/12 2/3/12 4/4/12
f 6/6/13 13/13/13 2/3/13
f 15/15/14 16/16/14 17/17/14
f 6/6/15 18/18/15 13/13/15
f 19/19/16 6/6/16 5/5/16
f 20/20/17 19/19/17 21/21/17
f 18/18/18 6/6/18 19/19/18
f 20/20/19 16/16/19 19/19/19
f 16/16/20 20/20/20 17/17/20
f 19/19/21 16/16/21 18/18/21
f 11/10/22 1/1/22 14/14/22
f 22/22/23 19/19/23 5/5/23
f 19/19/24 22/22/24 21/21/24
f 22/22/25 5/5/25 9/9/25
