# Blender v2.79 (sub 0) OBJ File: ''
# www.blender.org
mtllib crack_only_209.mtl
o crack_only_209
v 3.133680 4.929296 -2.468187
v 2.885417 5.902747 -2.126856
v 3.000684 5.671308 -2.905159
v 2.772826 1.763849 -4.355554
v 2.906059 2.531829 -3.825092
v 2.862607 1.997399 -3.671551
v 2.805219 2.125907 -4.643711
v 3.134992 4.998785 -1.396203
v 3.109897 4.188879 -2.019186
v 3.125922 4.411718 -4.766957
v 3.117448 4.583314 -3.968915
v 3.150258 5.323582 -4.388311
v 2.874140 2.147030 -2.236871
v 2.983469 2.924729 -2.496399
v 2.964422 2.797376 -2.084421
v 2.531987 6.183402 -1.505298
v 2.522956 6.437193 -1.901322
v 1.331171 7.633627 -3.115242
v 1.248796 7.686296 -3.294786
v 1.401069 7.627597 -3.335943
v 1.235837 7.757887 -3.075860
v 1.296699 7.622237 -3.539119
v 1.345727 7.616594 -2.895633
v 1.546138 7.579781 -3.076325
v 2.743081 5.785899 -1.413375
v 2.661966 5.959500 -1.443672
v 2.382972 6.851685 -2.627736
v 2.314421 6.802015 -2.175911
v 1.791257 7.197791 -1.976560
v 1.288069 7.581111 -2.848171
v 3.096854 3.920397 -1.333171
v 3.061378 3.543872 -1.655520
v 3.070425 3.837731 -3.447612
v 3.088670 3.970256 -2.509362
v 1.371471 7.626127 -3.689573
v 2.786269 1.178794 -2.652060
v 2.801774 1.360320 -2.204404
v 2.807913 1.502801 -3.011557
v 1.774760 7.592069 -3.684926
v 2.471516 7.002767 -3.304282
v 2.165178 7.182526 -2.941604
v 2.918058 2.481272 -1.700806
v 2.829446 1.941529 -1.562017
v 2.879795 2.300718 -1.371644
v 2.946761 6.461012 -4.273384
v 3.058222 5.781848 -3.877440
v 2.928910 2.541704 -3.186004
v 3.064919 3.728608 -3.033658
v 2.971652 2.860245 -2.909198
v 2.969618 2.906875 -3.397973
v 2.932575 6.389125 -3.943359
v 3.050514 3.459179 -1.940295
v 2.781888 1.167078 -2.808743
v 2.591771 6.917799 -3.777905
v 2.240539 7.276406 -3.505729
v 2.460162 7.272926 -4.266284
v 2.965955 2.967470 -4.529166
v 2.885843 2.527488 -4.885239
v 3.018835 3.164740 -5.064175
v 3.016060 3.324977 -4.694302
v 3.112112 4.119427 -1.337313
v 3.032525 3.215256 -1.266600
v 2.750532 1.458779 -4.015625
v 2.771169 1.142664 -3.105607
v 2.815809 1.684705 -1.947094
v 2.806257 1.617434 -1.824163
v 2.755006 1.241589 -3.533639
v 1.585204 7.467885 -2.671606
v 1.634407 7.411066 -2.473998
v 1.405360 7.538127 -2.566719
v 1.641556 7.484166 -2.807772
v 1.861913 7.307052 -2.612402
v 1.842895 7.594250 -3.929453
v 1.723236 7.612373 -3.861871
v 1.737254 7.624486 -4.023046
v 1.975727 7.545144 -3.815857
v 1.672058 7.556901 -3.377552
v 1.765167 7.527519 -3.293284
v 1.960715 7.479105 -3.505991
v 1.556037 7.633854 -3.863829
v 2.260310 7.355833 -3.758049
v 2.232550 7.424072 -4.052713
v 1.671178 7.337340 -2.151557
v 1.556487 7.460328 -2.313401
v 1.736251 7.479232 -3.021719
v 2.112934 7.523542 -4.152744
v 2.011375 7.331197 -3.083200
v 3.046569 3.609823 -4.610571
v 1.317987 7.583059 -2.759819
v 2.115002 6.851346 -1.678706
v 3.020568 3.208492 -2.182125
v 3.016430 3.155795 -1.707094
v 2.844951 6.375788 -3.410646
v 2.968823 2.690571 -1.262751
v 3.051717 3.740686 -4.204329
v 3.016013 3.364964 -3.978086
v 3.067070 3.699609 -5.011736
v 2.982233 3.081425 -4.022390
vt 0.302462 0.671941
vt 0.408652 0.781337
vt 0.277302 0.848133
vt 0.518968 0.060364
vt 0.453607 0.211788
vt 0.405477 0.125894
vt 0.584638 0.111871
vt 0.193523 0.561871
vt 0.112705 0.722859
vt 0.695298 0.499878
vt 0.662223 0.669337
vt 0.558566 0.558134
vt 0.153718 0.203780
vt 0.230426 0.327864
vt 0.151541 0.320998
vt 0.174975 0.915505
vt 0.255704 0.944259
vt 0.735147 0.312971
vt 0.750233 0.350740
vt 0.720024 0.345566
vt 0.711822 0.308982
vt 0.734312 0.386494
vt 0.736113 0.274476
vt 0.775306 0.303979
vt 0.144188 0.852955
vt 0.155912 0.880729
vt 0.953588 0.207888
vt 0.825006 0.104739
vt 0.938890 0.128992
vt 0.711822 0.677530
vt 0.734698 0.632639
vt 0.734698 0.680302
vt 0.060091 0.540984
vt 0.103438 0.464738
vt 0.436356 0.449613
vt 0.273078 0.506554
vt 0.748997 0.412231
vt 0.190938 0.022819
vt 0.267916 0.065145
vt 0.117576 0.070212
vt 0.821836 0.408454
vt 0.969373 0.327519
vt 0.902493 0.269695
vt 0.070432 0.280679
vt 0.004303 0.261556
vt 0.024561 0.192943
vt 0.684143 0.865628
vt 0.587626 0.765261
vt 0.339366 0.236960
vt 0.357868 0.446046
vt 0.302011 0.301726
vt 0.391514 0.291847
vt 0.622104 0.865273
vt 0.151277 0.439828
vt 0.218596 0.015074
vt 1.000000 0.407417
vt 0.964879 0.499444
vt 0.917487 0.368847
vt 0.596852 0.260926
vt 0.643646 0.172240
vt 0.700628 0.275528
vt 0.640340 0.316297
vt 0.068491 0.574897
vt 0.020973 0.422635
vt 0.446222 0.020548
vt 0.270905 0.000000
vt 0.083825 0.135011
vt 0.059153 0.127938
vt 0.351441 0.001125
vt 0.783167 0.231483
vt 0.746820 0.215627
vt 0.792434 0.195871
vt 0.793838 0.255077
vt 0.839216 0.216643
vt 0.836475 0.450517
vt 0.817381 0.467924
vt 0.813708 0.439822
vt 0.861068 0.429135
vt 0.802000 0.355081
vt 0.818943 0.339381
vt 0.858197 0.374252
vt 0.783152 0.441529
vt 0.726064 0.499444
vt 0.726064 0.632639
vt 0.711822 0.543666
vt 0.914951 0.466501
vt 0.919909 0.413966
vt 0.774492 0.169371
vt 0.798943 0.138364
vt 0.813175 0.291550
vt 0.890089 0.486381
vt 0.869659 0.297890
vt 0.636305 0.368175
vt 0.731340 0.250460
vt 0.895753 0.044807
vt 0.990440 0.073427
vt 0.184996 0.388017
vt 0.097703 0.396306
vt 0.525613 0.881637
vt 0.611160 0.958418
vt 0.401322 0.987214
vt 0.528890 0.989099
vt 1.000000 0.000000
vt 0.000000 0.332769
vt 0.568401 0.405332
vt 0.513310 0.349210
vt 0.711822 1.000000
vt 0.711822 0.369044
vt 0.510304 0.298962
vn 0.9722 0.2205 0.0784
vn 0.9898 -0.1073 -0.0933
vn 0.9895 -0.1330 -0.0559
vn 0.9995 -0.0316 0.0008
vn 0.9993 -0.0341 0.0179
vn 0.9673 0.2529 -0.0176
vn 0.9904 -0.1382 0.0031
vn 0.8457 0.4579 0.2741
vn 0.3804 0.9199 0.0953
vn 0.7575 0.6325 -0.1620
vn 0.3099 0.9328 -0.1838
vn 0.2323 0.9708 0.0599
vn 0.8613 0.4452 0.2447
vn 0.6360 0.7506 0.1790
vn 0.8056 0.5430 0.2368
vn 0.9965 -0.0825 -0.0133
vn 0.9975 -0.0696 -0.0096
vn -0.0516 0.9987 0.0002
vn 0.2346 0.9709 0.0478
vn 0.9974 -0.0724 -0.0052
vn 0.0843 0.9964 -0.0112
vn 0.6884 0.6835 0.2427
vn 0.9876 -0.1544 0.0301
vn 0.9845 0.1740 0.0213
vn 0.9932 -0.1165 -0.0050
vn 0.9940 -0.1088 -0.0145
vn 0.9735 0.2110 0.0878
vn 0.9965 -0.0826 -0.0135
vn 0.9957 -0.0899 -0.0211
vn 0.7754 0.5915 0.2212
vn 0.9800 -0.1978 0.0239
vn 0.9920 -0.1130 0.0564
vn 0.9970 -0.0767 -0.0110
vn 0.9958 -0.0911 -0.0031
vn 0.9996 -0.0264 -0.0059
vn 0.9848 -0.1565 -0.0758
vn 0.9952 -0.0942 -0.0282
vn 0.9953 -0.0927 0.0266
vn 0.9921 -0.1255 -0.0088
vn 0.9946 -0.0864 -0.0575
vn 0.8659 0.4365 0.2442
vn 0.8154 0.5345 0.2223
vn 0.9966 -0.0729 0.0375
vn 0.4334 0.8890 0.1477
vn 0.3497 0.9149 0.2015
vn 0.4361 0.8544 0.2826
vn 0.1990 0.9758 0.0906
vn 0.2796 0.9562 0.0864
vn 0.1823 0.9814 0.0595
vn 0.2684 0.9625 0.0391
vn 0.3437 0.9131 0.2193
vn 0.2737 0.9613 0.0328
vn 0.0819 0.9880 0.1306
vn 0.8123 0.5351 0.2321
vn 0.5276 0.8372 0.1442
vn 0.6248 0.7716 0.1198
vn 0.6633 0.7424 0.0941
vn 0.4120 0.8886 0.2019
vn 0.5996 0.7967 0.0752
vn 0.2639 0.9645 0.0137
vn 0.5431 0.8226 0.1685
vn 0.2998 0.9521 0.0610
vn 0.4933 0.8694 -0.0273
vn 0.2572 0.9658 0.0342
vn 0.2760 0.9402 0.1998
vn 0.1260 0.9884 0.0852
vn 0.1262 0.9890 0.0767
vn 0.9888 0.0379 0.1442
vn 0.4988 0.8427 0.2029
vn 0.4715 0.8485 0.2403
vn 0.5736 0.7922 0.2084
vn 0.5616 0.7756 0.2882
vn 0.6665 0.7158 0.2082
vn 0.9987 -0.0459 -0.0228
vn 0.5135 0.8338 0.2026
vn 0.9952 -0.0925 0.0305
vn 0.3508 0.9123 0.2114
vn 0.9970 0.0444 0.0640
vn 0.9989 -0.0469 0.0000
vn 0.9876 0.1503 -0.0453
vn -0.0211 0.9716 0.2356
vn 0.7531 0.6121 0.2413
vn 0.6363 0.7500 0.1808
vn 0.9934 -0.1147 -0.0041
vn 0.9952 -0.0979 -0.0089
vn 0.9918 -0.1262 -0.0192
vn 0.5504 0.8105 0.2004
vn 0.5655 0.7948 0.2203
vn 0.5737 0.7921 0.2085
vn 0.6805 0.6878 0.2528
vn 0.9624 0.2169 0.1637
vn 0.9575 0.2747 0.0879
vn 0.8517 0.5013 0.1526
vn 0.7872 0.5886 0.1841
vn 0.8454 0.5175 0.1324
vn 0.8544 0.4720 0.2172
vn 0.8764 0.3933 0.2781
vn 0.8853 0.4650 -0.0072
vn 0.7548 0.5599 0.3416
vn 0.4945 0.8150 0.3021
vn 0.3656 0.9181 0.1527
vn 0.9753 -0.2206 -0.0076
vn 0.9911 -0.1329 0.0103
vn 0.9895 -0.1444 -0.0074
vn 0.9894 -0.1444 -0.0167
vn 0.9910 -0.1207 -0.0572
vn 0.9909 -0.1343 0.0043
vn 0.9966 -0.0816 0.0136
vn 0.9962 -0.0857 0.0150
vn 0.8517 0.5033 0.1462
vn 0.8498 0.5081 0.1404
vn 0.4986 0.8431 0.2013
vn 0.4988 0.8429 0.2016
vn 0.4231 0.8906 0.1667
vn 0.9967 -0.0806 -0.0080
vn 0.9966 -0.0818 -0.0067
vn 0.9949 -0.0982 -0.0214
vn 0.9904 -0.1241 0.0612
vn 0.9952 -0.0927 0.0301
vn 0.9952 -0.0926 0.0301
vn 0.6049 0.7709 0.1997
vn 0.4771 0.8690 0.1311
vn 0.4820 0.8645 0.1427
vn 0.9903 -0.1387 0.0054
vn 0.9940 -0.1040 0.0342
vn 0.9943 -0.0891 0.0581
vn 0.9957 -0.0919 -0.0087
vn 0.9934 -0.1140 0.0099
vn 0.9902 -0.1395 -0.0009
vn 0.9873 -0.1576 0.0174
vn 0.7377 0.6718 0.0668
vn 0.8614 0.4909 0.1306
vn 0.9941 -0.1080 -0.0057
vn 0.9940 -0.1085 -0.0154
vn 0.9933 -0.0984 -0.0614
vn 0.9927 -0.1197 -0.0155
vn 0.9934 -0.1148 -0.0070
vn 0.9931 -0.1164 -0.0125
vn 0.9893 -0.1444 -0.0204
vn 0.9848 -0.1546 -0.0788
vn 0.9889 -0.1458 -0.0273
vn 0.9948 -0.1015 -0.0116
vn 0.9972 -0.0735 -0.0152
vn 0.9950 -0.1001 0.0011
vn 0.9946 -0.1004 -0.0267
vn 0.9940 -0.1084 -0.0115
vn 0.9931 -0.1175 -0.0055
vn 0.9905 -0.1376 -0.0009
vn 0.9922 -0.1246 -0.0003
vn 0.9919 -0.1190 0.0434
vn 0.9825 -0.1836 -0.0300
vn 0.9818 -0.1893 0.0130
usemtl None
s off
f 1/1/1 3/2/1 2/3/1
f 4/4/2 5/5/2 6/6/2
f 4/4/3 7/7/3 5/5/3
f 9/8/4 1/1/4 8/9/4
f 10/10/5 12/11/5 11/12/5
f 2/3/6 8/9/6 1/1/6
f 13/13/7 14/14/7 15/15/7
f 16/16/8 2/3/8 17/17/8
f 18/18/9 20/19/9 19/20/9
f 19/20/10 21/21/10 18/18/10
f 19/20/11 20/19/11 22/22/11
f 23/23/12 24/24/12 18/18/12
f 25/25/13 2/3/13 26/26/13
f 27/27/14 29/28/14 28/29/14
f 21/30/15 30/31/15 18/32/15
f 31/33/16 32/34/16 9/8/16
f 33/35/17 11/12/17 34/36/17
f 22/22/18 20/19/18 35/37/18
f 18/18/19 24/24/19 20/19/19
f 36/38/20 38/39/20 37/40/20
f 39/41/21 35/37/21 20/19/21
f 40/42/22 41/43/22 27/27/22
f 42/44/23 44/45/23 43/46/23
f 45/47/24 46/48/24 12/11/24
f 47/49/25 38/39/25 6/6/25
f 48/50/26 49/51/26 50/52/26
f 46/48/27 45/47/27 51/53/27
f 52/54/28 9/8/28 32/34/28
f 53/55/29 38/39/29 36/38/29
f 54/56/30 56/57/30 55/58/30
f 57/59/31 58/60/31 59/61/31
f 60/62/32 57/59/32 59/61/32
f 31/33/33 9/8/33 61/63/33
f 32/34/34 31/33/34 62/64/34
f 61/63/35 9/8/35 8/9/35
f 63/65/36 4/4/36 6/6/36
f 53/55/37 64/66/37 38/39/37
f 65/67/38 43/46/38 66/68/38
f 14/14/39 47/49/39 49/51/39
f 67/69/40 38/39/40 64/66/40
f 25/25/41 8/9/41 2/3/41
f 26/26/42 2/3/42 16/16/42
f 66/68/43 37/40/43 65/67/43
f 68/70/44 70/71/44 69/72/44
f 71/73/45 24/24/45 23/23/45
f 71/73/46 68/70/46 72/74/46
f 73/75/47 75/76/47 74/77/47
f 73/75/48 39/41/48 76/78/48
f 74/77/49 39/41/49 73/75/49
f 77/79/50 24/24/50 78/80/50
f 77/79/51 79/81/51 39/41/51
f 78/80/52 79/81/52 77/79/52
f 39/41/53 80/82/53 35/37/53
f 55/83/54 56/84/54 81/85/54
f 82/86/55 76/78/55 81/87/55
f 82/86/56 81/87/56 56/57/56
f 69/72/57 84/88/57 83/89/57
f 85/90/58 78/80/58 24/24/58
f 82/86/59 56/57/59 86/91/59
f 73/75/60 86/91/60 75/76/60
f 82/86/61 86/91/61 76/78/61
f 73/75/62 76/78/62 86/91/62
f 69/72/63 70/71/63 84/88/63
f 77/79/64 20/19/64 24/24/64
f 77/79/65 39/41/65 20/19/65
f 74/77/66 75/76/66 80/82/66
f 74/77/67 80/82/67 39/41/67
f 46/48/68 11/12/68 12/11/68
f 78/80/69 85/90/69 87/92/69
f 78/80/70 87/92/70 79/81/70
f 55/58/71 79/81/71 87/92/71
f 79/81/72 55/58/72 81/87/72
f 40/42/73 55/58/73 41/43/73
f 9/8/74 34/36/74 1/1/74
f 79/81/75 81/87/75 76/78/75
f 11/12/76 88/93/76 10/10/76
f 76/78/77 39/41/77 79/81/77
f 46/48/78 3/2/78 11/12/78
f 34/36/79 11/12/79 1/1/79
f 11/12/80 3/2/80 1/1/80
f 89/94/81 70/71/81 23/23/81
f 28/29/82 90/95/82 17/96/82
f 90/95/83 28/29/83 29/28/83
f 91/97/84 52/54/84 92/98/84
f 32/34/85 62/64/85 52/54/85
f 52/54/86 62/64/86 92/98/86
f 41/43/87 72/74/87 29/28/87
f 87/92/88 72/74/88 41/43/88
f 41/43/89 55/58/89 87/92/89
f 27/27/90 41/43/90 29/28/90
f 46/48/91 51/53/91 93/99/91
f 46/48/92 93/99/92 3/2/92
f 51/53/93 54/100/93 93/99/93
f 28/29/94 17/96/94 27/27/94
f 27/101/95 17/17/95 2/3/95
f 40/102/96 27/101/96 93/99/96
f 93/99/97 27/101/97 3/2/97
f 27/101/98 2/3/98 3/2/98
f 90/95/99 16/103/99 17/96/99
f 68/70/100 71/73/100 70/71/100
f 71/73/101 23/23/101 70/71/101
f 42/44/102 94/104/102 44/45/102
f 91/97/103 42/44/103 15/15/103
f 91/97/104 92/98/104 42/44/104
f 42/44/105 92/98/105 62/64/105
f 42/44/106 62/64/106 94/104/106
f 14/14/107 91/97/107 15/15/107
f 88/93/108 11/12/108 95/105/108
f 88/93/109 95/105/109 96/106/109
f 54/100/110 51/53/110 45/47/110
f 54/100/111 45/47/111 56/107/111
f 71/73/112 87/92/112 85/90/112
f 71/73/113 72/74/113 87/92/113
f 85/90/114 24/24/114 71/73/114
f 34/36/115 48/50/115 33/35/115
f 34/36/116 9/8/116 52/54/116
f 34/36/117 52/54/117 91/97/117
f 60/62/118 59/61/118 88/93/118
f 97/108/119 88/93/119 59/61/119
f 88/93/120 97/108/120 10/10/120
f 29/28/121 72/74/121 83/89/121
f 68/70/122 69/72/122 72/74/122
f 69/72/123 83/89/123 72/74/123
f 42/44/124 13/13/124 15/15/124
f 65/67/125 13/13/125 43/46/125
f 13/13/126 65/67/126 37/40/126
f 13/13/127 37/40/127 38/39/127
f 47/49/128 13/13/128 38/39/128
f 14/14/129 13/13/129 47/49/129
f 42/44/130 43/46/130 13/13/130
f 54/56/131 55/58/131 40/42/131
f 54/100/132 40/102/132 93/99/132
f 96/106/133 33/35/133 50/52/133
f 48/50/134 50/52/134 33/35/134
f 5/5/135 50/52/135 6/6/135
f 50/52/136 49/51/136 47/49/136
f 47/49/137 6/6/137 50/52/137
f 98/109/138 96/106/138 50/52/138
f 5/5/139 98/109/139 50/52/139
f 67/69/140 63/65/140 6/6/140
f 38/39/141 67/69/141 6/6/141
f 96/106/142 95/105/142 33/35/142
f 95/105/143 11/12/143 33/35/143
f 34/36/144 14/14/144 48/50/144
f 91/97/145 14/14/145 34/36/145
f 48/50/146 14/14/146 49/51/146
f 57/59/147 96/106/147 98/109/147
f 57/59/148 98/109/148 5/5/148
f 57/59/149 88/93/149 96/106/149
f 57/59/150 60/62/150 88/93/150
f 57/59/151 5/5/151 7/7/151
f 57/59/152 7/7/152 58/60/152
