# Blender v2.79 (sub 0) OBJ File: ''
# www.blender.org
mtllib crack_only_98.mtl
o crack_only_98
v 2.912804 2.572969 -4.647908
v 2.934222 2.564559 -4.425149
v 2.795686 2.133548 -4.642640
v 2.826269 1.408437 -3.305166
v 2.773380 1.237931 -3.602741
v 2.897713 1.984533 -3.666405
v 3.022356 2.496273 -2.489846
v 3.041214 2.750713 -2.052918
v 2.983978 2.404573 -2.246099
v 3.100965 2.889921 -2.513960
v 2.820506 1.682114 -1.943565
v 2.884726 2.006847 -2.204220
v 2.811233 1.949440 -1.559317
v 2.824130 1.357967 -2.204856
v 2.865337 1.758065 -2.442336
v 2.861408 1.540027 -2.933609
v 2.828529 1.168981 -2.659362
v 2.959712 2.507581 -1.680623
v 2.988643 2.687952 -1.258489
v 2.872323 2.303906 -1.373234
v 2.828726 1.159174 -2.780089
v 2.748243 1.459109 -4.014019
v 2.751404 1.765871 -4.342038
v 2.822443 1.129588 -3.123207
v 2.799467 1.618567 -1.824578
v 2.810859 1.153573 -3.260478
v 2.903876 1.827678 -2.690926
v 2.967932 2.834432 -4.645469
v 3.019895 2.595609 -3.833521
v 3.069795 2.902429 -3.908201
v 3.009905 2.705116 -4.142910
v 3.051757 2.947521 -1.253511
v 3.033104 2.868154 -1.445773
v 3.061367 2.721100 -3.386069
v 3.043484 2.607099 -3.252572
v 3.080744 2.784225 -3.112266
v 3.119430 3.005047 -2.944679
v 3.069606 2.700351 -2.902515
v 3.171004 3.337032 -2.632375
v 3.132198 3.204724 -2.171533
v 3.091290 2.909711 -3.349513
v 3.116059 3.226841 -1.244691
v 3.128286 3.316436 -1.598983
v 2.989202 2.911094 -4.578200
v 3.044856 3.055850 -4.279435
v 2.985492 2.963012 -4.684592
v 3.038715 3.173535 -4.425393
v 2.835826 2.374276 -4.783359
v 3.144229 3.215493 -3.166856
v 2.878897 2.587534 -4.897166
v 2.950135 2.789651 -4.773541
v 3.167254 3.703220 -1.287241
v 2.926657 2.771769 -4.991562
v 2.969130 2.910370 -4.939732
v 3.003977 2.975130 -5.068385
v 3.165093 3.516054 -1.765220
v 3.176633 3.935022 -1.668502
v 3.194348 3.891261 -2.016986
v 2.977815 2.175678 -3.053123
v 2.994157 2.360208 -3.519874
v 2.983104 2.281084 -2.821432
v 3.043769 2.903039 -1.650782
v 3.082223 3.384311 -4.291295
v 3.140629 3.558733 -3.854252
v 3.081765 3.153726 -4.069899
v 3.191407 3.858332 -2.391657
v 3.045181 3.301763 -4.503040
v 2.897514 2.241620 -4.173625
v 3.172938 3.518258 -2.005476
v 3.040143 3.109899 -5.061451
v 3.021682 3.164770 -4.874139
v 3.185609 3.644312 -3.413873
v 3.183810 3.762135 -2.731096
v 3.103586 3.029954 -3.630661
v 3.201246 3.946384 -1.302315
v 3.018988 3.231661 -4.699747
vt 0.681960 0.084203
vt 0.662729 0.140147
vt 0.511249 0.061639
vt 0.139261 0.361982
vt 0.095976 0.277700
vt 0.385794 0.301238
vt 0.491504 0.625076
vt 0.553028 0.748225
vt 0.436084 0.681258
vt 0.644361 0.640046
vt 0.134212 0.718537
vt 0.279078 0.670270
vt 0.202940 0.828691
vt 0.034432 0.636377
vt 0.204094 0.597448
vt 0.161239 0.462670
vt 0.000000 0.512442
vt 0.428710 0.828495
vt 0.464483 0.944303
vt 0.323764 0.894346
vt 0.005800 0.481557
vt 0.208747 0.185036
vt 0.348513 0.118059
vt 0.021233 0.393596
vt 0.100042 0.744979
vt 0.040167 0.360097
vt 0.251699 0.538930
vt 0.782223 0.098832
vt 0.633219 0.291833
vt 0.697462 0.219364
vt 0.756038 0.289276
vt 0.564326 0.959585
vt 0.548736 0.906906
vt 0.647385 0.411404
vt 0.650615 0.483796
vt 0.593530 0.438983
vt 0.721887 0.537711
vt 0.602401 0.532191
vt 0.823927 0.633870
vt 0.736437 0.742637
vt 0.716398 0.430581
vt 0.671277 0.976852
vt 0.732972 0.892376
vt 0.806730 0.119945
vt 0.840523 0.203260
vt 0.834102 0.095744
vt 0.895270 0.172399
vt 0.614087 0.038973
vt 0.818914 0.492793
vt 0.704795 0.021729
vt 0.774519 0.064077
vt 0.854650 0.990998
vt 0.783489 0.007964
vt 0.833491 0.028623
vt 0.869700 0.000000
vt 0.822332 0.861156
vt 0.983142 0.817204
vt 0.971106 0.906904
vt 0.413726 0.466414
vt 0.519720 0.358498
vt 0.435101 0.530155
vt 0.578353 0.857214
vt 0.965718 0.217441
vt 0.999896 0.337106
vt 0.862741 0.261477
vt 1.000000 0.721177
vt 0.949358 0.159443
vt 0.520903 0.186586
vt 0.842392 0.800896
vt 0.921404 0.009076
vt 0.926041 0.058757
vt 1.000000 0.452922
vt 0.990323 0.630748
vt 0.783769 0.366072
vt 0.948208 1.000000
vt 0.937103 0.106011
vn 0.9609 -0.2573 -0.1021
vn 0.9824 -0.1702 -0.0771
vn 0.9759 -0.2042 0.0768
vn 0.9791 -0.1913 0.0691
vn 0.9883 -0.1131 0.1026
vn 0.9874 -0.0923 0.1282
vn 0.9955 -0.0930 0.0161
vn 0.9974 -0.0621 0.0355
vn 0.9493 -0.3073 0.0663
vn 0.9966 -0.0822 0.0083
vn 0.9725 -0.1747 -0.1540
vn 0.9959 -0.0897 -0.0105
vn 0.9865 -0.1225 0.1090
vn 0.9883 -0.0823 -0.1285
vn 0.9887 -0.0130 0.1496
vn 0.9878 -0.0907 0.1262
vn 0.9736 -0.2043 -0.1013
vn 0.9785 -0.1826 -0.0962
vn 0.9717 -0.2363 0.0033
vn 0.9823 -0.1854 -0.0268
vn 0.9865 -0.1631 -0.0128
vn 0.9880 -0.1545 0.0011
vn 0.9869 -0.1615 -0.0009
vn 0.9807 -0.1949 0.0159
vn 0.9814 -0.1774 0.0736
vn 0.9881 -0.1499 -0.0354
vn 0.9887 -0.1438 0.0420
vn 0.9765 -0.2144 -0.0205
vn 0.9771 -0.1939 -0.0881
vn 0.9700 -0.1658 -0.1776
vn 0.9771 -0.1939 -0.0880
vn 0.9787 -0.1691 -0.1167
vn 0.9854 -0.1101 -0.1302
vn 0.9524 -0.2558 -0.1660
vn 0.9883 -0.1494 -0.0312
vn 0.9573 -0.2605 -0.1258
vn 0.9523 -0.2582 -0.1624
vn 0.9766 -0.2053 -0.0639
vn 0.9943 -0.1062 0.0075
vn 0.9839 -0.1590 -0.0811
vn 0.9544 -0.2880 -0.0792
vn 0.9418 -0.3232 0.0924
vn 0.9611 -0.2639 -0.0818
vn 0.9888 -0.1403 0.0505
vn 0.9976 -0.0404 0.0558
vn 0.9860 -0.1641 -0.0304
vn 0.9842 -0.1763 -0.0187
vn 0.9642 -0.2594 0.0542
vn 0.9745 -0.2243 -0.0020
vn 0.9816 -0.1805 0.0621
vn 0.9792 -0.2023 0.0165
vn 0.9763 -0.2150 0.0249
vn 0.9911 -0.0934 -0.0952
vn 0.9956 -0.0686 0.0641
vn 0.9904 -0.1332 0.0380
vn 0.9845 -0.1245 -0.1237
vn 0.9792 -0.1748 0.1029
vn 0.9862 -0.1581 0.0494
vn 0.9677 -0.2247 -0.1143
vn 0.9726 -0.2172 -0.0832
vn 0.9934 -0.1052 -0.0451
vn 0.9983 -0.0574 -0.0028
vn 0.9494 -0.2636 0.1708
vn 0.9813 -0.1916 -0.0166
vn 0.9615 -0.2352 0.1420
vn 0.9804 -0.1949 -0.0295
vn 0.9775 -0.2057 0.0468
vn 0.9905 -0.1364 -0.0186
vn 0.9659 -0.2282 0.1220
vn 0.9861 -0.1627 0.0334
vn 0.9936 -0.1101 -0.0247
vn 0.9785 -0.2054 -0.0183
vn 0.9798 -0.1995 0.0135
vn 0.9819 -0.1882 -0.0231
vn 0.9996 -0.0284 0.0075
vn 0.9917 -0.1025 -0.0782
vn 0.9913 -0.1037 -0.0811
vn 0.9845 -0.1703 -0.0416
vn 0.9849 -0.1679 -0.0420
vn 0.9847 -0.1684 -0.0456
vn 0.9881 -0.1525 -0.0220
vn 0.9877 -0.1557 0.0116
vn 0.9881 -0.1482 -0.0410
vn 0.9726 -0.2171 -0.0835
vn 0.9842 -0.1739 0.0339
vn 0.9815 -0.1872 -0.0396
vn 0.9950 -0.0722 -0.0685
vn 0.9943 -0.0515 -0.0929
vn 0.9743 -0.2127 0.0744
vn 0.9778 -0.2090 0.0153
vn 0.9994 -0.0331 -0.0130
vn 0.9725 -0.1750 -0.1536
vn 0.9874 -0.1567 -0.0238
vn 0.9922 -0.1185 -0.0395
vn 0.9924 -0.0965 -0.0765
vn 0.9813 -0.1349 -0.1370
vn 0.9689 -0.2329 0.0840
vn 0.9672 -0.2379 0.0890
vn 0.9654 -0.2304 0.1218
vn 0.9754 -0.2056 0.0793
vn 0.9890 -0.1449 0.0310
vn 0.9877 -0.1518 0.0364
vn 0.9979 -0.0563 0.0321
vn 0.9896 -0.1353 0.0485
vn 0.9977 -0.0121 -0.0667
vn 0.9674 -0.2272 -0.1117
vn 0.9635 -0.2239 -0.1469
vn 0.9606 -0.2303 -0.1555
vn 0.9909 -0.1201 0.0614
vn 0.9868 -0.1294 -0.0975
vn 0.9899 -0.1067 -0.0938
vn 0.9868 -0.1286 -0.0982
vn 0.9599 -0.2498 -0.1270
vn 0.9586 -0.2403 -0.1527
vn 0.9860 -0.1165 -0.1193
vn 0.9839 -0.1168 -0.1356
vn 0.9842 -0.1401 -0.1079
usemtl None
s off
f 1/1/1 2/2/1 3/3/1
f 4/4/2 5/5/2 6/6/2
f 7/7/3 8/8/3 9/9/3
f 7/7/4 10/10/4 8/8/4
f 11/11/5 12/12/5 13/13/5
f 12/12/6 11/11/6 14/14/6
f 12/12/7 14/14/7 15/15/7
f 16/16/8 14/14/8 17/17/8
f 18/18/9 19/19/9 20/20/9
f 16/16/10 17/17/10 21/21/10
f 22/22/11 23/23/11 6/6/11
f 16/16/12 21/21/12 24/24/12
f 11/11/13 13/13/13 25/25/13
f 4/4/14 26/26/14 5/5/14
f 27/27/15 15/15/15 14/14/15
f 25/25/16 14/14/16 11/11/16
f 2/2/17 1/1/17 28/28/17
f 29/29/18 31/30/18 30/31/18
f 32/32/19 19/19/19 33/33/19
f 34/34/20 36/35/20 35/36/20
f 37/37/21 38/38/21 36/35/21
f 37/37/22 39/39/22 10/10/22
f 38/38/23 37/37/23 10/10/23
f 38/38/24 10/10/24 7/7/24
f 8/8/25 10/10/25 40/40/25
f 41/41/26 36/35/26 34/34/26
f 39/39/27 40/40/27 10/10/27
f 42/42/28 33/33/28 43/43/28
f 44/44/29 45/45/29 2/2/29
f 45/45/30 31/30/30 2/2/30
f 44/44/31 2/2/31 28/28/31
f 46/46/32 44/44/32 28/28/32
f 44/44/33 47/47/33 45/45/33
f 1/1/34 3/3/34 48/48/34
f 49/49/35 37/37/35 36/35/35
f 49/49/26 36/35/26 41/41/26
f 50/50/36 51/51/36 48/48/36
f 1/1/37 48/48/37 51/51/37
f 28/28/38 1/1/38 51/51/38
f 42/42/39 43/43/39 52/52/39
f 28/28/40 51/51/40 46/46/40
f 53/53/41 51/51/41 50/50/41
f 54/54/42 53/53/42 55/55/42
f 53/53/43 54/54/43 51/51/43
f 56/56/44 52/52/44 43/43/44
f 56/56/45 58/57/45 57/58/45
f 35/36/46 59/59/46 60/60/46
f 35/36/47 60/60/47 34/34/47
f 61/61/48 7/7/48 9/9/48
f 42/42/49 32/32/49 33/33/49
f 62/62/50 8/8/50 40/40/50
f 62/62/51 43/43/51 33/33/51
f 18/18/52 33/33/52 19/19/52
f 63/63/53 64/64/53 65/65/53
f 66/66/54 40/40/54 39/39/54
f 35/36/55 61/61/55 59/59/55
f 67/67/56 63/63/56 47/47/56
f 12/12/57 15/15/57 27/27/57
f 59/59/58 61/61/58 27/27/58
f 29/29/59 6/6/59 68/68/59
f 29/29/60 60/60/60 6/6/60
f 66/66/61 69/69/61 40/40/61
f 69/69/62 66/66/62 58/57/62
f 70/70/63 71/71/63 55/55/63
f 46/46/64 51/51/64 71/71/64
f 54/54/65 55/55/65 71/71/65
f 54/54/66 71/71/66 51/51/66
f 62/62/67 40/40/67 43/43/67
f 39/39/68 37/37/68 49/49/68
f 12/12/69 27/27/69 9/9/69
f 61/61/70 9/9/70 27/27/70
f 49/49/71 72/72/71 39/39/71
f 61/61/72 35/36/72 38/38/72
f 38/38/73 7/7/73 61/61/73
f 35/36/74 36/35/74 38/38/74
f 72/72/75 73/73/75 39/39/75
f 64/64/76 74/74/76 65/65/76
f 74/74/77 64/64/77 72/72/77
f 30/31/78 74/74/78 29/29/78
f 74/74/79 34/34/79 60/60/79
f 60/60/80 29/29/80 74/74/80
f 74/74/81 41/41/81 34/34/81
f 16/16/82 27/27/82 14/14/82
f 4/4/83 6/6/83 16/16/83
f 16/16/84 6/6/84 60/60/84
f 59/59/85 27/27/85 16/16/85
f 59/59/86 16/16/86 60/60/86
f 26/26/87 4/4/87 16/16/87
f 16/16/88 24/24/88 26/26/88
f 62/62/89 18/18/89 8/8/89
f 18/18/90 62/62/90 33/33/90
f 73/73/91 66/66/91 39/39/91
f 5/5/92 22/22/92 6/6/92
f 49/49/93 41/41/93 74/74/93
f 49/49/94 74/74/94 72/72/94
f 30/31/95 65/65/95 74/74/95
f 65/65/96 30/31/96 31/30/96
f 18/18/97 12/12/97 9/9/97
f 12/12/98 18/18/98 13/13/98
f 18/18/99 20/20/99 13/13/99
f 18/18/100 9/9/100 8/8/100
f 40/40/101 69/69/101 56/56/101
f 56/56/102 43/43/102 40/40/102
f 69/69/103 58/57/103 56/56/103
f 75/75/104 52/52/104 56/56/104
f 57/58/105 75/75/105 56/56/105
f 68/68/106 31/30/106 29/29/106
f 68/68/107 2/2/107 31/30/107
f 68/68/108 3/3/108 2/2/108
f 76/76/109 46/46/109 71/71/109
f 46/46/110 47/47/110 44/44/110
f 76/76/111 67/67/111 47/47/111
f 76/76/112 47/47/112 46/46/112
f 68/68/113 6/6/113 23/23/113
f 68/68/114 23/23/114 3/3/114
f 45/45/115 63/63/115 65/65/115
f 47/47/116 63/63/116 45/45/116
f 45/45/117 65/65/117 31/30/117
