# Blender v2.79 (sub 0) OBJ File: ''
# www.blender.org
mtllib crack_only_51.mtl
o crack_only_51
v 2.834550 1.225503 -3.262834
v 2.863162 1.364002 -2.969021
v 2.838199 1.406020 -3.322707
v 2.804517 1.287445 -3.522027
v 2.788265 1.236247 -3.613162
v 2.830194 1.623067 -3.660640
v 2.878465 1.732286 -3.475242
v 2.914231 1.888962 -3.548720
v 2.870104 1.575763 -3.001554
v 2.842596 1.356024 -2.205229
v 2.872151 1.470372 -2.490283
v 2.870902 1.244340 -2.466313
v 2.876492 1.402584 -2.729901
v 2.896507 1.724650 -2.699944
v 2.879564 1.580296 -2.757070
v 2.905552 1.800220 -3.362000
v 2.970667 1.974492 -3.252060
v 2.958751 2.058801 -3.644167
v 2.769388 1.353725 -3.821334
v 2.833225 1.747034 -3.899344
v 2.748976 1.487575 -4.053549
v 2.803266 1.207926 -3.505848
v 2.822603 1.171330 -3.357619
v 2.874914 1.802690 -2.374308
v 2.945887 1.994367 -2.650625
v 2.821135 1.716920 -2.049501
v 2.814805 1.587488 -2.059061
v 2.764938 1.925421 -1.588058
v 2.742176 1.798550 -1.692388
v 2.784043 1.989176 -1.733296
v 2.800484 1.492622 -2.018664
v 2.916902 2.008601 -3.789722
v 2.869348 1.160542 -2.663202
v 2.866534 1.152923 -2.754720
v 2.849443 1.122703 -3.132474
v 3.021499 2.148451 -3.369974
v 3.020139 2.224766 -2.921802
v 2.949476 2.195178 -2.447197
v 2.835085 1.856520 -4.025100
v 2.783005 1.801701 -1.876808
v 2.844241 1.941267 -2.059218
v 2.808587 1.769071 -1.975700
v 2.749955 1.630635 -1.823634
v 2.733574 1.703146 -4.258655
v 2.823321 2.060147 -1.879843
v 2.894979 2.132383 -2.125496
vt 0.898819 0.645377
vt 0.730651 0.661818
vt 0.793069 0.531726
vt 0.826375 0.739685
vt 0.867521 0.775189
vt 0.509278 0.780435
vt 0.419137 0.708073
vt 0.267518 0.730402
vt 0.598402 0.537000
vt 0.862213 0.247979
vt 0.939324 0.348704
vt 0.733129 0.350323
vt 0.775190 0.441605
vt 0.484145 0.420110
vt 0.612171 0.445976
vt 0.363268 0.663830
vt 0.206434 0.617455
vt 0.101229 0.760490
vt 0.747515 0.848757
vt 0.378355 0.865186
vt 0.611037 0.930732
vt 0.899617 0.736234
vt 0.941842 0.682342
vt 0.441626 0.296485
vt 0.238302 0.393163
vt 0.550950 0.178393
vt 0.667899 0.186113
vt 0.405381 0.000000
vt 0.514654 0.042840
vt 0.334155 0.051976
vt 0.758487 0.174129
vt 0.140371 0.816146
vt 0.999893 0.424606
vt 1.000000 0.458872
vt 1.000000 0.600258
vt 0.033903 0.655775
vt 0.000000 0.486686
vt 0.072293 0.311057
vt 0.269444 0.908410
vt 0.492466 0.111380
vt 0.511118 0.149248
vt 0.344712 0.174808
vt 0.655172 0.097070
vt 0.402236 1.000000
vt 0.253840 0.104243
vt 0.160711 0.193377
vn 0.9961 -0.0452 -0.0757
vn 0.9868 -0.1203 -0.1084
vn 0.9600 -0.2636 -0.0947
vn 0.9962 -0.0443 -0.0756
vn 0.9944 0.0057 0.1054
vn 0.9998 -0.0035 0.0191
vn 0.9884 -0.1161 -0.0980
vn 0.9719 -0.1868 -0.1430
vn 0.9941 -0.1022 -0.0366
vn 0.9980 -0.0403 -0.0491
vn 0.9504 -0.2973 -0.0917
vn 0.9583 -0.2808 -0.0526
vn 0.9791 -0.1257 -0.1597
vn 0.9636 -0.2560 -0.0769
vn 0.9757 -0.1793 -0.1258
vn 0.9855 -0.1692 -0.0085
vn 0.9628 -0.2445 -0.1147
vn 0.9792 -0.1263 -0.1589
vn 0.9876 -0.0461 -0.1502
vn 0.9941 -0.0518 -0.0957
vn 0.9891 -0.0449 -0.1401
vn 0.9890 -0.0442 -0.1408
vn 0.9938 -0.1097 -0.0176
vn 0.9966 -0.0342 0.0743
vn 0.9736 -0.1988 0.1122
vn 0.9941 0.0125 0.1081
vn 0.9872 -0.0597 0.1477
vn 0.9548 -0.0681 0.2893
vn 0.9777 -0.2066 0.0379
vn 0.9679 -0.0405 0.2481
vn 0.9456 -0.2723 -0.1780
vn 0.9996 -0.0284 0.0042
vn 0.9989 -0.0371 -0.0276
vn 0.9984 -0.0214 -0.0522
vn 0.9985 -0.0356 -0.0423
vn 0.9990 -0.0231 -0.0382
vn 0.9997 -0.0139 0.0220
vn 0.9467 -0.3166 -0.0589
vn 0.9785 -0.1553 0.1360
vn 0.9427 -0.3163 -0.1065
vn 0.9434 -0.3114 -0.1141
vn 0.9559 -0.2284 -0.1847
vn 0.9590 -0.2562 -0.1209
vn 0.9732 -0.2283 0.0272
vn 0.9732 -0.2284 0.0275
vn 0.9753 -0.1968 0.0998
vn 0.9668 -0.2515 0.0458
vn 0.9603 -0.0675 0.2707
vn 0.9552 -0.0977 0.2793
vn 0.9398 -0.1979 -0.2785
vn 0.9625 -0.2115 -0.1699
vn 0.9578 -0.1753 0.2279
vn 0.9645 -0.1939 0.1792
vn 0.9858 -0.0956 0.1380
vn 0.9946 0.0133 -0.1031
vn 0.9927 -0.0086 -0.1202
vn 0.9772 -0.1596 0.1403
vn 0.9778 -0.1608 0.1343
vn 0.9662 -0.1482 0.2109
vn 0.9708 -0.1492 0.1879
vn 0.9633 -0.1664 0.2104
vn 0.9696 -0.1212 0.2126
vn 0.9550 -0.0962 0.2807
vn 0.9622 -0.0300 0.2706
vn 0.9694 -0.0900 0.2284
vn 0.9755 -0.0633 0.2106
usemtl None
s off
f 1/1/1 3/2/1 2/3/1
f 4/4/2 5/5/2 6/6/2
f 7/7/3 6/6/3 8/8/3
f 3/2/4 9/9/4 2/3/4
f 10/10/5 12/11/5 11/12/5
f 12/11/6 13/13/6 11/12/6
f 4/4/7 6/6/7 3/2/7
f 7/7/8 3/2/8 6/6/8
f 14/14/9 15/15/9 9/9/9
f 2/3/10 9/9/10 13/13/10
f 16/16/11 17/17/11 9/9/11
f 18/18/12 8/8/12 6/6/12
f 5/5/13 19/19/13 6/6/13
f 16/16/14 7/7/14 8/8/14
f 16/16/15 3/2/15 7/7/15
f 16/16/16 9/9/16 3/2/16
f 20/20/17 6/6/17 21/21/17
f 6/6/18 19/19/18 21/21/18
f 4/4/19 22/22/19 5/5/19
f 1/1/20 23/23/20 3/2/20
f 22/22/21 3/2/21 23/23/21
f 22/22/22 4/4/22 3/2/22
f 15/15/23 14/14/23 11/12/23
f 14/14/24 24/24/24 11/12/24
f 25/25/25 24/24/25 14/14/25
f 26/26/26 10/10/26 11/12/26
f 26/26/27 11/12/27 24/24/27
f 26/26/28 27/27/28 10/10/28
f 28/28/29 29/29/29 30/30/29
f 31/31/30 10/10/30 27/27/30
f 32/32/31 18/18/31 6/6/31
f 33/33/32 13/13/32 12/11/32
f 34/34/33 13/13/33 33/33/33
f 35/35/34 2/3/34 13/13/34
f 34/34/35 35/35/35 13/13/35
f 15/15/36 13/13/36 9/9/36
f 15/15/37 11/12/37 13/13/37
f 36/36/38 17/17/38 16/16/38
f 25/25/39 37/37/39 38/38/39
f 36/36/40 16/16/40 8/8/40
f 18/18/41 36/36/41 8/8/41
f 39/39/42 32/32/42 20/20/42
f 32/32/43 6/6/43 20/20/43
f 17/17/44 37/37/44 9/9/44
f 14/14/45 9/9/45 37/37/45
f 14/14/46 37/37/46 25/25/46
f 36/36/47 37/37/47 17/17/47
f 40/40/48 42/41/48 41/42/48
f 42/41/49 40/40/49 43/43/49
f 39/39/50 21/21/50 44/44/50
f 39/39/51 20/20/51 21/21/51
f 45/45/52 41/42/52 46/46/52
f 41/42/53 24/24/53 46/46/53
f 26/26/54 24/24/54 41/42/54
f 35/35/55 1/1/55 2/3/55
f 1/1/56 35/35/56 23/23/56
f 38/38/57 24/24/57 25/25/57
f 38/38/58 46/46/58 24/24/58
f 45/45/59 40/40/59 41/42/59
f 45/45/60 30/30/60 40/40/60
f 29/29/61 40/40/61 30/30/61
f 29/29/62 43/43/62 40/40/62
f 27/27/63 42/41/63 43/43/63
f 27/27/64 43/43/64 31/31/64
f 41/42/65 42/41/65 26/26/65
f 42/41/66 27/27/66 26/26/66
