# Blender v2.79 (sub 0) OBJ File: ''
# www.blender.org
mtllib crack_only_114.mtl
o crack_only_114
v 2.820576 1.405866 -3.307652
v 2.767357 1.264854 -3.647996
v 2.944362 2.225757 -3.427848
v 3.010617 2.499250 -2.493601
v 3.045926 2.800990 -2.067490
v 2.982291 2.406360 -2.245169
v 3.092778 2.893363 -2.518960
v 2.821892 1.681349 -1.942524
v 2.881168 2.008145 -2.208398
v 2.815354 1.947650 -1.559928
v 2.809241 1.359534 -2.204555
v 2.860953 1.754682 -2.451676
v 2.838178 1.373666 -2.858593
v 2.815990 1.171893 -2.657195
v 3.216073 4.581131 -1.721767
v 3.222805 4.653528 -1.358889
v 3.205723 4.157236 -1.688393
v 2.974771 2.596106 -1.537915
v 2.985740 2.688336 -1.259113
v 2.873967 2.303205 -1.372884
v 2.872290 1.675344 -2.751056
v 2.816340 1.161265 -2.787667
v 2.748335 1.459096 -4.014083
v 2.754059 1.765621 -4.343713
v 2.810845 1.132546 -3.119226
v 3.149271 3.328374 -2.597976
v 3.183504 3.828752 -2.307247
v 3.194478 3.939079 -2.689963
v 2.804349 1.617752 -1.824279
v 3.040599 2.951468 -1.415194
v 2.800487 1.157695 -3.266833
v 3.119437 3.175948 -2.194920
v 3.159740 3.477706 -3.053194
v 3.127922 3.213126 -3.192240
v 3.135940 3.249480 -3.004930
v 3.073210 2.828622 -3.063634
v 3.189898 3.785298 -3.086344
v 3.163081 3.528922 -3.417504
v 3.114164 3.142901 -3.379373
v 3.181931 3.868783 -3.461154
v 3.188652 3.913640 -3.338113
v 3.069665 3.226091 -4.219809
v 3.092396 3.368992 -4.198740
v 3.096393 3.331965 -4.067606
v 3.043211 3.147226 -4.387974
v 3.106994 3.571342 -4.435607
v 3.043925 3.215814 -4.507422
v 3.185933 4.007495 -2.168977
v 3.176199 3.766253 -2.019456
v 3.201095 4.201892 -2.029517
v 3.194589 4.185265 -2.367143
v 3.151747 3.640307 -1.284061
v 3.160133 3.620090 -1.629312
v 3.123978 3.292062 -1.600070
v 3.142155 3.472196 -2.002661
v 3.130825 3.403163 -1.892182
v 3.182744 3.851539 -1.873446
v 3.191341 3.985732 -1.314613
v 3.177681 3.818304 -1.461386
v 3.180650 3.834226 -1.652667
v 3.061032 3.157707 -5.072861
v 3.050608 3.360007 -4.877762
v 2.999788 3.025815 -4.772093
v 3.205494 4.099879 -1.315467
v 3.129563 3.839005 -4.243222
v 3.079661 3.454542 -5.065902
v 2.961374 2.507569 -1.680375
v 3.101210 3.220316 -1.761867
v 3.040652 2.887494 -1.645483
v 2.992226 2.925778 -5.060249
v 2.951216 2.803183 -5.010451
v 2.873571 2.541605 -4.882403
v 3.137056 3.977699 -4.327518
v 3.120819 3.917070 -4.513596
v 3.215519 4.438998 -2.174157
v 3.186056 4.143275 -3.611962
v 3.156931 3.857167 -3.855901
v 3.170376 4.106429 -3.789467
v 3.155915 4.066984 -3.990004
v 3.209566 4.408122 -2.319424
v 3.206328 4.276260 -2.836792
v 3.211170 4.371677 -2.479405
v 2.991540 2.584599 -3.811509
v 3.065408 2.827201 -3.338894
v 3.054693 2.816146 -3.539151
v 3.021703 3.090012 -4.513642
v 3.020801 2.902523 -4.178315
v 2.945065 2.596762 -4.300264
v 2.916314 2.374068 -4.138253
v 2.796448 2.132938 -4.642725
v 2.940344 2.117517 -2.633019
v 3.065707 3.737652 -4.768289
v 3.075020 3.707100 -5.012865
v 3.056262 3.339322 -4.685084
v 3.199690 4.245507 -3.152396
v 3.198569 4.135453 -3.083617
v 3.113146 3.334681 -3.824563
v 3.079480 3.002288 -3.657204
v 3.105380 3.358181 -1.263262
v 3.142005 3.542647 -3.749369
vt 0.118412 0.342442
vt 0.097021 0.251157
vt 0.384436 0.359328
vt 0.405062 0.602890
vt 0.469225 0.723742
vt 0.357724 0.658118
vt 0.531512 0.619137
vt 0.106600 0.690588
vt 0.228469 0.644245
vt 0.161311 0.798470
vt 0.025490 0.608882
vt 0.166807 0.570790
vt 0.077330 0.450392
vt 0.000000 0.488232
vt 1.000000 0.907439
vt 0.996850 1.000000
vt 0.866571 0.892216
vt 0.365783 0.840988
vt 0.374870 0.914169
vt 0.259910 0.864185
vt 0.164013 0.493515
vt 0.005987 0.455824
vt 0.182116 0.172326
vt 0.300191 0.108793
vt 0.020428 0.373312
vt 0.673383 0.624288
vt 0.869896 0.635806
vt 0.808333 0.723005
vt 0.077937 0.715771
vt 0.469160 0.891072
vt 0.038245 0.338583
vt 0.596674 0.713954
vt 0.752090 0.521538
vt 0.677401 0.520554
vt 0.679165 0.472787
vt 0.549415 0.482523
vt 0.850418 0.530627
vt 0.793833 0.435511
vt 0.670254 0.423149
vt 0.902416 0.443699
vt 0.907780 0.476241
vt 0.753763 0.222259
vt 0.797194 0.235464
vt 0.776639 0.265460
vt 0.740355 0.176649
vt 0.876924 0.188930
vt 0.769992 0.151282
vt 0.853721 0.766569
vt 0.904341 0.811406
vt 0.768383 0.789709
vt 0.922900 0.728068
vt 0.676483 0.961953
vt 0.590470 0.865481
vt 0.695050 0.876703
vt 0.675237 0.777335
vt 0.645689 0.800386
vt 0.784573 0.830072
vt 0.786652 0.973844
vt 0.744921 0.928718
vt 0.763504 0.882959
vt 0.792827 0.010325
vt 0.840952 0.068919
vt 0.728488 0.075858
vt 0.822444 0.980039
vt 0.946661 0.250771
vt 0.884551 0.028495
vt 0.348074 0.801246
vt 0.578946 0.821851
vt 0.465769 0.831384
vt 0.717788 0.000000
vt 0.674887 0.005018
vt 0.582184 0.021139
vt 0.995679 0.237892
vt 0.989556 0.189014
vt 0.988239 0.789276
vt 0.997878 0.422014
vt 0.925856 0.346520
vt 0.998500 0.376538
vt 1.000000 0.325312
vt 0.988790 0.752086
vt 0.984697 0.618609
vt 0.988959 0.711075
vt 0.524066 0.285892
vt 0.568190 0.415220
vt 0.578566 0.365657
vt 0.730798 0.142643
vt 0.649198 0.214146
vt 0.560673 0.166875
vt 0.479434 0.193894
vt 0.436248 0.056424
vt 0.294568 0.547242
vt 0.950182 0.116497
vt 0.958462 0.055248
vt 0.821134 0.114841
vt 0.997336 0.539867
vt 0.958493 0.550594
vt 0.760892 0.325062
vt 0.645269 0.347317
vt 0.586256 0.951090
vt 0.820779 0.355101
vn 0.9831 -0.1612 -0.0869
vn 0.9828 -0.1788 0.0452
vn 0.9779 -0.2000 0.0606
vn 0.9902 -0.1059 0.0906
vn 0.9902 -0.1093 0.0864
vn 0.9934 -0.1100 0.0320
vn 0.9968 -0.0670 0.0427
vn 0.9996 -0.0255 -0.0135
vn 0.9538 -0.2945 0.0599
vn 0.9882 -0.1519 -0.0183
vn 0.9951 -0.0987 0.0107
vn 0.9800 -0.1540 -0.1262
vn 0.9945 -0.1047 -0.0074
vn 0.9973 -0.0727 0.0076
vn 0.9903 -0.1054 0.0903
vn 0.9814 -0.1902 0.0243
vn 0.9886 -0.0987 -0.1137
vn 0.9900 -0.1102 0.0876
vn 0.9832 -0.1699 0.0673
vn 0.9939 -0.1082 -0.0215
vn 0.9943 -0.1062 -0.0120
vn 0.9893 -0.1455 -0.0141
vn 0.9891 -0.1469 -0.0039
vn 0.9951 -0.0909 0.0393
vn 0.9919 -0.1240 0.0265
vn 0.9952 -0.0981 -0.0047
vn 0.9915 -0.1281 -0.0248
vn 0.9933 -0.1157 -0.0072
vn 0.9977 -0.0595 -0.0328
vn 0.9866 -0.1464 -0.0714
vn 0.9857 -0.1439 -0.0876
vn 0.9850 -0.1563 -0.0728
vn 0.9839 -0.1575 -0.0845
vn 0.9979 -0.0577 -0.0281
vn 0.9994 -0.0284 0.0192
vn 0.9977 -0.0664 -0.0160
vn 0.9938 -0.1068 0.0304
vn 0.9994 -0.0280 0.0186
vn 0.9994 -0.0276 0.0207
vn 0.9953 -0.0932 0.0260
vn 0.9941 -0.1013 0.0386
vn 0.9983 -0.0573 -0.0113
vn 0.9978 -0.0619 -0.0216
vn 0.9966 -0.0820 0.0007
vn 0.9955 -0.0946 0.0076
vn 0.9970 -0.0764 0.0091
vn 0.9955 -0.0952 0.0020
vn 0.9970 -0.0770 0.0034
vn 0.9995 -0.0257 -0.0169
vn 0.9826 -0.1000 0.1562
vn 0.9922 -0.1232 -0.0183
vn 0.9968 -0.0794 -0.0064
vn 0.9906 -0.0650 0.1203
vn 0.9794 -0.1895 0.0702
vn 0.9743 -0.2207 0.0455
vn 0.9856 -0.1591 0.0578
vn 0.9831 -0.1763 0.0484
vn 0.9995 -0.0316 -0.0042
vn 0.9793 -0.1960 -0.0509
vn 0.9892 -0.1460 0.0102
vn 0.9933 -0.1108 0.0340
vn 0.9930 -0.1140 0.0308
vn 0.9910 -0.1323 -0.0199
vn 0.9573 -0.2801 0.0721
vn 0.9544 -0.2887 0.0752
vn 0.9638 -0.2623 0.0486
vn 0.9944 -0.0889 -0.0578
vn 0.9986 -0.0516 0.0150
vn 0.9962 -0.0321 -0.0813
vn 0.9972 -0.0365 -0.0647
vn 0.9969 -0.0390 -0.0686
vn 0.9968 -0.0757 -0.0248
vn 0.9993 -0.0367 -0.0037
vn 0.9976 -0.0505 -0.0468
vn 0.9804 -0.1890 -0.0562
vn 0.9750 -0.2188 -0.0401
vn 0.9814 -0.1689 -0.0911
vn 0.9879 -0.1544 -0.0147
vn 0.9855 -0.1570 -0.0638
vn 0.9840 -0.1589 -0.0803
vn 0.9815 -0.1682 -0.0914
vn 0.9680 -0.2169 -0.1263
vn 0.9725 -0.2174 -0.0838
vn 0.9751 -0.2000 -0.0956
vn 0.9743 -0.2004 -0.1026
vn 0.9925 -0.1075 -0.0575
vn 0.9745 -0.2102 -0.0781
vn 0.9667 -0.2349 -0.1014
vn 0.9687 -0.2330 -0.0856
vn 0.9843 -0.1719 -0.0408
vn 0.9889 -0.1481 -0.0152
vn 0.9911 -0.1267 0.0411
vn 0.9939 -0.0914 0.0619
vn 0.9845 -0.1744 -0.0188
vn 0.9801 -0.1947 0.0390
vn 0.9851 -0.1534 0.0780
vn 0.9803 -0.1753 0.0915
vn 0.9682 -0.2391 0.0733
vn 0.9679 -0.2385 0.0786
vn 0.9843 -0.0754 -0.1599
vn 0.9905 -0.0733 0.1161
vn 0.9993 0.0107 0.0367
vn 0.9872 -0.0547 -0.1499
vn 0.9990 -0.0305 -0.0326
vn 0.9994 -0.0252 -0.0240
vn 0.9855 -0.1564 -0.0662
vn 0.9863 -0.1421 -0.0839
vn 0.9842 -0.1555 0.0849
vn 0.9934 -0.1150 0.0002
vn 0.9933 -0.1151 -0.0022
vn 0.9960 -0.0893 0.0075
vn 0.9799 -0.1505 -0.1308
vn 0.9942 -0.0849 -0.0663
vn 0.9965 -0.0755 -0.0357
vn 0.9942 -0.0919 -0.0563
vn 0.9913 -0.1133 -0.0671
vn 0.9928 -0.0779 -0.0908
vn 0.9863 -0.1592 -0.0440
vn 0.9810 -0.1786 -0.0756
vn 0.9810 -0.1783 -0.0763
vn 0.9865 -0.1579 -0.0432
vn 0.9897 -0.1311 -0.0572
vn 0.9883 -0.1497 -0.0272
vn 0.9807 -0.1934 -0.0268
vn 0.9791 -0.2033 -0.0099
vn 0.9788 -0.2047 -0.0108
vn 0.9853 -0.1647 -0.0461
vn 0.9851 -0.1654 -0.0465
vn 0.9853 -0.1646 -0.0466
vn 0.9687 -0.2362 0.0763
vn 0.9559 -0.2812 0.0848
vn 0.9663 -0.2251 0.1251
vn 0.9985 -0.0375 -0.0409
vn 0.9996 -0.0172 -0.0239
vn 0.9992 -0.0391 -0.0091
vn 0.9996 -0.0220 -0.0189
vn 0.9978 -0.0636 -0.0161
vn 0.9971 -0.0609 0.0461
vn 0.9781 -0.2014 0.0535
vn 0.9781 -0.2005 0.0559
vn 0.9832 -0.1753 0.0500
vn 0.9911 -0.1219 0.0542
vn 0.9794 -0.1952 -0.0513
vn 0.9936 -0.1112 -0.0190
vn 0.9976 -0.0591 -0.0351
vn 0.9995 -0.0246 -0.0175
vn 0.9997 -0.0247 -0.0020
vn 0.9695 -0.2294 -0.0862
vn 0.9682 -0.2153 -0.1272
vn 0.9897 -0.1301 -0.0593
vn 0.9913 -0.1131 -0.0676
vn 0.9943 -0.0961 -0.0459
vn 0.9951 -0.0880 -0.0453
vn 0.9967 -0.0316 -0.0753
vn 0.9951 -0.0986 -0.0095
vn 0.9973 -0.0714 0.0162
vn 0.9776 -0.1898 0.0912
vn 0.9765 -0.2076 0.0579
vn 0.9969 -0.0489 -0.0617
vn 0.9961 -0.0631 -0.0612
vn 0.9954 -0.0696 -0.0661
vn 0.9970 -0.0727 0.0266
usemtl None
s off
f 1/1/1 2/2/1 3/3/1
f 4/4/2 5/5/2 6/6/2
f 4/4/3 7/7/3 5/5/3
f 8/8/4 9/9/4 10/10/4
f 9/9/5 8/8/5 11/11/5
f 9/9/6 11/11/6 12/12/6
f 13/13/7 11/11/7 14/14/7
f 15/15/8 16/16/8 17/17/8
f 18/18/9 19/19/9 20/20/9
f 1/1/10 3/3/10 21/21/10
f 13/13/11 14/14/11 22/22/11
f 23/23/12 24/24/12 3/3/12
f 13/13/13 22/22/13 25/25/13
f 26/26/14 28/27/14 27/28/14
f 8/8/15 10/10/15 29/29/15
f 30/30/16 19/19/16 18/18/16
f 1/1/17 31/31/17 2/2/17
f 29/29/18 11/11/18 8/8/18
f 5/5/19 7/7/19 32/32/19
f 33/33/20 35/34/20 34/35/20
f 33/33/21 26/26/21 35/34/21
f 35/34/22 36/36/22 34/35/22
f 35/34/23 26/26/23 36/36/23
f 26/26/24 27/28/24 32/32/24
f 26/26/25 32/32/25 7/7/25
f 37/37/26 33/33/26 38/38/26
f 34/35/27 39/39/27 38/38/27
f 34/35/28 38/38/28 33/33/28
f 40/40/29 41/41/29 38/38/29
f 42/42/30 43/43/30 44/44/30
f 42/42/31 45/45/31 43/43/31
f 45/45/32 46/46/32 43/43/32
f 45/45/33 47/47/33 46/46/33
f 48/48/34 50/49/34 49/50/34
f 49/50/35 27/28/35 48/48/35
f 48/48/36 51/51/36 50/49/36
f 52/52/37 54/53/37 53/54/37
f 51/51/38 48/48/38 27/28/38
f 51/51/39 27/28/39 28/27/39
f 55/55/40 32/32/40 27/28/40
f 56/56/41 32/32/41 55/55/41
f 49/50/42 50/49/42 57/57/42
f 57/57/43 50/49/43 17/17/43
f 58/58/44 59/59/44 17/17/44
f 59/59/45 53/54/45 60/60/45
f 60/60/46 17/17/46 59/59/46
f 57/57/47 60/60/47 53/54/47
f 60/60/48 57/57/48 17/17/48
f 15/15/49 17/17/49 50/49/49
f 61/61/50 62/62/50 63/63/50
f 58/58/51 17/17/51 64/64/51
f 43/43/52 46/46/52 65/65/52
f 61/61/53 66/66/53 62/62/53
f 67/67/54 6/6/54 5/5/54
f 67/67/55 5/5/55 18/18/55
f 68/68/56 69/69/56 32/32/56
f 69/69/57 5/5/57 32/32/57
f 64/64/58 17/17/58 16/16/58
f 69/69/59 68/68/59 54/53/59
f 55/55/60 53/54/60 56/56/60
f 59/59/61 58/58/61 52/52/61
f 59/59/62 52/52/62 53/54/62
f 36/36/63 26/26/63 7/7/63
f 61/61/64 63/63/64 70/70/64
f 71/71/65 70/70/65 63/63/65
f 71/71/66 63/63/66 72/72/66
f 73/73/67 65/65/67 74/74/67
f 75/75/68 15/15/68 50/49/68
f 76/76/69 77/77/69 78/78/69
f 77/77/70 79/79/70 78/78/70
f 79/79/71 77/77/71 65/65/71
f 80/80/72 75/75/72 50/49/72
f 81/81/73 82/82/73 28/27/73
f 65/65/74 46/46/74 74/74/74
f 83/83/75 84/84/75 3/3/75
f 85/85/76 84/84/76 83/83/76
f 47/47/77 45/45/77 86/86/77
f 34/35/78 84/84/78 39/39/78
f 42/42/79 44/44/79 87/87/79
f 45/45/80 42/42/80 87/87/80
f 87/87/81 86/86/81 45/45/81
f 88/88/82 89/89/82 90/90/82
f 83/83/83 3/3/83 89/89/83
f 89/89/84 87/87/84 83/83/84
f 89/89/85 88/88/85 87/87/85
f 63/63/86 86/86/86 87/87/86
f 88/88/87 63/63/87 87/87/87
f 88/88/88 90/90/88 63/63/88
f 63/63/89 90/90/89 72/72/89
f 63/63/90 47/47/90 86/86/90
f 91/91/91 21/21/91 3/3/91
f 13/13/92 21/21/92 11/11/92
f 21/21/93 12/12/93 11/11/93
f 91/91/94 3/3/94 4/4/94
f 91/91/95 4/4/95 6/6/95
f 9/9/96 12/12/96 21/21/96
f 9/9/97 21/21/97 91/91/97
f 9/9/98 91/91/98 6/6/98
f 67/67/99 9/9/99 6/6/99
f 92/92/100 74/74/100 46/46/100
f 92/92/101 62/62/101 66/66/101
f 92/92/102 66/66/102 93/93/102
f 94/94/103 92/92/103 46/46/103
f 94/94/104 62/62/104 92/92/104
f 95/95/105 96/96/105 76/76/105
f 97/97/106 87/87/106 44/44/106
f 87/87/107 97/97/107 98/98/107
f 99/99/108 54/53/108 52/52/108
f 49/50/109 55/55/109 27/28/109
f 55/55/110 49/50/110 53/54/110
f 57/57/111 53/54/111 49/50/111
f 2/2/112 23/23/112 3/3/112
f 43/43/113 65/65/113 77/77/113
f 73/73/114 79/79/114 65/65/114
f 44/44/115 43/43/115 77/77/115
f 44/44/116 100/100/116 97/97/116
f 44/44/117 77/77/117 100/100/117
f 84/84/118 85/85/118 98/98/118
f 83/83/119 98/98/119 85/85/119
f 83/83/120 87/87/120 98/98/120
f 98/98/121 39/39/121 84/84/121
f 39/39/122 98/98/122 38/38/122
f 34/35/123 36/36/123 84/84/123
f 84/84/124 36/36/124 3/3/124
f 36/36/125 4/4/125 3/3/125
f 36/36/126 7/7/126 4/4/126
f 94/94/127 47/47/127 63/63/127
f 94/94/128 46/46/128 47/47/128
f 94/94/129 63/63/129 62/62/129
f 9/9/130 67/67/130 10/10/130
f 18/18/131 20/20/131 67/67/131
f 67/67/132 20/20/132 10/10/132
f 40/40/133 76/76/133 41/41/133
f 41/41/134 76/76/134 96/96/134
f 81/81/135 28/27/135 96/96/135
f 96/96/136 95/95/136 81/81/136
f 80/80/137 50/49/137 51/51/137
f 51/51/138 28/27/138 82/82/138
f 69/69/139 18/18/139 5/5/139
f 69/69/140 30/30/140 18/18/140
f 30/30/141 99/99/141 19/19/141
f 68/68/142 32/32/142 56/56/142
f 56/56/143 54/53/143 68/68/143
f 56/56/144 53/54/144 54/53/144
f 37/37/145 38/38/145 41/41/145
f 41/41/146 96/96/146 37/37/146
f 37/37/147 96/96/147 28/27/147
f 89/89/148 3/3/148 24/24/148
f 89/89/149 24/24/149 90/90/149
f 98/98/150 97/97/150 38/38/150
f 97/97/151 100/100/151 38/38/151
f 1/1/152 21/21/152 13/13/152
f 31/31/153 1/1/153 13/13/153
f 13/13/154 25/25/154 31/31/154
f 33/33/155 37/37/155 26/26/155
f 37/37/156 28/27/156 26/26/156
f 99/99/157 30/30/157 54/53/157
f 69/69/158 54/53/158 30/30/158
f 40/40/159 77/77/159 76/76/159
f 77/77/160 40/40/160 38/38/160
f 77/77/161 38/38/161 100/100/161
f 51/51/162 82/82/162 80/80/162
