# Blender v2.79 (sub 0) OBJ File: ''
# www.blender.org
mtllib crack_only_42.mtl
o crack_only_42
v 2.830760 1.375922 -3.369533
v 2.785476 1.238638 -3.617255
v 2.826802 1.691153 -3.658365
v 2.896621 1.715086 -2.703662
v 2.875775 1.406885 -2.735553
v 2.878147 1.575520 -2.993679
v 2.804193 1.207221 -3.508182
v 2.872110 1.469948 -2.485849
v 2.871867 1.760655 -2.333463
v 2.847994 1.357255 -2.202271
v 2.938597 1.931687 -2.889983
v 2.828091 1.783970 -2.120910
v 2.804053 1.496500 -2.011518
v 2.755416 1.633117 -1.819291
v 2.758403 1.416687 -3.930419
v 2.880656 1.221309 -2.529490
v 2.852424 1.121943 -3.133497
v 2.852149 1.306363 -3.090595
v 2.901983 1.881791 -2.477994
v 2.901908 1.853298 -3.332846
v 2.823448 1.171578 -3.362124
vt 0.622371 0.741601
vt 0.749530 0.867834
vt 0.152919 0.851687
vt 0.323150 0.404868
vt 0.716037 0.443724
vt 0.442205 0.550851
vt 0.812342 0.819385
vt 0.688728 0.322554
vt 0.345980 0.229034
vt 0.897323 0.199335
vt 0.000000 0.474647
vt 0.364886 0.128435
vt 0.630170 0.000000
vt 0.761721 0.099898
vt 0.453756 1.000000
vt 1.000000 0.362126
vt 1.000000 0.651272
vt 0.770964 0.616987
vt 0.156070 0.286810
vt 0.008295 0.687155
vt 0.888562 0.754036
vn 0.9871 -0.1014 -0.1242
vn 0.9974 -0.0641 -0.0327
vn 0.9849 -0.0131 -0.1728
vn 0.9970 -0.0708 0.0325
vn 0.9968 -0.0365 0.0711
vn 0.9969 -0.0361 0.0704
vn 0.9847 -0.1731 0.0206
vn 0.9796 0.0074 0.2009
vn 0.9710 0.0097 0.2388
vn 0.9750 0.0031 0.2223
vn 0.9843 -0.1029 -0.1436
vn 0.9988 -0.0216 -0.0431
vn 0.9973 0.0181 -0.0715
vn 0.9958 -0.0805 -0.0435
vn 0.9889 -0.1295 0.0722
vn 0.9859 -0.1451 0.0838
vn 0.9794 -0.0025 0.2020
vn 0.9938 -0.0629 -0.0919
vn 0.9782 -0.1336 -0.1592
vn 0.9885 -0.1436 -0.0484
vn 0.9893 -0.0405 -0.1403
vn 0.9956 0.0181 0.0919
vn 0.9994 0.0333 0.0063
vn 0.9924 0.0293 -0.1194
vn 0.9955 -0.0387 -0.0860
vn 0.9869 -0.1515 -0.0549
usemtl None
s off
f 1/1/1 2/2/1 3/3/1
f 4/4/2 5/5/2 6/6/2
f 1/1/3 7/7/3 2/2/3
f 5/5/4 4/4/4 8/8/4
f 4/4/5 9/9/5 8/8/5
f 9/9/6 10/10/6 8/8/6
f 11/11/7 4/4/7 6/6/7
f 9/9/8 12/12/8 10/10/8
f 12/12/9 14/13/9 13/14/9
f 13/14/10 10/10/10 12/12/10
f 2/2/11 15/15/11 3/3/11
f 16/16/12 17/17/12 5/5/12
f 5/5/13 17/17/13 18/18/13
f 5/5/14 18/18/14 6/6/14
f 11/11/15 19/19/15 4/4/15
f 19/19/16 9/9/16 4/4/16
f 9/9/17 19/19/17 12/12/17
f 1/1/18 6/6/18 18/18/18
f 3/3/19 20/20/19 1/1/19
f 6/6/20 1/1/20 20/20/20
f 21/21/21 7/7/21 1/1/21
f 10/10/22 16/16/22 8/8/22
f 16/16/23 5/5/23 8/8/23
f 18/18/24 17/17/24 21/21/24
f 21/21/25 1/1/25 18/18/25
f 11/11/26 6/6/26 20/20/26
