# Blender v2.79 (sub 0) OBJ File: ''
# www.blender.org
mtllib crack_only_72.mtl
o crack_only_72
v 2.884450 1.685060 -3.338350
v 3.022558 2.353019 -3.510731
v 2.916963 1.977479 -3.663584
v 2.819638 1.518684 -3.655237
v 2.868649 1.339478 -2.725790
v 2.857200 1.311244 -3.014786
v 2.837475 1.125755 -3.128366
v 2.851477 1.156667 -2.749705
v 2.786114 1.230218 -3.586520
v 3.033898 2.495814 -2.486093
v 2.999527 2.579117 -1.917217
v 2.986627 2.436965 -2.179013
v 2.908791 2.019722 -2.341158
v 2.887275 2.005917 -2.201226
v 2.885201 1.789990 -2.376983
v 2.954177 2.051413 -2.648026
v 2.828390 2.024856 -1.736829
v 2.816898 1.927592 -1.827863
v 2.793379 1.957196 -1.556671
v 2.842085 2.046913 -1.808596
v 2.846841 1.897064 -2.051515
v 2.867857 2.077849 -1.920101
v 2.824064 1.995490 -4.241158
v 2.843682 1.887697 -3.980177
v 2.747097 1.749730 -4.323349
v 2.887759 2.037076 -3.937538
v 2.878890 2.069296 -4.033678
v 2.869080 2.221143 -1.627638
v 2.890780 2.220148 -1.841772
v 2.878899 2.220943 -1.718581
v 2.799626 2.146091 -4.653629
v 2.772365 1.935568 -4.481202
v 2.836475 2.131111 -4.427149
v 2.943466 2.516642 -4.427671
v 2.958338 2.342090 -4.051474
v 2.833611 2.130739 -1.473483
v 2.924924 2.154631 -3.880836
v 2.868916 2.127484 -4.200917
v 3.059491 2.582575 -3.728771
v 3.000002 2.392821 -3.799221
v 3.036351 2.537392 -3.834419
v 2.967840 2.260668 -3.766033
v 3.102064 2.693385 -3.346689
v 3.081401 2.726609 -3.860371
v 2.979806 2.673824 -1.373536
v 2.993641 2.730927 -1.256472
v 2.924756 2.527330 -1.312510
v 2.973399 2.632108 -1.481842
v 2.794648 1.829543 -1.783169
v 2.813084 1.848802 -1.898705
v 2.797523 1.731090 -1.911818
v 2.799952 1.640337 -3.916206
v 2.773640 1.731528 -1.739761
v 3.029680 2.633890 -4.149192
v 2.870302 2.381267 -4.652190
v 2.829886 2.323092 -4.751971
v 3.102813 2.766898 -3.720421
v 3.014274 2.787660 -1.456463
v 2.965233 2.567678 -1.611704
v 3.084841 2.673508 -2.901608
v 3.129531 2.938243 -2.947918
v 3.088694 2.925476 -1.865900
v 3.100879 2.982133 -2.317505
v 2.830048 1.357345 -2.204975
v 2.885855 1.584759 -2.842621
v 2.765459 1.624242 -1.826657
v 2.901126 1.696104 -2.742658
v 2.913346 2.388862 -1.613346
v 2.981101 2.100556 -2.955082
v 3.127911 2.868162 -3.287654
v 2.772236 1.322262 -3.760001
v 2.749157 1.458977 -4.014660
vt 0.357475 0.351837
vt 0.556866 0.281064
vt 0.746338 0.349602
vt 0.303742 0.251992
vt 0.094865 0.499200
vt 0.031205 0.372964
vt 0.116156 0.416912
vt 0.000000 0.480371
vt 0.139530 0.251755
vt 0.689930 0.643704
vt 0.656083 0.806645
vt 0.613863 0.724457
vt 0.406863 0.651030
vt 0.379036 0.688677
vt 0.288168 0.625735
vt 0.468426 0.568535
vt 0.322120 0.818032
vt 0.259262 0.863137
vt 0.281520 0.786227
vt 0.344561 0.799740
vt 0.297870 0.722556
vt 0.378189 0.771170
vt 0.630515 0.120422
vt 0.542351 0.186173
vt 0.503313 0.080407
vt 0.620306 0.208422
vt 0.648664 0.183687
vt 0.415704 0.861777
vt 0.445389 0.802556
vt 0.428497 0.836650
vt 0.760226 0.015314
vt 0.727238 0.077795
vt 0.624231 0.049065
vt 0.941978 0.104403
vt 0.803293 0.197730
vt 0.344217 0.898169
vt 0.678939 0.232397
vt 0.699739 0.140882
vt 0.899340 0.304568
vt 0.802024 0.271730
vt 0.886652 0.271929
vt 0.724656 0.271845
vt 0.912911 0.418565
vt 0.994522 0.277740
vt 0.633160 0.963551
vt 0.649567 1.000000
vt 0.542043 0.970122
vt 0.624548 0.930649
vt 0.221702 0.791911
vt 0.248883 0.761350
vt 0.186989 0.749794
vt 0.399175 0.187148
vt 0.162211 0.797259
vt 0.977328 0.190692
vt 0.869367 0.000000
vt 0.891609 0.032115
vt 1.000000 0.319562
vt 0.707614 0.948458
vt 0.606598 0.890250
vt 0.842869 0.540641
vt 0.992992 0.545720
vt 0.931131 0.723268
vt 0.841505 0.844831
vt 0.032396 0.644458
vt 0.240767 0.483011
vt 0.116190 0.765999
vt 0.288036 0.518271
vt 0.506983 0.877352
vt 0.537070 0.486852
vt 1.000000 0.446754
vt 0.208748 0.209367
vt 0.310887 0.147208
vn 0.9676 -0.2280 -0.1083
vn 0.9739 -0.2082 -0.0899
vn 0.9957 -0.0869 -0.0310
vn 0.9955 -0.0897 -0.0295
vn 0.9924 -0.0328 -0.1187
vn 0.9593 -0.2654 0.0968
vn 0.9827 -0.1226 0.1390
vn 0.9836 -0.1217 0.1329
vn 0.9653 -0.2290 0.1258
vn 0.9685 -0.2177 0.1208
vn 0.9692 -0.2222 0.1066
vn 0.9706 -0.2155 0.1077
vn 0.9679 -0.2230 0.1161
vn 0.9603 -0.2285 0.1598
vn 0.9653 -0.2290 0.1253
vn 0.9551 -0.2417 -0.1716
vn 0.9587 -0.2389 -0.1542
vn 0.9576 -0.2349 -0.1670
vn 0.9634 -0.2514 0.0928
vn 0.9584 -0.2397 0.1550
vn 0.9607 -0.2572 0.1043
vn 0.9629 -0.2526 0.0945
vn 0.9492 -0.2637 -0.1719
vn 0.9655 -0.2264 0.1288
vn 0.9511 -0.2642 -0.1602
vn 0.9637 -0.2574 0.0708
vn 0.9611 -0.2303 -0.1525
vn 0.9456 -0.2856 -0.1558
vn 0.9606 -0.2246 -0.1639
vn 0.9501 -0.2850 -0.1270
vn 0.9594 -0.2648 -0.0969
vn 0.9671 -0.2200 -0.1277
vn 0.9776 -0.2044 -0.0496
vn 0.9593 -0.2596 -0.1108
vn 0.9589 -0.2612 -0.1110
vn 0.9571 -0.2518 -0.1433
vn 0.9448 -0.2960 -0.1402
vn 0.9623 -0.2271 -0.1499
vn 0.9582 -0.2664 -0.1047
vn 0.9580 -0.2623 -0.1159
vn 0.9582 -0.2661 -0.1047
vn 0.9613 -0.2459 -0.1242
vn 0.9639 -0.2441 -0.1067
vn 0.9417 -0.3326 0.0510
vn 0.9430 -0.3254 0.0695
vn 0.9791 -0.1748 0.1040
vn 0.9701 -0.1866 0.1553
vn 0.9781 -0.1632 0.1289
vn 0.9806 -0.1444 0.1324
vn 0.9635 -0.2075 -0.1694
vn 0.9811 -0.1663 0.0992
vn 0.9635 -0.2124 -0.1628
vn 0.9590 -0.2168 -0.1827
vn 0.9424 -0.2876 -0.1707
vn 0.9355 -0.2798 -0.2158
vn 0.9606 -0.2641 -0.0872
vn 0.9709 -0.2244 -0.0839
vn 0.9619 -0.2643 0.0706
vn 0.9645 -0.2605 0.0433
vn 0.9861 -0.1571 0.0537
vn 0.9686 -0.2486 -0.0051
vn 0.9503 -0.2984 0.0883
vn 0.9729 -0.1989 0.1181
vn 0.9608 -0.2273 0.1590
vn 0.9768 -0.1408 0.1614
vn 0.9877 -0.0704 0.1396
vn 0.9746 -0.1476 0.1687
vn 0.9966 -0.0342 0.0750
vn 0.9688 -0.0952 0.2289
vn 0.9663 -0.1014 0.2365
vn 0.9863 -0.1551 0.0556
vn 0.9829 -0.1643 0.0834
vn 0.9865 -0.1612 0.0288
vn 0.9927 -0.0992 0.0687
vn 0.9579 -0.2694 0.0991
vn 0.9556 -0.2782 0.0969
vn 0.9577 -0.2684 0.1036
vn 0.9594 -0.2621 0.1042
vn 0.9619 -0.2565 0.0944
vn 0.9631 -0.2601 0.0691
vn 0.9437 -0.2825 -0.1722
vn 0.9525 -0.2645 -0.1509
vn 0.9490 -0.2759 -0.1526
vn 0.9571 -0.2354 -0.1692
vn 0.9497 -0.2798 -0.1407
vn 0.9519 -0.2743 -0.1365
vn 0.9959 -0.0847 -0.0312
vn 0.9615 -0.2605 0.0871
vn 0.9548 -0.2811 0.0967
vn 0.9730 -0.2268 -0.0427
vn 0.9824 -0.1819 0.0427
vn 0.9792 -0.1955 0.0546
vn 0.9865 -0.1611 0.0310
vn 0.9875 -0.1553 0.0273
vn 0.9761 -0.2158 -0.0252
vn 0.9831 -0.1808 0.0300
vn 0.9780 -0.2077 -0.0214
vn 0.9751 -0.1463 -0.1669
vn 0.9610 -0.2757 0.0209
vn 0.9793 -0.1495 0.1363
vn 0.9735 -0.1841 0.1356
vn 0.9932 -0.1131 -0.0257
vn 0.9783 -0.2058 -0.0236
vn 0.9697 -0.1851 -0.1594
vn 0.9688 -0.1772 -0.1734
vn 0.9758 -0.1511 -0.1582
vn 0.9816 -0.1439 -0.1252
vn 0.9956 -0.0909 -0.0212
vn 0.9824 -0.1580 -0.0998
vn 0.9561 -0.2783 0.0918
vn 0.9850 -0.1518 0.0819
vn 0.9778 -0.2027 0.0533
vn 0.9917 -0.1032 0.0770
vn 0.9638 -0.2541 0.0804
vn 0.9901 -0.1379 -0.0251
usemtl None
s off
f 1/1/1 3/2/1 2/3/1
f 3/2/2 1/1/2 4/4/2
f 5/5/3 7/6/3 6/7/3
f 5/5/4 8/8/4 7/6/4
f 6/7/5 7/6/5 9/9/5
f 10/10/6 11/11/6 12/12/6
f 13/13/7 14/14/7 15/15/7
f 13/13/8 15/15/8 16/16/8
f 14/14/9 13/13/9 12/12/9
f 13/13/10 16/16/10 10/10/10
f 13/13/11 10/10/11 12/12/11
f 17/17/12 19/18/12 18/19/12
f 17/17/13 18/19/13 20/20/13
f 18/19/14 21/21/14 20/20/14
f 14/14/15 12/12/15 22/22/15
f 23/23/16 24/24/16 25/25/16
f 26/26/17 3/2/17 24/24/17
f 27/27/18 26/26/18 24/24/18
f 17/17/19 28/28/19 19/18/19
f 20/20/20 22/22/20 29/29/20
f 17/17/21 30/30/21 28/28/21
f 20/20/21 30/30/21 17/17/21
f 30/30/22 20/20/22 29/29/22
f 31/31/23 33/32/23 32/33/23
f 29/29/24 22/22/24 12/12/24
f 33/32/25 34/34/25 35/35/25
f 28/28/26 36/36/26 19/18/26
f 26/26/27 37/37/27 3/2/27
f 38/38/28 35/35/28 27/27/28
f 27/27/29 37/37/29 26/26/29
f 37/37/30 27/27/30 35/35/30
f 39/39/31 40/40/31 41/41/31
f 42/42/32 2/3/32 3/2/32
f 43/43/33 2/3/33 39/39/33
f 40/40/34 39/39/34 2/3/34
f 40/40/35 2/3/35 42/42/35
f 23/23/36 25/25/36 32/33/36
f 38/38/37 33/32/37 35/35/37
f 42/42/38 3/2/38 37/37/38
f 41/41/39 40/40/39 35/35/39
f 40/40/40 42/42/40 37/37/40
f 37/37/41 35/35/41 40/40/41
f 44/44/42 41/41/42 35/35/42
f 44/44/43 39/39/43 41/41/43
f 45/45/44 46/46/44 47/47/44
f 45/45/45 47/47/45 48/48/45
f 49/49/46 18/19/46 19/18/46
f 21/21/47 18/19/47 50/50/47
f 49/49/48 50/50/48 18/19/48
f 49/49/49 51/51/49 50/50/49
f 52/52/50 3/2/50 4/4/50
f 49/49/51 19/18/51 53/53/51
f 52/52/52 24/24/52 3/2/52
f 52/52/53 25/25/53 24/24/53
f 54/54/54 35/35/54 34/34/54
f 31/31/55 56/55/55 55/56/55
f 54/54/56 44/44/56 35/35/56
f 57/57/57 39/39/57 44/44/57
f 58/58/58 48/48/58 59/59/58
f 58/58/59 45/45/59 48/48/59
f 60/60/60 61/61/60 10/10/60
f 11/11/61 63/62/61 62/63/61
f 59/59/62 48/48/62 47/47/62
f 21/21/63 14/14/63 22/22/63
f 22/22/64 20/20/64 21/21/64
f 21/21/65 15/15/65 14/14/65
f 21/21/66 64/64/66 15/15/66
f 51/51/67 21/21/67 50/50/67
f 5/5/68 65/65/68 64/64/68
f 21/21/69 51/51/69 64/64/69
f 66/66/70 64/64/70 51/51/70
f 61/61/71 63/62/71 10/10/71
f 10/10/72 63/62/72 11/11/72
f 65/65/73 67/67/73 64/64/73
f 67/67/74 15/15/74 64/64/74
f 29/29/75 12/12/75 11/11/75
f 68/68/76 11/11/76 59/59/76
f 29/29/77 11/11/77 68/68/77
f 68/68/78 28/28/78 30/30/78
f 30/30/79 29/29/79 68/68/79
f 68/68/80 36/36/80 28/28/80
f 55/56/81 33/32/81 31/31/81
f 55/56/82 34/34/82 33/32/82
f 23/23/83 38/38/83 27/27/83
f 27/27/84 24/24/84 23/23/84
f 23/23/85 33/32/85 38/38/85
f 23/23/86 32/33/86 33/32/86
f 65/65/87 5/5/87 6/7/87
f 62/63/88 58/58/88 11/11/88
f 58/58/89 59/59/89 11/11/89
f 57/57/90 43/43/90 39/39/90
f 60/60/91 10/10/91 69/69/91
f 69/69/92 10/10/92 16/16/92
f 61/61/93 60/60/93 43/43/93
f 43/43/94 70/70/94 61/61/94
f 43/43/95 69/69/95 2/3/95
f 60/60/96 69/69/96 43/43/96
f 1/1/97 2/3/97 69/69/97
f 4/4/98 71/71/98 72/72/98
f 58/58/99 46/46/99 45/45/99
f 53/53/100 51/51/100 49/49/100
f 51/51/101 53/53/101 66/66/101
f 65/65/102 1/1/102 67/67/102
f 67/67/103 1/1/103 69/69/103
f 4/4/104 72/72/104 52/52/104
f 72/72/105 25/25/105 52/52/105
f 4/4/106 9/9/106 71/71/106
f 9/9/107 4/4/107 1/1/107
f 1/1/108 65/65/108 6/7/108
f 9/9/109 1/1/109 6/7/109
f 59/59/110 47/47/110 68/68/110
f 69/69/111 15/15/111 67/67/111
f 69/69/112 16/16/112 15/15/112
f 5/5/113 64/64/113 8/8/113
f 36/36/114 68/68/114 47/47/114
f 70/70/115 43/43/115 57/57/115
