# Blender v2.79 (sub 0) OBJ File: ''
# www.blender.org
mtllib crack_only_81.mtl
o crack_only_81
v 2.920727 2.567486 -4.644408
v 2.835957 2.125127 -4.420391
v 2.796043 2.138843 -4.645372
v 2.933357 2.557998 -4.418062
v 2.837260 1.413401 -3.300367
v 2.779125 1.235770 -3.603716
v 2.908418 1.980610 -3.664836
v 3.027251 2.500385 -2.487043
v 3.043961 2.765275 -2.051665
v 2.987468 2.441358 -2.178443
v 3.112155 2.901661 -2.519921
v 2.873511 1.542335 -2.932564
v 2.839363 1.166466 -2.661234
v 2.827070 1.357658 -2.204915
v 2.839824 1.157302 -2.773300
v 2.748793 1.459030 -4.014405
v 2.749236 1.766076 -4.340671
v 2.831814 1.127199 -3.126423
v 2.819889 1.682454 -1.944028
v 2.797498 1.618895 -1.824698
v 2.806454 1.951516 -1.558609
v 2.820112 1.149897 -3.254809
v 2.896445 1.711688 -2.707077
v 2.883967 1.941255 -2.260551
v 2.956593 2.514719 -1.673278
v 2.974454 2.626439 -1.480408
v 3.140293 3.043351 -2.951230
v 3.093873 2.750937 -2.908369
v 3.083547 2.692492 -3.332363
v 2.923700 2.458483 -1.480269
v 2.924001 2.521265 -1.313511
v 2.871211 2.304380 -1.373471
v 2.870538 2.117770 -4.198889
v 2.960655 2.337113 -4.046181
v 3.047114 2.666629 -3.857592
v 2.996182 2.393910 -3.792956
v 2.984829 2.665678 -1.375855
v 3.000235 2.700206 -1.255026
v 3.075637 3.043829 -1.695572
v 3.138841 3.274086 -2.014699
v 3.116371 3.234963 -1.705887
v 3.038879 2.896571 -1.450322
v 3.158497 3.166027 -3.156109
v 3.016472 2.697350 -4.151875
v 2.771908 1.944118 -4.487092
v 2.838916 2.403712 -4.797600
v 2.813669 1.983167 -4.299948
v 2.880870 2.067513 -4.035015
v 2.996424 2.273121 -2.807661
v 2.949832 2.050893 -2.648778
v 2.930015 2.385660 -1.749174
v 3.159302 3.176927 -2.989169
v 3.075865 2.986940 -4.037303
v 3.108322 2.961386 -3.732972
v 3.079451 2.886708 -3.918963
v 2.925092 2.677614 -4.768117
v 2.878070 2.619661 -4.910043
v 3.014873 2.883739 -4.322729
v 3.101992 3.191413 -1.554556
v 3.094314 3.120467 -1.249577
v 2.975200 2.105469 -3.027553
v 3.154278 3.282763 -2.233441
v 3.170279 3.226230 -2.658934
v 3.138201 3.123710 -3.609809
v 2.971742 2.790861 -4.524117
v 3.003271 2.377625 -3.648490
v 3.063088 2.650138 -3.558264
v 3.102548 2.886912 -3.624524
v 3.151242 3.178495 -3.382004
vt 0.746982 0.070946
vt 0.522830 0.120453
vt 0.535152 0.059644
vt 0.734055 0.131876
vt 0.142496 0.406478
vt 0.067044 0.320092
vt 0.429739 0.321723
vt 0.633401 0.652035
vt 0.740174 0.775408
vt 0.588965 0.733377
vt 0.830207 0.653118
vt 0.190415 0.508879
vt 0.068753 0.700259
vt 0.000000 0.573237
vt 0.000542 0.542847
vt 0.186117 0.214006
vt 0.343593 0.132904
vt 0.000801 0.446941
vt 0.208764 0.777648
vt 0.316833 0.887277
vt 0.171895 0.808112
vt 0.015807 0.412707
vt 0.262067 0.573665
vt 0.349157 0.698896
vt 0.598842 0.870720
vt 0.644480 0.925379
vt 0.917439 0.540399
vt 0.774646 0.544896
vt 0.764468 0.429239
vt 0.561281 0.921067
vt 0.583536 0.967389
vt 0.479845 0.945776
vt 0.513135 0.180400
vt 0.617468 0.227521
vt 0.771426 0.286703
vt 0.636493 0.297446
vt 0.659318 0.954547
vt 0.671724 0.988057
vt 0.858101 0.877909
vt 0.985183 0.797812
vt 0.951642 0.879868
vt 0.775410 0.940267
vt 0.985203 0.488142
vt 0.795511 0.207714
vt 0.435153 0.097678
vt 0.669410 0.025027
vt 0.449278 0.149484
vt 0.483607 0.223568
vt 0.538012 0.560239
vt 0.423057 0.597546
vt 0.539303 0.847084
vt 0.983248 0.533371
vt 0.931465 0.245733
vt 0.909534 0.327566
vt 0.879898 0.275443
vt 0.804138 0.040107
vt 0.778761 0.000000
vt 0.889771 0.165787
vt 0.923499 0.919497
vt 0.876615 1.000000
vt 0.467074 0.497019
vt 1.000000 0.739263
vt 0.993214 0.623573
vt 0.982910 0.364714
vt 0.850968 0.108935
vt 0.623371 0.336097
vt 0.869563 0.355064
vt 0.752422 0.367184
vt 1.000000 0.427466
vn 0.9439 -0.2741 -0.1842
vn 0.9737 -0.2188 -0.0635
vn 0.9806 -0.1771 -0.0842
vn 0.9751 -0.2040 0.0867
vn 0.9763 -0.1997 0.0840
vn 0.9973 -0.0547 0.0498
vn 0.9965 -0.0827 0.0109
vn 0.9684 -0.1823 -0.1702
vn 0.9955 -0.0932 -0.0146
vn 0.9852 -0.1223 0.1197
vn 0.9866 -0.0880 -0.1375
vn 0.9932 -0.0898 0.0739
vn 0.9865 -0.0889 0.1378
vn 0.9661 -0.2518 0.0564
vn 0.9876 -0.1571 -0.0024
vn 0.9607 -0.2605 0.0963
vn 0.9518 -0.2875 0.1065
vn 0.9878 -0.1548 0.0136
vn 0.9783 -0.2043 0.0332
vn 0.9471 -0.2797 -0.1572
vn 0.9748 -0.2036 -0.0911
vn 0.9207 -0.3903 -0.0058
vn 0.9277 -0.3705 0.0470
vn 0.9775 -0.2059 0.0450
vn 0.9771 -0.2007 0.0701
vn 0.9725 -0.2326 0.0061
vn 0.9729 -0.2309 -0.0099
vn 0.9880 -0.1546 -0.0048
vn 0.9597 -0.2051 -0.1923
vn 0.9460 -0.2669 -0.1841
vn 0.9566 -0.2142 -0.1974
vn 0.9389 -0.2726 -0.2099
vn 0.9480 -0.2789 -0.1533
vn 0.9541 -0.2531 -0.1601
vn 0.9511 -0.2775 -0.1359
vn 0.9467 -0.2863 -0.1475
vn 0.9671 -0.2418 0.0784
vn 0.9846 -0.1649 0.0581
vn 0.9543 -0.2883 0.0786
vn 0.9635 -0.2518 0.0908
vn 0.9604 -0.2623 0.0936
vn 0.9677 -0.2309 0.1015
vn 0.9906 -0.1352 0.0202
vn 0.9886 -0.0989 -0.1137
vn 0.9389 -0.2728 -0.2097
vn 0.9407 -0.2745 -0.1996
vn 0.9846 -0.1649 0.0580
vn 0.9786 -0.1415 -0.1495
vn 0.9776 -0.1375 -0.1592
vn 0.9902 -0.1397 0.0043
vn 0.9756 -0.2181 -0.0262
vn 0.9850 -0.1693 0.0340
vn 0.9800 -0.1769 0.0912
vn 0.9867 -0.1521 0.0573
vn 0.9804 -0.1873 0.0618
vn 0.9805 -0.1871 0.0592
vn 0.9889 -0.0959 -0.1135
vn 0.9925 -0.1066 -0.0598
vn 0.9749 -0.2027 -0.0923
vn 0.9465 -0.2819 -0.1571
vn 0.9460 -0.2885 -0.1481
vn 0.9539 -0.2528 -0.1615
vn 0.9780 -0.2072 0.0222
vn 0.9798 -0.1968 0.0365
vn 0.9741 -0.2173 -0.0621
vn 0.9728 -0.2312 -0.0108
vn 0.9839 -0.1788 -0.0060
vn 0.9807 -0.1913 0.0413
vn 0.9684 -0.1821 -0.1705
vn 0.9707 -0.2289 -0.0734
vn 0.9691 -0.2318 -0.0840
vn 0.9482 -0.2863 -0.1378
vn 0.9774 -0.1992 -0.0704
vn 0.9787 -0.1868 -0.0847
vn 0.9865 -0.1625 0.0217
vn 0.9695 -0.2279 -0.0902
vn 0.9874 -0.1521 -0.0440
vn 0.9845 -0.1728 0.0296
vn 0.9824 -0.1835 -0.0360
vn 0.9945 -0.0770 -0.0710
vn 0.9936 -0.0531 -0.1000
vn 0.9805 -0.1885 -0.0550
vn 0.9768 -0.1770 -0.1202
vn 0.9750 -0.1866 -0.1210
vn 0.9821 -0.1680 -0.0850
vn 0.9822 -0.1752 -0.0680
vn 0.9899 -0.1402 -0.0229
vn 0.9789 -0.1978 -0.0516
vn 0.9857 -0.1657 0.0312
vn 0.9779 -0.2040 -0.0452
vn 0.9800 -0.1991 0.0036
vn 0.9891 -0.1418 -0.0396
vn 0.9713 -0.2106 -0.1109
vn 0.9618 -0.1804 -0.2059
vn 0.9689 -0.2383 0.0659
vn 0.9723 -0.2099 0.1029
vn 0.9778 -0.1740 0.1168
vn 0.9705 -0.2178 0.1032
vn 0.9676 -0.2270 0.1102
vn 0.9707 -0.2176 0.1017
vn 0.9878 -0.1092 0.1107
vn 0.9878 -0.0838 0.1315
vn 0.9882 -0.1458 -0.0475
vn 0.9886 -0.1468 -0.0334
vn 0.9823 -0.1792 -0.0554
usemtl None
s off
f 1/1/1 2/2/1 3/3/1
f 1/1/2 4/4/2 2/2/2
f 5/5/3 6/6/3 7/7/3
f 8/8/4 9/9/4 10/10/4
f 8/8/5 11/11/5 9/9/5
f 12/12/6 14/13/6 13/14/6
f 12/12/7 13/14/7 15/15/7
f 16/16/8 17/17/8 7/7/8
f 12/12/9 15/15/9 18/18/9
f 19/19/10 21/20/10 20/21/10
f 5/5/11 22/22/11 6/6/11
f 23/23/12 24/24/12 14/13/12
f 20/21/13 14/13/13 19/19/13
f 25/25/14 9/9/14 26/26/14
f 27/27/15 28/28/15 29/29/15
f 30/30/16 31/31/16 32/32/16
f 31/31/17 30/30/17 26/26/17
f 28/28/18 27/27/18 11/11/18
f 28/28/19 11/11/19 8/8/19
f 33/33/20 2/2/20 34/34/20
f 35/35/21 36/36/21 34/34/21
f 37/37/22 38/38/22 31/31/22
f 37/37/23 31/31/23 26/26/23
f 39/39/24 40/40/24 41/41/24
f 39/39/25 26/26/25 9/9/25
f 39/39/26 42/42/26 26/26/26
f 37/37/27 26/26/27 42/42/27
f 43/43/28 27/27/28 29/29/28
f 4/4/29 44/44/29 34/34/29
f 3/3/30 2/2/30 45/45/30
f 2/2/31 4/4/31 34/34/31
f 1/1/32 3/3/32 46/46/32
f 47/47/33 45/45/33 2/2/33
f 47/47/34 17/17/34 45/45/34
f 48/48/35 7/7/35 17/17/35
f 33/33/36 34/34/36 48/48/36
f 49/49/37 8/8/37 10/10/37
f 49/49/38 10/10/38 50/50/38
f 25/25/39 26/26/39 30/30/39
f 51/51/40 25/25/40 30/30/40
f 51/51/41 30/30/41 32/32/41
f 51/51/42 32/32/42 21/20/42
f 52/52/43 11/11/43 27/27/43
f 53/53/44 54/54/44 55/55/44
f 46/46/45 56/56/45 1/1/45
f 56/56/46 46/46/46 57/57/46
f 49/49/47 50/50/47 23/23/47
f 53/53/48 55/55/48 44/44/48
f 44/44/49 58/58/49 53/53/49
f 52/52/50 27/27/50 43/43/50
f 42/42/51 59/59/51 60/60/51
f 61/61/52 49/49/52 23/23/52
f 62/62/53 9/9/53 11/11/53
f 62/62/54 11/11/54 63/63/54
f 62/62/55 40/40/55 9/9/55
f 39/39/56 9/9/56 40/40/56
f 53/53/57 64/64/57 54/54/57
f 56/56/58 4/4/58 1/1/58
f 56/56/59 65/65/59 4/4/59
f 47/47/60 2/2/60 33/33/60
f 47/47/61 33/33/61 48/48/61
f 48/48/62 17/17/62 47/47/62
f 41/41/63 42/42/63 39/39/63
f 59/59/64 42/42/64 41/41/64
f 37/37/65 60/60/65 38/38/65
f 37/37/66 42/42/66 60/60/66
f 52/52/67 63/63/67 11/11/67
f 28/28/68 8/8/68 49/49/68
f 6/6/69 16/16/69 7/7/69
f 36/36/70 66/66/70 7/7/70
f 7/7/71 34/34/71 36/36/71
f 7/7/72 48/48/72 34/34/72
f 66/66/73 36/36/73 35/35/73
f 66/66/74 68/67/74 67/68/74
f 12/12/75 23/23/75 14/13/75
f 12/12/76 7/7/76 66/66/76
f 5/5/77 7/7/77 12/12/77
f 61/61/78 23/23/78 12/12/78
f 61/61/79 12/12/79 66/66/79
f 22/22/80 5/5/80 12/12/80
f 12/12/81 18/18/81 22/22/81
f 35/35/82 68/67/82 66/66/82
f 35/35/83 44/44/83 55/55/83
f 35/35/84 34/34/84 44/44/84
f 35/35/85 55/55/85 54/54/85
f 68/67/86 35/35/86 54/54/86
f 64/64/87 69/69/87 29/29/87
f 67/68/88 29/29/88 66/66/88
f 29/29/89 49/49/89 61/61/89
f 29/29/90 61/61/90 66/66/90
f 49/49/91 29/29/91 28/28/91
f 43/43/92 29/29/92 69/69/92
f 65/65/93 58/58/93 4/4/93
f 58/58/94 44/44/94 4/4/94
f 25/25/95 51/51/95 9/9/95
f 51/51/96 10/10/96 9/9/96
f 24/24/97 23/23/97 50/50/97
f 24/24/98 50/50/98 10/10/98
f 24/24/99 51/51/99 21/20/99
f 51/51/100 24/24/100 10/10/100
f 19/19/101 24/24/101 21/20/101
f 24/24/102 19/19/102 14/13/102
f 54/54/103 64/64/103 68/67/103
f 29/29/104 68/67/104 64/64/104
f 68/67/105 29/29/105 67/68/105
