# Blender v2.79 (sub 0) OBJ File: ''
# www.blender.org
mtllib crack_only_13.mtl
o crack_only_13
v 2.819643 1.208876 -3.522249
v 2.841101 1.168317 -3.372360
v 2.829242 1.406458 -3.316862
v 2.891496 1.133229 -2.921133
v 2.866834 1.117675 -3.129449
v 2.873952 1.368752 -2.960323
v 2.896375 1.152467 -2.747514
vt 0.183706 0.000000
vt 1.000000 0.234887
vt 0.091572 0.198368
vt 0.139634 0.781857
vt 0.000000 0.516594
vt 1.000000 0.697937
vt 0.282404 1.000000
vn 0.9897 0.0774 -0.1207
vn 0.9912 0.0536 -0.1213
vn 0.9970 0.0683 -0.0356
vn 0.9916 0.0519 -0.1188
vn 0.9934 0.0706 -0.0905
usemtl None
s off
f 1/1/1 3/2/1 2/3/1
f 4/4/2 5/5/2 6/6/2
f 7/7/3 4/4/3 6/6/3
f 5/5/4 3/2/4 6/6/4
f 3/2/5 5/5/5 2/3/5
