# Blender v2.79 (sub 0) OBJ File: ''
# www.blender.org
mtllib crack_only_179.mtl
o crack_only_179
v 2.766556 1.764441 -4.351598
v 2.896192 2.428977 -3.923720
v 2.868737 1.995152 -3.670652
v 2.800550 2.129650 -4.643187
v 3.134992 4.998785 -1.396203
v 3.148511 4.190552 -2.024627
v 3.141105 4.927678 -2.466707
v 3.137769 4.544990 -4.006628
v 3.154007 5.323312 -4.388161
v 3.153418 5.462167 -3.637698
v 3.125784 4.411762 -4.766867
v 2.656897 6.289732 -1.704144
v 2.726781 6.294259 -1.958990
v 2.852109 6.002059 -1.770979
v 2.383080 6.717837 -1.808276
v 2.546500 6.391162 -1.494816
v 2.793442 1.393611 -3.319499
v 2.754631 1.266456 -3.639863
v 3.117553 5.922989 -3.994259
v 3.001147 2.928914 -2.501044
v 2.973563 2.788162 -2.070292
v 2.886079 2.111672 -2.313481
v 3.062904 5.448009 -2.184182
v 3.041204 5.467893 -1.732269
v 2.954773 2.881403 -4.553678
v 2.991065 3.144219 -4.479778
v 2.964658 2.937124 -4.673620
v 3.018173 3.325971 -4.693944
v 3.001688 5.524428 -1.400509
v 2.818346 1.683305 -1.945188
v 2.855494 1.923411 -2.062337
v 2.826218 1.942931 -1.561538
v 3.050535 6.438852 -3.814932
v 3.095519 5.993339 -3.501309
v 2.803508 1.360138 -2.204439
v 2.870871 2.075872 -1.920677
v 2.924248 2.507847 -1.685918
v 2.846294 1.743371 -2.482913
v 3.067420 3.747768 -4.204198
v 3.077818 3.794345 -3.884741
v 3.030624 3.355240 -3.933765
v 3.141421 5.599252 -3.291545
v 3.029510 6.121570 -3.141678
v 3.045657 3.318838 -2.569288
v 3.131451 4.214966 -2.763412
v 3.106620 3.858697 -2.343171
v 3.039700 3.208096 -2.051899
v 3.124866 5.368655 -2.734621
v 2.837494 1.600125 -2.850880
v 2.793783 1.177049 -2.653358
v 2.878308 2.301353 -1.371961
v 3.086451 3.725401 -3.015648
v 2.962665 2.687276 -3.365235
v 2.988314 2.848273 -2.940908
v 3.006316 3.051055 -3.369177
v 3.070935 3.453931 -1.937601
v 3.099476 3.928835 -3.460010
v 3.066569 3.571013 -3.414632
v 3.084848 3.530071 -1.677896
v 2.790694 1.165592 -2.803356
v 2.884398 2.529150 -4.884905
v 3.024933 3.163448 -5.065407
v 3.143025 4.036294 -1.327214
v 2.749083 1.458988 -4.014608
v 2.781699 1.139979 -3.109221
v 2.805040 1.617637 -1.824237
v 2.773564 1.168393 -3.283329
v 2.871858 6.937490 -3.885170
v 2.948975 6.843328 -4.286423
v 2.806303 7.112493 -3.970642
v 2.820590 5.918458 -1.408838
v 2.771649 6.024357 -1.431674
v 3.096143 5.639505 -2.894925
v 3.153109 5.182382 -3.059482
v 3.088924 5.749182 -2.987828
v 3.053540 6.304537 -4.277523
v 3.102206 5.926355 -4.321689
v 2.938953 5.917651 -2.111373
v 2.978311 6.439440 -3.382422
v 2.977772 5.896002 -2.426439
v 2.927015 5.987142 -2.264621
v 2.755148 6.367026 -2.424016
v 2.838558 6.302800 -2.772477
v 2.827353 6.136510 -2.119889
v 2.813346 6.629303 -3.123288
v 2.769932 7.152834 -4.289979
v 3.008680 5.873898 -2.617709
v 3.050956 5.800990 -2.821140
v 2.603668 6.652328 -2.655679
v 2.429161 6.750555 -2.324695
v 2.729929 6.591089 -2.897254
v 2.995202 3.091146 -4.042799
v 3.053994 3.219373 -1.261060
v 2.836842 6.809222 -3.495171
v 3.053025 3.641924 -4.597107
v 2.974449 2.689827 -1.261541
v 2.267196 6.839161 -1.797177
v 2.197617 6.816574 -1.602460
v 3.065813 3.699503 -5.011142
vt 0.767801 0.081347
vt 0.678777 0.202428
vt 0.599854 0.133815
vt 0.854605 0.137465
vt 0.107146 0.689663
vt 0.244604 0.539308
vt 0.381418 0.655935
vt 0.767224 0.559741
vt 0.889851 0.684477
vt 0.700348 0.723256
vt 0.959330 0.521789
vt 0.222844 0.905800
vt 0.232707 0.854431
vt 0.289315 0.901058
vt 0.260863 0.978049
vt 0.171087 0.927880
vt 0.490074 0.038880
vt 0.568584 0.010977
vt 0.806349 0.794716
vt 0.327625 0.315679
vt 0.211853 0.300549
vt 0.253138 0.180932
vt 0.323914 0.750642
vt 0.207674 0.763256
vt 0.855825 0.266442
vt 0.845118 0.312485
vt 0.888588 0.273457
vt 0.906224 0.338967
vt 0.123454 0.779784
vt 0.144327 0.115787
vt 0.182257 0.154106
vt 0.053325 0.167686
vt 0.775439 0.886521
vt 0.681065 0.816753
vt 0.201196 0.055615
vt 0.150493 0.182839
vt 0.103592 0.260837
vt 0.285236 0.115020
vt 0.793137 0.420396
vt 0.712164 0.434713
vt 0.710932 0.359214
vt 0.615102 0.753641
vt 0.591659 0.846190
vt 0.357599 0.380454
vt 0.435991 0.528656
vt 0.316312 0.476606
vt 0.220545 0.372065
vt 0.464065 0.725699
vt 0.375768 0.083257
vt 0.311396 0.015441
vt 0.015814 0.232256
vt 0.485693 0.440456
vt 0.543032 0.257315
vt 0.555591 0.318940
vt 0.438621 0.293147
vt 0.198845 0.416059
vt 0.606801 0.466062
vt 0.583807 0.406230
vt 0.134237 0.434186
vt 0.349751 0.010481
vt 0.929965 0.200162
vt 0.997182 0.303768
vt 0.059728 0.527138
vt 0.671240 0.036229
vt 0.427872 0.000000
vt 0.110971 0.107116
vt 0.473643 0.001370
vt 0.807597 0.970955
vt 0.908884 0.946420
vt 0.834566 0.999377
vt 0.136384 0.847669
vt 0.145175 0.865500
vt 0.513589 0.768735
vt 0.542420 0.687282
vt 0.540904 0.785573
vt 0.890768 0.854307
vt 0.890883 0.788768
vt 0.318654 0.832732
vt 0.663233 0.895729
vt 0.399634 0.822485
vt 0.411847 0.903918
vt 0.360276 0.841537
vt 0.500473 0.885511
vt 0.326757 0.870419
vt 0.600930 0.934161
vt 0.917992 1.000000
vt 0.448573 0.814700
vt 0.499173 0.797958
vt 0.479316 0.948629
vt 0.395564 0.972959
vt 0.540758 0.932658
vt 0.730680 0.312240
vt 0.016796 0.389858
vt 0.702677 0.957169
vt 0.891220 0.394528
vt 0.000000 0.300112
vt 0.260863 0.999548
vt 0.209364 1.000000
vt 1.000000 0.395913
vn 0.9866 -0.1242 -0.1059
vn 0.9866 -0.1475 -0.0698
vn 0.9999 0.0130 0.0048
vn 0.9998 -0.0188 0.0043
vn 0.9996 -0.0263 -0.0111
vn 0.8287 0.5074 0.2363
vn 0.7942 0.5634 0.2278
vn 0.8326 0.5217 0.1863
vn 0.9860 -0.1568 -0.0572
vn 0.9976 0.0684 -0.0119
vn 0.9907 -0.1351 0.0193
vn 0.9745 0.2214 0.0371
vn 0.9885 0.1509 -0.0044
vn 0.9796 -0.1951 -0.0490
vn 0.9907 -0.1358 0.0101
vn 0.9666 0.2457 0.0733
vn 0.9905 -0.1227 0.0627
vn 0.9925 0.1194 0.0273
vn 0.9901 -0.1124 0.0835
vn 0.9400 0.3367 0.0546
vn 0.9855 -0.1568 0.0645
vn 0.9951 -0.0968 0.0197
vn 0.9943 -0.1050 -0.0171
vn 0.9938 0.1107 -0.0094
vn 0.9775 0.1760 0.1167
vn 0.9945 -0.1010 -0.0269
vn 0.9941 -0.1074 -0.0115
vn 0.9853 -0.1586 0.0638
vn 0.9906 0.0958 0.0977
vn 0.9953 -0.0948 0.0171
vn 0.9945 0.1007 0.0301
vn 0.9902 -0.1371 0.0271
vn 0.9859 -0.1629 0.0371
vn 0.9877 -0.1561 0.0122
vn 0.9955 -0.0942 0.0052
vn 0.9928 -0.1193 -0.0147
vn 0.9941 -0.1070 -0.0193
vn 0.9936 -0.1121 -0.0113
vn 0.9962 -0.0863 -0.0103
vn 0.9962 -0.0835 -0.0244
vn 0.9933 -0.1155 -0.0048
vn 0.9946 -0.1003 -0.0263
vn 0.9940 -0.1073 -0.0218
vn 0.9940 -0.1084 -0.0122
vn 0.9964 -0.0829 -0.0203
vn 0.9777 -0.2080 0.0303
vn 0.9883 -0.1321 0.0758
vn 0.9931 -0.1139 -0.0263
vn 0.9999 0.0091 0.0099
vn 0.9828 -0.1594 -0.0935
vn 0.9938 -0.1092 -0.0201
vn 0.9932 -0.1157 -0.0133
vn 0.9930 -0.1063 0.0515
vn 0.9934 -0.1148 -0.0079
vn 0.9819 -0.1895 -0.0071
vn 0.9901 -0.1401 -0.0032
vn 0.9955 -0.0933 -0.0135
vn 0.9917 -0.1004 -0.0803
vn 0.9794 -0.2017 0.0064
vn 0.9939 -0.0929 0.0589
vn 0.9325 0.3479 0.0976
vn 0.9185 0.3860 0.0859
vn 0.8778 0.4443 0.1790
vn 0.9908 0.0859 0.1044
vn 0.9843 0.1473 0.0974
vn 0.9792 0.1878 0.0765
vn 0.9901 0.1327 -0.0450
vn 0.9895 0.1405 -0.0344
vn 0.9281 0.3396 0.1526
vn 0.9687 0.2289 0.0962
vn 0.9643 0.2105 0.1607
vn 0.9807 0.1895 -0.0487
vn 0.9034 0.4267 0.0430
vn 0.8959 0.4227 0.1365
vn 0.8285 0.5363 0.1612
vn 0.8855 0.4512 0.1111
vn 0.8799 0.4552 0.1361
vn 0.8890 0.4411 0.1232
vn 0.8873 0.3677 0.2784
vn 0.8652 0.5001 -0.0354
vn 0.9676 0.2499 0.0355
vn 0.9930 0.1168 0.0194
vn 0.8935 0.4143 0.1734
vn 0.9722 0.1928 0.1329
vn 0.9753 0.2057 0.0801
vn 0.9671 0.1974 0.1602
vn 0.7701 0.5952 0.2294
vn 0.8024 0.4645 0.3747
vn 0.8412 0.5307 0.1035
vn 0.9912 -0.1309 -0.0212
vn 0.9922 -0.1212 -0.0288
vn 0.9884 -0.1507 -0.0163
vn 0.9899 -0.1412 0.0160
vn 0.9997 -0.0039 -0.0232
vn 0.9971 -0.0752 -0.0149
vn 0.9924 -0.1219 -0.0174
vn 0.7905 0.6027 0.1087
vn 0.7721 0.6190 0.1440
vn 0.9948 0.0905 -0.0457
vn 0.8747 0.4123 0.2547
vn 0.9071 0.3930 0.1509
vn 0.8831 0.3653 0.2945
vn 0.9922 -0.1210 0.0301
vn 0.9918 -0.1251 0.0270
vn 0.9902 -0.1373 0.0258
vn 0.9134 0.3553 0.1989
vn 0.8727 0.4351 0.2215
vn 0.9956 -0.0939 0.0008
vn 0.9991 0.0387 0.0193
vn 0.9966 0.0663 0.0487
vn 0.9941 -0.0960 -0.0512
vn 0.9944 -0.0866 -0.0606
vn 0.9926 -0.1194 -0.0235
vn 0.9928 -0.1186 -0.0163
vn 0.9949 -0.1001 0.0152
vn 0.9928 -0.1173 0.0219
vn 0.9894 -0.1417 -0.0306
vn 0.9999 -0.0141 0.0013
vn 0.9999 -0.0145 -0.0065
vn 0.9994 -0.0330 0.0060
vn 0.9919 -0.1248 -0.0223
vn 0.9940 -0.1082 0.0132
vn 0.9898 -0.1423 -0.0058
vn 0.9868 -0.1557 -0.0454
vn 0.9921 -0.1037 -0.0701
vn 0.9852 -0.1705 -0.0154
vn 0.9715 -0.2366 -0.0135
vn 0.9877 -0.1561 0.0129
vn 0.9875 -0.1483 -0.0532
vn 0.9945 -0.1038 -0.0151
vn 0.9940 -0.1090 -0.0076
vn 0.8323 0.4523 0.3204
vn 0.8834 0.4549 0.1126
vn 0.9294 0.3579 0.0899
vn 0.8802 0.4542 0.1374
vn 0.8912 0.3491 0.2896
vn 0.9643 0.2168 0.1523
vn 0.9672 0.1981 0.1587
vn 0.9214 0.3848 0.0536
vn 0.9117 0.3982 0.1013
vn 0.9828 -0.1579 -0.0957
vn 0.7238 0.6815 0.1078
vn 0.6936 0.6483 0.3140
vn 0.8139 0.5591 0.1583
vn 0.9883 -0.1323 0.0759
vn 0.9968 -0.0780 0.0199
vn 0.9958 -0.0901 0.0182
vn 0.9963 -0.0845 -0.0137
vn 0.9914 -0.1286 -0.0221
vn 0.9927 -0.1175 0.0260
vn 0.9950 -0.0999 -0.0096
vn 0.9656 0.2389 0.1026
vn 0.9598 0.2506 0.1261
vn 0.6988 0.6379 0.3237
vn 0.9921 -0.1233 -0.0237
vn 0.9943 -0.1049 -0.0175
vn 0.9929 -0.1168 -0.0202
vn 0.9950 -0.0952 -0.0293
usemtl None
s off
f 1/1/1 2/2/1 3/3/1
f 1/1/2 4/4/2 2/2/2
f 5/5/3 6/6/3 7/7/3
f 8/8/4 9/9/4 10/10/4
f 11/11/5 9/9/5 8/8/5
f 12/12/6 14/13/6 13/14/6
f 13/14/7 15/15/7 12/12/7
f 16/16/8 14/13/8 12/12/8
f 17/17/9 18/18/9 3/3/9
f 19/19/10 10/10/10 9/9/10
f 20/20/11 21/21/11 22/22/11
f 23/23/12 24/24/12 5/5/12
f 23/23/13 5/5/13 7/7/13
f 25/25/14 2/2/14 4/4/14
f 26/26/15 27/27/15 28/28/15
f 24/24/16 29/29/16 5/5/16
f 30/30/17 31/31/17 32/32/17
f 33/33/18 34/34/18 19/19/18
f 31/31/19 30/30/19 35/35/19
f 24/24/20 14/13/20 29/29/20
f 36/36/21 37/37/21 32/32/21
f 31/31/22 35/35/22 38/38/22
f 39/39/23 40/40/23 41/41/23
f 42/42/24 10/10/24 34/34/24
f 43/43/25 42/42/25 34/34/25
f 44/44/26 45/45/26 46/46/26
f 47/47/27 44/44/27 46/46/27
f 36/36/28 32/32/28 31/31/28
f 23/23/29 7/7/29 48/48/29
f 49/49/30 35/35/30 50/50/30
f 34/34/31 10/10/31 19/19/31
f 36/36/32 21/21/32 37/37/32
f 37/37/33 51/51/33 32/32/33
f 20/20/34 47/47/34 21/21/34
f 45/45/35 44/44/35 52/52/35
f 53/53/36 55/54/36 54/55/36
f 46/46/37 6/6/37 56/56/37
f 52/52/38 44/44/38 54/55/38
f 52/52/38 54/55/38 55/54/38
f 45/45/39 52/52/39 57/57/39
f 40/40/40 8/8/40 57/57/40
f 52/52/41 55/54/41 58/58/41
f 46/46/42 45/45/42 6/6/42
f 56/56/43 6/6/43 59/59/43
f 49/49/44 50/50/44 60/60/44
f 40/40/45 39/39/45 8/8/45
f 27/27/46 61/61/46 62/62/46
f 28/28/47 27/27/47 62/62/47
f 46/46/48 56/56/48 47/47/48
f 63/63/49 6/6/49 5/5/49
f 64/64/50 1/1/50 3/3/50
f 49/49/51 60/60/51 65/65/51
f 44/44/52 47/47/52 20/20/52
f 30/30/53 32/32/53 66/66/53
f 44/44/54 20/20/54 54/55/54
f 25/25/55 61/61/55 27/27/55
f 20/20/56 22/22/56 54/55/56
f 52/52/57 58/58/57 57/57/57
f 17/17/58 67/67/58 18/18/58
f 25/25/59 4/4/59 61/61/59
f 66/66/60 35/35/60 30/30/60
f 68/68/61 33/33/61 69/69/61
f 70/70/62 68/68/62 69/69/62
f 71/71/63 14/13/63 72/72/63
f 73/73/64 74/74/64 42/42/64
f 75/75/65 73/73/65 42/42/65
f 75/75/66 42/42/66 43/43/66
f 76/76/67 19/19/67 77/77/67
f 76/76/68 33/33/68 19/19/68
f 78/78/69 14/13/69 24/24/69
f 79/79/70 43/43/70 34/34/70
f 79/79/71 34/34/71 33/33/71
f 76/76/72 69/69/72 33/33/72
f 80/80/73 82/81/73 81/82/73
f 80/80/74 83/83/74 82/81/74
f 72/72/75 14/13/75 16/16/75
f 84/84/76 13/14/76 14/13/76
f 84/84/77 81/82/77 82/81/77
f 84/84/78 82/81/78 13/14/78
f 85/85/79 83/83/79 43/43/79
f 70/70/80 69/69/80 86/86/80
f 78/78/81 24/24/81 23/23/81
f 74/74/82 73/73/82 48/48/82
f 71/71/83 29/29/83 14/13/83
f 87/87/84 48/48/84 88/88/84
f 87/87/85 23/23/85 48/48/85
f 73/73/86 88/88/86 48/48/86
f 89/89/87 90/90/87 82/81/87
f 91/91/88 83/83/88 85/85/88
f 89/89/89 82/81/89 83/83/89
f 25/25/90 26/26/90 41/41/90
f 25/25/91 41/41/91 92/92/91
f 25/25/92 92/92/92 2/2/92
f 25/25/93 27/27/93 26/26/93
f 45/45/94 7/7/94 6/6/94
f 57/57/95 8/8/95 45/45/95
f 59/59/96 93/93/96 56/56/96
f 15/15/97 13/14/97 90/90/97
f 90/90/98 13/14/98 82/81/98
f 77/77/99 19/19/99 9/9/99
f 94/94/100 85/85/100 79/79/100
f 94/94/101 79/79/101 33/33/101
f 79/79/102 85/85/102 43/43/102
f 22/22/103 31/31/103 38/38/103
f 36/36/104 31/31/104 22/22/104
f 36/36/105 22/22/105 21/21/105
f 94/94/106 33/33/106 68/68/106
f 94/94/107 68/68/107 70/70/107
f 8/8/108 95/95/108 11/11/108
f 74/74/109 10/10/109 42/42/109
f 74/74/110 48/48/110 7/7/110
f 67/67/111 17/17/111 49/49/111
f 49/49/112 65/65/112 67/67/112
f 92/92/113 55/54/113 53/53/113
f 56/56/114 93/93/114 47/47/114
f 38/38/115 35/35/115 49/49/115
f 49/49/116 22/22/116 38/38/116
f 17/17/117 3/3/117 49/49/117
f 8/8/118 7/7/118 45/45/118
f 74/74/119 8/8/119 10/10/119
f 8/8/120 74/74/120 7/7/120
f 49/49/121 3/3/121 53/53/121
f 22/22/122 49/49/122 53/53/122
f 22/22/123 53/53/123 54/55/123
f 2/2/124 92/92/124 53/53/124
f 2/2/125 53/53/125 3/3/125
f 37/37/126 47/47/126 93/93/126
f 37/37/127 96/96/127 51/51/127
f 47/47/128 37/37/128 21/21/128
f 37/37/129 93/93/129 96/96/129
f 63/63/130 59/59/130 6/6/130
f 59/59/131 63/63/131 93/93/131
f 89/89/132 83/83/132 91/91/132
f 78/78/133 84/84/133 14/13/133
f 81/82/134 78/78/134 80/80/134
f 78/78/135 81/82/135 84/84/135
f 88/88/136 43/43/136 83/83/136
f 88/88/137 75/75/137 43/43/137
f 75/75/138 88/88/138 73/73/138
f 88/88/139 83/83/139 87/87/139
f 80/80/140 87/87/140 83/83/140
f 18/18/141 64/64/141 3/3/141
f 97/97/142 15/15/142 90/90/142
f 15/15/143 98/98/143 16/16/143
f 15/15/144 16/16/144 12/12/144
f 28/28/145 62/62/145 95/95/145
f 99/99/146 95/95/146 62/62/146
f 95/95/147 99/99/147 11/11/147
f 95/95/148 8/8/148 39/39/148
f 26/26/149 95/95/149 41/41/149
f 26/26/150 28/28/150 95/95/150
f 95/95/151 39/39/151 41/41/151
f 78/78/152 23/23/152 80/80/152
f 87/87/153 80/80/153 23/23/153
f 97/97/154 98/98/154 15/15/154
f 92/92/155 41/41/155 55/54/155
f 41/41/156 40/40/156 57/57/156
f 41/41/157 58/58/157 55/54/157
f 41/41/158 57/57/158 58/58/158
