# Blender v2.79 (sub 0) OBJ File: ''
# www.blender.org
mtllib crack_only_108.mtl
o crack_only_108
v 2.805253 1.155801 -3.263913
v 2.824427 1.407605 -3.305970
v 2.857577 1.537053 -2.946153
v 2.770475 1.244337 -3.612223
v 2.897629 1.984564 -3.666418
v 2.896708 2.517082 -4.636526
v 2.932282 2.551113 -4.415786
v 2.796146 2.133180 -4.642692
v 2.819732 1.682541 -1.944147
v 2.883143 2.007425 -2.206078
v 2.813958 1.948257 -1.559721
v 3.010081 2.499386 -2.493773
v 3.047935 2.802142 -2.068423
v 2.983812 2.404749 -2.246007
v 3.095810 2.892187 -2.519553
v 2.809754 1.392480 -2.155972
v 2.862749 1.756068 -2.447850
v 2.843317 1.385349 -2.734643
v 2.818321 1.171352 -2.657598
v 2.975197 2.595967 -1.538066
v 2.987321 2.688127 -1.258773
v 2.873297 2.303490 -1.373027
v 2.819613 1.160712 -2.785664
v 2.748150 1.459123 -4.013953
v 2.753299 1.765692 -4.343234
v 2.815637 1.131324 -3.120871
v 3.066977 3.046122 -1.471179
v 2.944994 2.762768 -4.754435
v 2.871175 2.544360 -4.881849
v 3.017229 2.605766 -3.664616
v 2.903543 2.316835 -4.181830
v 2.899216 1.814425 -2.694103
v 3.120449 3.175556 -2.195117
v 3.102318 3.221159 -1.762583
v 3.131367 3.403125 -1.892220
v 3.153276 3.335012 -2.601602
v 3.188966 3.836982 -2.310080
v 3.105134 2.991762 -2.949590
v 3.070007 2.768974 -3.051931
v 3.161838 3.645921 -1.282128
v 3.162411 3.621676 -1.628861
v 3.123978 3.292062 -1.600070
v 2.981668 2.881416 -4.565577
v 3.038246 3.027056 -4.274416
v 3.039151 3.139146 -4.418815
v 3.095509 3.061280 -3.595292
v 3.125153 3.178478 -3.278158
v 3.063623 2.768545 -3.381602
v 3.163240 3.532877 -3.416689
v 3.162323 3.479267 -3.054561
v 3.194356 3.937746 -2.714793
v 2.897400 2.642918 -4.945443
v 3.194808 3.798206 -3.086881
v 3.038448 3.249405 -4.682004
v 3.003278 3.074436 -4.677201
v 3.043653 3.227520 -4.503194
v 3.084866 3.402836 -4.332276
v 3.179174 3.762491 -2.019248
v 3.143564 3.471555 -2.001908
v 2.981766 2.935046 -4.667731
v 3.004244 3.047464 -4.844029
v 3.186394 3.856116 -1.877136
v 2.962994 2.855176 -4.914251
v 2.992212 2.929724 -5.060557
v 3.182495 3.819892 -1.463907
v 3.199389 3.998926 -1.313100
v 3.194431 4.103282 -2.097366
v 3.207788 4.172248 -1.691678
v 3.182574 3.833588 -1.652440
v 2.980978 2.282807 -2.825297
v 3.070128 3.160089 -5.074795
v 2.961342 2.507569 -1.680380
v 3.062421 2.983681 -1.681000
v 2.959961 2.808033 -4.632452
v 3.001813 2.686671 -4.137143
v 3.077178 3.415013 -4.945627
v 3.093839 3.336792 -5.080100
v 3.114067 3.651984 -4.528040
v 3.088727 3.553193 -4.720645
v 3.040693 2.805606 -3.826453
v 3.133440 3.781101 -4.236618
v 3.070659 3.231827 -4.220736
v 2.989789 2.316514 -3.329542
v 3.173243 3.811765 -3.567426
v 3.187100 3.999528 -3.492006
v 3.206134 4.022582 -3.162593
v 3.202198 4.285845 -2.072414
v 3.199438 4.202544 -2.471156
v 3.208807 4.085297 -2.876711
v 3.115491 3.367319 -1.261516
v 3.070813 3.127681 -4.067525
v 3.070258 2.921944 -3.696905
v 3.099500 3.319397 -4.058269
v 3.146494 3.538550 -3.752907
v 3.164529 3.910229 -3.891073
v 3.217848 4.421941 -1.338462
vt 0.034657 0.357540
vt 0.120889 0.359610
vt 0.140934 0.455682
vt 0.085197 0.274959
vt 0.337465 0.299077
vt 0.576523 0.084109
vt 0.574681 0.140999
vt 0.446312 0.062704
vt 0.120057 0.711275
vt 0.247002 0.662788
vt 0.181247 0.819687
vt 0.433459 0.616769
vt 0.506154 0.737641
vt 0.384687 0.673400
vt 0.568003 0.630509
vt 0.038640 0.644372
vt 0.179761 0.590222
vt 0.076453 0.500651
vt 0.000000 0.509056
vt 0.399783 0.858504
vt 0.411963 0.932519
vt 0.288063 0.884079
vt 0.005105 0.476738
vt 0.181261 0.185416
vt 0.303894 0.118659
vt 0.017609 0.391991
vt 0.547239 0.898132
vt 0.600575 0.024220
vt 0.667199 0.067360
vt 0.546639 0.331204
vt 0.480953 0.187348
vt 0.217034 0.532307
vt 0.640432 0.725220
vt 0.625698 0.834691
vt 0.695352 0.811702
vt 0.721329 0.632403
vt 0.868111 0.729742
vt 0.629719 0.528655
vt 0.561846 0.491958
vt 0.735741 0.975453
vt 0.639148 0.878764
vt 0.750917 0.888145
vt 0.695260 0.120478
vt 0.772697 0.170165
vt 0.726307 0.200547
vt 0.695040 0.371551
vt 0.713745 0.456383
vt 0.583356 0.409975
vt 0.840928 0.439711
vt 0.799199 0.527036
vt 0.928341 0.634194
vt 0.638364 0.013529
vt 0.907420 0.534952
vt 0.826321 0.110167
vt 0.807491 0.153573
vt 0.766980 0.102421
vt 0.855532 0.205053
vt 0.823863 0.798238
vt 0.725666 0.787934
vt 0.719641 0.097724
vt 0.769298 0.059673
vt 0.845423 0.838194
vt 0.708987 0.032376
vt 0.744561 0.000000
vt 0.805846 0.939028
vt 0.855278 0.985425
vt 0.941467 0.795655
vt 0.937688 0.899947
vt 0.822894 0.892866
vt 0.383174 0.523512
vt 0.824733 0.008583
vt 0.379630 0.818679
vt 0.540534 0.842910
vt 0.674626 0.100039
vt 0.603880 0.217610
vt 0.900003 0.053204
vt 0.884127 0.016163
vt 0.930851 0.115970
vt 0.951612 0.168922
vt 0.624026 0.301028
vt 0.975442 0.247837
vt 0.791386 0.224246
vt 0.428224 0.400000
vt 0.942832 0.416006
vt 1.000000 0.444069
vt 0.986529 0.527234
vt 1.000000 0.810860
vt 0.999127 0.707709
vt 0.988168 0.601342
vt 0.640853 0.966446
vt 0.747064 0.257217
vt 0.654938 0.339221
vt 0.810645 0.269202
vt 0.996233 0.340326
vt 0.864375 0.356285
vt 0.996466 1.000000
vn 0.9945 -0.0859 -0.0607
vn 0.9814 -0.1744 -0.0799
vn 0.9612 -0.2499 -0.1164
vn 0.9887 -0.1162 0.0952
vn 0.9838 -0.1754 0.0373
vn 0.9760 -0.2089 0.0619
vn 0.9886 -0.1096 0.1034
vn 0.9926 -0.1155 0.0363
vn 0.9937 -0.0949 0.0588
vn 0.9524 -0.2994 0.0575
vn 0.9938 -0.1092 0.0191
vn 0.9726 -0.1775 -0.1500
vn 0.9949 -0.1006 -0.0051
vn 0.9945 -0.1043 -0.0027
vn 0.9788 -0.2032 0.0246
vn 0.9943 -0.0668 -0.0836
vn 0.9598 -0.2499 -0.1277
vn 0.9600 -0.2494 -0.1276
vn 0.9761 -0.1876 -0.1097
vn 0.9878 -0.0958 -0.1230
vn 0.9898 -0.0328 0.1388
vn 0.9834 -0.1669 0.0711
vn 0.9913 -0.1197 0.0542
vn 0.9945 -0.0956 0.0428
vn 0.9919 -0.1228 0.0319
vn 0.9914 -0.1303 -0.0087
vn 0.9886 -0.1498 -0.0132
vn 0.9933 -0.1150 0.0097
vn 0.9815 -0.1542 -0.1136
vn 0.9896 -0.1381 -0.0415
vn 0.9911 -0.1247 -0.0466
vn 0.9977 -0.0683 -0.0018
vn 0.9553 -0.2903 -0.0559
vn 0.9945 -0.0975 0.0378
vn 0.9946 -0.1026 -0.0127
vn 0.9787 -0.1982 -0.0527
vn 0.9821 -0.1814 -0.0508
vn 0.9926 -0.1214 0.0023
vn 0.9786 -0.2057 -0.0064
vn 0.9947 -0.0977 0.0307
vn 0.9926 -0.1216 -0.0012
vn 0.9958 -0.0916 0.0097
vn 0.9692 -0.2349 0.0739
vn 0.9784 -0.2065 -0.0092
vn 0.9532 -0.3001 0.0375
vn 0.9562 -0.2869 -0.0582
vn 0.9944 -0.1047 0.0128
vn 0.9941 -0.1084 0.0092
vn 0.9983 -0.0536 -0.0238
vn 0.9966 -0.0813 -0.0151
vn 0.9954 -0.0954 -0.0065
vn 0.9972 -0.0748 -0.0050
vn 0.9956 -0.0939 0.0075
vn 0.9973 -0.0731 0.0096
vn 0.9824 -0.1839 0.0339
vn 0.9429 -0.3117 0.1171
vn 0.9882 -0.1505 0.0300
vn 0.9799 -0.1959 0.0374
vn 0.9789 -0.1908 0.0736
vn 0.9731 -0.2260 0.0456
vn 0.9876 -0.1464 0.0568
vn 0.9834 -0.1755 0.0455
vn 0.9700 -0.2091 -0.1241
vn 0.9770 -0.2131 0.0020
vn 0.9929 -0.1175 -0.0195
vn 0.9819 -0.1826 -0.0512
vn 0.9817 -0.1831 -0.0525
vn 0.9805 -0.1904 -0.0476
vn 0.9765 -0.2117 -0.0413
vn 0.9756 -0.1933 -0.1046
vn 0.9754 -0.1957 -0.1018
vn 0.9773 -0.1893 -0.0952
vn 0.9725 -0.1688 -0.1605
vn 0.9732 -0.1248 0.1932
vn 0.9866 -0.1551 -0.0502
vn 0.9747 -0.1982 -0.1035
vn 0.9839 -0.1700 -0.0560
vn 0.9989 -0.0393 0.0236
vn 0.9986 -0.0489 -0.0185
vn 0.9982 -0.0129 0.0581
vn 0.9845 -0.1731 0.0279
vn 0.9882 -0.1488 -0.0375
vn 0.9921 -0.1247 -0.0107
vn 0.9865 -0.1574 0.0460
vn 0.9683 -0.1338 0.2112
vn 0.9819 -0.1875 0.0264
vn 0.9858 -0.1411 -0.0908
vn 0.9857 -0.1400 -0.0941
vn 0.9854 -0.1704 0.0058
vn 0.9869 -0.1606 0.0137
vn 0.9786 -0.1782 0.1027
vn 0.9669 -0.2540 -0.0237
vn 0.9627 -0.2409 -0.1230
vn 0.9614 -0.2444 -0.1266
vn 0.9681 -0.2371 0.0816
vn 0.9654 -0.2241 -0.1334
vn 0.9652 -0.2233 -0.1359
vn 0.9972 -0.0519 -0.0540
vn 0.9969 -0.0621 -0.0487
vn 0.9853 -0.1692 0.0241
vn 0.9991 -0.0428 0.0020
vn 0.9648 -0.2320 0.1235
vn 0.9860 -0.1638 0.0297
vn 0.9997 -0.0253 0.0067
vn 0.9996 -0.0260 0.0068
vn 0.9962 -0.0869 0.0097
vn 0.9977 -0.0550 0.0389
vn 0.9976 -0.0687 -0.0038
vn 0.9854 -0.1595 0.0602
vn 0.9772 -0.2002 -0.0701
vn 0.9841 -0.1777 0.0053
vn 0.9791 -0.1917 0.0672
vn 0.9778 -0.2057 0.0400
vn 0.9873 -0.1436 -0.0686
vn 0.9842 -0.1556 -0.0849
vn 0.9787 -0.1882 -0.0823
vn 0.9826 -0.1719 -0.0698
vn 0.9847 -0.1449 -0.0967
vn 0.9907 -0.1057 -0.0851
vn 0.9922 -0.0828 -0.0933
vn 0.9941 -0.0940 -0.0543
vn 0.9680 -0.2374 0.0819
vn 0.9548 -0.2852 0.0842
vn 0.9657 -0.2274 0.1257
vn 0.9726 -0.1780 -0.1492
vn 0.9928 -0.0910 0.0778
vn 0.9991 -0.0435 0.0023
vn 0.9994 0.0083 -0.0343
vn 0.9991 -0.0406 -0.0138
vn 0.9877 -0.1556 0.0127
vn 0.9933 -0.1064 0.0441
vn 0.9970 -0.0649 -0.0432
vn 0.9989 -0.0444 0.0179
vn 0.9842 -0.1458 -0.1001
vn 0.9826 -0.1582 -0.0968
vn 0.9817 -0.1690 -0.0878
vn 0.9885 -0.1434 -0.0490
vn 0.9783 -0.1992 0.0567
vn 0.9779 -0.2053 0.0399
vn 0.9811 -0.1849 0.0563
vn 0.9861 -0.1283 -0.1059
vn 0.9860 -0.1434 -0.0855
vn 0.9867 -0.1311 -0.0956
vn 0.9862 -0.1406 -0.0869
vn 0.9893 -0.1284 -0.0698
vn 0.9869 -0.1442 -0.0719
vn 0.9901 -0.1262 -0.0618
vn 0.9911 -0.1229 -0.0514
vn 0.9864 -0.1633 -0.0189
vn 0.9837 -0.1681 -0.0646
vn 0.9832 -0.1713 -0.0627
vn 0.9967 -0.0632 -0.0507
vn 0.9975 -0.0560 -0.0439
vn 0.9967 -0.0658 -0.0468
vn 0.9891 -0.1456 -0.0225
vn 0.9894 -0.1437 -0.0190
vn 0.9937 -0.1112 -0.0156
vn 0.9918 -0.1271 -0.0118
vn 0.9936 -0.1123 -0.0141
usemtl None
s off
f 1/1/1 2/2/1 3/3/1
f 2/2/2 4/4/2 5/5/2
f 6/6/3 7/7/3 8/8/3
f 9/9/4 10/10/4 11/11/4
f 12/12/5 13/13/5 14/14/5
f 12/12/6 15/15/6 13/13/6
f 10/10/7 9/9/7 16/16/7
f 10/10/8 16/16/8 17/17/8
f 18/18/9 16/16/9 19/19/9
f 20/20/10 21/21/10 22/22/10
f 18/18/11 19/19/11 23/23/11
f 24/24/12 25/25/12 5/5/12
f 18/18/13 26/26/13 3/3/13
f 18/18/14 23/23/14 26/26/14
f 27/27/15 21/21/15 20/20/15
f 3/3/16 26/26/16 1/1/16
f 6/6/17 29/28/17 28/29/17
f 6/6/18 8/8/18 29/28/18
f 30/30/19 5/5/19 31/31/19
f 2/2/20 1/1/20 4/4/20
f 32/32/21 17/17/21 16/16/21
f 13/13/22 15/15/22 33/33/22
f 34/34/23 33/33/23 35/35/23
f 36/36/24 37/37/24 33/33/24
f 36/36/25 33/33/25 15/15/25
f 38/38/26 36/36/26 15/15/26
f 39/39/27 38/38/27 15/15/27
f 40/40/28 42/41/28 41/42/28
f 43/43/29 45/44/29 44/45/29
f 46/46/30 47/47/30 48/48/30
f 47/47/31 46/46/31 49/49/31
f 50/50/32 51/51/32 36/36/32
f 29/28/33 52/52/33 28/29/33
f 53/53/34 51/51/34 50/50/34
f 53/53/35 50/50/35 49/49/35
f 54/54/36 56/55/36 55/56/36
f 54/54/37 57/57/37 56/55/37
f 58/58/38 59/59/38 37/37/38
f 60/60/39 28/29/39 61/61/39
f 59/59/40 33/33/40 37/37/40
f 59/59/41 58/58/41 41/42/41
f 62/62/42 41/42/42 58/58/42
f 63/63/43 64/64/43 61/61/43
f 63/63/44 61/61/44 28/29/44
f 63/63/45 52/52/45 64/64/45
f 63/63/46 28/29/46 52/52/46
f 65/65/47 66/66/47 40/40/47
f 65/65/48 40/40/48 41/42/48
f 62/62/49 67/67/49 68/68/49
f 66/66/50 65/65/50 68/68/50
f 65/65/51 41/42/51 69/69/51
f 69/69/52 68/68/52 65/65/52
f 62/62/53 69/69/53 41/42/53
f 69/69/54 62/62/54 68/68/54
f 70/70/55 12/12/55 14/14/55
f 71/71/56 61/61/56 64/64/56
f 55/56/57 60/60/57 61/61/57
f 55/56/58 61/61/58 54/54/58
f 72/72/59 14/14/59 13/13/59
f 72/72/60 13/13/60 20/20/60
f 34/34/61 73/73/61 33/33/61
f 73/73/62 13/13/62 33/33/62
f 74/74/63 7/7/63 6/6/63
f 39/39/64 15/15/64 12/12/64
f 35/35/65 41/42/65 42/41/65
f 73/73/66 34/34/66 42/41/66
f 74/74/67 28/29/67 60/60/67
f 35/35/68 42/41/68 34/34/68
f 74/74/69 6/6/69 28/29/69
f 43/43/70 7/7/70 74/74/70
f 60/60/71 43/43/71 74/74/71
f 43/43/72 44/45/72 7/7/72
f 44/45/73 75/75/73 7/7/73
f 76/76/74 71/71/74 77/77/74
f 57/57/75 79/78/75 78/79/75
f 80/80/76 30/30/76 31/31/76
f 54/54/77 79/78/77 57/57/77
f 58/58/78 37/37/78 67/67/78
f 62/62/79 58/58/79 67/67/79
f 18/18/80 3/3/80 16/16/80
f 3/3/81 32/32/81 16/16/81
f 2/2/82 5/5/82 3/3/82
f 78/79/83 81/81/83 57/57/83
f 79/78/84 54/54/84 76/76/84
f 71/71/85 76/76/85 61/61/85
f 54/54/86 61/61/86 76/76/86
f 82/82/87 45/44/87 57/57/87
f 56/55/88 57/57/88 45/44/88
f 83/83/89 70/70/89 32/32/89
f 83/83/90 32/32/90 3/3/90
f 10/10/91 17/17/91 32/32/91
f 31/31/92 75/75/92 80/80/92
f 31/31/93 7/7/93 75/75/93
f 31/31/94 8/8/94 7/7/94
f 72/72/95 10/10/95 14/14/95
f 31/31/96 5/5/96 25/25/96
f 31/31/97 25/25/97 8/8/97
f 84/84/98 85/85/98 86/86/98
f 84/84/99 86/86/99 49/49/99
f 39/39/100 12/12/100 70/70/100
f 87/87/101 67/67/101 88/88/101
f 10/10/102 32/32/102 14/14/102
f 70/70/103 14/14/103 32/32/103
f 88/88/104 67/67/104 51/51/104
f 67/67/105 37/37/105 51/51/105
f 89/89/106 51/51/106 86/86/106
f 51/51/107 89/89/107 88/88/107
f 36/36/108 51/51/108 37/37/108
f 90/90/109 42/41/109 40/40/109
f 3/3/110 5/5/110 83/83/110
f 70/70/111 83/83/111 39/39/111
f 90/90/112 27/27/112 42/41/112
f 73/73/113 42/41/113 27/27/113
f 91/91/114 80/80/114 75/75/114
f 80/80/115 91/91/115 92/92/115
f 30/30/116 83/83/116 5/5/116
f 92/92/117 30/30/117 80/80/117
f 82/82/118 57/57/118 93/93/118
f 93/93/119 57/57/119 81/81/119
f 93/93/120 95/94/120 94/95/120
f 93/93/121 81/81/121 95/94/121
f 10/10/122 72/72/122 11/11/122
f 20/20/123 22/22/123 72/72/123
f 72/72/124 22/22/124 11/11/124
f 4/4/125 24/24/125 5/5/125
f 9/9/126 11/11/126 16/16/126
f 66/66/127 68/68/127 96/96/127
f 96/96/128 68/68/128 67/67/128
f 96/96/129 67/67/129 87/87/129
f 59/59/130 41/42/130 35/35/130
f 35/35/131 33/33/131 59/59/131
f 53/53/132 49/49/132 86/86/132
f 86/86/133 51/51/133 53/53/133
f 55/56/134 56/55/134 45/44/134
f 55/56/135 45/44/135 60/60/135
f 60/60/136 45/44/136 43/43/136
f 92/92/137 46/46/137 48/48/137
f 73/73/138 20/20/138 13/13/138
f 73/73/139 27/27/139 20/20/139
f 27/27/140 90/90/140 21/21/140
f 44/45/141 82/82/141 93/93/141
f 44/45/142 93/93/142 91/91/142
f 45/44/143 82/82/143 44/45/143
f 44/45/144 91/91/144 75/75/144
f 46/46/145 92/92/145 91/91/145
f 46/46/146 91/91/146 93/93/146
f 94/95/147 46/46/147 93/93/147
f 46/46/148 94/95/148 49/49/148
f 48/48/149 39/39/149 83/83/149
f 30/30/150 48/48/150 83/83/150
f 92/92/151 48/48/151 30/30/151
f 84/84/152 49/49/152 94/95/152
f 85/85/153 84/84/153 95/94/153
f 94/95/154 95/94/154 84/84/154
f 47/47/155 38/38/155 39/39/155
f 47/47/156 39/39/156 48/48/156
f 50/50/157 36/36/157 47/47/157
f 47/47/158 36/36/158 38/38/158
f 47/47/159 49/49/159 50/50/159
