# Blender v2.79 (sub 0) OBJ File: ''
# www.blender.org
mtllib crack_only_37.mtl
o crack_only_37
v 2.843633 1.385745 -2.152771
v 2.866321 1.506701 -2.458360
v 2.880008 1.269830 -2.405250
v 2.872128 1.424007 -2.720913
v 2.856572 1.381093 -2.982540
v 2.887989 1.630199 -2.997265
v 2.888816 1.164186 -2.646433
v 2.889540 1.149401 -2.725123
v 2.885156 1.137003 -2.884158
v 2.783170 1.553732 -1.931377
v 2.817712 1.635741 -2.103608
v 2.872823 1.738847 -2.378328
v 2.920570 1.823068 -2.793780
v 2.828103 1.662783 -2.180952
v 2.772425 1.350723 -3.809989
v 2.786929 1.523411 -3.668959
v 2.787646 1.262399 -3.665260
v 2.894234 1.745817 -3.221467
v 2.843140 1.341382 -3.307705
v 2.793197 1.216924 -3.549732
v 2.823442 1.169576 -3.359768
v 2.860713 1.130472 -3.116163
vt 0.192152 0.869045
vt 0.090710 0.726586
vt 0.449519 0.721152
vt 0.398556 0.576316
vt 0.404892 0.435545
vt 0.772224 0.451690
vt 0.000727 0.590760
vt 0.000000 0.548288
vt 0.023884 0.464056
vt 0.542822 0.918140
vt 0.377204 1.000000
vt 0.766638 0.784947
vt 1.000000 0.576438
vt 0.602845 0.880410
vt 0.577736 0.000000
vt 0.792280 0.090082
vt 0.411121 0.067327
vt 1.000000 0.345639
vt 0.432724 0.261927
vt 0.314456 0.123383
vt 0.195856 0.218328
vt 0.075222 0.342116
vn 0.9911 0.0809 0.1056
vn 0.9983 0.0585 0.0037
vn 0.9911 -0.1273 -0.0381
vn 0.9978 0.0662 0.0074
vn 0.9980 0.0633 -0.0027
vn 0.9974 0.0637 -0.0325
vn 0.9935 0.0868 -0.0733
vn 0.9733 0.0572 0.2224
vn 0.9929 -0.0628 0.1014
vn 0.9928 0.0658 0.0998
vn 0.9782 -0.0916 0.1863
vn 0.9989 -0.0332 0.0326
vn 0.9858 -0.1678 0.0012
vn 0.9946 0.0013 -0.1038
vn 0.9911 -0.1273 -0.0380
vn 0.9916 -0.1266 -0.0255
vn 0.9833 -0.0607 -0.1717
vn 0.9924 -0.1183 -0.0333
vn 0.9829 -0.0490 -0.1776
vn 0.9989 0.0021 -0.0472
vn 0.9776 -0.0822 -0.1936
vn 0.9850 0.0712 0.1572
vn 0.9981 0.0412 -0.0463
vn 0.9849 -0.0641 -0.1610
vn 0.9916 0.0732 -0.1065
usemtl None
s off
f 1/1/1 3/2/1 2/3/1
f 3/2/2 4/4/2 2/3/2
f 5/5/3 6/6/3 4/4/3
f 7/7/4 4/4/4 3/2/4
f 8/8/5 4/4/5 7/7/5
f 8/8/6 9/9/6 4/4/6
f 9/9/7 5/5/7 4/4/7
f 11/10/8 10/11/8 1/1/8
f 12/12/9 2/3/9 13/13/9
f 14/14/10 1/1/10 2/3/10
f 2/3/11 12/12/11 14/14/11
f 6/6/12 2/3/12 4/4/12
f 6/6/13 13/13/13 2/3/13
f 15/15/14 16/16/14 17/17/14
f 6/6/15 18/18/15 13/13/15
f 19/19/16 6/6/16 5/5/16
f 20/20/17 19/19/17 21/21/17
f 18/18/18 6/6/18 19/19/18
f 20/20/19 16/16/19 19/19/19
f 16/16/20 20/20/20 17/17/20
f 19/19/21 16/16/21 18/18/21
f 11/10/22 1/1/22 14/14/22
f 22/22/23 19/19/23 5/5/23
f 19/19/24 22/22/24 21/21/24
f 22/22/25 5/5/25 9/9/25
