# Blender v2.79 (sub 0) OBJ File: ''
# www.blender.org
mtllib crack_only_105.mtl
o crack_only_105
v 2.897218 2.517043 -4.636534
v 2.932282 2.551113 -4.415786
v 2.795995 2.133301 -4.642675
v 2.984521 2.301969 -2.794721
v 3.049362 2.802961 -2.069087
v 2.983851 2.404708 -2.246029
v 3.097061 2.891684 -2.519267
v 2.820100 1.682338 -1.943870
v 2.882968 2.007488 -2.206284
v 2.813336 1.948527 -1.559629
v 2.816110 1.323814 -2.289253
v 2.863458 1.756615 -2.446340
v 2.944952 2.762362 -4.754694
v 2.870161 2.545527 -4.881615
v 3.154995 3.337390 -2.601896
v 3.183534 3.756427 -2.289712
v 3.206705 4.034907 -2.716081
v 2.975146 2.595984 -1.538048
v 2.988253 2.688004 -1.258573
v 2.872968 2.303631 -1.373097
v 2.748047 1.459138 -4.013881
v 2.752846 1.765735 -4.342947
v 2.880183 1.859968 -3.593502
v 2.858798 1.545498 -2.944646
v 2.817456 1.130860 -3.121495
v 2.822320 1.160255 -2.784008
v 2.800178 1.618448 -1.824534
v 3.070639 3.035263 -1.474364
v 3.203465 4.179368 -2.039008
v 3.213954 4.256081 -1.692174
v 3.189490 3.856678 -2.025171
v 2.900038 1.818774 -2.693308
v 3.121285 3.178223 -2.194659
v 3.108687 2.995596 -2.951404
v 3.071412 2.767798 -3.054246
v 3.162362 3.648949 -1.282281
v 3.165451 3.629608 -1.631807
v 3.123978 3.292062 -1.600070
v 3.039147 3.029772 -4.278846
v 3.003376 2.689283 -4.138582
v 2.893916 2.642417 -4.942623
v 3.076277 2.900527 -3.598713
v 3.127669 3.179034 -3.278545
v 3.065674 2.769109 -3.380840
v 3.169003 3.529648 -3.421015
v 3.102526 3.141460 -3.709105
v 3.163288 3.480103 -3.056164
v 3.185756 3.720457 -2.937387
v 3.194468 3.793552 -3.089721
v 3.041070 3.149020 -4.405966
v 3.033964 3.240978 -4.619184
v 3.093188 3.545061 -4.485459
v 3.120846 3.474405 -3.995937
v 3.149066 3.552572 -3.754232
v 3.160080 3.799413 -3.886299
v 3.144050 3.471347 -1.999526
v 3.203151 4.110879 -2.369762
v 3.000399 3.049736 -4.677868
v 3.002981 3.047964 -4.847298
v 2.960280 2.855867 -4.916320
v 2.990898 2.927661 -5.059256
v 3.182495 3.823835 -1.469190
v 3.182638 3.839456 -1.659856
v 3.040902 2.605626 -3.251072
v 2.973780 2.174052 -3.054724
v 2.991714 2.355726 -3.517763
v 3.066975 3.158865 -5.073927
v 3.061461 3.371528 -4.881414
v 2.961164 2.507571 -1.680407
v 3.058623 2.969735 -1.675568
v 2.980079 2.875322 -4.572763
v 3.131854 3.403091 -1.892254
v 3.086525 3.278102 -5.078907
v 3.222538 4.311808 -1.331430
v 3.206911 4.059040 -1.314294
v 3.132627 3.674862 -4.217473
v 3.185598 3.898139 -3.464202
v 3.010894 2.585957 -3.821556
v 2.920323 2.393613 -4.184678
v 3.124620 3.375570 -1.259940
v 3.090189 3.253382 -4.055956
v 2.806016 1.155498 -3.263446
v 2.762911 1.329526 -3.765472
v 3.208307 3.944824 -3.085589
v 3.068048 3.446321 -4.715759
vt 0.595701 0.084117
vt 0.593766 0.141201
vt 0.459980 0.062572
vt 0.398540 0.533570
vt 0.522176 0.739855
vt 0.395285 0.675404
vt 0.586311 0.632526
vt 0.119331 0.713339
vt 0.251787 0.664637
vt 0.182954 0.822173
vt 0.020953 0.609523
vt 0.181958 0.592217
vt 0.621082 0.024137
vt 0.690087 0.067273
vt 0.747081 0.634530
vt 0.995586 0.641018
vt 0.869693 0.733319
vt 0.410693 0.861223
vt 0.423273 0.935568
vt 0.294156 0.886824
vt 0.183760 0.185556
vt 0.311494 0.118697
vt 0.298049 0.311535
vt 0.144468 0.457542
vt 0.000000 0.478195
vt 0.013250 0.392567
vt 0.088184 0.739722
vt 0.561039 0.899788
vt 0.997472 0.816883
vt 1.000000 0.907235
vt 0.885746 0.804270
vt 0.222287 0.534113
vt 0.662653 0.727832
vt 0.652477 0.530054
vt 0.580020 0.492784
vt 0.761705 0.978918
vt 0.660159 0.881690
vt 0.779639 0.890870
vt 0.753028 0.200092
vt 0.625278 0.217881
vt 0.659616 0.013963
vt 0.663490 0.363659
vt 0.738826 0.457756
vt 0.602935 0.411375
vt 0.870474 0.439976
vt 0.754713 0.348304
vt 0.827846 0.528419
vt 0.902697 0.570121
vt 0.938697 0.535846
vt 0.802652 0.174305
vt 0.848499 0.125612
vt 0.945964 0.174579
vt 0.889194 0.293419
vt 0.994426 0.337198
vt 0.900476 0.357828
vt 0.750190 0.791173
vt 0.997161 0.731054
vt 0.785623 0.101192
vt 0.796966 0.058898
vt 0.734040 0.031760
vt 0.770089 0.000000
vt 0.835422 0.941167
vt 0.854048 0.894411
vt 0.536847 0.435394
vt 0.372487 0.462335
vt 0.467653 0.356063
vt 0.853932 0.008564
vt 0.912735 0.066979
vt 0.389738 0.821226
vt 0.552093 0.846272
vt 0.717761 0.118573
vt 0.718799 0.814416
vt 0.895960 0.013412
vt 0.994302 1.000000
vt 0.906101 0.991640
vt 0.973607 0.248207
vt 1.000000 0.447559
vt 0.568339 0.291894
vt 0.523324 0.190916
vt 0.664955 0.970600
vt 0.816409 0.267229
vt 0.030947 0.358274
vt 0.123026 0.241247
vt 0.990714 0.544484
vt 0.927034 0.112031
vn 0.9611 -0.2517 -0.1138
vn 0.9836 -0.1771 0.0344
vn 0.9748 -0.2145 0.0610
vn 0.9889 -0.1136 0.0961
vn 0.9888 -0.1090 0.1018
vn 0.9947 -0.1002 0.0238
vn 0.9584 -0.2515 -0.1350
vn 0.9586 -0.2507 -0.1350
vn 0.9973 -0.0729 0.0066
vn 0.9518 -0.3018 0.0547
vn 0.9748 -0.1701 -0.1442
vn 0.9953 -0.0967 -0.0059
vn 0.9877 -0.1201 0.1006
vn 0.9761 -0.2159 0.0253
vn 0.9988 -0.0441 -0.0204
vn 0.9895 -0.0606 0.1313
vn 0.9881 -0.1121 0.1049
vn 0.9838 -0.1645 0.0718
vn 0.9941 -0.0999 0.0432
vn 0.9919 -0.1226 0.0342
vn 0.9915 -0.1297 -0.0045
vn 0.9876 -0.1566 -0.0111
vn 0.9926 -0.1205 0.0154
vn 0.9716 -0.1699 -0.1645
vn 0.9557 -0.2837 -0.0785
vn 0.9894 -0.1405 -0.0366
vn 0.9901 -0.1340 -0.0424
vn 0.9900 -0.1314 -0.0514
vn 0.9960 -0.0884 -0.0096
vn 0.9973 -0.0725 0.0086
vn 0.9951 -0.0979 0.0099
vn 0.9951 -0.0988 0.0022
vn 0.9841 -0.1490 -0.0970
vn 0.9921 -0.0906 -0.0865
vn 0.9931 -0.1157 0.0215
vn 0.9990 -0.0429 0.0079
vn 0.9985 -0.0556 -0.0014
vn 0.9985 -0.0504 0.0213
vn 0.9809 -0.1938 0.0170
vn 0.9942 -0.1011 0.0359
vn 0.9930 -0.1176 -0.0072
vn 0.9659 -0.2449 0.0839
vn 0.9778 -0.2075 -0.0273
vn 0.9518 -0.3023 0.0520
vn 0.9548 -0.2875 -0.0758
vn 0.9950 -0.0993 0.0143
vn 0.9966 -0.0824 -0.0060
vn 0.9971 -0.0754 -0.0054
vn 0.9967 -0.0796 0.0149
vn 0.9972 -0.0738 0.0152
vn 0.9858 -0.1655 -0.0267
vn 0.9680 -0.1541 0.1979
vn 0.9454 -0.3036 0.1184
vn 0.9782 -0.1940 0.0745
vn 0.9723 -0.2289 0.0467
vn 0.9839 -0.1719 0.0497
vn 0.9715 -0.2028 -0.1230
vn 0.9826 -0.1856 -0.0041
vn 0.9921 -0.1238 -0.0203
vn 0.9823 -0.1664 -0.0863
vn 0.9749 -0.2158 -0.0542
vn 0.9693 -0.1508 0.1944
vn 0.9979 -0.0626 -0.0141
vn 0.9935 -0.1055 -0.0427
vn 0.9866 -0.1449 -0.0750
vn 0.9975 -0.0506 -0.0485
vn 0.9947 -0.0791 -0.0650
vn 0.9796 -0.1733 0.1015
vn 0.9679 -0.2376 0.0820
vn 0.9683 -0.2145 -0.1279
vn 0.9743 -0.2049 -0.0937
vn 0.9646 -0.2326 0.1239
vn 0.9905 -0.1342 0.0311
vn 0.9822 -0.1829 0.0431
vn 0.9797 -0.2002 0.0067
vn 0.9791 -0.1941 0.0615
vn 0.9651 -0.2240 -0.1358
vn 0.9654 -0.2227 -0.1355
vn 0.9896 -0.1410 0.0285
vn 0.9857 -0.1640 0.0399
vn 0.9830 -0.1838 -0.0009
vn 0.9857 -0.1656 0.0322
vn 0.9874 -0.1418 -0.0696
vn 0.9752 -0.1694 -0.1425
vn 0.9942 -0.1075 0.0065
vn 0.9959 -0.0861 -0.0263
vn 0.9873 -0.1587 0.0106
vn 0.9755 -0.2089 -0.0691
vn 0.9841 -0.1750 0.0288
vn 0.9820 -0.1857 -0.0348
vn 0.9930 -0.1154 -0.0232
vn 0.9940 -0.0605 -0.0906
vn 0.9677 -0.2381 0.0825
vn 0.9545 -0.2862 0.0840
vn 0.9655 -0.2281 0.1257
vn 0.9962 -0.0783 0.0384
vn 0.9948 -0.0897 -0.0486
vn 0.9954 -0.0918 0.0267
vn 0.9981 -0.0493 -0.0374
vn 0.9966 -0.0796 0.0188
vn 0.9872 -0.1591 0.0110
vn 0.9932 -0.1070 0.0448
vn 0.9858 -0.1367 -0.0976
vn 0.9909 -0.1218 -0.0575
vn 0.9902 -0.1161 -0.0780
vn 0.9615 -0.2536 -0.1055
vn 0.9604 -0.2509 -0.1213
vn 0.9612 -0.2486 -0.1197
vn 0.9787 -0.1964 0.0602
vn 0.9768 -0.2140 0.0114
vn 0.9900 -0.1202 -0.0740
vn 0.9905 -0.1195 -0.0675
vn 0.9859 -0.1460 -0.0822
vn 0.9836 -0.1779 -0.0311
vn 0.9882 -0.1505 0.0287
vn 0.9842 -0.1763 0.0155
vn 0.9851 -0.1438 -0.0948
vn 0.9839 -0.1779 0.0169
vn 0.9850 -0.1619 -0.0605
vn 0.9858 -0.1457 -0.0836
vn 0.9863 -0.1637 -0.0180
vn 0.9859 -0.1603 -0.0487
vn 0.9854 -0.1684 -0.0240
vn 0.9884 -0.1497 -0.0266
vn 0.9893 -0.1451 -0.0180
vn 0.9942 -0.1063 -0.0153
vn 0.9924 -0.1229 -0.0113
vn 0.9931 -0.1172 -0.0004
vn 0.9888 -0.1344 0.0654
vn 0.9811 -0.1884 -0.0451
vn 0.9871 -0.1241 -0.1015
vn 0.9865 -0.1392 -0.0863
vn 0.9820 -0.1450 -0.1212
vn 0.9823 -0.1664 -0.0862
vn 0.9769 -0.1906 -0.0962
vn 0.9749 -0.1682 -0.1461
usemtl None
s off
f 1/1/1 2/2/1 3/3/1
f 4/4/2 5/5/2 6/6/2
f 4/4/3 7/7/3 5/5/3
f 8/8/4 9/9/4 10/10/4
f 9/9/5 8/8/5 11/11/5
f 9/9/6 11/11/6 12/12/6
f 1/1/7 14/13/7 13/14/7
f 1/1/8 3/3/8 14/13/8
f 15/15/9 17/16/9 16/17/9
f 18/18/10 19/19/10 20/20/10
f 21/21/11 22/22/11 23/23/11
f 24/24/12 26/25/12 25/26/12
f 8/8/13 10/10/13 27/27/13
f 28/28/14 19/19/14 18/18/14
f 29/29/15 30/30/15 31/31/15
f 32/32/16 12/12/16 11/11/16
f 27/27/17 11/11/17 8/8/17
f 5/5/18 7/7/18 33/33/18
f 15/15/19 16/17/19 33/33/19
f 15/15/20 33/33/20 7/7/20
f 34/34/21 15/15/21 7/7/21
f 35/35/22 34/34/22 7/7/22
f 36/36/23 38/37/23 37/38/23
f 39/39/24 40/40/24 2/2/24
f 14/13/25 41/41/25 13/14/25
f 42/42/26 43/43/26 44/44/26
f 43/43/27 42/42/27 45/45/27
f 46/46/28 45/45/28 42/42/28
f 47/47/29 48/48/29 15/15/29
f 48/48/30 17/16/30 15/15/30
f 49/49/31 48/48/31 47/47/31
f 49/49/32 47/47/32 45/45/32
f 50/50/33 51/51/33 52/52/33
f 53/53/34 55/54/34 54/55/34
f 56/56/35 16/17/35 31/31/35
f 57/57/36 29/29/36 31/31/36
f 57/57/37 31/31/37 16/17/37
f 57/57/38 16/17/38 17/16/38
f 58/58/39 13/14/39 59/59/39
f 56/56/40 33/33/40 16/17/40
f 56/56/41 31/31/41 37/38/41
f 60/60/42 61/61/42 59/59/42
f 60/60/43 59/59/43 13/14/43
f 60/60/44 41/41/44 61/61/44
f 60/60/45 13/14/45 41/41/45
f 62/62/46 36/36/46 37/38/46
f 62/62/47 37/38/47 63/63/47
f 63/63/48 30/30/48 62/62/48
f 63/63/49 37/38/49 31/31/49
f 63/63/50 31/31/50 30/30/50
f 64/64/51 65/65/51 66/66/51
f 67/67/52 68/68/52 59/59/52
f 67/67/53 59/59/53 61/61/53
f 69/69/54 6/6/54 5/5/54
f 69/69/55 5/5/55 18/18/55
f 70/70/56 5/5/56 33/33/56
f 2/2/57 1/1/57 71/71/57
f 35/35/58 7/7/58 4/4/58
f 72/72/59 37/38/59 38/37/59
f 71/71/60 13/14/60 58/58/60
f 71/71/61 1/1/61 13/14/61
f 73/73/62 68/68/62 67/67/62
f 74/74/63 75/75/63 30/30/63
f 53/53/64 76/76/64 55/54/64
f 50/50/65 52/52/65 76/76/65
f 55/54/66 77/77/66 45/45/66
f 55/54/67 45/45/67 54/55/67
f 9/9/68 12/12/68 32/32/68
f 69/69/69 9/9/69 6/6/69
f 78/78/70 23/23/70 79/79/70
f 78/78/71 66/66/71 23/23/71
f 9/9/72 32/32/72 6/6/72
f 80/80/73 38/37/73 36/36/73
f 80/80/74 28/28/74 38/37/74
f 70/70/75 38/37/75 28/28/75
f 28/28/76 80/80/76 19/19/76
f 23/23/77 22/22/77 3/3/77
f 79/79/78 23/23/78 3/3/78
f 64/64/79 4/4/79 65/65/79
f 65/65/80 4/4/80 32/32/80
f 4/4/81 64/64/81 35/35/81
f 4/4/82 6/6/82 32/32/82
f 81/81/83 78/78/83 40/40/83
f 23/23/84 82/82/84 83/83/84
f 62/62/85 75/75/85 36/36/85
f 75/75/86 62/62/86 30/30/86
f 24/24/87 32/32/87 11/11/87
f 24/24/88 23/23/88 66/66/88
f 65/65/89 32/32/89 24/24/89
f 65/65/90 24/24/90 66/66/90
f 82/82/91 23/23/91 24/24/91
f 24/24/92 25/26/92 82/82/92
f 9/9/93 69/69/93 10/10/93
f 18/18/94 20/20/94 69/69/94
f 69/69/95 20/20/95 10/10/95
f 24/24/96 11/11/96 26/25/96
f 84/84/97 49/49/97 77/77/97
f 84/84/98 17/16/98 49/49/98
f 49/49/99 45/45/99 77/77/99
f 48/48/100 49/49/100 17/16/100
f 56/56/101 37/38/101 72/72/101
f 72/72/102 33/33/102 56/56/102
f 81/81/103 50/50/103 76/76/103
f 76/76/104 53/53/104 81/81/104
f 53/53/105 54/55/105 81/81/105
f 79/79/106 40/40/106 78/78/106
f 79/79/107 2/2/107 40/40/107
f 79/79/108 3/3/108 2/2/108
f 70/70/109 18/18/109 5/5/109
f 70/70/110 28/28/110 18/18/110
f 54/55/111 46/46/111 81/81/111
f 46/46/112 54/55/112 45/45/112
f 78/78/113 81/81/113 46/46/113
f 51/51/114 85/85/114 52/52/114
f 85/85/115 51/51/115 68/68/115
f 51/51/116 59/59/116 68/68/116
f 58/58/117 51/51/117 50/50/117
f 58/58/118 59/59/118 51/51/118
f 66/66/119 78/78/119 42/42/119
f 46/46/120 42/42/120 78/78/120
f 44/44/121 35/35/121 64/64/121
f 42/42/122 44/44/122 66/66/122
f 64/64/123 66/66/123 44/44/123
f 43/43/124 34/34/124 35/35/124
f 43/43/125 35/35/125 44/44/125
f 47/47/126 15/15/126 43/43/126
f 43/43/127 15/15/127 34/34/127
f 43/43/128 45/45/128 47/47/128
f 70/70/129 33/33/129 72/72/129
f 72/72/130 38/37/130 70/70/130
f 50/50/131 81/81/131 39/39/131
f 39/39/132 81/81/132 40/40/132
f 71/71/133 50/50/133 39/39/133
f 58/58/134 50/50/134 71/71/134
f 71/71/135 39/39/135 2/2/135
f 83/83/136 21/21/136 23/23/136
