# Blender v2.79 (sub 0) OBJ File: ''
# www.blender.org
mtllib crack_only_106.mtl
o crack_only_106
v 2.897218 2.517043 -4.636534
v 2.932282 2.551113 -4.415786
v 2.795995 2.133301 -4.642675
v 2.984521 2.301969 -2.794721
v 3.049362 2.802961 -2.069087
v 2.983851 2.404708 -2.246029
v 3.097080 2.891611 -2.518876
v 2.820100 1.682338 -1.943870
v 2.882968 2.007488 -2.206284
v 2.813336 1.948527 -1.559629
v 2.816110 1.323814 -2.289253
v 2.863458 1.756615 -2.446340
v 2.945043 2.762750 -4.754850
v 2.870161 2.545527 -4.881615
v 3.156188 3.348010 -2.606324
v 3.185069 3.766363 -2.291244
v 3.206700 4.057160 -2.717909
v 2.975146 2.595984 -1.538048
v 2.988253 2.688004 -1.258573
v 2.872968 2.303631 -1.373097
v 2.748047 1.459138 -4.013881
v 2.752846 1.765735 -4.342947
v 2.880183 1.859968 -3.593502
v 2.858798 1.545498 -2.944646
v 2.817456 1.130860 -3.121495
v 2.822320 1.160255 -2.784008
v 2.800178 1.618448 -1.824534
v 3.070639 3.035263 -1.474364
v 3.201717 4.208475 -2.048687
v 3.216863 4.285939 -1.696127
v 3.191664 3.877363 -2.028227
v 2.900038 1.818774 -2.693308
v 3.121559 3.180988 -2.194013
v 3.108795 2.996228 -2.952051
v 3.071412 2.767798 -3.054246
v 3.163232 3.655653 -1.282999
v 3.166280 3.636401 -1.635310
v 3.123978 3.292062 -1.600070
v 3.039879 3.036764 -4.281643
v 3.003851 2.692098 -4.139040
v 2.893916 2.642417 -4.942623
v 3.076629 2.902801 -3.597930
v 3.127752 3.179984 -3.282092
v 3.065674 2.769109 -3.380840
v 3.169600 3.536904 -3.428222
v 3.103361 3.147583 -3.709094
v 3.163980 3.487946 -3.058501
v 3.186758 3.729065 -2.941452
v 3.196210 3.806232 -3.094546
v 3.042293 3.157946 -4.409079
v 3.035419 3.251468 -4.623691
v 3.095598 3.569976 -4.494052
v 3.122812 3.489305 -3.992536
v 3.149637 3.561435 -3.756451
v 3.162094 3.825673 -3.896311
v 3.143995 3.471488 -1.997566
v 3.199871 4.143083 -2.377137
v 3.001106 3.054955 -4.680505
v 3.004368 3.054168 -4.847788
v 2.961274 2.859893 -4.917134
v 2.992659 2.931716 -5.060713
v 3.183215 3.834708 -1.472762
v 3.183078 3.849427 -1.667208
v 3.040902 2.605626 -3.251072
v 2.973780 2.174052 -3.054724
v 2.991714 2.355726 -3.517763
v 3.068570 3.166255 -5.074193
v 3.064670 3.389280 -4.882398
v 2.961164 2.507571 -1.680407
v 3.058623 2.969735 -1.675568
v 2.979885 2.874953 -4.574268
v 3.131854 3.403091 -1.892254
v 3.087256 3.290213 -5.079305
v 3.216041 4.335949 -1.334768
v 3.209116 4.078238 -1.315136
v 3.134390 3.699435 -4.226585
v 3.183506 3.925822 -3.472968
v 3.011429 2.588819 -3.821792
v 2.920323 2.393613 -4.184678
v 3.124620 3.375570 -1.259940
v 3.091098 3.261661 -4.058973
v 2.806016 1.155498 -3.263446
v 2.762911 1.329526 -3.765472
v 3.209319 3.961747 -3.092439
v 3.073999 3.468573 -4.719402
vt 0.590416 0.084076
vt 0.588407 0.141122
vt 0.456086 0.062443
vt 0.394514 0.533093
vt 0.516630 0.739348
vt 0.391092 0.674839
vt 0.580222 0.632225
vt 0.117837 0.712542
vt 0.249046 0.663971
vt 0.180688 0.821363
vt 0.020566 0.608709
vt 0.180008 0.591539
vt 0.615643 0.024155
vt 0.684034 0.067296
vt 0.743404 0.633696
vt 0.993142 0.641588
vt 0.864257 0.733214
vt 0.406091 0.860560
vt 0.418439 0.934869
vt 0.290692 0.886059
vt 0.182405 0.185133
vt 0.308986 0.118418
vt 0.295354 0.311118
vt 0.143074 0.456915
vt 0.000000 0.477443
vt 0.013243 0.391876
vt 0.086963 0.738885
vt 0.554882 0.899215
vt 0.997532 0.815714
vt 1.000000 0.907527
vt 0.883818 0.804295
vt 0.220011 0.533500
vt 0.656630 0.727741
vt 0.646197 0.529645
vt 0.574250 0.492471
vt 0.755803 0.978615
vt 0.653040 0.881204
vt 0.773905 0.889944
vt 0.748586 0.199754
vt 0.620484 0.217806
vt 0.653808 0.014016
vt 0.657816 0.363802
vt 0.732105 0.456752
vt 0.597058 0.411129
vt 0.864888 0.438492
vt 0.749539 0.348531
vt 0.822419 0.528091
vt 0.896867 0.569438
vt 0.934026 0.535232
vt 0.798460 0.174045
vt 0.844568 0.125153
vt 0.946194 0.173871
vt 0.885565 0.295078
vt 0.994462 0.336135
vt 0.894916 0.357741
vt 0.742222 0.791306
vt 0.998151 0.730648
vt 0.780405 0.100895
vt 0.791914 0.059227
vt 0.728923 0.031865
vt 0.764748 0.000000
vt 0.830443 0.940439
vt 0.848897 0.892736
vt 0.531590 0.435083
vt 0.368820 0.461880
vt 0.463200 0.355747
vt 0.848767 0.009080
vt 0.910547 0.067860
vt 0.385402 0.820571
vt 0.546102 0.845725
vt 0.711176 0.118208
vt 0.711200 0.814017
vt 0.891930 0.014150
vt 0.991768 1.000000
vt 0.903051 0.992045
vt 0.973336 0.247321
vt 1.000000 0.446769
vt 0.563997 0.291786
vt 0.518587 0.190750
vt 0.657664 0.970065
vt 0.811694 0.266909
vt 0.030820 0.357619
vt 0.122181 0.240741
vt 0.987054 0.543604
vt 0.926486 0.112487
vn 0.9611 -0.2517 -0.1138
vn 0.9836 -0.1771 0.0344
vn 0.9748 -0.2147 0.0611
vn 0.9889 -0.1136 0.0961
vn 0.9888 -0.1090 0.1018
vn 0.9947 -0.1002 0.0238
vn 0.9584 -0.2516 -0.1350
vn 0.9586 -0.2507 -0.1350
vn 0.9975 -0.0707 0.0024
vn 0.9518 -0.3018 0.0547
vn 0.9748 -0.1701 -0.1442
vn 0.9953 -0.0967 -0.0059
vn 0.9877 -0.1201 0.1006
vn 0.9761 -0.2159 0.0253
vn 0.9988 -0.0325 -0.0358
vn 0.9895 -0.0606 0.1313
vn 0.9881 -0.1121 0.1049
vn 0.9838 -0.1641 0.0720
vn 0.9940 -0.1008 0.0427
vn 0.9920 -0.1220 0.0339
vn 0.9916 -0.1293 -0.0044
vn 0.9876 -0.1566 -0.0111
vn 0.9926 -0.1204 0.0152
vn 0.9716 -0.1697 -0.1648
vn 0.9557 -0.2837 -0.0784
vn 0.9894 -0.1407 -0.0367
vn 0.9901 -0.1337 -0.0430
vn 0.9900 -0.1314 -0.0513
vn 0.9960 -0.0890 -0.0104
vn 0.9975 -0.0691 0.0124
vn 0.9950 -0.0995 0.0113
vn 0.9949 -0.1005 0.0018
vn 0.9845 -0.1471 -0.0956
vn 0.9922 -0.0916 -0.0847
vn 0.9931 -0.1149 0.0236
vn 0.9995 -0.0303 0.0004
vn 0.9991 -0.0410 -0.0077
vn 0.9991 -0.0328 0.0283
vn 0.9809 -0.1933 0.0200
vn 0.9941 -0.1017 0.0369
vn 0.9931 -0.1172 -0.0077
vn 0.9654 -0.2456 0.0882
vn 0.9779 -0.2075 -0.0264
vn 0.9518 -0.3015 0.0572
vn 0.9549 -0.2868 -0.0762
vn 0.9952 -0.0964 0.0139
vn 0.9968 -0.0796 -0.0067
vn 0.9970 -0.0776 -0.0066
vn 0.9970 -0.0759 0.0178
vn 0.9969 -0.0760 0.0178
vn 0.9858 -0.1655 -0.0267
vn 0.9680 -0.1537 0.1984
vn 0.9465 -0.2994 0.1202
vn 0.9782 -0.1940 0.0745
vn 0.9723 -0.2289 0.0467
vn 0.9839 -0.1715 0.0495
vn 0.9714 -0.2030 -0.1230
vn 0.9826 -0.1856 -0.0042
vn 0.9921 -0.1240 -0.0204
vn 0.9823 -0.1666 -0.0860
vn 0.9749 -0.2158 -0.0540
vn 0.9734 -0.1392 0.1817
vn 0.9996 -0.0264 0.0059
vn 0.9937 -0.1035 -0.0438
vn 0.9870 -0.1429 -0.0740
vn 0.9983 -0.0404 -0.0409
vn 0.9944 -0.0821 -0.0666
vn 0.9796 -0.1733 0.1015
vn 0.9679 -0.2376 0.0820
vn 0.9684 -0.2144 -0.1278
vn 0.9743 -0.2048 -0.0939
vn 0.9646 -0.2326 0.1239
vn 0.9905 -0.1340 0.0310
vn 0.9822 -0.1829 0.0431
vn 0.9797 -0.2002 0.0067
vn 0.9791 -0.1941 0.0615
vn 0.9651 -0.2240 -0.1358
vn 0.9654 -0.2227 -0.1355
vn 0.9896 -0.1410 0.0285
vn 0.9857 -0.1640 0.0399
vn 0.9830 -0.1838 -0.0009
vn 0.9857 -0.1656 0.0322
vn 0.9875 -0.1415 -0.0696
vn 0.9752 -0.1694 -0.1425
vn 0.9942 -0.1077 0.0031
vn 0.9957 -0.0880 -0.0277
vn 0.9873 -0.1587 0.0106
vn 0.9755 -0.2089 -0.0691
vn 0.9841 -0.1750 0.0288
vn 0.9820 -0.1857 -0.0348
vn 0.9930 -0.1154 -0.0232
vn 0.9940 -0.0605 -0.0906
vn 0.9677 -0.2381 0.0825
vn 0.9545 -0.2862 0.0840
vn 0.9655 -0.2281 0.1257
vn 0.9962 -0.0783 0.0384
vn 0.9948 -0.0831 -0.0596
vn 0.9960 -0.0843 0.0285
vn 0.9981 -0.0410 -0.0465
vn 0.9968 -0.0763 0.0231
vn 0.9874 -0.1580 0.0112
vn 0.9932 -0.1071 0.0449
vn 0.9861 -0.1348 -0.0975
vn 0.9909 -0.1207 -0.0594
vn 0.9903 -0.1154 -0.0773
vn 0.9617 -0.2530 -0.1053
vn 0.9606 -0.2503 -0.1209
vn 0.9612 -0.2486 -0.1197
vn 0.9787 -0.1964 0.0602
vn 0.9768 -0.2140 0.0114
vn 0.9902 -0.1191 -0.0735
vn 0.9905 -0.1187 -0.0691
vn 0.9859 -0.1457 -0.0820
vn 0.9835 -0.1805 -0.0130
vn 0.9860 -0.1648 0.0237
vn 0.9844 -0.1753 0.0179
vn 0.9850 -0.1446 -0.0946
vn 0.9839 -0.1776 0.0200
vn 0.9850 -0.1617 -0.0601
vn 0.9859 -0.1454 -0.0832
vn 0.9863 -0.1637 -0.0180
vn 0.9859 -0.1602 -0.0489
vn 0.9854 -0.1684 -0.0240
vn 0.9884 -0.1498 -0.0266
vn 0.9892 -0.1451 -0.0180
vn 0.9943 -0.1057 -0.0156
vn 0.9924 -0.1226 -0.0113
vn 0.9932 -0.1166 -0.0003
vn 0.9888 -0.1345 0.0652
vn 0.9811 -0.1884 -0.0451
vn 0.9870 -0.1253 -0.1005
vn 0.9865 -0.1389 -0.0866
vn 0.9819 -0.1462 -0.1204
vn 0.9823 -0.1665 -0.0859
vn 0.9771 -0.1902 -0.0952
vn 0.9749 -0.1682 -0.1461
usemtl None
s off
f 1/1/1 2/2/1 3/3/1
f 4/4/2 5/5/2 6/6/2
f 4/4/3 7/7/3 5/5/3
f 8/8/4 9/9/4 10/10/4
f 9/9/5 8/8/5 11/11/5
f 9/9/6 11/11/6 12/12/6
f 1/1/7 14/13/7 13/14/7
f 1/1/8 3/3/8 14/13/8
f 15/15/9 17/16/9 16/17/9
f 18/18/10 19/19/10 20/20/10
f 21/21/11 22/22/11 23/23/11
f 24/24/12 26/25/12 25/26/12
f 8/8/13 10/10/13 27/27/13
f 28/28/14 19/19/14 18/18/14
f 29/29/15 30/30/15 31/31/15
f 32/32/16 12/12/16 11/11/16
f 27/27/17 11/11/17 8/8/17
f 5/5/18 7/7/18 33/33/18
f 15/15/19 16/17/19 33/33/19
f 15/15/20 33/33/20 7/7/20
f 34/34/21 15/15/21 7/7/21
f 35/35/22 34/34/22 7/7/22
f 36/36/23 38/37/23 37/38/23
f 39/39/24 40/40/24 2/2/24
f 14/13/25 41/41/25 13/14/25
f 42/42/26 43/43/26 44/44/26
f 43/43/27 42/42/27 45/45/27
f 46/46/28 45/45/28 42/42/28
f 47/47/29 48/48/29 15/15/29
f 48/48/30 17/16/30 15/15/30
f 49/49/31 48/48/31 47/47/31
f 49/49/32 47/47/32 45/45/32
f 50/50/33 51/51/33 52/52/33
f 53/53/34 55/54/34 54/55/34
f 56/56/35 16/17/35 31/31/35
f 57/57/36 29/29/36 31/31/36
f 57/57/37 31/31/37 16/17/37
f 57/57/38 16/17/38 17/16/38
f 58/58/39 13/14/39 59/59/39
f 56/56/40 33/33/40 16/17/40
f 56/56/41 31/31/41 37/38/41
f 60/60/42 61/61/42 59/59/42
f 60/60/43 59/59/43 13/14/43
f 60/60/44 41/41/44 61/61/44
f 60/60/45 13/14/45 41/41/45
f 62/62/46 36/36/46 37/38/46
f 62/62/47 37/38/47 63/63/47
f 63/63/48 30/30/48 62/62/48
f 63/63/49 37/38/49 31/31/49
f 63/63/50 31/31/50 30/30/50
f 64/64/51 65/65/51 66/66/51
f 67/67/52 68/68/52 59/59/52
f 67/67/53 59/59/53 61/61/53
f 69/69/54 6/6/54 5/5/54
f 69/69/55 5/5/55 18/18/55
f 70/70/56 5/5/56 33/33/56
f 2/2/57 1/1/57 71/71/57
f 35/35/58 7/7/58 4/4/58
f 72/72/59 37/38/59 38/37/59
f 71/71/60 13/14/60 58/58/60
f 71/71/61 1/1/61 13/14/61
f 73/73/62 68/68/62 67/67/62
f 74/74/63 75/75/63 30/30/63
f 53/53/64 76/76/64 55/54/64
f 50/50/65 52/52/65 76/76/65
f 55/54/66 77/77/66 45/45/66
f 55/54/67 45/45/67 54/55/67
f 9/9/68 12/12/68 32/32/68
f 69/69/69 9/9/69 6/6/69
f 78/78/70 23/23/70 79/79/70
f 78/78/71 66/66/71 23/23/71
f 9/9/72 32/32/72 6/6/72
f 80/80/73 38/37/73 36/36/73
f 80/80/74 28/28/74 38/37/74
f 70/70/75 38/37/75 28/28/75
f 28/28/76 80/80/76 19/19/76
f 23/23/77 22/22/77 3/3/77
f 79/79/78 23/23/78 3/3/78
f 64/64/79 4/4/79 65/65/79
f 65/65/80 4/4/80 32/32/80
f 4/4/81 64/64/81 35/35/81
f 4/4/82 6/6/82 32/32/82
f 81/81/83 78/78/83 40/40/83
f 23/23/84 82/82/84 83/83/84
f 62/62/85 75/75/85 36/36/85
f 75/75/86 62/62/86 30/30/86
f 24/24/87 32/32/87 11/11/87
f 24/24/88 23/23/88 66/66/88
f 65/65/89 32/32/89 24/24/89
f 65/65/90 24/24/90 66/66/90
f 82/82/91 23/23/91 24/24/91
f 24/24/92 25/26/92 82/82/92
f 9/9/93 69/69/93 10/10/93
f 18/18/94 20/20/94 69/69/94
f 69/69/95 20/20/95 10/10/95
f 24/24/96 11/11/96 26/25/96
f 84/84/97 49/49/97 77/77/97
f 84/84/98 17/16/98 49/49/98
f 49/49/99 45/45/99 77/77/99
f 48/48/100 49/49/100 17/16/100
f 56/56/101 37/38/101 72/72/101
f 72/72/102 33/33/102 56/56/102
f 81/81/103 50/50/103 76/76/103
f 76/76/104 53/53/104 81/81/104
f 53/53/105 54/55/105 81/81/105
f 79/79/106 40/40/106 78/78/106
f 79/79/107 2/2/107 40/40/107
f 79/79/108 3/3/108 2/2/108
f 70/70/109 18/18/109 5/5/109
f 70/70/110 28/28/110 18/18/110
f 54/55/111 46/46/111 81/81/111
f 46/46/112 54/55/112 45/45/112
f 78/78/113 81/81/113 46/46/113
f 51/51/114 85/85/114 52/52/114
f 85/85/115 51/51/115 68/68/115
f 51/51/116 59/59/116 68/68/116
f 58/58/117 51/51/117 50/50/117
f 58/58/118 59/59/118 51/51/118
f 66/66/119 78/78/119 42/42/119
f 46/46/120 42/42/120 78/78/120
f 44/44/121 35/35/121 64/64/121
f 42/42/122 44/44/122 66/66/122
f 64/64/123 66/66/123 44/44/123
f 43/43/124 34/34/124 35/35/124
f 43/43/125 35/35/125 44/44/125
f 47/47/126 15/15/126 43/43/126
f 43/43/127 15/15/127 34/34/127
f 43/43/128 45/45/128 47/47/128
f 70/70/129 33/33/129 72/72/129
f 72/72/130 38/37/130 70/70/130
f 50/50/131 81/81/131 39/39/131
f 39/39/132 81/81/132 40/40/132
f 71/71/133 50/50/133 39/39/133
f 58/58/134 50/50/134 71/71/134
f 71/71/135 39/39/135 2/2/135
f 83/83/136 21/21/136 23/23/136
