# Blender v2.79 (sub 0) OBJ File: ''
# www.blender.org
mtllib crack_only_3.mtl
o crack_only_3
v 2.844594 1.231420 -3.257231
v 2.850049 1.345050 -2.993920
v 2.812135 1.394185 -3.314286
v 2.845776 1.168409 -3.372999
v 2.829829 1.199999 -3.500541
v 2.874416 1.117703 -3.148346
v 2.894908 1.134940 -2.886874
vt 0.386750 0.380523
vt 1.000000 0.244526
vt 1.000000 0.770994
vt 0.064306 0.212682
vt 0.111506 0.000000
vt 0.000000 0.586200
vt 0.228845 1.000000
vn 0.9823 0.1639 -0.0911
vn 0.9825 0.1675 -0.0811
vn 0.9825 0.1675 -0.0814
vn 0.9813 0.1683 -0.0930
vn 0.9808 0.1754 -0.0854
vn 0.9824 0.1650 -0.0879
usemtl None
s off
f 1/1/1 3/2/1 2/3/1
f 1/1/2 4/4/2 3/2/2
f 5/5/3 3/2/3 4/4/3
f 6/6/4 1/1/4 2/3/4
f 1/1/5 6/6/5 4/4/5
f 6/6/6 2/3/6 7/7/6
