# Blender v2.79 (sub 0) OBJ File: ''
# www.blender.org
mtllib crack_only_78.mtl
o crack_only_78
v 2.924627 2.615565 -4.673886
v 2.838031 2.127882 -4.424140
v 2.797472 2.145317 -4.651394
v 2.875057 1.529859 -2.948349
v 2.840610 1.166176 -2.661450
v 2.827766 1.357585 -2.204929
v 2.841578 1.157006 -2.772227
v 2.833473 1.126775 -3.126993
v 3.028091 2.497997 -2.487303
v 3.044352 2.759918 -2.058406
v 2.987388 2.437277 -2.179965
v 2.839648 1.414479 -3.299324
v 2.821400 1.149385 -3.254019
v 2.780565 1.235583 -3.604625
v 2.845613 1.977991 -1.875191
v 2.911438 2.018237 -2.337688
v 2.953518 2.052524 -2.645466
v 2.907566 2.348459 -1.651454
v 2.928665 2.385571 -1.750813
v 2.955170 2.513765 -1.674873
v 3.133430 3.177539 -2.197167
v 3.093450 3.123919 -1.701540
v 3.050728 2.652241 -3.858603
v 3.000674 2.391412 -3.796437
v 2.963696 2.340757 -4.051136
v 3.098180 2.951066 -3.837282
v 3.086621 2.803745 -3.729049
v 3.105431 2.897588 -3.625994
v 3.086909 2.710338 -3.341313
v 3.137069 3.032371 -3.491982
v 2.976047 2.634214 -1.459008
v 2.922530 2.518055 -1.315479
v 2.920174 2.429214 -1.527745
v 2.772251 1.944582 -4.487688
v 2.842695 2.420414 -4.804718
v 2.813349 1.985578 -4.301412
v 2.748787 1.766118 -4.340386
v 2.868788 1.795623 -2.237647
v 2.870522 2.304674 -1.373617
v 2.880806 2.549974 -4.789874
v 2.856980 2.513109 -4.859208
v 3.068088 3.066487 -1.503938
v 3.018240 2.834471 -1.505356
v 3.026881 2.831305 -4.248541
v 3.019489 2.701725 -4.156017
v 2.978147 2.757463 -4.405433
v 2.898651 1.712577 -2.706202
v 2.982089 2.128692 -3.016154
v 2.821450 1.681593 -1.942856
v 2.797176 1.618949 -1.824718
v 2.805095 1.952107 -1.558408
v 3.071452 2.976654 -1.249653
v 3.149910 3.061811 -3.080862
v 3.162555 3.145286 -2.603303
v 3.086044 2.697566 -2.898361
v 2.901820 2.014807 -3.801901
v 2.994012 2.309554 -3.639308
v 2.748985 1.459287 -4.014950
v 2.997791 2.697093 -1.256074
v 2.871207 2.221127 -1.627320
vt 0.851435 0.054615
vt 0.587077 0.105056
vt 0.606466 0.043397
vt 0.200736 0.486591
vt 0.062964 0.682478
vt 0.000000 0.551908
vt 0.002818 0.521469
vt 0.010314 0.423842
vt 0.661255 0.646562
vt 0.763524 0.772323
vt 0.607370 0.727678
vt 0.163471 0.386811
vt 0.028514 0.389927
vt 0.089695 0.297046
vt 0.347928 0.793473
vt 0.404357 0.669715
vt 0.445424 0.587595
vt 0.521399 0.867594
vt 0.548188 0.842049
vt 0.608811 0.867348
vt 0.986475 0.749718
vt 0.923866 0.882307
vt 0.828700 0.278989
vt 0.691602 0.286501
vt 0.679691 0.215098
vt 0.978757 0.295454
vt 0.939423 0.351192
vt 0.898200 0.319766
vt 1.000000 0.392568
vt 0.827058 0.422074
vt 0.655947 0.930391
vt 0.584255 0.964922
vt 0.554235 0.904129
vt 0.494708 0.080839
vt 0.756041 0.011520
vt 0.506744 0.133343
vt 0.395132 0.114594
vt 0.284287 0.688909
vt 0.478116 0.941299
vt 0.806532 0.000000
vt 0.822465 0.020367
vt 0.880267 0.933843
vt 0.761488 0.925039
vt 0.939733 0.178746
vt 0.869325 0.199432
vt 0.908894 0.133038
vt 0.277009 0.558930
vt 0.509833 0.489643
vt 0.204383 0.764728
vt 0.310555 0.878345
vt 0.163515 0.794480
vt 0.819889 1.000000
vt 0.988907 0.505549
vt 1.000000 0.638440
vt 0.791804 0.542135
vt 0.497239 0.271162
vt 0.640490 0.326393
vt 0.223221 0.192694
vt 0.675737 0.987967
vt 0.453699 0.869445
vn 0.9456 -0.2647 -0.1891
vn 0.9972 -0.0543 0.0508
vn 0.9965 -0.0821 0.0155
vn 0.9953 -0.0962 -0.0145
vn 0.9747 -0.2054 0.0885
vn 0.9863 -0.0914 -0.1373
vn 0.9682 -0.2201 0.1186
vn 0.9731 -0.2021 0.1105
vn 0.9739 -0.2095 0.0876
vn 0.9594 -0.2612 0.1062
vn 0.9679 -0.2416 0.0700
vn 0.9714 -0.2120 0.1074
vn 0.9801 -0.1896 0.0586
vn 0.9726 -0.2103 -0.0994
vn 0.9898 -0.1261 -0.0659
vn 0.9826 -0.1779 -0.0531
vn 0.9847 -0.1578 -0.0737
vn 0.9482 -0.2965 0.1136
vn 0.9432 -0.2729 -0.1893
vn 0.9441 -0.2647 -0.1964
vn 0.9462 -0.2893 -0.1451
vn 0.9549 -0.2534 -0.1549
vn 0.9831 -0.1306 0.1286
vn 0.9836 -0.1348 0.1195
vn 0.9610 -0.2660 0.0757
vn 0.9603 -0.2609 0.0985
vn 0.9477 -0.2571 -0.1890
vn 0.9436 -0.2531 -0.2134
vn 0.9756 -0.2100 0.0642
vn 0.9584 -0.2000 -0.2036
vn 0.9568 -0.2069 -0.2043
vn 0.9734 -0.2142 -0.0808
vn 0.9566 -0.2074 -0.2049
vn 0.9931 -0.0871 0.0787
vn 0.9852 -0.1665 0.0417
vn 0.9801 -0.1749 0.0935
vn 0.9826 -0.1297 0.1331
vn 0.9837 -0.1010 0.1486
vn 0.9741 -0.2088 -0.0866
vn 0.9865 -0.1626 -0.0192
vn 0.9788 -0.1893 0.0785
vn 0.9799 -0.1809 0.0846
vn 0.9853 -0.1709 0.0038
vn 0.9797 -0.1958 0.0431
vn 0.9762 -0.2038 0.0736
vn 0.9792 -0.1897 0.0718
vn 0.9629 -0.2642 0.0543
vn 0.9570 -0.2827 0.0652
vn 0.9549 -0.2535 -0.1543
vn 0.9832 -0.1785 0.0391
vn 0.9809 -0.1889 0.0466
vn 0.9771 -0.2028 -0.0642
vn 0.9866 -0.1611 0.0254
vn 0.9940 -0.0810 -0.0737
vn 0.9930 -0.0562 -0.1044
vn 0.9873 -0.1073 0.1175
vn 0.9794 -0.1982 -0.0388
vn 0.9838 -0.1791 -0.0032
vn 0.9885 -0.0831 0.1266
vn 0.9873 -0.1072 0.1171
vn 0.9811 -0.1846 -0.0576
vn 0.9825 -0.1859 -0.0100
vn 0.9442 -0.2932 -0.1501
vn 0.9439 -0.2940 -0.1502
vn 0.9832 -0.1795 -0.0333
vn 0.9845 -0.1721 0.0340
vn 0.9807 -0.1747 -0.0874
vn 0.9636 -0.2516 -0.0902
vn 0.9636 -0.2516 -0.0899
vn 0.9642 -0.2423 -0.1074
vn 0.9880 -0.1457 -0.0518
vn 0.9638 -0.1958 -0.1809
vn 0.9635 -0.1945 -0.1840
vn 0.9188 -0.3941 0.0237
vn 0.9668 -0.2542 -0.0248
vn 0.9717 -0.2228 -0.0783
vn 0.9809 -0.1469 -0.1273
vn 0.9847 -0.1742 -0.0031
vn 0.9727 -0.2198 0.0750
vn 0.9587 -0.2693 0.0913
vn 0.9626 -0.2611 0.0724
vn 0.9802 -0.1922 -0.0468
vn 0.9809 -0.1467 -0.1274
vn 0.9728 -0.1892 -0.1337
vn 0.9839 -0.1492 -0.0981
vn 0.9715 -0.2113 0.1070
vn 0.9653 -0.2327 0.1181
vn 0.9585 -0.2466 0.1429
vn 0.9677 -0.2292 0.1048
usemtl None
s off
f 1/1/1 2/2/1 3/3/1
f 4/4/2 6/5/2 5/6/2
f 4/4/3 5/6/3 7/7/3
f 4/4/4 7/7/4 8/8/4
f 9/9/5 10/10/5 11/11/5
f 12/12/6 13/13/6 14/14/6
f 15/15/7 16/16/7 11/11/7
f 16/16/8 17/17/8 9/9/8
f 16/16/9 9/9/9 11/11/9
f 18/18/10 19/19/10 20/20/10
f 20/20/11 19/19/11 10/10/11
f 19/19/12 11/11/12 10/10/12
f 21/21/13 22/22/13 10/10/13
f 23/23/14 24/24/14 25/25/14
f 26/26/15 28/27/15 27/28/15
f 28/27/16 30/29/16 29/30/16
f 26/26/17 30/29/17 28/27/17
f 31/31/18 32/32/18 33/33/18
f 3/3/19 2/2/19 34/34/19
f 1/1/20 3/3/20 35/35/20
f 36/36/21 34/34/21 2/2/21
f 36/36/22 37/37/22 34/34/22
f 16/16/23 15/15/23 38/38/23
f 16/16/24 38/38/24 17/17/24
f 18/18/25 20/20/25 33/33/25
f 39/39/26 33/33/26 32/32/26
f 35/35/27 41/40/27 40/41/27
f 35/35/28 40/41/28 1/1/28
f 42/42/29 43/43/29 22/22/29
f 44/44/30 45/45/30 46/46/30
f 46/46/31 25/25/31 2/2/31
f 46/46/32 2/2/32 1/1/32
f 45/45/33 25/25/33 46/46/33
f 47/47/34 38/38/34 6/5/34
f 47/47/35 48/48/35 17/17/35
f 47/47/36 17/17/36 38/38/36
f 49/49/37 51/50/37 50/51/37
f 50/51/38 6/5/38 49/49/38
f 42/42/39 52/52/39 43/43/39
f 29/30/40 30/29/40 53/53/40
f 9/9/41 54/54/41 10/10/41
f 21/21/42 10/10/42 54/54/42
f 55/55/43 53/53/43 54/54/43
f 55/55/44 54/54/44 9/9/44
f 22/22/45 43/43/45 10/10/45
f 43/43/46 31/31/46 10/10/46
f 20/20/47 10/10/47 31/31/47
f 31/31/48 33/33/48 20/20/48
f 56/56/49 37/37/49 36/36/49
f 48/48/50 9/9/50 17/17/50
f 55/55/51 9/9/51 48/48/51
f 57/57/52 24/24/52 23/23/52
f 4/4/53 47/47/53 6/5/53
f 13/13/54 12/12/54 4/4/54
f 4/4/55 8/8/55 13/13/55
f 49/49/56 15/15/56 51/50/56
f 29/30/57 48/48/57 57/57/57
f 55/55/58 48/48/58 29/30/58
f 38/38/59 49/49/59 6/5/59
f 38/38/60 15/15/60 49/49/60
f 28/27/61 29/30/61 57/57/61
f 57/57/62 27/28/62 28/27/62
f 36/36/63 2/2/63 56/56/63
f 56/56/64 2/2/64 25/25/64
f 48/48/65 4/4/65 57/57/65
f 47/47/66 4/4/66 48/48/66
f 12/12/67 14/14/67 56/56/67
f 24/24/68 57/57/68 56/56/68
f 56/56/69 25/25/69 24/24/69
f 4/4/70 56/56/70 57/57/70
f 12/12/71 56/56/71 4/4/71
f 14/14/72 58/58/72 56/56/72
f 58/58/73 37/37/73 56/56/73
f 31/31/74 59/59/74 32/32/74
f 31/31/75 52/52/75 59/59/75
f 31/31/76 43/43/76 52/52/76
f 45/45/77 44/44/77 26/26/77
f 53/53/78 55/55/78 29/30/78
f 39/39/79 51/50/79 60/60/79
f 60/60/80 33/33/80 39/39/80
f 18/18/81 33/33/81 60/60/81
f 23/23/82 27/28/82 57/57/82
f 23/23/83 45/45/83 26/26/83
f 23/23/84 25/25/84 45/45/84
f 27/28/85 23/23/85 26/26/85
f 15/15/86 60/60/86 51/50/86
f 15/15/87 19/19/87 18/18/87
f 60/60/88 15/15/88 18/18/88
f 15/15/89 11/11/89 19/19/89
