# Blender v2.79 (sub 0) OBJ File: ''
# www.blender.org
mtllib crack_only_4.mtl
o crack_only_4
v 2.844060 1.232114 -3.254813
v 2.850932 1.348096 -2.990412
v 2.813673 1.395218 -3.311719
v 2.845456 1.168287 -3.372148
v 2.830074 1.200069 -3.500935
v 2.874691 1.117479 -3.144191
v 2.895468 1.136496 -2.873243
vt 0.389665 0.377062
vt 1.000000 0.246195
vt 1.000000 0.762071
vt 0.068604 0.209799
vt 0.118566 0.000000
vt 0.000000 0.580255
vt 0.232647 1.000000
vn 0.9842 0.1513 -0.0919
vn 0.9847 0.1576 -0.0740
vn 0.9842 0.1587 -0.0784
vn 0.9810 0.1669 -0.0987
vn 0.9801 0.1791 -0.0858
vn 0.9835 0.1591 -0.0866
usemtl None
s off
f 1/1/1 3/2/1 2/3/1
f 1/1/2 4/4/2 3/2/2
f 5/5/3 3/2/3 4/4/3
f 6/6/4 1/1/4 2/3/4
f 1/1/5 6/6/5 4/4/5
f 6/6/6 2/3/6 7/7/6
