# Blender v2.79 (sub 0) OBJ File: ''
# www.blender.org
mtllib crack_only_88.mtl
o crack_only_88
v 2.915824 2.570585 -4.644563
v 2.833098 2.127196 -4.420869
v 2.795567 2.133644 -4.642627
v 2.935220 2.566941 -4.421497
v 3.024920 2.495622 -2.489025
v 3.042051 2.756783 -2.057576
v 2.985640 2.436594 -2.180818
v 3.108340 2.899388 -2.513666
v 2.819243 1.682811 -1.944514
v 2.887661 2.005776 -2.200772
v 2.808618 1.950576 -1.558930
v 2.825874 1.357784 -2.204891
v 2.870147 1.761776 -2.432086
v 2.868974 1.548033 -2.931759
v 2.833906 1.167733 -2.660291
v 2.834579 1.158187 -2.776509
v 2.827387 1.128327 -3.124904
v 2.798303 1.618761 -1.824649
v 2.832130 1.411084 -3.302607
v 2.815605 1.151688 -3.257571
v 2.776536 1.236107 -3.602081
v 2.890126 1.709142 -2.709583
v 3.138094 3.195194 -2.217356
v 3.151235 3.320472 -2.081624
v 3.122468 3.163574 -2.056040
v 3.084867 2.739056 -2.894755
v 3.175366 3.371375 -2.612747
v 3.013995 2.712666 -4.151972
v 2.956013 2.339676 -4.046581
v 2.771783 1.944170 -4.487043
v 2.839034 2.398650 -4.796620
v 3.020177 2.543890 -3.821657
v 2.992575 2.409307 -3.792286
v 3.039334 2.664073 -3.856018
v 3.078889 2.955909 -3.939617
v 3.103200 2.975946 -3.743551
v 3.073027 2.791786 -3.734868
v 3.097282 2.888463 -3.624480
v 3.082703 2.706662 -3.334379
v 3.122709 3.053450 -3.613124
v 3.125472 3.140313 -3.716214
v 2.970551 2.574286 -1.657927
v 2.923971 2.509599 -1.317163
v 2.923515 2.454795 -1.482128
v 3.131109 3.291749 -1.244856
v 3.038200 2.881676 -1.448993
v 3.116507 3.301103 -1.651002
v 2.954962 2.804588 -4.776983
v 3.054026 2.958977 -1.253341
v 3.161055 3.250434 -3.172572
v 3.097981 2.799499 -3.137740
v 2.813893 1.983138 -4.300053
v 2.750167 1.765988 -4.341258
v 2.871752 2.304150 -1.373356
v 2.931272 2.376733 -1.753614
v 2.911937 2.344517 -1.649896
v 2.989906 2.279346 -2.811697
v 2.942677 2.052708 -2.651067
v 3.151338 3.477851 -1.505909
v 3.149034 3.500587 -1.676178
v 3.161226 3.466274 -1.263073
v 3.183545 3.430110 -2.855592
v 3.191231 3.488688 -2.538840
v 3.190933 3.513786 -2.231760
v 2.975801 2.927236 -4.749138
v 3.019315 3.024679 -4.489479
v 3.049870 3.104308 -4.300591
v 3.171507 3.373459 -3.149230
v 2.959290 2.885592 -4.923236
v 2.878060 2.598568 -4.899203
v 2.924830 2.792682 -4.992128
v 3.134911 3.270993 -3.756002
v 3.095534 3.196841 -4.078953
v 2.975725 2.130978 -3.036261
v 3.155722 3.331862 -3.407106
v 2.894773 2.014463 -3.803605
v 2.954038 2.868860 -5.000332
v 3.002248 2.405763 -3.645797
v 2.748567 1.459063 -4.014246
v 2.991215 2.687613 -1.257936
vt 0.757224 0.079694
vt 0.545519 0.116086
vt 0.562951 0.058405
vt 0.739489 0.137576
vt 0.563040 0.636049
vt 0.640698 0.759995
vt 0.510636 0.712579
vt 0.742257 0.649397
vt 0.160167 0.736783
vt 0.322391 0.686229
vt 0.242133 0.848747
vt 0.043740 0.654560
vt 0.236110 0.614890
vt 0.185147 0.475685
vt 0.000000 0.528040
vt 0.005219 0.497517
vt 0.019637 0.405825
vt 0.121961 0.764580
vt 0.153753 0.372835
vt 0.039135 0.372367
vt 0.099177 0.286449
vt 0.237347 0.540913
vt 0.846249 0.740121
vt 0.889521 0.781203
vt 0.818891 0.780216
vt 0.702800 0.543019
vt 0.954993 0.646353
vt 0.785829 0.215206
vt 0.615184 0.224553
vt 0.468613 0.089662
vt 0.690635 0.031310
vt 0.688697 0.293099
vt 0.627300 0.294132
vt 0.743749 0.289990
vt 0.876912 0.282297
vt 0.871715 0.334344
vt 0.824802 0.361082
vt 0.790778 0.327710
vt 0.895674 0.371957
vt 0.723757 0.427660
vt 0.940817 0.349283
vt 0.526329 0.854073
vt 0.468392 0.938667
vt 0.458232 0.893430
vt 0.809526 0.996277
vt 0.645043 0.923258
vt 0.844551 0.891317
vt 0.869746 0.056701
vt 0.663466 0.977698
vt 0.947069 0.495631
vt 0.748636 0.483059
vt 0.473507 0.140488
vt 0.379997 0.118931
vt 0.381899 0.913933
vt 0.447297 0.819664
vt 0.423966 0.844762
vt 0.494395 0.542066
vt 0.382137 0.572582
vt 0.933460 0.894417
vt 0.910522 0.937502
vt 0.887137 1.000000
vt 0.999718 0.586279
vt 1.000000 0.671101
vt 0.986269 0.751767
vt 0.921041 0.069838
vt 0.945034 0.142183
vt 0.966104 0.195195
vt 0.998087 0.507467
vt 0.915948 0.022604
vt 0.786358 0.014481
vt 0.879451 0.000000
vt 1.000000 0.345107
vt 0.991196 0.257500
vt 0.448309 0.476906
vt 0.999708 0.438550
vt 0.453610 0.271670
vt 0.914574 0.001796
vt 0.614932 0.332045
vt 0.224061 0.189523
vt 0.544179 0.963149
vn 0.9502 -0.2623 -0.1684
vn 0.9703 -0.2255 -0.0881
vn 0.9751 -0.2046 0.0851
vn 0.9771 -0.1970 0.0804
vn 0.9864 -0.1208 0.1111
vn 0.9851 -0.0948 0.1435
vn 0.9952 -0.0950 0.0249
vn 0.9972 -0.0612 0.0431
vn 0.9965 -0.0829 0.0126
vn 0.9956 -0.0929 -0.0126
vn 0.9870 -0.1182 0.1093
vn 0.9874 -0.0860 -0.1330
vn 0.9946 -0.0621 0.0834
vn 0.9883 -0.0827 0.1284
vn 0.9835 -0.1702 0.0619
vn 0.9794 -0.1938 0.0569
vn 0.9793 -0.1836 0.0849
vn 0.9900 -0.1409 -0.0017
vn 0.9644 -0.1991 -0.1742
vn 0.9514 -0.2578 -0.1685
vn 0.9567 -0.2224 -0.1879
vn 0.9477 -0.2616 -0.1828
vn 0.9728 -0.2171 -0.0804
vn 0.9763 -0.1868 -0.1089
vn 0.9801 -0.1646 -0.1109
vn 0.9763 -0.1839 -0.1138
vn 0.9837 -0.1646 -0.0720
vn 0.9810 -0.1630 -0.1050
vn 0.9813 -0.1654 -0.0985
vn 0.9878 -0.1492 -0.0439
vn 0.9872 -0.1480 -0.0597
vn 0.9897 -0.1215 -0.0758
vn 0.9628 -0.2572 0.0828
vn 0.9786 -0.2019 -0.0398
vn 0.9732 -0.2126 -0.0881
vn 0.9741 -0.2259 0.0105
vn 0.9905 -0.1335 0.0339
vn 0.9904 -0.1370 0.0194
vn 0.9902 -0.1394 -0.0111
vn 0.9520 -0.2611 -0.1600
vn 0.9546 -0.2492 -0.1630
vn 0.9597 -0.2675 0.0862
vn 0.9674 -0.2285 0.1094
vn 0.9620 -0.2634 0.0722
vn 0.9842 -0.1703 0.0491
vn 0.9735 -0.2080 0.0948
vn 0.9856 -0.1652 -0.0354
vn 0.9840 -0.1739 -0.0394
vn 0.9867 -0.1554 -0.0476
vn 0.9909 -0.1345 0.0008
vn 0.9898 -0.1418 0.0125
vn 0.9836 -0.1418 -0.1116
vn 0.9789 -0.1907 -0.0731
vn 0.9895 -0.1442 0.0059
vn 0.9860 -0.1300 -0.1047
vn 0.9640 -0.2027 -0.1722
vn 0.9855 -0.1693 -0.0077
vn 0.9965 -0.0832 -0.0075
vn 0.9855 -0.1610 0.0532
vn 0.9865 -0.1627 0.0205
vn 0.9863 -0.1548 -0.0565
vn 0.9521 -0.2645 -0.1532
vn 0.9477 -0.2618 -0.1826
vn 0.9512 -0.2854 -0.1174
vn 0.9850 -0.1612 0.0621
vn 0.9806 -0.1674 0.1024
vn 0.9697 -0.2249 0.0950
vn 0.9674 -0.2332 0.0991
vn 0.9700 -0.2249 0.0919
vn 0.9873 -0.1071 -0.1175
vn 0.9882 -0.1218 -0.0925
vn 0.9871 -0.1154 -0.1106
vn 0.9854 -0.1641 0.0462
vn 0.9954 -0.0849 -0.0448
vn 0.9954 -0.0854 -0.0445
vn 0.9865 -0.1475 0.0709
vn 0.9858 -0.1516 0.0727
vn 0.9570 -0.2543 -0.1399
vn 0.9341 -0.3567 0.0138
vn 0.9565 -0.2664 -0.1192
vn 0.9831 -0.1686 0.0717
vn 0.9778 -0.1936 0.0801
vn 0.9767 -0.1970 0.0848
vn 0.9801 -0.1965 -0.0282
vn 0.9645 -0.2424 0.1045
vn 0.9714 -0.2271 0.0701
vn 0.9655 -0.2431 0.0931
vn 0.9741 -0.2150 -0.0695
vn 0.9858 -0.1656 -0.0296
vn 0.9786 -0.1948 -0.0668
vn 0.9878 -0.1546 0.0181
vn 0.9841 -0.1743 0.0327
vn 0.9814 -0.1872 -0.0417
vn 0.9946 -0.0757 -0.0709
vn 0.9938 -0.0535 -0.0977
vn 0.9794 -0.1436 -0.1419
vn 0.9804 -0.1450 -0.1335
vn 0.9804 -0.1909 -0.0482
vn 0.9799 -0.1977 0.0262
vn 0.9793 -0.2009 0.0242
vn 0.9590 -0.2459 -0.1407
vn 0.9462 -0.2881 -0.1472
vn 0.9688 -0.2380 -0.0697
vn 0.9685 -0.2378 -0.0741
vn 0.9819 -0.1705 -0.0826
vn 0.9691 -0.2284 -0.0935
vn 0.9889 -0.1410 -0.0462
vn 0.9671 -0.1906 -0.1687
vn 0.9667 -0.1890 -0.1727
vn 0.9611 -0.2564 0.1022
vn 0.9675 -0.2290 0.1072
vn 0.9605 -0.2663 0.0807
vn 0.9413 -0.3233 -0.0969
vn 0.9742 -0.2257 0.0104
vn 0.9960 -0.0754 -0.0488
vn 0.9932 -0.1162 -0.0021
vn 0.9902 -0.1232 -0.0653
vn 0.9861 -0.1606 0.0438
vn 0.9768 -0.2081 -0.0513
vn 0.9794 -0.1897 -0.0697
vn 0.9796 -0.2006 0.0100
vn 0.9837 -0.1797 0.0084
usemtl None
s off
f 1/1/1 2/2/1 3/3/1
f 1/1/2 4/4/2 2/2/2
f 5/5/3 6/6/3 7/7/3
f 5/5/4 8/8/4 6/6/4
f 9/9/5 10/10/5 11/11/5
f 10/10/6 9/9/6 12/12/6
f 10/10/7 12/12/7 13/13/7
f 14/14/8 12/12/8 15/15/8
f 14/14/9 15/15/9 16/16/9
f 14/14/10 16/16/10 17/17/10
f 9/9/11 11/11/11 18/18/11
f 19/19/12 20/20/12 21/21/12
f 22/22/13 13/13/13 12/12/13
f 18/18/14 12/12/14 9/9/14
f 23/23/15 24/24/15 25/25/15
f 23/23/16 25/25/16 6/6/16
f 23/23/17 6/6/17 8/8/17
f 26/26/18 27/27/18 8/8/18
f 4/4/19 28/28/19 29/29/19
f 3/3/20 2/2/20 30/30/20
f 2/2/21 4/4/21 29/29/21
f 1/1/22 3/3/22 31/31/22
f 32/32/23 33/33/23 29/29/23
f 34/34/24 32/32/24 29/29/24
f 34/34/25 28/28/25 35/35/25
f 34/34/26 29/29/26 28/28/26
f 36/36/27 38/37/27 37/38/27
f 34/34/28 35/35/28 36/36/28
f 37/38/29 34/34/29 36/36/29
f 38/37/30 40/39/30 39/40/30
f 36/36/31 40/39/31 38/37/31
f 41/41/32 40/39/32 36/36/32
f 42/42/33 43/43/33 44/44/33
f 45/45/34 46/46/34 47/47/34
f 48/48/35 4/4/35 1/1/35
f 45/45/36 49/49/36 46/46/36
f 23/23/37 8/8/37 27/27/37
f 50/50/38 26/26/38 51/51/38
f 50/50/39 51/51/39 39/40/39
f 52/52/40 30/30/40 2/2/40
f 52/52/41 53/53/41 30/30/41
f 54/54/42 44/44/42 43/43/42
f 55/55/43 56/56/43 11/11/43
f 57/57/44 5/5/44 7/7/44
f 57/57/45 7/7/45 58/58/45
f 55/55/46 7/7/46 6/6/46
f 47/47/47 60/59/47 59/60/47
f 61/61/48 45/45/48 47/47/48
f 61/61/49 47/47/49 59/60/49
f 27/27/50 62/62/50 63/63/50
f 63/63/51 64/64/51 27/27/51
f 65/65/52 66/66/52 48/48/52
f 66/66/53 4/4/53 48/48/53
f 27/27/54 26/26/54 50/50/54
f 67/67/55 28/28/55 66/66/55
f 66/66/56 28/28/56 4/4/56
f 68/68/57 62/62/57 27/27/57
f 68/68/58 27/27/58 50/50/58
f 64/64/59 24/24/59 23/23/59
f 64/64/60 23/23/60 27/27/60
f 48/48/61 69/69/61 65/65/61
f 70/70/62 48/48/62 31/31/62
f 1/1/63 31/31/63 48/48/63
f 71/71/64 48/48/64 70/70/64
f 57/57/65 58/58/65 22/22/65
f 10/10/66 13/13/66 22/22/66
f 10/10/66 22/22/66 58/58/66
f 10/10/67 58/58/67 7/7/67
f 10/10/68 55/55/68 11/11/68
f 55/55/69 10/10/69 7/7/69
f 72/72/70 41/41/70 35/35/70
f 72/72/71 35/35/71 73/73/71
f 41/41/72 36/36/72 35/35/72
f 74/74/73 57/57/73 22/22/73
f 75/75/74 40/39/74 41/41/74
f 41/41/75 72/72/75 75/75/75
f 60/59/76 24/24/76 64/64/76
f 47/47/77 24/24/77 60/59/77
f 76/76/78 53/53/78 52/52/78
f 71/71/79 77/77/79 69/69/79
f 69/69/80 48/48/80 71/71/80
f 47/47/81 25/25/81 24/24/81
f 47/47/82 6/6/82 25/25/82
f 42/42/83 6/6/83 47/47/83
f 47/47/84 46/46/84 42/42/84
f 56/56/85 55/55/85 42/42/85
f 42/42/86 55/55/86 6/6/86
f 56/56/87 42/42/87 44/44/87
f 78/78/88 33/33/88 32/32/88
f 34/34/89 78/78/89 32/32/89
f 34/34/90 37/38/90 78/78/90
f 14/14/91 22/22/91 12/12/91
f 74/74/92 22/22/92 14/14/92
f 74/74/93 14/14/93 78/78/93
f 20/20/94 19/19/94 14/14/94
f 14/14/95 17/17/95 20/20/95
f 67/67/96 73/73/96 28/28/96
f 35/35/97 28/28/97 73/73/97
f 78/78/98 37/38/98 38/37/98
f 26/26/99 5/5/99 57/57/99
f 26/26/100 8/8/100 5/5/100
f 52/52/101 2/2/101 76/76/101
f 76/76/102 2/2/102 29/29/102
f 33/33/103 78/78/103 76/76/103
f 76/76/104 29/29/104 33/33/104
f 19/19/105 21/21/105 76/76/105
f 14/14/106 76/76/106 78/78/106
f 19/19/107 76/76/107 14/14/107
f 21/21/108 79/79/108 76/76/108
f 79/79/109 53/53/109 76/76/109
f 56/56/110 44/44/110 54/54/110
f 54/54/111 11/11/111 56/56/111
f 46/46/112 43/43/112 42/42/112
f 46/46/113 80/80/113 43/43/113
f 46/46/114 49/49/114 80/80/114
f 68/68/115 50/50/115 75/75/115
f 40/39/116 75/75/116 39/40/116
f 50/50/117 39/40/117 75/75/117
f 39/40/118 57/57/118 74/74/118
f 39/40/119 74/74/119 78/78/119
f 38/37/120 39/40/120 78/78/120
f 57/57/121 39/40/121 26/26/121
f 39/40/122 51/51/122 26/26/122
