# Blender v2.79 (sub 0) OBJ File: ''
# www.blender.org
mtllib crack_only_107.mtl
o crack_only_107
v 2.897218 2.517043 -4.636534
v 2.932282 2.551113 -4.415786
v 2.795995 2.133301 -4.642675
v 2.984521 2.301969 -2.794721
v 3.049362 2.802961 -2.069087
v 2.983851 2.404708 -2.246029
v 3.097096 2.891512 -2.518559
v 2.820100 1.682338 -1.943870
v 2.882968 2.007488 -2.206284
v 2.813336 1.948527 -1.559629
v 2.816110 1.323814 -2.289253
v 2.863458 1.756615 -2.446340
v 2.945208 2.763340 -4.754856
v 2.870161 2.545527 -4.881615
v 3.157348 3.358905 -2.610970
v 3.186307 3.776503 -2.293427
v 3.207421 4.081102 -2.720965
v 2.975146 2.595984 -1.538048
v 2.988253 2.688004 -1.258573
v 2.872968 2.303631 -1.373097
v 2.748047 1.459138 -4.013881
v 2.752846 1.765735 -4.342947
v 2.880183 1.859968 -3.593502
v 2.858798 1.545498 -2.944646
v 2.817456 1.130860 -3.121495
v 2.822320 1.160255 -2.784008
v 2.800178 1.618448 -1.824534
v 3.070639 3.035263 -1.474364
v 3.199885 4.238015 -2.060126
v 3.219739 4.315021 -1.699104
v 3.193465 3.897577 -2.031778
v 2.900038 1.818774 -2.693308
v 3.121879 3.183706 -2.193272
v 3.108907 2.996786 -2.952853
v 3.071412 2.767798 -3.054246
v 3.164110 3.662212 -1.283684
v 3.167150 3.643645 -1.638769
v 3.123978 3.292062 -1.600070
v 3.040592 3.043424 -4.284065
v 3.004343 2.694897 -4.139319
v 2.893916 2.642417 -4.942623
v 3.077020 2.905071 -3.597070
v 3.127829 3.180737 -3.285152
v 3.065674 2.769109 -3.380840
v 3.170015 3.543847 -3.434136
v 3.104222 3.153685 -3.708883
v 3.164813 3.495955 -3.059807
v 3.187543 3.736780 -2.945747
v 3.197541 3.818958 -3.098908
v 3.043655 3.166637 -4.411891
v 3.037155 3.261144 -4.627874
v 3.097350 3.595101 -4.502173
v 3.124943 3.504198 -3.987596
v 3.150258 3.569583 -3.757851
v 3.163919 3.850539 -3.904838
v 3.144124 3.471900 -1.995402
v 3.197395 4.174296 -2.384946
v 3.001764 3.060308 -4.682803
v 3.005867 3.061115 -4.847962
v 2.962439 2.864617 -4.917913
v 2.994879 2.936844 -5.062516
v 3.184090 3.845835 -1.476183
v 3.183657 3.860003 -1.673472
v 3.040902 2.605626 -3.251072
v 2.973780 2.174052 -3.054724
v 2.991714 2.355726 -3.517763
v 3.070915 3.177501 -5.074476
v 3.067650 3.407334 -4.883527
v 2.961164 2.507571 -1.680407
v 3.058623 2.969735 -1.675568
v 2.979683 2.874456 -4.575513
v 3.131854 3.403091 -1.892254
v 3.089033 3.304572 -5.080019
v 3.210923 4.359817 -1.337535
v 3.210610 4.096443 -1.316141
v 3.136075 3.725324 -4.234614
v 3.182703 3.952366 -3.482047
v 3.011941 2.591602 -3.822043
v 2.920323 2.393613 -4.184678
v 3.124620 3.375570 -1.259940
v 3.092066 3.269920 -4.061265
v 2.806016 1.155498 -3.263446
v 2.762911 1.329526 -3.765472
v 3.210552 3.979229 -3.099270
v 3.078300 3.490171 -4.723420
vt 0.585365 0.084056
vt 0.583289 0.141053
vt 0.452357 0.062346
vt 0.390687 0.532568
vt 0.511366 0.738753
vt 0.387111 0.674203
vt 0.574432 0.631831
vt 0.116424 0.711682
vt 0.246445 0.663243
vt 0.178544 0.820468
vt 0.020203 0.607854
vt 0.178155 0.590816
vt 0.610443 0.024203
vt 0.678317 0.067387
vt 0.740138 0.632745
vt 0.991735 0.641859
vt 0.859298 0.732853
vt 0.401729 0.859793
vt 0.413859 0.934053
vt 0.287412 0.885194
vt 0.181099 0.184735
vt 0.306577 0.118168
vt 0.292781 0.310698
vt 0.141746 0.456267
vt 0.000000 0.476672
vt 0.013232 0.391182
vt 0.085811 0.737983
vt 0.549042 0.898524
vt 0.998179 0.814021
vt 1.000000 0.907897
vt 0.882072 0.804061
vt 0.217848 0.532849
vt 0.650918 0.727579
vt 0.640221 0.529135
vt 0.568761 0.492107
vt 0.750229 0.978175
vt 0.646286 0.880598
vt 0.768697 0.888930
vt 0.744284 0.199490
vt 0.615922 0.217771
vt 0.648254 0.014099
vt 0.652429 0.363933
vt 0.725631 0.455809
vt 0.591463 0.410847
vt 0.859462 0.437263
vt 0.744652 0.348776
vt 0.817335 0.527966
vt 0.891129 0.568577
vt 0.929688 0.534664
vt 0.794462 0.173850
vt 0.840646 0.124743
vt 0.946673 0.173286
vt 0.882143 0.297095
vt 0.994200 0.335343
vt 0.889421 0.357786
vt 0.734737 0.791396
vt 0.999181 0.730001
vt 0.775497 0.100701
vt 0.787381 0.059689
vt 0.724313 0.032039
vt 0.760092 0.000000
vt 0.825929 0.939630
vt 0.844268 0.891241
vt 0.526586 0.434734
vt 0.365330 0.461392
vt 0.458958 0.355411
vt 0.845234 0.009815
vt 0.908725 0.068733
vt 0.381291 0.819821
vt 0.540419 0.845070
vt 0.704830 0.117910
vt 0.703985 0.813506
vt 0.889020 0.014954
vt 0.989560 1.000000
vt 0.900010 0.992210
vt 0.973698 0.246756
vt 1.000000 0.445812
vt 0.559860 0.291656
vt 0.514063 0.190591
vt 0.650750 0.969394
vt 0.807234 0.266752
vt 0.030693 0.356966
vt 0.121363 0.240252
vt 0.983959 0.542690
vt 0.925904 0.112808
vn 0.9611 -0.2517 -0.1138
vn 0.9836 -0.1771 0.0344
vn 0.9747 -0.2148 0.0612
vn 0.9889 -0.1136 0.0961
vn 0.9888 -0.1090 0.1018
vn 0.9947 -0.1002 0.0238
vn 0.9584 -0.2516 -0.1350
vn 0.9586 -0.2507 -0.1350
vn 0.9976 -0.0692 -0.0000
vn 0.9518 -0.3018 0.0547
vn 0.9748 -0.1701 -0.1442
vn 0.9953 -0.0967 -0.0059
vn 0.9877 -0.1201 0.1006
vn 0.9761 -0.2159 0.0253
vn 0.9985 -0.0230 -0.0500
vn 0.9895 -0.0606 0.1313
vn 0.9881 -0.1121 0.1049
vn 0.9838 -0.1638 0.0722
vn 0.9940 -0.1009 0.0421
vn 0.9921 -0.1213 0.0334
vn 0.9917 -0.1287 -0.0042
vn 0.9876 -0.1568 -0.0111
vn 0.9926 -0.1203 0.0148
vn 0.9716 -0.1696 -0.1650
vn 0.9557 -0.2837 -0.0784
vn 0.9893 -0.1409 -0.0367
vn 0.9902 -0.1330 -0.0438
vn 0.9901 -0.1312 -0.0508
vn 0.9960 -0.0890 -0.0106
vn 0.9977 -0.0670 0.0144
vn 0.9950 -0.0994 0.0116
vn 0.9949 -0.1007 0.0009
vn 0.9854 -0.1429 -0.0922
vn 0.9923 -0.0918 -0.0832
vn 0.9933 -0.1130 0.0251
vn 0.9998 -0.0192 -0.0039
vn 0.9994 -0.0309 -0.0131
vn 0.9992 -0.0197 0.0353
vn 0.9810 -0.1925 0.0234
vn 0.9941 -0.1019 0.0366
vn 0.9932 -0.1158 -0.0083
vn 0.9647 -0.2464 0.0933
vn 0.9780 -0.2071 -0.0253
vn 0.9517 -0.3005 0.0634
vn 0.9551 -0.2860 -0.0767
vn 0.9955 -0.0942 0.0134
vn 0.9970 -0.0773 -0.0077
vn 0.9968 -0.0795 -0.0079
vn 0.9971 -0.0729 0.0196
vn 0.9968 -0.0780 0.0191
vn 0.9858 -0.1655 -0.0267
vn 0.9679 -0.1522 0.1998
vn 0.9482 -0.2935 0.1215
vn 0.9782 -0.1940 0.0745
vn 0.9723 -0.2289 0.0467
vn 0.9840 -0.1713 0.0494
vn 0.9714 -0.2031 -0.1229
vn 0.9826 -0.1856 -0.0042
vn 0.9921 -0.1241 -0.0204
vn 0.9823 -0.1663 -0.0858
vn 0.9750 -0.2158 -0.0537
vn 0.9758 -0.1315 0.1750
vn 0.9997 0.0008 0.0243
vn 0.9938 -0.1010 -0.0456
vn 0.9874 -0.1395 -0.0750
vn 0.9987 -0.0352 -0.0359
vn 0.9942 -0.0836 -0.0673
vn 0.9796 -0.1733 0.1015
vn 0.9679 -0.2376 0.0820
vn 0.9684 -0.2143 -0.1277
vn 0.9743 -0.2048 -0.0940
vn 0.9646 -0.2326 0.1239
vn 0.9905 -0.1339 0.0310
vn 0.9822 -0.1829 0.0431
vn 0.9797 -0.2002 0.0067
vn 0.9791 -0.1941 0.0615
vn 0.9651 -0.2240 -0.1358
vn 0.9654 -0.2227 -0.1355
vn 0.9896 -0.1410 0.0285
vn 0.9857 -0.1640 0.0399
vn 0.9830 -0.1838 -0.0009
vn 0.9857 -0.1656 0.0322
vn 0.9875 -0.1412 -0.0696
vn 0.9752 -0.1694 -0.1425
vn 0.9943 -0.1063 0.0018
vn 0.9957 -0.0883 -0.0267
vn 0.9873 -0.1587 0.0106
vn 0.9755 -0.2089 -0.0691
vn 0.9841 -0.1750 0.0288
vn 0.9820 -0.1857 -0.0348
vn 0.9930 -0.1154 -0.0232
vn 0.9940 -0.0605 -0.0906
vn 0.9677 -0.2381 0.0825
vn 0.9545 -0.2862 0.0840
vn 0.9655 -0.2281 0.1257
vn 0.9962 -0.0783 0.0384
vn 0.9945 -0.0809 -0.0667
vn 0.9963 -0.0808 0.0300
vn 0.9980 -0.0370 -0.0515
vn 0.9969 -0.0741 0.0253
vn 0.9874 -0.1578 0.0122
vn 0.9931 -0.1082 0.0459
vn 0.9864 -0.1323 -0.0972
vn 0.9909 -0.1195 -0.0623
vn 0.9904 -0.1150 -0.0764
vn 0.9619 -0.2524 -0.1052
vn 0.9608 -0.2498 -0.1205
vn 0.9612 -0.2486 -0.1197
vn 0.9787 -0.1964 0.0602
vn 0.9768 -0.2140 0.0114
vn 0.9903 -0.1182 -0.0732
vn 0.9906 -0.1179 -0.0698
vn 0.9860 -0.1454 -0.0820
vn 0.9842 -0.1771 -0.0007
vn 0.9855 -0.1681 0.0214
vn 0.9846 -0.1739 0.0180
vn 0.9845 -0.1477 -0.0943
vn 0.9834 -0.1797 0.0236
vn 0.9850 -0.1616 -0.0598
vn 0.9859 -0.1452 -0.0829
vn 0.9863 -0.1637 -0.0180
vn 0.9859 -0.1602 -0.0490
vn 0.9854 -0.1684 -0.0240
vn 0.9883 -0.1500 -0.0267
vn 0.9892 -0.1452 -0.0180
vn 0.9943 -0.1055 -0.0157
vn 0.9924 -0.1222 -0.0112
vn 0.9933 -0.1158 -0.0010
vn 0.9888 -0.1345 0.0652
vn 0.9811 -0.1884 -0.0451
vn 0.9870 -0.1271 -0.0988
vn 0.9865 -0.1387 -0.0869
vn 0.9817 -0.1482 -0.1193
vn 0.9822 -0.1666 -0.0865
vn 0.9773 -0.1898 -0.0942
vn 0.9749 -0.1682 -0.1461
usemtl None
s off
f 1/1/1 2/2/1 3/3/1
f 4/4/2 5/5/2 6/6/2
f 4/4/3 7/7/3 5/5/3
f 8/8/4 9/9/4 10/10/4
f 9/9/5 8/8/5 11/11/5
f 9/9/6 11/11/6 12/12/6
f 1/1/7 14/13/7 13/14/7
f 1/1/8 3/3/8 14/13/8
f 15/15/9 17/16/9 16/17/9
f 18/18/10 19/19/10 20/20/10
f 21/21/11 22/22/11 23/23/11
f 24/24/12 26/25/12 25/26/12
f 8/8/13 10/10/13 27/27/13
f 28/28/14 19/19/14 18/18/14
f 29/29/15 30/30/15 31/31/15
f 32/32/16 12/12/16 11/11/16
f 27/27/17 11/11/17 8/8/17
f 5/5/18 7/7/18 33/33/18
f 15/15/19 16/17/19 33/33/19
f 15/15/20 33/33/20 7/7/20
f 34/34/21 15/15/21 7/7/21
f 35/35/22 34/34/22 7/7/22
f 36/36/23 38/37/23 37/38/23
f 39/39/24 40/40/24 2/2/24
f 14/13/25 41/41/25 13/14/25
f 42/42/26 43/43/26 44/44/26
f 43/43/27 42/42/27 45/45/27
f 46/46/28 45/45/28 42/42/28
f 47/47/29 48/48/29 15/15/29
f 48/48/30 17/16/30 15/15/30
f 49/49/31 48/48/31 47/47/31
f 49/49/32 47/47/32 45/45/32
f 50/50/33 51/51/33 52/52/33
f 53/53/34 55/54/34 54/55/34
f 56/56/35 16/17/35 31/31/35
f 57/57/36 29/29/36 31/31/36
f 57/57/37 31/31/37 16/17/37
f 57/57/38 16/17/38 17/16/38
f 58/58/39 13/14/39 59/59/39
f 56/56/40 33/33/40 16/17/40
f 56/56/41 31/31/41 37/38/41
f 60/60/42 61/61/42 59/59/42
f 60/60/43 59/59/43 13/14/43
f 60/60/44 41/41/44 61/61/44
f 60/60/45 13/14/45 41/41/45
f 62/62/46 36/36/46 37/38/46
f 62/62/47 37/38/47 63/63/47
f 63/63/48 30/30/48 62/62/48
f 63/63/49 37/38/49 31/31/49
f 63/63/50 31/31/50 30/30/50
f 64/64/51 65/65/51 66/66/51
f 67/67/52 68/68/52 59/59/52
f 67/67/53 59/59/53 61/61/53
f 69/69/54 6/6/54 5/5/54
f 69/69/55 5/5/55 18/18/55
f 70/70/56 5/5/56 33/33/56
f 2/2/57 1/1/57 71/71/57
f 35/35/58 7/7/58 4/4/58
f 72/72/59 37/38/59 38/37/59
f 71/71/60 13/14/60 58/58/60
f 71/71/61 1/1/61 13/14/61
f 73/73/62 68/68/62 67/67/62
f 74/74/63 75/75/63 30/30/63
f 53/53/64 76/76/64 55/54/64
f 50/50/65 52/52/65 76/76/65
f 55/54/66 77/77/66 45/45/66
f 55/54/67 45/45/67 54/55/67
f 9/9/68 12/12/68 32/32/68
f 69/69/69 9/9/69 6/6/69
f 78/78/70 23/23/70 79/79/70
f 78/78/71 66/66/71 23/23/71
f 9/9/72 32/32/72 6/6/72
f 80/80/73 38/37/73 36/36/73
f 80/80/74 28/28/74 38/37/74
f 70/70/75 38/37/75 28/28/75
f 28/28/76 80/80/76 19/19/76
f 23/23/77 22/22/77 3/3/77
f 79/79/78 23/23/78 3/3/78
f 64/64/79 4/4/79 65/65/79
f 65/65/80 4/4/80 32/32/80
f 4/4/81 64/64/81 35/35/81
f 4/4/82 6/6/82 32/32/82
f 81/81/83 78/78/83 40/40/83
f 23/23/84 82/82/84 83/83/84
f 62/62/85 75/75/85 36/36/85
f 75/75/86 62/62/86 30/30/86
f 24/24/87 32/32/87 11/11/87
f 24/24/88 23/23/88 66/66/88
f 65/65/89 32/32/89 24/24/89
f 65/65/90 24/24/90 66/66/90
f 82/82/91 23/23/91 24/24/91
f 24/24/92 25/26/92 82/82/92
f 9/9/93 69/69/93 10/10/93
f 18/18/94 20/20/94 69/69/94
f 69/69/95 20/20/95 10/10/95
f 24/24/96 11/11/96 26/25/96
f 84/84/97 49/49/97 77/77/97
f 84/84/98 17/16/98 49/49/98
f 49/49/99 45/45/99 77/77/99
f 48/48/100 49/49/100 17/16/100
f 56/56/101 37/38/101 72/72/101
f 72/72/102 33/33/102 56/56/102
f 81/81/103 50/50/103 76/76/103
f 76/76/104 53/53/104 81/81/104
f 53/53/105 54/55/105 81/81/105
f 79/79/106 40/40/106 78/78/106
f 79/79/107 2/2/107 40/40/107
f 79/79/108 3/3/108 2/2/108
f 70/70/109 18/18/109 5/5/109
f 70/70/110 28/28/110 18/18/110
f 54/55/111 46/46/111 81/81/111
f 46/46/112 54/55/112 45/45/112
f 78/78/113 81/81/113 46/46/113
f 51/51/114 85/85/114 52/52/114
f 85/85/115 51/51/115 68/68/115
f 51/51/116 59/59/116 68/68/116
f 58/58/117 51/51/117 50/50/117
f 58/58/118 59/59/118 51/51/118
f 66/66/119 78/78/119 42/42/119
f 46/46/120 42/42/120 78/78/120
f 44/44/121 35/35/121 64/64/121
f 42/42/122 44/44/122 66/66/122
f 64/64/123 66/66/123 44/44/123
f 43/43/124 34/34/124 35/35/124
f 43/43/125 35/35/125 44/44/125
f 47/47/126 15/15/126 43/43/126
f 43/43/127 15/15/127 34/34/127
f 43/43/128 45/45/128 47/47/128
f 70/70/129 33/33/129 72/72/129
f 72/72/130 38/37/130 70/70/130
f 50/50/131 81/81/131 39/39/131
f 39/39/132 81/81/132 40/40/132
f 71/71/133 50/50/133 39/39/133
f 58/58/134 50/50/134 71/71/134
f 71/71/135 39/39/135 2/2/135
f 83/83/136 21/21/136 23/23/136
