# Blender v2.79 (sub 0) OBJ File: ''
# www.blender.org
mtllib crack_only_201.mtl
o crack_only_201
v 3.136002 4.928790 -2.467724
v 2.897029 5.903859 -2.125530
v 3.025374 5.663082 -2.902512
v 2.771653 1.763959 -4.354814
v 2.833903 2.144418 -4.198631
v 2.863785 1.996967 -3.671378
v 2.804041 2.126851 -4.643579
v 3.134992 4.998785 -1.396203
v 3.110638 4.188911 -2.019291
v 3.122530 4.573711 -3.974555
v 3.151156 5.323517 -4.388275
v 3.119079 5.470154 -3.632581
v 3.125948 4.411710 -4.766973
v 2.765091 1.171759 -3.288521
v 2.785399 1.389979 -3.323011
v 2.825214 1.591121 -2.769144
v 2.751104 1.274642 -3.652138
v 2.916698 2.462219 -2.196060
v 2.985006 2.921994 -2.496438
v 2.963369 2.798437 -2.086047
v 2.859258 2.083492 -1.918459
v 2.854471 2.003578 -2.255877
v 2.954727 2.881403 -4.553657
v 2.544960 6.180438 -1.502063
v 2.543076 6.451059 -1.882119
v 2.988414 3.149037 -4.476956
v 2.964169 2.937283 -4.673735
v 3.015697 3.324806 -4.694363
v 1.917660 7.190469 -2.299879
v 2.153644 6.990730 -2.261496
v 1.941292 7.048836 -1.823326
v 2.743969 5.787159 -1.413318
v 2.664566 5.960628 -1.443283
v 2.167633 6.884277 -1.901798
v 2.124928 6.855769 -1.673606
v 2.917048 2.507901 -1.686993
v 2.828864 1.941782 -1.561930
v 3.099465 3.922216 -1.332654
v 3.063939 3.542366 -1.657962
v 3.055709 3.742457 -4.204515
v 3.064360 3.786571 -3.897844
v 3.016127 3.352937 -4.117659
v 3.020525 3.372600 -3.839835
v 3.082744 3.924462 -3.458788
v 3.109438 4.218598 -2.753660
v 3.023269 3.210106 -2.179662
v 3.027418 3.302443 -2.562289
v 3.091536 3.955778 -2.500304
v 2.951490 2.732431 -3.423868
v 2.930597 2.542667 -3.186985
v 2.973708 2.858767 -2.913111
v 2.787537 1.178500 -2.652278
v 2.802089 1.360287 -2.204411
v 3.049729 3.579187 -3.414950
v 2.992369 3.076626 -3.371035
v 2.918004 2.586373 -3.772459
v 2.878953 2.301077 -1.371823
v 3.020205 6.313744 -4.275114
v 3.053465 3.458415 -1.939894
v 3.069090 3.727987 -3.030169
v 2.276729 6.617876 -1.555125
v 2.783072 1.166878 -2.808019
v 2.885938 6.411299 -3.476817
v 2.572477 6.652056 -2.534392
v 3.047032 3.573997 -4.767027
v 3.047659 3.628022 -4.529266
v 2.885922 2.527397 -4.885257
v 3.019475 3.164604 -5.064305
v 3.067070 3.699609 -5.011736
v 3.114163 4.118978 -1.336835
v 3.036980 3.216110 -1.265450
v 2.750205 1.458826 -4.015396
v 2.772075 1.142433 -3.105918
v 2.816482 1.684334 -1.946589
v 2.805970 1.617481 -1.824180
v 1.775950 7.212646 -1.996797
v 1.662068 7.348829 -2.168300
v 1.670839 7.516915 -2.930020
v 1.904745 7.304244 -2.653651
v 1.895740 7.418979 -3.076536
v 1.923861 7.521444 -3.500632
v 2.359869 7.295062 -3.710408
v 1.943423 7.578024 -3.794199
v 2.134958 7.125430 -2.665624
v 2.454572 6.816717 -2.641333
v 2.784052 7.005577 -4.283681
v 2.482951 7.277334 -3.971276
v 2.493815 7.320107 -4.278536
v 2.767271 6.940175 -3.908777
v 1.770911 7.598398 -3.656699
v 1.724360 7.532278 -3.182725
v 1.803005 7.638173 -3.934932
v 2.110340 7.537743 -4.153562
v 1.609422 7.469028 -2.637220
v 1.539281 7.455006 -2.339546
v 2.051712 6.945692 -1.736142
v 1.814585 7.646718 -4.049574
v 2.459216 7.027224 -3.232655
v 2.984339 3.090007 -4.050756
v 3.019178 3.157887 -1.708869
v 2.959218 6.536754 -4.276250
v 2.969179 2.690524 -1.262674
vt 0.283312 0.701125
vt 0.382044 0.813272
vt 0.261456 0.885860
vt 0.477828 0.062743
vt 0.466253 0.136812
vt 0.373481 0.131790
vt 0.539278 0.115847
vt 0.181487 0.587575
vt 0.108141 0.756011
vt 0.520103 0.578343
vt 0.616551 0.695052
vt 0.496458 0.750783
vt 0.645588 0.518231
vt 0.279048 0.000000
vt 0.292920 0.037457
vt 0.208650 0.095352
vt 0.343102 0.003722
vt 0.146166 0.273129
vt 0.213285 0.343199
vt 0.140545 0.337417
vt 0.085869 0.216599
vt 0.138869 0.189021
vt 0.552913 0.254223
vt 0.836425 0.124775
vt 0.948040 0.191736
vt 0.841348 0.205464
vt 0.550225 0.304941
vt 0.574938 0.259433
vt 0.592905 0.327670
vt 0.728443 0.351494
vt 0.709907 0.263223
vt 0.773105 0.321291
vt 0.887556 0.074447
vt 0.865506 0.094800
vt 0.758559 0.254860
vt 0.739352 0.217632
vt 0.063407 0.301413
vt 0.021354 0.205402
vt 0.057684 0.567446
vt 0.097460 0.486966
vt 0.527251 0.421406
vt 0.478046 0.441446
vt 0.498278 0.355526
vt 0.452937 0.370058
vt 0.410389 0.483426
vt 0.304400 0.563711
vt 0.171549 0.407098
vt 0.238450 0.408324
vt 0.252585 0.527043
vt 0.359980 0.272589
vt 0.280019 0.315390
vt 0.313582 0.248197
vt 0.173855 0.026579
vt 0.106339 0.076663
vt 0.390216 0.423729
vt 0.364112 0.335983
vt 0.412260 0.232642
vt 0.003313 0.276980
vt 0.633742 0.874150
vt 0.141081 0.460833
vt 0.331969 0.465498
vt 0.770089 0.175333
vt 0.199241 0.018313
vt 0.504303 0.922154
vt 0.355422 1.000000
vt 0.614304 0.369181
vt 0.576860 0.388189
vt 0.594534 0.177840
vt 0.648376 0.284630
vt 0.659628 0.381885
vt 0.065711 0.602262
vt 0.020178 0.444507
vt 0.410158 0.021961
vt 0.247705 0.002091
vt 0.075601 0.144428
vt 0.052778 0.137357
vt 1.000000 0.000000
vt 0.686817 0.309851
vt 0.672677 0.352044
vt 0.713089 0.487087
vt 0.742163 0.417429
vt 0.761073 0.494486
vt 0.786029 0.569306
vt 0.876781 0.569040
vt 0.804423 0.620091
vt 0.787882 0.397108
vt 0.853212 0.358030
vt 0.995699 0.623887
vt 0.931875 0.657344
vt 0.912654 0.604931
vt 0.972789 0.559161
vt 0.770116 0.606515
vt 0.736450 0.526917
vt 0.790448 0.653105
vt 0.854707 0.668537
vt 0.688420 0.438810
vt 0.659628 0.392478
vt 0.726809 0.237175
vt 0.799209 0.671823
vt 0.874514 0.324159
vt 0.878124 0.468545
vt 1.000000 0.447048
vt 0.477326 0.311348
vt 0.091504 0.416480
vt 0.641886 0.913209
vt 0.594944 0.997944
vt 0.000000 0.350975
vt 0.659628 0.994790
vn 0.9740 0.2045 0.0975
vn 0.9881 -0.1244 -0.0908
vn 0.9887 -0.1367 -0.0610
vn 0.9995 -0.0324 0.0031
vn 0.9989 -0.0133 0.0450
vn 0.9994 -0.0322 0.0109
vn 0.9699 0.2430 -0.0150
vn 0.9945 -0.0982 -0.0358
vn 0.9867 -0.1552 -0.0484
vn 0.9900 -0.1406 0.0099
vn 0.9904 -0.1368 0.0183
vn 0.9803 -0.1888 -0.0583
vn 0.8566 0.4223 0.2964
vn 0.9912 -0.1308 0.0186
vn 0.6146 0.7639 0.1966
vn 0.8612 0.4386 0.2569
vn 0.7327 0.6448 0.2177
vn 0.9886 -0.1484 0.0253
vn 0.9967 -0.0804 -0.0150
vn 0.9945 -0.1040 -0.0131
vn 0.9943 -0.1064 -0.0082
vn 0.9976 -0.0685 -0.0092
vn 0.9953 -0.0965 -0.0125
vn 0.9921 -0.1246 -0.0123
vn 0.9960 -0.0898 0.0041
vn 0.9933 -0.1145 -0.0126
vn 0.9935 -0.1005 -0.0533
vn 0.9899 -0.1413 0.0120
vn 0.9886 -0.1492 0.0216
vn 0.9932 -0.1157 -0.0146
vn 0.9915 0.1292 0.0170
vn 0.9969 -0.0782 -0.0017
vn 0.9935 -0.1139 -0.0087
vn 0.9938 -0.1107 -0.0122
vn 0.9970 -0.0754 -0.0181
vn 0.9935 -0.1139 -0.0059
vn 0.9900 -0.1396 -0.0205
vn 0.7363 0.6128 0.2871
vn 0.9967 -0.0795 -0.0134
vn 0.9951 -0.0969 -0.0213
vn 0.7732 0.5184 0.3653
vn 0.9155 0.3381 0.2181
vn 0.9932 -0.1165 -0.0057
vn 0.9970 -0.0754 -0.0173
vn 0.9950 -0.0978 -0.0208
vn 0.9954 -0.0938 0.0187
vn 0.9798 -0.1989 0.0230
vn 0.9925 -0.1082 0.0570
vn 0.9896 -0.1281 0.0656
vn 0.9952 -0.0919 0.0343
vn 0.9950 -0.0937 0.0334
vn 0.9947 -0.1003 -0.0214
vn 0.9971 -0.0748 -0.0128
vn 0.9123 0.4088 0.0240
vn 0.9960 -0.0886 -0.0053
vn 0.9997 -0.0242 -0.0076
vn 0.9844 -0.1572 -0.0791
vn 0.9949 -0.0962 -0.0288
vn 0.9948 -0.0966 0.0327
vn 0.9830 -0.1835 -0.0081
vn 0.9916 -0.1289 -0.0073
vn 0.9955 -0.0797 -0.0509
vn 0.8636 0.4339 0.2567
vn 0.9952 -0.0968 -0.0127
vn 0.9907 -0.1058 -0.0857
vn 0.9924 -0.1030 -0.0673
vn 0.9805 -0.1966 0.0064
vn 0.8249 0.5126 0.2384
vn 0.9960 -0.0783 0.0428
vn 0.5933 0.7741 0.2208
vn 0.5695 0.7952 0.2081
vn 0.5047 0.8358 0.2160
vn 0.5241 0.8291 0.1947
vn 0.6077 0.7614 0.2257
vn 0.6717 0.7116 0.2061
vn 0.7306 0.6722 0.1194
vn 0.7425 0.6534 0.1472
vn 0.2703 0.9419 0.1995
vn 0.3075 0.9378 0.1610
vn 0.2442 0.9556 0.1648
vn 0.3456 0.9367 0.0555
vn 0.5088 0.8460 0.1597
vn 0.6138 0.7767 0.1415
vn 0.6789 0.7021 0.2148
vn 0.6206 0.7581 0.2002
vn 0.3766 0.9202 0.1066
vn 0.8606 0.4744 0.1850
vn 0.7300 0.6432 0.2311
vn 0.6598 0.7272 0.1896
vn 0.7202 0.6582 0.2193
vn 0.9993 -0.0361 -0.0031
vn 0.7077 0.6638 0.2419
vn 0.8393 0.5239 0.1453
vn 0.9924 -0.1230 -0.0068
vn 0.9925 -0.1220 -0.0078
vn 0.9874 -0.1583 0.0075
vn 0.9914 -0.1298 0.0175
vn 0.9955 -0.0924 0.0232
vn 0.5221 0.8420 0.1357
vn 0.5338 0.8314 0.1547
vn 0.5029 0.8454 0.1798
vn 0.9993 -0.0373 -0.0001
vn 0.9889 -0.0496 0.1400
vn 0.9912 0.1264 -0.0387
vn 0.9974 -0.0723 -0.0046
vn 0.9952 -0.0977 -0.0002
vn 0.9965 -0.0833 -0.0064
vn 0.9972 -0.0744 -0.0067
vn 0.9932 -0.1166 -0.0043
vn 0.9956 -0.0933 -0.0092
vn 0.9912 -0.1305 -0.0227
vn 0.4281 0.8716 0.2390
vn 0.9667 0.2169 0.1361
vn 0.9564 0.2622 0.1288
vn 0.9370 0.3216 0.1364
vn 0.8332 0.4497 0.3217
vn 0.9711 0.2300 0.0639
vn 0.4832 0.8422 0.2391
vn 0.5733 0.8069 0.1425
vn 0.4822 0.8390 0.2522
vn 0.9878 -0.1512 -0.0381
vn 0.9884 -0.1483 -0.0328
vn 0.9932 -0.1158 -0.0140
vn 0.9931 -0.1167 -0.0140
vn 0.9925 -0.1218 -0.0071
vn 0.9754 -0.2188 -0.0257
vn 0.9878 -0.1555 -0.0087
vn 0.9876 -0.1558 -0.0192
vn 0.9895 -0.1280 -0.0665
vn 0.9898 -0.1419 0.0095
vn 0.9934 -0.1136 -0.0166
vn 0.9936 -0.1125 -0.0099
vn 0.4769 0.8654 0.1536
vn 0.6051 0.7641 0.2236
vn 0.9967 -0.0812 0.0039
vn 0.9923 -0.1234 -0.0065
vn 0.9927 -0.1178 0.0241
vn 0.9924 -0.1197 0.0278
vn 0.9951 -0.0988 0.0102
vn 0.9844 -0.1557 -0.0814
vn 0.9313 0.3496 0.1027
vn 0.6614 0.7049 0.2561
vn 0.5960 0.7781 0.1984
vn 0.6061 0.7660 0.2139
vn 0.5975 0.7695 0.2255
vn 0.5527 0.7707 0.3171
vn 0.9955 -0.0907 0.0287
vn 0.9961 -0.0777 0.0421
vn 0.9967 -0.0805 0.0079
vn 0.9877 -0.1548 0.0227
vn 0.9947 -0.0998 0.0235
vn 0.9905 -0.1365 0.0163
vn 0.9900 -0.1409 -0.0006
vn 0.7007 0.6745 0.2324
vn 0.7049 0.6479 0.2886
usemtl None
s off
f 1/1/1 3/2/1 2/3/1
f 4/4/2 5/5/2 6/6/2
f 4/4/3 7/7/3 5/5/3
f 9/8/4 1/1/4 8/9/4
f 10/10/5 11/11/5 12/12/5
f 13/13/6 11/11/6 10/10/6
f 2/3/7 8/9/7 1/1/7
f 14/14/8 15/15/8 16/16/8
f 15/15/9 17/17/9 6/6/9
f 18/18/10 19/19/10 20/20/10
f 21/21/11 22/22/11 18/18/11
f 23/23/12 5/5/12 7/7/12
f 24/24/13 2/25/13 25/26/13
f 26/27/14 27/28/14 28/29/14
f 29/30/15 31/31/15 30/32/15
f 32/33/16 2/25/16 33/34/16
f 34/35/17 35/36/17 25/26/17
f 21/21/18 36/37/18 37/38/18
f 38/39/19 39/40/19 9/8/19
f 40/41/20 41/42/20 42/43/20
f 43/44/21 41/42/21 44/45/21
f 43/44/21 42/43/21 41/42/21
f 44/45/22 10/10/22 45/46/22
f 46/47/23 47/48/23 48/49/23
f 49/50/24 51/51/24 50/52/24
f 52/53/25 16/16/25 53/54/25
f 43/44/26 54/55/26 55/56/26
f 56/57/27 49/50/27 6/6/27
f 21/21/28 20/20/28 36/37/28
f 21/21/28 18/18/28 20/20/28
f 36/37/29 57/58/29 37/38/29
f 49/50/30 55/56/30 51/51/30
f 58/59/31 12/12/31 11/11/31
f 48/49/32 9/8/32 59/60/32
f 50/52/33 16/16/33 6/6/33
f 60/61/34 47/48/34 51/51/34
f 60/61/34 51/51/34 55/56/34
f 41/42/35 10/10/35 44/45/35
f 60/61/36 55/56/36 54/55/36
f 15/15/37 6/6/37 16/16/37
f 61/62/38 25/26/38 35/36/38
f 59/60/39 9/8/39 39/40/39
f 62/63/40 16/16/40 52/53/40
f 61/62/41 24/24/41 25/26/41
f 63/64/42 64/65/42 3/2/42
f 50/52/43 6/6/43 49/50/43
f 41/42/44 40/41/44 10/10/44
f 43/44/45 44/45/45 54/55/45
f 65/66/46 13/13/46 66/67/46
f 27/28/47 67/68/47 68/69/47
f 28/29/48 68/69/48 65/66/48
f 28/29/49 27/28/49 68/69/49
f 69/70/50 65/66/50 68/69/50
f 65/66/51 69/70/51 13/13/51
f 48/49/52 59/60/52 46/47/52
f 38/39/53 9/8/53 70/71/53
f 64/65/54 2/3/54 3/2/54
f 39/40/55 38/39/55 71/72/55
f 70/71/56 9/8/56 8/9/56
f 72/73/57 4/4/57 6/6/57
f 62/63/58 73/74/58 16/16/58
f 74/75/59 37/38/59 75/76/59
f 23/23/60 67/68/60 27/28/60
f 19/19/61 50/52/61 51/51/61
f 14/14/62 16/16/62 73/74/62
f 32/33/63 8/77/63 2/25/63
f 60/61/64 54/55/64 44/45/64
f 56/57/65 6/6/65 5/5/65
f 15/15/66 14/14/66 17/17/66
f 23/23/67 7/7/67 67/68/67
f 33/34/68 2/25/68 24/24/68
f 75/76/69 53/54/69 74/75/69
f 76/78/70 29/30/70 77/79/70
f 76/78/71 31/31/71 29/30/71
f 78/80/72 79/81/72 80/82/72
f 81/83/73 82/84/73 83/85/73
f 84/86/74 29/30/74 30/32/74
f 85/87/75 84/86/75 30/32/75
f 86/88/76 88/89/76 87/90/76
f 86/88/77 87/90/77 89/91/77
f 90/92/78 81/83/78 83/85/78
f 81/83/79 90/92/79 91/93/79
f 90/92/80 83/85/80 92/94/80
f 92/94/81 83/85/81 93/95/81
f 77/79/82 94/96/82 95/97/82
f 96/98/83 34/35/83 31/31/83
f 96/98/84 35/36/84 34/35/84
f 34/35/85 30/32/85 31/31/85
f 97/99/86 92/94/86 93/95/86
f 64/100/87 25/26/87 2/25/87
f 34/35/88 25/26/88 64/100/88
f 85/87/89 30/32/89 34/35/89
f 85/87/90 34/35/90 64/100/90
f 9/8/91 45/46/91 1/1/91
f 64/100/92 98/101/92 85/87/92
f 64/100/93 63/102/93 98/101/93
f 23/23/94 26/27/94 42/43/94
f 23/23/95 42/43/95 99/103/95
f 23/23/96 99/103/96 5/5/96
f 23/23/97 27/28/97 26/27/97
f 10/10/98 66/67/98 13/13/98
f 93/95/99 87/90/99 88/89/99
f 93/95/100 83/85/100 82/84/100
f 93/95/101 82/84/101 87/90/101
f 45/46/102 10/10/102 1/1/102
f 10/10/103 12/12/103 3/2/103
f 3/2/104 1/1/104 10/10/104
f 48/49/105 45/46/105 9/8/105
f 48/49/106 47/48/106 60/61/106
f 48/49/107 60/61/107 44/45/107
f 48/49/108 44/45/108 45/46/108
f 46/47/109 59/60/109 100/104/109
f 39/40/110 71/72/110 59/60/110
f 59/60/111 71/72/111 100/104/111
f 91/93/112 80/82/112 81/83/112
f 58/59/113 63/64/113 12/12/113
f 63/64/114 58/59/114 101/105/114
f 63/64/115 101/105/115 89/106/115
f 63/102/116 89/91/116 98/101/116
f 63/64/117 3/2/117 12/12/117
f 94/96/118 79/81/118 78/80/118
f 94/96/119 77/79/119 29/30/119
f 94/96/120 29/30/120 79/81/120
f 99/103/121 56/57/121 5/5/121
f 56/57/122 99/103/122 49/50/122
f 99/103/123 55/56/123 49/50/123
f 99/103/124 43/44/124 55/56/124
f 99/103/125 42/43/125 43/44/125
f 36/37/126 102/107/126 57/58/126
f 46/47/28 36/37/28 20/20/28
f 46/47/127 100/104/127 36/37/127
f 36/37/128 100/104/128 71/72/128
f 36/37/129 71/72/129 102/107/129
f 19/19/130 46/47/130 20/20/130
f 47/48/131 46/47/131 19/19/131
f 47/48/132 19/19/132 51/51/132
f 78/80/133 80/82/133 91/93/133
f 84/86/134 79/81/134 29/30/134
f 66/67/135 10/10/135 40/41/135
f 26/27/136 66/67/136 42/43/136
f 66/67/137 28/29/137 65/66/137
f 26/27/138 28/29/138 66/67/138
f 66/67/139 40/41/139 42/43/139
f 17/17/140 72/73/140 6/6/140
f 86/108/141 89/106/141 101/105/141
f 84/86/142 85/87/142 98/101/142
f 98/101/143 80/82/143 79/81/143
f 84/86/144 98/101/144 79/81/144
f 98/101/145 81/83/145 80/82/145
f 98/101/146 82/84/146 81/83/146
f 74/75/147 22/22/147 37/38/147
f 22/22/148 74/75/148 53/54/148
f 22/22/149 53/54/149 16/16/149
f 21/21/150 37/38/150 22/22/150
f 50/52/151 22/22/151 16/16/151
f 18/18/152 22/22/152 19/19/152
f 19/19/153 22/22/153 50/52/153
f 98/101/154 89/91/154 82/84/154
f 82/84/155 89/91/155 87/90/155
