# Blender v2.79 (sub 0) OBJ File: ''
# www.blender.org
mtllib crack_only_21.mtl
o crack_only_21
v 2.889220 1.152993 -2.725994
v 2.886309 1.135093 -2.900499
v 2.863936 1.442810 -2.728830
v 2.859537 1.337348 -3.039075
v 2.857884 1.494308 -2.951725
v 2.830216 1.417677 -3.327160
v 2.888402 1.240617 -2.465524
v 2.825002 1.186153 -3.430400
v 2.868450 1.118016 -3.140645
v 2.804638 1.277869 -3.518520
v 2.796037 1.227202 -3.584753
vt 1.000000 0.239205
vt 1.000000 0.395825
vt 0.203354 0.215932
vt 0.404421 0.501325
vt 0.000000 0.409078
vt 0.099633 0.751144
vt 0.832774 0.000000
vt 0.701688 0.865041
vt 0.976557 0.611601
vt 0.422942 0.935866
vt 0.541108 1.000000
vn 0.9959 0.0866 -0.0255
vn 0.9940 0.0989 -0.0477
vn 0.9995 0.0227 -0.0219
vn 0.9947 0.0578 -0.0851
vn 0.9959 0.0866 -0.0260
vn 0.9952 0.0202 -0.0957
vn 0.9873 0.0980 -0.1250
vn 0.9838 0.0541 -0.1710
vn 0.9839 0.0552 -0.1700
vn 0.9939 0.0772 -0.0794
usemtl None
s off
f 1/1/1 2/2/1 3/3/1
f 2/2/2 4/4/2 3/3/2
f 5/5/3 3/3/3 4/4/3
f 5/5/4 4/4/4 6/6/4
f 1/1/5 3/3/5 7/7/5
f 4/4/6 8/8/6 6/6/6
f 4/4/7 9/9/7 8/8/7
f 8/8/8 10/10/8 6/6/8
f 11/11/9 10/10/9 8/8/9
f 2/2/10 9/9/10 4/4/10
