# Blender v2.79 (sub 0) OBJ File: ''
# www.blender.org
mtllib crack_only_203.mtl
o crack_only_203
v 3.136002 4.928790 -2.467724
v 2.897029 5.903859 -2.125530
v 3.025374 5.663082 -2.902512
v 2.771653 1.763959 -4.354814
v 2.833903 2.144418 -4.198631
v 2.863785 1.996967 -3.671378
v 2.804041 2.126851 -4.643579
v 3.134992 4.998785 -1.396203
v 3.110638 4.188911 -2.019291
v 3.122530 4.573711 -3.974555
v 3.151156 5.323517 -4.388275
v 3.119079 5.470154 -3.632581
v 3.125948 4.411710 -4.766973
v 2.765091 1.171759 -3.288521
v 2.785399 1.389979 -3.323011
v 2.825214 1.591121 -2.769144
v 2.751104 1.274642 -3.652138
v 2.916698 2.462219 -2.196060
v 2.985006 2.921994 -2.496438
v 2.963369 2.798437 -2.086047
v 2.859258 2.083492 -1.918459
v 2.854471 2.003578 -2.255877
v 2.954727 2.881403 -4.553657
v 2.544960 6.180438 -1.502063
v 2.543076 6.451059 -1.882119
v 2.988414 3.149037 -4.476956
v 2.964169 2.937283 -4.673735
v 3.015697 3.324806 -4.694363
v 1.894435 7.216604 -2.332709
v 2.152905 6.993091 -2.266701
v 1.937825 7.051646 -1.824772
v 2.743969 5.787159 -1.413318
v 2.664566 5.960628 -1.443283
v 2.167633 6.884277 -1.901798
v 2.124928 6.855769 -1.673606
v 2.917048 2.507901 -1.686993
v 2.828864 1.941782 -1.561930
v 3.099465 3.922216 -1.332654
v 3.063939 3.542366 -1.657962
v 3.055709 3.742457 -4.204515
v 3.064360 3.786571 -3.897844
v 3.016127 3.352937 -4.117659
v 3.020525 3.372600 -3.839835
v 3.082744 3.924462 -3.458788
v 3.109438 4.218598 -2.753660
v 3.023269 3.210106 -2.179662
v 3.027418 3.302443 -2.562289
v 3.091536 3.955778 -2.500304
v 2.951490 2.732431 -3.423868
v 2.930597 2.542667 -3.186985
v 2.973708 2.858767 -2.913111
v 2.787537 1.178500 -2.652278
v 2.802089 1.360287 -2.204411
v 3.049729 3.579187 -3.414950
v 2.992369 3.076626 -3.371035
v 2.918004 2.586373 -3.772459
v 2.878953 2.301077 -1.371823
v 3.020205 6.313744 -4.275114
v 3.053465 3.458415 -1.939894
v 3.069090 3.727987 -3.030169
v 2.276729 6.617876 -1.555125
v 2.783072 1.166878 -2.808019
v 2.885938 6.411299 -3.476817
v 2.572477 6.652056 -2.534392
v 3.047032 3.573997 -4.767027
v 3.047659 3.628022 -4.529266
v 2.885922 2.527397 -4.885257
v 3.019475 3.164604 -5.064305
v 3.067070 3.699609 -5.011736
v 3.114163 4.118978 -1.336835
v 3.036980 3.216110 -1.265450
v 2.750205 1.458826 -4.015396
v 2.772075 1.142433 -3.105918
v 2.816482 1.684334 -1.946589
v 2.805970 1.617481 -1.824180
v 1.739688 7.253800 -2.047428
v 1.620481 7.391875 -2.234831
v 1.572554 7.555317 -2.962411
v 1.878641 7.336292 -2.699950
v 1.814654 7.476520 -3.081319
v 1.842275 7.562752 -3.486442
v 2.340487 7.311815 -3.703888
v 1.858572 7.607808 -3.761361
v 2.120703 7.147519 -2.697398
v 2.454572 6.816717 -2.641333
v 2.784052 7.005577 -4.283681
v 2.470690 7.286997 -3.966707
v 2.471692 7.338860 -4.276497
v 2.767271 6.940175 -3.908777
v 1.610475 7.596564 -3.603576
v 1.598248 7.569227 -3.185620
v 1.648497 7.630331 -3.842439
v 1.996588 7.592388 -4.111407
v 1.527066 7.524493 -2.693460
v 1.478021 7.526204 -2.440683
v 2.051712 6.945692 -1.736142
v 1.677167 7.622243 -3.982587
v 2.460037 7.029963 -3.236813
v 2.984339 3.090007 -4.050756
v 3.019178 3.157887 -1.708869
v 2.959218 6.536754 -4.276250
v 2.969179 2.690524 -1.262674
vt 0.312173 0.675232
vt 0.420962 0.783237
vt 0.288090 0.853144
vt 0.526503 0.060425
vt 0.513748 0.131760
vt 0.411526 0.126923
vt 0.594213 0.111568
vt 0.199975 0.565876
vt 0.119157 0.728091
vt 0.573085 0.556984
vt 0.679357 0.669383
vt 0.547032 0.723056
vt 0.711353 0.499092
vt 0.307473 0.000000
vt 0.322758 0.036074
vt 0.229904 0.091831
vt 0.378052 0.003584
vt 0.161056 0.263042
vt 0.235011 0.330525
vt 0.154862 0.324956
vt 0.094616 0.208600
vt 0.153015 0.182041
vt 0.609236 0.244834
vt 0.183606 0.921789
vt 0.264076 0.953463
vt 0.606275 0.293680
vt 0.633506 0.249852
vt 0.653303 0.315569
vt 0.820034 0.168652
vt 0.836181 0.076562
vt 0.880048 0.152486
vt 0.152388 0.859384
vt 0.164522 0.887317
vt 0.888117 0.086506
vt 0.881406 0.046053
vt 0.983148 0.073169
vt 0.069866 0.290282
vt 0.023528 0.197817
vt 0.063561 0.546491
vt 0.107389 0.468983
vt 0.580960 0.405844
vt 0.526744 0.425144
vt 0.549037 0.342396
vt 0.499077 0.356391
vt 0.452194 0.465574
vt 0.335409 0.542893
vt 0.189024 0.392064
vt 0.262741 0.393245
vt 0.278316 0.507579
vt 0.396650 0.262522
vt 0.308543 0.303743
vt 0.345525 0.239031
vt 0.191565 0.025598
vt 0.117171 0.073832
vt 0.429967 0.408081
vt 0.401203 0.323575
vt 0.454256 0.224050
vt 0.003651 0.266752
vt 0.698300 0.841867
vt 0.155453 0.443814
vt 0.365786 0.448307
vt 0.923539 0.019823
vt 0.219536 0.017637
vt 1.000000 0.000000
vt 0.555675 0.888097
vt 0.391628 0.963068
vt 0.676882 0.355546
vt 0.635624 0.373853
vt 0.655098 0.171272
vt 0.714424 0.274119
vt 0.726822 0.367781
vt 0.072405 0.580021
vt 0.022233 0.428092
vt 0.451939 0.021150
vt 0.272938 0.002013
vt 0.083301 0.139094
vt 0.058154 0.132285
vt 0.726823 0.636621
vt 0.736696 0.511086
vt 0.766143 0.636621
vt 0.788987 0.119534
vt 0.759752 0.155078
vt 0.744101 0.285043
vt 0.811046 0.235332
vt 0.792327 0.304754
vt 0.793401 0.377292
vt 0.898590 0.410678
vt 0.794628 0.426129
vt 0.866158 0.231002
vt 0.946722 0.213995
vt 1.000000 0.504814
vt 0.922673 0.511086
vt 0.924390 0.456121
vt 0.999547 0.438136
vt 0.751326 0.397165
vt 0.748823 0.324134
vt 0.756918 0.439581
vt 0.821614 0.486947
vt 0.736844 0.237469
vt 0.726823 0.193574
vt 0.862816 0.058945
vt 0.763222 0.463728
vt 0.977987 0.191604
vt 0.936245 0.322825
vt 0.534828 1.000000
vt 0.525950 0.299850
vt 0.100825 0.401100
vt 0.707274 0.879483
vt 0.655550 0.961088
vt 0.000000 0.338014
vt 0.726823 0.958051
vn 0.9740 0.2045 0.0975
vn 0.9881 -0.1244 -0.0908
vn 0.9887 -0.1367 -0.0610
vn 0.9995 -0.0324 0.0031
vn 0.9989 -0.0133 0.0450
vn 0.9994 -0.0322 0.0109
vn 0.9699 0.2430 -0.0150
vn 0.9945 -0.0982 -0.0358
vn 0.9867 -0.1552 -0.0484
vn 0.9900 -0.1406 0.0099
vn 0.9904 -0.1368 0.0183
vn 0.9803 -0.1888 -0.0583
vn 0.8566 0.4223 0.2964
vn 0.9912 -0.1308 0.0186
vn 0.6122 0.7659 0.1964
vn 0.8612 0.4386 0.2569
vn 0.7327 0.6448 0.2177
vn 0.9886 -0.1484 0.0253
vn 0.9967 -0.0804 -0.0150
vn 0.9945 -0.1040 -0.0131
vn 0.9943 -0.1064 -0.0082
vn 0.9976 -0.0685 -0.0092
vn 0.9953 -0.0965 -0.0125
vn 0.9921 -0.1246 -0.0123
vn 0.9960 -0.0898 0.0041
vn 0.9933 -0.1145 -0.0126
vn 0.9935 -0.1005 -0.0533
vn 0.9899 -0.1413 0.0120
vn 0.9886 -0.1492 0.0216
vn 0.9932 -0.1157 -0.0146
vn 0.9915 0.1292 0.0170
vn 0.9969 -0.0782 -0.0017
vn 0.9935 -0.1139 -0.0087
vn 0.9938 -0.1107 -0.0122
vn 0.9970 -0.0754 -0.0181
vn 0.9935 -0.1139 -0.0059
vn 0.9900 -0.1396 -0.0205
vn 0.7363 0.6128 0.2871
vn 0.9967 -0.0795 -0.0134
vn 0.9951 -0.0969 -0.0213
vn 0.7732 0.5184 0.3653
vn 0.9155 0.3381 0.2181
vn 0.9932 -0.1165 -0.0057
vn 0.9970 -0.0754 -0.0173
vn 0.9950 -0.0978 -0.0208
vn 0.9954 -0.0938 0.0187
vn 0.9798 -0.1989 0.0230
vn 0.9925 -0.1082 0.0570
vn 0.9896 -0.1281 0.0656
vn 0.9952 -0.0919 0.0343
vn 0.9950 -0.0937 0.0334
vn 0.9947 -0.1003 -0.0214
vn 0.9971 -0.0748 -0.0128
vn 0.9123 0.4088 0.0240
vn 0.9960 -0.0886 -0.0053
vn 0.9997 -0.0242 -0.0076
vn 0.9844 -0.1572 -0.0791
vn 0.9949 -0.0962 -0.0288
vn 0.9948 -0.0966 0.0327
vn 0.9830 -0.1835 -0.0081
vn 0.9916 -0.1289 -0.0073
vn 0.9955 -0.0797 -0.0509
vn 0.8636 0.4339 0.2567
vn 0.9952 -0.0968 -0.0127
vn 0.9907 -0.1058 -0.0857
vn 0.9924 -0.1030 -0.0673
vn 0.9805 -0.1966 0.0064
vn 0.8249 0.5126 0.2384
vn 0.9960 -0.0783 0.0428
vn 0.5792 0.7872 0.2116
vn 0.5741 0.7919 0.2081
vn 0.4097 0.8763 0.2535
vn 0.5012 0.8487 0.1688
vn 0.6026 0.7645 0.2291
vn 0.6713 0.7123 0.2052
vn 0.7260 0.6779 0.1158
vn 0.7394 0.6569 0.1477
vn 0.0603 0.9845 0.1649
vn 0.1102 0.9916 0.0681
vn 0.0490 0.9879 0.1474
vn 0.1072 0.9942 -0.0015
vn 0.5934 0.7974 0.1097
vn 0.6133 0.7772 0.1410
vn 0.6789 0.7021 0.2148
vn 0.6198 0.7585 0.2012
vn 0.0762 0.9962 -0.0419
vn 0.8606 0.4744 0.1850
vn 0.7300 0.6432 0.2311
vn 0.6606 0.7264 0.1899
vn 0.7202 0.6582 0.2193
vn 0.9993 -0.0361 -0.0031
vn 0.7062 0.6644 0.2444
vn 0.8404 0.5218 0.1462
vn 0.9924 -0.1230 -0.0068
vn 0.9925 -0.1220 -0.0078
vn 0.9874 -0.1583 0.0075
vn 0.9914 -0.1298 0.0175
vn 0.9955 -0.0924 0.0232
vn 0.5044 0.8514 0.1442
vn 0.5026 0.8495 0.1607
vn 0.4977 0.8513 0.1662
vn 0.9993 -0.0373 -0.0001
vn 0.9889 -0.0496 0.1400
vn 0.9912 0.1264 -0.0387
vn 0.9974 -0.0723 -0.0046
vn 0.9952 -0.0977 -0.0002
vn 0.9965 -0.0833 -0.0064
vn 0.9972 -0.0744 -0.0067
vn 0.9932 -0.1166 -0.0043
vn 0.9956 -0.0933 -0.0092
vn 0.9912 -0.1305 -0.0227
vn 0.2936 0.9307 0.2181
vn 0.9667 0.2169 0.1361
vn 0.9564 0.2622 0.1288
vn 0.9370 0.3216 0.1364
vn 0.8337 0.4493 0.3211
vn 0.9711 0.2300 0.0639
vn 0.4669 0.8661 0.1782
vn 0.5652 0.8160 0.1208
vn 0.4597 0.8500 0.2572
vn 0.9878 -0.1512 -0.0381
vn 0.9884 -0.1483 -0.0328
vn 0.9932 -0.1158 -0.0140
vn 0.9931 -0.1167 -0.0140
vn 0.9925 -0.1218 -0.0071
vn 0.9754 -0.2188 -0.0257
vn 0.9878 -0.1555 -0.0087
vn 0.9876 -0.1558 -0.0192
vn 0.9895 -0.1280 -0.0665
vn 0.9898 -0.1419 0.0095
vn 0.9934 -0.1136 -0.0166
vn 0.9936 -0.1125 -0.0099
vn 0.3514 0.9310 0.0985
vn 0.5977 0.7695 0.2251
vn 0.9967 -0.0812 0.0039
vn 0.9923 -0.1234 -0.0065
vn 0.9927 -0.1178 0.0241
vn 0.9924 -0.1197 0.0278
vn 0.9951 -0.0988 0.0102
vn 0.9844 -0.1557 -0.0814
vn 0.9313 0.3496 0.1027
vn 0.6574 0.7075 0.2594
vn 0.5892 0.7854 0.1899
vn 0.6000 0.7722 0.2092
vn 0.5899 0.7807 0.2064
vn 0.5358 0.7766 0.3315
vn 0.9955 -0.0907 0.0287
vn 0.9961 -0.0777 0.0421
vn 0.9967 -0.0805 0.0079
vn 0.9877 -0.1548 0.0227
vn 0.9947 -0.0998 0.0235
vn 0.9905 -0.1365 0.0163
vn 0.9900 -0.1409 -0.0006
vn 0.6995 0.6768 0.2294
vn 0.7037 0.6498 0.2873
usemtl None
s off
f 1/1/1 3/2/1 2/3/1
f 4/4/2 5/5/2 6/6/2
f 4/4/3 7/7/3 5/5/3
f 9/8/4 1/1/4 8/9/4
f 10/10/5 11/11/5 12/12/5
f 13/13/6 11/11/6 10/10/6
f 2/3/7 8/9/7 1/1/7
f 14/14/8 15/15/8 16/16/8
f 15/15/9 17/17/9 6/6/9
f 18/18/10 19/19/10 20/20/10
f 21/21/11 22/22/11 18/18/11
f 23/23/12 5/5/12 7/7/12
f 24/24/13 2/3/13 25/25/13
f 26/26/14 27/27/14 28/28/14
f 29/29/15 31/30/15 30/31/15
f 32/32/16 2/3/16 33/33/16
f 34/34/17 35/35/17 25/36/17
f 21/21/18 36/37/18 37/38/18
f 38/39/19 39/40/19 9/8/19
f 40/41/20 41/42/20 42/43/20
f 43/44/21 41/42/21 44/45/21
f 43/44/21 42/43/21 41/42/21
f 44/45/22 10/10/22 45/46/22
f 46/47/23 47/48/23 48/49/23
f 49/50/24 51/51/24 50/52/24
f 52/53/25 16/16/25 53/54/25
f 43/44/26 54/55/26 55/56/26
f 56/57/27 49/50/27 6/6/27
f 21/21/28 20/20/28 36/37/28
f 21/21/28 18/18/28 20/20/28
f 36/37/29 57/58/29 37/38/29
f 49/50/30 55/56/30 51/51/30
f 58/59/31 12/12/31 11/11/31
f 48/49/32 9/8/32 59/60/32
f 50/52/33 16/16/33 6/6/33
f 60/61/34 47/48/34 51/51/34
f 60/61/34 51/51/34 55/56/34
f 41/42/35 10/10/35 44/45/35
f 60/61/36 55/56/36 54/55/36
f 15/15/37 6/6/37 16/16/37
f 61/62/38 25/36/38 35/35/38
f 59/60/39 9/8/39 39/40/39
f 62/63/40 16/16/40 52/53/40
f 61/62/41 24/64/41 25/36/41
f 63/65/42 64/66/42 3/2/42
f 50/52/43 6/6/43 49/50/43
f 41/42/44 40/41/44 10/10/44
f 43/44/45 44/45/45 54/55/45
f 65/67/46 13/13/46 66/68/46
f 27/27/47 67/69/47 68/70/47
f 28/28/48 68/70/48 65/67/48
f 28/28/49 27/27/49 68/70/49
f 69/71/50 65/67/50 68/70/50
f 65/67/51 69/71/51 13/13/51
f 48/49/52 59/60/52 46/47/52
f 38/39/53 9/8/53 70/72/53
f 64/66/54 2/3/54 3/2/54
f 39/40/55 38/39/55 71/73/55
f 70/72/56 9/8/56 8/9/56
f 72/74/57 4/4/57 6/6/57
f 62/63/58 73/75/58 16/16/58
f 74/76/59 37/38/59 75/77/59
f 23/23/60 67/69/60 27/27/60
f 19/19/61 50/52/61 51/51/61
f 14/14/62 16/16/62 73/75/62
f 32/32/63 8/9/63 2/3/63
f 60/61/64 54/55/64 44/45/64
f 56/57/65 6/6/65 5/5/65
f 15/15/66 14/14/66 17/17/66
f 23/23/67 7/7/67 67/69/67
f 33/78/68 2/79/68 24/80/68
f 75/77/69 53/54/69 74/76/69
f 76/81/70 29/29/70 77/82/70
f 76/81/71 31/30/71 29/29/71
f 78/83/72 79/84/72 80/85/72
f 81/86/73 82/87/73 83/88/73
f 84/89/74 29/29/74 30/31/74
f 85/90/75 84/89/75 30/31/75
f 86/91/76 88/92/76 87/93/76
f 86/91/77 87/93/77 89/94/77
f 90/95/78 81/86/78 83/88/78
f 81/86/79 90/95/79 91/96/79
f 90/95/80 83/88/80 92/97/80
f 92/97/81 83/88/81 93/98/81
f 77/82/82 94/99/82 95/100/82
f 96/101/83 34/34/83 31/30/83
f 96/101/84 35/35/84 34/34/84
f 34/34/85 30/31/85 31/30/85
f 97/102/86 92/97/86 93/98/86
f 64/66/87 25/25/87 2/3/87
f 34/34/88 25/36/88 64/103/88
f 85/90/89 30/31/89 34/34/89
f 85/90/90 34/34/90 64/103/90
f 9/8/91 45/46/91 1/1/91
f 64/103/92 98/104/92 85/90/92
f 64/66/93 63/65/93 98/105/93
f 23/23/94 26/26/94 42/43/94
f 23/23/95 42/43/95 99/106/95
f 23/23/96 99/106/96 5/5/96
f 23/23/97 27/27/97 26/26/97
f 10/10/98 66/68/98 13/13/98
f 93/98/99 87/93/99 88/92/99
f 93/98/100 83/88/100 82/87/100
f 93/98/101 82/87/101 87/93/101
f 45/46/102 10/10/102 1/1/102
f 10/10/103 12/12/103 3/2/103
f 3/2/104 1/1/104 10/10/104
f 48/49/105 45/46/105 9/8/105
f 48/49/106 47/48/106 60/61/106
f 48/49/107 60/61/107 44/45/107
f 48/49/108 44/45/108 45/46/108
f 46/47/109 59/60/109 100/107/109
f 39/40/110 71/73/110 59/60/110
f 59/60/111 71/73/111 100/107/111
f 91/96/112 80/85/112 81/86/112
f 58/59/113 63/65/113 12/12/113
f 63/65/114 58/59/114 101/108/114
f 63/65/115 101/108/115 89/109/115
f 63/65/116 89/109/116 98/105/116
f 63/65/117 3/2/117 12/12/117
f 94/99/118 79/84/118 78/83/118
f 94/99/119 77/82/119 29/29/119
f 94/99/120 29/29/120 79/84/120
f 99/106/121 56/57/121 5/5/121
f 56/57/122 99/106/122 49/50/122
f 99/106/123 55/56/123 49/50/123
f 99/106/124 43/44/124 55/56/124
f 99/106/125 42/43/125 43/44/125
f 36/37/126 102/110/126 57/58/126
f 46/47/28 36/37/28 20/20/28
f 46/47/127 100/107/127 36/37/127
f 36/37/128 100/107/128 71/73/128
f 36/37/129 71/73/129 102/110/129
f 19/19/130 46/47/130 20/20/130
f 47/48/131 46/47/131 19/19/131
f 47/48/132 19/19/132 51/51/132
f 78/83/133 80/85/133 91/96/133
f 84/89/134 79/84/134 29/29/134
f 66/68/135 10/10/135 40/41/135
f 26/26/136 66/68/136 42/43/136
f 66/68/137 28/28/137 65/67/137
f 26/26/138 28/28/138 66/68/138
f 66/68/139 40/41/139 42/43/139
f 17/17/140 72/74/140 6/6/140
f 86/111/141 89/109/141 101/108/141
f 84/89/142 85/90/142 98/104/142
f 98/104/143 80/85/143 79/84/143
f 84/89/144 98/104/144 79/84/144
f 98/104/145 81/86/145 80/85/145
f 98/104/146 82/87/146 81/86/146
f 74/76/147 22/22/147 37/38/147
f 22/22/148 74/76/148 53/54/148
f 22/22/149 53/54/149 16/16/149
f 21/21/150 37/38/150 22/22/150
f 50/52/151 22/22/151 16/16/151
f 18/18/152 22/22/152 19/19/152
f 19/19/153 22/22/153 50/52/153
f 98/104/154 89/94/154 82/87/154
f 82/87/155 89/94/155 87/93/155
