# Blender v2.79 (sub 0) OBJ File: ''
# www.blender.org
mtllib crack_only_66.mtl
o crack_only_66
v 2.952135 1.963321 -3.242508
v 3.024190 2.357118 -3.510948
v 3.043594 2.361104 -3.004053
v 2.905577 1.794359 -3.357225
v 2.874367 1.396635 -2.734787
v 2.834032 1.356925 -2.205056
v 2.866159 1.516853 -2.470322
v 2.877373 1.571927 -2.995564
v 2.861599 1.361148 -2.970299
v 2.907635 1.755448 -2.697453
v 2.955882 2.053270 -2.644216
v 2.884812 1.782811 -2.378303
v 2.824449 2.028469 -1.736318
v 2.812686 1.927832 -1.829847
v 2.791580 1.960304 -1.555087
v 2.839430 2.051265 -1.809919
v 2.841071 1.910772 -2.015156
v 2.809971 2.157424 -4.665119
v 2.772902 1.949623 -4.493379
v 2.836068 2.145489 -4.433212
v 2.803811 1.935316 -4.262563
v 2.844545 1.887679 -3.980038
v 2.747008 1.771954 -4.344194
v 2.912708 2.396510 -1.604755
v 2.837270 2.142831 -1.467753
v 2.855187 1.154709 -2.763901
v 2.856169 1.162563 -2.664138
v 2.840391 1.125011 -3.129367
v 2.869968 2.129290 -4.210120
v 2.879928 2.073933 -4.037679
v 2.959702 2.347923 -4.052387
v 2.908708 2.104065 -3.909561
v 3.065590 2.610357 -3.723018
v 3.001712 2.395017 -3.796725
v 3.028299 2.531762 -3.902645
v 2.968445 2.262573 -3.765844
v 2.923091 2.006650 -3.685102
v 2.888060 1.568187 -2.761979
v 2.823998 1.999660 -4.242197
v 2.806442 1.469667 -3.728580
v 2.805892 1.400483 -3.628626
v 2.833666 1.618262 -3.656705
v 2.774279 1.320669 -3.758802
v 2.785534 1.234937 -3.607762
v 2.790747 1.831695 -1.786100
v 2.808668 1.850532 -1.898918
v 2.794801 1.733304 -1.912901
v 2.846476 1.811625 -2.098078
v 2.872918 1.869062 -3.797376
v 2.802474 1.649026 -3.911542
v 2.748507 1.459071 -4.014204
v 2.769834 1.734033 -1.738507
v 2.881891 2.289217 -4.425611
v 2.967271 2.427128 -4.170242
v 2.878875 2.210440 -1.781327
v 3.011343 2.459630 -2.332104
v 2.908796 2.016405 -2.330382
v 3.040915 2.700501 -2.024140
v 3.076094 2.729676 -2.265658
v 3.101711 2.692494 -3.517362
v 2.761118 1.624966 -1.826922
v 2.744457 1.592126 -4.154646
v 3.104689 2.735521 -2.820043
v 3.023176 2.679539 -1.898342
v 2.966361 2.577489 -1.539838
v 2.925139 2.522330 -1.311288
v 2.836169 1.403544 -3.318039
vt 0.527795 0.419168
vt 0.786313 0.346929
vt 0.771824 0.497230
vt 0.423710 0.381966
vt 0.154332 0.559301
vt 0.216376 0.639531
vt 0.105093 0.715099
vt 0.271226 0.485060
vt 0.140149 0.488872
vt 0.375195 0.576652
vt 0.560193 0.597825
vt 0.376900 0.671388
vt 0.494487 0.865015
vt 0.442115 0.917234
vt 0.435403 0.835538
vt 0.512983 0.843741
vt 0.435551 0.780646
vt 0.682575 0.000000
vt 0.669686 0.068686
vt 0.545130 0.047035
vt 0.531429 0.115402
vt 0.496693 0.198606
vt 0.428237 0.087997
vt 0.724103 0.910906
vt 0.555386 0.946548
vt 0.005965 0.546463
vt 0.007066 0.576137
vt 0.000000 0.437642
vt 0.655493 0.134761
vt 0.793432 0.185913
vt 0.616485 0.184973
vt 0.633456 0.223662
vt 0.953455 0.288753
vt 0.817485 0.262761
vt 0.907929 0.233929
vt 0.731693 0.269391
vt 0.567433 0.288609
vt 0.261371 0.554243
vt 0.572255 0.122688
vt 0.228248 0.265715
vt 0.319213 0.289722
vt 0.182304 0.294143
vt 0.134850 0.253989
vt 0.078342 0.297369
vt 0.372589 0.846685
vt 0.390529 0.813761
vt 0.318072 0.807537
vt 0.379071 0.754487
vt 0.481892 0.252623
vt 0.343802 0.214516
vt 0.225584 0.180466
vt 0.308826 0.858955
vt 0.762411 0.073749
vt 0.847011 0.152416
vt 0.613523 0.855219
vt 0.520072 0.689697
vt 0.802231 0.697515
vt 0.940618 0.792978
vt 0.971853 0.722280
vt 1.000000 0.351331
vt 0.244795 0.830878
vt 0.311350 0.141080
vt 1.000000 0.558512
vt 0.920913 0.829711
vt 0.838260 0.933629
vt 0.790976 1.000000
vt 0.176052 0.386410
vn 0.9784 -0.2035 -0.0359
vn 0.9726 -0.2231 -0.0662
vn 0.9940 -0.0847 0.0693
vn 0.9780 -0.2063 -0.0309
vn 0.9723 -0.2253 -0.0627
vn 0.9959 -0.0796 -0.0420
vn 0.9805 -0.1748 0.0894
vn 0.9810 -0.1741 0.0851
vn 0.9735 -0.2059 0.0991
vn 0.9652 -0.2294 0.1254
vn 0.9574 -0.2346 0.1683
vn 0.9550 -0.2707 -0.1214
vn 0.9536 -0.2425 -0.1784
vn 0.9629 -0.2586 0.0774
vn 0.9639 -0.2626 0.0445
vn 0.9969 -0.0786 -0.0036
vn 0.9972 -0.0592 -0.0452
vn 0.9966 -0.0749 -0.0343
vn 0.9477 -0.2838 -0.1458
vn 0.9477 -0.2838 -0.1461
vn 0.9628 -0.2554 -0.0881
vn 0.9679 -0.2134 -0.1326
vn 0.9626 -0.2483 -0.1086
vn 0.9575 -0.2663 -0.1106
vn 0.9951 -0.0869 -0.0469
vn 0.9548 -0.2600 -0.1440
vn 0.9563 -0.2545 -0.1438
vn 0.9540 -0.2642 -0.1414
vn 0.9485 -0.2711 -0.1638
vn 0.9627 -0.2202 -0.1573
vn 0.9570 -0.2694 -0.1076
vn 0.9583 -0.2654 -0.1057
vn 0.9583 -0.2641 -0.1088
vn 0.9956 -0.0696 0.0625
vn 0.9959 -0.0558 0.0716
vn 0.9865 -0.1374 -0.0897
vn 0.9749 -0.1855 -0.1230
vn 0.9785 -0.1395 -0.1521
vn 0.9790 -0.1795 0.0964
vn 0.9658 -0.1988 0.1662
vn 0.9780 -0.1650 0.1278
vn 0.9821 -0.1322 0.1339
vn 0.9819 -0.1196 0.1466
vn 0.9946 -0.0487 0.0911
vn 0.9617 -0.2323 -0.1457
vn 0.9670 -0.1702 -0.1898
vn 0.9606 -0.2186 -0.1715
vn 0.9819 -0.1667 0.0893
vn 0.9441 -0.2930 -0.1507
vn 0.9396 -0.3090 -0.1473
vn 0.9659 -0.2230 0.1314
vn 0.9603 -0.2570 0.1088
vn 0.9771 -0.1342 0.1650
vn 0.9654 -0.2248 0.1321
vn 0.9442 -0.2683 0.1912
vn 0.9878 -0.0647 0.1418
vn 0.9702 -0.1385 0.1987
vn 0.9735 -0.2257 -0.0355
vn 0.9680 -0.1279 0.2160
vn 0.9622 -0.0972 0.2544
vn 0.9684 -0.0819 0.2356
vn 0.9708 -0.2259 -0.0803
vn 0.9578 -0.2633 -0.1155
vn 0.9429 -0.2973 -0.1499
vn 0.9536 -0.2427 -0.1784
vn 0.9558 -0.2359 -0.1757
vn 0.9418 -0.2933 -0.1644
vn 0.9950 -0.0878 -0.0469
vn 0.9782 -0.2057 0.0274
vn 0.9921 -0.0970 0.0793
vn 0.9911 -0.1219 0.0530
vn 0.9829 -0.1281 0.1324
vn 0.9675 -0.2234 0.1189
vn 0.9842 -0.1153 -0.1344
vn 0.9666 -0.1721 -0.1897
vn 0.9666 -0.1717 -0.1905
vn 0.9775 -0.1967 0.0758
vn 0.9865 -0.1639 0.0059
vn 0.9787 -0.1912 0.0750
vn 0.9587 -0.2613 0.1123
vn 0.9600 -0.2638 0.0941
vn 0.9592 -0.2584 0.1152
vn 0.9799 -0.1412 0.1409
vn 0.9716 -0.1910 0.1399
vn 0.9475 -0.2956 -0.1218
vn 0.9503 -0.3046 0.0639
vn 0.9554 -0.2819 0.0878
vn 0.9584 -0.2680 0.0987
vn 0.9447 -0.3140 0.0946
vn 0.9686 -0.2439 0.0474
vn 0.9963 -0.0373 -0.0774
vn 0.9888 -0.0732 -0.1302
vn 0.9657 -0.2511 0.0668
vn 0.9835 -0.1780 -0.0327
vn 0.9930 -0.0842 -0.0829
vn 0.9747 -0.1856 -0.1249
vn 0.9865 -0.1333 -0.0949
vn 0.9859 -0.1379 -0.0947
vn 0.9623 -0.2114 -0.1710
vn 0.9618 -0.2321 -0.1454
vn 0.9683 -0.2301 -0.0972
vn 0.9681 -0.2307 -0.0977
vn 0.9592 -0.2317 -0.1620
vn 0.9593 -0.2320 -0.1609
vn 0.9592 -0.2200 -0.1774
vn 0.9586 -0.2129 -0.1891
usemtl None
s off
f 1/1/1 2/2/1 3/3/1
f 1/1/2 4/4/2 2/2/2
f 5/5/3 7/6/3 6/7/3
f 1/1/4 3/3/4 8/8/4
f 1/1/5 8/8/5 4/4/5
f 9/9/6 8/8/6 5/5/6
f 10/10/7 3/3/7 11/11/7
f 10/10/8 11/11/8 12/12/8
f 13/13/9 15/14/9 14/15/9
f 13/13/10 14/15/10 16/16/10
f 14/15/11 17/17/11 16/16/11
f 18/18/12 20/19/12 19/20/12
f 21/21/13 22/22/13 23/23/13
f 13/13/14 24/24/14 15/14/14
f 24/24/15 25/25/15 15/14/15
f 26/26/16 5/5/16 27/27/16
f 28/28/17 9/9/17 5/5/17
f 26/26/18 28/28/18 5/5/18
f 29/29/19 31/30/19 30/31/19
f 32/32/20 30/31/20 31/30/20
f 33/33/21 34/34/21 35/35/21
f 36/36/22 2/2/22 37/37/22
f 34/34/23 33/33/23 2/2/23
f 34/34/24 2/2/24 36/36/24
f 38/38/25 5/5/25 8/8/25
f 21/21/26 23/23/26 19/20/26
f 39/39/27 21/21/27 19/20/27
f 39/39/28 19/20/28 20/19/28
f 29/29/29 20/19/29 31/30/29
f 36/36/30 37/37/30 32/32/30
f 35/35/31 34/34/31 31/30/31
f 34/34/32 36/36/32 32/32/32
f 32/32/33 31/30/33 34/34/33
f 38/38/34 7/6/34 5/5/34
f 27/27/35 5/5/35 6/7/35
f 40/40/36 42/41/36 41/42/36
f 40/40/37 41/42/37 43/43/37
f 41/42/38 44/44/38 43/43/38
f 45/45/39 14/15/39 15/14/39
f 17/17/40 14/15/40 46/46/40
f 45/45/41 46/46/41 14/15/41
f 45/45/42 47/47/42 46/46/42
f 48/48/43 7/6/43 12/12/43
f 48/48/44 6/7/44 7/6/44
f 49/49/45 42/41/45 50/50/45
f 40/40/46 43/43/46 51/51/46
f 50/50/47 22/22/47 49/49/47
f 45/45/48 15/14/48 52/52/48
f 53/53/49 31/30/49 20/19/49
f 54/54/50 31/30/50 53/53/50
f 55/55/51 57/56/51 56/57/51
f 58/58/52 56/57/52 59/59/52
f 17/17/53 12/12/53 57/56/53
f 17/17/54 57/56/54 55/55/54
f 55/55/55 16/16/55 17/17/55
f 17/17/56 48/48/56 12/12/56
f 47/47/57 17/17/57 46/46/57
f 60/60/58 3/3/58 2/2/58
f 17/17/59 47/47/59 48/48/59
f 61/61/60 6/7/60 47/47/60
f 48/48/61 47/47/61 6/7/61
f 60/60/62 2/2/62 33/33/62
f 31/30/63 54/54/63 35/35/63
f 39/39/64 29/29/64 30/31/64
f 21/21/65 39/39/65 22/22/65
f 30/31/66 22/22/66 39/39/66
f 39/39/67 20/19/67 29/29/67
f 10/10/68 38/38/68 8/8/68
f 10/10/69 8/8/69 3/3/69
f 10/10/70 12/12/70 7/6/70
f 38/38/71 10/10/71 7/6/71
f 57/56/72 12/12/72 11/11/72
f 57/56/73 11/11/73 56/57/73
f 40/40/74 50/50/74 42/41/74
f 40/40/75 51/51/75 50/50/75
f 50/50/76 51/51/76 62/62/76
f 63/63/77 56/57/77 3/3/77
f 63/63/78 3/3/78 60/60/78
f 3/3/79 56/57/79 11/11/79
f 58/58/80 55/55/80 56/57/80
f 13/13/81 55/55/81 24/24/81
f 16/16/82 55/55/82 13/13/82
f 52/52/83 47/47/83 45/45/83
f 47/47/84 52/52/84 61/61/84
f 53/53/85 20/19/85 18/18/85
f 64/64/86 65/65/86 24/24/86
f 24/24/87 58/58/87 64/64/87
f 55/55/88 58/58/88 24/24/88
f 65/65/89 66/66/89 24/24/89
f 56/57/90 63/63/90 59/59/90
f 28/28/91 67/67/91 9/9/91
f 67/67/92 28/28/92 44/44/92
f 25/25/93 24/24/93 66/66/93
f 8/8/94 67/67/94 4/4/94
f 67/67/95 8/8/95 9/9/95
f 67/67/96 42/41/96 4/4/96
f 41/42/97 67/67/97 44/44/97
f 41/42/98 42/41/98 67/67/98
f 37/37/99 49/49/99 22/22/99
f 49/49/100 37/37/100 42/41/100
f 37/37/101 4/4/101 42/41/101
f 37/37/102 2/2/102 4/4/102
f 37/37/103 22/22/103 32/32/103
f 30/31/104 32/32/104 22/22/104
f 50/50/105 62/62/105 22/22/105
f 62/62/106 23/23/106 22/22/106
