# Blender v2.79 (sub 0) OBJ File: ''
# www.blender.org
mtllib crack_only_73.mtl
o crack_only_73
v 2.884450 1.685060 -3.338350
v 3.022974 2.355631 -3.512616
v 2.916963 1.977479 -3.663584
v 2.819638 1.518684 -3.655237
v 2.868649 1.339478 -2.725790
v 2.857200 1.311244 -3.014786
v 2.837475 1.125755 -3.128366
v 2.851477 1.156667 -2.749705
v 2.786114 1.230218 -3.586520
v 3.033554 2.496859 -2.487247
v 3.001779 2.581749 -1.920499
v 2.986697 2.437345 -2.179117
v 2.908985 2.019923 -2.340834
v 2.887275 2.005917 -2.201226
v 2.885201 1.789990 -2.376983
v 2.954770 2.053255 -2.648686
v 2.828390 2.024856 -1.736829
v 2.816898 1.927592 -1.827863
v 2.793379 1.957196 -1.556671
v 2.842085 2.046913 -1.808596
v 2.846841 1.897064 -2.051515
v 2.867857 2.077849 -1.920101
v 2.824365 1.999069 -4.245343
v 2.843682 1.887697 -3.980177
v 2.747097 1.749730 -4.323349
v 2.887759 2.037076 -3.937538
v 2.878707 2.070143 -4.034328
v 2.869080 2.221143 -1.627638
v 2.890407 2.219701 -1.842028
v 2.878899 2.220943 -1.718581
v 2.801347 2.160036 -4.663915
v 2.772599 1.939466 -4.484305
v 2.838717 2.137852 -4.433773
v 2.942102 2.552297 -4.447124
v 2.961035 2.347008 -4.057499
v 2.833629 2.131571 -1.472399
v 2.925031 2.156786 -3.881708
v 2.870029 2.135051 -4.203691
v 3.062449 2.595119 -3.737766
v 3.001138 2.400380 -3.804623
v 3.037395 2.545292 -3.843628
v 2.969550 2.268201 -3.767622
v 3.103829 2.702038 -3.349555
v 3.081518 2.746586 -3.870606
v 2.988002 2.699216 -1.372363
v 3.005556 2.762220 -1.252589
v 2.930358 2.547684 -1.306072
v 2.979197 2.650049 -1.483471
v 2.794648 1.829543 -1.783169
v 2.813084 1.848802 -1.898705
v 2.797523 1.731090 -1.911818
v 2.799952 1.640337 -3.916206
v 2.773640 1.731528 -1.739761
v 3.035576 2.669788 -4.160101
v 2.874847 2.403514 -4.665525
v 2.828338 2.349435 -4.761616
v 3.103266 2.784520 -3.723786
v 3.018963 2.819423 -1.461679
v 2.969396 2.579342 -1.614518
v 3.084346 2.670846 -2.899020
v 3.129531 2.938243 -2.947918
v 3.092991 2.966869 -1.864875
v 3.107945 3.014207 -2.314777
v 2.830048 1.357345 -2.204975
v 2.885855 1.584759 -2.842621
v 2.765459 1.624242 -1.826657
v 2.901126 1.696104 -2.742658
v 2.914412 2.393938 -1.613297
v 2.981680 2.103107 -2.956098
v 3.128542 2.876094 -3.288546
v 2.772236 1.322262 -3.760001
v 2.749157 1.458977 -4.014660
vt 0.342574 0.365056
vt 0.533743 0.288984
vt 0.732566 0.350636
vt 0.277436 0.267919
vt 0.096995 0.518814
vt 0.018852 0.395890
vt 0.108823 0.436773
vt 0.000000 0.503080
vt 0.113267 0.272683
vt 0.709018 0.643367
vt 0.695325 0.805062
vt 0.641908 0.725807
vt 0.426464 0.659582
vt 0.402904 0.697557
vt 0.304808 0.638075
vt 0.479480 0.575937
vt 0.360960 0.827214
vt 0.303348 0.873732
vt 0.316720 0.796992
vt 0.381274 0.808443
vt 0.325701 0.733529
vt 0.411576 0.779168
vt 0.591347 0.126830
vt 0.508396 0.195548
vt 0.457307 0.092096
vt 0.588845 0.215190
vt 0.614854 0.189716
vt 0.459514 0.867641
vt 0.482094 0.808071
vt 0.469400 0.842401
vt 0.715244 0.017724
vt 0.685275 0.081219
vt 0.576970 0.056742
vt 0.919147 0.098808
vt 0.773999 0.197648
vt 0.392611 0.906146
vt 0.651428 0.236991
vt 0.664940 0.145566
vt 0.886586 0.299969
vt 0.782365 0.271176
vt 0.867499 0.267758
vt 0.704743 0.274707
vt 0.910420 0.413826
vt 0.982390 0.270519
vt 0.702861 0.963360
vt 0.726748 1.000000
vt 0.609089 0.973813
vt 0.686500 0.929908
vt 0.257594 0.804431
vt 0.281229 0.773381
vt 0.218035 0.763835
vt 0.365411 0.200865
vt 0.198754 0.811528
vt 0.964449 0.185582
vt 0.828731 0.000000
vt 0.853494 0.029943
vt 0.990770 0.313529
vt 0.779136 0.944661
vt 0.660497 0.889842
vt 0.847647 0.537644
vt 1.000000 0.537516
vt 0.976249 0.717399
vt 0.905459 0.840309
vt 0.051305 0.664377
vt 0.240985 0.498357
vt 0.149152 0.782011
vt 0.292288 0.531795
vt 0.555336 0.880548
vt 0.539087 0.492997
vt 1.000000 0.439561
vt 0.177609 0.228641
vt 0.272602 0.164038
vn 0.9676 -0.2280 -0.1083
vn 0.9739 -0.2082 -0.0899
vn 0.9957 -0.0869 -0.0310
vn 0.9955 -0.0897 -0.0295
vn 0.9924 -0.0328 -0.1187
vn 0.9587 -0.2684 0.0940
vn 0.9823 -0.1237 0.1404
vn 0.9835 -0.1226 0.1330
vn 0.9651 -0.2289 0.1271
vn 0.9689 -0.2160 0.1207
vn 0.9696 -0.2211 0.1047
vn 0.9706 -0.2155 0.1077
vn 0.9679 -0.2230 0.1161
vn 0.9603 -0.2285 0.1598
vn 0.9654 -0.2289 0.1252
vn 0.9549 -0.2423 -0.1713
vn 0.9587 -0.2389 -0.1542
vn 0.9573 -0.2341 -0.1695
vn 0.9634 -0.2514 0.0928
vn 0.9587 -0.2380 0.1555
vn 0.9607 -0.2572 0.1043
vn 0.9634 -0.2516 0.0923
vn 0.9461 -0.2696 -0.1796
vn 0.9655 -0.2252 0.1304
vn 0.9540 -0.2436 -0.1747
vn 0.9637 -0.2571 0.0717
vn 0.9616 -0.2284 -0.1522
vn 0.9423 -0.2937 -0.1608
vn 0.9609 -0.2219 -0.1657
vn 0.9485 -0.2923 -0.1220
vn 0.9584 -0.2670 -0.1011
vn 0.9671 -0.2204 -0.1270
vn 0.9774 -0.2058 -0.0475
vn 0.9582 -0.2632 -0.1120
vn 0.9590 -0.2604 -0.1116
vn 0.9570 -0.2513 -0.1446
vn 0.9406 -0.3129 -0.1318
vn 0.9592 -0.2658 -0.0960
vn 0.9578 -0.2619 -0.1180
vn 0.9583 -0.2693 -0.0951
vn 0.9644 -0.2291 -0.1319
vn 0.9661 -0.2280 -0.1213
vn 0.9397 -0.3396 0.0409
vn 0.9422 -0.3276 0.0703
vn 0.9791 -0.1748 0.1040
vn 0.9701 -0.1866 0.1553
vn 0.9781 -0.1632 0.1289
vn 0.9806 -0.1444 0.1324
vn 0.9635 -0.2075 -0.1694
vn 0.9811 -0.1663 0.0992
vn 0.9635 -0.2124 -0.1628
vn 0.9590 -0.2168 -0.1827
vn 0.9410 -0.2785 -0.1925
vn 0.9166 -0.2786 -0.2868
vn 0.9643 -0.2502 -0.0867
vn 0.9748 -0.2033 -0.0919
vn 0.9705 -0.2348 0.0541
vn 0.9725 -0.2316 0.0254
vn 0.9861 -0.1565 0.0555
vn 0.9728 -0.2315 0.0080
vn 0.9503 -0.2980 0.0897
vn 0.9729 -0.1989 0.1181
vn 0.9608 -0.2273 0.1590
vn 0.9768 -0.1408 0.1614
vn 0.9877 -0.0704 0.1396
vn 0.9746 -0.1476 0.1687
vn 0.9966 -0.0342 0.0750
vn 0.9688 -0.0952 0.2289
vn 0.9663 -0.1014 0.2365
vn 0.9858 -0.1593 0.0527
vn 0.9825 -0.1680 0.0803
vn 0.9865 -0.1612 0.0288
vn 0.9927 -0.0992 0.0687
vn 0.9570 -0.2734 0.0968
vn 0.9542 -0.2823 0.0988
vn 0.9566 -0.2713 0.1062
vn 0.9598 -0.2605 0.1042
vn 0.9628 -0.2538 0.0923
vn 0.9634 -0.2586 0.0708
vn 0.9413 -0.2853 -0.1804
vn 0.9611 -0.2439 -0.1298
vn 0.9500 -0.2722 -0.1530
vn 0.9577 -0.2337 -0.1679
vn 0.9511 -0.2787 -0.1328
vn 0.9498 -0.2821 -0.1354
vn 0.9959 -0.0847 -0.0312
vn 0.9663 -0.2417 0.0890
vn 0.9600 -0.2616 0.0995
vn 0.9772 -0.2071 -0.0471
vn 0.9823 -0.1821 0.0442
vn 0.9795 -0.1937 0.0543
vn 0.9865 -0.1609 0.0315
vn 0.9886 -0.1489 0.0243
vn 0.9761 -0.2158 -0.0255
vn 0.9831 -0.1808 0.0300
vn 0.9780 -0.2077 -0.0217
vn 0.9751 -0.1463 -0.1669
vn 0.9670 -0.2548 -0.0077
vn 0.9793 -0.1495 0.1363
vn 0.9735 -0.1841 0.1356
vn 0.9932 -0.1131 -0.0257
vn 0.9783 -0.2060 -0.0236
vn 0.9697 -0.1851 -0.1594
vn 0.9688 -0.1772 -0.1734
vn 0.9758 -0.1511 -0.1582
vn 0.9816 -0.1439 -0.1252
vn 0.9956 -0.0909 -0.0212
vn 0.9824 -0.1580 -0.0998
vn 0.9548 -0.2826 0.0918
vn 0.9850 -0.1520 0.0819
vn 0.9775 -0.2042 0.0525
vn 0.9917 -0.1032 0.0770
vn 0.9638 -0.2551 0.0776
vn 0.9910 -0.1301 -0.0302
usemtl None
s off
f 1/1/1 3/2/1 2/3/1
f 3/2/2 1/1/2 4/4/2
f 5/5/3 7/6/3 6/7/3
f 5/5/4 8/8/4 7/6/4
f 6/7/5 7/6/5 9/9/5
f 10/10/6 11/11/6 12/12/6
f 13/13/7 14/14/7 15/15/7
f 13/13/8 15/15/8 16/16/8
f 14/14/9 13/13/9 12/12/9
f 13/13/10 16/16/10 10/10/10
f 13/13/11 10/10/11 12/12/11
f 17/17/12 19/18/12 18/19/12
f 17/17/13 18/19/13 20/20/13
f 18/19/14 21/21/14 20/20/14
f 14/14/15 12/12/15 22/22/15
f 23/23/16 24/24/16 25/25/16
f 26/26/17 3/2/17 24/24/17
f 27/27/18 26/26/18 24/24/18
f 17/17/19 28/28/19 19/18/19
f 20/20/20 22/22/20 29/29/20
f 17/17/21 30/30/21 28/28/21
f 20/20/21 30/30/21 17/17/21
f 30/30/22 20/20/22 29/29/22
f 31/31/23 33/32/23 32/33/23
f 29/29/24 22/22/24 12/12/24
f 33/32/25 34/34/25 35/35/25
f 28/28/26 36/36/26 19/18/26
f 26/26/27 37/37/27 3/2/27
f 38/38/28 35/35/28 27/27/28
f 27/27/29 37/37/29 26/26/29
f 37/37/30 27/27/30 35/35/30
f 39/39/31 40/40/31 41/41/31
f 42/42/32 2/3/32 3/2/32
f 43/43/33 2/3/33 39/39/33
f 40/40/34 39/39/34 2/3/34
f 40/40/35 2/3/35 42/42/35
f 23/23/36 25/25/36 32/33/36
f 38/38/37 33/32/37 35/35/37
f 42/42/27 3/2/27 37/37/27
f 41/41/38 40/40/38 35/35/38
f 40/40/39 42/42/39 37/37/39
f 37/37/40 35/35/40 40/40/40
f 44/44/41 41/41/41 35/35/41
f 44/44/42 39/39/42 41/41/42
f 45/45/43 46/46/43 47/47/43
f 45/45/44 47/47/44 48/48/44
f 49/49/45 18/19/45 19/18/45
f 21/21/46 18/19/46 50/50/46
f 49/49/47 50/50/47 18/19/47
f 49/49/48 51/51/48 50/50/48
f 52/52/49 3/2/49 4/4/49
f 49/49/50 19/18/50 53/53/50
f 52/52/51 24/24/51 3/2/51
f 52/52/52 25/25/52 24/24/52
f 54/54/53 35/35/53 34/34/53
f 31/31/54 56/55/54 55/56/54
f 54/54/55 44/44/55 35/35/55
f 57/57/56 39/39/56 44/44/56
f 58/58/57 48/48/57 59/59/57
f 58/58/58 45/45/58 48/48/58
f 60/60/59 61/61/59 10/10/59
f 11/11/60 63/62/60 62/63/60
f 59/59/61 48/48/61 47/47/61
f 21/21/62 14/14/62 22/22/62
f 22/22/63 20/20/63 21/21/63
f 21/21/64 15/15/64 14/14/64
f 21/21/65 64/64/65 15/15/65
f 51/51/66 21/21/66 50/50/66
f 5/5/67 65/65/67 64/64/67
f 21/21/68 51/51/68 64/64/68
f 66/66/69 64/64/69 51/51/69
f 61/61/70 63/62/70 10/10/70
f 10/10/71 63/62/71 11/11/71
f 65/65/72 67/67/72 64/64/72
f 67/67/73 15/15/73 64/64/73
f 29/29/74 12/12/74 11/11/74
f 68/68/75 11/11/75 59/59/75
f 29/29/76 11/11/76 68/68/76
f 68/68/77 28/28/77 30/30/77
f 30/30/78 29/29/78 68/68/78
f 68/68/79 36/36/79 28/28/79
f 55/56/80 33/32/80 31/31/80
f 55/56/81 34/34/81 33/32/81
f 23/23/82 38/38/82 27/27/82
f 27/27/83 24/24/83 23/23/83
f 23/23/84 33/32/84 38/38/84
f 23/23/85 32/33/85 33/32/85
f 65/65/86 5/5/86 6/7/86
f 62/63/87 58/58/87 11/11/87
f 58/58/88 59/59/88 11/11/88
f 57/57/89 43/43/89 39/39/89
f 60/60/90 10/10/90 69/69/90
f 69/69/91 10/10/91 16/16/91
f 61/61/92 60/60/92 43/43/92
f 43/43/93 70/70/93 61/61/93
f 43/43/94 69/69/94 2/3/94
f 60/60/95 69/69/95 43/43/95
f 1/1/96 2/3/96 69/69/96
f 4/4/97 71/71/97 72/72/97
f 58/58/98 46/46/98 45/45/98
f 53/53/99 51/51/99 49/49/99
f 51/51/100 53/53/100 66/66/100
f 65/65/101 1/1/101 67/67/101
f 67/67/102 1/1/102 69/69/102
f 4/4/103 72/72/103 52/52/103
f 72/72/104 25/25/104 52/52/104
f 4/4/105 9/9/105 71/71/105
f 9/9/106 4/4/106 1/1/106
f 1/1/107 65/65/107 6/7/107
f 9/9/108 1/1/108 6/7/108
f 59/59/109 47/47/109 68/68/109
f 69/69/110 15/15/110 67/67/110
f 69/69/111 16/16/111 15/15/111
f 5/5/112 64/64/112 8/8/112
f 36/36/113 68/68/113 47/47/113
f 70/70/114 43/43/114 57/57/114
