# Blender v2.79 (sub 0) OBJ File: ''
# www.blender.org
mtllib crack_only_125.mtl
o crack_only_125
v 2.812452 1.402196 -3.311199
v 2.766495 1.249017 -3.617520
v 2.883116 2.069769 -3.752596
v 2.947952 2.366816 -2.154073
v 3.002421 2.519566 -2.490886
v 2.998806 2.686994 -1.925592
v 3.074284 2.936604 -2.520617
v 3.097590 3.811801 -4.554815
v 3.125459 3.829406 -4.236602
v 3.095709 3.563331 -4.426584
v 3.095720 3.432170 -4.125710
v 3.054400 3.243265 -4.405234
v 3.208151 4.593138 -1.718087
v 3.217737 4.539619 -1.344836
v 3.203504 4.153245 -1.683914
v 3.062333 3.599917 -4.752662
v 3.130118 4.109275 -4.379926
v 3.202159 4.275593 -2.343962
v 3.217185 4.575294 -2.260899
v 3.203027 4.197098 -2.050282
v 2.864723 1.627406 -2.770182
v 2.812260 1.172759 -2.656551
v 2.808419 1.359621 -2.204539
v 3.136473 3.356963 -2.812287
v 3.174209 3.758059 -2.296673
v 3.193655 3.955031 -2.693905
v 2.878348 2.070965 -1.922105
v 3.152843 3.845192 -3.855476
v 3.174693 3.802287 -2.028588
v 2.811513 1.162079 -2.790619
v 2.748771 1.459033 -4.014389
v 2.755342 1.765499 -4.344522
v 2.822900 1.680793 -1.941767
v 2.804227 1.617772 -1.824287
v 2.817271 1.946818 -1.560212
v 3.103220 3.364375 -1.495485
v 3.031823 2.969800 -1.406093
v 3.084614 3.207686 -1.751145
v 2.801802 1.139951 -3.150366
v 3.098928 4.114356 -4.663325
v 3.095590 4.334904 -4.575154
v 3.155802 4.254076 -4.099160
v 3.074199 4.103500 -4.855368
v 3.176689 3.718157 -2.946916
v 3.183072 3.786338 -3.080785
v 3.182715 3.902705 -3.328579
v 3.166742 3.581908 -3.268119
v 3.181358 3.958760 -3.455507
v 3.164547 3.790204 -3.576807
v 3.134839 3.538697 -3.750113
v 3.195524 4.146626 -3.061205
v 3.186596 4.313375 -3.747416
v 3.223165 4.489032 -2.754774
v 3.033086 3.197191 -4.680445
v 3.069246 3.713413 -5.009758
v 3.195705 4.052878 -1.316136
v 3.110044 3.261961 -2.100501
v 3.053913 3.351825 -4.875476
v 3.223088 4.874728 -1.389126
v 3.217742 4.868799 -1.507921
v 3.222517 4.762392 -2.113108
v 3.217767 4.701056 -2.320063
v 3.118614 4.374599 -4.390585
v 3.141699 4.429813 -4.238661
v 3.202018 4.637744 -2.543113
v 3.182046 4.488443 -3.858622
v 3.203198 4.592330 -3.281751
v 3.041434 3.146287 -4.874820
v 3.063593 3.231067 -5.076159
v 3.032045 2.988257 -3.981935
v 2.957572 2.766689 -4.573803
v 2.875197 2.539734 -4.882779
v 3.090075 3.223440 -3.721379
v 3.045680 2.811985 -3.217351
v 2.943521 2.145872 -3.052697
v 3.092984 3.346978 -1.265403
v 2.982298 2.688791 -1.259853
v 2.881419 1.975659 -2.235368
v 3.142497 3.638533 -1.286448
v 3.132057 3.487691 -1.738058
v 3.065677 4.270976 -4.789971
v 3.218100 4.884022 -1.677458
v 2.796863 2.132605 -4.642772
v 3.173509 3.827585 -1.554585
v 2.873683 2.303326 -1.372945
vt 0.097203 0.359681
vt 0.068533 0.275568
vt 0.308158 0.279126
vt 0.312426 0.694200
vt 0.373645 0.616912
vt 0.391872 0.766226
vt 0.493789 0.628600
vt 0.841846 0.156958
vt 0.831492 0.237878
vt 0.765821 0.178109
vt 0.713957 0.247823
vt 0.674070 0.168894
vt 0.920403 0.904785
vt 0.886873 0.996201
vt 0.795498 0.893803
vt 0.791579 0.097569
vt 0.917138 0.214356
vt 0.862973 0.733515
vt 0.943036 0.767802
vt 0.826229 0.803768
vt 0.134360 0.505967
vt 0.029370 0.635583
vt 0.000000 0.513848
vt 0.627805 0.574589
vt 0.790714 0.631361
vt 0.715044 0.722171
vt 0.216045 0.738682
vt 0.817442 0.334507
vt 0.713909 0.791441
vt 0.003753 0.479710
vt 0.146808 0.185093
vt 0.249368 0.115870
vt 0.106361 0.715933
vt 0.161380 0.823476
vt 0.082291 0.742462
vt 0.562551 0.905201
vt 0.445695 0.909492
vt 0.531099 0.833898
vt 0.015438 0.388326
vt 0.931991 0.143154
vt 0.989148 0.175045
vt 0.944194 0.291499
vt 0.937957 0.094237
vt 0.736744 0.557179
vt 0.762744 0.526654
vt 0.714554 0.470406
vt 0.807783 0.469606
vt 0.829828 0.440215
vt 0.788330 0.402132
vt 0.725894 0.347196
vt 0.862886 0.547669
vt 0.943893 0.382714
vt 0.943978 0.640040
vt 0.674473 0.097566
vt 0.836485 0.038124
vt 0.748658 0.981610
vt 0.564603 0.748829
vt 0.728140 0.055653
vt 0.982996 1.000000
vt 0.987181 0.969865
vt 0.981216 0.758534
vt 0.988068 0.813254
vt 0.991579 0.223350
vt 1.000000 0.264148
vt 0.974320 0.699586
vt 0.998348 0.362522
vt 0.998900 0.512146
vt 0.670266 0.046585
vt 0.704748 0.000000
vt 0.580770 0.263647
vt 0.546583 0.104556
vt 0.496404 0.016175
vt 0.635020 0.340018
vt 0.493277 0.447898
vt 0.295817 0.458757
vt 0.545798 0.962100
vt 0.358344 0.933291
vt 0.205268 0.655836
vt 0.629785 0.970199
vt 0.610076 0.850035
vt 0.981273 0.118009
vt 1.000000 0.927982
vt 0.368249 0.057658
vt 0.697048 0.911551
vt 0.253221 0.886817
vn 0.9858 -0.1519 -0.0719
vn 0.9771 -0.2024 0.0662
vn 0.9846 -0.1657 0.0554
vn 0.9951 -0.0511 -0.0843
vn 0.9896 -0.1316 -0.0574
vn 0.9995 -0.0127 -0.0275
vn 0.9920 -0.0636 -0.1087
vn 0.9947 -0.0595 -0.0838
vn 0.9988 -0.0459 -0.0152
vn 0.9935 -0.1020 0.0506
vn 0.9954 -0.0955 0.0014
vn 0.9802 -0.1914 0.0500
vn 0.9934 -0.0932 -0.0675
vn 0.9995 -0.0276 0.0175
vn 0.9973 -0.0721 -0.0099
vn 0.9935 -0.1138 0.0035
vn 0.9787 -0.1600 -0.1290
vn 0.9887 -0.1156 0.0952
vn 0.9848 -0.1707 0.0330
vn 0.9901 -0.1005 -0.0983
vn 0.9884 -0.1203 0.0926
vn 0.9930 -0.0439 -0.1101
vn 0.9924 0.0583 -0.1082
vn 0.9966 -0.0501 -0.0654
vn 0.9910 -0.0492 -0.1248
vn 0.9971 -0.0728 -0.0224
vn 0.9999 -0.0108 -0.0026
vn 0.9946 -0.1005 0.0274
vn 0.9986 -0.0533 0.0070
vn 0.9981 -0.0548 -0.0272
vn 0.9984 -0.0518 0.0232
vn 0.9967 -0.0607 -0.0538
vn 0.9953 -0.0781 -0.0572
vn 0.9932 -0.0856 -0.0792
vn 0.9994 -0.0275 -0.0228
vn 0.9968 -0.0791 0.0072
vn 0.9993 -0.0336 -0.0172
vn 0.9957 -0.0849 -0.0370
vn 0.9993 -0.0339 -0.0126
vn 0.9993 -0.0318 -0.0207
vn 0.9968 -0.0593 -0.0542
vn 0.9910 -0.0487 -0.1244
vn 0.9983 -0.0525 0.0238
vn 0.9895 -0.0919 -0.1116
vn 0.9996 -0.0199 0.0181
vn 0.9955 -0.0537 -0.0781
vn 0.9964 -0.0487 -0.0696
vn 0.9990 -0.0447 0.0090
vn 0.9925 -0.1201 0.0208
vn 0.9953 -0.0769 -0.0590
vn 0.9964 -0.0621 0.0572
vn 0.9994 -0.0197 -0.0285
vn 0.9990 -0.0005 -0.0449
vn 0.9997 -0.0135 -0.0189
vn 0.9989 -0.0427 0.0180
vn 0.9906 0.0377 -0.1317
vn 0.9860 0.0362 -0.1630
vn 0.9976 -0.0333 -0.0610
vn 0.9993 0.0024 -0.0371
vn 0.9946 -0.0601 0.0842
vn 0.9871 -0.1549 -0.0412
vn 0.9627 -0.2630 -0.0635
vn 0.9644 -0.2643 -0.0051
vn 0.9866 -0.1579 -0.0420
vn 0.9853 -0.1705 -0.0100
vn 0.9824 -0.1776 -0.0585
vn 0.9836 -0.1673 -0.0667
vn 0.9833 -0.1746 0.0515
vn 0.9960 0.0095 -0.0888
vn 0.9943 -0.0375 -0.0998
vn 0.9956 0.0054 -0.0939
vn 0.9839 -0.1641 -0.0710
vn 0.9880 -0.1451 -0.0524
vn 0.9874 -0.1458 -0.0615
vn 0.9878 -0.1550 -0.0128
vn 0.9909 -0.1334 0.0190
vn 0.9848 -0.1712 0.0309
vn 0.9861 -0.1657 0.0155
vn 0.9884 -0.1522 -0.0024
vn 0.9994 -0.0269 -0.0195
vn 0.9923 -0.1154 0.0442
vn 0.9808 -0.1843 -0.0646
vn 0.9904 -0.1318 -0.0408
vn 0.9884 -0.1517 -0.0027
vn 0.9949 -0.0791 -0.0632
vn 0.9815 -0.1803 0.0645
vn 0.9803 -0.1825 0.0758
vn 0.9803 -0.1780 0.0853
vn 0.9902 -0.1074 0.0895
vn 0.9900 -0.1131 0.0837
vn 0.9679 -0.2377 0.0818
vn 0.9966 0.0398 0.0716
vn 0.9976 -0.0331 -0.0609
vn 0.9858 -0.1651 0.0314
vn 0.9852 -0.1684 0.0315
vn 0.9846 -0.1689 0.0454
vn 0.9928 -0.1182 0.0177
vn 0.9924 -0.1221 0.0158
vn 0.9839 0.0791 -0.1605
vn 0.9859 0.1020 -0.1327
vn 0.9978 -0.0564 -0.0356
vn 0.9967 -0.0635 -0.0499
vn 0.9877 -0.1561 -0.0114
vn 0.9943 -0.1055 0.0140
vn 0.9965 -0.0840 0.0048
vn 0.9980 -0.0580 -0.0252
vn 0.9982 -0.0398 -0.0456
vn 0.9787 -0.1602 -0.1285
vn 0.9934 -0.1127 -0.0199
vn 0.9994 -0.0341 -0.0009
vn 0.9991 -0.0370 0.0205
vn 0.9919 -0.0817 0.0970
vn 0.9997 -0.0145 0.0205
vn 0.9821 -0.1796 -0.0563
vn 0.9680 -0.2361 -0.0846
vn 0.9956 -0.0934 -0.0044
vn 0.9917 -0.1255 0.0262
vn 0.9741 -0.1982 -0.1084
vn 0.9831 -0.1738 -0.0576
vn 0.9830 -0.1740 -0.0585
vn 0.9662 -0.2329 -0.1101
vn 0.9898 -0.1314 -0.0547
vn 0.9965 -0.0603 0.0586
vn 0.9820 -0.1835 -0.0453
vn 0.9849 -0.1524 0.0822
vn 0.9888 -0.1488 0.0094
vn 0.9920 -0.1259 0.0092
vn 0.9885 -0.1444 0.0441
vn 0.9960 -0.0889 0.0072
vn 0.9833 -0.1768 0.0441
vn 0.9603 -0.2778 0.0246
vn 0.9845 -0.1728 0.0315
vn 0.9867 -0.1609 0.0249
vn 0.9766 -0.1904 0.0995
vn 0.9766 -0.1983 0.0834
usemtl None
s off
f 1/1/1 2/2/1 3/3/1
f 4/4/2 5/5/2 6/6/2
f 7/7/3 6/6/3 5/5/3
f 8/8/4 9/9/4 10/10/4
f 11/11/5 12/12/5 10/10/5
f 13/13/6 14/14/6 15/15/6
f 8/8/7 10/10/7 16/16/7
f 9/9/8 8/8/8 17/17/8
f 18/18/9 19/19/9 20/20/9
f 21/21/10 23/22/10 22/23/10
f 24/24/11 26/25/11 25/26/11
f 27/27/12 4/4/12 6/6/12
f 9/9/13 28/28/13 11/11/13
f 19/19/14 13/13/14 20/20/14
f 20/20/15 15/15/15 29/29/15
f 21/21/16 22/23/16 30/30/16
f 31/31/17 32/32/17 3/3/17
f 33/33/18 35/34/18 34/35/18
f 36/36/19 37/37/19 38/38/19
f 1/1/20 39/39/20 2/2/20
f 34/35/21 23/22/21 33/33/21
f 40/40/22 17/17/22 8/8/22
f 40/40/23 41/41/23 17/17/23
f 42/42/24 9/9/24 17/17/24
f 40/40/25 8/8/25 43/43/25
f 20/20/26 29/29/26 18/18/26
f 13/13/27 15/15/27 20/20/27
f 44/44/28 26/25/28 24/24/28
f 25/26/29 18/18/29 29/29/29
f 45/45/30 47/46/30 46/47/30
f 25/26/31 26/25/31 18/18/31
f 48/48/32 49/49/32 28/28/32
f 50/50/33 28/28/33 49/49/33
f 50/50/34 11/11/34 28/28/34
f 46/47/35 48/48/35 51/51/35
f 44/44/36 45/45/36 26/25/36
f 46/47/37 51/51/37 45/45/37
f 10/10/38 9/9/38 11/11/38
f 45/45/39 51/51/39 26/25/39
f 48/48/40 52/52/40 51/51/40
f 48/48/41 28/28/41 52/52/41
f 8/8/42 16/16/42 43/43/42
f 53/53/43 18/18/43 26/25/43
f 54/54/44 16/16/44 10/10/44
f 55/55/45 43/43/45 16/16/45
f 42/42/46 52/52/46 28/28/46
f 42/42/47 28/28/47 9/9/47
f 56/56/48 15/15/48 14/14/48
f 57/57/49 24/24/49 25/26/49
f 49/49/50 47/46/50 50/50/50
f 54/54/51 58/58/51 16/16/51
f 59/59/52 14/14/52 13/13/52
f 59/59/53 13/13/53 60/60/53
f 19/19/54 62/61/54 61/62/54
f 61/62/55 13/13/55 19/19/55
f 63/63/56 17/17/56 41/41/56
f 63/63/57 64/64/57 17/17/57
f 19/19/58 65/65/58 62/61/58
f 66/66/59 67/67/59 52/52/59
f 68/68/60 69/69/60 58/58/60
f 70/70/61 12/12/61 11/11/61
f 71/71/62 72/72/62 68/68/62
f 69/69/63 68/68/63 72/72/63
f 73/73/64 47/46/64 74/74/64
f 7/7/65 5/5/65 74/74/65
f 74/74/66 70/70/66 73/73/66
f 75/75/67 3/3/67 74/74/67
f 7/7/68 57/57/68 6/6/68
f 64/64/69 52/52/69 42/42/69
f 66/66/70 52/52/70 64/64/70
f 42/42/71 17/17/71 64/64/71
f 70/70/72 11/11/72 73/73/72
f 73/73/73 50/50/73 47/46/73
f 50/50/74 73/73/74 11/11/74
f 7/7/75 74/74/75 24/24/75
f 57/57/76 7/7/76 24/24/76
f 36/36/77 76/76/77 37/37/77
f 37/37/78 76/76/78 77/77/78
f 5/5/79 75/75/79 74/74/79
f 67/67/80 51/51/80 52/52/80
f 21/21/81 78/78/81 23/22/81
f 75/75/82 21/21/82 3/3/82
f 1/1/83 3/3/83 21/21/83
f 5/5/84 21/21/84 75/75/84
f 39/39/85 1/1/85 21/21/85
f 27/27/86 78/78/86 4/4/86
f 4/4/87 78/78/87 5/5/87
f 78/78/88 21/21/88 5/5/88
f 33/33/89 78/78/89 35/34/89
f 78/78/90 33/33/90 23/22/90
f 27/27/91 35/34/91 78/78/91
f 65/65/92 18/18/92 53/53/92
f 65/65/93 19/19/93 18/18/93
f 76/76/94 36/36/94 79/79/94
f 38/38/95 80/80/95 36/36/95
f 57/57/96 80/80/96 38/38/96
f 80/80/97 25/26/97 29/29/97
f 57/57/98 25/26/98 80/80/98
f 81/81/99 41/41/99 40/40/99
f 81/81/100 40/40/100 43/43/100
f 47/46/101 48/48/101 46/47/101
f 47/46/102 49/49/102 48/48/102
f 24/24/103 74/74/103 47/46/103
f 47/46/104 44/44/104 24/24/104
f 47/46/105 45/45/105 44/44/105
f 53/53/106 26/25/106 51/51/106
f 53/53/107 51/51/107 67/67/107
f 2/2/108 31/31/108 3/3/108
f 21/21/109 30/30/109 39/39/109
f 60/60/110 13/13/110 82/82/110
f 61/62/111 82/82/111 13/13/111
f 16/16/112 58/58/112 69/69/112
f 16/16/113 69/69/113 55/55/113
f 71/71/114 12/12/114 70/70/114
f 71/71/115 83/83/115 72/72/115
f 56/56/116 84/84/116 15/15/116
f 84/84/117 56/56/117 79/79/117
f 3/3/118 32/32/118 83/83/118
f 74/74/119 3/3/119 70/70/119
f 70/70/120 3/3/120 71/71/120
f 3/3/121 83/83/121 71/71/121
f 54/54/122 10/10/122 12/12/122
f 68/68/123 58/58/123 54/54/123
f 71/71/124 54/54/124 12/12/124
f 68/68/125 54/54/125 71/71/125
f 84/84/126 79/79/126 36/36/126
f 84/84/127 80/80/127 29/29/127
f 84/84/128 36/36/128 80/80/128
f 84/84/129 29/29/129 15/15/129
f 57/57/130 38/38/130 6/6/130
f 6/6/131 77/77/131 85/85/131
f 37/37/132 6/6/132 38/38/132
f 37/37/133 77/77/133 6/6/133
f 27/27/134 6/6/134 35/34/134
f 6/6/135 85/85/135 35/34/135
