# Blender v2.79 (sub 0) OBJ File: ''
# www.blender.org
mtllib crack_only_56.mtl
o crack_only_56
v 2.841410 1.356149 -2.205205
v 2.871792 1.478755 -2.497468
v 2.869593 1.244394 -2.466676
v 2.875293 1.407238 -2.729565
v 2.862685 1.370431 -2.966492
v 2.878649 1.581111 -2.917480
v 2.787935 1.234625 -3.609278
v 2.835973 1.645356 -3.667464
v 2.766658 1.357257 -3.828390
v 2.750633 1.488376 -4.048664
v 2.910989 2.068504 -2.348102
v 2.886725 2.066944 -2.193096
v 2.879954 1.831227 -2.373710
v 2.833932 1.634842 -2.153889
v 2.841709 1.867879 -2.075724
v 2.819353 1.539547 -2.107321
v 2.816978 1.703291 -2.037998
v 2.740653 1.658422 -4.215428
v 2.815557 1.743014 -3.981008
v 2.798849 1.494753 -2.015436
v 2.748367 1.647427 -1.806576
v 2.812840 2.108879 -1.701163
v 2.832616 2.135235 -1.803662
v 2.798514 1.976870 -1.819544
v 2.869098 1.159933 -2.663918
v 2.848213 1.123016 -3.132052
v 2.971001 2.350312 -2.189417
v 2.929234 2.030952 -3.798189
v 2.926059 1.880347 -3.456708
v 3.031197 2.288382 -3.541961
v 2.977497 2.001187 -3.245360
v 2.936502 1.966390 -2.644845
v 3.020739 2.385945 -2.557205
v 3.064318 2.391716 -3.131937
v 2.778833 1.856871 -1.805517
v 2.837118 1.411536 -3.313778
v 2.814270 1.188345 -3.427735
v 2.866684 2.235249 -1.789020
v 2.812822 2.105257 -1.477620
v 2.843111 2.016138 -4.096623
v 2.738406 1.819760 -4.375332
v 2.922185 2.148678 -3.902565
vt 0.193677 0.752661
vt 0.106765 0.662653
vt 0.286586 0.650543
vt 0.228201 0.570664
vt 0.194530 0.489039
vt 0.359079 0.504562
vt 0.070835 0.268163
vt 0.158955 0.191797
vt 0.391058 0.245097
vt 0.254189 0.114932
vt 0.746764 0.698253
vt 0.745303 0.752094
vt 0.560410 0.691120
vt 0.407791 0.768766
vt 0.589047 0.794307
vt 0.333642 0.785586
vt 0.460328 0.808582
vt 0.380923 0.056286
vt 0.458527 0.136211
vt 0.298356 0.817824
vt 0.413239 0.889574
vt 0.777057 0.922648
vt 0.671999 0.882631
vt 0.797916 0.886858
vt 0.038546 0.594945
vt 0.000000 0.433412
vt 0.972913 0.750898
vt 0.696038 0.196702
vt 0.585600 0.315782
vt 0.909958 0.282876
vt 0.687940 0.387706
vt 0.666365 0.596008
vt 1.000000 0.623021
vt 1.000000 0.423793
vt 0.577735 0.888391
vt 0.217387 0.368872
vt 0.041348 0.331019
vt 0.878975 0.891014
vt 0.777972 1.000000
vt 0.501981 0.000000
vt 0.669682 0.094302
vt 0.783945 0.159934
vn 0.9944 0.0045 0.1053
vn 0.9998 -0.0071 0.0173
vn 0.9969 -0.0656 -0.0429
vn 0.9753 -0.1385 -0.1722
vn 0.9765 -0.1465 -0.1583
vn 0.9779 -0.1443 0.1516
vn 0.9943 0.0071 0.1063
vn 0.9872 -0.0726 0.1418
vn 0.9875 -0.0787 0.1364
vn 0.9659 -0.0216 0.2581
vn 0.9817 -0.0621 0.1803
vn 0.9540 -0.1795 -0.2401
vn 0.9759 0.0009 0.2182
vn 0.9802 -0.0650 0.1871
vn 0.9608 -0.0541 0.2718
vn 0.9666 -0.2211 0.1296
vn 0.9997 -0.0231 0.0074
vn 0.9985 -0.0255 -0.0492
vn 0.9478 -0.2838 0.1455
vn 0.9421 -0.2825 0.1804
vn 0.9570 -0.2686 -0.1096
vn 0.9567 -0.2695 -0.1100
vn 0.9569 -0.2814 -0.0720
vn 0.9830 -0.0806 0.1648
vn 0.9807 -0.1427 0.1334
vn 0.9749 -0.2107 0.0718
vn 0.9754 -0.2203 0.0118
vn 0.9747 -0.1772 -0.1359
vn 0.9761 -0.2026 0.0792
vn 0.9675 -0.2523 -0.0146
vn 0.9790 -0.1280 0.1585
vn 0.9665 -0.1329 0.2195
vn 0.9396 -0.2279 0.2554
vn 0.9802 -0.1375 0.1427
vn 0.9580 -0.1406 0.2501
vn 0.9704 -0.0949 0.2219
vn 0.9743 -0.1002 0.2017
vn 0.9972 -0.0085 -0.0744
vn 0.9917 -0.0390 -0.1225
vn 0.9299 -0.3380 0.1451
vn 0.9379 -0.3334 0.0952
vn 0.9896 -0.1440 0.0065
vn 0.9870 -0.1597 0.0187
vn 0.9184 -0.3957 -0.0063
vn 0.9943 -0.1064 -0.0016
vn 0.9552 -0.2016 -0.2168
vn 0.9525 -0.1951 -0.2339
vn 0.9478 -0.1779 -0.2647
vn 0.9592 -0.2630 0.1042
vn 0.9607 -0.2264 0.1605
vn 0.9985 -0.0361 -0.0417
vn 0.9610 -0.1489 -0.2328
vn 0.9429 -0.2060 -0.2619
vn 0.9484 -0.2799 -0.1489
vn 0.9685 -0.2126 -0.1293
vn 0.9905 -0.1366 -0.0171
vn 0.9999 -0.0023 0.0158
vn 0.9811 -0.1924 -0.0205
vn 0.9609 -0.2295 -0.1548
vn 0.9884 -0.0248 -0.1497
vn 0.9879 -0.1280 -0.0878
vn 0.9952 -0.0568 -0.0800
usemtl None
s off
f 1/1/1 3/2/1 2/3/1
f 3/2/2 4/4/2 2/3/2
f 5/5/3 6/6/3 4/4/3
f 7/7/4 9/8/4 8/9/4
f 8/9/5 9/8/5 10/10/5
f 11/11/6 12/12/6 13/13/6
f 14/14/7 1/1/7 2/3/7
f 14/14/8 2/3/8 13/13/8
f 14/14/9 13/13/9 15/15/9
f 16/16/10 1/1/10 14/14/10
f 14/14/11 17/17/11 16/16/11
f 18/18/12 19/19/12 10/10/12
f 16/16/13 20/20/13 1/1/13
f 17/17/14 20/20/14 16/16/14
f 17/17/15 21/21/15 20/20/15
f 22/22/16 24/23/16 23/24/16
f 25/25/17 4/4/17 3/2/17
f 26/26/18 5/5/18 4/4/18
f 27/27/19 12/12/19 11/11/19
f 27/27/20 23/24/20 12/12/20
f 28/28/21 29/29/21 8/9/21
f 30/30/22 29/29/22 28/28/22
f 29/29/23 31/31/23 6/6/23
f 32/32/24 13/13/24 2/3/24
f 11/11/25 13/13/25 32/32/25
f 33/33/26 32/32/26 34/34/26
f 31/31/27 34/34/27 6/6/27
f 34/34/28 31/31/28 29/29/28
f 32/32/29 6/6/29 34/34/29
f 34/34/30 29/29/30 30/30/30
f 15/15/31 12/12/31 23/24/31
f 35/35/32 15/15/32 24/23/32
f 24/23/33 15/15/33 23/24/33
f 15/15/34 13/13/34 12/12/34
f 17/17/35 35/35/35 21/21/35
f 35/35/36 17/17/36 15/15/36
f 17/17/37 14/14/37 15/15/37
f 26/26/38 36/36/38 5/5/38
f 36/36/39 26/26/39 37/37/39
f 23/24/40 27/27/40 38/38/40
f 38/38/41 22/22/41 23/24/41
f 39/39/42 21/21/42 35/35/42
f 35/35/43 24/23/43 39/39/43
f 38/38/44 39/39/44 22/22/44
f 22/22/45 39/39/45 24/23/45
f 18/18/46 41/40/46 40/41/46
f 19/19/47 18/18/47 40/41/47
f 28/28/48 40/41/48 42/42/48
f 11/11/49 33/33/49 27/27/49
f 33/33/50 11/11/50 32/32/50
f 25/25/51 26/26/51 4/4/51
f 42/42/52 30/30/52 28/28/52
f 19/19/53 40/41/53 28/28/53
f 28/28/54 8/9/54 19/19/54
f 19/19/55 8/9/55 10/10/55
f 6/6/56 32/32/56 2/3/56
f 6/6/57 2/3/57 4/4/57
f 29/29/58 6/6/58 36/36/58
f 8/9/59 29/29/59 36/36/59
f 37/37/60 7/7/60 36/36/60
f 7/7/61 8/9/61 36/36/61
f 36/36/62 6/6/62 5/5/62
