# Blender v2.79 (sub 0) OBJ File: ''
# www.blender.org
mtllib crack_only_129.mtl
o crack_only_129
v 2.810176 1.401169 -3.312192
v 2.764433 1.252057 -3.621421
v 2.876271 1.992391 -3.669548
v 2.943017 2.381882 -2.160704
v 3.003449 2.603808 -2.465826
v 2.993157 2.691665 -1.932896
v 3.092950 3.792292 -4.569688
v 3.124125 3.822045 -4.230846
v 3.075448 3.439975 -4.460139
v 3.063656 2.936660 -2.517945
v 3.059314 3.447135 -5.058090
v 3.048684 3.310146 -4.826568
v 3.034158 3.161494 -5.067271
v 3.062454 3.575972 -4.762386
v 3.219033 4.544615 -1.346537
v 3.213961 4.607626 -1.715849
v 3.196129 5.045554 -1.401673
v 3.200663 4.153045 -1.682117
v 3.220183 4.976147 -1.920077
v 3.217085 4.576089 -2.257741
v 3.124757 4.066367 -4.380912
v 3.201899 4.259927 -2.313521
v 3.201424 4.198501 -2.032290
v 2.834187 1.381679 -2.855407
v 2.809654 1.173364 -2.656101
v 2.807829 1.359683 -2.204527
v 2.873723 2.074000 -1.921221
v 3.174243 3.799214 -2.024923
v 2.808660 1.162560 -2.792365
v 2.748771 1.459033 -4.014390
v 2.756231 1.765416 -4.345083
v 2.800359 1.135220 -3.115626
v 3.050018 3.107285 -3.875768
v 2.938426 2.579046 -4.160474
v 2.790532 1.161650 -3.272933
v 3.101732 4.263068 -4.597635
v 3.090344 4.097319 -4.692839
v 3.125894 4.435766 -4.753632
v 3.140789 4.327809 -4.187371
v 3.149823 4.209372 -4.095152
v 3.157766 4.668804 -3.957803
v 3.131903 4.574253 -4.422452
v 3.076373 4.068743 -4.873232
v 3.206097 4.369655 -2.821582
v 3.194262 3.940329 -2.691702
v 3.186480 3.945271 -3.080416
v 3.204767 4.343672 -2.573202
v 3.183564 4.288169 -3.735432
v 3.155336 3.768748 -3.596905
v 3.206574 4.541118 -2.534603
v 3.203316 4.431314 -3.080206
v 3.199445 4.386478 -3.327285
v 3.190127 4.048194 -1.316732
v 3.172024 3.837869 -1.655174
v 3.168030 3.821813 -1.451877
v 3.089114 3.343480 -1.266071
v 3.109240 3.445233 -1.435872
v 3.141812 3.638401 -1.286625
v 3.170378 3.758167 -2.287840
v 3.068236 3.703345 -5.011339
v 3.103884 3.258280 -2.106120
v 3.216547 4.824855 -2.416249
v 3.207018 4.745019 -2.754973
v 3.195196 4.708800 -3.145234
v 2.797263 2.132284 -4.642817
v 3.081711 3.205476 -1.749269
v 3.087542 3.274261 -1.544328
v 3.117483 3.405132 -1.809627
v 3.183349 4.714581 -3.564664
v 3.094081 3.196095 -3.009246
v 2.868840 1.754369 -2.596188
v 2.969049 2.378954 -3.144190
v 3.012202 3.055070 -4.471053
v 2.876879 2.537799 -4.883167
v 2.981447 2.688903 -1.260036
v 2.874088 2.303153 -1.372859
v 2.818525 1.946272 -1.560398
v 2.804178 1.617780 -1.824290
vt 0.083506 0.390224
vt 0.053241 0.305950
vt 0.255344 0.318472
vt 0.308831 0.717570
vt 0.380141 0.647156
vt 0.384910 0.786260
vt 0.772382 0.148180
vt 0.769394 0.236050
vt 0.674107 0.164645
vt 0.472310 0.645060
vt 0.696285 0.011799
vt 0.651445 0.066503
vt 0.619720 0.000000
vt 0.720532 0.091646
vt 0.864949 0.998017
vt 0.894410 0.905551
vt 1.000000 1.000000
vt 0.771563 0.899334
vt 1.000000 0.865310
vt 0.904804 0.765930
vt 0.839818 0.205594
vt 0.821954 0.741292
vt 0.795822 0.811237
vt 0.063116 0.506616
vt 0.034078 0.672212
vt 0.000000 0.550663
vt 0.216622 0.768339
vt 0.688298 0.799969
vt 0.001802 0.515448
vt 0.121683 0.212027
vt 0.215089 0.137428
vt 0.005471 0.431807
vt 0.564456 0.303154
vt 0.430483 0.212374
vt 0.017717 0.392353
vt 0.899238 0.156370
vt 0.857998 0.126555
vt 0.951340 0.122243
vt 0.903320 0.263703
vt 0.986835 0.333616
vt 0.868743 0.283516
vt 0.977009 0.211499
vt 0.856255 0.079380
vt 0.868915 0.614916
vt 0.749523 0.634124
vt 0.764085 0.534792
vt 0.853359 0.677601
vt 0.878190 0.378337
vt 0.734036 0.396716
vt 0.904776 0.693895
vt 0.894245 0.550738
vt 0.890722 0.486050
vt 0.730677 0.989324
vt 0.685778 0.895792
vt 0.674363 0.947247
vt 0.538267 0.978686
vt 0.571806 0.938696
vt 0.619030 0.983379
vt 0.686333 0.731352
vt 0.763285 0.032136
vt 0.544938 0.761136
vt 0.976676 0.733449
vt 0.966836 0.644141
vt 0.970362 0.543048
vt 0.324347 0.073466
vt 0.517947 0.850547
vt 0.574230 0.841845
vt 0.529370 0.905248
vt 0.986107 0.435855
vt 0.559314 0.528019
vt 0.154511 0.585270
vt 0.342706 0.466079
vt 0.570146 0.148906
vt 0.442908 0.025718
vt 0.360616 0.958209
vt 0.258843 0.916053
vt 0.168663 0.856096
vt 0.089737 0.777828
vn 0.9855 -0.1535 -0.0717
vn 0.9792 -0.1962 0.0513
vn 0.9935 -0.0757 -0.0848
vn 0.9842 -0.1706 0.0471
vn 0.9961 -0.0875 -0.0061
vn 0.9984 -0.0549 0.0133
vn 0.9990 0.0450 -0.0060
vn 0.9994 -0.0306 -0.0190
vn 0.9945 -0.0729 -0.0756
vn 0.9989 0.0082 0.0453
vn 0.9999 -0.0133 0.0065
vn 0.9947 -0.0558 -0.0866
vn 0.9989 -0.0465 -0.0085
vn 0.9960 -0.0813 0.0376
vn 0.9811 -0.1889 0.0410
vn 0.9993 -0.0367 0.0079
vn 0.9977 -0.0680 -0.0067
vn 0.9933 -0.1152 0.0019
vn 0.9803 -0.1555 -0.1219
vn 0.9926 -0.1201 -0.0153
vn 0.9831 -0.1671 -0.0752
vn 0.9903 -0.0975 -0.0995
vn 0.9942 -0.0958 0.0479
vn 0.9929 -0.0372 -0.1132
vn 0.9939 -0.0050 -0.1102
vn 0.9962 0.0086 -0.0865
vn 0.9959 0.0057 -0.0902
vn 0.9969 -0.0431 -0.0659
vn 0.9932 -0.1127 0.0291
vn 0.9985 -0.0142 -0.0527
vn 0.9915 -0.0244 -0.1275
vn 0.9982 -0.0187 -0.0574
vn 0.9917 -0.1147 -0.0586
vn 0.9970 -0.0213 -0.0738
vn 0.9992 -0.0337 -0.0204
vn 0.9996 -0.0267 0.0024
vn 0.9953 0.0115 -0.0959
vn 0.9942 -0.0745 -0.0769
vn 0.9975 -0.0476 -0.0531
vn 0.9999 -0.0106 0.0076
vn 0.9986 -0.0422 -0.0326
vn 0.9996 -0.0268 0.0026
vn 0.9999 -0.0100 0.0043
vn 0.9992 -0.0346 -0.0190
vn 0.9986 -0.0450 -0.0280
vn 0.9994 -0.0346 -0.0094
vn 0.9983 -0.0574 0.0123
vn 0.9959 -0.0892 0.0153
vn 0.9959 -0.0894 0.0125
vn 0.9845 -0.1751 0.0118
vn 0.9976 -0.0682 -0.0132
vn 0.9996 -0.0294 -0.0016
vn 0.9980 -0.0629 -0.0048
vn 0.9976 -0.0611 0.0315
vn 0.9937 -0.0507 -0.1004
vn 0.9994 -0.0357 0.0049
vn 0.9996 -0.0260 0.0099
vn 0.9829 -0.1788 0.0436
vn 1.0000 -0.0021 -0.0067
vn 0.9994 -0.0259 -0.0220
vn 0.9992 -0.0204 -0.0354
vn 1.0000 -0.0024 -0.0002
vn 0.9996 0.0283 -0.0040
vn 0.9995 0.0030 -0.0306
vn 0.9751 -0.1938 -0.1081
vn 0.9752 -0.1945 -0.1053
vn 0.9854 -0.1680 0.0283
vn 0.9855 -0.1655 0.0368
vn 0.9903 -0.1388 0.0071
vn 0.9919 -0.1258 0.0168
vn 0.9917 -0.1283 0.0093
vn 0.9911 -0.1320 0.0197
vn 0.9913 -0.1307 0.0122
vn 0.9792 -0.1982 0.0429
vn 0.9881 -0.1494 0.0378
vn 0.9995 0.0245 -0.0201
vn 0.9992 0.0289 -0.0278
vn 0.9979 0.0018 -0.0651
vn 0.9981 0.0394 -0.0483
vn 0.9975 -0.0373 -0.0597
vn 0.9890 -0.1448 0.0304
vn 0.9920 -0.1244 -0.0214
vn 0.9972 -0.0644 -0.0381
vn 0.9921 -0.1240 -0.0174
vn 0.9943 -0.0907 -0.0561
vn 0.9956 -0.0603 -0.0723
vn 0.9924 -0.1175 0.0362
vn 0.9815 -0.1881 -0.0349
vn 0.9970 -0.0546 -0.0547
vn 0.9922 -0.1233 -0.0205
vn 0.9748 -0.2185 -0.0458
vn 0.9690 -0.2468 -0.0084
vn 0.9925 -0.1212 0.0149
vn 0.9867 -0.1617 -0.0148
vn 0.9735 -0.2099 -0.0905
vn 0.9842 -0.1767 0.0086
vn 0.9894 -0.1323 -0.0598
vn 0.9933 -0.1137 -0.0215
vn 0.9821 -0.1825 -0.0464
vn 0.9858 -0.1606 -0.0485
vn 0.9803 -0.1560 -0.1212
vn 0.9865 -0.1600 -0.0338
vn 0.9876 -0.1392 -0.0720
vn 0.9892 -0.1424 -0.0357
vn 0.9926 -0.1210 -0.0024
vn 0.9888 -0.1485 -0.0172
vn 0.9911 -0.1329 -0.0013
vn 0.9912 -0.1324 -0.0016
vn 0.9952 -0.0976 0.0007
vn 0.9929 -0.1149 0.0301
vn 0.9862 -0.1619 0.0347
vn 0.9859 -0.1654 0.0274
vn 0.9828 -0.1816 0.0342
vn 0.9621 -0.2723 0.0156
vn 0.9843 -0.1755 0.0164
vn 0.9787 -0.1877 0.0833
vn 0.9786 -0.1918 0.0750
vn 0.9836 -0.1658 0.0714
vn 0.9832 -0.1670 0.0732
vn 0.9876 -0.1568 0.0019
vn 0.9931 -0.0965 0.0661
vn 0.9940 -0.0861 0.0680
vn 0.9784 -0.1894 0.0826
usemtl None
s off
f 1/1/1 2/2/1 3/3/1
f 4/4/2 5/5/2 6/6/2
f 7/7/3 8/8/3 9/9/3
f 10/10/4 6/6/4 5/5/4
f 11/11/5 12/12/5 13/13/5
f 14/14/6 12/12/6 11/11/6
f 15/15/7 16/16/7 17/17/7
f 16/16/8 15/15/8 18/18/8
f 7/7/9 9/9/9 14/14/9
f 16/16/10 19/19/10 17/17/10
f 20/20/11 19/19/11 16/16/11
f 8/8/12 7/7/12 21/21/12
f 22/22/13 20/20/13 23/23/13
f 24/24/14 26/25/14 25/26/14
f 27/27/15 4/4/15 6/6/15
f 20/20/16 16/16/16 23/23/16
f 23/23/17 18/18/17 28/28/17
f 24/24/18 25/26/18 29/29/18
f 30/30/19 31/31/19 3/3/19
f 24/24/20 29/29/20 32/32/20
f 33/33/21 3/3/21 34/34/21
f 1/1/22 35/35/22 2/2/22
f 36/36/23 37/37/23 38/38/23
f 37/37/24 21/21/24 7/7/24
f 37/37/25 36/36/25 21/21/25
f 39/39/26 41/40/26 40/41/26
f 40/41/27 21/21/27 39/39/27
f 40/41/28 8/8/28 21/21/28
f 36/36/29 38/38/29 42/42/29
f 39/39/30 42/42/30 41/40/30
f 36/36/31 42/42/31 21/21/31
f 39/39/32 21/21/32 42/42/32
f 37/37/33 43/43/33 38/38/33
f 37/37/34 7/7/34 43/43/34
f 44/44/35 45/45/35 46/46/35
f 47/47/36 22/22/36 45/45/36
f 40/41/37 41/40/37 48/48/37
f 40/41/38 48/48/38 49/49/38
f 40/41/39 49/49/39 8/8/39
f 50/50/40 22/22/40 47/47/40
f 50/50/41 20/20/41 22/22/41
f 44/44/42 47/47/42 45/45/42
f 47/47/43 44/44/43 50/50/43
f 44/44/44 46/46/44 51/51/44
f 52/52/45 46/46/45 48/48/45
f 52/52/46 51/51/46 46/46/46
f 53/53/47 18/18/47 15/15/47
f 54/54/48 28/28/48 18/18/48
f 54/54/49 18/18/49 55/55/49
f 56/56/50 57/57/50 58/58/50
f 23/23/51 28/28/51 22/22/51
f 16/16/52 18/18/52 23/23/52
f 59/59/53 22/22/53 28/28/53
f 59/59/54 45/45/54 22/22/54
f 7/7/55 14/14/55 43/43/55
f 14/14/56 11/11/56 60/60/56
f 60/60/57 43/43/57 14/14/57
f 10/10/58 61/61/58 6/6/58
f 62/62/59 19/19/59 20/20/59
f 63/63/60 62/62/60 50/50/60
f 50/50/61 62/62/61 20/20/61
f 63/63/62 50/50/62 44/44/62
f 64/64/63 44/44/63 51/51/63
f 44/44/64 64/64/64 63/63/64
f 34/34/65 3/3/65 31/31/65
f 34/34/66 31/31/66 65/65/66
f 66/66/67 68/67/67 67/68/67
f 61/61/68 68/67/68 66/66/68
f 68/67/69 59/59/69 28/28/69
f 61/61/70 59/59/70 68/67/70
f 54/54/71 55/55/71 68/67/71
f 68/67/72 28/28/72 54/54/72
f 55/55/73 58/58/73 68/67/73
f 68/67/74 58/58/74 57/57/74
f 68/67/75 57/57/75 67/68/75
f 64/64/76 51/51/76 52/52/76
f 64/64/77 52/52/77 69/69/77
f 52/52/78 41/40/78 69/69/78
f 52/52/79 48/48/79 41/40/79
f 12/12/80 14/14/80 9/9/80
f 57/57/81 56/56/81 67/68/81
f 70/70/82 46/46/82 45/45/82
f 46/46/83 49/49/83 48/48/83
f 49/49/84 46/46/84 70/70/84
f 35/35/85 1/1/85 24/24/85
f 24/24/86 32/32/86 35/35/86
f 71/71/87 26/25/87 24/24/87
f 71/71/88 3/3/88 72/72/88
f 1/1/89 71/71/89 24/24/89
f 1/1/90 3/3/90 71/71/90
f 73/73/91 65/65/91 74/74/91
f 73/73/92 74/74/92 13/13/92
f 12/12/93 73/73/93 13/13/93
f 12/12/94 9/9/94 73/73/94
f 34/34/95 65/65/95 73/73/95
f 10/10/96 5/5/96 72/72/96
f 33/33/97 8/8/97 49/49/97
f 33/33/98 9/9/98 8/8/98
f 33/33/99 34/34/99 73/73/99
f 9/9/100 33/33/100 73/73/100
f 2/2/101 30/30/101 3/3/101
f 33/33/102 70/70/102 3/3/102
f 72/72/103 3/3/103 70/70/103
f 33/33/104 49/49/104 70/70/104
f 61/61/105 10/10/105 70/70/105
f 10/10/106 72/72/106 70/70/106
f 70/70/107 45/45/107 59/59/107
f 61/61/108 70/70/108 59/59/108
f 53/53/109 55/55/109 18/18/109
f 55/55/110 53/53/110 58/58/110
f 67/68/111 56/56/111 75/75/111
f 67/68/112 75/75/112 66/66/112
f 61/61/113 66/66/113 6/6/113
f 6/6/114 75/75/114 76/76/114
f 75/75/115 6/6/115 66/66/115
f 27/27/116 6/6/116 77/77/116
f 6/6/117 76/76/117 77/77/117
f 27/27/118 71/71/118 4/4/118
f 4/4/119 71/71/119 5/5/119
f 5/5/120 71/71/120 72/72/120
f 78/78/121 71/71/121 77/77/121
f 71/71/122 78/78/122 26/25/122
f 27/27/123 77/77/123 71/71/123
