# Blender v2.79 (sub 0) OBJ File: ''
# www.blender.org
mtllib crack_only_64.mtl
o crack_only_64
v 2.953341 1.961931 -3.240541
v 3.027885 2.371473 -3.518133
v 3.015627 2.203465 -3.036692
v 2.907998 1.798183 -3.362385
v 2.876366 1.572175 -2.996473
v 2.908928 1.759248 -2.698439
v 2.957796 2.060348 -2.640345
v 2.905330 1.987848 -2.347230
v 2.809059 1.927313 -1.831190
v 2.836847 2.062181 -1.804302
v 2.839127 1.912401 -2.015117
v 2.806385 1.955082 -4.274512
v 2.847447 1.900947 -3.981548
v 2.746457 1.786194 -4.356661
v 2.840933 2.124689 -1.669209
v 2.791144 1.961804 -1.554239
v 2.841418 2.169195 -1.455599
v 2.925650 2.425251 -1.731904
v 2.940818 2.506811 -1.584016
v 2.949887 2.222502 -3.830925
v 2.928437 2.035760 -3.713024
v 2.775681 1.974371 -4.512732
v 2.827626 2.022296 -4.255442
v 2.806473 1.469587 -3.728566
v 2.806237 1.399847 -3.628816
v 2.833327 1.618306 -3.656491
v 2.774986 1.320119 -3.758387
v 2.786445 1.234819 -3.608338
v 2.788896 1.832716 -1.787491
v 2.808680 1.850528 -1.898917
v 2.792713 1.734689 -1.914154
v 2.845822 1.812366 -2.098137
v 2.866524 1.517000 -2.470178
v 2.836188 1.356698 -2.205099
v 2.749022 1.458997 -4.014565
v 2.767391 1.735641 -1.737702
v 3.037867 2.506276 -2.457998
v 3.082858 2.666279 -2.492644
v 3.052982 2.647834 -2.275140
v 3.073194 2.596466 -3.554696
v 3.094727 2.622205 -3.275765
v 3.054372 2.562546 -3.676950
v 2.800646 2.093658 -4.615714
v 2.828699 2.166005 -4.511826
v 3.006102 2.618726 -1.979222
v 3.031716 2.509313 -3.789411
v 2.924735 2.455432 -1.430886
v 2.865600 2.083959 -1.925381
v 2.758594 1.625387 -1.827076
v 2.865338 2.234206 -4.396600
v 3.091934 2.630955 -2.835788
v 2.885338 2.093398 -4.038365
v 2.877114 1.439579 -2.741631
v 2.898037 2.423122 -1.331227
v 2.822325 1.710445 -3.879788
v 2.743823 1.600100 -4.162726
v 2.842546 1.124462 -3.130107
v 2.836271 1.403530 -3.318103
v 2.861770 1.361127 -2.970263
v 2.928115 2.322621 -4.244594
v 2.857018 1.154400 -2.762781
v 2.857934 1.162153 -2.664443
vt 0.556319 0.415167
vt 0.838614 0.337692
vt 0.712533 0.480863
vt 0.449459 0.375565
vt 0.287588 0.482779
vt 0.401789 0.576019
vt 0.599599 0.598415
vt 0.536289 0.685806
vt 0.467483 0.840658
vt 0.468007 0.784892
vt 0.556803 0.850982
vt 0.568728 0.101244
vt 0.529082 0.189338
vt 0.455354 0.073510
vt 0.592884 0.892854
vt 0.614243 0.958210
vt 0.477900 0.924949
vt 0.799029 0.878849
vt 0.848327 0.924940
vt 0.743662 0.240332
vt 0.616827 0.273095
vt 0.585403 0.029250
vt 0.613984 0.108143
vt 0.237855 0.259200
vt 0.334414 0.283412
vt 0.189563 0.288347
vt 0.138778 0.247748
vt 0.080240 0.291948
vt 0.402604 0.852355
vt 0.420382 0.818986
vt 0.344397 0.812537
vt 0.407377 0.758272
vt 0.232827 0.641252
vt 0.116825 0.718936
vt 0.233567 0.172152
vt 0.335754 0.865853
vt 0.890229 0.660785
vt 1.000000 0.652944
vt 0.976900 0.718373
vt 0.990279 0.330256
vt 1.000000 0.415213
vt 0.970274 0.292630
vt 0.668798 0.000000
vt 0.715312 0.032693
vt 0.942104 0.807298
vt 0.937028 0.257658
vt 0.808005 0.970448
vt 0.578598 0.814794
vt 0.266808 0.837077
vt 0.759859 0.068801
vt 0.990195 0.548554
vt 0.659577 0.175240
vt 0.193689 0.557939
vt 0.780431 1.000000
vt 0.399919 0.217139
vt 0.328715 0.129401
vt 0.000000 0.435365
vt 0.185090 0.382635
vt 0.149135 0.487445
vt 0.819456 0.116482
vt 0.008497 0.547114
vt 0.010228 0.577013
vn 0.9763 -0.2107 -0.0487
vn 0.9731 -0.2211 -0.0649
vn 0.9752 -0.2177 -0.0400
vn 0.9722 -0.2273 -0.0563
vn 0.9814 -0.1747 0.0801
vn 0.9746 -0.1831 0.1292
vn 0.9568 -0.2321 0.1752
vn 0.9514 -0.2502 -0.1796
vn 0.9647 -0.2584 0.0517
vn 0.9640 -0.2608 0.0522
vn 0.9630 -0.2654 0.0476
vn 0.9684 -0.2027 -0.1449
vn 0.9526 -0.2678 -0.1445
vn 0.9546 -0.2608 -0.1441
vn 0.9868 -0.1339 -0.0913
vn 0.9757 -0.1808 -0.1241
vn 0.9789 -0.1363 -0.1522
vn 0.9818 -0.1701 0.0847
vn 0.9727 -0.1562 0.1717
vn 0.9787 -0.1386 0.1516
vn 0.9768 -0.1542 0.1488
vn 0.9814 -0.1200 0.1499
vn 0.9952 -0.0418 0.0886
vn 0.9679 -0.1663 -0.1883
vn 0.9811 -0.1731 0.0863
vn 0.9627 -0.2466 0.1113
vn 0.9769 -0.2059 -0.0564
vn 0.9732 -0.2108 -0.0913
vn 0.9612 -0.2656 -0.0746
vn 0.9563 -0.2642 0.1255
vn 0.9723 -0.2136 -0.0948
vn 0.9600 -0.2800 0.0069
vn 0.9498 -0.3047 0.0706
vn 0.9619 -0.2449 0.1213
vn 0.9594 -0.2568 -0.1169
vn 0.9528 -0.2426 0.1826
vn 0.9808 -0.0813 0.1771
vn 0.9727 -0.1566 0.1715
vn 0.9661 -0.1235 0.2267
vn 0.9608 -0.0912 0.2620
vn 0.9661 -0.0781 0.2459
vn 0.9633 -0.2388 0.1222
vn 0.9473 -0.2670 0.1769
vn 0.9540 -0.2633 -0.1436
vn 0.9529 -0.2664 -0.1453
vn 0.9761 -0.2062 0.0680
vn 0.9761 -0.2048 0.0721
vn 0.9515 -0.2498 -0.1795
vn 0.9549 -0.2398 -0.1753
vn 0.9945 -0.0921 -0.0508
vn 0.9765 -0.2137 0.0274
vn 0.9919 -0.1017 0.0763
vn 0.9917 -0.1081 0.0695
vn 0.9441 -0.2886 0.1594
vn 0.9864 -0.1288 -0.1017
vn 0.9655 -0.1811 -0.1872
vn 0.9643 -0.1741 -0.1996
vn 0.9660 -0.2170 0.1404
vn 0.9645 -0.2229 0.1416
vn 0.9678 -0.2221 0.1183
vn 0.9836 -0.1802 0.0098
vn 0.9759 -0.2125 -0.0493
vn 0.9794 -0.1445 0.1413
vn 0.9714 -0.1914 0.1404
vn 0.9966 -0.0292 -0.0766
vn 0.9891 -0.0662 -0.1313
vn 0.9588 -0.2215 -0.1780
vn 0.9602 -0.2385 -0.1457
vn 0.9668 -0.2341 -0.1023
vn 0.9683 -0.2294 -0.0990
vn 0.9299 -0.3037 -0.2074
vn 0.9394 -0.3090 -0.1486
vn 0.9642 -0.2598 0.0523
vn 0.9964 -0.0741 -0.0415
vn 0.9976 -0.0466 -0.0510
vn 0.9971 -0.0678 -0.0338
vn 0.9945 -0.0843 0.0628
vn 0.9975 -0.0700 -0.0038
vn 0.9964 -0.0499 0.0683
vn 0.9634 -0.2532 0.0880
vn 0.9685 -0.2315 0.0915
vn 0.9742 -0.2146 0.0698
vn 0.9830 -0.1817 -0.0273
vn 0.9935 -0.0789 -0.0825
vn 0.9729 -0.1914 -0.1299
vn 0.9871 -0.1300 -0.0939
vn 0.9865 -0.1342 -0.0938
vn 0.9597 -0.2575 -0.1128
vn 0.9587 -0.2222 -0.1776
vn 0.9601 -0.2342 -0.1530
vn 0.9513 -0.2845 -0.1189
vn 0.9584 -0.2221 -0.1793
vn 0.9577 -0.2140 -0.1924
usemtl None
s off
f 1/1/1 2/2/1 3/3/1
f 1/1/2 4/4/2 2/2/2
f 1/1/3 3/3/3 5/5/3
f 1/1/4 5/5/4 4/4/4
f 6/6/5 3/3/5 7/7/5
f 6/6/6 7/7/6 8/8/6
f 9/9/7 11/10/7 10/11/7
f 12/12/8 13/13/8 14/14/8
f 15/15/9 17/16/9 16/17/9
f 18/18/10 17/16/10 15/15/10
f 18/18/11 19/19/11 17/16/11
f 20/20/12 2/2/12 21/21/12
f 12/12/13 14/14/13 22/22/13
f 23/23/14 12/12/14 22/22/14
f 24/24/15 26/25/15 25/26/15
f 24/24/16 25/26/16 27/27/16
f 25/26/17 28/28/17 27/27/17
f 29/29/18 9/9/18 16/17/18
f 11/10/19 9/9/19 30/30/19
f 29/29/20 30/30/20 9/9/20
f 29/29/21 31/31/21 30/30/21
f 32/32/22 33/33/22 8/8/22
f 32/32/23 34/34/23 33/33/23
f 24/24/24 27/27/24 35/35/24
f 29/29/25 16/17/25 36/36/25
f 37/37/26 38/38/26 39/39/26
f 2/2/27 40/40/27 41/41/27
f 2/2/28 42/42/28 40/40/28
f 43/43/29 44/44/29 22/22/29
f 45/45/30 37/37/30 39/39/30
f 42/42/31 2/2/31 46/46/31
f 47/47/32 17/16/32 19/19/32
f 18/18/33 45/45/33 19/19/33
f 45/45/34 18/18/34 37/37/34
f 46/46/35 2/2/35 20/20/35
f 48/48/36 10/11/36 11/10/36
f 11/10/37 32/32/37 8/8/37
f 31/31/38 11/10/38 30/30/38
f 11/10/39 31/31/39 32/32/39
f 49/49/40 34/34/40 31/31/40
f 32/32/41 31/31/41 34/34/41
f 37/37/42 18/18/42 48/48/42
f 10/11/43 48/48/43 18/18/43
f 23/23/44 22/22/44 44/44/44
f 50/50/45 23/23/45 44/44/45
f 51/51/46 7/7/46 3/3/46
f 51/51/47 37/37/47 7/7/47
f 12/12/48 23/23/48 13/13/48
f 52/52/49 13/13/49 23/23/49
f 6/6/50 53/53/50 5/5/50
f 6/6/51 5/5/51 3/3/51
f 6/6/52 8/8/52 33/33/52
f 53/53/53 6/6/53 33/33/53
f 47/47/54 54/54/54 17/16/54
f 24/24/55 55/55/55 26/25/55
f 24/24/56 35/35/56 55/55/56
f 55/55/57 35/35/57 56/56/57
f 48/48/58 8/8/58 37/37/58
f 11/10/59 8/8/59 48/48/59
f 8/8/60 7/7/60 37/37/60
f 41/41/61 51/51/61 3/3/61
f 41/41/62 3/3/62 2/2/62
f 36/36/63 31/31/63 29/29/63
f 31/31/64 36/36/64 49/49/64
f 57/57/65 58/58/65 59/59/65
f 58/58/66 57/57/66 28/28/66
f 21/21/67 55/55/67 13/13/67
f 55/55/68 21/21/68 26/25/68
f 21/21/69 4/4/69 26/25/69
f 21/21/70 2/2/70 4/4/70
f 50/50/71 60/60/71 23/23/71
f 23/23/72 60/60/72 52/52/72
f 37/37/73 51/51/73 38/38/73
f 53/53/74 59/59/74 5/5/74
f 53/53/75 57/57/75 59/59/75
f 61/61/76 57/57/76 53/53/76
f 53/53/77 33/33/77 34/34/77
f 61/61/78 53/53/78 62/62/78
f 62/62/79 53/53/79 34/34/79
f 10/11/80 18/18/80 15/15/80
f 15/15/81 16/17/81 9/9/81
f 15/15/82 9/9/82 10/11/82
f 5/5/83 58/58/83 4/4/83
f 58/58/84 5/5/84 59/59/84
f 58/58/85 26/25/85 4/4/85
f 25/26/86 58/58/86 28/28/86
f 25/26/87 26/25/87 58/58/87
f 20/20/88 60/60/88 46/46/88
f 21/21/89 13/13/89 20/20/89
f 52/52/90 20/20/90 13/13/90
f 20/20/91 52/52/91 60/60/91
f 55/55/92 56/56/92 13/13/92
f 56/56/93 14/14/93 13/13/93
