# Blender v2.79 (sub 0) OBJ File: ''
# www.blender.org
mtllib crack_only_156.mtl
o crack_only_156
v 2.762539 1.764820 -4.349063
v 2.839648 2.140239 -4.198671
v 2.872437 1.993796 -3.670110
v 2.799008 2.130886 -4.643013
v 2.798774 1.396019 -3.317171
v 2.757803 1.260881 -3.632178
v 3.169746 4.997700 -3.825332
v 3.133871 4.286186 -3.903455
v 3.162421 4.960302 -4.179329
v 2.962874 2.881407 -4.557261
v 3.166258 5.379284 -4.015729
v 3.169231 5.472604 -3.640189
v 3.155552 5.323201 -4.388099
v 3.210620 4.540034 -1.346491
v 3.212005 4.600675 -1.710194
v 3.143689 4.999783 -1.396848
v 2.874677 2.073374 -1.921404
v 2.868627 1.822077 -2.730017
v 2.805878 1.359888 -2.204487
v 3.171861 4.958795 -1.923826
v 3.184981 4.583170 -2.886241
v 3.182388 4.921874 -2.455466
v 3.182655 4.853643 -4.580626
v 3.125894 4.411727 -4.766939
v 3.038978 5.535086 -1.768568
v 3.013823 5.569902 -1.399598
v 3.164178 4.023005 -1.947277
v 2.821505 1.401997 -2.875248
v 2.799894 1.175631 -2.654414
v 3.150219 5.566689 -3.266572
v 3.116295 5.990378 -3.484411
v 3.159511 3.973639 -2.687043
v 3.130081 3.718904 -2.979153
v 3.085866 3.354984 -2.584716
v 3.126685 5.902960 -3.957700
v 3.133300 3.937675 -3.462479
v 2.797511 1.164442 -2.799185
v 2.972022 2.934727 -4.671899
v 2.882448 2.531394 -4.884454
v 3.030192 3.162334 -5.066469
v 3.031192 3.332091 -4.691739
v 2.748631 1.459053 -4.014290
v 2.787797 1.138424 -3.111315
v 3.073129 3.265016 -1.872497
v 2.997286 2.814644 -2.232586
v 3.009066 3.159194 -4.388618
v 2.778967 1.166246 -3.280019
v 3.171090 5.201117 -3.406600
v 3.186622 4.910845 -3.154048
v 3.164224 5.216571 -3.039370
v 3.117633 5.837875 -4.332484
v 3.056932 6.320834 -4.279516
v 3.094659 6.014480 -4.310801
v 3.183401 4.103812 -1.320719
v 2.933294 5.882001 -1.711627
v 2.899711 5.886842 -1.410743
v 3.129419 5.788998 -3.219766
v 3.099814 6.186532 -3.876305
v 3.097265 5.746853 -2.873514
v 3.068815 3.681092 -4.609601
v 3.076163 3.447057 -3.643761
v 3.183661 4.346185 -2.806633
v 3.059740 3.220475 -1.259577
v 3.013812 5.817095 -2.251369
v 3.078835 5.483979 -2.199252
v 3.066709 5.753405 -2.586607
v 3.146714 5.278762 -2.676844
v 2.965235 5.880657 -2.005637
v 2.985914 2.727425 -3.412712
v 2.997501 2.766513 -3.035466
v 3.062411 3.699217 -5.009535
v 2.804819 1.617673 -1.824250
v 2.823323 1.944188 -1.561109
v 2.977242 2.689459 -1.260940
v 2.876477 2.302134 -1.372350
v 3.140070 5.431020 -2.969749
vt 0.754612 0.087075
vt 0.730900 0.167026
vt 0.589813 0.154125
vt 0.844302 0.151363
vt 0.475884 0.045183
vt 0.551230 0.008366
vt 0.747599 0.750515
vt 0.739717 0.605951
vt 0.836814 0.732210
vt 0.851970 0.304698
vt 0.811299 0.820824
vt 0.718745 0.850919
vt 0.904485 0.798210
vt 0.094708 0.735063
vt 0.190260 0.736075
vt 0.125483 0.824867
vt 0.144929 0.223367
vt 0.189424 0.071962
vt 0.342246 0.148520
vt 0.258933 0.800777
vt 0.490821 0.696544
vt 0.393707 0.777253
vt 0.965831 0.604609
vt 0.935483 0.698804
vt 0.241480 0.919718
vt 0.148273 0.937774
vt 0.228318 0.613297
vt 0.362940 0.059992
vt 0.297472 0.021435
vt 0.626677 0.880978
vt 0.699004 0.958671
vt 0.415900 0.580850
vt 0.365358 0.460097
vt 0.480720 0.520937
vt 0.816853 0.926850
vt 0.613108 0.549862
vt 0.334119 0.014771
vt 0.883441 0.311894
vt 0.921965 0.224403
vt 0.993528 0.345614
vt 0.904168 0.390924
vt 0.656861 0.036196
vt 0.413049 0.000000
vt 0.179353 0.463799
vt 0.253857 0.362503
vt 0.819711 0.365543
vt 0.457343 0.000352
vt 0.648284 0.803886
vt 0.572253 0.753764
vt 0.554797 0.818133
vt 0.910308 0.902376
vt 0.915530 1.000000
vt 0.911624 0.938141
vt 0.070994 0.648649
vt 0.240287 0.990053
vt 0.163336 1.000000
vt 0.623348 0.926641
vt 0.807050 0.985757
vt 0.532939 0.928606
vt 0.896842 0.463289
vt 0.640260 0.446101
vt 0.461153 0.651679
vt 0.020564 0.473532
vt 0.376159 0.961110
vt 0.349885 0.896616
vt 0.459641 0.938486
vt 0.464324 0.841499
vt 0.315610 0.981003
vt 0.552762 0.309029
vt 0.457665 0.328405
vt 1.000000 0.454666
vt 0.102094 0.134992
vt 0.047485 0.208279
vt 0.000000 0.367049
vt 0.013220 0.285773
vt 0.545309 0.862904
vn 0.9816 -0.1595 -0.1051
vn 0.9821 -0.1672 -0.0863
vn 0.9857 -0.1573 -0.0607
vn 0.9987 -0.0487 -0.0155
vn 0.9754 -0.2033 -0.0849
vn 0.9999 0.0046 -0.0091
vn 0.9996 0.0022 -0.0291
vn 0.9887 0.1470 0.0283
vn 0.9940 -0.1060 0.0255
vn 0.9898 0.1362 0.0423
vn 0.9998 -0.0011 -0.0206
vn 0.9996 -0.0192 0.0211
vn 0.9950 0.0970 -0.0243
vn 0.9818 -0.1655 0.0935
vn 0.9987 -0.0490 -0.0163
vn 0.9759 0.2155 0.0354
vn 0.9740 0.2221 0.0454
vn 0.9970 -0.0736 -0.0218
vn 0.9968 -0.0772 0.0184
vn 0.9952 0.0936 0.0271
vn 0.9930 -0.1178 0.0027
vn 0.9966 0.0783 -0.0274
vn 0.9963 -0.0808 -0.0299
vn 0.9949 0.1007 0.0032
vn 0.9984 0.0415 0.0393
vn 0.9946 -0.1031 -0.0084
vn 0.9745 -0.2240 0.0144
vn 0.9876 -0.1439 0.0626
vn 0.9816 -0.1597 -0.1050
vn 0.9940 -0.1074 -0.0220
vn 0.9865 -0.1637 -0.0030
vn 0.9781 -0.2075 -0.0185
vn 0.9768 -0.1832 -0.1113
vn 0.9913 -0.0994 -0.0863
vn 0.9772 -0.2118 -0.0136
vn 1.0000 0.0029 -0.0046
vn 0.9992 0.0356 -0.0205
vn 0.9983 0.0415 0.0403
vn 0.9976 0.0671 0.0158
vn 0.9986 0.0507 0.0165
vn 0.9962 0.0778 -0.0404
vn 0.9906 0.1271 -0.0497
vn 0.9961 0.0795 -0.0379
vn 0.9898 0.1346 -0.0473
vn 0.9980 -0.0627 -0.0066
vn 0.9970 -0.0739 -0.0211
vn 0.9351 0.3402 0.0989
vn 0.9958 0.0893 0.0185
vn 0.9957 0.0930 0.0047
vn 0.9912 0.1133 -0.0677
vn 0.9923 0.0716 0.1009
vn 0.9984 -0.0469 -0.0312
vn 0.9930 -0.1179 0.0016
vn 0.9929 -0.1190 0.0027
vn 0.9964 -0.0824 -0.0212
vn 0.9935 -0.0899 -0.0698
vn 0.9979 -0.0653 -0.0019
vn 0.9929 -0.1180 0.0131
vn 0.9961 -0.0777 -0.0410
vn 0.9986 -0.0419 -0.0318
vn 0.9901 -0.1395 -0.0124
vn 0.9716 0.2075 0.1139
vn 0.9856 0.1519 0.0748
vn 0.9576 0.2854 0.0384
vn 0.9561 0.2744 0.1026
vn 0.9895 -0.1396 -0.0383
vn 0.9889 -0.1477 -0.0151
vn 0.9908 -0.1326 -0.0261
vn 0.9941 -0.1013 -0.0392
vn 0.9916 -0.1190 0.0512
vn 0.9981 -0.0579 -0.0186
vn 0.9964 -0.0821 -0.0197
vn 0.9947 -0.0859 -0.0564
vn 0.9865 -0.1640 -0.0000
vn 0.9900 -0.1359 -0.0367
vn 0.9863 -0.1651 0.0019
vn 0.9889 -0.1479 -0.0122
vn 0.9816 -0.1590 -0.1060
vn 0.9937 -0.1119 0.0044
vn 0.9939 -0.1095 0.0101
vn 0.9943 -0.0938 -0.0499
vn 0.9955 -0.0703 -0.0637
vn 0.9905 -0.1370 -0.0153
vn 0.9904 -0.1369 -0.0162
vn 0.9878 -0.1557 0.0096
vn 0.9997 0.0023 0.0235
vn 0.9680 0.2104 0.1369
vn 0.9670 0.2476 0.0601
vn 0.9862 0.1465 0.0772
vn 0.9840 0.1780 0.0071
vn 0.9761 0.2074 0.0657
vn 0.9988 -0.0204 -0.0442
vn 0.9985 -0.0371 -0.0393
vn 0.9964 0.0694 -0.0486
vn 0.9869 -0.1313 0.0936
vn 0.9870 -0.1317 0.0920
vn 0.9849 -0.1730 0.0089
vn 0.9686 -0.2485 -0.0120
vn 0.9881 -0.1535 0.0006
vn 0.9877 -0.1227 0.0968
vn 0.9852 -0.1668 0.0390
vn 0.9905 0.1088 0.0836
vn 0.9917 0.1219 0.0409
vn 0.9840 0.1466 0.1014
vn 0.9930 -0.1169 0.0158
vn 0.9896 -0.1421 -0.0220
vn 0.9943 -0.0943 -0.0499
vn 0.9907 -0.1342 -0.0205
vn 0.9911 -0.1326 0.0082
vn 0.9883 -0.1474 0.0384
vn 0.9943 0.1021 0.0305
vn 0.9934 0.0878 0.0741
vn 0.9983 0.0426 0.0409
vn 0.9967 0.0485 0.0654
usemtl None
s off
f 1/1/1 2/2/1 3/3/1
f 1/1/2 4/4/2 2/2/2
f 5/5/3 6/6/3 3/3/3
f 7/7/4 8/8/4 9/9/4
f 10/10/5 2/2/5 4/4/5
f 7/7/6 11/11/6 12/12/6
f 11/11/7 9/9/7 13/13/7
f 14/14/8 15/15/8 16/16/8
f 17/17/9 19/18/9 18/19/9
f 15/15/10 20/20/10 16/16/10
f 9/9/11 11/11/11 7/7/11
f 20/20/12 21/21/12 22/22/12
f 21/21/13 20/20/13 15/15/13
f 9/9/14 24/23/14 23/24/14
f 9/9/15 8/8/15 24/23/15
f 25/25/16 16/16/16 20/20/16
f 25/25/17 26/26/17 16/16/17
f 21/21/18 15/15/18 27/27/18
f 28/28/19 19/18/19 29/29/19
f 30/30/20 12/12/20 31/31/20
f 32/32/21 34/33/21 33/34/21
f 11/11/22 35/35/22 12/12/22
f 32/32/23 33/34/23 36/36/23
f 31/31/24 12/12/24 35/35/24
f 23/24/25 13/13/25 9/9/25
f 28/28/26 29/29/26 37/37/26
f 38/38/27 39/39/27 40/40/27
f 41/41/28 38/38/28 40/40/28
f 42/42/29 1/1/29 3/3/29
f 28/28/30 37/37/30 43/43/30
f 34/33/31 44/44/31 45/45/31
f 10/10/32 39/39/32 38/38/32
f 46/46/33 3/3/33 2/2/33
f 5/5/34 47/47/34 6/6/34
f 10/10/35 4/4/35 39/39/35
f 48/48/36 7/7/36 12/12/36
f 48/48/37 49/49/37 7/7/37
f 48/48/38 12/12/38 30/30/38
f 48/48/39 50/50/39 49/49/39
f 50/50/40 48/48/40 30/30/40
f 51/51/41 11/11/41 13/13/41
f 52/52/42 35/35/42 53/53/42
f 51/51/43 35/35/43 11/11/43
f 51/51/44 53/53/44 35/35/44
f 54/54/45 15/15/45 14/14/45
f 54/54/46 27/27/46 15/15/46
f 26/26/47 55/55/47 56/56/47
f 57/57/48 30/30/48 31/31/48
f 58/58/49 31/31/49 35/35/49
f 58/58/50 35/35/50 52/52/50
f 57/57/51 59/59/51 30/30/51
f 49/49/52 8/8/52 7/7/52
f 34/33/53 32/32/53 27/27/53
f 44/44/54 34/33/54 27/27/54
f 8/8/55 60/60/55 24/23/55
f 61/61/56 8/8/56 36/36/56
f 62/62/57 27/27/57 32/32/57
f 27/27/58 63/63/58 44/44/58
f 62/62/59 32/32/59 8/8/59
f 32/32/60 36/36/60 8/8/60
f 27/27/61 54/54/61 63/63/61
f 64/64/62 65/65/62 66/66/62
f 65/65/63 67/67/63 66/66/63
f 55/55/64 26/26/64 25/25/64
f 55/55/65 25/25/65 68/68/65
f 46/46/66 69/69/66 3/3/66
f 70/70/67 3/3/67 69/69/67
f 33/34/68 69/69/68 61/61/68
f 33/34/69 61/61/69 36/36/69
f 41/41/70 40/40/70 60/60/70
f 71/71/71 60/60/71 40/40/71
f 60/60/72 71/71/72 24/23/72
f 61/61/73 46/46/73 8/8/73
f 10/10/74 46/46/74 2/2/74
f 46/46/75 61/61/75 69/69/75
f 10/10/76 38/38/76 46/46/76
f 46/46/77 38/38/77 41/41/77
f 6/6/78 42/42/78 3/3/78
f 60/60/79 8/8/79 46/46/79
f 46/46/80 41/41/80 60/60/80
f 47/47/81 5/5/81 28/28/81
f 28/28/82 43/43/82 47/47/82
f 33/34/83 34/33/83 70/70/83
f 33/34/84 70/70/84 69/69/84
f 34/33/85 45/45/85 70/70/85
f 62/62/86 21/21/86 27/27/86
f 64/64/87 68/68/87 65/65/87
f 68/68/88 25/25/88 65/65/88
f 65/65/89 22/22/89 67/67/89
f 65/65/90 20/20/90 22/22/90
f 65/65/91 25/25/91 20/20/91
f 21/21/92 62/62/92 8/8/92
f 49/49/93 21/21/93 8/8/93
f 22/22/94 21/21/94 67/67/94
f 72/72/95 17/17/95 73/73/95
f 17/17/96 72/72/96 19/18/96
f 45/45/97 44/44/97 63/63/97
f 45/45/98 74/74/98 75/75/98
f 45/45/99 63/63/99 74/74/99
f 17/17/100 45/45/100 73/73/100
f 45/45/101 75/75/101 73/73/101
f 59/59/102 76/76/102 30/30/102
f 76/76/103 59/59/103 67/67/103
f 59/59/104 66/66/104 67/67/104
f 18/19/105 19/18/105 28/28/105
f 18/19/106 3/3/106 70/70/106
f 5/5/107 18/19/107 28/28/107
f 5/5/108 3/3/108 18/19/108
f 45/45/109 18/19/109 70/70/109
f 17/17/110 18/19/110 45/45/110
f 76/76/111 67/67/111 50/50/111
f 50/50/112 30/30/112 76/76/112
f 21/21/113 50/50/113 67/67/113
f 50/50/114 21/21/114 49/49/114
