# Blender v2.79 (sub 0) OBJ File: ''
# www.blender.org
mtllib crack_only_33.mtl
o crack_only_33
v 2.852825 1.369348 -2.180371
v 2.861014 1.587081 -2.440908
v 2.883710 1.258370 -2.426423
v 2.872933 1.405487 -2.732182
v 2.857169 1.369827 -2.970691
v 2.877023 1.653915 -3.007378
v 2.888808 1.153596 -2.695542
v 2.885417 1.136579 -2.891805
v 2.877282 1.638723 -2.748362
v 2.841666 1.419652 -2.116454
v 2.799878 1.417914 -3.558167
v 2.803552 1.210861 -3.519139
v 2.789842 1.267426 -3.677237
v 2.841546 1.524825 -3.364392
v 2.822839 1.175138 -3.374379
v 2.866395 1.119532 -3.128730
vt 0.650998 0.042578
vt 0.830452 0.203082
vt 0.202256 0.198045
vt 0.509260 0.390998
vt 0.544589 0.544589
vt 0.000000 0.554502
vt 0.994002 0.378672
vt 1.000000 0.504236
vt 0.063544 0.390609
vt 0.563401 0.000000
vt 0.372288 0.917262
vt 0.771563 0.901728
vt 0.642270 1.000000
vt 0.196450 0.788157
vt 0.859643 0.810834
vt 1.000000 0.656068
vn 0.9931 0.0726 0.0919
vn 0.9976 0.0688 -0.0021
vn 0.9956 -0.0766 -0.0544
vn 0.9981 0.0621 -0.0053
vn 0.9925 0.0933 -0.0795
vn 0.9998 -0.0188 -0.0021
vn 0.9986 -0.0151 0.0503
vn 0.9907 0.0874 0.1042
vn 0.9963 0.0015 -0.0859
vn 0.9944 -0.0786 -0.0704
vn 0.9884 -0.0488 -0.1437
vn 0.9797 -0.0202 -0.1995
vn 0.9986 0.0495 -0.0201
vn 0.9817 -0.0472 -0.1847
vn 0.9921 0.0910 -0.0862
vn 0.9980 0.0596 -0.0224
usemtl None
s off
f 1/1/1 3/2/1 2/3/1
f 3/2/2 4/4/2 2/3/2
f 5/5/3 6/6/3 4/4/3
f 7/7/4 4/4/4 3/2/4
f 8/8/5 5/5/5 4/4/5
f 9/9/6 4/4/6 6/6/6
f 9/9/7 2/3/7 4/4/7
f 10/10/8 1/1/8 2/3/8
f 11/11/9 12/12/9 13/13/9
f 14/14/10 6/6/10 5/5/10
f 12/12/11 14/14/11 15/15/11
f 12/12/12 11/11/12 14/14/12
f 16/16/13 14/14/13 5/5/13
f 14/14/14 16/16/14 15/15/14
f 16/16/15 5/5/15 8/8/15
f 7/7/16 8/8/16 4/4/16
