# Blender v2.79 (sub 0) OBJ File: ''
# www.blender.org
mtllib crack_only_39.mtl
o crack_only_39
v 2.844843 1.402416 -3.323516
v 2.860613 1.361271 -2.970501
v 2.881326 1.573735 -2.993584
v 2.838273 1.227185 -3.261208
v 2.849708 1.355275 -2.205372
v 2.868635 1.468896 -2.487360
v 2.881681 1.243900 -2.463326
v 2.874631 1.396745 -2.734790
v 2.824019 1.171146 -3.358513
v 2.800365 1.209246 -3.506553
v 2.900992 1.713520 -2.705273
v 2.881097 1.782678 -2.379880
v 2.885890 1.149893 -2.740607
v 2.854485 1.121417 -3.134205
v 2.837994 1.767201 -2.171110
v 2.904116 1.861868 -2.498220
v 2.796675 1.693700 -1.991870
v 2.807148 1.491510 -2.018256
v 2.760013 1.614635 -1.843222
v 2.933405 1.909608 -2.864642
v 2.893677 1.806720 -3.295995
v 2.805217 1.604530 -3.651652
v 2.795741 1.441692 -3.624116
v 2.768056 1.381654 -3.876449
vt 0.495195 0.267583
vt 0.612498 0.445574
vt 0.335991 0.431886
vt 0.254458 0.277078
vt 0.093568 0.797302
vt 0.033601 0.661186
vt 0.324417 0.675628
vt 0.309375 0.548902
vt 0.212713 0.223921
vt 0.304889 0.157310
vt 0.701819 0.599875
vt 0.688466 0.763469
vt 0.000000 0.517631
vt 0.082864 0.325737
vt 0.825945 0.716160
vt 0.602685 0.861286
vt 0.452763 0.938269
vt 0.305430 1.000000
vt 0.206051 0.902317
vt 1.000000 0.327891
vt 1.000000 0.546526
vt 0.634202 0.127911
vt 0.848797 0.133645
vt 0.634152 0.000000
vn 0.9931 -0.1029 -0.0564
vn 0.9972 -0.0555 -0.0510
vn 0.9933 0.0676 0.0939
vn 0.9983 0.0586 0.0071
vn 0.9939 -0.1016 -0.0438
vn 0.9920 -0.0738 -0.1028
vn 0.9829 -0.0623 -0.1731
vn 0.9951 -0.0651 0.0747
vn 0.9990 0.0456 -0.0003
vn 0.9979 0.0167 -0.0619
vn 0.9789 0.0196 0.2036
vn 0.9685 0.0178 0.2483
vn 0.9896 -0.1304 -0.0600
vn 0.9877 -0.1564 0.0085
vn 0.9814 -0.0861 -0.1716
vn 0.9917 -0.1113 0.0648
vn 0.9846 -0.1489 0.0919
vn 0.9954 0.0474 -0.0829
vn 0.9948 0.0391 -0.0945
vn 0.9904 -0.0132 -0.1375
vn 0.9834 -0.0660 -0.1693
vn 0.9931 -0.0733 -0.0915
vn 0.9943 -0.0316 -0.1016
vn 0.9774 -0.1056 -0.1831
vn 0.9920 -0.1165 -0.0492
vn 0.9997 -0.0017 0.0247
vn 0.9910 -0.1336 -0.0028
vn 0.9784 0.0239 0.2051
vn 0.9791 0.0110 0.2030
vn 0.9736 0.0087 0.2280
vn 0.9975 -0.0550 0.0448
usemtl None
s off
f 1/1/1 3/2/1 2/3/1
f 2/3/2 4/4/2 1/1/2
f 5/5/3 7/6/3 6/7/3
f 7/6/4 8/8/4 6/7/4
f 2/3/5 3/2/5 8/8/5
f 9/9/6 1/1/6 4/4/6
f 9/9/7 10/10/7 1/1/7
f 11/11/8 12/12/8 6/7/8
f 13/13/9 8/8/9 7/6/9
f 14/14/10 2/3/10 8/8/10
f 12/12/11 16/15/11 15/16/11
f 17/17/12 19/18/12 18/19/12
f 3/2/13 21/20/13 20/21/13
f 20/21/14 11/11/14 3/2/14
f 23/22/15 22/23/15 1/1/15
f 20/21/16 16/15/16 11/11/16
f 16/15/17 12/12/17 11/11/17
f 13/13/18 14/14/18 8/8/18
f 14/14/19 4/4/19 2/3/19
f 4/4/20 14/14/20 9/9/20
f 23/22/21 1/1/21 10/10/21
f 22/23/22 23/22/22 24/24/22
f 23/22/23 10/10/23 24/24/23
f 22/23/24 21/20/24 1/1/24
f 3/2/25 1/1/25 21/20/25
f 3/2/26 6/7/26 8/8/26
f 3/2/27 11/11/27 6/7/27
f 17/17/28 18/19/28 5/5/28
f 15/16/29 5/5/29 12/12/29
f 5/5/30 15/16/30 17/17/30
f 5/5/31 6/7/31 12/12/31
