# Blender v2.79 (sub 0) OBJ File: ''
# www.blender.org
mtllib crack_only_157.mtl
o crack_only_157
v 2.762539 1.764820 -4.349063
v 2.839648 2.140239 -4.198671
v 2.872437 1.993796 -3.670110
v 2.799008 2.130886 -4.643013
v 2.798774 1.396019 -3.317171
v 2.757803 1.260881 -3.632178
v 3.169923 5.001377 -3.824740
v 3.133871 4.286186 -3.903455
v 3.162421 4.960302 -4.179329
v 2.962874 2.881407 -4.557261
v 3.166050 5.386784 -4.015268
v 3.168485 5.488825 -3.639097
v 3.155552 5.323201 -4.388099
v 3.210620 4.540034 -1.346491
v 3.212005 4.600675 -1.710194
v 3.142930 5.003097 -1.396939
v 2.874677 2.073374 -1.921404
v 2.868627 1.822077 -2.730017
v 2.805878 1.359888 -2.204487
v 3.171052 4.962546 -1.922410
v 3.185106 4.583694 -2.886588
v 3.181735 4.925964 -2.452106
v 3.182655 4.853643 -4.580626
v 3.125894 4.411727 -4.766939
v 3.038165 5.542277 -1.769459
v 3.008800 5.589236 -1.399830
v 3.164178 4.023005 -1.947277
v 2.821505 1.401997 -2.875248
v 2.799894 1.175631 -2.654414
v 3.148682 5.587038 -3.255523
v 3.109710 6.033381 -3.469452
v 3.159511 3.973639 -2.687043
v 3.130081 3.718904 -2.979153
v 3.085866 3.354984 -2.584716
v 3.124023 5.931807 -3.953053
v 3.133300 3.937675 -3.462479
v 2.797511 1.164442 -2.799185
v 2.972022 2.934727 -4.671899
v 2.882448 2.531394 -4.884454
v 3.030192 3.162334 -5.066469
v 3.031192 3.332091 -4.691739
v 2.748631 1.459053 -4.014290
v 2.787797 1.138424 -3.111315
v 3.073129 3.265016 -1.872497
v 2.997286 2.814644 -2.232586
v 3.009066 3.159194 -4.388618
v 2.778967 1.166246 -3.280019
v 3.171051 5.204962 -3.408123
v 3.186622 4.910845 -3.154048
v 3.163555 5.225318 -3.038716
v 3.115584 5.860696 -4.329801
v 3.052610 6.362212 -4.278281
v 3.090277 6.043092 -4.306498
v 3.183401 4.103812 -1.320719
v 2.921795 5.907891 -1.712342
v 2.889809 5.909313 -1.411625
v 3.126823 5.813076 -3.207097
v 3.097198 6.218215 -3.869818
v 3.089764 5.774352 -2.868423
v 3.068815 3.681092 -4.609601
v 3.076163 3.447057 -3.643761
v 3.183661 4.346185 -2.806633
v 3.059740 3.220475 -1.259577
v 3.005782 5.850067 -2.256608
v 3.077754 5.495143 -2.206775
v 3.059234 5.787419 -2.581835
v 3.146145 5.287187 -2.673022
v 2.951630 5.908955 -2.014990
v 2.985914 2.727425 -3.412712
v 2.997501 2.766513 -3.035466
v 3.062411 3.699217 -5.009535
v 2.804819 1.617673 -1.824250
v 2.823323 1.944188 -1.561109
v 2.977242 2.689459 -1.260940
v 2.876477 2.302134 -1.372350
v 3.139707 5.436942 -2.966609
vt 0.751691 0.084862
vt 0.728672 0.164467
vt 0.587584 0.152345
vt 0.841856 0.148328
vt 0.472821 0.044608
vt 0.547799 0.007627
vt 0.750272 0.745271
vt 0.741183 0.600817
vt 0.839268 0.725870
vt 0.850816 0.300726
vt 0.814703 0.815615
vt 0.722663 0.847755
vt 0.907442 0.791158
vt 0.097739 0.732455
vt 0.193229 0.732977
vt 0.129396 0.822263
vt 0.143610 0.223451
vt 0.186798 0.072686
vt 0.340153 0.148027
vt 0.262180 0.797761
vt 0.493345 0.692244
vt 0.396175 0.773813
vt 0.967117 0.598340
vt 0.937586 0.692147
vt 0.246458 0.916762
vt 0.153789 0.937599
vt 0.230226 0.610705
vt 0.360086 0.059901
vt 0.294342 0.021897
vt 0.628535 0.879245
vt 0.701371 0.960729
vt 0.417397 0.577491
vt 0.365875 0.457688
vt 0.481665 0.517593
vt 0.820935 0.925377
vt 0.614197 0.545685
vt 0.330906 0.015086
vt 0.882324 0.307719
vt 0.920080 0.220545
vt 0.992616 0.340679
vt 0.903703 0.386187
vt 0.653585 0.034767
vt 0.409653 0.000000
vt 0.180038 0.462315
vt 0.253633 0.361227
vt 0.819093 0.361382
vt 0.453917 0.000128
vt 0.652026 0.798810
vt 0.575085 0.748637
vt 0.558368 0.814489
vt 0.914372 0.899317
vt 0.921527 1.000000
vt 0.915802 0.936065
vt 0.073316 0.646651
vt 0.246546 0.990385
vt 0.169640 1.000000
vt 0.625325 0.925457
vt 0.811275 0.984630
vt 0.537066 0.928287
vt 0.896991 0.458174
vt 0.640456 0.442381
vt 0.463212 0.647688
vt 0.021447 0.472801
vt 0.383533 0.962178
vt 0.356449 0.893808
vt 0.464250 0.939772
vt 0.467335 0.838223
vt 0.324044 0.981189
vt 0.551867 0.306542
vt 0.457003 0.326289
vt 1.000000 0.449079
vt 0.100061 0.135806
vt 0.046108 0.208954
vt 0.000000 0.367039
vt 0.012522 0.286174
vt 0.548511 0.858583
vn 0.9816 -0.1595 -0.1051
vn 0.9821 -0.1672 -0.0863
vn 0.9857 -0.1573 -0.0607
vn 0.9987 -0.0486 -0.0155
vn 0.9754 -0.2033 -0.0849
vn 0.9999 0.0060 -0.0081
vn 0.9996 0.0025 -0.0286
vn 0.9886 0.1476 0.0284
vn 0.9940 -0.1060 0.0255
vn 0.9897 0.1369 0.0424
vn 0.9998 -0.0004 -0.0211
vn 0.9996 -0.0173 0.0214
vn 0.9949 0.0984 -0.0242
vn 0.9818 -0.1655 0.0935
vn 0.9987 -0.0490 -0.0163
vn 0.9761 0.2143 0.0357
vn 0.9736 0.2230 0.0490
vn 0.9970 -0.0736 -0.0217
vn 0.9968 -0.0772 0.0184
vn 0.9947 0.0993 0.0259
vn 0.9930 -0.1178 0.0027
vn 0.9964 0.0800 -0.0282
vn 0.9963 -0.0808 -0.0299
vn 0.9944 0.1050 0.0074
vn 0.9984 0.0415 0.0393
vn 0.9946 -0.1031 -0.0084
vn 0.9745 -0.2240 0.0144
vn 0.9876 -0.1439 0.0626
vn 0.9816 -0.1597 -0.1050
vn 0.9940 -0.1074 -0.0220
vn 0.9865 -0.1637 -0.0030
vn 0.9781 -0.2075 -0.0185
vn 0.9768 -0.1832 -0.1113
vn 0.9913 -0.0994 -0.0863
vn 0.9772 -0.2118 -0.0136
vn 1.0000 0.0049 -0.0051
vn 0.9992 0.0356 -0.0201
vn 0.9983 0.0422 0.0407
vn 0.9976 0.0671 0.0165
vn 0.9985 0.0515 0.0174
vn 0.9960 0.0786 -0.0414
vn 0.9909 0.1219 -0.0562
vn 0.9960 0.0811 -0.0376
vn 0.9884 0.1434 -0.0492
vn 0.9980 -0.0627 -0.0066
vn 0.9970 -0.0739 -0.0211
vn 0.9317 0.3500 0.0974
vn 0.9955 0.0934 0.0135
vn 0.9959 0.0902 0.0105
vn 0.9913 0.1127 -0.0685
vn 0.9907 0.0708 0.1165
vn 0.9984 -0.0469 -0.0312
vn 0.9930 -0.1179 0.0016
vn 0.9929 -0.1190 0.0027
vn 0.9964 -0.0824 -0.0212
vn 0.9935 -0.0899 -0.0698
vn 0.9979 -0.0653 -0.0019
vn 0.9929 -0.1180 0.0131
vn 0.9961 -0.0777 -0.0410
vn 0.9986 -0.0419 -0.0318
vn 0.9901 -0.1395 -0.0124
vn 0.9698 0.2133 0.1183
vn 0.9847 0.1576 0.0742
vn 0.9539 0.2977 0.0380
vn 0.9528 0.2884 0.0949
vn 0.9895 -0.1396 -0.0383
vn 0.9889 -0.1477 -0.0151
vn 0.9908 -0.1326 -0.0261
vn 0.9941 -0.1013 -0.0392
vn 0.9916 -0.1190 0.0512
vn 0.9981 -0.0579 -0.0186
vn 0.9964 -0.0821 -0.0197
vn 0.9947 -0.0859 -0.0564
vn 0.9865 -0.1640 -0.0000
vn 0.9900 -0.1359 -0.0367
vn 0.9863 -0.1651 0.0019
vn 0.9889 -0.1479 -0.0122
vn 0.9816 -0.1590 -0.1060
vn 0.9937 -0.1119 0.0044
vn 0.9939 -0.1095 0.0101
vn 0.9943 -0.0938 -0.0499
vn 0.9955 -0.0703 -0.0637
vn 0.9905 -0.1370 -0.0153
vn 0.9904 -0.1369 -0.0162
vn 0.9878 -0.1557 0.0096
vn 0.9997 0.0018 0.0233
vn 0.9623 0.2180 0.1626
vn 0.9622 0.2662 0.0584
vn 0.9861 0.1458 0.0796
vn 0.9843 0.1765 0.0077
vn 0.9762 0.2063 0.0661
vn 0.9988 -0.0210 -0.0442
vn 0.9985 -0.0369 -0.0395
vn 0.9965 0.0694 -0.0470
vn 0.9869 -0.1313 0.0936
vn 0.9870 -0.1317 0.0920
vn 0.9849 -0.1730 0.0089
vn 0.9686 -0.2485 -0.0120
vn 0.9881 -0.1535 0.0006
vn 0.9877 -0.1227 0.0968
vn 0.9852 -0.1668 0.0390
vn 0.9885 0.1193 0.0927
vn 0.9900 0.1331 0.0462
vn 0.9834 0.1530 0.0978
vn 0.9930 -0.1169 0.0158
vn 0.9896 -0.1421 -0.0220
vn 0.9943 -0.0943 -0.0499
vn 0.9907 -0.1342 -0.0205
vn 0.9911 -0.1326 0.0082
vn 0.9883 -0.1474 0.0384
vn 0.9943 0.1018 0.0301
vn 0.9934 0.0862 0.0756
vn 0.9983 0.0431 0.0402
vn 0.9966 0.0490 0.0656
usemtl None
s off
f 1/1/1 2/2/1 3/3/1
f 1/1/2 4/4/2 2/2/2
f 5/5/3 6/6/3 3/3/3
f 7/7/4 8/8/4 9/9/4
f 10/10/5 2/2/5 4/4/5
f 7/7/6 11/11/6 12/12/6
f 11/11/7 9/9/7 13/13/7
f 14/14/8 15/15/8 16/16/8
f 17/17/9 19/18/9 18/19/9
f 15/15/10 20/20/10 16/16/10
f 9/9/11 11/11/11 7/7/11
f 20/20/12 21/21/12 22/22/12
f 21/21/13 20/20/13 15/15/13
f 9/9/14 24/23/14 23/24/14
f 9/9/15 8/8/15 24/23/15
f 25/25/16 16/16/16 20/20/16
f 25/25/17 26/26/17 16/16/17
f 21/21/18 15/15/18 27/27/18
f 28/28/19 19/18/19 29/29/19
f 30/30/20 12/12/20 31/31/20
f 32/32/21 34/33/21 33/34/21
f 11/11/22 35/35/22 12/12/22
f 32/32/23 33/34/23 36/36/23
f 31/31/24 12/12/24 35/35/24
f 23/24/25 13/13/25 9/9/25
f 28/28/26 29/29/26 37/37/26
f 38/38/27 39/39/27 40/40/27
f 41/41/28 38/38/28 40/40/28
f 42/42/29 1/1/29 3/3/29
f 28/28/30 37/37/30 43/43/30
f 34/33/31 44/44/31 45/45/31
f 10/10/32 39/39/32 38/38/32
f 46/46/33 3/3/33 2/2/33
f 5/5/34 47/47/34 6/6/34
f 10/10/35 4/4/35 39/39/35
f 48/48/36 7/7/36 12/12/36
f 48/48/37 49/49/37 7/7/37
f 48/48/38 12/12/38 30/30/38
f 48/48/39 50/50/39 49/49/39
f 50/50/40 48/48/40 30/30/40
f 51/51/41 11/11/41 13/13/41
f 52/52/42 35/35/42 53/53/42
f 51/51/43 35/35/43 11/11/43
f 51/51/44 53/53/44 35/35/44
f 54/54/45 15/15/45 14/14/45
f 54/54/46 27/27/46 15/15/46
f 26/26/47 55/55/47 56/56/47
f 57/57/48 30/30/48 31/31/48
f 58/58/49 31/31/49 35/35/49
f 58/58/50 35/35/50 52/52/50
f 57/57/51 59/59/51 30/30/51
f 49/49/52 8/8/52 7/7/52
f 34/33/53 32/32/53 27/27/53
f 44/44/54 34/33/54 27/27/54
f 8/8/55 60/60/55 24/23/55
f 61/61/56 8/8/56 36/36/56
f 62/62/57 27/27/57 32/32/57
f 27/27/58 63/63/58 44/44/58
f 62/62/59 32/32/59 8/8/59
f 32/32/60 36/36/60 8/8/60
f 27/27/61 54/54/61 63/63/61
f 64/64/62 65/65/62 66/66/62
f 65/65/63 67/67/63 66/66/63
f 55/55/64 26/26/64 25/25/64
f 55/55/65 25/25/65 68/68/65
f 46/46/66 69/69/66 3/3/66
f 70/70/67 3/3/67 69/69/67
f 33/34/68 69/69/68 61/61/68
f 33/34/69 61/61/69 36/36/69
f 41/41/70 40/40/70 60/60/70
f 71/71/71 60/60/71 40/40/71
f 60/60/72 71/71/72 24/23/72
f 61/61/73 46/46/73 8/8/73
f 10/10/74 46/46/74 2/2/74
f 46/46/75 61/61/75 69/69/75
f 10/10/76 38/38/76 46/46/76
f 46/46/77 38/38/77 41/41/77
f 6/6/78 42/42/78 3/3/78
f 60/60/79 8/8/79 46/46/79
f 46/46/80 41/41/80 60/60/80
f 47/47/81 5/5/81 28/28/81
f 28/28/82 43/43/82 47/47/82
f 33/34/83 34/33/83 70/70/83
f 33/34/84 70/70/84 69/69/84
f 34/33/85 45/45/85 70/70/85
f 62/62/86 21/21/86 27/27/86
f 64/64/87 68/68/87 65/65/87
f 68/68/88 25/25/88 65/65/88
f 65/65/89 22/22/89 67/67/89
f 65/65/90 20/20/90 22/22/90
f 65/65/91 25/25/91 20/20/91
f 21/21/92 62/62/92 8/8/92
f 49/49/93 21/21/93 8/8/93
f 22/22/94 21/21/94 67/67/94
f 72/72/95 17/17/95 73/73/95
f 17/17/96 72/72/96 19/18/96
f 45/45/97 44/44/97 63/63/97
f 45/45/98 74/74/98 75/75/98
f 45/45/99 63/63/99 74/74/99
f 17/17/100 45/45/100 73/73/100
f 45/45/101 75/75/101 73/73/101
f 59/59/102 76/76/102 30/30/102
f 76/76/103 59/59/103 67/67/103
f 59/59/104 66/66/104 67/67/104
f 18/19/105 19/18/105 28/28/105
f 18/19/106 3/3/106 70/70/106
f 5/5/107 18/19/107 28/28/107
f 5/5/108 3/3/108 18/19/108
f 45/45/109 18/19/109 70/70/109
f 17/17/110 18/19/110 45/45/110
f 76/76/111 67/67/111 50/50/111
f 50/50/112 30/30/112 76/76/112
f 21/21/113 50/50/113 67/67/113
f 50/50/114 21/21/114 49/49/114
