# Blender v2.79 (sub 0) OBJ File: ''
# www.blender.org
mtllib crack_only_29.mtl
o crack_only_29
v 2.826508 1.448936 -3.374172
v 2.850945 1.310717 -3.090951
v 2.868161 1.564641 -2.983680
v 2.872145 1.419454 -2.713181
v 2.886970 1.152950 -2.717555
v 2.885436 1.138214 -2.880983
v 2.809896 1.204801 -3.497817
v 2.833221 1.168992 -3.360152
v 2.873082 1.521535 -2.614651
v 2.893032 1.225954 -2.501633
v 2.798184 1.324490 -3.548758
v 2.792560 1.230996 -3.596706
v 2.869029 1.336242 -2.270324
v 2.871801 1.119591 -3.099873
vt 0.187406 0.818281
vt 0.000000 0.517420
vt 0.560704 0.614568
vt 0.384639 0.324758
vt 0.997137 0.344223
vt 1.000000 0.467117
vt 0.833321 0.825332
vt 0.722623 0.926981
vt 0.169009 0.244716
vt 0.870927 0.178215
vt 0.437021 0.957968
vt 0.641958 1.000000
vt 0.658726 0.000000
vt 1.000000 0.632280
vn 0.9948 -0.0259 -0.0985
vn 0.9979 -0.0501 -0.0416
vn 0.9983 0.0558 -0.0144
vn 0.9918 0.0967 -0.0835
vn 0.9865 0.0155 -0.1631
vn 0.9973 0.0456 -0.0567
vn 0.9973 0.0563 -0.0470
vn 0.9999 0.0033 -0.0129
vn 0.9858 0.0258 -0.1660
vn 0.9843 0.0217 -0.1752
vn 0.9941 0.0901 0.0602
vn 0.9912 0.1115 -0.0712
vn 0.9857 0.1134 -0.1246
vn 0.9969 0.0201 -0.0762
usemtl None
s off
f 1/1/1 3/2/1 2/3/1
f 2/3/2 3/2/2 4/4/2
f 5/5/3 6/6/3 4/4/3
f 6/6/4 2/3/4 4/4/4
f 8/7/5 7/8/5 1/1/5
f 9/9/6 10/10/6 4/4/6
f 5/5/7 4/4/7 10/10/7
f 9/9/8 4/4/8 3/2/8
f 11/11/9 7/8/9 12/12/9
f 11/11/10 1/1/10 7/8/10
f 13/13/11 10/10/11 9/9/11
f 14/14/12 2/3/12 6/6/12
f 2/3/13 14/14/13 8/7/13
f 8/7/14 1/1/14 2/3/14
