# Blender v2.79 (sub 0) OBJ File: ''
# www.blender.org
mtllib crack_only_2.mtl
o crack_only_2
v 2.844506 1.231217 -3.257290
v 2.849205 1.343006 -3.000485
v 2.811490 1.391939 -3.314611
v 2.846141 1.167983 -3.372289
v 2.830107 1.199547 -3.497347
v 2.873715 1.118781 -3.152446
v 2.892485 1.134322 -2.900023
vt 0.387706 0.385148
vt 1.000000 0.244783
vt 1.000000 0.775316
vt 0.059454 0.214482
vt 0.107533 0.000000
vt 0.000000 0.589810
vt 0.222604 1.000000
vn 0.9814 0.1690 -0.0915
vn 0.9816 0.1727 -0.0810
vn 0.9815 0.1730 -0.0822
vn 0.9813 0.1694 -0.0917
vn 0.9807 0.1770 -0.0834
vn 0.9830 0.1638 -0.0832
usemtl None
s off
f 1/1/1 3/2/1 2/3/1
f 1/1/2 4/4/2 3/2/2
f 5/5/3 3/2/3 4/4/3
f 6/6/4 1/1/4 2/3/4
f 1/1/5 6/6/5 4/4/5
f 7/7/6 6/6/6 2/3/6
