# Blender v2.79 (sub 0) OBJ File: ''
# www.blender.org
mtllib crack_only_173.mtl
o crack_only_173
v 2.765128 1.764575 -4.350697
v 2.899750 2.428509 -3.923685
v 2.870012 1.994685 -3.670465
v 2.799941 2.130138 -4.643118
v 3.134992 4.998785 -1.396203
v 3.149907 4.190612 -2.024823
v 3.140705 5.104693 -2.386619
v 3.097385 4.071357 -4.418934
v 3.059893 3.708828 -4.635662
v 3.125646 4.411805 -4.766778
v 3.045502 3.528080 -4.442066
v 3.070334 3.749090 -4.204119
v 2.794661 1.394161 -3.318967
v 2.755492 1.263222 -3.634548
v 3.046513 3.252509 -2.559805
v 2.965898 2.714355 -1.968347
v 2.888913 2.131012 -2.329771
v 2.656573 6.303933 -1.693443
v 2.726502 6.312077 -1.934463
v 2.846421 6.031599 -1.766898
v 2.510264 6.562563 -1.864407
v 2.535514 6.398450 -1.499942
v 3.169605 4.994400 -3.825459
v 3.154478 5.323278 -4.388142
v 3.163650 5.371334 -4.015652
v 3.083680 3.797731 -3.879035
v 3.035654 3.351256 -3.925949
v 2.836935 1.578013 -2.855105
v 2.795250 1.176709 -2.653611
v 2.804082 1.360077 -2.204451
v 3.156790 5.461383 -3.638201
v 3.048883 3.213947 -2.046990
v 3.040471 5.486958 -1.726368
v 2.995090 5.555733 -1.400029
v 2.792958 1.165210 -2.801970
v 3.054128 6.450786 -3.806136
v 3.123407 5.888012 -3.965709
v 3.104356 6.007279 -3.501866
v 2.965842 2.968232 -4.528855
v 2.883420 2.530275 -4.884679
v 3.026121 3.163196 -5.065647
v 3.017767 3.325780 -4.694013
v 3.149455 5.557189 -3.277340
v 3.025064 6.138787 -3.146087
v 3.157165 4.050714 -1.324589
v 2.748880 1.459017 -4.014465
v 2.784329 1.139308 -3.110124
v 2.819635 1.682594 -1.944220
v 2.804948 1.617652 -1.824243
v 2.825457 1.943261 -1.561425
v 2.974436 2.735045 -3.311986
v 2.775664 1.167558 -3.282043
v 2.932410 6.870075 -3.868985
v 2.961964 6.845217 -4.287467
v 3.116742 5.813498 -4.335088
v 3.062547 6.308575 -4.278290
v 3.100245 5.984308 -4.314808
v 2.995832 6.434368 -3.378400
v 3.089842 5.786818 -2.975300
v 2.945701 6.545383 -3.328505
v 2.962512 5.922989 -2.224309
v 2.690020 6.483738 -2.394529
v 2.828339 6.373772 -2.753814
v 2.761632 6.064033 -1.433518
v 2.475159 6.561228 -1.700837
v 3.160237 5.201708 -3.405943
v 3.142537 4.576961 -3.979416
v 3.100195 5.668450 -2.884728
v 3.158022 5.199441 -3.078657
v 3.128592 5.375562 -2.732919
v 2.577286 6.537550 -2.080792
v 2.951865 6.714551 -3.640221
v 2.443094 6.548347 -1.508588
v 3.143322 4.219992 -2.769662
v 2.867228 2.078262 -1.919981
v 3.031973 5.858220 -2.612357
v 3.089160 3.494048 -1.773966
v 3.057484 3.220042 -1.260159
v 2.852802 1.899909 -2.117748
v 3.064938 3.699429 -5.010729
v 2.905891 7.007085 -4.291179
v 2.974893 2.689769 -1.261446
v 2.878696 2.301187 -1.371878
v 3.085578 3.651926 -3.305183
v 2.999192 3.091136 -4.038341
vt 0.749196 0.074685
vt 0.668557 0.203618
vt 0.585667 0.134489
vt 0.839286 0.130648
vt 0.131420 0.728493
vt 0.258412 0.568007
vt 0.388786 0.718757
vt 0.864536 0.478493
vt 0.904580 0.408477
vt 0.967696 0.528457
vt 0.847536 0.382205
vt 0.796111 0.427917
vt 0.470479 0.038905
vt 0.545394 0.006875
vt 0.355397 0.387586
vt 0.181494 0.309884
vt 0.249072 0.196898
vt 0.258857 0.951122
vt 0.267386 0.900572
vt 0.321152 0.945484
vt 0.312429 0.992148
vt 0.212672 0.973612
vt 0.751805 0.658010
vt 0.909096 0.699879
vt 0.816025 0.719004
vt 0.715195 0.445776
vt 0.708319 0.365858
vt 0.359917 0.084503
vt 0.184498 0.064821
vt 0.291521 0.019651
vt 0.723341 0.745709
vt 0.222847 0.395483
vt 0.235500 0.805288
vt 0.154760 0.826870
vt 0.328916 0.013377
vt 0.806800 0.915510
vt 0.710935 0.845949
vt 0.824536 0.811590
vt 0.845942 0.281238
vt 0.918108 0.194048
vt 0.991487 0.300070
vt 0.903298 0.339395
vt 0.635131 0.772954
vt 0.625090 0.879511
vt 0.073812 0.563405
vt 0.650523 0.030509
vt 0.406482 0.000000
vt 0.131553 0.129083
vt 0.044677 0.185981
vt 0.098126 0.121111
vt 0.525534 0.274999
vt 0.451511 0.000072
vt 0.839590 0.987892
vt 0.945596 0.971446
vt 0.915726 0.787886
vt 0.921507 0.876894
vt 0.917558 0.818609
vt 0.696546 0.925014
vt 0.567207 0.822222
vt 0.688133 0.946128
vt 0.380351 0.868046
vt 0.533550 0.932632
vt 0.445571 0.962637
vt 0.183107 0.916044
vt 0.270398 0.996684
vt 0.653244 0.706593
vt 0.773595 0.580092
vt 0.539212 0.803932
vt 0.569556 0.715579
vt 0.488422 0.756598
vt 0.367036 0.981380
vt 0.774811 0.966993
vt 0.220581 1.000000
vt 0.449808 0.551852
vt 0.142103 0.199398
vt 0.477156 0.845345
vt 0.165013 0.452578
vt 0.022215 0.419089
vt 0.185102 0.162331
vt 1.000000 0.396058
vt 0.952954 1.000000
vt 0.000000 0.325791
vt 0.011474 0.254369
vt 0.562593 0.436523
vt 0.725986 0.316879
vn 0.9856 -0.1305 -0.1078
vn 0.9856 -0.1526 -0.0734
vn 0.9999 0.0129 0.0071
vn 0.9954 -0.0954 -0.0125
vn 0.9954 -0.0944 -0.0162
vn 0.9954 -0.0945 -0.0142
vn 0.9859 -0.1572 -0.0572
vn 0.9905 -0.1371 0.0103
vn 0.8240 0.5053 0.2562
vn 0.7669 0.5942 0.2426
vn 0.8225 0.5005 0.2701
vn 0.9997 0.0032 -0.0250
vn 0.9942 -0.1043 -0.0252
vn 0.9954 -0.0940 0.0188
vn 0.9997 0.0223 0.0129
vn 0.9859 -0.1664 -0.0171
vn 0.9664 0.2433 0.0831
vn 0.9943 -0.1068 -0.0071
vn 0.9928 0.1194 0.0101
vn 0.9389 0.3389 0.0591
vn 0.9770 -0.2108 0.0331
vn 0.9913 -0.1112 0.0709
vn 0.9953 0.0970 -0.0055
vn 0.9729 0.1736 0.1527
vn 0.9997 0.0229 -0.0058
vn 0.9824 -0.1595 -0.0975
vn 0.9939 -0.1083 -0.0187
vn 0.9919 -0.1117 0.0610
vn 0.9970 0.0777 -0.0004
vn 0.9903 -0.1390 0.0007
vn 0.9919 -0.0967 -0.0830
vn 0.9952 -0.0966 -0.0141
vn 0.9926 -0.1016 0.0665
vn 0.9571 0.2854 0.0506
vn 0.9957 0.0913 0.0174
vn 0.9961 0.0805 -0.0349
vn 0.9923 0.1191 -0.0330
vn 0.9961 0.0809 -0.0343
vn 0.9942 0.1006 -0.0382
vn 0.9686 0.2057 0.1398
vn 0.9916 0.1280 -0.0209
vn 0.9686 0.2057 0.1399
vn 0.9789 0.2001 0.0411
vn 0.9182 0.2968 0.2621
vn 0.9823 0.1835 -0.0377
vn 0.8604 0.4745 0.1860
vn 0.8052 0.5740 0.1489
vn 0.7942 0.5663 0.2203
vn 0.9996 0.0254 0.0136
vn 0.9997 0.0231 0.0109
vn 0.9939 -0.0888 0.0661
vn 0.9916 0.0802 0.1017
vn 0.9934 0.1109 0.0281
vn 0.9855 0.1486 0.0815
vn 0.7690 0.6172 0.1668
vn 0.7675 0.6181 0.1698
vn 0.9487 0.2932 0.1186
vn 0.8337 0.5241 0.1742
vn 0.9999 0.0067 -0.0086
vn 0.9996 0.0278 0.0070
vn 0.9994 -0.0343 0.0065
vn 0.9950 0.0925 0.0376
vn 0.9880 -0.1508 0.0329
vn 0.9777 0.2082 0.0279
vn 0.9802 0.1713 0.0997
vn 0.9985 -0.0509 0.0180
vn 0.9943 -0.0922 -0.0541
vn 0.9946 -0.0823 -0.0636
vn 0.9948 -0.0975 -0.0298
vn 0.9929 -0.1193 -0.0024
vn 0.9955 -0.0929 0.0191
vn 0.9917 -0.1246 0.0331
vn 0.9891 -0.1436 -0.0332
vn 0.9911 -0.1330 -0.0098
vn 0.9919 -0.1211 0.0369
vn 0.9927 -0.1060 0.0571
vn 0.9929 -0.1000 0.0646
vn 0.9874 -0.1463 0.0599
vn 0.9996 -0.0249 -0.0162
vn 1.0000 0.0029 0.0002
vn 0.9976 -0.0451 -0.0532
vn 0.9963 -0.0859 -0.0035
vn 0.9963 -0.0861 -0.0033
vn 0.9964 -0.0790 -0.0291
vn 0.9159 0.3889 0.0990
vn 0.9778 0.1629 0.1314
vn 0.9501 0.2658 0.1630
vn 0.9245 0.3547 0.1396
vn 0.9824 -0.1587 -0.0989
vn 0.9941 -0.1056 -0.0247
vn 0.9899 -0.1203 0.0749
vn 0.9972 -0.0737 0.0153
vn 0.9958 -0.0902 0.0157
vn 0.9435 0.3279 0.0472
vn 0.9209 0.3833 0.0714
vn 0.9766 0.1778 0.1207
vn 0.9123 0.3021 0.2765
vn 0.8020 0.5706 0.1768
vn 0.9271 0.3418 0.1541
vn 0.9779 0.2073 0.0284
vn 0.9725 0.1833 0.1435
vn 0.8856 0.4492 0.1181
vn 0.8823 0.4596 0.1015
vn 0.9862 -0.1653 -0.0095
vn 0.9718 -0.2348 -0.0205
vn 0.9879 -0.1538 -0.0179
vn 0.9871 -0.1486 0.0590
vn 0.9861 -0.1632 0.0311
vn 0.9950 -0.0999 -0.0014
vn 0.9927 -0.1202 -0.0124
vn 0.9915 -0.1267 -0.0283
vn 0.9915 -0.1277 -0.0250
vn 0.9937 -0.1108 0.0184
vn 0.9869 -0.1555 -0.0426
vn 0.9919 -0.1073 -0.0673
vn 0.9966 -0.0788 -0.0239
vn 0.9967 -0.0783 -0.0232
vn 0.9942 -0.1038 -0.0297
vn 0.9925 -0.1202 -0.0216
vn 0.9939 -0.1019 -0.0421
vn 0.9947 -0.1023 -0.0128
vn 0.9946 -0.1026 -0.0123
vn 0.9917 -0.1232 -0.0366
vn 0.9878 -0.1532 -0.0288
vn 0.9902 -0.1366 -0.0279
vn 0.9899 -0.1416 0.0047
vn 0.9808 -0.1861 -0.0589
vn 0.9805 -0.1960 0.0141
vn 0.8884 0.4202 0.1851
usemtl None
s off
f 1/1/1 2/2/1 3/3/1
f 1/1/2 4/4/2 2/2/2
f 5/5/3 6/6/3 7/7/3
f 8/8/4 9/9/4 10/10/4
f 11/11/5 8/8/5 12/12/5
f 11/11/6 9/9/6 8/8/6
f 13/13/7 14/14/7 3/3/7
f 15/15/8 16/16/8 17/17/8
f 18/18/9 20/19/9 19/20/9
f 19/20/10 21/21/10 18/18/10
f 22/22/11 20/19/11 18/18/11
f 23/23/12 24/24/12 25/25/12
f 12/12/13 26/26/13 27/27/13
f 28/28/14 30/29/14 29/30/14
f 23/23/15 25/25/15 31/31/15
f 15/15/16 32/32/16 16/16/16
f 33/33/17 34/34/17 5/5/17
f 28/28/18 29/30/18 35/35/18
f 36/36/19 38/37/19 37/38/19
f 33/33/20 20/19/20 34/34/20
f 39/39/21 40/40/21 41/41/21
f 42/42/22 39/39/22 41/41/22
f 43/43/23 31/31/23 38/37/23
f 44/44/24 43/43/24 38/37/24
f 45/45/25 6/6/25 5/5/25
f 46/46/26 1/1/26 3/3/26
f 28/28/27 35/35/27 47/47/27
f 48/48/28 50/49/28 49/50/28
f 25/25/29 37/38/29 31/31/29
f 15/15/30 17/17/30 51/51/30
f 13/13/31 52/52/31 14/14/31
f 11/11/32 12/12/32 27/27/32
f 49/50/33 30/29/33 48/48/33
f 53/53/34 36/36/34 54/54/34
f 38/37/35 31/31/35 37/38/35
f 55/55/36 25/25/36 24/24/36
f 56/56/37 37/38/37 57/57/37
f 55/55/38 37/38/38 25/25/38
f 55/55/39 57/57/39 37/38/39
f 58/58/40 44/44/40 38/37/40
f 56/56/41 36/36/41 37/38/41
f 58/58/42 38/37/42 36/36/42
f 59/59/43 43/43/43 44/44/43
f 60/60/44 44/44/44 58/58/44
f 56/56/45 54/54/45 36/36/45
f 61/61/46 63/62/46 62/63/46
f 64/64/47 20/19/47 22/22/47
f 65/65/48 22/22/48 18/18/48
f 66/66/49 31/31/49 43/43/49
f 66/66/50 23/23/50 31/31/50
f 67/67/51 23/23/51 66/66/51
f 68/68/52 69/69/52 43/43/52
f 69/69/53 68/68/53 70/70/53
f 59/59/54 68/68/54 43/43/54
f 71/71/55 21/21/55 19/20/55
f 71/71/56 19/20/56 62/63/56
f 72/72/57 36/36/57 53/53/57
f 73/73/58 22/22/58 65/65/58
f 74/74/59 7/7/59 6/6/59
f 69/69/60 66/66/60 43/43/60
f 66/66/61 69/69/61 67/67/61
f 69/69/62 70/70/62 7/7/62
f 75/75/63 17/17/63 16/16/63
f 7/7/64 33/33/64 5/5/64
f 76/76/65 7/7/65 70/70/65
f 69/69/66 7/7/66 67/67/66
f 52/52/67 13/13/67 28/28/67
f 28/28/68 47/47/68 52/52/68
f 45/45/69 77/77/69 6/6/69
f 77/77/70 45/45/70 78/78/70
f 79/79/71 30/29/71 28/28/71
f 28/28/72 17/17/72 79/79/72
f 13/13/73 3/3/73 28/28/73
f 77/77/74 78/78/74 32/32/74
f 75/75/75 79/79/75 17/17/75
f 48/48/76 79/79/76 50/49/76
f 79/79/77 48/48/77 30/29/77
f 75/75/78 50/49/78 79/79/78
f 10/10/79 24/24/79 67/67/79
f 74/74/80 67/67/80 7/7/80
f 23/23/81 67/67/81 24/24/81
f 8/8/82 67/67/82 12/12/82
f 8/8/83 10/10/83 67/67/83
f 26/26/84 12/12/84 67/67/84
f 61/61/85 76/76/85 63/62/85
f 68/68/86 76/76/86 70/70/86
f 72/72/87 60/60/87 36/36/87
f 58/58/88 36/36/88 60/60/88
f 14/14/89 46/46/89 3/3/89
f 11/11/90 42/42/90 9/9/90
f 42/42/91 41/41/91 9/9/91
f 80/80/92 9/9/92 41/41/92
f 9/9/93 80/80/93 10/10/93
f 81/81/94 53/53/94 54/54/94
f 59/59/95 63/62/95 76/76/95
f 68/68/96 59/59/96 76/76/96
f 59/59/97 44/44/97 63/62/97
f 60/60/97 63/62/97 44/44/97
f 65/65/98 18/18/98 21/21/98
f 33/33/99 61/61/99 20/19/99
f 33/33/100 7/7/100 61/61/100
f 61/61/101 7/7/101 76/76/101
f 61/61/102 19/20/102 20/19/102
f 61/61/103 62/63/103 19/20/103
f 16/16/104 32/32/104 78/78/104
f 16/16/105 82/82/105 83/83/105
f 16/16/106 78/78/106 82/82/106
f 75/75/107 16/16/107 50/49/107
f 16/16/108 83/83/108 50/49/108
f 74/74/109 15/15/109 84/84/109
f 84/84/110 15/15/110 51/51/110
f 85/85/111 27/27/111 51/51/111
f 28/28/112 3/3/112 51/51/112
f 17/17/113 28/28/113 51/51/113
f 2/2/114 85/85/114 51/51/114
f 2/2/115 51/51/115 3/3/115
f 84/84/116 67/67/116 74/74/116
f 26/26/117 67/67/117 84/84/117
f 27/27/118 26/26/118 84/84/118
f 27/27/119 84/84/119 51/51/119
f 6/6/120 77/77/120 32/32/120
f 15/15/121 74/74/121 6/6/121
f 32/32/122 15/15/122 6/6/122
f 39/39/123 27/27/123 85/85/123
f 39/39/124 85/85/124 2/2/124
f 39/39/125 11/11/125 27/27/125
f 39/39/126 42/42/126 11/11/126
f 39/39/127 2/2/127 4/4/127
f 39/39/128 4/4/128 40/40/128
f 64/64/129 34/34/129 20/19/129
