# Blender v2.79 (sub 0) OBJ File: ''
# www.blender.org
mtllib crack_only_40.mtl
o crack_only_40
v 2.843797 1.405894 -3.325948
v 2.861120 1.362267 -2.970006
v 2.881024 1.577303 -2.992825
v 2.838330 1.228206 -3.262071
v 2.849206 1.357236 -2.202360
v 2.868837 1.470232 -2.485701
v 2.881483 1.244373 -2.462101
v 2.874635 1.398162 -2.733768
v 2.823925 1.171716 -3.360517
v 2.800333 1.210312 -3.510606
v 2.901358 1.717651 -2.703728
v 2.881078 1.789385 -2.377466
v 2.885890 1.149893 -2.740607
v 2.854485 1.121417 -3.134205
v 2.837421 1.774654 -2.167827
v 2.904474 1.867992 -2.496607
v 2.794976 1.699392 -1.987958
v 2.806525 1.493829 -2.014773
v 2.759207 1.618029 -1.839648
v 2.936585 1.919042 -2.863739
v 2.898551 1.822477 -3.303988
v 2.806358 1.619349 -3.659388
v 2.795893 1.448054 -3.630206
v 2.764776 1.387759 -3.883456
vt 0.481648 0.268577
vt 0.605216 0.446045
vt 0.328566 0.433963
vt 0.241075 0.280158
vt 0.107198 0.799773
vt 0.040238 0.664019
vt 0.328866 0.676659
vt 0.308256 0.550632
vt 0.197068 0.227069
vt 0.286010 0.159367
vt 0.701270 0.599085
vt 0.698823 0.762303
vt 0.000000 0.521074
vt 0.072568 0.329960
vt 0.831787 0.713940
vt 0.619432 0.860512
vt 0.472648 0.938089
vt 0.327409 1.000000
vt 0.223447 0.903534
vt 1.000000 0.323675
vt 1.000000 0.544334
vt 0.616780 0.127499
vt 0.839934 0.131834
vt 0.610331 0.000000
vn 0.9933 -0.0984 -0.0604
vn 0.9972 -0.0503 -0.0547
vn 0.9933 0.0655 0.0950
vn 0.9984 0.0566 0.0069
vn 0.9944 -0.0965 -0.0422
vn 0.9920 -0.0686 -0.1058
vn 0.9838 -0.0584 -0.1697
vn 0.9951 -0.0639 0.0759
vn 0.9990 0.0453 0.0004
vn 0.9982 0.0128 -0.0590
vn 0.9785 0.0197 0.2052
vn 0.9690 0.0224 0.2460
vn 0.9886 -0.1401 -0.0547
vn 0.9864 -0.1643 0.0104
vn 0.9820 -0.0884 -0.1669
vn 0.9906 -0.1174 0.0703
vn 0.9842 -0.1502 0.0942
vn 0.9954 0.0474 -0.0829
vn 0.9948 0.0371 -0.0947
vn 0.9905 -0.0140 -0.1369
vn 0.9844 -0.0641 -0.1639
vn 0.9916 -0.0782 -0.1032
vn 0.9929 -0.0382 -0.1129
vn 0.9755 -0.1184 -0.1854
vn 0.9908 -0.1279 -0.0449
vn 0.9997 -0.0013 0.0237
vn 0.9909 -0.1342 -0.0045
vn 0.9790 0.0287 0.2019
vn 0.9788 0.0107 0.2046
vn 0.9725 0.0082 0.2329
vn 0.9974 -0.0543 0.0474
usemtl None
s off
f 1/1/1 3/2/1 2/3/1
f 2/3/2 4/4/2 1/1/2
f 5/5/3 7/6/3 6/7/3
f 7/6/4 8/8/4 6/7/4
f 2/3/5 3/2/5 8/8/5
f 9/9/6 1/1/6 4/4/6
f 9/9/7 10/10/7 1/1/7
f 11/11/8 12/12/8 6/7/8
f 13/13/9 8/8/9 7/6/9
f 14/14/10 2/3/10 8/8/10
f 12/12/11 16/15/11 15/16/11
f 17/17/12 19/18/12 18/19/12
f 3/2/13 21/20/13 20/21/13
f 20/21/14 11/11/14 3/2/14
f 23/22/15 22/23/15 1/1/15
f 20/21/16 16/15/16 11/11/16
f 16/15/17 12/12/17 11/11/17
f 13/13/18 14/14/18 8/8/18
f 14/14/19 4/4/19 2/3/19
f 4/4/20 14/14/20 9/9/20
f 23/22/21 1/1/21 10/10/21
f 22/23/22 23/22/22 24/24/22
f 23/22/23 10/10/23 24/24/23
f 22/23/24 21/20/24 1/1/24
f 3/2/25 1/1/25 21/20/25
f 3/2/26 6/7/26 8/8/26
f 3/2/27 11/11/27 6/7/27
f 17/17/28 18/19/28 5/5/28
f 15/16/29 5/5/29 12/12/29
f 5/5/30 15/16/30 17/17/30
f 5/5/31 6/7/31 12/12/31
