# Blender v2.79 (sub 0) OBJ File: ''
# www.blender.org
mtllib crack_only_12.mtl
o crack_only_12
v 2.821118 1.206680 -3.517005
v 2.841047 1.168640 -3.370785
v 2.829242 1.406458 -3.316862
v 2.890182 1.131832 -2.933718
v 2.866497 1.118101 -3.135123
v 2.872396 1.361038 -2.969171
v 2.899978 1.146853 -2.767661
vt 0.145411 0.000000
vt 1.000000 0.228228
vt 0.073700 0.200309
vt 0.151142 0.784358
vt 0.000000 0.520332
vt 1.000000 0.696201
vt 0.291594 1.000000
vn 0.9905 0.0753 -0.1154
vn 0.9910 0.0583 -0.1205
vn 0.9956 0.0672 -0.0648
vn 0.9917 0.0551 -0.1159
vn 0.9933 0.0702 -0.0922
usemtl None
s off
f 1/1/1 3/2/1 2/3/1
f 4/4/2 5/5/2 6/6/2
f 7/7/3 4/4/3 6/6/3
f 5/5/4 3/2/4 6/6/4
f 3/2/5 5/5/5 2/3/5
