# Blender v2.79 (sub 0) OBJ File: ''
# www.blender.org
mtllib crack_only_143.mtl
o crack_only_143
v 2.758714 1.765181 -4.346650
v 2.916078 2.426980 -3.923033
v 2.875250 1.992765 -3.669698
v 2.797875 2.131793 -4.642886
v 3.068836 3.522610 -4.459591
v 3.102247 3.763561 -4.203255
v 3.134034 4.099392 -4.167376
v 3.079571 3.763456 -4.671499
v 2.803466 1.398138 -3.315122
v 2.761422 1.252461 -3.619543
v 3.047410 2.910965 -2.510089
v 3.002689 2.758806 -2.025278
v 2.997186 2.613644 -2.465416
v 3.170315 5.054426 -3.827186
v 3.153127 4.586144 -3.974996
v 3.175776 5.016285 -4.162557
v 3.140856 4.505136 -4.366971
v 2.978582 2.964653 -4.535719
v 3.061121 3.568254 -4.760528
v 3.036351 3.334517 -4.690865
v 2.818747 1.683084 -1.944887
v 2.850399 1.923230 -2.064499
v 2.820831 1.945271 -1.560740
v 2.807032 1.359767 -2.204510
v 2.868161 2.077649 -1.920159
v 2.942569 2.507710 -1.683183
v 2.849563 1.745893 -2.475947
v 3.128403 3.823564 -3.835494
v 3.067999 3.323995 -3.894982
v 3.215019 4.550484 -1.347230
v 3.217833 4.603906 -1.720063
v 3.144549 5.029309 -1.397854
v 3.084246 3.233061 -1.931484
v 3.195080 3.986194 -2.676359
v 3.198186 4.192703 -2.031625
v 3.170141 4.985548 -1.940099
v 3.191059 4.570074 -2.248698
v 3.190443 4.942389 -2.456968
v 2.826243 1.393744 -2.871689
v 2.805274 1.174381 -2.655344
v 3.062232 5.475845 -1.809568
v 3.189516 4.102472 -1.319295
v 2.875128 2.302709 -1.372637
v 3.025254 2.983523 -1.399279
v 3.064406 3.221370 -1.258373
v 2.979383 2.689176 -1.260480
v 3.155091 3.715179 -2.958234
v 3.115000 3.381173 -2.595894
v 2.991906 2.687037 -3.360830
v 2.867264 1.746414 -2.828542
v 2.803712 1.163395 -2.795392
v 2.972758 2.934488 -4.671727
v 2.878965 2.535400 -4.883649
v 3.031700 3.162014 -5.066774
v 3.063280 3.699290 -5.009946
v 2.748607 1.459057 -4.014274
v 2.804437 1.617737 -1.824274
v 2.792529 1.147266 -3.180429
v 3.200957 4.657850 -2.506964
v 3.203020 4.253788 -2.312142
v 3.206116 4.528867 -2.532171
v 3.200761 4.683522 -2.669489
v 3.201623 4.494955 -2.753540
v 3.179217 4.441692 -3.388238
v 3.162856 4.259225 -3.734057
v 3.178288 4.104934 -3.072225
v 3.190178 4.920494 -2.817042
v 3.196010 4.774856 -2.843368
v 3.193205 4.435231 -3.025563
v 3.187100 4.937826 -3.148399
v 3.171098 4.733162 -3.587934
v 3.164433 5.270868 -3.371008
v 3.106241 5.408437 -2.169006
v 3.205404 4.923092 -4.544037
v 3.127701 4.415406 -4.766229
v 3.147821 5.451666 -4.377475
v 3.087388 3.305516 -1.596215
v 3.166155 3.990939 -3.351810
v 3.149689 4.056354 -3.848163
v 3.117487 4.172625 -4.524905
v 3.142583 4.304074 -4.198174
v 3.161852 5.418588 -3.889196
v 3.168473 5.324276 -3.681157
v 3.031305 5.515997 -1.398376
v 3.141729 5.309072 -2.369634
v 3.027351 3.094026 -4.017491
v 3.159350 5.222887 -2.631526
v 3.083440 4.051504 -4.884548
v 3.072116 3.906605 -4.934608
v 3.171324 5.147569 -3.072153
v 2.881974 2.043216 -2.323748
v 3.121731 3.544240 -3.413590
vt 0.818361 0.146522
vt 0.703601 0.299267
vt 0.639286 0.197735
vt 0.894264 0.232678
vt 0.838807 0.555802
vt 0.759181 0.688115
vt 0.770286 0.610591
vt 0.893250 0.612238
vt 0.549244 0.058409
vt 0.629953 0.025585
vt 0.330079 0.406442
vt 0.203668 0.368661
vt 0.319903 0.337125
vt 0.665230 0.906683
vt 0.706309 0.799439
vt 0.753426 0.899460
vt 0.809614 0.782330
vt 0.861688 0.426478
vt 0.900495 0.513065
vt 0.917599 0.567474
vt 0.188182 0.118185
vt 0.218349 0.174394
vt 0.086092 0.176802
vt 0.257904 0.044828
vt 0.179678 0.209535
vt 0.115229 0.308518
vt 0.327196 0.135414
vt 0.673401 0.623199
vt 0.691559 0.507695
vt 0.016583 0.780823
vt 0.114181 0.794762
vt 0.027764 0.889956
vt 0.176572 0.478534
vt 0.368202 0.656600
vt 0.197977 0.701307
vt 0.170236 0.882660
vt 0.253169 0.788856
vt 0.306058 0.875309
vt 0.432813 0.055837
vt 0.377129 0.004155
vt 0.133908 0.993050
vt 0.011457 0.677342
vt 0.034871 0.258988
vt 0.038223 0.417942
vt 0.000000 0.472611
vt 0.003316 0.348969
vt 0.443587 0.594909
vt 0.350179 0.515943
vt 0.554595 0.357794
vt 0.419697 0.137346
vt 0.413946 0.002213
vt 0.897547 0.420044
vt 0.955322 0.327762
vt 1.000000 0.474981
vt 0.982434 0.598703
vt 0.732608 0.074571
vt 0.156873 0.102418
vt 0.515117 0.000000
vt 0.320513 0.810306
vt 0.271302 0.716639
vt 0.327733 0.780857
vt 0.363051 0.816907
vt 0.386012 0.773953
vt 0.552920 0.764112
vt 0.471585 0.685338
vt 0.644605 0.723422
vt 0.400675 0.871836
vt 0.408267 0.838575
vt 0.457720 0.761275
vt 0.487575 0.877208
vt 0.603964 0.831830
vt 0.544473 0.954348
vt 0.228463 0.979819
vt 0.914874 0.763234
vt 0.853927 0.880171
vt 0.807829 1.000000
vt 0.088216 0.493779
vt 0.545546 0.660163
vt 0.675559 0.677088
vt 0.852718 0.706232
vt 0.766265 0.735420
vt 0.679787 0.990502
vt 0.625615 0.968031
vt 0.025866 1.000000
vt 0.281507 0.958420
vt 0.724919 0.454734
vt 0.350615 0.940031
vt 0.947784 0.679418
vt 0.961646 0.646158
vt 0.466601 0.924826
vt 0.285742 0.203594
vt 0.564012 0.557073
vn 0.9805 -0.1594 -0.1152
vn 0.9803 -0.1764 -0.0887
vn 0.9950 -0.0893 -0.0458
vn 0.9949 -0.0876 -0.0491
vn 0.9859 -0.1558 -0.0616
vn 0.9862 -0.1605 0.0406
vn 0.9988 -0.0434 0.0212
vn 0.9980 -0.0607 -0.0187
vn 0.9763 -0.2019 -0.0775
vn 0.9921 -0.1181 -0.0433
vn 0.9930 -0.0997 0.0626
vn 0.9928 -0.0945 0.0729
vn 0.9783 -0.1997 0.0553
vn 0.9958 -0.0853 0.0347
vn 0.9921 -0.1138 -0.0520
vn 0.9885 0.1485 0.0287
vn 0.9929 -0.1146 0.0319
vn 0.9890 0.1438 0.0351
vn 0.9990 0.0226 0.0374
vn 0.9942 0.0918 -0.0562
vn 0.9826 -0.1740 0.0653
vn 0.9972 -0.0705 0.0251
vn 0.9778 0.2074 0.0294
vn 0.9984 -0.0569 -0.0006
vn 0.9986 -0.0519 0.0056
vn 0.9815 -0.1886 0.0341
vn 0.9775 -0.1931 0.0848
vn 0.9987 -0.0099 -0.0499
vn 0.9875 -0.1577 -0.0081
vn 0.9888 -0.1468 -0.0259
vn 0.9899 -0.1380 -0.0310
vn 0.9951 -0.0985 -0.0034
vn 0.9722 -0.2340 0.0103
vn 0.9949 -0.0960 0.0317
vn 0.9863 -0.1540 0.0585
vn 0.9982 -0.0564 -0.0210
vn 0.9806 -0.1580 -0.1157
vn 0.9929 -0.1006 0.0633
vn 0.9888 -0.1469 -0.0259
vn 0.9722 -0.2339 0.0103
vn 0.9853 -0.1694 -0.0197
vn 0.9914 -0.0929 -0.0925
vn 0.9963 -0.0772 -0.0372
vn 0.9776 -0.2093 -0.0216
vn 0.9943 -0.1015 -0.0342
vn 0.9935 -0.0910 0.0685
vn 0.9984 0.0285 0.0479
vn 0.9992 0.0329 0.0244
vn 0.9984 0.0304 0.0486
vn 0.9993 0.0361 0.0045
vn 0.9992 0.0390 0.0050
vn 0.9996 0.0146 -0.0225
vn 0.9990 -0.0315 -0.0306
vn 0.9991 0.0426 -0.0033
vn 0.9991 0.0410 -0.0057
vn 0.9994 0.0095 -0.0330
vn 0.9997 0.0136 -0.0202
vn 0.9991 0.0413 -0.0071
vn 0.9996 0.0058 -0.0261
vn 0.9990 -0.0250 -0.0369
vn 0.9994 -0.0183 -0.0279
vn 0.9982 0.0581 -0.0147
vn 0.9864 0.1627 0.0252
vn 0.9777 0.1929 0.0835
vn 0.9884 -0.1520 0.0016
vn 0.9943 0.0910 0.0550
vn 0.9887 -0.1089 0.1034
vn 0.9931 -0.1163 0.0158
vn 0.9990 -0.0313 -0.0306
vn 0.9910 -0.1329 -0.0128
vn 0.9983 -0.0430 -0.0388
vn 0.9946 -0.0934 -0.0453
vn 0.9980 -0.0610 -0.0192
vn 0.9973 -0.0417 -0.0598
vn 0.9940 -0.0939 -0.0554
vn 0.9995 0.0193 -0.0231
vn 0.9727 0.2264 0.0511
vn 0.9999 -0.0002 0.0130
vn 0.9870 0.1015 0.1243
vn 0.9984 0.0279 0.0490
vn 0.9991 -0.0409 0.0083
vn 0.9879 -0.1443 -0.0570
vn 0.9840 -0.1712 -0.0499
vn 0.9927 -0.1182 0.0226
vn 0.9960 -0.0746 0.0499
vn 0.9917 0.1257 0.0254
vn 0.9910 -0.0878 -0.1007
vn 0.9962 -0.0790 -0.0373
vn 0.9966 -0.0573 -0.0594
vn 0.9957 -0.0706 -0.0605
vn 0.9987 -0.0270 -0.0430
vn 0.9963 -0.0791 -0.0330
vn 0.9944 0.1058 -0.0072
vn 0.9973 0.0725 0.0069
vn 0.9995 -0.0151 -0.0282
vn 0.9898 -0.1332 0.0495
vn 0.9889 -0.1370 0.0570
vn 0.9864 -0.1576 0.0472
vn 0.9983 0.0517 -0.0252
vn 0.9996 0.0255 0.0134
vn 0.9990 -0.0031 -0.0452
vn 0.9993 0.0022 -0.0374
vn 0.9990 -0.0037 -0.0453
vn 0.9837 -0.1762 0.0354
vn 0.9901 -0.1396 0.0147
vn 0.9915 -0.1290 0.0171
vn 0.9954 0.0948 0.0108
vn 0.9970 0.0769 -0.0052
vn 0.9813 -0.1860 0.0491
vn 0.9813 -0.1862 0.0495
vn 0.9993 0.0027 -0.0385
vn 0.9984 -0.0395 -0.0392
vn 0.9998 -0.0181 -0.0085
vn 0.9979 -0.0375 -0.0536
vn 0.9997 -0.0156 -0.0179
vn 0.9995 -0.0170 -0.0272
vn 0.9991 -0.0014 -0.0428
vn 0.9949 -0.0937 -0.0377
vn 0.9939 -0.1016 -0.0433
vn 0.9926 -0.1156 -0.0375
vn 0.9935 -0.0891 -0.0701
vn 0.9980 -0.0151 -0.0608
vn 0.9980 -0.0346 -0.0536
vn 0.9991 -0.0410 0.0047
vn 0.9971 -0.0501 -0.0564
vn 0.9943 -0.0876 -0.0606
vn 0.9832 -0.1775 0.0425
vn 0.9627 -0.2689 0.0316
vn 0.9867 -0.1616 -0.0166
vn 0.9806 -0.1586 -0.1148
vn 0.9927 -0.1091 -0.0521
vn 0.9961 -0.0713 -0.0519
vn 0.9920 -0.1258 -0.0039
vn 0.9842 -0.1757 0.0232
vn 0.9898 -0.1383 0.0329
vn 0.9826 -0.1842 0.0225
vn 0.9846 -0.1728 0.0281
vn 0.9869 -0.1525 -0.0522
vn 0.9875 -0.1573 -0.0074
vn 0.9873 -0.1584 -0.0099
vn 0.9874 -0.1526 -0.0413
vn 0.9875 -0.1521 -0.0407
vn 0.9932 -0.1110 0.0363
vn 0.9880 -0.1506 -0.0347
vn 0.9789 -0.2033 -0.0224
vn 0.9837 -0.1716 -0.0533
vn 0.9884 -0.1344 -0.0711
vn 0.9885 -0.1507 -0.0159
vn 0.9941 -0.1053 -0.0245
usemtl None
s off
f 1/1/1 2/2/1 3/3/1
f 1/1/2 4/4/2 2/2/2
f 5/5/3 7/6/3 6/7/3
f 5/5/4 8/8/4 7/6/4
f 9/9/5 10/10/5 3/3/5
f 11/11/6 12/12/6 13/13/6
f 14/14/7 15/15/7 16/16/7
f 17/17/8 16/16/8 15/15/8
f 18/18/9 2/2/9 4/4/9
f 5/5/10 20/19/10 19/20/10
f 21/21/11 22/22/11 23/23/11
f 22/22/12 21/21/12 24/24/12
f 25/25/13 26/26/13 23/23/13
f 22/22/14 24/24/14 27/27/14
f 6/7/15 28/28/15 29/29/15
f 30/30/16 31/31/16 32/32/16
f 33/33/17 34/34/17 35/35/17
f 31/31/18 36/36/18 32/32/18
f 36/36/19 37/37/19 38/38/19
f 37/37/20 36/36/20 31/31/20
f 25/25/21 23/23/21 22/22/21
f 39/39/22 24/24/22 40/40/22
f 41/41/23 32/32/23 36/36/23
f 31/31/24 30/30/24 42/42/24
f 31/31/25 42/42/25 35/35/25
f 25/25/26 12/12/26 26/26/26
f 26/26/27 43/43/27 23/23/27
f 37/37/28 31/31/28 35/35/28
f 44/44/29 45/45/29 46/46/29
f 47/47/30 48/48/30 49/49/30
f 9/9/31 3/3/31 50/50/31
f 39/39/32 40/40/32 51/51/32
f 52/52/33 53/53/33 54/54/33
f 20/19/34 54/54/34 19/20/34
f 20/19/35 52/52/35 54/54/35
f 55/55/36 19/20/36 54/54/36
f 56/56/37 1/1/37 3/3/37
f 21/21/38 23/23/38 57/57/38
f 48/48/39 11/11/39 49/49/39
f 18/18/40 53/53/40 52/52/40
f 11/11/41 13/13/41 49/49/41
f 9/9/42 58/58/42 10/10/42
f 5/5/43 19/20/43 8/8/43
f 18/18/44 4/4/44 53/53/44
f 5/5/45 6/7/45 29/29/45
f 57/57/46 24/24/46 21/21/46
f 59/59/47 38/38/47 37/37/47
f 60/60/48 37/37/48 35/35/48
f 61/61/49 59/59/49 37/37/49
f 59/59/50 62/62/50 38/38/50
f 62/62/51 59/59/51 61/61/51
f 62/62/52 61/61/52 63/63/52
f 64/64/53 66/65/53 65/66/53
f 67/67/54 38/38/54 62/62/54
f 67/67/55 62/62/55 68/68/55
f 63/63/56 69/69/56 68/68/56
f 62/62/57 63/63/57 68/68/57
f 68/68/58 70/70/58 67/67/58
f 68/68/59 69/69/59 70/70/59
f 71/71/60 15/15/60 14/14/60
f 71/71/61 14/14/61 70/70/61
f 72/72/62 70/70/62 14/14/62
f 73/73/63 36/36/63 38/38/63
f 73/73/64 41/41/64 36/36/64
f 17/17/65 75/74/65 74/75/65
f 74/75/66 76/76/66 16/16/66
f 16/16/67 17/17/67 74/75/67
f 77/77/68 33/33/68 35/35/68
f 78/78/69 65/66/69 66/65/69
f 47/47/70 34/34/70 48/48/70
f 79/79/71 65/66/71 78/78/71
f 79/79/72 78/78/72 28/28/72
f 80/80/73 75/74/73 17/17/73
f 80/80/74 17/17/74 81/81/74
f 79/79/75 28/28/75 6/7/75
f 14/14/76 82/82/76 83/83/76
f 84/84/77 32/32/77 41/41/77
f 83/83/78 72/72/78 14/14/78
f 85/85/79 73/73/79 38/38/79
f 61/61/80 37/37/80 60/60/80
f 60/60/81 35/35/81 34/34/81
f 18/18/82 29/29/82 86/86/82
f 18/18/83 86/86/83 2/2/83
f 39/39/84 50/50/84 24/24/84
f 50/50/85 27/27/85 24/24/85
f 38/38/86 87/87/86 85/85/86
f 8/8/87 88/88/87 75/74/87
f 80/80/88 8/8/88 75/74/88
f 89/89/89 88/88/89 8/8/89
f 80/80/90 7/6/90 8/8/90
f 89/89/91 8/8/91 55/55/91
f 8/8/92 19/20/92 55/55/92
f 87/87/93 38/38/93 67/67/93
f 90/90/94 70/70/94 72/72/94
f 81/81/95 17/17/95 15/15/95
f 91/91/96 27/27/96 50/50/96
f 91/91/97 22/22/97 27/27/97
f 25/25/98 22/22/98 91/91/98
f 82/82/99 16/16/99 76/76/99
f 82/82/100 14/14/100 16/16/100
f 64/64/101 15/15/101 71/71/101
f 71/71/102 70/70/102 64/64/102
f 64/64/103 65/66/103 15/15/103
f 11/11/104 33/33/104 12/12/104
f 48/48/105 33/33/105 11/11/105
f 33/33/106 48/48/106 34/34/106
f 87/87/107 67/67/107 90/90/107
f 90/90/108 67/67/108 70/70/108
f 91/91/109 13/13/109 12/12/109
f 25/25/110 91/91/110 12/12/110
f 69/69/111 64/64/111 70/70/111
f 64/64/112 69/69/112 66/65/112
f 60/60/113 34/34/113 61/61/113
f 34/34/114 66/65/114 69/69/114
f 34/34/115 63/63/115 61/61/115
f 69/69/116 63/63/116 34/34/116
f 78/78/117 66/65/117 34/34/117
f 47/47/118 92/92/118 78/78/118
f 47/47/119 78/78/119 34/34/119
f 29/29/120 28/28/120 78/78/120
f 29/29/121 78/78/121 92/92/121
f 7/6/122 15/15/122 65/66/122
f 79/79/123 7/6/123 65/66/123
f 81/81/124 15/15/124 7/6/124
f 80/80/125 81/81/125 7/6/125
f 79/79/126 6/7/126 7/6/126
f 33/33/127 26/26/127 12/12/127
f 26/26/128 46/46/128 43/43/128
f 44/44/129 46/46/129 26/26/129
f 10/10/130 56/56/130 3/3/130
f 9/9/131 50/50/131 39/39/131
f 58/58/132 9/9/132 39/39/132
f 77/77/133 35/35/133 42/42/133
f 77/77/134 45/45/134 44/44/134
f 45/45/135 77/77/135 42/42/135
f 44/44/136 26/26/136 33/33/136
f 77/77/137 44/44/137 33/33/137
f 18/18/138 5/5/138 29/29/138
f 18/18/139 52/52/139 20/19/139
f 18/18/140 20/19/140 5/5/140
f 86/86/141 29/29/141 49/49/141
f 29/29/142 92/92/142 49/49/142
f 91/91/143 50/50/143 49/49/143
f 50/50/144 3/3/144 49/49/144
f 13/13/145 91/91/145 49/49/145
f 2/2/146 86/86/146 49/49/146
f 2/2/147 49/49/147 3/3/147
f 47/47/148 49/49/148 92/92/148
f 39/39/149 51/51/149 58/58/149
