# Blender v2.79 (sub 0) OBJ File: ''
# www.blender.org
mtllib crack_only_139.mtl
o crack_only_139
v 2.804818 1.398749 -3.314532
v 2.762291 1.250915 -3.617403
v 2.875491 1.992677 -3.669662
v 3.141796 4.521173 -4.379422
v 3.153018 4.599998 -3.969435
v 3.175866 5.058360 -4.141730
v 3.082604 3.271849 -1.536773
v 3.066265 3.221727 -1.257893
v 3.026315 2.981308 -1.400379
v 2.939550 2.392465 -2.165361
v 2.971869 2.472526 -2.516695
v 3.004012 2.757473 -2.023234
v 3.049937 2.909985 -2.510583
v 3.162009 3.739009 -2.231520
v 3.194553 3.941638 -2.691437
v 3.199767 4.211735 -2.031077
v 2.868586 2.077371 -1.920241
v 2.941699 2.507716 -1.683313
v 2.820314 1.945496 -1.560663
v 2.851282 1.620337 -2.770881
v 2.806185 1.174170 -2.655501
v 2.807250 1.359744 -2.204515
v 2.874705 2.302890 -1.372727
v 2.979579 2.689150 -1.260438
v 2.805277 1.163131 -2.794434
v 3.127245 3.648221 -1.291896
v 2.972621 2.934532 -4.671760
v 2.878088 2.536409 -4.883447
v 3.032797 3.161782 -5.066996
v 3.037290 3.334959 -4.690706
v 3.062330 3.567761 -4.759970
v 3.063029 3.699269 -5.009828
v 2.748641 1.459052 -4.014297
v 2.758169 1.765233 -4.346306
v 3.209409 4.908737 -4.553379
v 3.128083 4.414217 -4.766616
v 2.819488 1.682675 -1.944330
v 2.804376 1.617747 -1.824278
v 3.074537 3.200017 -1.744635
v 3.117725 3.383623 -2.596940
v 3.027731 2.850153 -3.071083
v 2.795928 1.141934 -3.151609
v 3.119102 4.239143 -4.598026
v 3.144630 4.306896 -4.184830
v 3.118582 4.069328 -4.410264
v 3.200204 4.371493 -2.823807
v 3.203669 4.355825 -2.572746
v 3.203640 4.518126 -2.760031
v 3.206681 4.555630 -2.538042
v 3.201540 4.708399 -2.689136
v 3.189523 4.955714 -2.464093
v 3.095993 3.253564 -2.113319
v 3.152866 4.056101 -3.844754
v 3.155037 4.222515 -3.917354
v 3.168042 3.946755 -3.465015
v 3.191156 4.104465 -1.319368
v 3.222517 4.609843 -1.718738
v 3.218821 4.555537 -1.346201
v 3.199678 5.192954 -4.432456
v 3.180241 5.201993 -4.206001
v 3.184822 5.038084 -3.046826
v 3.189257 4.949672 -2.826955
v 3.192282 4.758556 -3.127471
v 3.117312 3.804781 -4.193949
v 3.104264 3.916730 -4.498569
v 3.082475 3.815326 -4.709268
v 3.175246 5.133046 -3.492920
v 3.116730 3.499734 -3.127156
v 3.125399 3.532547 -3.432575
v 3.207353 4.351726 -2.292203
v 3.001040 2.744721 -3.424037
v 3.138850 3.790364 -3.632807
v 3.072975 3.319680 -3.891631
v 3.112214 3.414517 -1.829198
v 2.906320 2.477695 -4.232351
v 2.797758 2.131887 -4.642873
v 3.083440 4.051504 -4.884548
v 3.072473 3.906901 -4.934673
v 2.867405 1.979211 -2.253139
v 2.979135 2.964772 -4.535923
v 3.175200 5.118485 -2.576015
v 3.125470 5.313730 -1.987147
v 3.184048 4.336830 -3.273104
v 3.085764 5.370853 -1.398878
vt 0.566160 0.064115
vt 0.647843 0.031657
vt 0.650637 0.213201
vt 0.800031 0.836485
vt 0.729963 0.963252
vt 0.691345 0.850241
vt 0.072374 0.497010
vt 0.000000 0.480896
vt 0.040919 0.424100
vt 0.250206 0.290762
vt 0.341100 0.315387
vt 0.207527 0.378058
vt 0.333020 0.422210
vt 0.247686 0.620312
vt 0.365323 0.675859
vt 0.188286 0.732154
vt 0.190636 0.210182
vt 0.122138 0.312121
vt 0.098372 0.172639
vt 0.420268 0.111197
vt 0.275574 0.040047
vt 0.396486 0.001387
vt 0.043824 0.257276
vt 0.008522 0.350963
vt 0.433084 0.000558
vt 0.002659 0.585241
vt 0.899777 0.455124
vt 0.961278 0.360130
vt 1.000000 0.516336
vt 0.898842 0.553081
vt 0.913622 0.610531
vt 0.977290 0.645489
vt 0.749043 0.086681
vt 0.831753 0.164927
vt 0.903145 0.815607
vt 0.839922 0.933472
vt 0.202720 0.114515
vt 0.172207 0.096977
vt 0.127937 0.482320
vt 0.348717 0.538736
vt 0.480952 0.414780
vt 0.527096 0.000000
vt 0.861439 0.771071
vt 0.752016 0.782435
vt 0.814599 0.727730
vt 0.393937 0.781109
vt 0.328299 0.774082
vt 0.375122 0.815598
vt 0.316358 0.821735
vt 0.353844 0.860366
vt 0.291365 0.916587
vt 0.223796 0.500562
vt 0.666342 0.717789
vt 0.683020 0.758819
vt 0.568237 0.686783
vt 0.003173 0.696718
vt 0.100651 0.824237
vt 0.003726 0.806150
vt 0.804221 1.000000
vt 0.744771 0.998741
vt 0.443053 0.944031
vt 0.386621 0.919947
vt 0.468132 0.878046
vt 0.761613 0.661213
vt 0.839971 0.691894
vt 0.896746 0.669831
vt 0.558743 0.972581
vt 0.486140 0.573678
vt 0.565747 0.585814
vt 0.254764 0.769451
vt 0.575113 0.393530
vt 0.614565 0.650765
vt 0.689350 0.539576
vt 0.146942 0.535849
vt 0.791239 0.337981
vt 0.904201 0.257902
vt 0.939373 0.728974
vt 0.954606 0.694627
vt 0.279340 0.190973
vt 0.863698 0.460734
vt 0.318469 0.956902
vt 0.161443 0.994945
vt 0.512326 0.778387
vt 0.006493 1.000000
vn 0.9859 -0.1549 -0.0628
vn 0.9983 -0.0560 -0.0166
vn 0.9836 -0.1786 0.0255
vn 0.9804 -0.1913 0.0466
vn 0.9837 -0.1761 0.0376
vn 0.9953 -0.0921 0.0298
vn 0.9784 -0.1985 0.0586
vn 0.9952 -0.0915 0.0353
vn 0.9811 -0.1892 0.0409
vn 0.9777 -0.1928 0.0837
vn 0.9870 -0.1606 -0.0057
vn 0.9950 -0.1002 0.0015
vn 0.9898 -0.1389 0.0330
vn 0.9715 -0.2369 0.0117
vn 0.9947 -0.0972 0.0329
vn 0.9859 -0.1564 0.0602
vn 0.9982 -0.0535 -0.0253
vn 0.9806 -0.1575 -0.1171
vn 0.9859 -0.1670 0.0112
vn 0.9922 -0.1036 0.0689
vn 0.9855 -0.1168 0.1228
vn 0.9835 -0.1794 0.0238
vn 0.9890 -0.1459 -0.0236
vn 0.9843 -0.1754 -0.0203
vn 0.9912 -0.0936 -0.0935
vn 0.9927 -0.0963 0.0729
vn 0.9976 -0.0673 -0.0167
vn 0.9996 -0.0099 -0.0255
vn 0.9980 -0.0485 -0.0411
vn 0.9967 -0.0467 -0.0659
vn 0.9997 -0.0177 -0.0149
vn 0.9998 -0.0188 -0.0105
vn 0.9998 -0.0125 -0.0146
vn 0.9991 0.0414 0.0079
vn 0.9997 0.0172 -0.0166
vn 0.9912 -0.1319 0.0120
vn 0.9981 -0.0348 -0.0499
vn 0.9981 -0.0612 0.0010
vn 0.9982 -0.0595 0.0031
vn 0.9967 -0.0005 0.0814
vn 0.9963 0.0078 0.0852
vn 0.9995 0.0291 -0.0085
vn 0.9990 0.0415 -0.0163
vn 0.9997 0.0181 -0.0190
vn 0.9993 -0.0078 -0.0360
vn 0.9964 -0.0567 -0.0635
vn 0.9951 -0.0710 -0.0687
vn 0.9966 -0.0436 -0.0701
vn 0.9994 0.0310 -0.0149
vn 0.9894 -0.1418 -0.0329
vn 0.9899 -0.1384 -0.0322
vn 0.9947 -0.1010 0.0174
vn 0.9998 -0.0128 -0.0133
vn 0.9997 -0.0182 -0.0134
vn 0.9992 -0.0391 0.0081
vn 0.9917 -0.1203 -0.0459
vn 0.9954 -0.0669 -0.0687
vn 0.9873 -0.1562 -0.0280
vn 0.9908 -0.1346 0.0137
vn 0.9970 -0.0519 -0.0576
vn 0.9992 -0.0000 -0.0389
vn 0.9968 -0.0558 -0.0564
vn 0.9915 -0.1089 -0.0710
vn 0.9989 -0.0000 -0.0466
vn 0.9989 -0.0474 0.0064
vn 0.9837 -0.1755 0.0378
vn 0.9901 -0.1405 0.0067
vn 0.9908 -0.1350 0.0082
vn 0.9925 -0.1036 -0.0642
vn 0.9988 0.0500 -0.0016
vn 0.9939 -0.1103 -0.0046
vn 0.9899 -0.1377 0.0331
vn 0.9901 -0.1369 0.0299
vn 0.9984 -0.0562 -0.0011
vn 0.9989 0.0376 0.0284
vn 0.9767 -0.1860 -0.1068
vn 0.9772 -0.1871 -0.1008
vn 0.9940 -0.1063 -0.0247
vn 0.9965 -0.0786 -0.0286
vn 0.9957 -0.0701 -0.0607
vn 0.9902 -0.0860 -0.1104
vn 0.9957 -0.0469 -0.0804
vn 0.9964 -0.0528 -0.0657
vn 0.9982 -0.0256 -0.0547
vn 0.9966 -0.0737 -0.0360
vn 0.9950 -0.0939 0.0341
vn 0.9903 -0.1354 -0.0294
vn 0.9959 -0.0703 -0.0565
vn 0.9833 -0.1759 -0.0463
vn 0.9756 -0.2011 -0.0886
vn 0.9723 -0.2337 0.0054
vn 0.9775 -0.2095 -0.0259
vn 0.9876 -0.1529 -0.0367
vn 0.9905 -0.1374 -0.0094
vn 0.9840 -0.1771 -0.0215
vn 0.9820 -0.1821 0.0502
vn 0.9821 -0.1818 0.0489
vn 0.9830 -0.1638 0.0830
vn 0.9935 -0.0950 0.0629
vn 0.9936 -0.0913 0.0665
vn 0.9774 -0.2036 0.0566
vn 0.9920 0.1180 0.0447
vn 0.9989 -0.0037 -0.0459
vn 0.9990 -0.0008 -0.0448
vn 0.9942 0.0555 0.0919
vn 0.9913 0.1081 -0.0749
vn 0.9860 -0.1657 0.0190
vn 0.9866 -0.1598 0.0342
vn 0.9913 -0.1306 0.0174
vn 0.9942 -0.0981 0.0440
vn 0.9835 -0.1709 -0.0588
vn 0.9874 -0.1424 -0.0687
vn 0.9835 -0.1727 0.0534
vn 0.9821 -0.1858 0.0302
vn 0.9624 -0.2699 0.0296
vn 0.9822 -0.1868 0.0189
vn 0.9860 -0.1659 -0.0171
vn 0.9865 0.1556 0.0515
vn 0.9860 0.1631 0.0336
vn 0.9873 -0.1588 -0.0088
vn 0.9885 -0.1341 -0.0701
vn 0.9871 -0.1600 -0.0117
vn 0.9806 -0.1579 -0.1165
vn 0.9869 -0.1562 -0.0403
vn 0.9925 -0.1028 -0.0657
vn 0.9916 -0.1077 -0.0721
vn 0.9963 0.0862 -0.0022
vn 0.9975 0.0707 0.0083
vn 0.9993 -0.0073 -0.0354
vn 0.9958 -0.0698 0.0589
vn 0.9922 -0.0941 -0.0818
vn 0.9989 -0.0207 -0.0413
vn 0.9991 -0.0236 -0.0341
vn 0.9949 -0.0991 -0.0202
vn 0.9996 -0.0285 0.0042
usemtl None
s off
f 1/1/1 2/2/1 3/3/1
f 4/4/2 6/5/2 5/6/2
f 7/7/3 8/8/3 9/9/3
f 10/10/4 11/11/4 12/12/4
f 13/13/5 12/12/5 11/11/5
f 14/14/6 15/15/6 16/16/6
f 17/17/7 18/18/7 19/19/7
f 20/20/8 22/21/8 21/22/8
f 17/17/9 12/12/9 18/18/9
f 17/17/9 10/10/9 12/12/9
f 18/18/10 23/23/10 19/19/10
f 9/9/11 8/8/11 24/24/11
f 20/20/12 21/22/12 25/25/12
f 7/7/13 26/26/13 8/8/13
f 27/27/14 28/28/14 29/29/14
f 30/30/15 29/29/15 31/31/15
f 30/30/16 27/27/16 29/29/16
f 32/32/17 31/31/17 29/29/17
f 33/33/18 34/34/18 3/3/18
f 4/4/19 36/35/19 35/36/19
f 37/37/20 19/19/20 38/38/20
f 6/5/21 4/4/21 35/36/21
f 7/7/22 9/9/22 39/39/22
f 40/40/23 13/13/23 41/41/23
f 13/13/24 11/11/24 41/41/24
f 1/1/25 42/42/25 2/2/25
f 38/38/26 22/21/26 37/37/26
f 43/43/27 36/35/27 4/4/27
f 44/44/28 4/4/28 5/6/28
f 43/43/29 4/4/29 45/45/29
f 44/44/30 45/45/30 4/4/30
f 46/46/31 47/47/31 15/15/31
f 46/46/32 48/48/32 49/49/32
f 47/47/33 46/46/33 49/49/33
f 50/50/34 51/51/34 49/49/34
f 50/50/35 49/49/35 48/48/35
f 52/52/36 15/15/36 14/14/36
f 53/53/37 54/54/37 55/55/37
f 56/56/38 57/57/38 58/58/38
f 56/56/39 16/16/39 57/57/39
f 59/59/40 6/5/40 35/36/40
f 59/59/41 60/60/41 6/5/41
f 61/61/42 62/62/42 63/63/42
f 62/62/43 50/50/43 63/63/43
f 50/50/44 48/48/44 63/63/44
f 63/63/45 48/48/45 46/46/45
f 64/64/46 65/65/46 45/45/46
f 65/65/47 64/64/47 66/66/47
f 53/53/48 64/64/48 54/54/48
f 63/63/49 67/67/49 61/61/49
f 68/68/50 15/15/50 40/40/50
f 40/40/51 41/41/51 68/68/51
f 68/68/52 69/69/52 55/55/52
f 70/70/53 47/47/53 49/49/53
f 70/70/54 15/15/54 47/47/54
f 70/70/55 16/16/55 15/15/55
f 64/64/56 30/30/56 31/31/56
f 64/64/57 31/31/57 66/66/57
f 71/71/58 69/69/58 41/41/58
f 41/41/59 69/69/59 68/68/59
f 54/54/60 64/64/60 45/45/60
f 44/44/61 5/6/61 54/54/61
f 54/54/62 45/45/62 44/44/62
f 53/53/63 55/55/63 72/72/63
f 63/63/64 5/6/64 67/67/64
f 5/6/65 6/5/65 67/67/65
f 13/13/66 52/52/66 12/12/66
f 40/40/67 52/52/67 13/13/67
f 52/52/68 40/40/68 15/15/68
f 73/73/69 53/53/69 72/72/69
f 62/62/70 51/51/70 50/50/70
f 56/56/71 74/74/71 16/16/71
f 7/7/72 74/74/72 56/56/72
f 7/7/73 56/56/73 26/26/73
f 16/16/74 70/70/74 57/57/74
f 49/49/75 51/51/75 70/70/75
f 75/75/76 3/3/76 34/34/76
f 75/75/77 34/34/77 76/76/77
f 64/64/78 53/53/78 73/73/78
f 43/43/79 66/66/79 36/35/79
f 66/66/80 43/43/80 45/45/80
f 66/66/81 77/77/81 36/35/81
f 65/65/82 66/66/82 45/45/82
f 78/78/83 77/77/83 66/66/83
f 78/78/84 66/66/84 32/32/84
f 66/66/85 31/31/85 32/32/85
f 20/20/86 79/79/86 22/21/86
f 1/1/87 3/3/87 20/20/87
f 42/42/88 1/1/88 20/20/88
f 75/75/89 80/80/89 73/73/89
f 75/75/90 76/76/90 80/80/90
f 80/80/91 28/28/91 27/27/91
f 80/80/92 76/76/92 28/28/92
f 71/71/93 20/20/93 3/3/93
f 11/11/94 20/20/94 71/71/94
f 11/11/95 71/71/95 41/41/95
f 17/17/96 79/79/96 10/10/96
f 10/10/97 79/79/97 11/11/97
f 79/79/98 20/20/98 11/11/98
f 37/37/99 79/79/99 19/19/99
f 79/79/100 37/37/100 22/21/100
f 17/17/101 19/19/101 79/79/101
f 81/81/102 82/82/102 51/51/102
f 83/83/103 5/6/103 63/63/103
f 83/83/104 54/54/104 5/6/104
f 51/51/105 82/82/105 70/70/105
f 70/70/106 82/82/106 57/57/106
f 39/39/107 74/74/107 7/7/107
f 52/52/108 74/74/108 39/39/108
f 52/52/109 14/14/109 74/74/109
f 74/74/110 14/14/110 16/16/110
f 71/71/111 75/75/111 73/73/111
f 71/71/112 3/3/112 75/75/112
f 52/52/113 18/18/113 12/12/113
f 52/52/114 39/39/114 18/18/114
f 18/18/115 24/24/115 23/23/115
f 9/9/116 18/18/116 39/39/116
f 9/9/117 24/24/117 18/18/117
f 84/84/118 57/57/118 82/82/118
f 57/57/119 84/84/119 58/58/119
f 80/80/120 30/30/120 64/64/120
f 80/80/121 64/64/121 73/73/121
f 80/80/122 27/27/122 30/30/122
f 2/2/123 33/33/123 3/3/123
f 73/73/124 69/69/124 71/71/124
f 73/73/125 72/72/125 69/69/125
f 69/69/126 72/72/126 55/55/126
f 81/81/127 51/51/127 62/62/127
f 62/62/128 61/61/128 81/81/128
f 46/46/129 83/83/129 63/63/129
f 68/68/130 55/55/130 83/83/130
f 68/68/131 83/83/131 15/15/131
f 54/54/132 83/83/132 55/55/132
f 46/46/133 15/15/133 83/83/133
f 20/20/134 25/25/134 42/42/134
f 60/60/135 67/67/135 6/5/135
