# Blender v2.79 (sub 0) OBJ File: ''
# www.blender.org
mtllib crack_only_54.mtl
o crack_only_54
v 2.841410 1.356149 -2.205205
v 2.871679 1.471222 -2.491167
v 2.869593 1.244394 -2.466676
v 2.875332 1.400374 -2.733293
v 2.862469 1.364152 -2.968805
v 2.876372 1.573183 -2.912475
v 2.787935 1.234625 -3.609278
v 2.833259 1.627844 -3.659544
v 2.768703 1.350687 -3.815676
v 2.750803 1.470214 -4.028920
v 2.907246 2.037096 -2.345752
v 2.881796 2.028154 -2.205151
v 2.878124 1.798931 -2.379588
v 2.833932 1.634842 -2.153889
v 2.840508 1.842900 -2.083360
v 2.819353 1.539547 -2.107321
v 2.818074 1.694242 -2.044344
v 2.741096 1.627260 -4.187370
v 2.815457 1.718948 -3.953819
v 2.799688 1.493462 -2.017503
v 2.750225 1.633207 -1.820777
v 2.802622 2.064363 -1.720325
v 2.825945 2.090110 -1.819745
v 2.796278 1.942236 -1.830674
v 2.868871 1.159745 -2.665464
v 2.848213 1.123016 -3.132052
v 2.946381 2.286921 -2.203168
v 2.921838 1.992864 -3.772884
v 2.916750 1.856240 -3.450122
v 3.025827 2.213480 -3.527986
v 2.972667 1.986308 -3.246139
v 2.930244 1.922939 -2.664218
v 2.999981 2.329316 -2.559865
v 3.053838 2.313556 -3.147201
v 2.778228 1.825766 -1.822934
v 2.837461 1.405534 -3.317256
v 2.813558 1.189059 -3.429417
v 2.848679 2.187347 -1.800323
v 2.797420 2.061314 -1.507363
v 2.846827 1.972026 -4.054752
v 2.735759 1.772044 -4.332797
v 2.922021 2.097667 -3.868844
vt 0.179962 0.748659
vt 0.094673 0.655303
vt 0.280991 0.647997
vt 0.226056 0.561944
vt 0.197432 0.478585
vt 0.369699 0.499637
vt 0.089438 0.252055
vt 0.184469 0.179965
vt 0.417514 0.236260
vt 0.282573 0.105464
vt 0.747170 0.702505
vt 0.735250 0.752380
vt 0.548968 0.689363
vt 0.406782 0.768550
vt 0.577219 0.794681
vt 0.326466 0.784566
vt 0.452334 0.807774
vt 0.411788 0.050487
vt 0.493238 0.132941
vt 0.285373 0.816212
vt 0.391750 0.887040
vt 0.750092 0.924689
vt 0.650508 0.884999
vt 0.775069 0.889492
vt 0.027435 0.584525
vt 0.000000 0.419547
vt 0.954929 0.754071
vt 0.728370 0.197612
vt 0.612303 0.310929
vt 0.918853 0.284593
vt 0.723305 0.383327
vt 0.659919 0.589032
vt 1.000000 0.627757
vt 1.000000 0.419558
vt 0.552857 0.887192
vt 0.232160 0.355879
vt 0.053209 0.315134
vt 0.857230 0.896744
vt 0.744630 1.000000
vt 0.531341 0.000000
vt 0.705407 0.098511
vt 0.815292 0.164321
vn 0.9943 0.0023 0.1062
vn 0.9998 -0.0073 0.0172
vn 0.9975 -0.0539 -0.0462
vn 0.9769 -0.1339 -0.1663
vn 0.9775 -0.1379 -0.1594
vn 0.9754 -0.1431 0.1675
vn 0.9941 0.0068 0.1080
vn 0.9873 -0.0683 0.1436
vn 0.9875 -0.0776 0.1369
vn 0.9659 -0.0216 0.2581
vn 0.9822 -0.0639 0.1768
vn 0.9557 -0.1776 -0.2346
vn 0.9766 0.0026 0.2152
vn 0.9813 -0.0656 0.1812
vn 0.9594 -0.0508 0.2773
vn 0.9632 -0.2060 0.1726
vn 0.9997 -0.0249 0.0070
vn 0.9984 -0.0247 -0.0507
vn 0.9577 -0.2403 0.1581
vn 0.9546 -0.2396 0.1769
vn 0.9600 -0.2628 -0.0961
vn 0.9423 -0.3134 -0.1178
vn 0.9548 -0.2864 -0.0791
vn 0.9862 -0.0704 0.1499
vn 0.9832 -0.1373 0.1202
vn 0.9768 -0.1920 0.0947
vn 0.9714 -0.2370 -0.0131
vn 0.9701 -0.1985 -0.1394
vn 0.9748 -0.2079 0.0813
vn 0.9568 -0.2908 0.0061
vn 0.9806 -0.1132 0.1603
vn 0.9657 -0.1349 0.2221
vn 0.9463 -0.2081 0.2475
vn 0.9818 -0.1247 0.1432
vn 0.9577 -0.1364 0.2534
vn 0.9702 -0.0870 0.2263
vn 0.9763 -0.0965 0.1937
vn 0.9973 -0.0097 -0.0727
vn 0.9911 -0.0445 -0.1254
vn 0.9520 -0.2561 0.1676
vn 0.9541 -0.2546 0.1579
vn 0.9886 -0.1432 0.0468
vn 0.9874 -0.1496 0.0516
vn 0.9401 -0.3403 0.0181
vn 0.9971 -0.0729 0.0233
vn 0.9509 -0.2012 -0.2352
vn 0.9528 -0.2067 -0.2222
vn 0.9471 -0.2177 -0.2359
vn 0.9682 -0.2198 0.1194
vn 0.9688 -0.2029 0.1427
vn 0.9984 -0.0384 -0.0412
vn 0.9537 -0.2041 -0.2211
vn 0.9482 -0.2119 -0.2367
vn 0.9508 -0.2750 -0.1427
vn 0.9688 -0.2141 -0.1249
vn 0.9903 -0.1369 -0.0221
vn 0.9999 0.0074 0.0129
vn 0.9836 -0.1791 -0.0204
vn 0.9650 -0.2143 -0.1510
vn 0.9883 -0.0320 -0.1489
vn 0.9876 -0.1258 -0.0938
vn 0.9960 -0.0455 -0.0769
usemtl None
s off
f 1/1/1 3/2/1 2/3/1
f 3/2/2 4/4/2 2/3/2
f 5/5/3 6/6/3 4/4/3
f 7/7/4 9/8/4 8/9/4
f 8/9/5 9/8/5 10/10/5
f 11/11/6 12/12/6 13/13/6
f 14/14/7 1/1/7 2/3/7
f 14/14/8 2/3/8 13/13/8
f 14/14/9 13/13/9 15/15/9
f 16/16/10 1/1/10 14/14/10
f 14/14/11 17/17/11 16/16/11
f 18/18/12 19/19/12 10/10/12
f 16/16/13 20/20/13 1/1/13
f 17/17/14 20/20/14 16/16/14
f 17/17/15 21/21/15 20/20/15
f 22/22/16 24/23/16 23/24/16
f 25/25/17 4/4/17 3/2/17
f 26/26/18 5/5/18 4/4/18
f 27/27/19 12/12/19 11/11/19
f 27/27/20 23/24/20 12/12/20
f 28/28/21 29/29/21 8/9/21
f 30/30/22 29/29/22 28/28/22
f 29/29/23 31/31/23 6/6/23
f 32/32/24 13/13/24 2/3/24
f 11/11/25 13/13/25 32/32/25
f 33/33/26 32/32/26 34/34/26
f 31/31/27 34/34/27 6/6/27
f 34/34/28 31/31/28 29/29/28
f 32/32/29 6/6/29 34/34/29
f 34/34/30 29/29/30 30/30/30
f 15/15/31 12/12/31 23/24/31
f 35/35/32 15/15/32 24/23/32
f 24/23/33 15/15/33 23/24/33
f 15/15/34 13/13/34 12/12/34
f 17/17/35 35/35/35 21/21/35
f 35/35/36 17/17/36 15/15/36
f 17/17/37 14/14/37 15/15/37
f 26/26/38 36/36/38 5/5/38
f 36/36/39 26/26/39 37/37/39
f 23/24/40 27/27/40 38/38/40
f 38/38/41 22/22/41 23/24/41
f 39/39/42 21/21/42 35/35/42
f 35/35/43 24/23/43 39/39/43
f 38/38/44 39/39/44 22/22/44
f 22/22/45 39/39/45 24/23/45
f 18/18/46 41/40/46 40/41/46
f 19/19/47 18/18/47 40/41/47
f 28/28/48 40/41/48 42/42/48
f 11/11/49 33/33/49 27/27/49
f 33/33/50 11/11/50 32/32/50
f 25/25/51 26/26/51 4/4/51
f 42/42/52 30/30/52 28/28/52
f 19/19/53 40/41/53 28/28/53
f 28/28/54 8/9/54 19/19/54
f 19/19/55 8/9/55 10/10/55
f 6/6/56 32/32/56 2/3/56
f 6/6/57 2/3/57 4/4/57
f 29/29/58 6/6/58 36/36/58
f 8/9/59 29/29/59 36/36/59
f 37/37/60 7/7/60 36/36/60
f 7/7/61 8/9/61 36/36/61
f 36/36/62 6/6/62 5/5/62
