# Blender v2.79 (sub 0) OBJ File: ''
# www.blender.org
mtllib crack_only_59.mtl
o crack_only_59
v 2.944170 1.898419 -3.307618
v 3.035735 2.410250 -3.520569
v 3.019736 2.195602 -3.040802
v 2.874985 1.571509 -2.995458
v 2.834799 1.630941 -3.658334
v 2.778285 1.290261 -3.706970
v 2.749289 1.495067 -4.063293
v 2.908181 1.761931 -2.697387
v 2.954503 2.063145 -2.640256
v 2.880564 1.802001 -2.382680
v 2.841763 1.950335 -2.007562
v 2.842544 1.834110 -2.097007
v 2.741757 1.657052 -4.213052
v 2.851810 1.953035 -4.017977
v 2.740840 1.833788 -4.394124
v 2.830058 1.766867 -3.914445
v 2.819844 2.077051 -1.714629
v 2.800605 1.957993 -1.831192
v 2.795192 1.994555 -1.534116
v 2.848339 2.131654 -1.837625
v 2.889632 2.172886 -4.093091
v 2.836847 2.066013 -4.261299
v 2.893871 2.108398 -3.976865
v 2.884904 2.297182 -1.624334
v 2.814787 1.739729 -2.014979
v 2.786256 1.530344 -1.964852
v 2.753072 1.626309 -1.827414
v 3.076186 2.439648 -3.182218
v 2.908977 2.360285 -1.771508
v 2.967599 2.454942 -2.052137
v 2.769969 1.909953 -4.451283
v 3.049862 2.517361 -2.509170
v 2.877592 1.472702 -2.746999
v 2.870951 1.521084 -2.474674
v 2.787067 1.842452 -1.804096
v 2.846392 1.123481 -3.131427
v 2.836707 1.409964 -3.314161
v 2.862097 1.361086 -2.970196
v 2.813320 1.189360 -3.430037
v 2.840248 1.356271 -2.205181
v 2.865025 1.153311 -2.754638
v 2.967513 2.275520 -3.882288
v 2.769918 1.810926 -1.676812
v 2.932775 2.007536 -3.713041
v 2.854346 2.223024 -1.433053
vt 0.597662 0.375156
vt 0.999943 0.323557
vt 0.803342 0.473224
vt 0.325382 0.465761
vt 0.415801 0.250455
vt 0.163673 0.222456
vt 0.337379 0.112656
vt 0.445110 0.570159
vt 0.666432 0.599524
vt 0.445806 0.674496
vt 0.519211 0.802307
vt 0.441611 0.768993
vt 0.466369 0.069156
vt 0.609468 0.015942
vt 0.681412 0.143859
vt 0.534560 0.171229
vt 0.585580 0.902535
vt 0.507876 0.958691
vt 0.505406 0.860136
vt 0.638902 0.864277
vt 0.852715 0.127046
vt 0.781066 0.067976
vt 0.797053 0.162914
vt 0.747621 0.940059
vt 0.362612 0.792459
vt 0.256886 0.849665
vt 0.202148 0.801497
vt 1.000000 0.435623
vt 0.808468 0.894151
vt 0.907454 0.805794
vt 0.673397 0.000000
vt 1.000000 0.658657
vt 0.234020 0.543752
vt 0.246906 0.634601
vt 0.417197 0.864949
vt 0.005555 0.405587
vt 0.227673 0.355576
vt 0.168198 0.466698
vt 0.072828 0.309871
vt 0.101327 0.717030
vt 0.000000 0.530147
vt 0.921227 0.200053
vt 0.381871 0.905468
vt 0.707785 0.246055
vt 0.674365 1.000000
vn 0.9785 -0.1984 -0.0561
vn 0.9735 -0.2274 -0.0224
vn 0.9773 -0.1393 -0.1596
vn 0.9800 -0.1703 0.1033
vn 0.9794 -0.1710 0.1077
vn 0.9844 -0.1031 0.1426
vn 0.9533 -0.2138 -0.2135
vn 0.9608 -0.1627 -0.2243
vn 0.9541 -0.2228 -0.2002
vn 0.9789 -0.1997 0.0424
vn 0.9597 -0.2598 0.1070
vn 0.9619 -0.2207 -0.1616
vn 0.9630 -0.2192 -0.1568
vn 0.9464 -0.3127 0.0804
vn 0.9588 -0.0645 0.2765
vn 0.9574 -0.2740 -0.0907
vn 0.9626 -0.2676 0.0427
vn 0.9535 -0.2829 0.1038
vn 0.9283 -0.3713 -0.0218
vn 0.9410 -0.2812 -0.1884
vn 0.9738 -0.2206 0.0559
vn 0.9941 -0.0967 -0.0489
vn 0.9741 -0.2234 0.0343
vn 0.9933 -0.0653 0.0955
vn 0.9927 -0.1126 0.0442
vn 0.9796 -0.1916 0.0604
vn 0.9702 -0.2276 0.0828
vn 0.9715 -0.0601 0.2293
vn 0.9405 -0.2500 0.2303
vn 0.9970 -0.0146 -0.0757
vn 0.9920 -0.0425 -0.1192
vn 0.9751 -0.1312 0.1790
vn 0.9726 -0.1313 0.1918
vn 0.9618 -0.1741 0.2112
vn 0.9972 -0.0655 -0.0365
vn 0.9981 -0.0287 -0.0550
vn 0.9974 -0.0407 0.0600
vn 0.9982 -0.0382 -0.0463
vn 0.9334 -0.2983 -0.1996
vn 0.9930 0.0075 0.1177
vn 0.9831 -0.0864 0.1612
vn 0.9762 -0.1587 0.1478
vn 0.9619 -0.0676 0.2651
vn 0.9935 -0.1090 0.0315
vn 0.9766 -0.1985 0.0824
vn 0.9821 -0.1644 0.0916
vn 0.9743 -0.1962 -0.1107
vn 0.9940 -0.0709 -0.0834
vn 0.9550 -0.2206 0.1984
vn 0.9681 -0.2032 0.1465
vn 0.9569 -0.2221 0.1868
vn 0.9955 -0.0768 -0.0548
vn 0.9753 -0.1370 -0.1733
vn 0.9589 -0.2839 0.0012
vn 0.9615 -0.2705 0.0487
vn 0.9673 -0.2109 -0.1408
vn 0.9766 -0.2148 -0.0084
vn 0.9596 -0.2639 -0.0980
vn 0.9743 -0.2091 -0.0837
vn 0.9310 -0.2734 -0.2418
vn 0.9551 -0.2010 -0.2177
vn 0.9492 -0.2703 -0.1610
vn 0.9503 -0.2286 -0.2114
vn 0.9676 -0.2152 -0.1321
usemtl None
s off
f 1/1/1 2/2/1 3/3/1
f 1/1/2 3/3/2 4/4/2
f 5/5/3 6/6/3 7/7/3
f 8/8/4 3/3/4 9/9/4
f 8/8/5 9/9/5 10/10/5
f 11/11/6 12/12/6 10/10/6
f 13/13/7 15/14/7 14/15/7
f 13/13/8 16/16/8 7/7/8
f 16/16/9 13/13/9 14/15/9
f 17/17/10 19/18/10 18/19/10
f 17/17/11 18/19/11 20/20/11
f 21/21/12 14/15/12 22/22/12
f 21/21/13 23/23/13 14/15/13
f 20/20/14 24/24/14 17/17/14
f 25/25/15 27/26/15 26/27/15
f 28/28/16 3/3/16 2/2/16
f 24/24/17 20/20/17 29/29/17
f 30/30/18 29/29/18 20/20/18
f 31/31/19 22/22/19 15/14/19
f 22/22/20 14/15/20 15/14/20
f 32/32/21 10/10/21 9/9/21
f 8/8/22 33/33/22 4/4/22
f 8/8/23 4/4/23 3/3/23
f 8/8/24 10/10/24 34/34/24
f 33/33/25 8/8/25 34/34/25
f 28/28/26 32/32/26 3/3/26
f 32/32/27 9/9/27 3/3/27
f 35/35/28 11/11/28 18/19/28
f 18/19/29 11/11/29 20/20/29
f 36/36/30 37/37/30 38/38/30
f 37/37/31 36/36/31 39/39/31
f 11/11/32 25/25/32 12/12/32
f 35/35/33 25/25/33 11/11/33
f 25/25/34 35/35/34 27/26/34
f 33/33/35 38/38/35 4/4/35
f 33/33/36 36/36/36 38/38/36
f 33/33/25 34/34/25 40/40/25
f 41/41/37 33/33/37 40/40/37
f 41/41/38 36/36/38 33/33/38
f 21/21/39 42/42/39 23/23/39
f 25/25/40 40/40/40 34/34/40
f 25/25/41 34/34/41 10/10/41
f 25/25/42 10/10/42 12/12/42
f 26/27/43 40/40/43 25/25/43
f 35/35/44 18/19/44 19/18/44
f 35/35/45 19/18/45 43/43/45
f 43/43/46 27/26/46 35/35/46
f 44/44/47 42/42/47 2/2/47
f 37/37/48 4/4/48 38/38/48
f 11/11/49 30/30/49 20/20/49
f 32/32/50 30/30/50 10/10/50
f 11/11/51 10/10/51 30/30/51
f 39/39/52 5/5/52 37/37/52
f 39/39/53 6/6/53 5/5/53
f 17/17/54 24/24/54 19/18/54
f 24/24/55 45/45/55 19/18/55
f 5/5/56 1/1/56 37/37/56
f 4/4/57 37/37/57 1/1/57
f 5/5/58 44/44/58 1/1/58
f 2/2/59 1/1/59 44/44/59
f 44/44/60 23/23/60 42/42/60
f 44/44/61 14/15/61 23/23/61
f 44/44/62 5/5/62 16/16/62
f 16/16/63 14/15/63 44/44/63
f 16/16/64 5/5/64 7/7/64
