# Blender v2.79 (sub 0) OBJ File: ''
# www.blender.org
mtllib crack_only_175.mtl
o crack_only_175
v 3.096489 4.071443 -4.419301
v 3.059022 3.709677 -4.635622
v 3.125705 4.411787 -4.766816
v 2.765837 1.764509 -4.351144
v 2.897458 2.428772 -3.923726
v 2.869382 1.994916 -3.670557
v 2.800225 2.129910 -4.643150
v 3.134992 4.998785 -1.396203
v 3.149342 4.190588 -2.024744
v 3.141293 4.927637 -2.466670
v 3.044270 3.528369 -4.441140
v 3.068959 3.748466 -4.204156
v 2.795025 1.394326 -3.318808
v 2.755109 1.265406 -3.638311
v 2.649414 6.309155 -1.694741
v 2.712048 6.313652 -1.934503
v 2.849462 6.015077 -1.768161
v 2.519073 6.554647 -1.884359
v 2.540983 6.400942 -1.496813
v 3.169605 4.994400 -3.825459
v 3.154244 5.323295 -4.388151
v 3.162979 5.371119 -4.015530
v 3.080742 3.796034 -3.881895
v 3.033214 3.353621 -3.924674
v 3.155201 5.461752 -3.637964
v 3.057307 5.466658 -2.188349
v 3.038549 5.487119 -1.733213
v 2.794478 1.176888 -2.653478
v 2.803842 1.360103 -2.204446
v 2.836324 1.587067 -2.767877
v 2.997846 5.541714 -1.400112
v 3.056829 6.430047 -3.798681
v 3.123852 5.879353 -3.961929
v 3.099546 5.991174 -3.504607
v 3.147200 5.555330 -3.279818
v 3.038544 6.114394 -3.151406
v 3.091231 3.724689 -3.011649
v 2.989029 2.847759 -2.942270
v 2.964440 2.685936 -3.363293
v 3.127095 5.383074 -2.734657
v 3.136652 4.218564 -2.767652
v 3.075253 3.619086 -3.420903
v 2.948670 2.604582 -1.528689
v 2.974449 2.689827 -1.261541
v 2.879075 2.301025 -1.371798
v 2.792100 1.165355 -2.802496
v 2.966476 2.967550 -4.529369
v 2.883927 2.529692 -4.884796
v 3.026140 3.163192 -5.065651
v 3.018206 3.325986 -4.693938
v 3.150489 4.047469 -1.325964
v 2.748962 1.459005 -4.014524
v 2.780850 1.147660 -3.159064
v 3.055731 3.219706 -1.260611
v 2.887501 6.901564 -3.814800
v 2.971202 6.796345 -4.285817
v 2.983662 6.454284 -3.370351
v 2.767463 6.040578 -1.431109
v 2.820941 6.164855 -2.092484
v 2.399923 6.673616 -1.775590
v 3.155985 5.206048 -3.134933
v 3.141402 4.576498 -3.979741
v 3.009917 5.905777 -2.636744
v 3.050868 5.845337 -2.856409
v 3.090704 5.765367 -2.993026
v 3.109081 5.888949 -4.326427
v 2.907535 6.717231 -3.526128
v 2.883777 6.994929 -4.064064
v 2.879944 7.050177 -4.291404
v 3.086663 6.075999 -4.304785
v 2.633832 6.576091 -2.443944
v 2.939859 5.995050 -2.313322
v 2.774459 6.454302 -2.778997
v 3.149786 4.926990 -3.155316
v 2.859699 6.556847 -3.120063
v 3.020919 3.061208 -2.269126
v 2.867721 2.077939 -1.920075
v 3.065378 3.699466 -5.010937
v 2.997074 3.091186 -4.040869
v 2.825857 1.943088 -1.561485
v 2.940253 2.521693 -2.289298
v 2.805021 1.617640 -1.824238
v 2.309890 6.724234 -1.565484
vt 0.858775 0.480793
vt 0.903336 0.413619
vt 0.959155 0.532618
vt 0.768555 0.082357
vt 0.679242 0.206293
vt 0.600361 0.136306
vt 0.855394 0.139670
vt 0.106610 0.703957
vt 0.244177 0.550848
vt 0.380960 0.669525
vt 0.793130 0.429246
vt 0.847450 0.386204
vt 0.490657 0.039465
vt 0.569021 0.010536
vt 0.221603 0.925212
vt 0.232522 0.872618
vt 0.283987 0.921015
vt 0.277482 0.963922
vt 0.172759 0.945260
vt 0.734138 0.653044
vt 0.889524 0.698463
vt 0.794789 0.714442
vt 0.711410 0.444139
vt 0.708614 0.366569
vt 0.700011 0.737953
vt 0.325229 0.768765
vt 0.208200 0.781715
vt 0.312107 0.015496
vt 0.354483 0.084236
vt 0.201802 0.056527
vt 0.123634 0.798073
vt 0.770818 0.902568
vt 0.681571 0.832524
vt 0.796381 0.803686
vt 0.610338 0.761573
vt 0.593822 0.861206
vt 0.484478 0.449725
vt 0.439072 0.299155
vt 0.542724 0.262419
vt 0.464121 0.742967
vt 0.436871 0.540371
vt 0.586863 0.422976
vt 0.066255 0.286184
vt 0.000000 0.306467
vt 0.016044 0.236821
vt 0.350233 0.010422
vt 0.852601 0.287179
vt 0.930528 0.203962
vt 0.997441 0.310006
vt 0.906394 0.345908
vt 0.059282 0.540454
vt 0.672123 0.036342
vt 0.441736 0.000000
vt 0.016465 0.398323
vt 0.788639 0.984066
vt 0.907487 0.956063
vt 0.660558 0.915644
vt 0.145835 0.884033
vt 0.320761 0.891907
vt 0.252451 0.986847
vt 0.562213 0.703999
vt 0.760994 0.577414
vt 0.454322 0.835669
vt 0.509408 0.820638
vt 0.542437 0.803935
vt 0.890754 0.797834
vt 0.708503 0.958054
vt 0.855878 0.995111
vt 0.916281 1.000000
vt 0.890806 0.830723
vt 0.423259 0.956039
vt 0.373176 0.857854
vt 0.506762 0.927945
vt 0.558864 0.655196
vt 0.598442 0.938647
vt 0.271921 0.350043
vt 0.150748 0.186830
vt 1.000000 0.404100
vt 0.730374 0.318685
vt 0.053765 0.170868
vt 0.260132 0.256118
vt 0.111520 0.109026
vt 0.199286 1.000000
vn 0.9953 -0.0966 -0.0109
vn 0.9862 -0.1264 -0.1072
vn 0.9862 -0.1496 -0.0711
vn 0.9999 0.0139 0.0050
vn 0.9954 -0.0951 -0.0154
vn 0.9954 -0.0952 -0.0132
vn 0.9858 -0.1571 -0.0598
vn 0.8307 0.5085 0.2265
vn 0.7836 0.5826 0.2156
vn 0.8314 0.5110 0.2185
vn 0.9997 0.0054 -0.0241
vn 0.9943 -0.1048 -0.0209
vn 0.9996 0.0250 0.0146
vn 0.9764 0.2140 0.0306
vn 0.9877 0.1563 -0.0046
vn 0.9952 -0.0963 0.0186
vn 0.9665 0.2447 0.0780
vn 0.9932 0.1135 0.0250
vn 0.9386 0.3400 0.0590
vn 0.9944 0.1059 -0.0055
vn 0.9800 0.1648 0.1118
vn 0.9931 -0.1168 -0.0131
vn 0.9971 0.0765 0.0022
vn 0.9891 0.0965 0.1116
vn 0.9948 0.0973 0.0291
vn 0.9964 -0.0830 -0.0175
vn 0.9723 -0.2330 -0.0195
vn 0.9901 -0.1378 -0.0260
vn 0.9946 -0.1037 -0.0079
vn 0.9771 -0.2102 0.0320
vn 0.9914 -0.1110 0.0698
vn 0.9999 0.0164 0.0017
vn 0.9826 -0.1595 -0.0955
vn 0.9944 -0.1021 -0.0263
vn 0.9874 -0.1514 -0.0470
vn 0.9951 -0.0986 -0.0121
vn 0.9363 0.3393 0.0906
vn 0.9719 0.2164 0.0924
vn 0.9681 0.1975 0.1542
vn 0.8226 0.5460 0.1588
vn 0.8656 0.4793 0.1452
vn 0.7821 0.5838 0.2182
vn 0.9994 0.0310 0.0142
vn 0.9996 0.0261 0.0117
vn 0.9954 -0.0839 0.0454
vn 0.9726 0.1941 0.1279
vn 0.9751 0.2010 0.0938
vn 0.9656 0.2022 0.1632
vn 0.9959 0.0832 -0.0340
vn 0.9286 0.3387 0.1518
vn 0.9470 0.3051 0.1001
vn 0.9385 0.3389 0.0665
vn 0.9917 0.1231 -0.0369
vn 0.9960 0.0807 -0.0382
vn 0.8589 0.4968 0.1241
vn 0.7856 0.5908 0.1837
vn 0.9909 0.1303 -0.0327
vn 0.9858 0.1594 -0.0534
vn 0.8531 0.4898 0.1800
vn 0.9999 0.0007 -0.0171
vn 0.9999 -0.0118 0.0123
vn 0.8854 0.3351 0.3220
vn 0.8909 0.3387 0.3025
vn 0.9996 -0.0252 -0.0147
vn 0.9998 -0.0196 -0.0019
vn 0.9966 -0.0804 -0.0198
vn 0.9974 -0.0471 -0.0548
vn 0.9962 -0.0865 -0.0024
vn 0.9966 -0.0798 -0.0188
vn 0.9962 -0.0872 -0.0016
vn 0.9965 -0.0805 -0.0245
vn 0.9939 -0.1079 -0.0237
vn 0.9932 -0.1150 -0.0162
vn 0.8731 0.4095 0.2646
vn 0.9264 0.3502 0.1384
vn 0.7729 0.6079 0.1818
vn 0.9952 -0.0960 0.0187
vn 0.9945 -0.1027 -0.0203
vn 0.9906 -0.1163 0.0721
vn 0.9970 -0.0749 0.0189
vn 0.9957 -0.0910 0.0193
vn 0.9866 -0.1565 -0.0461
vn 0.9920 -0.1052 -0.0703
vn 0.9917 -0.1270 -0.0211
vn 0.8837 0.3636 0.2947
vn 0.9826 -0.1582 -0.0975
vn 0.9077 0.4112 0.0831
vn 0.9118 0.4065 0.0581
vn 0.9837 -0.1727 0.0499
vn 0.9908 -0.1299 0.0385
vn 0.9918 -0.1247 -0.0268
vn 0.9942 -0.1041 -0.0281
vn 0.9909 -0.1087 -0.0799
vn 0.9953 -0.0860 -0.0445
vn 0.9591 0.2462 0.1398
vn 0.9902 -0.1202 0.0704
vn 0.9899 -0.1187 0.0774
vn 0.9642 0.2147 0.1555
vn 0.9823 0.1761 0.0645
vn 0.9888 -0.1489 -0.0005
vn 0.9936 -0.1131 0.0051
vn 0.7792 0.5973 0.1900
vn 0.7961 0.5819 0.1663
vn 0.9919 -0.1229 -0.0310
vn 0.9880 -0.1527 -0.0232
vn 0.9907 -0.1337 -0.0240
vn 0.9903 -0.1388 0.0090
vn 0.9808 -0.1872 -0.0548
vn 0.9804 -0.1965 0.0144
vn 0.9857 -0.1683 -0.0076
vn 0.9890 -0.1479 0.0000
vn 0.9888 -0.1484 0.0158
vn 0.9893 -0.1410 0.0369
vn 0.9654 -0.2534 -0.0621
vn 0.9927 -0.1191 -0.0201
vn 0.9929 -0.1184 -0.0082
vn 0.8711 0.4811 0.0992
vn 0.8836 0.4498 0.1300
vn 0.9290 0.3421 0.1415
vn 0.9742 0.2237 0.0301
vn 0.8879 0.4215 0.1841
vn 0.9939 -0.1085 -0.0211
vn 0.9954 -0.0958 0.0086
vn 0.9931 -0.1165 -0.0101
vn 0.9998 -0.0222 -0.0007
vn 0.9997 -0.0231 0.0123
vn 0.9972 0.0583 0.0462
vn 0.9875 0.0809 0.1353
vn 0.9937 0.1101 0.0230
usemtl None
s off
f 1/1/1 2/2/1 3/3/1
f 4/4/2 5/5/2 6/6/2
f 4/4/3 7/7/3 5/5/3
f 8/8/4 9/9/4 10/10/4
f 12/11/5 11/12/5 1/1/5
f 11/12/6 2/2/6 1/1/6
f 13/13/7 14/14/7 6/6/7
f 15/15/8 17/16/8 16/17/8
f 16/17/9 18/18/9 15/15/9
f 19/19/10 17/16/10 15/15/10
f 20/20/11 21/21/11 22/22/11
f 12/11/12 23/23/12 24/24/12
f 20/20/13 22/22/13 25/25/13
f 26/26/14 27/27/14 8/8/14
f 26/26/15 8/8/15 10/10/15
f 28/28/16 30/29/16 29/30/16
f 27/27/17 31/31/17 8/8/17
f 32/32/18 34/33/18 33/34/18
f 27/27/19 17/16/19 31/31/19
f 35/35/20 25/25/20 34/33/20
f 36/36/21 35/35/21 34/33/21
f 37/37/22 38/38/22 39/39/22
f 22/22/23 33/34/23 25/25/23
f 26/26/24 10/10/24 40/40/24
f 34/33/25 25/25/25 33/34/25
f 41/41/26 37/37/26 42/42/26
f 43/43/27 44/44/27 45/45/27
f 13/13/28 6/6/28 30/29/28
f 46/46/29 30/29/29 28/28/29
f 47/47/30 48/48/30 49/49/30
f 50/50/31 47/47/31 49/49/31
f 51/51/32 9/9/32 8/8/32
f 52/52/33 4/4/33 6/6/33
f 46/46/34 53/53/34 30/29/34
f 43/43/35 54/54/35 44/44/35
f 11/12/36 12/11/36 24/24/36
f 55/55/37 32/32/37 56/56/37
f 57/57/38 36/36/38 34/33/38
f 57/57/39 34/33/39 32/32/39
f 58/58/40 17/16/40 19/19/40
f 59/59/41 16/17/41 17/16/41
f 60/60/42 15/15/42 18/18/42
f 61/61/43 25/25/43 35/35/43
f 61/61/44 20/20/44 25/25/44
f 62/62/45 20/20/45 61/61/45
f 63/63/46 40/40/46 64/64/46
f 63/63/47 26/26/47 40/40/47
f 65/65/48 64/64/48 40/40/48
f 66/66/49 22/22/49 21/21/49
f 67/67/50 32/32/50 55/55/50
f 68/68/51 55/55/51 56/56/51
f 56/56/52 69/69/52 68/68/52
f 66/66/53 70/70/53 33/34/53
f 66/66/54 33/34/54 22/22/54
f 59/59/55 71/71/55 16/17/55
f 18/18/56 16/17/56 71/71/56
f 70/70/57 32/32/57 33/34/57
f 70/70/58 56/56/58 32/32/58
f 72/72/59 73/73/59 71/71/59
f 41/41/60 10/10/60 9/9/60
f 74/74/61 10/10/61 41/41/61
f 73/73/62 36/36/62 75/75/62
f 57/57/63 75/75/63 36/36/63
f 3/3/64 21/21/64 62/62/64
f 41/41/65 62/62/65 74/74/65
f 42/42/66 62/62/66 41/41/66
f 20/20/67 62/62/67 21/21/67
f 1/1/68 62/62/68 12/11/68
f 23/23/69 62/62/69 42/42/69
f 1/1/70 3/3/70 62/62/70
f 23/23/71 12/11/71 62/62/71
f 51/51/72 76/76/72 9/9/72
f 76/76/73 51/51/73 54/54/73
f 67/67/74 75/75/74 57/57/74
f 67/67/75 57/57/75 32/32/75
f 60/60/76 18/18/76 71/71/76
f 77/77/77 29/30/77 30/29/77
f 11/12/78 50/50/78 2/2/78
f 50/50/79 49/49/79 2/2/79
f 78/78/80 2/2/80 49/49/80
f 2/2/81 78/78/81 3/3/81
f 5/5/82 79/79/82 39/39/82
f 5/5/83 39/39/83 6/6/83
f 39/39/84 30/29/84 6/6/84
f 64/64/85 36/36/85 73/73/85
f 14/14/86 52/52/86 6/6/86
f 72/72/87 63/63/87 73/73/87
f 64/64/88 73/73/88 63/63/88
f 77/77/89 45/45/89 80/80/89
f 81/81/90 77/77/90 30/29/90
f 79/79/91 24/24/91 39/39/91
f 24/24/92 23/23/92 42/42/92
f 13/13/93 53/53/93 14/14/93
f 53/53/94 13/13/94 30/29/94
f 63/63/95 72/72/95 26/26/95
f 82/82/96 77/77/96 80/80/96
f 77/77/97 82/82/97 29/30/97
f 64/64/98 65/65/98 36/36/98
f 65/65/99 35/35/99 36/36/99
f 81/81/100 39/39/100 38/38/100
f 81/81/101 30/29/101 39/39/101
f 83/83/102 19/19/102 60/60/102
f 60/60/103 19/19/103 15/15/103
f 47/47/104 24/24/104 79/79/104
f 47/47/105 79/79/105 5/5/105
f 47/47/106 11/12/106 24/24/106
f 47/47/107 50/50/107 11/12/107
f 47/47/108 5/5/108 7/7/108
f 47/47/109 7/7/109 48/48/109
f 43/43/110 76/76/110 54/54/110
f 76/76/111 81/81/111 38/38/111
f 77/77/112 81/81/112 76/76/112
f 77/77/113 76/76/113 45/45/113
f 45/45/114 76/76/114 43/43/114
f 24/24/115 42/42/115 39/39/115
f 37/37/116 39/39/116 42/42/116
f 59/59/117 72/72/117 71/71/117
f 72/72/118 59/59/118 17/16/118
f 72/72/119 17/16/119 27/27/119
f 72/72/120 27/27/120 26/26/120
f 58/58/121 31/31/121 17/16/121
f 76/76/122 41/41/122 9/9/122
f 41/41/123 76/76/123 37/37/123
f 37/37/124 76/76/124 38/38/124
f 61/61/125 74/74/125 62/62/125
f 74/74/126 61/61/126 10/10/126
f 61/61/127 40/40/127 10/10/127
f 65/65/128 61/61/128 35/35/128
f 65/65/129 40/40/129 61/61/129
