# Blender v2.79 (sub 0) OBJ File: ''
# www.blender.org
mtllib crack_only_200.mtl
o crack_only_200
v 3.137115 4.928547 -2.467502
v 2.903194 5.904449 -2.124827
v 3.038170 5.658819 -2.901140
v 2.771019 1.764019 -4.354414
v 2.908839 2.530406 -3.826215
v 2.864424 1.996733 -3.671284
v 2.803481 2.127300 -4.643516
v 3.134992 4.998785 -1.396203
v 3.110909 4.188923 -2.019329
v 3.124549 4.572615 -3.978058
v 3.151533 5.323490 -4.388260
v 3.129455 5.467741 -3.634127
v 3.125952 4.411709 -4.766976
v 2.765466 1.171610 -3.288292
v 2.785890 1.390200 -3.322797
v 2.824677 1.591317 -2.769205
v 2.751361 1.274274 -3.651672
v 2.953217 2.881402 -4.552989
v 2.549735 6.179347 -1.500872
v 2.548034 6.454476 -1.877386
v 2.988071 3.149661 -4.476591
v 2.963651 2.937452 -4.673855
v 3.016114 3.325002 -4.694293
v 2.744199 5.787484 -1.413303
v 2.665492 5.961030 -1.443144
v 2.185007 6.875190 -1.933525
v 2.132210 6.859013 -1.669865
v 3.100734 3.923100 -1.332403
v 3.064962 3.541764 -1.658937
v 3.056272 3.742712 -4.204500
v 3.065383 3.787162 -3.896848
v 3.021235 3.368880 -3.875699
v 3.084910 3.925028 -3.458946
v 3.111948 4.218847 -2.755171
v 1.902224 7.197817 -2.289461
v 2.157460 6.990754 -2.261021
v 1.942040 7.048426 -1.823316
v 2.788187 1.178349 -2.652391
v 2.802250 1.360270 -2.204414
v 3.030008 6.312357 -4.275811
v 3.093680 3.953510 -2.500632
v 3.054777 3.458046 -1.939658
v 3.071396 3.727643 -3.028241
v 2.975121 2.857751 -2.915802
v 2.947837 2.685074 -3.364533
v 3.051580 3.578288 -3.414915
v 2.284341 6.632044 -1.552642
v 2.783713 1.166770 -2.807626
v 2.905858 6.418514 -3.460769
v 2.571460 6.650870 -2.533536
v 3.047686 3.573731 -4.766726
v 3.048078 3.627744 -4.529428
v 2.885999 2.527309 -4.885275
v 3.019514 3.164596 -5.064312
v 3.067070 3.699609 -5.011736
v 3.115205 4.118750 -1.336593
v 3.038740 3.216448 -1.264996
v 2.750090 1.458843 -4.015315
v 2.772492 1.142326 -3.106061
v 2.816606 1.684266 -1.946496
v 2.805830 1.617505 -1.824189
v 2.828562 1.941913 -1.561886
v 1.762803 7.226676 -2.014758
v 1.661720 7.350949 -2.171729
v 2.062880 7.540919 -3.863312
v 2.424535 7.387836 -4.270047
v 2.451719 7.310206 -3.959877
v 2.259393 7.372120 -3.640733
v 1.758323 7.342198 -2.438893
v 1.866194 7.329378 -2.636178
v 1.650790 7.433403 -2.544080
v 1.869894 7.619692 -4.064285
v 2.137402 7.128130 -2.671229
v 2.425617 6.853611 -2.649954
v 2.769856 7.061816 -4.285191
v 2.751171 6.992454 -3.882022
v 1.735081 7.464063 -2.875438
v 1.571495 7.421697 -2.287220
v 1.886183 7.555264 -3.584464
v 2.052465 6.947062 -1.735966
v 1.841783 7.514334 -3.322928
v 2.224005 7.196046 -3.085774
v 2.983704 3.068543 -3.974682
v 2.550509 6.988351 -3.304570
v 2.969374 6.550498 -4.277361
v 3.019588 3.158199 -1.709134
v 3.008804 3.089681 -2.318500
v 2.970213 2.690387 -1.262452
v 2.860091 2.082945 -1.918618
v 2.879043 2.301039 -1.371804
v 2.859788 2.028682 -2.313363
vt 0.282315 0.693438
vt 0.380396 0.804643
vt 0.259697 0.877182
vt 0.478997 0.063025
vt 0.419774 0.218650
vt 0.374431 0.130651
vt 0.540380 0.115856
vt 0.180865 0.580628
vt 0.106894 0.747080
vt 0.520253 0.572590
vt 0.615807 0.688844
vt 0.495664 0.743180
vt 0.645468 0.513899
vt 0.280345 0.000000
vt 0.294119 0.037169
vt 0.209654 0.094021
vt 0.344370 0.003972
vt 0.553475 0.252495
vt 0.834406 0.126141
vt 0.947269 0.191434
vt 0.838379 0.206274
vt 0.550701 0.302730
vt 0.575640 0.257728
vt 0.593373 0.325267
vt 0.885678 0.075832
vt 0.863320 0.096384
vt 0.760318 0.260500
vt 0.736099 0.219386
vt 0.057047 0.560357
vt 0.097260 0.480601
vt 0.527383 0.417728
vt 0.477936 0.437440
vt 0.459009 0.364563
vt 0.410297 0.478634
vt 0.304194 0.557519
vt 0.721911 0.352200
vt 0.706455 0.265341
vt 0.770373 0.322275
vt 0.175067 0.025798
vt 0.107328 0.075101
vt 0.632457 0.866457
vt 0.252181 0.520627
vt 0.140801 0.455023
vt 0.331511 0.460497
vt 0.280756 0.311557
vt 0.348891 0.263795
vt 0.390221 0.419257
vt 0.766322 0.178030
vt 0.200412 0.017759
vt 0.500311 0.916023
vt 0.353080 0.991218
vt 0.614597 0.366317
vt 0.577142 0.384960
vt 0.595479 0.177175
vt 0.649029 0.282824
vt 0.659966 0.379072
vt 0.064922 0.594639
vt 0.019871 0.438511
vt 0.411477 0.022381
vt 0.249044 0.001909
vt 0.076325 0.142044
vt 0.021853 0.202202
vt 0.053529 0.134983
vt 1.000000 0.000000
vt 0.681834 0.316107
vt 0.669474 0.354281
vt 0.826104 0.621781
vt 0.902911 0.604671
vt 0.914870 0.660914
vt 0.850044 0.566031
vt 0.701741 0.392368
vt 0.730903 0.418549
vt 0.687565 0.420139
vt 0.808410 0.667405
vt 0.785471 0.398532
vt 0.844259 0.363517
vt 0.987934 0.625657
vt 0.962704 0.557032
vt 0.719531 0.471831
vt 0.659966 0.381510
vt 0.781995 0.585485
vt 0.723092 0.239562
vt 0.761041 0.542573
vt 0.820578 0.466112
vt 0.871745 0.324304
vt 0.464356 0.307809
vt 0.895903 0.472711
vt 1.000000 0.441863
vt 0.641069 0.907996
vt 0.590381 1.000000
vt 0.091441 0.411069
vt 0.190125 0.375487
vt 0.000000 0.345874
vt 0.086392 0.213364
vt 0.003572 0.272854
vt 0.149993 0.188606
vt 0.659966 0.996722
vn 0.9747 0.1959 0.1075
vn 0.9891 -0.1106 -0.0975
vn 0.9888 -0.1363 -0.0602
vn 0.9994 -0.0329 0.0041
vn 0.9993 -0.0180 0.0327
vn 0.9995 -0.0314 0.0082
vn 0.9713 0.2376 -0.0137
vn 0.9946 -0.0983 -0.0340
vn 0.9866 -0.1557 -0.0487
vn 0.9811 -0.1909 -0.0323
vn 0.8571 0.4178 0.3014
vn 0.9909 -0.1331 0.0205
vn 0.8606 0.4357 0.2639
vn 0.7313 0.6560 0.1867
vn 0.9967 -0.0797 -0.0161
vn 0.9943 -0.1057 -0.0142
vn 0.9976 -0.0688 -0.0096
vn 0.6046 0.7721 0.1958
vn 0.9962 -0.0869 0.0040
vn 0.9926 0.1213 0.0059
vn 0.9971 -0.0764 0.0017
vn 0.9935 -0.1122 -0.0172
vn 0.9968 -0.0772 -0.0202
vn 0.9933 -0.1157 -0.0062
vn 0.9901 -0.1390 -0.0189
vn 0.7367 0.6259 0.2559
vn 0.9969 -0.0780 -0.0129
vn 0.9953 -0.0941 -0.0217
vn 0.7851 0.5018 0.3631
vn 0.9093 0.3376 0.2433
vn 0.9969 -0.0770 -0.0184
vn 0.9955 -0.0930 0.0195
vn 0.9798 -0.1983 0.0248
vn 0.9924 -0.1095 0.0566
vn 0.9893 -0.1305 0.0656
vn 0.9953 -0.0916 0.0317
vn 0.9952 -0.0929 0.0310
vn 0.9972 -0.0741 -0.0139
vn 0.9082 0.4177 0.0257
vn 0.9961 -0.0880 -0.0064
vn 0.9997 -0.0231 -0.0087
vn 0.9842 -0.1574 -0.0809
vn 0.9952 -0.0933 -0.0298
vn 0.9946 -0.0975 0.0344
vn 0.9827 -0.1855 -0.0012
vn 0.9957 -0.0776 -0.0509
vn 0.8620 0.4328 0.2638
vn 0.9952 -0.0974 -0.0134
vn 0.9923 -0.1034 -0.0677
vn 0.9806 -0.1960 0.0105
vn 0.8276 0.5041 0.2468
vn 0.9959 -0.0794 0.0444
vn 0.5989 0.7691 0.2232
vn 0.5705 0.7950 0.2061
vn 0.5329 0.8307 0.1612
vn 0.5328 0.8310 0.1598
vn 0.5914 0.7841 0.1881
vn 0.5466 0.8002 0.2468
vn 0.5374 0.8266 0.1673
vn 0.4984 0.8391 0.2180
vn 0.3836 0.9235 -0.0064
vn 0.5980 0.7684 0.2281
vn 0.6667 0.7160 0.2072
vn 0.6843 0.7192 0.1200
vn 0.7003 0.6973 0.1524
vn 0.4951 0.8445 0.2041
vn 0.4540 0.8727 0.1799
vn 0.4566 0.8551 0.2454
vn 0.2661 0.9565 0.1194
vn 0.6137 0.7791 0.1283
vn 0.6598 0.7304 0.1769
vn 0.6291 0.7481 0.2111
vn 0.4859 0.8481 0.2111
vn 0.5515 0.8102 0.1986
vn 0.8611 0.4778 0.1738
vn 0.4561 0.8641 0.2127
vn 0.6573 0.7097 0.2536
vn 0.7235 0.6538 0.2215
vn 0.7256 0.6506 0.2241
vn 0.6602 0.7240 0.1999
vn 0.9994 -0.0354 -0.0000
vn 0.9919 -0.1264 -0.0086
vn 0.9927 -0.1196 -0.0136
vn 0.9902 -0.1397 -0.0070
vn 0.9906 -0.1352 0.0228
vn 0.7016 0.6596 0.2696
vn 0.6391 0.7201 0.2702
vn 0.8557 0.4822 0.1878
vn 0.9710 0.2063 0.1210
vn 0.9625 0.2458 0.1146
vn 0.9300 0.3446 0.1280
vn 0.8447 0.4454 0.2967
vn 0.9740 0.2173 0.0647
vn 0.9955 -0.0926 0.0207
vn 0.4992 0.8162 0.2908
vn 0.6389 0.7206 0.2694
vn 0.6637 0.7099 0.2357
vn 0.6676 0.6947 0.2676
vn 0.9958 -0.0911 -0.0090
vn 0.9905 -0.1354 -0.0250
vn 0.9994 -0.0355 0.0000
vn 0.9886 -0.0586 0.1384
vn 0.9929 0.1137 -0.0351
vn 0.9975 -0.0701 -0.0014
vn 0.9965 -0.0828 -0.0067
vn 0.9971 -0.0753 -0.0069
vn 0.9928 -0.1197 -0.0041
vn 0.9945 -0.1022 -0.0213
vn 0.5990 0.7673 0.2289
vn 0.5976 0.7619 0.2497
vn 0.9965 -0.0832 0.0043
vn 0.9921 -0.1255 -0.0090
vn 0.9926 -0.1186 0.0254
vn 0.9922 -0.1212 0.0302
vn 0.9961 -0.0880 0.0060
vn 0.9952 -0.0978 -0.0002
vn 0.9937 -0.1116 -0.0127
vn 0.9939 -0.1099 -0.0052
vn 0.9913 -0.1293 -0.0258
vn 0.9842 -0.1563 -0.0828
vn 0.9879 -0.1530 0.0268
vn 0.9903 -0.1391 -0.0018
vn 0.9939 -0.0976 -0.0513
vn 0.9885 -0.1470 -0.0343
vn 0.9932 -0.1165 -0.0086
vn 0.9899 -0.1418 -0.0056
vn 0.9953 -0.0921 0.0307
vn 0.9960 -0.0787 0.0434
vn 0.9964 -0.0850 0.0048
vn 0.9861 -0.1650 0.0219
vn 0.9947 -0.1010 0.0203
vn 0.9928 -0.1187 -0.0162
vn 0.9944 -0.1055 -0.0111
vn 0.9932 -0.1161 -0.0127
vn 0.9949 -0.0983 -0.0209
vn 0.9259 0.3629 0.1053
vn 0.9754 -0.2155 -0.0458
vn 0.9902 -0.1380 0.0207
vn 0.9901 -0.1390 0.0183
usemtl None
s off
f 1/1/1 3/2/1 2/3/1
f 4/4/2 5/5/2 6/6/2
f 4/4/3 7/7/3 5/5/3
f 9/8/4 1/1/4 8/9/4
f 10/10/5 11/11/5 12/12/5
f 13/13/6 11/11/6 10/10/6
f 2/3/7 8/9/7 1/1/7
f 14/14/8 15/15/8 16/16/8
f 15/15/9 17/17/9 6/6/9
f 18/18/10 5/5/10 7/7/10
f 19/19/11 2/20/11 20/21/11
f 21/22/12 22/23/12 23/24/12
f 24/25/13 2/20/13 25/26/13
f 26/27/14 27/28/14 20/21/14
f 28/29/15 29/30/15 9/8/15
f 30/31/16 31/32/16 32/33/16
f 33/34/17 10/10/17 34/35/17
f 35/36/18 37/37/18 36/38/18
f 38/39/19 16/16/19 39/40/19
f 40/41/20 12/12/20 11/11/20
f 41/42/21 9/8/21 42/43/21
f 43/44/22 44/45/22 45/46/22
f 31/32/23 10/10/23 33/34/23
f 43/44/24 45/46/24 46/47/24
f 15/15/25 6/6/25 16/16/25
f 47/48/26 20/21/26 27/28/26
f 42/43/27 9/8/27 29/30/27
f 48/49/28 16/16/28 38/39/28
f 47/48/29 19/19/29 20/21/29
f 49/50/30 50/51/30 3/2/30
f 31/32/31 30/31/31 10/10/31
f 51/52/32 13/13/32 52/53/32
f 22/23/33 53/54/33 54/55/33
f 23/24/34 54/55/34 51/52/34
f 23/24/35 22/23/35 54/55/35
f 55/56/36 51/52/36 54/55/36
f 51/52/37 55/56/37 13/13/37
f 28/29/38 9/8/38 56/57/38
f 50/51/39 2/3/39 3/2/39
f 29/30/40 28/29/40 57/58/40
f 56/57/41 9/8/41 8/9/41
f 58/59/42 4/4/42 6/6/42
f 48/49/43 59/60/43 16/16/43
f 60/61/44 62/62/44 61/63/44
f 18/18/45 53/54/45 22/23/45
f 14/14/46 16/16/46 59/60/46
f 24/25/47 8/64/47 2/20/47
f 43/44/48 46/47/48 33/34/48
f 15/15/49 14/14/49 17/17/49
f 18/18/50 7/7/50 53/54/50
f 25/26/51 2/20/51 19/19/51
f 61/63/52 39/40/52 60/61/52
f 63/65/53 35/36/53 64/66/53
f 63/65/54 37/37/54 35/36/54
f 65/67/55 67/68/55 66/69/55
f 65/67/56 68/70/56 67/68/56
f 69/71/57 64/66/57 35/36/57
f 69/71/58 35/36/58 70/72/58
f 69/71/59 71/73/59 64/66/59
f 69/71/60 70/72/60 71/73/60
f 65/67/61 66/69/61 72/74/61
f 73/75/62 35/36/62 36/38/62
f 74/76/63 73/75/63 36/38/63
f 75/77/64 66/69/64 67/68/64
f 75/77/65 67/68/65 76/78/65
f 77/79/66 71/73/66 70/72/66
f 78/80/67 64/66/67 71/73/67
f 79/81/68 68/70/68 65/67/68
f 79/81/69 65/67/69 72/74/69
f 80/82/70 26/27/70 37/37/70
f 80/82/71 27/28/71 26/27/71
f 26/27/72 36/38/72 37/37/72
f 77/79/73 70/72/73 81/83/73
f 82/84/74 81/83/74 70/72/74
f 50/85/75 20/21/75 2/20/75
f 81/83/76 68/70/76 79/81/76
f 73/75/77 74/76/77 82/84/77
f 26/27/78 20/21/78 50/85/78
f 74/76/79 26/27/79 50/85/79
f 74/76/80 36/38/80 26/27/80
f 9/8/81 34/35/81 1/1/81
f 18/18/82 21/22/82 32/33/82
f 18/18/83 32/33/83 83/86/83
f 18/18/84 83/86/84 5/5/84
f 18/18/85 22/23/85 21/22/85
f 50/85/86 84/87/86 74/76/86
f 74/76/87 84/87/87 82/84/87
f 50/85/88 49/88/88 84/87/88
f 40/41/89 49/50/89 12/12/89
f 49/50/90 40/41/90 85/89/90
f 49/50/91 85/89/91 76/90/91
f 49/88/92 76/78/92 84/87/92
f 49/50/93 3/2/93 12/12/93
f 10/10/94 52/53/94 13/13/94
f 68/70/95 81/83/95 82/84/95
f 84/87/96 68/70/96 82/84/96
f 84/87/97 76/78/97 68/70/97
f 68/70/98 76/78/98 67/68/98
f 29/30/99 57/58/99 42/43/99
f 42/43/100 57/58/100 86/91/100
f 34/35/101 10/10/101 1/1/101
f 10/10/102 12/12/102 3/2/102
f 3/2/103 1/1/103 10/10/103
f 41/42/104 34/35/104 9/8/104
f 41/42/105 43/44/105 33/34/105
f 41/42/106 33/34/106 34/35/106
f 87/92/107 42/43/107 86/91/107
f 41/42/108 42/43/108 87/92/108
f 73/75/109 70/72/109 35/36/109
f 73/75/110 82/84/110 70/72/110
f 52/53/111 10/10/111 30/31/111
f 21/22/112 52/53/112 32/33/112
f 52/53/113 23/24/113 51/52/113
f 21/22/114 23/24/114 52/53/114
f 52/53/115 30/31/115 32/33/115
f 41/42/116 87/92/116 43/44/116
f 43/44/117 87/92/117 44/45/117
f 87/92/118 86/91/118 88/93/118
f 88/93/119 86/91/119 57/58/119
f 17/17/120 58/59/120 6/6/120
f 89/94/121 90/95/121 62/62/121
f 87/92/122 91/96/122 44/45/122
f 5/5/123 45/46/123 6/6/123
f 5/5/124 83/86/124 45/46/124
f 45/46/125 16/16/125 6/6/125
f 91/96/126 45/46/126 44/45/126
f 60/61/127 91/96/127 62/62/127
f 91/96/128 60/61/128 39/40/128
f 91/96/129 39/40/129 16/16/129
f 89/94/130 62/62/130 91/96/130
f 45/46/131 91/96/131 16/16/131
f 83/86/132 32/33/132 45/46/132
f 32/33/133 31/32/133 33/34/133
f 32/33/134 46/47/134 45/46/134
f 32/33/135 33/34/135 46/47/135
f 75/97/136 76/90/136 85/89/136
f 90/95/137 87/92/137 88/93/137
f 89/94/138 87/92/138 90/95/138
f 89/94/139 91/96/139 87/92/139
