# Blender v2.79 (sub 0) OBJ File: ''
# www.blender.org
mtllib crack_only_27.mtl
o crack_only_27
v 2.824754 1.444975 -3.371841
v 2.852257 1.305606 -3.094893
v 2.861872 1.553890 -2.983222
v 2.872619 1.403345 -2.727667
v 2.886886 1.150334 -2.736149
v 2.884494 1.136809 -2.892675
v 2.810447 1.205054 -3.499510
v 2.833014 1.169698 -3.362978
v 2.874952 1.493819 -2.630219
v 2.891586 1.213987 -2.529856
v 2.798184 1.324490 -3.548758
v 2.793421 1.230396 -3.596044
v 2.882304 1.310880 -2.310197
v 2.870201 1.120425 -3.109006
vt 0.185720 0.812887
vt 0.000000 0.505064
vt 0.564297 0.606214
vt 0.399209 0.316531
vt 0.995103 0.337074
vt 1.000000 0.458513
vt 0.836253 0.821750
vt 0.727035 0.926144
vt 0.203103 0.236051
vt 0.880954 0.174236
vt 0.436002 0.957777
vt 0.648876 1.000000
vt 0.689134 0.000000
vt 1.000000 0.626881
vn 0.9953 0.0048 -0.0964
vn 0.9986 -0.0156 -0.0512
vn 0.9982 0.0570 -0.0202
vn 0.9924 0.0937 -0.0800
vn 0.9873 0.0246 -0.1568
vn 0.9975 0.0381 -0.0592
vn 0.9975 0.0576 -0.0405
vn 0.9993 0.0119 -0.0350
vn 0.9857 0.0331 -0.1652
vn 0.9851 0.0313 -0.1693
vn 0.9978 0.0643 0.0138
vn 0.9921 0.1017 -0.0733
vn 0.9867 0.1051 -0.1241
vn 0.9960 0.0271 -0.0853
usemtl None
s off
f 1/1/1 3/2/1 2/3/1
f 2/3/2 3/2/2 4/4/2
f 5/5/3 6/6/3 4/4/3
f 6/6/4 2/3/4 4/4/4
f 8/7/5 7/8/5 1/1/5
f 9/9/6 10/10/6 4/4/6
f 5/5/7 4/4/7 10/10/7
f 9/9/8 4/4/8 3/2/8
f 11/11/9 7/8/9 12/12/9
f 11/11/10 1/1/10 7/8/10
f 13/13/11 10/10/11 9/9/11
f 14/14/12 2/3/12 6/6/12
f 2/3/13 14/14/13 8/7/13
f 8/7/14 1/1/14 2/3/14
